solid OpenSCAD_Model
  facet normal -1 0 0
    outer loop
      vertex -5.999 -8 0
      vertex -5.999 -5.901 2.6
      vertex -5.999 -5.901 0
    endloop
  endfacet
  facet normal -1 -0 0
    outer loop
      vertex -5.999 -5.901 2.6
      vertex -5.999 -8 0
      vertex -5.999 -8 2.6
    endloop
  endfacet
  facet normal -1 0 0
    outer loop
      vertex -5.999 -3.101 0
      vertex -5.999 -1 2.6
      vertex -5.999 -1 0
    endloop
  endfacet
  facet normal -1 -0 0
    outer loop
      vertex -5.999 -1 2.6
      vertex -5.999 -3.101 0
      vertex -5.999 -3.101 2.6
    endloop
  endfacet
  facet normal 0 0 1
    outer loop
      vertex 0.000999451 -1 2.6
      vertex 5.49316e-07 -3.101 2.6
      vertex 0.000999451 -8 2.6
    endloop
  endfacet
  facet normal -0 0 1
    outer loop
      vertex -5.999 -1 2.6
      vertex 5.49316e-07 -3.101 2.6
      vertex 0.000999451 -1 2.6
    endloop
  endfacet
  facet normal 0 0 1
    outer loop
      vertex 5.49316e-07 -3.101 2.6
      vertex -5.999 -1 2.6
      vertex -5.999 -3.101 2.6
    endloop
  endfacet
  facet normal -0 0 1
    outer loop
      vertex 5.49316e-07 -5.901 2.6
      vertex 0.000999451 -8 2.6
      vertex 5.49316e-07 -3.101 2.6
    endloop
  endfacet
  facet normal -0 0 1
    outer loop
      vertex -5.999 -5.901 2.6
      vertex 0.000999451 -8 2.6
      vertex 5.49316e-07 -5.901 2.6
    endloop
  endfacet
  facet normal 0 0 1
    outer loop
      vertex 0.000999451 -8 2.6
      vertex -5.999 -5.901 2.6
      vertex -5.999 -8 2.6
    endloop
  endfacet
  facet normal 0 0 -1
    outer loop
      vertex 84.6979 -22.8995 0
      vertex 91.6746 -20.4693 0
      vertex 90.6135 -24.4294 0
    endloop
  endfacet
  facet normal -0 0 -1
    outer loop
      vertex 91.6746 -20.4693 0
      vertex 84.6979 -22.8995 0
      vertex 85.0088 -18.6832 0
    endloop
  endfacet
  facet normal -0 0 -1
    outer loop
      vertex 101.171 -8.20854 0
      vertex 100.446 -10.9131 0
      vertex 101.17 -8.20828 0
    endloop
  endfacet
  facet normal 0 0 -1
    outer loop
      vertex 100.445 -10.9129 0
      vertex 101.17 -8.20828 0
      vertex 100.446 -10.9131 0
    endloop
  endfacet
  facet normal 0 0 -1
    outer loop
      vertex 95.9192 -4.62839 0
      vertex 101.17 -8.20828 0
      vertex 100.445 -10.9129 0
    endloop
  endfacet
  facet normal 0 0 -1
    outer loop
      vertex 94.1075 -11.3899 0
      vertex 100.445 -10.9129 0
      vertex 99.9012 -12.9423 0
    endloop
  endfacet
  facet normal 0 0 -1
    outer loop
      vertex 101.17 -8.20828 0
      vertex 95.9192 -4.62839 0
      vertex 101.713 -6.1808 0
    endloop
  endfacet
  facet normal -0 0 -1
    outer loop
      vertex 100.445 -10.9129 0
      vertex 94.1075 -11.3899 0
      vertex 95.9192 -4.62839 0
    endloop
  endfacet
  facet normal 0 0 -1
    outer loop
      vertex 86.8723 -11.7286 0
      vertex 95.9192 -4.62839 0
      vertex 94.1075 -11.3899 0
    endloop
  endfacet
  facet normal 0 0 -1
    outer loop
      vertex 95.9192 -4.62839 0
      vertex 90.7459 1.35793 0
      vertex 97.084 -0.281222 0
    endloop
  endfacet
  facet normal 0 0 -1
    outer loop
      vertex 86.8723 -11.7286 0
      vertex 94.1075 -11.3899 0
      vertex 93.5381 -13.5147 0
    endloop
  endfacet
  facet normal -0 0 -1
    outer loop
      vertex 95.9192 -4.62839 0
      vertex 86.8723 -11.7286 0
      vertex 90.7459 1.35793 0
    endloop
  endfacet
  facet normal 0 0 -1
    outer loop
      vertex 86.8723 -11.7286 0
      vertex 84.3801 2.88621 0
      vertex 90.7459 1.35793 0
    endloop
  endfacet
  facet normal 0 0 -1
    outer loop
      vertex 78.7564 -21.473 0
      vertex 86.8723 -11.7286 0
      vertex 85.0088 -18.6832 0
    endloop
  endfacet
  facet normal 0 0 -1
    outer loop
      vertex 78.7564 -21.473 0
      vertex 85.0088 -18.6832 0
      vertex 84.6979 -22.8995 0
    endloop
  endfacet
  facet normal 0 0 -1
    outer loop
      vertex 86.8723 -11.7286 0
      vertex 78.7564 -21.473 0
      vertex 72.7909 -20.1505 0
    endloop
  endfacet
  facet normal 0 0 -1
    outer loop
      vertex 86.8723 -11.7286 0
      vertex 77.9887 4.30316 0
      vertex 84.3801 2.88621 0
    endloop
  endfacet
  facet normal -0 0 -1
    outer loop
      vertex 86.8723 -11.7286 0
      vertex 72.7909 -20.1505 0
      vertex 77.9887 4.30316 0
    endloop
  endfacet
  facet normal 0 0 -1
    outer loop
      vertex 72.7909 -20.1505 0
      vertex 71.5735 5.60836 0
      vertex 77.9887 4.30316 0
    endloop
  endfacet
  facet normal 0 0 -1
    outer loop
      vertex 66.8032 -18.9323 0
      vertex 71.5735 5.60836 0
      vertex 72.7909 -20.1505 0
    endloop
  endfacet
  facet normal 0 0 -1
    outer loop
      vertex 66.8032 -18.9323 0
      vertex 65.1364 6.80139 0
      vertex 71.5735 5.60836 0
    endloop
  endfacet
  facet normal 0 0 -1
    outer loop
      vertex 60.7952 -17.8188 0
      vertex 65.1364 6.80139 0
      vertex 66.8032 -18.9323 0
    endloop
  endfacet
  facet normal 0 0 -1
    outer loop
      vertex 60.7952 -17.8188 0
      vertex 58.6796 7.8819 0
      vertex 65.1364 6.80139 0
    endloop
  endfacet
  facet normal 0 0 -1
    outer loop
      vertex 54.7687 -16.8103 0
      vertex 58.6796 7.8819 0
      vertex 60.7952 -17.8188 0
    endloop
  endfacet
  facet normal 0 0 -1
    outer loop
      vertex 54.7687 -16.8103 0
      vertex 52.2048 8.84955 0
      vertex 58.6796 7.8819 0
    endloop
  endfacet
  facet normal 0 0 -1
    outer loop
      vertex 48.7255 -15.9071 0
      vertex 52.2048 8.84955 0
      vertex 54.7687 -16.8103 0
    endloop
  endfacet
  facet normal 0 0 -1
    outer loop
      vertex 48.7255 -15.9071 0
      vertex 45.7142 9.70406 0
      vertex 52.2048 8.84955 0
    endloop
  endfacet
  facet normal 0 0 -1
    outer loop
      vertex 42.6675 -15.1096 0
      vertex 45.7142 9.70406 0
      vertex 48.7255 -15.9071 0
    endloop
  endfacet
  facet normal 0 0 -1
    outer loop
      vertex 42.6675 -15.1096 0
      vertex 39.2096 10.4452 0
      vertex 45.7142 9.70406 0
    endloop
  endfacet
  facet normal 0 0 -1
    outer loop
      vertex 36.5964 -14.4179 0
      vertex 39.2096 10.4452 0
      vertex 42.6675 -15.1096 0
    endloop
  endfacet
  facet normal 0 0 -1
    outer loop
      vertex 36.5964 -14.4179 0
      vertex 32.6931 11.0726 0
      vertex 39.2096 10.4452 0
    endloop
  endfacet
  facet normal 0 0 -1
    outer loop
      vertex 30.5142 -13.8322 0
      vertex 32.6931 11.0726 0
      vertex 36.5964 -14.4179 0
    endloop
  endfacet
  facet normal 0 0 -1
    outer loop
      vertex 30.5142 -13.8322 0
      vertex 26.1667 11.5863 0
      vertex 32.6931 11.0726 0
    endloop
  endfacet
  facet normal 0 0 -1
    outer loop
      vertex 24.4227 -13.3528 0
      vertex 26.1667 11.5863 0
      vertex 30.5142 -13.8322 0
    endloop
  endfacet
  facet normal 0 0 -1
    outer loop
      vertex 24.4227 -13.3528 0
      vertex 19.6322 11.9859 0
      vertex 26.1667 11.5863 0
    endloop
  endfacet
  facet normal 0 0 -1
    outer loop
      vertex 18.3238 -12.9798 0
      vertex 19.6322 11.9859 0
      vertex 24.4227 -13.3528 0
    endloop
  endfacet
  facet normal 0 0 -1
    outer loop
      vertex 7 1.2 0
      vertex 19.6322 11.9859 0
      vertex 18.3238 -12.9798 0
    endloop
  endfacet
  facet normal 0 0 -1
    outer loop
      vertex 7 1.2 0
      vertex 18.3238 -12.9798 0
      vertex 12.2193 -12.7133 0
    endloop
  endfacet
  facet normal -0 0 -1
    outer loop
      vertex 19.6322 11.9859 0
      vertex 7 1.2 0
      vertex 13.0918 12.2715 0
    endloop
  endfacet
  facet normal 0 0 -1
    outer loop
      vertex 7 8.4 0
      vertex 13.0918 12.2715 0
      vertex 7 1.2 0
    endloop
  endfacet
  facet normal 0 0 -1
    outer loop
      vertex 7 8.4 0
      vertex 6.5474 12.4429 0
      vertex 13.0918 12.2715 0
    endloop
  endfacet
  facet normal 0 0 -1
    outer loop
      vertex 0.000999451 8.4 0
      vertex 6.5474 12.4429 0
      vertex 7 8.4 0
    endloop
  endfacet
  facet normal -0 0 -1
    outer loop
      vertex 6.5474 12.4429 0
      vertex 0.000999451 8.4 0
      vertex 0.000999451 12.5 0
    endloop
  endfacet
  facet normal 0 0 -1
    outer loop
      vertex -6 -5.901 0
      vertex -5.999 -3.101 0
      vertex -5.999 -5.901 0
    endloop
  endfacet
  facet normal -0 0 -1
    outer loop
      vertex -5.999 -3.101 0
      vertex -6 -5.901 0
      vertex -6 -3.101 0
    endloop
  endfacet
  facet normal 0 0 -1
    outer loop
      vertex -5.999 -5.901 0
      vertex 0.000999451 -8 0
      vertex -5.999 -8 0
    endloop
  endfacet
  facet normal 0 0 -1
    outer loop
      vertex 0.000999451 -8 0
      vertex -5.999 -5.901 0
      vertex 0.000999451 -1 0
    endloop
  endfacet
  facet normal 0 0 -1
    outer loop
      vertex -5.999 -3.101 0
      vertex 0.000999451 -1 0
      vertex -5.999 -5.901 0
    endloop
  endfacet
  facet normal -0 0 -1
    outer loop
      vertex 0.000999451 -1 0
      vertex -5.999 -3.101 0
      vertex -5.999 -1 0
    endloop
  endfacet
  facet normal 0 0 -1
    outer loop
      vertex 6.11109 -12.5533 0
      vertex 7 1.2 0
      vertex 12.2193 -12.7133 0
    endloop
  endfacet
  facet normal 0 0 -1
    outer loop
      vertex 0.000999451 -8 0
      vertex 6.11109 -12.5533 0
      vertex 0.000999451 -12.5 0
    endloop
  endfacet
  facet normal 0 0 -1
    outer loop
      vertex 6.11109 -12.5533 0
      vertex 0.000999451 -8 0
      vertex 7 1.2 0
    endloop
  endfacet
  facet normal 0 0 -1
    outer loop
      vertex 0.000999451 -1 0
      vertex 7 1.2 0
      vertex 0.000999451 -8 0
    endloop
  endfacet
  facet normal -0 0 -1
    outer loop
      vertex 7 1.2 0
      vertex 0.000999451 -1 0
      vertex 0.000999451 1.2 0
    endloop
  endfacet
  facet normal 0 -1 0
    outer loop
      vertex -5.999 -8 0
      vertex 0.000999451 -8 2.6
      vertex -5.999 -8 2.6
    endloop
  endfacet
  facet normal 0 -1 -0
    outer loop
      vertex 0.000999451 -8 2.6
      vertex -5.999 -8 0
      vertex 0.000999451 -8 0
    endloop
  endfacet
  facet normal 0 1 -0
    outer loop
      vertex 0.000999451 -1 0
      vertex -5.999 -1 2.6
      vertex 0.000999451 -1 2.6
    endloop
  endfacet
  facet normal 0 1 0
    outer loop
      vertex -5.999 -1 2.6
      vertex 0.000999451 -1 0
      vertex -5.999 -1 0
    endloop
  endfacet
  facet normal -1 0 0
    outer loop
      vertex -6 -5.901 0
      vertex -6 -3.101 4.6
      vertex -6 -3.101 0
    endloop
  endfacet
  facet normal -1 -0 0
    outer loop
      vertex -6 -3.101 4.6
      vertex -6 -5.901 0
      vertex -6 -5.901 4.6
    endloop
  endfacet
  facet normal 0 0 -1
    outer loop
      vertex -0.000999855 -6.202 4.6
      vertex -6 -5.901 4.6
      vertex -0.000999855 -5.901 4.6
    endloop
  endfacet
  facet normal -0 0 -1
    outer loop
      vertex -6 -5.901 4.6
      vertex -6.001 -6.202 4.6
      vertex -6 -3.101 4.6
    endloop
  endfacet
  facet normal 0 0 -1
    outer loop
      vertex -6.001 -6.202 4.6
      vertex -6 -5.901 4.6
      vertex -0.000999855 -6.202 4.6
    endloop
  endfacet
  facet normal 0 0 -1
    outer loop
      vertex -6 -3.101 4.6
      vertex -0.000999855 -2.802 4.6
      vertex -0.000999855 -3.101 4.6
    endloop
  endfacet
  facet normal 0 0 -1
    outer loop
      vertex -6 -3.101 4.6
      vertex -6.001 -2.802 4.6
      vertex -0.000999855 -2.802 4.6
    endloop
  endfacet
  facet normal 0 0 -1
    outer loop
      vertex -6.001 -2.802 4.6
      vertex -6 -3.101 4.6
      vertex -6.001 -6.202 4.6
    endloop
  endfacet
  facet normal -0 0 1
    outer loop
      vertex -0.000999855 -3.101 4.6
      vertex 0 -5.901 4.6
      vertex 0 -3.101 4.6
    endloop
  endfacet
  facet normal 0 0 1
    outer loop
      vertex 0 -5.901 4.6
      vertex -0.000999855 -3.101 4.6
      vertex -0.000999855 -5.901 4.6
    endloop
  endfacet
  facet normal 1 -0 0
    outer loop
      vertex 5.49316e-07 -5.901 3.5
      vertex 5.49316e-07 -3.101 2.6
      vertex 5.49316e-07 -3.101 3.5
    endloop
  endfacet
  facet normal 1 0 0
    outer loop
      vertex 5.49316e-07 -3.101 2.6
      vertex 5.49316e-07 -5.901 3.5
      vertex 5.49316e-07 -5.901 2.6
    endloop
  endfacet
  facet normal 0 -1 0
    outer loop
      vertex 0 -5.901 3.5
      vertex -0.000999855 -5.901 4.6
      vertex -6 -5.901 4.6
    endloop
  endfacet
  facet normal 0 -1 0
    outer loop
      vertex -0.000999855 -5.901 4.6
      vertex 0 -5.901 3.5
      vertex 0 -5.901 4.6
    endloop
  endfacet
  facet normal 0 -1 0
    outer loop
      vertex 5.49316e-07 -5.901 2.6
      vertex 0 -5.901 3.5
      vertex -5.999 -5.901 2.6
    endloop
  endfacet
  facet normal 0 -1 0
    outer loop
      vertex -6 -5.901 4.6
      vertex -5.999 -5.901 2.6
      vertex 0 -5.901 3.5
    endloop
  endfacet
  facet normal 0 -1 0
    outer loop
      vertex -6 -5.901 0
      vertex -5.999 -5.901 2.6
      vertex -6 -5.901 4.6
    endloop
  endfacet
  facet normal 0 -1 -0
    outer loop
      vertex -5.999 -5.901 2.6
      vertex -6 -5.901 0
      vertex -5.999 -5.901 0
    endloop
  endfacet
  facet normal 0 -1 0
    outer loop
      vertex 0 -5.901 3.5
      vertex 5.49316e-07 -5.901 2.6
      vertex 5.49316e-07 -5.901 3.5
    endloop
  endfacet
  facet normal 0 1 0
    outer loop
      vertex 5.49316e-07 -3.101 3.5
      vertex 5.49316e-07 -3.101 2.6
      vertex 0 -3.101 3.5
    endloop
  endfacet
  facet normal 0 1 -0
    outer loop
      vertex 0 -3.101 3.5
      vertex -0.000999855 -3.101 4.6
      vertex 0 -3.101 4.6
    endloop
  endfacet
  facet normal 0 1 0
    outer loop
      vertex -0.000999855 -3.101 4.6
      vertex 0 -3.101 3.5
      vertex -6 -3.101 4.6
    endloop
  endfacet
  facet normal 0 1 0
    outer loop
      vertex -5.999 -3.101 2.6
      vertex 0 -3.101 3.5
      vertex 5.49316e-07 -3.101 2.6
    endloop
  endfacet
  facet normal 0 1 0
    outer loop
      vertex 0 -3.101 3.5
      vertex -5.999 -3.101 2.6
      vertex -6 -3.101 4.6
    endloop
  endfacet
  facet normal 0 1 0
    outer loop
      vertex -6 -3.101 0
      vertex -5.999 -3.101 2.6
      vertex -5.999 -3.101 0
    endloop
  endfacet
  facet normal 0 1 0
    outer loop
      vertex -5.999 -3.101 2.6
      vertex -6 -3.101 0
      vertex -6 -3.101 4.6
    endloop
  endfacet
  facet normal -1 0 0
    outer loop
      vertex -6.001 -6.202 4.6
      vertex -6.001 -2.802 5.2
      vertex -6.001 -2.802 4.6
    endloop
  endfacet
  facet normal -1 -0 0
    outer loop
      vertex -6.001 -2.802 5.2
      vertex -6.001 -6.202 4.6
      vertex -6.001 -6.202 5.2
    endloop
  endfacet
  facet normal -0 0 1
    outer loop
      vertex -6.001 -2.802 5.2
      vertex -0.000999855 -6.202 5.2
      vertex -0.000999855 -2.802 5.2
    endloop
  endfacet
  facet normal 0 0 1
    outer loop
      vertex -0.000999855 -6.202 5.2
      vertex -6.001 -2.802 5.2
      vertex -6.001 -6.202 5.2
    endloop
  endfacet
  facet normal 1 0 0
    outer loop
      vertex -0.000999855 -2.802 5.2
      vertex -0.000999855 -3.101 4.6
      vertex -0.000999855 -2.802 4.6
    endloop
  endfacet
  facet normal 1 0 0
    outer loop
      vertex -0.000999855 -2.802 5.2
      vertex -0.000999855 -5.901 4.6
      vertex -0.000999855 -3.101 4.6
    endloop
  endfacet
  facet normal 1 -0 0
    outer loop
      vertex -0.000999855 -6.202 5.2
      vertex -0.000999855 -5.901 4.6
      vertex -0.000999855 -2.802 5.2
    endloop
  endfacet
  facet normal 1 0 0
    outer loop
      vertex -0.000999855 -5.901 4.6
      vertex -0.000999855 -6.202 5.2
      vertex -0.000999855 -6.202 4.6
    endloop
  endfacet
  facet normal 0 -1 0
    outer loop
      vertex -6.001 -6.202 4.6
      vertex -0.000999855 -6.202 5.2
      vertex -6.001 -6.202 5.2
    endloop
  endfacet
  facet normal 0 -1 -0
    outer loop
      vertex -0.000999855 -6.202 5.2
      vertex -6.001 -6.202 4.6
      vertex -0.000999855 -6.202 4.6
    endloop
  endfacet
  facet normal 0 1 -0
    outer loop
      vertex -0.000999855 -2.802 4.6
      vertex -6.001 -2.802 5.2
      vertex -0.000999855 -2.802 5.2
    endloop
  endfacet
  facet normal 0 1 0
    outer loop
      vertex -6.001 -2.802 5.2
      vertex -0.000999855 -2.802 4.6
      vertex -6.001 -2.802 4.6
    endloop
  endfacet
  facet normal 0.965957 -0.258703 0
    outer loop
      vertex 101.17 -8.20828 2.6
      vertex 101.713 -6.1808 0
      vertex 101.713 -6.1808 2.6
    endloop
  endfacet
  facet normal 0.965957 -0.258703 0
    outer loop
      vertex 101.713 -6.1808 0
      vertex 101.17 -8.20828 2.6
      vertex 101.17 -8.20828 0
    endloop
  endfacet
  facet normal 0.965923 -0.25883 0
    outer loop
      vertex 99.9012 -12.9423 2.6
      vertex 100.445 -10.9129 0
      vertex 100.445 -10.9129 2.6
    endloop
  endfacet
  facet normal 0.965923 -0.25883 0
    outer loop
      vertex 100.445 -10.9129 0
      vertex 99.9012 -12.9423 2.6
      vertex 99.9012 -12.9423 0
    endloop
  endfacet
  facet normal 0 0 1
    outer loop
      vertex 95.9192 -4.62839 2.6
      vertex 101.17 -8.20828 2.6
      vertex 101.713 -6.1808 2.6
    endloop
  endfacet
  facet normal 0 0 1
    outer loop
      vertex 101.17 -8.20828 2.6
      vertex 95.9192 -4.62839 2.6
      vertex 95.3759 -6.65587 2.6
    endloop
  endfacet
  facet normal 0 0 1
    outer loop
      vertex 94.6513 -9.36046 2.6
      vertex 99.9012 -12.9423 2.6
      vertex 100.445 -10.9129 2.6
    endloop
  endfacet
  facet normal 0 0 1
    outer loop
      vertex 99.9012 -12.9423 2.6
      vertex 94.6513 -9.36046 2.6
      vertex 94.1075 -11.3899 2.6
    endloop
  endfacet
  facet normal 0.258814 0.965927 -0
    outer loop
      vertex 101.713 -6.1808 0
      vertex 95.9192 -4.62839 2.6
      vertex 101.713 -6.1808 2.6
    endloop
  endfacet
  facet normal 0.258814 0.965927 0
    outer loop
      vertex 95.9192 -4.62839 2.6
      vertex 101.713 -6.1808 0
      vertex 95.9192 -4.62839 0
    endloop
  endfacet
  facet normal -0.258816 -0.965927 0
    outer loop
      vertex 94.1075 -11.3899 0
      vertex 99.9012 -12.9423 2.6
      vertex 94.1075 -11.3899 2.6
    endloop
  endfacet
  facet normal -0.258816 -0.965927 -0
    outer loop
      vertex 99.9012 -12.9423 2.6
      vertex 94.1075 -11.3899 0
      vertex 99.9012 -12.9423 0
    endloop
  endfacet
  facet normal 0.965898 -0.258924 0
    outer loop
      vertex 100.446 -10.9131 4.6
      vertex 101.171 -8.20854 0
      vertex 101.171 -8.20854 4.6
    endloop
  endfacet
  facet normal 0.965898 -0.258924 0
    outer loop
      vertex 101.171 -8.20854 0
      vertex 100.446 -10.9131 4.6
      vertex 100.446 -10.9131 0
    endloop
  endfacet
  facet normal 0 0 -1
    outer loop
      vertex 101.249 -7.91806 4.6
      vertex 100.446 -10.9131 4.6
      vertex 101.171 -8.20854 4.6
    endloop
  endfacet
  facet normal 0 0 -1
    outer loop
      vertex 100.369 -11.2022 4.6
      vertex 100.446 -10.9131 4.6
      vertex 101.249 -7.91806 4.6
    endloop
  endfacet
  facet normal 0 0 -1
    outer loop
      vertex 100.369 -11.2022 4.6
      vertex 94.712 -9.37673 4.6
      vertex 100.446 -10.9131 4.6
    endloop
  endfacet
  facet normal 0 -0 -1
    outer loop
      vertex 94.712 -9.37673 4.6
      vertex 100.369 -11.2022 4.6
      vertex 94.6345 -9.66553 4.6
    endloop
  endfacet
  facet normal 0 0 -1
    outer loop
      vertex 101.171 -8.20854 4.6
      vertex 95.5151 -6.38153 4.6
      vertex 101.249 -7.91806 4.6
    endloop
  endfacet
  facet normal 0 -0 -1
    outer loop
      vertex 95.5151 -6.38153 4.6
      vertex 101.171 -8.20854 4.6
      vertex 95.4371 -6.67226 4.6
    endloop
  endfacet
  facet normal 0.258801 0.965931 0
    outer loop
      vertex 101.171 -8.20854 4.6
      vertex 95.4371 -6.67226 3.5
      vertex 95.4371 -6.67226 4.6
    endloop
  endfacet
  facet normal 0.258801 0.965931 -7.81552e-06
    outer loop
      vertex 95.3759 -6.65587 2.6
      vertex 95.4371 -6.67226 3.5
      vertex 101.17 -8.20828 2.6
    endloop
  endfacet
  facet normal 0.258802 0.96593 -3.82996e-06
    outer loop
      vertex 101.171 -8.20854 4.6
      vertex 101.17 -8.20828 2.6
      vertex 95.4371 -6.67226 3.5
    endloop
  endfacet
  facet normal 0.251634 0.967823 -0
    outer loop
      vertex 101.171 -8.20854 0
      vertex 101.17 -8.20828 2.6
      vertex 101.171 -8.20854 4.6
    endloop
  endfacet
  facet normal 0.251634 0.967823 0
    outer loop
      vertex 101.17 -8.20828 2.6
      vertex 101.171 -8.20854 0
      vertex 101.17 -8.20828 0
    endloop
  endfacet
  facet normal 0.258694 0.965959 0
    outer loop
      vertex 95.4371 -6.67226 3.5
      vertex 95.3759 -6.65587 2.6
      vertex 95.3759 -6.65587 3.5
    endloop
  endfacet
  facet normal -0.258811 -0.965928 0
    outer loop
      vertex 94.712 -9.37673 3.5
      vertex 100.446 -10.9131 4.6
      vertex 94.712 -9.37673 4.6
    endloop
  endfacet
  facet normal -0.258823 -0.965925 -5.62976e-06
    outer loop
      vertex 100.445 -10.9129 2.6
      vertex 94.712 -9.37673 3.5
      vertex 94.6513 -9.36046 2.6
    endloop
  endfacet
  facet normal -0.258817 -0.965926 3.28158e-05
    outer loop
      vertex 94.712 -9.37673 3.5
      vertex 100.445 -10.9129 2.6
      vertex 100.446 -10.9131 4.6
    endloop
  endfacet
  facet normal -0.196116 -0.980581 0
    outer loop
      vertex 100.446 -10.9131 0
      vertex 100.445 -10.9129 2.6
      vertex 100.445 -10.9129 0
    endloop
  endfacet
  facet normal -0.196116 -0.980581 0
    outer loop
      vertex 100.445 -10.9129 2.6
      vertex 100.446 -10.9131 0
      vertex 100.446 -10.9131 4.6
    endloop
  endfacet
  facet normal -0.2589 -0.965904 -0
    outer loop
      vertex 94.6513 -9.36046 3.5
      vertex 94.6513 -9.36046 2.6
      vertex 94.712 -9.37673 3.5
    endloop
  endfacet
  facet normal 0.965925 -0.258824 0
    outer loop
      vertex 100.369 -11.2022 5.2
      vertex 101.249 -7.91806 4.6
      vertex 101.249 -7.91806 5.2
    endloop
  endfacet
  facet normal 0.965925 -0.258824 0
    outer loop
      vertex 101.249 -7.91806 4.6
      vertex 100.369 -11.2022 5.2
      vertex 100.369 -11.2022 4.6
    endloop
  endfacet
  facet normal 0 0 1
    outer loop
      vertex 95.5151 -6.38153 5.2
      vertex 100.369 -11.2022 5.2
      vertex 101.249 -7.91806 5.2
    endloop
  endfacet
  facet normal 0 0 1
    outer loop
      vertex 100.369 -11.2022 5.2
      vertex 95.5151 -6.38153 5.2
      vertex 94.6345 -9.66553 5.2
    endloop
  endfacet
  facet normal 0.25884 0.96592 -0
    outer loop
      vertex 101.249 -7.91806 4.6
      vertex 95.5151 -6.38153 5.2
      vertex 101.249 -7.91806 5.2
    endloop
  endfacet
  facet normal 0.25884 0.96592 0
    outer loop
      vertex 95.5151 -6.38153 5.2
      vertex 101.249 -7.91806 4.6
      vertex 95.5151 -6.38153 4.6
    endloop
  endfacet
  facet normal -0.258837 -0.965921 0
    outer loop
      vertex 94.6345 -9.66553 4.6
      vertex 100.369 -11.2022 5.2
      vertex 94.6345 -9.66553 5.2
    endloop
  endfacet
  facet normal -0.258837 -0.965921 -0
    outer loop
      vertex 100.369 -11.2022 5.2
      vertex 94.6345 -9.66553 4.6
      vertex 100.369 -11.2022 4.6
    endloop
  endfacet
  facet normal -1 0 0
    outer loop
      vertex 0.000999451 1.2 0
      vertex 0.000999451 -1 0
      vertex 0.000999451 1.2 2.5
    endloop
  endfacet
  facet normal -1 0 0
    outer loop
      vertex 0.000999451 -1 2.6
      vertex 0.000999451 1.2 2.5
      vertex 0.000999451 -1 0
    endloop
  endfacet
  facet normal -1 0 0
    outer loop
      vertex 0.000999451 -1 2.6
      vertex 0.000999451 3.4 3.5
      vertex 0.000999451 1.2 2.5
    endloop
  endfacet
  facet normal -1 0 0
    outer loop
      vertex 0.000999451 -8.00001 3.5
      vertex 0.000999451 -1 2.6
      vertex 0.000999451 -8 2.6
    endloop
  endfacet
  facet normal -1 0 0
    outer loop
      vertex 0.000999451 -1 2.6
      vertex 0.000999451 -8.00001 3.5
      vertex 0.000999451 3.4 3.5
    endloop
  endfacet
  facet normal -1 0 0
    outer loop
      vertex 0.000999451 -12.5 0
      vertex 0.000999451 -8 2.6
      vertex 0.000999451 -8 0
    endloop
  endfacet
  facet normal -1 0 0
    outer loop
      vertex 0.000999451 -8.00001 3.5
      vertex 0.000999451 -9 5
      vertex 0.000999451 -8.00001 5
    endloop
  endfacet
  facet normal -1 0 -0
    outer loop
      vertex 0.000999451 -9 5
      vertex 0.000999451 -8 2.6
      vertex 0.000999451 -12.5 0
    endloop
  endfacet
  facet normal -1 0 0
    outer loop
      vertex 0.000999451 -8 2.6
      vertex 0.000999451 -9 5
      vertex 0.000999451 -8.00001 3.5
    endloop
  endfacet
  facet normal -1 0 0
    outer loop
      vertex 0.000999451 8.4 2.5
      vertex 0.000999451 6.4 3.5
      vertex 0.000999451 7.99999 3.5
    endloop
  endfacet
  facet normal -1 0 0
    outer loop
      vertex 0.000999451 8.4 2.5
      vertex 0.000999451 12.5 0
      vertex 0.000999451 8.4 0
    endloop
  endfacet
  facet normal -1 0 0
    outer loop
      vertex 0.000999451 12.5 0
      vertex 0.000999451 8.4 2.5
      vertex 0.000999451 9 5
    endloop
  endfacet
  facet normal -1 0 0
    outer loop
      vertex 0.000999451 7.99999 3.5
      vertex 0.000999451 9 5
      vertex 0.000999451 8.4 2.5
    endloop
  endfacet
  facet normal -1 -0 0
    outer loop
      vertex 0.000999451 9 5
      vertex 0.000999451 7.99999 3.5
      vertex 0.000999451 7.99999 5
    endloop
  endfacet
  facet normal 0.965925 -0.258821 0
    outer loop
      vertex 91.5194 -21.0486 5
      vertex 91.778 -20.0835 3.5
      vertex 91.778 -20.0835 5
    endloop
  endfacet
  facet normal 0.96592 -0.258842 -1.46784e-05
    outer loop
      vertex 91.778 -20.0835 3.5
      vertex 91.5194 -21.0486 5
      vertex 91.6746 -20.4693 2.5
    endloop
  endfacet
  facet normal 0.965927 -0.258813 -7.46543e-06
    outer loop
      vertex 90.6135 -24.4294 0
      vertex 91.6746 -20.4693 2.5
      vertex 91.5194 -21.0486 5
    endloop
  endfacet
  facet normal 0.965926 -0.258818 0
    outer loop
      vertex 91.6746 -20.4693 2.5
      vertex 90.6135 -24.4294 0
      vertex 91.6746 -20.4693 0.953428
    endloop
  endfacet
  facet normal 0.965918 -0.258849 -1.21583e-05
    outer loop
      vertex 92.1923 -18.5375 3.5
      vertex 91.778 -20.0835 3.5
      vertex 91.6746 -20.4693 2.5
    endloop
  endfacet
  facet normal 0.965908 -0.258885 0
    outer loop
      vertex 95.9191 -4.62867 4.76725
      vertex 96.1782 -3.66196 5
      vertex 95.9191 -4.62867 5
    endloop
  endfacet
  facet normal 0.965923 -0.258828 4.14257e-05
    outer loop
      vertex 93.49 -13.6944 2.58458
      vertex 94.5088 -9.89218 3.5
      vertex 92.9687 -15.6397 3.5
    endloop
  endfacet
  facet normal 0.965908 -0.258885 0
    outer loop
      vertex 95.9191 -4.62867 3.5
      vertex 96.1782 -3.66196 5
      vertex 95.9191 -4.62867 4.76725
    endloop
  endfacet
  facet normal 0.965898 -0.258924 2.67679e-05
    outer loop
      vertex 96.1782 -3.66196 5
      vertex 95.9191 -4.62867 3.5
      vertex 95.9192 -4.62839 2.6
    endloop
  endfacet
  facet normal 0.965924 -0.258825 2.68016e-05
    outer loop
      vertex 95.3759 -6.65587 3.5
      vertex 95.9192 -4.62839 2.6
      vertex 95.9191 -4.62867 3.5
    endloop
  endfacet
  facet normal 0.965921 -0.258836 0
    outer loop
      vertex 95.9192 -4.62839 2.6
      vertex 95.3759 -6.65587 3.5
      vertex 95.3759 -6.65587 2.6
    endloop
  endfacet
  facet normal 0.965925 -0.258824 -1.63287e-05
    outer loop
      vertex 95.9192 -4.62839 2.6
      vertex 97.084 -0.281222 0
      vertex 96.1782 -3.66196 5
    endloop
  endfacet
  facet normal 0.965927 -0.258815 0
    outer loop
      vertex 97.084 -0.281222 0
      vertex 95.9192 -4.62839 2.6
      vertex 95.9192 -4.62839 0
    endloop
  endfacet
  facet normal 0.965926 -0.258818 0
    outer loop
      vertex 91.6746 -20.4693 0
      vertex 91.6746 -20.4693 0.953428
      vertex 90.6135 -24.4294 0
    endloop
  endfacet
  facet normal 0.965914 -0.258863 0
    outer loop
      vertex 94.5088 -9.89218 3.5
      vertex 94.6513 -9.36046 2.6
      vertex 94.6513 -9.36046 3.5
    endloop
  endfacet
  facet normal 0.965924 -0.258825 2.42547e-05
    outer loop
      vertex 94.5088 -9.89218 3.5
      vertex 94.1075 -11.3899 2.6
      vertex 94.6513 -9.36046 2.6
    endloop
  endfacet
  facet normal 0.965919 -0.258845 0
    outer loop
      vertex 94.1075 -11.3899 2.6
      vertex 93.5381 -13.5147 2.5
      vertex 94.1075 -11.3899 0
    endloop
  endfacet
  facet normal 0.965925 -0.258824 2.17821e-05
    outer loop
      vertex 93.49 -13.6944 2.58458
      vertex 94.1075 -11.3899 2.6
      vertex 94.5088 -9.89218 3.5
    endloop
  endfacet
  facet normal 0.965925 -0.25882 -0.000578034
    outer loop
      vertex 94.1075 -11.3899 2.6
      vertex 93.49 -13.6944 2.58458
      vertex 93.5381 -13.5147 2.5
    endloop
  endfacet
  facet normal 0.965919 -0.258845 0
    outer loop
      vertex 94.1075 -11.3899 0
      vertex 93.5381 -13.5147 2.5
      vertex 93.5381 -13.5147 0
    endloop
  endfacet
  facet normal -0.00714848 -0.819211 0.573448
    outer loop
      vertex 6.17217 -9.05385 5
      vertex 0.000999451 -9 5
      vertex 0.000999451 -12.5 0
    endloop
  endfacet
  facet normal -0.00714621 -0.819212 0.573446
    outer loop
      vertex 6.11109 -12.5533 0
      vertex 6.17217 -9.05385 5
      vertex 0.000999451 -12.5 0
    endloop
  endfacet
  facet normal -0 0 1
    outer loop
      vertex 89.7148 -3.02301 5
      vertex 96.1782 -3.66196 5
      vertex 89.8992 -2.03811 5
    endloop
  endfacet
  facet normal 0 0 1
    outer loop
      vertex 96.1782 -3.66196 5
      vertex 89.7148 -3.02301 5
      vertex 95.9191 -4.62867 5
    endloop
  endfacet
  facet normal -0 0 1
    outer loop
      vertex 83.4215 -1.51107 5
      vertex 89.8992 -2.03811 5
      vertex 83.5928 -0.524083 5
    endloop
  endfacet
  facet normal 0 0 1
    outer loop
      vertex 89.8992 -2.03811 5
      vertex 83.4215 -1.51107 5
      vertex 89.7148 -3.02301 5
    endloop
  endfacet
  facet normal -0 0 1
    outer loop
      vertex 77.1027 -0.109261 5
      vertex 83.5928 -0.524083 5
      vertex 77.261 0.879648 5
    endloop
  endfacet
  facet normal 0 0 1
    outer loop
      vertex 83.5928 -0.524083 5
      vertex 77.1027 -0.109261 5
      vertex 83.4215 -1.51107 5
    endloop
  endfacet
  facet normal -0 0 1
    outer loop
      vertex 70.7604 1.18198 5
      vertex 77.261 0.879648 5
      vertex 70.9056 2.17266 5
    endloop
  endfacet
  facet normal 0 0 1
    outer loop
      vertex 77.261 0.879648 5
      vertex 70.7604 1.18198 5
      vertex 77.1027 -0.109261 5
    endloop
  endfacet
  facet normal -0 0 1
    outer loop
      vertex 64.3965 2.36226 5
      vertex 70.9056 2.17266 5
      vertex 64.5287 3.35456 5
    endloop
  endfacet
  facet normal 0 0 1
    outer loop
      vertex 70.9056 2.17266 5
      vertex 64.3965 2.36226 5
      vertex 70.7604 1.18198 5
    endloop
  endfacet
  facet normal -0 0 1
    outer loop
      vertex 58.0129 3.43123 5
      vertex 64.5287 3.35456 5
      vertex 58.132 4.42499 5
    endloop
  endfacet
  facet normal 0 0 1
    outer loop
      vertex 64.5287 3.35456 5
      vertex 58.0129 3.43123 5
      vertex 64.3965 2.36226 5
    endloop
  endfacet
  facet normal 0 0 1
    outer loop
      vertex 51.6117 4.38854 5
      vertex 58.132 4.42499 5
      vertex 51.7177 5.38361 5
    endloop
  endfacet
  facet normal 0 0 1
    outer loop
      vertex 58.132 4.42499 5
      vertex 51.6117 4.38854 5
      vertex 58.0129 3.43123 5
    endloop
  endfacet
  facet normal 0 0 1
    outer loop
      vertex 45.1947 5.23392 5
      vertex 51.7177 5.38361 5
      vertex 45.2876 6.23015 5
    endloop
  endfacet
  facet normal 0 0 1
    outer loop
      vertex 51.7177 5.38361 5
      vertex 45.1947 5.23392 5
      vertex 51.6117 4.38854 5
    endloop
  endfacet
  facet normal 0 0 1
    outer loop
      vertex 38.764 5.96711 5
      vertex 45.2876 6.23015 5
      vertex 38.8438 6.96434 5
    endloop
  endfacet
  facet normal 0 0 1
    outer loop
      vertex 45.2876 6.23015 5
      vertex 38.764 5.96711 5
      vertex 45.1947 5.23392 5
    endloop
  endfacet
  facet normal 0 0 1
    outer loop
      vertex 32.3214 6.58787 5
      vertex 38.8438 6.96434 5
      vertex 32.3881 7.58595 5
    endloop
  endfacet
  facet normal 0 0 1
    outer loop
      vertex 38.8438 6.96434 5
      vertex 32.3214 6.58787 5
      vertex 38.764 5.96711 5
    endloop
  endfacet
  facet normal 0 0 1
    outer loop
      vertex 25.869 7.09603 5
      vertex 32.3881 7.58595 5
      vertex 25.9225 8.0948 5
    endloop
  endfacet
  facet normal 0 0 1
    outer loop
      vertex 32.3881 7.58595 5
      vertex 25.869 7.09603 5
      vertex 32.3214 6.58787 5
    endloop
  endfacet
  facet normal 0 0 1
    outer loop
      vertex 19.4086 7.49143 5
      vertex 25.9225 8.0948 5
      vertex 19.449 8.49074 5
    endloop
  endfacet
  facet normal 0 0 1
    outer loop
      vertex 25.9225 8.0948 5
      vertex 19.4086 7.49143 5
      vertex 25.869 7.09603 5
    endloop
  endfacet
  facet normal 0 0 1
    outer loop
      vertex 12.9424 7.77394 5
      vertex 19.449 8.49074 5
      vertex 12.9697 8.77363 5
    endloop
  endfacet
  facet normal 0 0 1
    outer loop
      vertex 19.449 8.49074 5
      vertex 12.9424 7.77394 5
      vertex 19.4086 7.49143 5
    endloop
  endfacet
  facet normal 0 0 1
    outer loop
      vertex 6.47217 7.94348 5
      vertex 12.9697 8.77363 5
      vertex 6.48631 8.9434 5
    endloop
  endfacet
  facet normal 0 0 1
    outer loop
      vertex 12.9697 8.77363 5
      vertex 6.47217 7.94348 5
      vertex 12.9424 7.77394 5
    endloop
  endfacet
  facet normal 0 0 1
    outer loop
      vertex 0.000999451 9 5
      vertex 6.47217 7.94348 5
      vertex 6.48631 8.9434 5
    endloop
  endfacet
  facet normal 0 0 1
    outer loop
      vertex 6.47217 7.94348 5
      vertex 0.000999451 9 5
      vertex 0.000999451 7.99999 5
    endloop
  endfacet
  facet normal 0 0 1
    outer loop
      vertex 85.8416 -18.5471 5
      vertex 91.5194 -21.0486 5
      vertex 91.778 -20.0835 5
    endloop
  endfacet
  facet normal 0 0 1
    outer loop
      vertex 85.8416 -18.5471 5
      vertex 85.5446 -19.5034 5
      vertex 91.5194 -21.0486 5
    endloop
  endfacet
  facet normal 0 0 1
    outer loop
      vertex 79.8199 -17.1004 5
      vertex 85.5446 -19.5034 5
      vertex 85.8416 -18.5471 5
    endloop
  endfacet
  facet normal 0 0 1
    outer loop
      vertex 79.8199 -17.1004 5
      vertex 79.5437 -18.0627 5
      vertex 85.5446 -19.5034 5
    endloop
  endfacet
  facet normal 0 0 1
    outer loop
      vertex 73.7739 -15.7592 5
      vertex 79.5437 -18.0627 5
      vertex 79.8199 -17.1004 5
    endloop
  endfacet
  facet normal 0 0 1
    outer loop
      vertex 73.7739 -15.7592 5
      vertex 73.5186 -16.727 5
      vertex 79.5437 -18.0627 5
    endloop
  endfacet
  facet normal 0 0 1
    outer loop
      vertex 67.7054 -14.5237 5
      vertex 73.5186 -16.727 5
      vertex 73.7739 -15.7592 5
    endloop
  endfacet
  facet normal 0 0 1
    outer loop
      vertex 67.7054 -14.5237 5
      vertex 67.4711 -15.4966 5
      vertex 73.5186 -16.727 5
    endloop
  endfacet
  facet normal 0 0 1
    outer loop
      vertex 61.6163 -13.3943 5
      vertex 67.4711 -15.4966 5
      vertex 67.7054 -14.5237 5
    endloop
  endfacet
  facet normal 0 0 1
    outer loop
      vertex 61.6163 -13.3943 5
      vertex 61.403 -14.372 5
      vertex 67.4711 -15.4966 5
    endloop
  endfacet
  facet normal 0 0 1
    outer loop
      vertex 55.5083 -12.3715 5
      vertex 61.403 -14.372 5
      vertex 61.6163 -13.3943 5
    endloop
  endfacet
  facet normal 0 0 1
    outer loop
      vertex 55.5083 -12.3715 5
      vertex 55.3162 -13.3534 5
      vertex 61.403 -14.372 5
    endloop
  endfacet
  facet normal 0 0 1
    outer loop
      vertex 49.3835 -11.4555 5
      vertex 55.3162 -13.3534 5
      vertex 55.5083 -12.3715 5
    endloop
  endfacet
  facet normal 0 0 1
    outer loop
      vertex 49.3835 -11.4555 5
      vertex 49.2126 -12.4412 5
      vertex 55.3162 -13.3534 5
    endloop
  endfacet
  facet normal 0 0 1
    outer loop
      vertex 43.2435 -10.6467 5
      vertex 49.2126 -12.4412 5
      vertex 49.3835 -11.4555 5
    endloop
  endfacet
  facet normal 0 0 1
    outer loop
      vertex 43.2435 -10.6467 5
      vertex 43.094 -11.6357 5
      vertex 49.2126 -12.4412 5
    endloop
  endfacet
  facet normal 0 0 1
    outer loop
      vertex 37.0904 -9.94512 5
      vertex 43.094 -11.6357 5
      vertex 43.2435 -10.6467 5
    endloop
  endfacet
  facet normal 0 0 1
    outer loop
      vertex 37.0904 -9.94512 5
      vertex 36.9623 -10.9371 5
      vertex 43.094 -11.6357 5
    endloop
  endfacet
  facet normal 0 0 1
    outer loop
      vertex 30.926 -9.35116 5
      vertex 36.9623 -10.9371 5
      vertex 37.0904 -9.94512 5
    endloop
  endfacet
  facet normal 0 0 1
    outer loop
      vertex 30.926 -9.35116 5
      vertex 30.8193 -10.3456 5
      vertex 36.9623 -10.9371 5
    endloop
  endfacet
  facet normal 0 0 1
    outer loop
      vertex 24.7521 -8.86494 5
      vertex 30.8193 -10.3456 5
      vertex 30.926 -9.35116 5
    endloop
  endfacet
  facet normal 0 0 1
    outer loop
      vertex 24.7521 -8.86494 5
      vertex 24.6669 -9.86135 5
      vertex 30.8193 -10.3456 5
    endloop
  endfacet
  facet normal 0 0 1
    outer loop
      vertex 18.5707 -8.48661 5
      vertex 24.6669 -9.86135 5
      vertex 24.7521 -8.86494 5
    endloop
  endfacet
  facet normal 0 0 1
    outer loop
      vertex 18.5707 -8.48661 5
      vertex 18.507 -9.4846 5
      vertex 24.6669 -9.86135 5
    endloop
  endfacet
  facet normal 0 0 1
    outer loop
      vertex 12.3836 -8.2163 5
      vertex 18.507 -9.4846 5
      vertex 18.5707 -8.48661 5
    endloop
  endfacet
  facet normal 0 0 1
    outer loop
      vertex 12.3836 -8.2163 5
      vertex 12.3415 -9.2154 5
      vertex 18.507 -9.4846 5
    endloop
  endfacet
  facet normal 0 0 1
    outer loop
      vertex 6.19275 -8.05408 5
      vertex 12.3415 -9.2154 5
      vertex 12.3836 -8.2163 5
    endloop
  endfacet
  facet normal 0 0 1
    outer loop
      vertex 6.19275 -8.05408 5
      vertex 6.17217 -9.05385 5
      vertex 12.3415 -9.2154 5
    endloop
  endfacet
  facet normal 0 0 1
    outer loop
      vertex 0.000999451 -8.00001 5
      vertex 6.17217 -9.05385 5
      vertex 6.19275 -8.05408 5
    endloop
  endfacet
  facet normal 0 0 1
    outer loop
      vertex 6.17217 -9.05385 5
      vertex 0.000999451 -8.00001 5
      vertex 0.000999451 -9 5
    endloop
  endfacet
  facet normal 0.00714545 0.819211 0.573448
    outer loop
      vertex 6.5474 12.4429 0
      vertex 0.000999451 12.5 0
      vertex 0.000999451 9 5
    endloop
  endfacet
  facet normal 0.00714957 0.819208 0.573451
    outer loop
      vertex 6.48631 8.9434 5
      vertex 6.5474 12.4429 0
      vertex 0.000999451 9 5
    endloop
  endfacet
  facet normal -0.0214453 -0.818963 0.573446
    outer loop
      vertex 12.3415 -9.2154 5
      vertex 6.17217 -9.05385 5
      vertex 6.11109 -12.5533 0
    endloop
  endfacet
  facet normal -0.021452 -0.818959 0.573451
    outer loop
      vertex 12.2193 -12.7133 0
      vertex 12.3415 -9.2154 5
      vertex 6.11109 -12.5533 0
    endloop
  endfacet
  facet normal 0.0214488 0.818959 0.573451
    outer loop
      vertex 13.0918 12.2715 0
      vertex 6.5474 12.4429 0
      vertex 6.48631 8.9434 5
    endloop
  endfacet
  facet normal 0.0214448 0.818961 0.573448
    outer loop
      vertex 12.9697 8.77363 5
      vertex 13.0918 12.2715 0
      vertex 6.48631 8.9434 5
    endloop
  endfacet
  facet normal -0.0357358 -0.81846 0.573451
    outer loop
      vertex 18.507 -9.4846 5
      vertex 12.3415 -9.2154 5
      vertex 12.2193 -12.7133 0
    endloop
  endfacet
  facet normal -0.0357311 -0.818463 0.573447
    outer loop
      vertex 18.3238 -12.9798 0
      vertex 18.507 -9.4846 5
      vertex 12.2193 -12.7133 0
    endloop
  endfacet
  facet normal 0.0357398 0.818462 0.573448
    outer loop
      vertex 19.6322 11.9859 0
      vertex 13.0918 12.2715 0
      vertex 12.9697 8.77363 5
    endloop
  endfacet
  facet normal 0.0357347 0.818466 0.573443
    outer loop
      vertex 19.449 8.49074 5
      vertex 19.6322 11.9859 0
      vertex 12.9697 8.77363 5
    endloop
  endfacet
  facet normal -0.0500128 -0.817714 0.573447
    outer loop
      vertex 24.6669 -9.86135 5
      vertex 18.507 -9.4846 5
      vertex 18.3238 -12.9798 0
    endloop
  endfacet
  facet normal -0.0500103 -0.817716 0.573445
    outer loop
      vertex 24.4227 -13.3528 0
      vertex 24.6669 -9.86135 5
      vertex 18.3238 -12.9798 0
    endloop
  endfacet
  facet normal 0.0500054 0.817718 0.573443
    outer loop
      vertex 26.1667 11.5863 0
      vertex 19.6322 11.9859 0
      vertex 19.449 8.49074 5
    endloop
  endfacet
  facet normal 0.0500139 0.817712 0.573451
    outer loop
      vertex 25.9225 8.0948 5
      vertex 26.1667 11.5863 0
      vertex 19.449 8.49074 5
    endloop
  endfacet
  facet normal -0.0642831 -0.816718 0.573445
    outer loop
      vertex 30.8193 -10.3456 5
      vertex 24.6669 -9.86135 5
      vertex 24.4227 -13.3528 0
    endloop
  endfacet
  facet normal -0.0642759 -0.816723 0.573439
    outer loop
      vertex 30.5142 -13.8322 0
      vertex 30.8193 -10.3456 5
      vertex 24.4227 -13.3528 0
    endloop
  endfacet
  facet normal 0.0642844 0.816714 0.573451
    outer loop
      vertex 32.6931 11.0726 0
      vertex 26.1667 11.5863 0
      vertex 25.9225 8.0948 5
    endloop
  endfacet
  facet normal 0.0642767 0.816719 0.573444
    outer loop
      vertex 32.3881 7.58595 5
      vertex 32.6931 11.0726 0
      vertex 25.9225 8.0948 5
    endloop
  endfacet
  facet normal -0.078521 -0.815476 0.573439
    outer loop
      vertex 36.9623 -10.9371 5
      vertex 30.8193 -10.3456 5
      vertex 30.5142 -13.8322 0
    endloop
  endfacet
  facet normal -0.0785278 -0.815472 0.573445
    outer loop
      vertex 36.5964 -14.4179 0
      vertex 36.9623 -10.9371 5
      vertex 30.5142 -13.8322 0
    endloop
  endfacet
  facet normal 0.0785128 0.815474 0.573444
    outer loop
      vertex 39.2096 10.4452 0
      vertex 32.6931 11.0726 0
      vertex 32.3881 7.58595 5
    endloop
  endfacet
  facet normal 0.0785203 0.815468 0.573451
    outer loop
      vertex 38.8438 6.96434 5
      vertex 39.2096 10.4452 0
      vertex 32.3881 7.58595 5
    endloop
  endfacet
  facet normal -0.0927385 -0.813978 0.573445
    outer loop
      vertex 43.094 -11.6357 5
      vertex 36.9623 -10.9371 5
      vertex 36.5964 -14.4179 0
    endloop
  endfacet
  facet normal -0.0927391 -0.813977 0.573446
    outer loop
      vertex 42.6675 -15.1096 0
      vertex 43.094 -11.6357 5
      vertex 36.5964 -14.4179 0
    endloop
  endfacet
  facet normal 0.0927449 0.813973 0.573451
    outer loop
      vertex 45.7142 9.70406 0
      vertex 39.2096 10.4452 0
      vertex 38.8438 6.96434 5
    endloop
  endfacet
  facet normal 0.0927423 0.813975 0.573448
    outer loop
      vertex 45.2876 6.23015 5
      vertex 45.7142 9.70406 0
      vertex 38.8438 6.96434 5
    endloop
  endfacet
  facet normal -0.106929 -0.812235 0.573446
    outer loop
      vertex 49.2126 -12.4412 5
      vertex 43.094 -11.6357 5
      vertex 42.6675 -15.1096 0
    endloop
  endfacet
  facet normal -0.106926 -0.812237 0.573443
    outer loop
      vertex 48.7255 -15.9071 0
      vertex 49.2126 -12.4412 5
      vertex 42.6675 -15.1096 0
    endloop
  endfacet
  facet normal 0.106933 0.812233 0.573448
    outer loop
      vertex 52.2048 8.84955 0
      vertex 45.7142 9.70406 0
      vertex 45.2876 6.23015 5
    endloop
  endfacet
  facet normal 0.106933 0.812233 0.573448
    outer loop
      vertex 51.7177 5.38361 5
      vertex 52.2048 8.84955 0
      vertex 45.2876 6.23015 5
    endloop
  endfacet
  facet normal -0.121094 -0.810246 0.573443
    outer loop
      vertex 55.3162 -13.3534 5
      vertex 49.2126 -12.4412 5
      vertex 48.7255 -15.9071 0
    endloop
  endfacet
  facet normal -0.121097 -0.810244 0.573446
    outer loop
      vertex 54.7687 -16.8103 0
      vertex 55.3162 -13.3534 5
      vertex 48.7255 -15.9071 0
    endloop
  endfacet
  facet normal 0.12109 0.810244 0.573448
    outer loop
      vertex 58.6796 7.8819 0
      vertex 52.2048 8.84955 0
      vertex 51.7177 5.38361 5
    endloop
  endfacet
  facet normal 0.121091 0.810243 0.573449
    outer loop
      vertex 58.132 4.42499 5
      vertex 58.6796 7.8819 0
      vertex 51.7177 5.38361 5
    endloop
  endfacet
  facet normal -0.135217 -0.808007 0.573446
    outer loop
      vertex 61.403 -14.372 5
      vertex 55.3162 -13.3534 5
      vertex 54.7687 -16.8103 0
    endloop
  endfacet
  facet normal -0.135216 -0.808008 0.573445
    outer loop
      vertex 60.7952 -17.8188 0
      vertex 61.403 -14.372 5
      vertex 54.7687 -16.8103 0
    endloop
  endfacet
  facet normal 0.135215 0.808005 0.573449
    outer loop
      vertex 65.1364 6.80139 0
      vertex 58.6796 7.8819 0
      vertex 58.132 4.42499 5
    endloop
  endfacet
  facet normal 0.135213 0.808008 0.573447
    outer loop
      vertex 64.5287 3.35456 5
      vertex 65.1364 6.80139 0
      vertex 58.132 4.42499 5
    endloop
  endfacet
  facet normal -0.149288 -0.805527 0.573445
    outer loop
      vertex 67.4711 -15.4966 5
      vertex 61.403 -14.372 5
      vertex 60.7952 -17.8188 0
    endloop
  endfacet
  facet normal -0.149293 -0.805523 0.57345
    outer loop
      vertex 66.8032 -18.9323 0
      vertex 67.4711 -15.4966 5
      vertex 60.7952 -17.8188 0
    endloop
  endfacet
  facet normal 0.149293 0.805525 0.573447
    outer loop
      vertex 71.5735 5.60836 0
      vertex 65.1364 6.80139 0
      vertex 64.5287 3.35456 5
    endloop
  endfacet
  facet normal 0.149296 0.805522 0.57345
    outer loop
      vertex 70.9056 2.17266 5
      vertex 71.5735 5.60836 0
      vertex 64.5287 3.35456 5
    endloop
  endfacet
  facet normal -0.163333 -0.802794 0.57345
    outer loop
      vertex 73.5186 -16.727 5
      vertex 67.4711 -15.4966 5
      vertex 66.8032 -18.9323 0
    endloop
  endfacet
  facet normal -0.163329 -0.802797 0.573446
    outer loop
      vertex 72.7909 -20.1505 0
      vertex 73.5186 -16.727 5
      vertex 66.8032 -18.9323 0
    endloop
  endfacet
  facet normal 0.163332 0.802794 0.57345
    outer loop
      vertex 77.9887 4.30316 0
      vertex 71.5735 5.60836 0
      vertex 70.9056 2.17266 5
    endloop
  endfacet
  facet normal 0.16333 0.802796 0.573447
    outer loop
      vertex 77.261 0.879648 5
      vertex 77.9887 4.30316 0
      vertex 70.9056 2.17266 5
    endloop
  endfacet
  facet normal -0.177313 -0.799825 0.573446
    outer loop
      vertex 79.5437 -18.0627 5
      vertex 73.5186 -16.727 5
      vertex 72.7909 -20.1505 0
    endloop
  endfacet
  facet normal -0.177314 -0.799824 0.573448
    outer loop
      vertex 78.7564 -21.473 0
      vertex 79.5437 -18.0627 5
      vertex 72.7909 -20.1505 0
    endloop
  endfacet
  facet normal 0.177318 0.799823 0.573447
    outer loop
      vertex 84.3801 2.88621 0
      vertex 77.9887 4.30316 0
      vertex 77.261 0.879648 5
    endloop
  endfacet
  facet normal 0.177317 0.799823 0.573447
    outer loop
      vertex 83.5928 -0.524083 5
      vertex 84.3801 2.88621 0
      vertex 77.261 0.879648 5
    endloop
  endfacet
  facet normal -0.19125 -0.796606 0.573447
    outer loop
      vertex 85.5446 -19.5034 5
      vertex 79.5437 -18.0627 5
      vertex 78.7564 -21.473 0
    endloop
  endfacet
  facet normal -0.191256 -0.7966 0.573454
    outer loop
      vertex 84.6979 -22.8995 0
      vertex 85.5446 -19.5034 5
      vertex 78.7564 -21.473 0
    endloop
  endfacet
  facet normal 0.191247 0.796607 0.573447
    outer loop
      vertex 90.7459 1.35793 0
      vertex 84.3801 2.88621 0
      vertex 83.5928 -0.524083 5
    endloop
  endfacet
  facet normal 0.191248 0.796607 0.573448
    outer loop
      vertex 89.8992 -2.03811 5
      vertex 90.7459 1.35793 0
      vertex 83.5928 -0.524083 5
    endloop
  endfacet
  facet normal -0.205122 -0.793143 0.573454
    outer loop
      vertex 91.5194 -21.0486 5
      vertex 85.5446 -19.5034 5
      vertex 84.6979 -22.8995 0
    endloop
  endfacet
  facet normal -0.205123 -0.793142 0.573455
    outer loop
      vertex 90.6135 -24.4294 0
      vertex 91.5194 -21.0486 5
      vertex 84.6979 -22.8995 0
    endloop
  endfacet
  facet normal 0.205123 0.793147 0.573447
    outer loop
      vertex 97.084 -0.281222 0
      vertex 90.7459 1.35793 0
      vertex 89.8992 -2.03811 5
    endloop
  endfacet
  facet normal 0.205121 0.793149 0.573446
    outer loop
      vertex 96.1782 -3.66196 5
      vertex 97.084 -0.281222 0
      vertex 89.8992 -2.03811 5
    endloop
  endfacet
  facet normal 0 -1 0
    outer loop
      vertex 0.000999451 8.4 0
      vertex 7 8.4 2.5
      vertex 0.000999451 8.4 2.5
    endloop
  endfacet
  facet normal 0 -1 -0
    outer loop
      vertex 7 8.4 2.5
      vertex 0.000999451 8.4 0
      vertex 7 8.4 0
    endloop
  endfacet
  facet normal 0 1 -0
    outer loop
      vertex 7 1.2 0
      vertex 0.000999451 1.2 2.5
      vertex 7 1.2 2.5
    endloop
  endfacet
  facet normal 0 1 0
    outer loop
      vertex 0.000999451 1.2 2.5
      vertex 7 1.2 0
      vertex 0.000999451 1.2 0
    endloop
  endfacet
  facet normal 0 -0.447214 -0.894427
    outer loop
      vertex 0.000999451 6.4 3.5
      vertex 7 8.4 2.5
      vertex 7 6.4 3.5
    endloop
  endfacet
  facet normal -0 -0.447214 -0.894427
    outer loop
      vertex 7 8.4 2.5
      vertex 0.000999451 6.4 3.5
      vertex 0.000999451 8.4 2.5
    endloop
  endfacet
  facet normal 0 0.413803 -0.910366
    outer loop
      vertex 0.000999451 1.2 2.5
      vertex 7 3.4 3.5
      vertex 7 1.2 2.5
    endloop
  endfacet
  facet normal 0 0.413803 -0.910366
    outer loop
      vertex 7 3.4 3.5
      vertex 0.000999451 1.2 2.5
      vertex 0.000999451 3.4 3.5
    endloop
  endfacet
  facet normal -1 0 0
    outer loop
      vertex 7 8.4 0
      vertex 7 6.4 3.5
      vertex 7 8.4 2.5
    endloop
  endfacet
  facet normal -1 0 0
    outer loop
      vertex 7 8.4 0
      vertex 7 3.4 3.5
      vertex 7 6.4 3.5
    endloop
  endfacet
  facet normal -1 0 0
    outer loop
      vertex 7 1.2 0
      vertex 7 3.4 3.5
      vertex 7 8.4 0
    endloop
  endfacet
  facet normal -1 0 0
    outer loop
      vertex 7 3.4 3.5
      vertex 7 1.2 0
      vertex 7 1.2 2.5
    endloop
  endfacet
  facet normal 0 0 1
    outer loop
      vertex 95.3759 -6.65587 3.5
      vertex 94.6513 -9.36046 3.5
      vertex 94.712 -9.37673 3.5
    endloop
  endfacet
  facet normal 0 0 1
    outer loop
      vertex 89.7148 -3.02301 3.5
      vertex 95.3759 -6.65587 3.5
      vertex 95.9191 -4.62867 3.5
    endloop
  endfacet
  facet normal 0 0 1
    outer loop
      vertex 95.3759 -6.65587 3.5
      vertex 89.7148 -3.02301 3.5
      vertex 94.6513 -9.36046 3.5
    endloop
  endfacet
  facet normal 0 0 1
    outer loop
      vertex 94.6513 -9.36046 3.5
      vertex 89.7148 -3.02301 3.5
      vertex 94.5088 -9.89218 3.5
    endloop
  endfacet
  facet normal 0 0 1
    outer loop
      vertex 86.3029 -13.8536 3.5
      vertex 94.5088 -9.89218 3.5
      vertex 89.7148 -3.02301 3.5
    endloop
  endfacet
  facet normal 0 0 1
    outer loop
      vertex 94.5088 -9.89218 3.5
      vertex 86.3029 -13.8536 3.5
      vertex 92.9687 -15.6397 3.5
    endloop
  endfacet
  facet normal 0 0 1
    outer loop
      vertex 79.8199 -17.1004 3.5
      vertex 86.3029 -13.8536 3.5
      vertex 83.4215 -1.51107 3.5
    endloop
  endfacet
  facet normal 0 0 1
    outer loop
      vertex 83.4215 -1.51107 3.5
      vertex 86.3029 -13.8536 3.5
      vertex 89.7148 -3.02301 3.5
    endloop
  endfacet
  facet normal 0 0 1
    outer loop
      vertex 95.4371 -6.67226 3.5
      vertex 95.3759 -6.65587 3.5
      vertex 94.712 -9.37673 3.5
    endloop
  endfacet
  facet normal 0 0 1
    outer loop
      vertex 92.1923 -18.5375 3.5
      vertex 85.8416 -18.5471 3.5
      vertex 91.778 -20.0835 3.5
    endloop
  endfacet
  facet normal 0 0 1
    outer loop
      vertex 85.5265 -16.7514 3.5
      vertex 85.8416 -18.5471 3.5
      vertex 92.1923 -18.5375 3.5
    endloop
  endfacet
  facet normal 0 0 1
    outer loop
      vertex 85.5265 -16.7514 3.5
      vertex 79.8199 -17.1004 3.5
      vertex 85.8416 -18.5471 3.5
    endloop
  endfacet
  facet normal 0 0 1
    outer loop
      vertex 86.3029 -13.8536 3.5
      vertex 79.8199 -17.1004 3.5
      vertex 85.5265 -16.7514 3.5
    endloop
  endfacet
  facet normal 0 0 1
    outer loop
      vertex 77.1027 -0.109261 3.5
      vertex 79.8199 -17.1004 3.5
      vertex 83.4215 -1.51107 3.5
    endloop
  endfacet
  facet normal 0 0 1
    outer loop
      vertex 77.1027 -0.109261 3.5
      vertex 73.7739 -15.7592 3.5
      vertex 79.8199 -17.1004 3.5
    endloop
  endfacet
  facet normal 0 0 1
    outer loop
      vertex 70.7604 1.18198 3.5
      vertex 73.7739 -15.7592 3.5
      vertex 77.1027 -0.109261 3.5
    endloop
  endfacet
  facet normal 0 0 1
    outer loop
      vertex 70.7604 1.18198 3.5
      vertex 67.7054 -14.5237 3.5
      vertex 73.7739 -15.7592 3.5
    endloop
  endfacet
  facet normal 0 0 1
    outer loop
      vertex 64.3965 2.36226 3.5
      vertex 67.7054 -14.5237 3.5
      vertex 70.7604 1.18198 3.5
    endloop
  endfacet
  facet normal 0 0 1
    outer loop
      vertex 64.3965 2.36226 3.5
      vertex 61.6163 -13.3943 3.5
      vertex 67.7054 -14.5237 3.5
    endloop
  endfacet
  facet normal 0 0 1
    outer loop
      vertex 58.0129 3.43123 3.5
      vertex 61.6163 -13.3943 3.5
      vertex 64.3965 2.36226 3.5
    endloop
  endfacet
  facet normal 0 0 1
    outer loop
      vertex 58.0129 3.43123 3.5
      vertex 55.5083 -12.3715 3.5
      vertex 61.6163 -13.3943 3.5
    endloop
  endfacet
  facet normal 0 0 1
    outer loop
      vertex 51.6117 4.38854 3.5
      vertex 55.5083 -12.3715 3.5
      vertex 58.0129 3.43123 3.5
    endloop
  endfacet
  facet normal 0 0 1
    outer loop
      vertex 51.6117 4.38854 3.5
      vertex 49.3835 -11.4555 3.5
      vertex 55.5083 -12.3715 3.5
    endloop
  endfacet
  facet normal 0 0 1
    outer loop
      vertex 45.1947 5.23392 3.5
      vertex 49.3835 -11.4555 3.5
      vertex 51.6117 4.38854 3.5
    endloop
  endfacet
  facet normal 0 0 1
    outer loop
      vertex 45.1947 5.23392 3.5
      vertex 43.2435 -10.6467 3.5
      vertex 49.3835 -11.4555 3.5
    endloop
  endfacet
  facet normal 0 0 1
    outer loop
      vertex 38.764 5.96711 3.5
      vertex 43.2435 -10.6467 3.5
      vertex 45.1947 5.23392 3.5
    endloop
  endfacet
  facet normal 0 0 1
    outer loop
      vertex 38.764 5.96711 3.5
      vertex 37.0904 -9.94512 3.5
      vertex 43.2435 -10.6467 3.5
    endloop
  endfacet
  facet normal 0 0 1
    outer loop
      vertex 32.3214 6.58787 3.5
      vertex 37.0904 -9.94512 3.5
      vertex 38.764 5.96711 3.5
    endloop
  endfacet
  facet normal 0 0 1
    outer loop
      vertex 32.3214 6.58787 3.5
      vertex 30.926 -9.35116 3.5
      vertex 37.0904 -9.94512 3.5
    endloop
  endfacet
  facet normal 0 0 1
    outer loop
      vertex 25.869 7.09603 3.5
      vertex 30.926 -9.35116 3.5
      vertex 32.3214 6.58787 3.5
    endloop
  endfacet
  facet normal 0 0 1
    outer loop
      vertex 25.869 7.09603 3.5
      vertex 24.7521 -8.86494 3.5
      vertex 30.926 -9.35116 3.5
    endloop
  endfacet
  facet normal 0 0 1
    outer loop
      vertex 19.4086 7.49143 3.5
      vertex 24.7521 -8.86494 3.5
      vertex 25.869 7.09603 3.5
    endloop
  endfacet
  facet normal 0 0 1
    outer loop
      vertex 19.4086 7.49143 3.5
      vertex 18.5707 -8.48661 3.5
      vertex 24.7521 -8.86494 3.5
    endloop
  endfacet
  facet normal 0 0 1
    outer loop
      vertex 12.9424 7.77394 3.5
      vertex 18.5707 -8.48661 3.5
      vertex 19.4086 7.49143 3.5
    endloop
  endfacet
  facet normal 0 0 1
    outer loop
      vertex 12.9424 7.77394 3.5
      vertex 12.3836 -8.2163 3.5
      vertex 18.5707 -8.48661 3.5
    endloop
  endfacet
  facet normal 0 0 1
    outer loop
      vertex 7 3.4 3.5
      vertex 12.9424 7.77394 3.5
      vertex 7 6.4 3.5
    endloop
  endfacet
  facet normal 0 0 1
    outer loop
      vertex 6.47217 7.94348 3.5
      vertex 7 6.4 3.5
      vertex 12.9424 7.77394 3.5
    endloop
  endfacet
  facet normal 0 0 1
    outer loop
      vertex 0.000999451 6.4 3.5
      vertex 6.47217 7.94348 3.5
      vertex 0.000999451 7.99999 3.5
    endloop
  endfacet
  facet normal 0 0 1
    outer loop
      vertex 6.47217 7.94348 3.5
      vertex 0.000999451 6.4 3.5
      vertex 7 6.4 3.5
    endloop
  endfacet
  facet normal 0 0 1
    outer loop
      vertex 12.9424 7.77394 3.5
      vertex 7 3.4 3.5
      vertex 12.3836 -8.2163 3.5
    endloop
  endfacet
  facet normal 0 0 1
    outer loop
      vertex 7 3.4 3.5
      vertex 6.19275 -8.05408 3.5
      vertex 12.3836 -8.2163 3.5
    endloop
  endfacet
  facet normal -0 0 1
    outer loop
      vertex 0.000999451 3.4 3.5
      vertex 6.19275 -8.05408 3.5
      vertex 7 3.4 3.5
    endloop
  endfacet
  facet normal 0 0 1
    outer loop
      vertex 6.19275 -8.05408 3.5
      vertex 0.000999451 3.4 3.5
      vertex 0.000999451 -8.00001 3.5
    endloop
  endfacet
  facet normal -0 0 1
    outer loop
      vertex 0 -3.101 3.5
      vertex 5.49316e-07 -5.901 3.5
      vertex 5.49316e-07 -3.101 3.5
    endloop
  endfacet
  facet normal 0 0 1
    outer loop
      vertex 5.49316e-07 -5.901 3.5
      vertex 0 -3.101 3.5
      vertex 0 -5.901 3.5
    endloop
  endfacet
  facet normal 1 -0 0
    outer loop
      vertex 0 -5.901 4.6
      vertex 0 -3.101 3.5
      vertex 0 -3.101 4.6
    endloop
  endfacet
  facet normal 1 0 0
    outer loop
      vertex 0 -3.101 3.5
      vertex 0 -5.901 4.6
      vertex 0 -5.901 3.5
    endloop
  endfacet
  facet normal -0.965887 0.258965 0
    outer loop
      vertex 95.4371 -6.67226 3.5
      vertex 94.712 -9.37673 3.5
      vertex 95.4371 -6.67226 4.6
    endloop
  endfacet
  facet normal -0.965843 0.259126 0
    outer loop
      vertex 95.4371 -6.67226 4.6
      vertex 95.5151 -6.38153 5.2
      vertex 95.5151 -6.38153 4.6
    endloop
  endfacet
  facet normal -0.965887 0.258965 0
    outer loop
      vertex 94.712 -9.37673 4.6
      vertex 95.4371 -6.67226 4.6
      vertex 94.712 -9.37673 3.5
    endloop
  endfacet
  facet normal -0.965887 0.258965 8.35343e-05
    outer loop
      vertex 95.4371 -6.67226 4.6
      vertex 94.712 -9.37673 4.6
      vertex 95.5151 -6.38153 5.2
    endloop
  endfacet
  facet normal -0.965829 0.259182 0
    outer loop
      vertex 94.6345 -9.66553 5.2
      vertex 94.712 -9.37673 4.6
      vertex 94.6345 -9.66553 4.6
    endloop
  endfacet
  facet normal -0.965878 0.258999 -9.44701e-05
    outer loop
      vertex 94.712 -9.37673 4.6
      vertex 94.6345 -9.66553 5.2
      vertex 95.5151 -6.38153 5.2
    endloop
  endfacet
  facet normal 0.00873225 0.999962 -0
    outer loop
      vertex 6.19275 -8.05408 3.5
      vertex 0.000999451 -8.00001 5
      vertex 6.19275 -8.05408 5
    endloop
  endfacet
  facet normal 0.00873225 0.999962 0
    outer loop
      vertex 0.000999451 -8.00001 5
      vertex 6.19275 -8.05408 3.5
      vertex 0.000999451 -8.00001 3.5
    endloop
  endfacet
  facet normal -0.00873224 -0.999962 0
    outer loop
      vertex 0.000999451 7.99999 3.5
      vertex 6.47217 7.94348 5
      vertex 0.000999451 7.99999 5
    endloop
  endfacet
  facet normal -0.00873224 -0.999962 -0
    outer loop
      vertex 6.47217 7.94348 5
      vertex 0.000999451 7.99999 3.5
      vertex 6.47217 7.94348 3.5
    endloop
  endfacet
  facet normal 0.0261942 0.999657 -0
    outer loop
      vertex 12.3836 -8.2163 3.5
      vertex 6.19275 -8.05408 5
      vertex 12.3836 -8.2163 5
    endloop
  endfacet
  facet normal 0.0261942 0.999657 0
    outer loop
      vertex 6.19275 -8.05408 5
      vertex 12.3836 -8.2163 3.5
      vertex 6.19275 -8.05408 3.5
    endloop
  endfacet
  facet normal -0.0261941 -0.999657 0
    outer loop
      vertex 6.47217 7.94348 3.5
      vertex 12.9424 7.77394 5
      vertex 6.47217 7.94348 5
    endloop
  endfacet
  facet normal -0.0261941 -0.999657 -0
    outer loop
      vertex 12.9424 7.77394 5
      vertex 6.47217 7.94348 3.5
      vertex 12.9424 7.77394 3.5
    endloop
  endfacet
  facet normal 0.0436477 0.999047 -0
    outer loop
      vertex 18.5707 -8.48661 3.5
      vertex 12.3836 -8.2163 5
      vertex 18.5707 -8.48661 5
    endloop
  endfacet
  facet normal 0.0436477 0.999047 0
    outer loop
      vertex 12.3836 -8.2163 5
      vertex 18.5707 -8.48661 3.5
      vertex 12.3836 -8.2163 3.5
    endloop
  endfacet
  facet normal -0.0436486 -0.999047 0
    outer loop
      vertex 12.9424 7.77394 3.5
      vertex 19.4086 7.49143 5
      vertex 12.9424 7.77394 5
    endloop
  endfacet
  facet normal -0.0436486 -0.999047 -0
    outer loop
      vertex 19.4086 7.49143 5
      vertex 12.9424 7.77394 3.5
      vertex 19.4086 7.49143 3.5
    endloop
  endfacet
  facet normal 0.0610903 0.998132 -0
    outer loop
      vertex 24.7521 -8.86494 3.5
      vertex 18.5707 -8.48661 5
      vertex 24.7521 -8.86494 5
    endloop
  endfacet
  facet normal 0.0610903 0.998132 0
    outer loop
      vertex 18.5707 -8.48661 5
      vertex 24.7521 -8.86494 3.5
      vertex 18.5707 -8.48661 3.5
    endloop
  endfacet
  facet normal -0.0610893 -0.998132 0
    outer loop
      vertex 19.4086 7.49143 3.5
      vertex 25.869 7.09603 5
      vertex 19.4086 7.49143 5
    endloop
  endfacet
  facet normal -0.0610893 -0.998132 -0
    outer loop
      vertex 25.869 7.09603 5
      vertex 19.4086 7.49143 3.5
      vertex 25.869 7.09603 3.5
    endloop
  endfacet
  facet normal 0.078511 0.996913 -0
    outer loop
      vertex 30.926 -9.35116 3.5
      vertex 24.7521 -8.86494 5
      vertex 30.926 -9.35116 5
    endloop
  endfacet
  facet normal 0.078511 0.996913 0
    outer loop
      vertex 24.7521 -8.86494 5
      vertex 30.926 -9.35116 3.5
      vertex 24.7521 -8.86494 3.5
    endloop
  endfacet
  facet normal -0.0785121 -0.996913 0
    outer loop
      vertex 25.869 7.09603 3.5
      vertex 32.3214 6.58787 5
      vertex 25.869 7.09603 5
    endloop
  endfacet
  facet normal -0.0785121 -0.996913 -0
    outer loop
      vertex 32.3214 6.58787 5
      vertex 25.869 7.09603 3.5
      vertex 32.3214 6.58787 3.5
    endloop
  endfacet
  facet normal 0.0959091 0.99539 -0
    outer loop
      vertex 37.0904 -9.94512 3.5
      vertex 30.926 -9.35116 5
      vertex 37.0904 -9.94512 5
    endloop
  endfacet
  facet normal 0.0959091 0.99539 0
    outer loop
      vertex 30.926 -9.35116 5
      vertex 37.0904 -9.94512 3.5
      vertex 30.926 -9.35116 3.5
    endloop
  endfacet
  facet normal -0.0959082 -0.99539 0
    outer loop
      vertex 32.3214 6.58787 3.5
      vertex 38.764 5.96711 5
      vertex 32.3214 6.58787 5
    endloop
  endfacet
  facet normal -0.0959082 -0.99539 -0
    outer loop
      vertex 38.764 5.96711 5
      vertex 32.3214 6.58787 3.5
      vertex 38.764 5.96711 3.5
    endloop
  endfacet
  facet normal 0.113287 0.993562 -0
    outer loop
      vertex 43.2435 -10.6467 3.5
      vertex 37.0904 -9.94512 5
      vertex 43.2435 -10.6467 5
    endloop
  endfacet
  facet normal 0.113287 0.993562 0
    outer loop
      vertex 37.0904 -9.94512 5
      vertex 43.2435 -10.6467 3.5
      vertex 37.0904 -9.94512 3.5
    endloop
  endfacet
  facet normal -0.11328 -0.993563 0
    outer loop
      vertex 38.764 5.96711 3.5
      vertex 45.1947 5.23392 5
      vertex 38.764 5.96711 5
    endloop
  endfacet
  facet normal -0.11328 -0.993563 -0
    outer loop
      vertex 45.1947 5.23392 5
      vertex 38.764 5.96711 3.5
      vertex 45.1947 5.23392 3.5
    endloop
  endfacet
  facet normal 0.130598 0.991435 -0
    outer loop
      vertex 49.3835 -11.4555 3.5
      vertex 43.2435 -10.6467 5
      vertex 49.3835 -11.4555 5
    endloop
  endfacet
  facet normal 0.130598 0.991435 0
    outer loop
      vertex 43.2435 -10.6467 5
      vertex 49.3835 -11.4555 3.5
      vertex 43.2435 -10.6467 3.5
    endloop
  endfacet
  facet normal -0.130612 -0.991434 0
    outer loop
      vertex 45.1947 5.23392 3.5
      vertex 51.6117 4.38854 5
      vertex 45.1947 5.23392 5
    endloop
  endfacet
  facet normal -0.130612 -0.991434 -0
    outer loop
      vertex 51.6117 4.38854 5
      vertex 45.1947 5.23392 3.5
      vertex 51.6117 4.38854 3.5
    endloop
  endfacet
  facet normal 0.147911 0.989001 -0
    outer loop
      vertex 55.5083 -12.3715 3.5
      vertex 49.3835 -11.4555 5
      vertex 55.5083 -12.3715 5
    endloop
  endfacet
  facet normal 0.147911 0.989001 0
    outer loop
      vertex 49.3835 -11.4555 5
      vertex 55.5083 -12.3715 3.5
      vertex 49.3835 -11.4555 3.5
    endloop
  endfacet
  facet normal -0.147907 -0.989001 0
    outer loop
      vertex 51.6117 4.38854 3.5
      vertex 58.0129 3.43123 5
      vertex 51.6117 4.38854 5
    endloop
  endfacet
  facet normal -0.147907 -0.989001 -0
    outer loop
      vertex 58.0129 3.43123 5
      vertex 51.6117 4.38854 3.5
      vertex 58.0129 3.43123 3.5
    endloop
  endfacet
  facet normal 0.165153 0.986268 -0
    outer loop
      vertex 61.6163 -13.3943 3.5
      vertex 55.5083 -12.3715 5
      vertex 61.6163 -13.3943 5
    endloop
  endfacet
  facet normal 0.165153 0.986268 0
    outer loop
      vertex 55.5083 -12.3715 5
      vertex 61.6163 -13.3943 3.5
      vertex 55.5083 -12.3715 3.5
    endloop
  endfacet
  facet normal -0.165156 -0.986267 0
    outer loop
      vertex 58.0129 3.43123 3.5
      vertex 64.3965 2.36226 5
      vertex 58.0129 3.43123 5
    endloop
  endfacet
  facet normal -0.165156 -0.986267 -0
    outer loop
      vertex 64.3965 2.36226 5
      vertex 58.0129 3.43123 3.5
      vertex 64.3965 2.36226 3.5
    endloop
  endfacet
  facet normal 0.182369 0.98323 -0
    outer loop
      vertex 67.7054 -14.5237 3.5
      vertex 61.6163 -13.3943 5
      vertex 67.7054 -14.5237 5
    endloop
  endfacet
  facet normal 0.182369 0.98323 0
    outer loop
      vertex 61.6163 -13.3943 5
      vertex 67.7054 -14.5237 3.5
      vertex 61.6163 -13.3943 3.5
    endloop
  endfacet
  facet normal -0.182355 -0.983233 0
    outer loop
      vertex 64.3965 2.36226 3.5
      vertex 70.7604 1.18198 5
      vertex 64.3965 2.36226 5
    endloop
  endfacet
  facet normal -0.182355 -0.983233 -0
    outer loop
      vertex 70.7604 1.18198 5
      vertex 64.3965 2.36226 3.5
      vertex 70.7604 1.18198 3.5
    endloop
  endfacet
  facet normal 0.1995 0.979898 -0
    outer loop
      vertex 73.7739 -15.7592 3.5
      vertex 67.7054 -14.5237 5
      vertex 73.7739 -15.7592 5
    endloop
  endfacet
  facet normal 0.1995 0.979898 0
    outer loop
      vertex 67.7054 -14.5237 5
      vertex 73.7739 -15.7592 3.5
      vertex 67.7054 -14.5237 3.5
    endloop
  endfacet
  facet normal -0.199499 -0.979898 0
    outer loop
      vertex 70.7604 1.18198 3.5
      vertex 77.1027 -0.109261 5
      vertex 70.7604 1.18198 5
    endloop
  endfacet
  facet normal -0.199499 -0.979898 -0
    outer loop
      vertex 77.1027 -0.109261 5
      vertex 70.7604 1.18198 3.5
      vertex 77.1027 -0.109261 3.5
    endloop
  endfacet
  facet normal 0.216568 0.976268 -0
    outer loop
      vertex 79.8199 -17.1004 3.5
      vertex 73.7739 -15.7592 5
      vertex 79.8199 -17.1004 5
    endloop
  endfacet
  facet normal 0.216568 0.976268 0
    outer loop
      vertex 73.7739 -15.7592 5
      vertex 79.8199 -17.1004 3.5
      vertex 73.7739 -15.7592 3.5
    endloop
  endfacet
  facet normal -0.216582 -0.976264 0
    outer loop
      vertex 77.1027 -0.109261 3.5
      vertex 83.4215 -1.51107 5
      vertex 77.1027 -0.109261 5
    endloop
  endfacet
  facet normal -0.216582 -0.976264 -0
    outer loop
      vertex 83.4215 -1.51107 5
      vertex 77.1027 -0.109261 3.5
      vertex 83.4215 -1.51107 3.5
    endloop
  endfacet
  facet normal 0.233601 0.972333 -0
    outer loop
      vertex 85.8416 -18.5471 3.5
      vertex 79.8199 -17.1004 5
      vertex 85.8416 -18.5471 5
    endloop
  endfacet
  facet normal 0.233601 0.972333 0
    outer loop
      vertex 79.8199 -17.1004 5
      vertex 85.8416 -18.5471 3.5
      vertex 79.8199 -17.1004 3.5
    endloop
  endfacet
  facet normal -0.233599 -0.972333 0
    outer loop
      vertex 83.4215 -1.51107 3.5
      vertex 89.7148 -3.02301 5
      vertex 83.4215 -1.51107 5
    endloop
  endfacet
  facet normal -0.233599 -0.972333 -0
    outer loop
      vertex 89.7148 -3.02301 5
      vertex 83.4215 -1.51107 3.5
      vertex 89.7148 -3.02301 3.5
    endloop
  endfacet
  facet normal 0.250555 0.968102 -0
    outer loop
      vertex 91.778 -20.0835 3.5
      vertex 85.8416 -18.5471 5
      vertex 91.778 -20.0835 5
    endloop
  endfacet
  facet normal 0.250555 0.968102 0
    outer loop
      vertex 85.8416 -18.5471 5
      vertex 91.778 -20.0835 3.5
      vertex 85.8416 -18.5471 3.5
    endloop
  endfacet
  facet normal -0.250544 -0.968105 0
    outer loop
      vertex 89.7148 -3.02301 5
      vertex 95.9191 -4.62867 4.76725
      vertex 95.9191 -4.62867 5
    endloop
  endfacet
  facet normal -0.250544 -0.968105 0
    outer loop
      vertex 89.7148 -3.02301 3.5
      vertex 95.9191 -4.62867 4.76725
      vertex 89.7148 -3.02301 5
    endloop
  endfacet
  facet normal -0.250544 -0.968105 -0
    outer loop
      vertex 95.9191 -4.62867 4.76725
      vertex 89.7148 -3.02301 3.5
      vertex 95.9191 -4.62867 3.5
    endloop
  endfacet
  facet normal -0.25882 -0.965926 0
    outer loop
      vertex 86.8723 -11.7286 0
      vertex 93.5381 -13.5147 2.5
      vertex 86.8723 -11.7286 2.5
    endloop
  endfacet
  facet normal -0.25882 -0.965926 -0
    outer loop
      vertex 93.5381 -13.5147 2.5
      vertex 86.8723 -11.7286 0
      vertex 93.5381 -13.5147 0
    endloop
  endfacet
  facet normal 0.965928 -0.258809 0
    outer loop
      vertex 86.8723 -11.7286 0
      vertex 86.8723 -11.7286 2.5
      vertex 85.5265 -16.7514 3.5
    endloop
  endfacet
  facet normal 0.25882 0.965926 -0
    outer loop
      vertex 91.6746 -20.4693 0.953428
      vertex 85.0088 -18.6832 2.5
      vertex 91.6746 -20.4693 2.5
    endloop
  endfacet
  facet normal 0.25882 0.965926 0
    outer loop
      vertex 85.0088 -18.6832 0
      vertex 91.6746 -20.4693 0.953428
      vertex 91.6746 -20.4693 0
    endloop
  endfacet
  facet normal 0.25882 0.965926 0
    outer loop
      vertex 91.6746 -20.4693 0.953428
      vertex 85.0088 -18.6832 0
      vertex 85.0088 -18.6832 2.5
    endloop
  endfacet
  facet normal 0.965931 -0.258799 5.24399e-05
    outer loop
      vertex 86.8723 -11.7286 2.5
      vertex 86.3029 -13.8536 3.5
      vertex 85.5265 -16.7514 3.5
    endloop
  endfacet
  facet normal 0.965916 -0.258854 0
    outer loop
      vertex 85.5265 -16.7514 3.5
      vertex 85.0088 -18.6832 2.5
      vertex 85.0088 -18.6832 0
    endloop
  endfacet
  facet normal 0.115749 0.431981 -0.894424
    outer loop
      vertex 91.6746 -20.4693 2.5
      vertex 85.5265 -16.7514 3.5
      vertex 92.1923 -18.5375 3.5
    endloop
  endfacet
  facet normal 0.115749 0.431981 -0.894424
    outer loop
      vertex 85.5265 -16.7514 3.5
      vertex 91.6746 -20.4693 2.5
      vertex 85.0088 -18.6832 2.5
    endloop
  endfacet
  facet normal -0.107124 -0.399792 -0.910325
    outer loop
      vertex 93.49 -13.6944 2.58458
      vertex 86.8723 -11.7286 2.5
      vertex 93.5381 -13.5147 2.5
    endloop
  endfacet
  facet normal -0.1071 -0.399701 -0.910368
    outer loop
      vertex 86.3029 -13.8536 3.5
      vertex 93.49 -13.6944 2.58458
      vertex 92.9687 -15.6397 3.5
    endloop
  endfacet
  facet normal -0.107099 -0.399709 -0.910364
    outer loop
      vertex 93.49 -13.6944 2.58458
      vertex 86.3029 -13.8536 3.5
      vertex 86.8723 -11.7286 2.5
    endloop
  endfacet
  facet normal 0.965925 -0.258822 -1.93303e-05
    outer loop
      vertex 86.8723 -11.7286 0
      vertex 85.5265 -16.7514 3.5
      vertex 85.0088 -18.6832 0
    endloop
  endfacet
endsolid OpenSCAD_Model
