solid OpenSCAD_Model
  facet normal -1 0 0
    outer loop
      vertex -5.999 -8 0
      vertex -5.999 -5.901 2.6
      vertex -5.999 -5.901 0
    endloop
  endfacet
  facet normal -1 -0 0
    outer loop
      vertex -5.999 -5.901 2.6
      vertex -5.999 -8 0
      vertex -5.999 -8 2.6
    endloop
  endfacet
  facet normal -1 0 0
    outer loop
      vertex -5.999 -3.101 0
      vertex -5.999 -1 2.6
      vertex -5.999 -1 0
    endloop
  endfacet
  facet normal -1 -0 0
    outer loop
      vertex -5.999 -1 2.6
      vertex -5.999 -3.101 0
      vertex -5.999 -3.101 2.6
    endloop
  endfacet
  facet normal 0 0 1
    outer loop
      vertex 0.000999451 -1 2.6
      vertex 5.49316e-07 -3.101 2.6
      vertex 0.000999451 -8 2.6
    endloop
  endfacet
  facet normal -0 0 1
    outer loop
      vertex -5.999 -1 2.6
      vertex 5.49316e-07 -3.101 2.6
      vertex 0.000999451 -1 2.6
    endloop
  endfacet
  facet normal 0 0 1
    outer loop
      vertex 5.49316e-07 -3.101 2.6
      vertex -5.999 -1 2.6
      vertex -5.999 -3.101 2.6
    endloop
  endfacet
  facet normal -0 0 1
    outer loop
      vertex 5.49316e-07 -5.901 2.6
      vertex 0.000999451 -8 2.6
      vertex 5.49316e-07 -3.101 2.6
    endloop
  endfacet
  facet normal -0 0 1
    outer loop
      vertex -5.999 -5.901 2.6
      vertex 0.000999451 -8 2.6
      vertex 5.49316e-07 -5.901 2.6
    endloop
  endfacet
  facet normal 0 0 1
    outer loop
      vertex 0.000999451 -8 2.6
      vertex -5.999 -5.901 2.6
      vertex -5.999 -8 2.6
    endloop
  endfacet
  facet normal 0 0 -1
    outer loop
      vertex 120.999 -28.4297 0
      vertex 115.394 -22.6835 0
      vertex 122.06 -24.4696 0
    endloop
  endfacet
  facet normal 0 -0 -1
    outer loop
      vertex 115.394 -22.6835 0
      vertex 120.999 -28.4297 0
      vertex 113.099 -26.3867 0
    endloop
  endfacet
  facet normal -0 0 -1
    outer loop
      vertex 131.556 -12.2088 0
      vertex 130.831 -14.9134 0
      vertex 131.555 -12.2086 0
    endloop
  endfacet
  facet normal 0 0 -1
    outer loop
      vertex 130.83 -14.9132 0
      vertex 131.555 -12.2086 0
      vertex 130.831 -14.9134 0
    endloop
  endfacet
  facet normal 0 0 -1
    outer loop
      vertex 126.305 -8.6287 0
      vertex 131.555 -12.2086 0
      vertex 130.83 -14.9132 0
    endloop
  endfacet
  facet normal 0 0 -1
    outer loop
      vertex 131.555 -12.2086 0
      vertex 126.305 -8.6287 0
      vertex 132.098 -10.1811 0
    endloop
  endfacet
  facet normal 0 0 -1
    outer loop
      vertex 124.493 -15.3902 0
      vertex 130.83 -14.9132 0
      vertex 130.287 -16.9426 0
    endloop
  endfacet
  facet normal -0 0 -1
    outer loop
      vertex 130.83 -14.9132 0
      vertex 124.493 -15.3902 0
      vertex 126.305 -8.6287 0
    endloop
  endfacet
  facet normal 0 0 -1
    outer loop
      vertex 117.258 -15.7289 0
      vertex 124.493 -15.3902 0
      vertex 123.923 -17.515 0
    endloop
  endfacet
  facet normal -0 0 -1
    outer loop
      vertex 124.493 -15.3902 0
      vertex 117.258 -15.7289 0
      vertex 126.305 -8.6287 0
    endloop
  endfacet
  facet normal 0 -0 -1
    outer loop
      vertex 119.148 -2.12935 0
      vertex 126.305 -8.6287 0
      vertex 117.258 -15.7289 0
    endloop
  endfacet
  facet normal 0 0 -1
    outer loop
      vertex 126.305 -8.6287 0
      vertex 119.148 -2.12935 0
      vertex 127.469 -4.28153 0
    endloop
  endfacet
  facet normal 0 0 -1
    outer loop
      vertex 105.166 -24.482 0
      vertex 117.258 -15.7289 0
      vertex 115.394 -22.6835 0
    endloop
  endfacet
  facet normal 0 0 -1
    outer loop
      vertex 105.166 -24.482 0
      vertex 115.394 -22.6835 0
      vertex 113.099 -26.3867 0
    endloop
  endfacet
  facet normal 0 0 -1
    outer loop
      vertex 117.258 -15.7289 0
      vertex 110.789 -0.122743 0
      vertex 119.148 -2.12935 0
    endloop
  endfacet
  facet normal -0 0 -1
    outer loop
      vertex 117.258 -15.7289 0
      vertex 105.166 -24.482 0
      vertex 110.789 -0.122743 0
    endloop
  endfacet
  facet normal 0 0 -1
    outer loop
      vertex 105.166 -24.482 0
      vertex 102.398 1.73769 0
      vertex 110.789 -0.122743 0
    endloop
  endfacet
  facet normal 0 0 -1
    outer loop
      vertex 97.1997 -22.716 0
      vertex 102.398 1.73769 0
      vertex 105.166 -24.482 0
    endloop
  endfacet
  facet normal 0 0 -1
    outer loop
      vertex 97.1997 -22.716 0
      vertex 93.9744 3.45139 0
      vertex 102.398 1.73769 0
    endloop
  endfacet
  facet normal 0 0 -1
    outer loop
      vertex 89.2042 -21.0893 0
      vertex 93.9744 3.45139 0
      vertex 97.1997 -22.716 0
    endloop
  endfacet
  facet normal 0 0 -1
    outer loop
      vertex 89.2042 -21.0893 0
      vertex 85.5227 5.01782 0
      vertex 93.9744 3.45139 0
    endloop
  endfacet
  facet normal 0 0 -1
    outer loop
      vertex 81.1815 -19.6024 0
      vertex 85.5227 5.01782 0
      vertex 89.2042 -21.0893 0
    endloop
  endfacet
  facet normal 0 0 -1
    outer loop
      vertex 81.1815 -19.6024 0
      vertex 77.045 6.43651 0
      vertex 85.5227 5.01782 0
    endloop
  endfacet
  facet normal 0 0 -1
    outer loop
      vertex 73.1341 -18.2557 0
      vertex 77.045 6.43651 0
      vertex 81.1815 -19.6024 0
    endloop
  endfacet
  facet normal 0 0 -1
    outer loop
      vertex 73.1341 -18.2557 0
      vertex 68.5438 7.70702 0
      vertex 77.045 6.43651 0
    endloop
  endfacet
  facet normal 0 0 -1
    outer loop
      vertex 65.0644 -17.0497 0
      vertex 68.5438 7.70702 0
      vertex 73.1341 -18.2557 0
    endloop
  endfacet
  facet normal 0 0 -1
    outer loop
      vertex 65.0644 -17.0497 0
      vertex 60.0217 8.82898 0
      vertex 68.5438 7.70702 0
    endloop
  endfacet
  facet normal 0 0 -1
    outer loop
      vertex 56.9749 -15.9847 0
      vertex 60.0217 8.82898 0
      vertex 65.0644 -17.0497 0
    endloop
  endfacet
  facet normal 0 0 -1
    outer loop
      vertex 56.9749 -15.9847 0
      vertex 51.4813 9.80203 0
      vertex 60.0217 8.82898 0
    endloop
  endfacet
  facet normal 0 0 -1
    outer loop
      vertex 48.8681 -15.061 0
      vertex 51.4813 9.80203 0
      vertex 56.9749 -15.9847 0
    endloop
  endfacet
  facet normal 0 0 -1
    outer loop
      vertex 48.8681 -15.061 0
      vertex 42.9252 10.6259 0
      vertex 51.4813 9.80203 0
    endloop
  endfacet
  facet normal 0 0 -1
    outer loop
      vertex 40.7463 -14.279 0
      vertex 42.9252 10.6259 0
      vertex 48.8681 -15.061 0
    endloop
  endfacet
  facet normal 0 0 -1
    outer loop
      vertex 40.7463 -14.279 0
      vertex 34.3561 11.3003 0
      vertex 42.9252 10.6259 0
    endloop
  endfacet
  facet normal 0 0 -1
    outer loop
      vertex 32.6122 -13.6388 0
      vertex 34.3561 11.3003 0
      vertex 40.7463 -14.279 0
    endloop
  endfacet
  facet normal 0 0 -1
    outer loop
      vertex 32.6122 -13.6388 0
      vertex 25.7765 11.825 0
      vertex 34.3561 11.3003 0
    endloop
  endfacet
  facet normal 0 0 -1
    outer loop
      vertex 24.4681 -13.1407 0
      vertex 25.7765 11.825 0
      vertex 32.6122 -13.6388 0
    endloop
  endfacet
  facet normal 0 0 -1
    outer loop
      vertex 24.4681 -13.1407 0
      vertex 17.189 12.2 0
      vertex 25.7765 11.825 0
    endloop
  endfacet
  facet normal 0 0 -1
    outer loop
      vertex 16.3165 -12.7848 0
      vertex 17.189 12.2 0
      vertex 24.4681 -13.1407 0
    endloop
  endfacet
  facet normal 0 0 -1
    outer loop
      vertex 7 1.2 0
      vertex 17.189 12.2 0
      vertex 16.3165 -12.7848 0
    endloop
  endfacet
  facet normal 0 0 -1
    outer loop
      vertex 7 1.2 0
      vertex 16.3165 -12.7848 0
      vertex 8.16 -12.5712 0
    endloop
  endfacet
  facet normal 0 0 -1
    outer loop
      vertex 7 8.4 0
      vertex 17.189 12.2 0
      vertex 7 1.2 0
    endloop
  endfacet
  facet normal -0 0 -1
    outer loop
      vertex 17.189 12.2 0
      vertex 7 8.4 0
      vertex 8.59631 12.425 0
    endloop
  endfacet
  facet normal 0 0 -1
    outer loop
      vertex 0.000999451 12.5 0
      vertex 7 8.4 0
      vertex 0.000999451 8.4 0
    endloop
  endfacet
  facet normal 0 0 -1
    outer loop
      vertex 7 8.4 0
      vertex 0.000999451 12.5 0
      vertex 8.59631 12.425 0
    endloop
  endfacet
  facet normal 0 0 -1
    outer loop
      vertex -6 -5.901 0
      vertex -5.999 -3.101 0
      vertex -5.999 -5.901 0
    endloop
  endfacet
  facet normal -0 0 -1
    outer loop
      vertex -5.999 -3.101 0
      vertex -6 -5.901 0
      vertex -6 -3.101 0
    endloop
  endfacet
  facet normal 0 0 -1
    outer loop
      vertex -5.999 -5.901 0
      vertex 0.000999451 -8 0
      vertex -5.999 -8 0
    endloop
  endfacet
  facet normal 0 0 -1
    outer loop
      vertex 0.000999451 -8 0
      vertex -5.999 -5.901 0
      vertex 0.000999451 -1 0
    endloop
  endfacet
  facet normal 0 0 -1
    outer loop
      vertex -5.999 -3.101 0
      vertex 0.000999451 -1 0
      vertex -5.999 -5.901 0
    endloop
  endfacet
  facet normal -0 0 -1
    outer loop
      vertex 0.000999451 -1 0
      vertex -5.999 -3.101 0
      vertex -5.999 -1 0
    endloop
  endfacet
  facet normal 0 0 -1
    outer loop
      vertex 0.000999451 -8 0
      vertex 8.16 -12.5712 0
      vertex 0.000999451 -12.5 0
    endloop
  endfacet
  facet normal 0 0 -1
    outer loop
      vertex 8.16 -12.5712 0
      vertex 0.000999451 -8 0
      vertex 7 1.2 0
    endloop
  endfacet
  facet normal 0 0 -1
    outer loop
      vertex 0.000999451 -1 0
      vertex 7 1.2 0
      vertex 0.000999451 -8 0
    endloop
  endfacet
  facet normal -0 0 -1
    outer loop
      vertex 7 1.2 0
      vertex 0.000999451 -1 0
      vertex 0.000999451 1.2 0
    endloop
  endfacet
  facet normal 0 -1 0
    outer loop
      vertex -5.999 -8 0
      vertex 0.000999451 -8 2.6
      vertex -5.999 -8 2.6
    endloop
  endfacet
  facet normal 0 -1 -0
    outer loop
      vertex 0.000999451 -8 2.6
      vertex -5.999 -8 0
      vertex 0.000999451 -8 0
    endloop
  endfacet
  facet normal 0 1 -0
    outer loop
      vertex 0.000999451 -1 0
      vertex -5.999 -1 2.6
      vertex 0.000999451 -1 2.6
    endloop
  endfacet
  facet normal 0 1 0
    outer loop
      vertex -5.999 -1 2.6
      vertex 0.000999451 -1 0
      vertex -5.999 -1 0
    endloop
  endfacet
  facet normal -1 0 0
    outer loop
      vertex -6 -5.901 0
      vertex -6 -3.101 4.6
      vertex -6 -3.101 0
    endloop
  endfacet
  facet normal -1 -0 0
    outer loop
      vertex -6 -3.101 4.6
      vertex -6 -5.901 0
      vertex -6 -5.901 4.6
    endloop
  endfacet
  facet normal 0 0 -1
    outer loop
      vertex -0.000999855 -6.202 4.6
      vertex -6 -5.901 4.6
      vertex -0.000999855 -5.901 4.6
    endloop
  endfacet
  facet normal -0 0 -1
    outer loop
      vertex -6 -5.901 4.6
      vertex -6.001 -6.202 4.6
      vertex -6 -3.101 4.6
    endloop
  endfacet
  facet normal 0 0 -1
    outer loop
      vertex -6.001 -6.202 4.6
      vertex -6 -5.901 4.6
      vertex -0.000999855 -6.202 4.6
    endloop
  endfacet
  facet normal 0 0 -1
    outer loop
      vertex -6 -3.101 4.6
      vertex -0.000999855 -2.802 4.6
      vertex -0.000999855 -3.101 4.6
    endloop
  endfacet
  facet normal 0 0 -1
    outer loop
      vertex -6 -3.101 4.6
      vertex -6.001 -2.802 4.6
      vertex -0.000999855 -2.802 4.6
    endloop
  endfacet
  facet normal 0 0 -1
    outer loop
      vertex -6.001 -2.802 4.6
      vertex -6 -3.101 4.6
      vertex -6.001 -6.202 4.6
    endloop
  endfacet
  facet normal -0 0 1
    outer loop
      vertex -0.000999855 -3.101 4.6
      vertex 0 -5.901 4.6
      vertex 0 -3.101 4.6
    endloop
  endfacet
  facet normal 0 0 1
    outer loop
      vertex 0 -5.901 4.6
      vertex -0.000999855 -3.101 4.6
      vertex -0.000999855 -5.901 4.6
    endloop
  endfacet
  facet normal 1 -0 0
    outer loop
      vertex 5.49316e-07 -5.901 3.5
      vertex 5.49316e-07 -3.101 2.6
      vertex 5.49316e-07 -3.101 3.5
    endloop
  endfacet
  facet normal 1 0 0
    outer loop
      vertex 5.49316e-07 -3.101 2.6
      vertex 5.49316e-07 -5.901 3.5
      vertex 5.49316e-07 -5.901 2.6
    endloop
  endfacet
  facet normal 0 -1 0
    outer loop
      vertex 0 -5.901 3.5
      vertex -0.000999855 -5.901 4.6
      vertex -6 -5.901 4.6
    endloop
  endfacet
  facet normal 0 -1 0
    outer loop
      vertex -0.000999855 -5.901 4.6
      vertex 0 -5.901 3.5
      vertex 0 -5.901 4.6
    endloop
  endfacet
  facet normal 0 -1 0
    outer loop
      vertex 5.49316e-07 -5.901 2.6
      vertex 0 -5.901 3.5
      vertex -5.999 -5.901 2.6
    endloop
  endfacet
  facet normal 0 -1 0
    outer loop
      vertex -6 -5.901 4.6
      vertex -5.999 -5.901 2.6
      vertex 0 -5.901 3.5
    endloop
  endfacet
  facet normal 0 -1 0
    outer loop
      vertex -6 -5.901 0
      vertex -5.999 -5.901 2.6
      vertex -6 -5.901 4.6
    endloop
  endfacet
  facet normal 0 -1 -0
    outer loop
      vertex -5.999 -5.901 2.6
      vertex -6 -5.901 0
      vertex -5.999 -5.901 0
    endloop
  endfacet
  facet normal 0 -1 0
    outer loop
      vertex 0 -5.901 3.5
      vertex 5.49316e-07 -5.901 2.6
      vertex 5.49316e-07 -5.901 3.5
    endloop
  endfacet
  facet normal 0 1 0
    outer loop
      vertex 5.49316e-07 -3.101 3.5
      vertex 5.49316e-07 -3.101 2.6
      vertex 0 -3.101 3.5
    endloop
  endfacet
  facet normal 0 1 -0
    outer loop
      vertex 0 -3.101 3.5
      vertex -0.000999855 -3.101 4.6
      vertex 0 -3.101 4.6
    endloop
  endfacet
  facet normal 0 1 0
    outer loop
      vertex -0.000999855 -3.101 4.6
      vertex 0 -3.101 3.5
      vertex -6 -3.101 4.6
    endloop
  endfacet
  facet normal 0 1 0
    outer loop
      vertex -5.999 -3.101 2.6
      vertex 0 -3.101 3.5
      vertex 5.49316e-07 -3.101 2.6
    endloop
  endfacet
  facet normal 0 1 0
    outer loop
      vertex 0 -3.101 3.5
      vertex -5.999 -3.101 2.6
      vertex -6 -3.101 4.6
    endloop
  endfacet
  facet normal 0 1 0
    outer loop
      vertex -6 -3.101 0
      vertex -5.999 -3.101 2.6
      vertex -5.999 -3.101 0
    endloop
  endfacet
  facet normal 0 1 0
    outer loop
      vertex -5.999 -3.101 2.6
      vertex -6 -3.101 0
      vertex -6 -3.101 4.6
    endloop
  endfacet
  facet normal -1 0 0
    outer loop
      vertex -6.001 -6.202 4.6
      vertex -6.001 -2.802 5.2
      vertex -6.001 -2.802 4.6
    endloop
  endfacet
  facet normal -1 -0 0
    outer loop
      vertex -6.001 -2.802 5.2
      vertex -6.001 -6.202 4.6
      vertex -6.001 -6.202 5.2
    endloop
  endfacet
  facet normal -0 0 1
    outer loop
      vertex -6.001 -2.802 5.2
      vertex -0.000999855 -6.202 5.2
      vertex -0.000999855 -2.802 5.2
    endloop
  endfacet
  facet normal 0 0 1
    outer loop
      vertex -0.000999855 -6.202 5.2
      vertex -6.001 -2.802 5.2
      vertex -6.001 -6.202 5.2
    endloop
  endfacet
  facet normal 1 0 0
    outer loop
      vertex -0.000999855 -2.802 5.2
      vertex -0.000999855 -3.101 4.6
      vertex -0.000999855 -2.802 4.6
    endloop
  endfacet
  facet normal 1 0 0
    outer loop
      vertex -0.000999855 -2.802 5.2
      vertex -0.000999855 -5.901 4.6
      vertex -0.000999855 -3.101 4.6
    endloop
  endfacet
  facet normal 1 -0 0
    outer loop
      vertex -0.000999855 -6.202 5.2
      vertex -0.000999855 -5.901 4.6
      vertex -0.000999855 -2.802 5.2
    endloop
  endfacet
  facet normal 1 0 0
    outer loop
      vertex -0.000999855 -5.901 4.6
      vertex -0.000999855 -6.202 5.2
      vertex -0.000999855 -6.202 4.6
    endloop
  endfacet
  facet normal 0 -1 0
    outer loop
      vertex -6.001 -6.202 4.6
      vertex -0.000999855 -6.202 5.2
      vertex -6.001 -6.202 5.2
    endloop
  endfacet
  facet normal 0 -1 -0
    outer loop
      vertex -0.000999855 -6.202 5.2
      vertex -6.001 -6.202 4.6
      vertex -0.000999855 -6.202 4.6
    endloop
  endfacet
  facet normal 0 1 -0
    outer loop
      vertex -0.000999855 -2.802 4.6
      vertex -6.001 -2.802 5.2
      vertex -0.000999855 -2.802 5.2
    endloop
  endfacet
  facet normal 0 1 0
    outer loop
      vertex -6.001 -2.802 5.2
      vertex -0.000999855 -2.802 4.6
      vertex -6.001 -2.802 4.6
    endloop
  endfacet
  facet normal 0.965958 -0.2587 0
    outer loop
      vertex 131.555 -12.2086 2.6
      vertex 132.098 -10.1811 0
      vertex 132.098 -10.1811 2.6
    endloop
  endfacet
  facet normal 0.965958 -0.2587 0
    outer loop
      vertex 132.098 -10.1811 0
      vertex 131.555 -12.2086 2.6
      vertex 131.555 -12.2086 0
    endloop
  endfacet
  facet normal 0.966018 -0.258474 0
    outer loop
      vertex 130.287 -16.9426 2.6
      vertex 130.83 -14.9132 0
      vertex 130.83 -14.9132 2.6
    endloop
  endfacet
  facet normal 0.966018 -0.258474 0
    outer loop
      vertex 130.83 -14.9132 0
      vertex 130.287 -16.9426 2.6
      vertex 130.287 -16.9426 0
    endloop
  endfacet
  facet normal 0 0 1
    outer loop
      vertex 126.305 -8.6287 2.6
      vertex 131.555 -12.2086 2.6
      vertex 132.098 -10.1811 2.6
    endloop
  endfacet
  facet normal 0 0 1
    outer loop
      vertex 131.555 -12.2086 2.6
      vertex 126.305 -8.6287 2.6
      vertex 125.761 -10.6562 2.6
    endloop
  endfacet
  facet normal 0 0 1
    outer loop
      vertex 125.037 -13.3608 2.6
      vertex 130.287 -16.9426 2.6
      vertex 130.83 -14.9132 2.6
    endloop
  endfacet
  facet normal 0 0 1
    outer loop
      vertex 130.287 -16.9426 2.6
      vertex 125.037 -13.3608 2.6
      vertex 124.493 -15.3902 2.6
    endloop
  endfacet
  facet normal 0.258846 0.965919 -0
    outer loop
      vertex 132.098 -10.1811 0
      vertex 126.305 -8.6287 2.6
      vertex 132.098 -10.1811 2.6
    endloop
  endfacet
  facet normal 0.258846 0.965919 0
    outer loop
      vertex 126.305 -8.6287 2.6
      vertex 132.098 -10.1811 0
      vertex 126.305 -8.6287 0
    endloop
  endfacet
  facet normal -0.258804 -0.96593 0
    outer loop
      vertex 124.493 -15.3902 0
      vertex 130.287 -16.9426 2.6
      vertex 124.493 -15.3902 2.6
    endloop
  endfacet
  facet normal -0.258804 -0.96593 -0
    outer loop
      vertex 130.287 -16.9426 2.6
      vertex 124.493 -15.3902 0
      vertex 130.287 -16.9426 0
    endloop
  endfacet
  facet normal 0.965899 -0.258921 0
    outer loop
      vertex 130.831 -14.9134 4.6
      vertex 131.556 -12.2088 0
      vertex 131.556 -12.2088 4.6
    endloop
  endfacet
  facet normal 0.965899 -0.258921 0
    outer loop
      vertex 131.556 -12.2088 0
      vertex 130.831 -14.9134 4.6
      vertex 130.831 -14.9134 0
    endloop
  endfacet
  facet normal 0 0 -1
    outer loop
      vertex 131.635 -11.9184 4.6
      vertex 130.831 -14.9134 4.6
      vertex 131.556 -12.2088 4.6
    endloop
  endfacet
  facet normal 0 0 -1
    outer loop
      vertex 130.755 -15.2025 4.6
      vertex 130.831 -14.9134 4.6
      vertex 131.635 -11.9184 4.6
    endloop
  endfacet
  facet normal 0 0 -1
    outer loop
      vertex 130.755 -15.2025 4.6
      vertex 125.117 -13.3823 4.6
      vertex 130.831 -14.9134 4.6
    endloop
  endfacet
  facet normal 0 -0 -1
    outer loop
      vertex 125.117 -13.3823 4.6
      vertex 130.755 -15.2025 4.6
      vertex 125.04 -13.6711 4.6
    endloop
  endfacet
  facet normal 0 0 -1
    outer loop
      vertex 131.556 -12.2088 4.6
      vertex 125.92 -10.3871 4.6
      vertex 131.635 -11.9184 4.6
    endloop
  endfacet
  facet normal 0 -0 -1
    outer loop
      vertex 125.92 -10.3871 4.6
      vertex 131.556 -12.2088 4.6
      vertex 125.842 -10.6779 4.6
    endloop
  endfacet
  facet normal 0.258794 0.965933 0
    outer loop
      vertex 131.556 -12.2088 4.6
      vertex 125.842 -10.6779 3.5
      vertex 125.842 -10.6779 4.6
    endloop
  endfacet
  facet normal 0.258804 0.96593 -2.70444e-06
    outer loop
      vertex 125.761 -10.6562 2.6
      vertex 125.842 -10.6779 3.5
      vertex 131.555 -12.2086 2.6
    endloop
  endfacet
  facet normal 0.258799 0.965931 -3.28066e-05
    outer loop
      vertex 131.556 -12.2088 4.6
      vertex 131.555 -12.2086 2.6
      vertex 125.842 -10.6779 3.5
    endloop
  endfacet
  facet normal 0.196116 0.980581 -0
    outer loop
      vertex 131.556 -12.2088 0
      vertex 131.555 -12.2086 2.6
      vertex 131.556 -12.2088 4.6
    endloop
  endfacet
  facet normal 0.196116 0.980581 0
    outer loop
      vertex 131.555 -12.2086 2.6
      vertex 131.556 -12.2088 0
      vertex 131.555 -12.2086 0
    endloop
  endfacet
  facet normal 0.258776 0.965937 0
    outer loop
      vertex 125.842 -10.6779 3.5
      vertex 125.761 -10.6562 2.6
      vertex 125.761 -10.6562 3.5
    endloop
  endfacet
  facet normal -0.258825 -0.965924 0
    outer loop
      vertex 125.117 -13.3823 3.5
      vertex 130.831 -14.9134 4.6
      vertex 125.117 -13.3823 4.6
    endloop
  endfacet
  facet normal -0.258846 -0.965919 -6.62324e-05
    outer loop
      vertex 130.83 -14.9132 2.6
      vertex 125.117 -13.3823 3.5
      vertex 125.037 -13.3608 2.6
    endloop
  endfacet
  facet normal -0.258831 -0.965923 3.28232e-05
    outer loop
      vertex 125.117 -13.3823 3.5
      vertex 130.83 -14.9132 2.6
      vertex 130.831 -14.9134 4.6
    endloop
  endfacet
  facet normal -0.196116 -0.980581 0
    outer loop
      vertex 130.831 -14.9134 0
      vertex 130.83 -14.9132 2.6
      vertex 130.83 -14.9132 0
    endloop
  endfacet
  facet normal -0.196116 -0.980581 0
    outer loop
      vertex 130.83 -14.9132 2.6
      vertex 130.831 -14.9134 0
      vertex 130.831 -14.9134 4.6
    endloop
  endfacet
  facet normal -0.259541 -0.965732 -0
    outer loop
      vertex 125.037 -13.3608 3.5
      vertex 125.037 -13.3608 2.6
      vertex 125.117 -13.3823 3.5
    endloop
  endfacet
  facet normal 0.965924 -0.258827 0
    outer loop
      vertex 130.755 -15.2025 5.2
      vertex 131.635 -11.9184 4.6
      vertex 131.635 -11.9184 5.2
    endloop
  endfacet
  facet normal 0.965924 -0.258827 0
    outer loop
      vertex 131.635 -11.9184 4.6
      vertex 130.755 -15.2025 5.2
      vertex 130.755 -15.2025 4.6
    endloop
  endfacet
  facet normal 0 0 1
    outer loop
      vertex 125.92 -10.3871 5.2
      vertex 130.755 -15.2025 5.2
      vertex 131.635 -11.9184 5.2
    endloop
  endfacet
  facet normal 0 0 1
    outer loop
      vertex 130.755 -15.2025 5.2
      vertex 125.92 -10.3871 5.2
      vertex 125.04 -13.6711 5.2
    endloop
  endfacet
  facet normal 0.258814 0.965927 -0
    outer loop
      vertex 131.635 -11.9184 4.6
      vertex 125.92 -10.3871 5.2
      vertex 131.635 -11.9184 5.2
    endloop
  endfacet
  facet normal 0.258814 0.965927 0
    outer loop
      vertex 125.92 -10.3871 5.2
      vertex 131.635 -11.9184 4.6
      vertex 125.92 -10.3871 4.6
    endloop
  endfacet
  facet normal -0.25883 -0.965923 0
    outer loop
      vertex 125.04 -13.6711 4.6
      vertex 130.755 -15.2025 5.2
      vertex 125.04 -13.6711 5.2
    endloop
  endfacet
  facet normal -0.25883 -0.965923 -0
    outer loop
      vertex 130.755 -15.2025 5.2
      vertex 125.04 -13.6711 4.6
      vertex 130.755 -15.2025 4.6
    endloop
  endfacet
  facet normal -1 0 0
    outer loop
      vertex 0.000999451 1.2 0
      vertex 0.000999451 -1 0
      vertex 0.000999451 1.2 2.5
    endloop
  endfacet
  facet normal -1 0 0
    outer loop
      vertex 0.000999451 -1 2.6
      vertex 0.000999451 1.2 2.5
      vertex 0.000999451 -1 0
    endloop
  endfacet
  facet normal -1 0 0
    outer loop
      vertex 0.000999451 -1 2.6
      vertex 0.000999451 3.4 3.5
      vertex 0.000999451 1.2 2.5
    endloop
  endfacet
  facet normal -1 0 0
    outer loop
      vertex 0.000999451 -8.00001 3.5
      vertex 0.000999451 -1 2.6
      vertex 0.000999451 -8 2.6
    endloop
  endfacet
  facet normal -1 0 0
    outer loop
      vertex 0.000999451 -1 2.6
      vertex 0.000999451 -8.00001 3.5
      vertex 0.000999451 3.4 3.5
    endloop
  endfacet
  facet normal -1 0 0
    outer loop
      vertex 0.000999451 -12.5 0
      vertex 0.000999451 -8 2.6
      vertex 0.000999451 -8 0
    endloop
  endfacet
  facet normal -1 0 0
    outer loop
      vertex 0.000999451 -8.00001 3.5
      vertex 0.000999451 -9 5
      vertex 0.000999451 -8.00001 5
    endloop
  endfacet
  facet normal -1 0 -0
    outer loop
      vertex 0.000999451 -9 5
      vertex 0.000999451 -8 2.6
      vertex 0.000999451 -12.5 0
    endloop
  endfacet
  facet normal -1 0 0
    outer loop
      vertex 0.000999451 -8 2.6
      vertex 0.000999451 -9 5
      vertex 0.000999451 -8.00001 3.5
    endloop
  endfacet
  facet normal -1 0 0
    outer loop
      vertex 0.000999451 8.4 2.5
      vertex 0.000999451 6.4 3.5
      vertex 0.000999451 7.99999 3.5
    endloop
  endfacet
  facet normal -1 0 0
    outer loop
      vertex 0.000999451 8.4 2.5
      vertex 0.000999451 12.5 0
      vertex 0.000999451 8.4 0
    endloop
  endfacet
  facet normal -1 0 0
    outer loop
      vertex 0.000999451 12.5 0
      vertex 0.000999451 8.4 2.5
      vertex 0.000999451 9 5
    endloop
  endfacet
  facet normal -1 0 0
    outer loop
      vertex 0.000999451 7.99999 3.5
      vertex 0.000999451 9 5
      vertex 0.000999451 8.4 2.5
    endloop
  endfacet
  facet normal -1 -0 0
    outer loop
      vertex 0.000999451 9 5
      vertex 0.000999451 7.99999 3.5
      vertex 0.000999451 7.99999 5
    endloop
  endfacet
  facet normal 0.966069 -0.258286 0
    outer loop
      vertex 121.905 -25.0489 5
      vertex 122.163 -24.0839 3.5
      vertex 122.163 -24.0839 5
    endloop
  endfacet
  facet normal 0.966097 -0.258181 7.23532e-05
    outer loop
      vertex 122.163 -24.0839 3.5
      vertex 121.905 -25.0489 5
      vertex 122.06 -24.4696 2.5
    endloop
  endfacet
  facet normal 0.965943 -0.258754 -6.99486e-05
    outer loop
      vertex 120.999 -28.4297 0
      vertex 122.06 -24.4696 2.5
      vertex 121.905 -25.0489 5
    endloop
  endfacet
  facet normal 0.965932 -0.258795 0
    outer loop
      vertex 122.06 -24.4696 2.5
      vertex 120.999 -28.4297 0
      vertex 122.06 -24.4696 0.953428
    endloop
  endfacet
  facet normal 0.965813 -0.259241 0.000510486
    outer loop
      vertex 122.578 -22.5378 3.5
      vertex 122.163 -24.0839 3.5
      vertex 122.06 -24.4696 2.5
    endloop
  endfacet
  facet normal 0.965694 -0.259681 0
    outer loop
      vertex 126.304 -8.62915 4.76721
      vertex 126.564 -7.66227 5
      vertex 126.304 -8.62915 5
    endloop
  endfacet
  facet normal 0.965927 -0.258813 -0.000241327
    outer loop
      vertex 123.875 -17.6947 2.58458
      vertex 124.894 -13.8925 3.5
      vertex 123.354 -19.64 3.5
    endloop
  endfacet
  facet normal 0.965694 -0.259681 0
    outer loop
      vertex 126.304 -8.62915 3.5
      vertex 126.564 -7.66227 5
      vertex 126.304 -8.62915 4.76721
    endloop
  endfacet
  facet normal 0.965327 -0.261044 0.000942063
    outer loop
      vertex 126.564 -7.66227 5
      vertex 126.304 -8.62915 3.5
      vertex 126.305 -8.6287 2.6
    endloop
  endfacet
  facet normal 0.965943 -0.258754 0.000943893
    outer loop
      vertex 125.761 -10.6562 3.5
      vertex 126.305 -8.6287 2.6
      vertex 126.304 -8.62915 3.5
    endloop
  endfacet
  facet normal 0.965838 -0.259145 0
    outer loop
      vertex 126.305 -8.6287 2.6
      vertex 125.761 -10.6562 3.5
      vertex 125.761 -10.6562 2.6
    endloop
  endfacet
  facet normal 0.96596 -0.25869 -7.40561e-05
    outer loop
      vertex 126.305 -8.6287 2.6
      vertex 127.469 -4.28153 0
      vertex 126.564 -7.66227 5
    endloop
  endfacet
  facet normal 0.965971 -0.258649 0
    outer loop
      vertex 127.469 -4.28153 0
      vertex 126.305 -8.6287 2.6
      vertex 126.305 -8.6287 0
    endloop
  endfacet
  facet normal 0.965932 -0.258795 0
    outer loop
      vertex 122.06 -24.4696 0
      vertex 122.06 -24.4696 0.953428
      vertex 120.999 -28.4297 0
    endloop
  endfacet
  facet normal 0.965684 -0.259719 0
    outer loop
      vertex 124.894 -13.8925 3.5
      vertex 125.037 -13.3608 2.6
      vertex 125.037 -13.3608 3.5
    endloop
  endfacet
  facet normal 0.965899 -0.258918 0.000507366
    outer loop
      vertex 124.894 -13.8925 3.5
      vertex 124.493 -15.3902 2.6
      vertex 125.037 -13.3608 2.6
    endloop
  endfacet
  facet normal 0.965851 -0.2591 0
    outer loop
      vertex 124.493 -15.3902 2.6
      vertex 123.923 -17.515 2.5
      vertex 124.493 -15.3902 0
    endloop
  endfacet
  facet normal 0.965871 -0.259023 0.000694208
    outer loop
      vertex 123.875 -17.6947 2.58458
      vertex 124.493 -15.3902 2.6
      vertex 124.894 -13.8925 3.5
    endloop
  endfacet
  facet normal 0.965874 -0.259005 -0.00214296
    outer loop
      vertex 124.493 -15.3902 2.6
      vertex 123.875 -17.6947 2.58458
      vertex 123.923 -17.515 2.5
    endloop
  endfacet
  facet normal 0.965851 -0.2591 0
    outer loop
      vertex 124.493 -15.3902 0
      vertex 123.923 -17.515 2.5
      vertex 123.923 -17.515 0
    endloop
  endfacet
  facet normal -0.00714959 -0.819211 0.573448
    outer loop
      vertex 8.22108 -9.07174 5
      vertex 0.000999451 -9 5
      vertex 0.000999451 -12.5 0
    endloop
  endfacet
  facet normal -0.0071489 -0.819212 0.573447
    outer loop
      vertex 8.16 -12.5712 0
      vertex 8.22108 -9.07174 5
      vertex 0.000999451 -12.5 0
    endloop
  endfacet
  facet normal -0 0 1
    outer loop
      vertex 118.135 -6.51492 5
      vertex 126.564 -7.66227 5
      vertex 118.301 -5.52539 5
    endloop
  endfacet
  facet normal 0 0 1
    outer loop
      vertex 126.564 -7.66227 5
      vertex 118.135 -6.51492 5
      vertex 126.304 -8.62915 5
    endloop
  endfacet
  facet normal -0 0 1
    outer loop
      vertex 109.848 -4.52402 5
      vertex 118.301 -5.52539 5
      vertex 110.002 -3.53304 5
    endloop
  endfacet
  facet normal 0 0 1
    outer loop
      vertex 118.301 -5.52539 5
      vertex 109.848 -4.52402 5
      vertex 118.135 -6.51492 5
    endloop
  endfacet
  facet normal -0 0 1
    outer loop
      vertex 101.528 -2.67814 5
      vertex 110.002 -3.53304 5
      vertex 101.67 -1.68582 5
    endloop
  endfacet
  facet normal 0 0 1
    outer loop
      vertex 110.002 -3.53304 5
      vertex 101.528 -2.67814 5
      vertex 109.848 -4.52402 5
    endloop
  endfacet
  facet normal -0 0 1
    outer loop
      vertex 93.1761 -0.977856 5
      vertex 101.67 -1.68582 5
      vertex 93.3066 0.0156918 5
    endloop
  endfacet
  facet normal 0 0 1
    outer loop
      vertex 101.67 -1.68582 5
      vertex 93.1761 -0.977856 5
      vertex 101.528 -2.67814 5
    endloop
  endfacet
  facet normal -0 0 1
    outer loop
      vertex 84.7962 0.57632 5
      vertex 93.3066 0.0156918 5
      vertex 84.915 1.57099 5
    endloop
  endfacet
  facet normal 0 0 1
    outer loop
      vertex 93.3066 0.0156918 5
      vertex 84.7962 0.57632 5
      vertex 93.1761 -0.977856 5
    endloop
  endfacet
  facet normal -0 0 1
    outer loop
      vertex 76.3905 1.98391 5
      vertex 84.915 1.57099 5
      vertex 76.4975 2.9796 5
    endloop
  endfacet
  facet normal 0 0 1
    outer loop
      vertex 84.915 1.57099 5
      vertex 76.3905 1.98391 5
      vertex 84.7962 0.57632 5
    endloop
  endfacet
  facet normal -0 0 1
    outer loop
      vertex 67.9615 3.24449 5
      vertex 76.4975 2.9796 5
      vertex 68.0566 4.24109 5
    endloop
  endfacet
  facet normal 0 0 1
    outer loop
      vertex 76.4975 2.9796 5
      vertex 67.9615 3.24449 5
      vertex 76.3905 1.98391 5
    endloop
  endfacet
  facet normal -0 0 1
    outer loop
      vertex 59.5117 4.35768 5
      vertex 68.0566 4.24109 5
      vertex 59.5951 5.35507 5
    endloop
  endfacet
  facet normal 0 0 1
    outer loop
      vertex 68.0566 4.24109 5
      vertex 59.5117 4.35768 5
      vertex 67.9615 3.24449 5
    endloop
  endfacet
  facet normal 0 0 1
    outer loop
      vertex 51.0438 5.32312 5
      vertex 59.5951 5.35507 5
      vertex 51.1154 6.32121 5
    endloop
  endfacet
  facet normal 0 0 1
    outer loop
      vertex 59.5951 5.35507 5
      vertex 51.0438 5.32312 5
      vertex 59.5117 4.35768 5
    endloop
  endfacet
  facet normal 0 0 1
    outer loop
      vertex 42.5603 6.14054 5
      vertex 51.1154 6.32121 5
      vertex 42.6202 7.13921 5
    endloop
  endfacet
  facet normal 0 0 1
    outer loop
      vertex 51.1154 6.32121 5
      vertex 42.5603 6.14054 5
      vertex 51.0438 5.32312 5
    endloop
  endfacet
  facet normal 0 0 1
    outer loop
      vertex 34.0638 6.80967 5
      vertex 42.6202 7.13921 5
      vertex 34.1119 7.80882 5
    endloop
  endfacet
  facet normal 0 0 1
    outer loop
      vertex 42.6202 7.13921 5
      vertex 34.0638 6.80967 5
      vertex 42.5603 6.14054 5
    endloop
  endfacet
  facet normal 0 0 1
    outer loop
      vertex 25.557 7.33032 5
      vertex 34.1119 7.80882 5
      vertex 25.5933 8.32984 5
    endloop
  endfacet
  facet normal 0 0 1
    outer loop
      vertex 34.1119 7.80882 5
      vertex 25.557 7.33032 5
      vertex 34.0638 6.80967 5
    endloop
  endfacet
  facet normal 0 0 1
    outer loop
      vertex 17.0423 7.70233 5
      vertex 25.5933 8.32984 5
      vertex 17.0669 8.70211 5
    endloop
  endfacet
  facet normal 0 0 1
    outer loop
      vertex 25.5933 8.32984 5
      vertex 17.0423 7.70233 5
      vertex 25.557 7.33032 5
    endloop
  endfacet
  facet normal 0 0 1
    outer loop
      vertex 8.52245 7.92558 5
      vertex 17.0669 8.70211 5
      vertex 8.53523 8.92552 5
    endloop
  endfacet
  facet normal 0 0 1
    outer loop
      vertex 17.0669 8.70211 5
      vertex 8.52245 7.92558 5
      vertex 17.0423 7.70233 5
    endloop
  endfacet
  facet normal 0 0 1
    outer loop
      vertex 0.000999451 9 5
      vertex 8.52245 7.92558 5
      vertex 8.53523 8.92552 5
    endloop
  endfacet
  facet normal 0 0 1
    outer loop
      vertex 8.52245 7.92558 5
      vertex 0.000999451 9 5
      vertex 0.000999451 7.99999 5
    endloop
  endfacet
  facet normal 0 0 1
    outer loop
      vertex 114.262 -22.039 5
      vertex 121.905 -25.0489 5
      vertex 122.163 -24.0839 5
    endloop
  endfacet
  facet normal 0 0 1
    outer loop
      vertex 114.262 -22.039 5
      vertex 113.946 -22.9907 5
      vertex 121.905 -25.0489 5
    endloop
  endfacet
  facet normal 0 0 1
    outer loop
      vertex 106.246 -20.1134 5
      vertex 113.946 -22.9907 5
      vertex 114.262 -22.039 5
    endloop
  endfacet
  facet normal 0 0 1
    outer loop
      vertex 106.246 -20.1134 5
      vertex 105.953 -21.0717 5
      vertex 113.946 -22.9907 5
    endloop
  endfacet
  facet normal 0 0 1
    outer loop
      vertex 98.1988 -18.328 5
      vertex 105.953 -21.0717 5
      vertex 106.246 -20.1134 5
    endloop
  endfacet
  facet normal 0 0 1
    outer loop
      vertex 98.1988 -18.328 5
      vertex 97.9274 -19.2925 5
      vertex 105.953 -21.0717 5
    endloop
  endfacet
  facet normal 0 0 1
    outer loop
      vertex 90.1211 -16.6835 5
      vertex 97.9274 -19.2925 5
      vertex 98.1988 -18.328 5
    endloop
  endfacet
  facet normal 0 0 1
    outer loop
      vertex 90.1211 -16.6835 5
      vertex 89.872 -17.6536 5
      vertex 97.9274 -19.2925 5
    endloop
  endfacet
  facet normal 0 0 1
    outer loop
      vertex 82.016 -15.1803 5
      vertex 89.872 -17.6536 5
      vertex 90.1211 -16.6835 5
    endloop
  endfacet
  facet normal 0 0 1
    outer loop
      vertex 82.016 -15.1803 5
      vertex 81.7893 -16.1555 5
      vertex 89.872 -17.6536 5
    endloop
  endfacet
  facet normal 0 0 1
    outer loop
      vertex 73.8859 -13.8188 5
      vertex 81.7893 -16.1555 5
      vertex 82.016 -15.1803 5
    endloop
  endfacet
  facet normal 0 0 1
    outer loop
      vertex 73.8859 -13.8188 5
      vertex 73.6816 -14.7988 5
      vertex 81.7893 -16.1555 5
    endloop
  endfacet
  facet normal 0 0 1
    outer loop
      vertex 65.7332 -12.5996 5
      vertex 73.6816 -14.7988 5
      vertex 73.8859 -13.8188 5
    endloop
  endfacet
  facet normal 0 0 1
    outer loop
      vertex 65.7332 -12.5996 5
      vertex 65.5515 -13.5837 5
      vertex 73.6816 -14.7988 5
    endloop
  endfacet
  facet normal 0 0 1
    outer loop
      vertex 57.5605 -11.5229 5
      vertex 65.5515 -13.5837 5
      vertex 65.7332 -12.5996 5
    endloop
  endfacet
  facet normal 0 0 1
    outer loop
      vertex 57.5605 -11.5229 5
      vertex 57.4015 -12.5108 5
      vertex 65.5515 -13.5837 5
    endloop
  endfacet
  facet normal 0 0 1
    outer loop
      vertex 49.3702 -10.5891 5
      vertex 57.4015 -12.5108 5
      vertex 57.5605 -11.5229 5
    endloop
  endfacet
  facet normal 0 0 1
    outer loop
      vertex 49.3702 -10.5891 5
      vertex 49.2339 -11.5802 5
      vertex 57.4015 -12.5108 5
    endloop
  endfacet
  facet normal 0 0 1
    outer loop
      vertex 41.1649 -9.7985 5
      vertex 49.2339 -11.5802 5
      vertex 49.3702 -10.5891 5
    endloop
  endfacet
  facet normal 0 0 1
    outer loop
      vertex 41.1649 -9.7985 5
      vertex 41.0514 -10.7923 5
      vertex 49.2339 -11.5802 5
    endloop
  endfacet
  facet normal 0 0 1
    outer loop
      vertex 32.947 -9.1513 5
      vertex 41.0514 -10.7923 5
      vertex 41.1649 -9.7985 5
    endloop
  endfacet
  facet normal 0 0 1
    outer loop
      vertex 32.947 -9.1513 5
      vertex 32.8563 -10.1473 5
      vertex 41.0514 -10.7923 5
    endloop
  endfacet
  facet normal 0 0 1
    outer loop
      vertex 24.719 -8.64772 5
      vertex 32.8563 -10.1473 5
      vertex 32.947 -9.1513 5
    endloop
  endfacet
  facet normal 0 0 1
    outer loop
      vertex 24.719 -8.64772 5
      vertex 24.6512 -9.64549 5
      vertex 32.8563 -10.1473 5
    endloop
  endfacet
  facet normal 0 0 1
    outer loop
      vertex 16.4835 -8.28791 5
      vertex 24.6512 -9.64549 5
      vertex 24.719 -8.64772 5
    endloop
  endfacet
  facet normal 0 0 1
    outer loop
      vertex 16.4835 -8.28791 5
      vertex 16.4387 -9.28692 5
      vertex 24.6512 -9.64549 5
    endloop
  endfacet
  facet normal 0 0 1
    outer loop
      vertex 8.24303 -8.07198 5
      vertex 16.4387 -9.28692 5
      vertex 16.4835 -8.28791 5
    endloop
  endfacet
  facet normal 0 0 1
    outer loop
      vertex 8.24303 -8.07198 5
      vertex 8.22108 -9.07174 5
      vertex 16.4387 -9.28692 5
    endloop
  endfacet
  facet normal 0 0 1
    outer loop
      vertex 0.000999451 -8.00001 5
      vertex 8.22108 -9.07174 5
      vertex 8.24303 -8.07198 5
    endloop
  endfacet
  facet normal 0 0 1
    outer loop
      vertex 8.22108 -9.07174 5
      vertex 0.000999451 -8.00001 5
      vertex 0.000999451 -9 5
    endloop
  endfacet
  facet normal 0.00714818 0.819211 0.573448
    outer loop
      vertex 8.59631 12.425 0
      vertex 0.000999451 12.5 0
      vertex 0.000999451 9 5
    endloop
  endfacet
  facet normal 0.00714942 0.81921 0.573449
    outer loop
      vertex 8.53523 8.92552 5
      vertex 8.59631 12.425 0
      vertex 0.000999451 9 5
    endloop
  endfacet
  facet normal -0.0214447 -0.818962 0.573447
    outer loop
      vertex 16.4387 -9.28692 5
      vertex 8.22108 -9.07174 5
      vertex 8.16 -12.5712 0
    endloop
  endfacet
  facet normal -0.0214467 -0.81896 0.573449
    outer loop
      vertex 16.3165 -12.7848 0
      vertex 16.4387 -9.28692 5
      vertex 8.16 -12.5712 0
    endloop
  endfacet
  facet normal 0.0214445 0.81896 0.573449
    outer loop
      vertex 17.189 12.2 0
      vertex 8.59631 12.425 0
      vertex 8.53523 8.92552 5
    endloop
  endfacet
  facet normal 0.0214453 0.81896 0.57345
    outer loop
      vertex 17.0669 8.70211 5
      vertex 17.189 12.2 0
      vertex 8.53523 8.92552 5
    endloop
  endfacet
  facet normal -0.0357352 -0.818461 0.573449
    outer loop
      vertex 24.6512 -9.64549 5
      vertex 16.4387 -9.28692 5
      vertex 16.3165 -12.7848 0
    endloop
  endfacet
  facet normal -0.0357342 -0.818462 0.573448
    outer loop
      vertex 24.4681 -13.1407 0
      vertex 24.6512 -9.64549 5
      vertex 16.3165 -12.7848 0
    endloop
  endfacet
  facet normal 0.0357406 0.818461 0.57345
    outer loop
      vertex 25.7765 11.825 0
      vertex 17.189 12.2 0
      vertex 17.0669 8.70211 5
    endloop
  endfacet
  facet normal 0.0357349 0.818466 0.573443
    outer loop
      vertex 25.5933 8.32984 5
      vertex 25.7765 11.825 0
      vertex 17.0669 8.70211 5
    endloop
  endfacet
  facet normal -0.05001 -0.817714 0.573448
    outer loop
      vertex 32.8563 -10.1473 5
      vertex 24.6512 -9.64549 5
      vertex 24.4681 -13.1407 0
    endloop
  endfacet
  facet normal -0.050012 -0.817712 0.57345
    outer loop
      vertex 32.6122 -13.6388 0
      vertex 32.8563 -10.1473 5
      vertex 24.4681 -13.1407 0
    endloop
  endfacet
  facet normal 0.0500089 0.817718 0.573443
    outer loop
      vertex 34.3561 11.3003 0
      vertex 25.7765 11.825 0
      vertex 25.5933 8.32984 5
    endloop
  endfacet
  facet normal 0.0500135 0.817713 0.573449
    outer loop
      vertex 34.1119 7.80882 5
      vertex 34.3561 11.3003 0
      vertex 25.5933 8.32984 5
    endloop
  endfacet
  facet normal -0.06428 -0.816715 0.57345
    outer loop
      vertex 41.0514 -10.7923 5
      vertex 32.8563 -10.1473 5
      vertex 32.6122 -13.6388 0
    endloop
  endfacet
  facet normal -0.0642801 -0.816715 0.57345
    outer loop
      vertex 40.7463 -14.279 0
      vertex 41.0514 -10.7923 5
      vertex 32.6122 -13.6388 0
    endloop
  endfacet
  facet normal 0.0642767 0.816716 0.573449
    outer loop
      vertex 42.9252 10.6259 0
      vertex 34.3561 11.3003 0
      vertex 34.1119 7.80882 5
    endloop
  endfacet
  facet normal 0.0642762 0.816716 0.573448
    outer loop
      vertex 42.6202 7.13921 5
      vertex 42.9252 10.6259 0
      vertex 34.1119 7.80882 5
    endloop
  endfacet
  facet normal -0.0785222 -0.815469 0.57345
    outer loop
      vertex 49.2339 -11.5802 5
      vertex 41.0514 -10.7923 5
      vertex 40.7463 -14.279 0
    endloop
  endfacet
  facet normal -0.0785171 -0.815473 0.573444
    outer loop
      vertex 48.8681 -15.061 0
      vertex 49.2339 -11.5802 5
      vertex 40.7463 -14.279 0
    endloop
  endfacet
  facet normal 0.0785219 0.81547 0.573448
    outer loop
      vertex 51.4813 9.80203 0
      vertex 42.9252 10.6259 0
      vertex 42.6202 7.13921 5
    endloop
  endfacet
  facet normal 0.0785214 0.815471 0.573447
    outer loop
      vertex 51.1154 6.32121 5
      vertex 51.4813 9.80203 0
      vertex 42.6202 7.13921 5
    endloop
  endfacet
  facet normal -0.092743 -0.813978 0.573444
    outer loop
      vertex 57.4015 -12.5108 5
      vertex 49.2339 -11.5802 5
      vertex 48.8681 -15.061 0
    endloop
  endfacet
  facet normal -0.0927455 -0.813976 0.573447
    outer loop
      vertex 56.9749 -15.9847 0
      vertex 57.4015 -12.5108 5
      vertex 48.8681 -15.061 0
    endloop
  endfacet
  facet normal 0.0927403 0.813976 0.573448
    outer loop
      vertex 60.0217 8.82898 0
      vertex 51.4813 9.80203 0
      vertex 51.1154 6.32121 5
    endloop
  endfacet
  facet normal 0.0927408 0.813976 0.573448
    outer loop
      vertex 59.5951 5.35507 5
      vertex 60.0217 8.82898 0
      vertex 51.1154 6.32121 5
    endloop
  endfacet
  facet normal -0.106926 -0.812235 0.573447
    outer loop
      vertex 65.5515 -13.5837 5
      vertex 57.4015 -12.5108 5
      vertex 56.9749 -15.9847 0
    endloop
  endfacet
  facet normal -0.106932 -0.812229 0.573454
    outer loop
      vertex 65.0644 -17.0497 0
      vertex 65.5515 -13.5837 5
      vertex 56.9749 -15.9847 0
    endloop
  endfacet
  facet normal 0.106933 0.812233 0.573448
    outer loop
      vertex 68.5438 7.70702 0
      vertex 60.0217 8.82898 0
      vertex 59.5951 5.35507 5
    endloop
  endfacet
  facet normal 0.106933 0.812233 0.573448
    outer loop
      vertex 68.0566 4.24109 5
      vertex 68.5438 7.70702 0
      vertex 59.5951 5.35507 5
    endloop
  endfacet
  facet normal -0.121096 -0.810238 0.573454
    outer loop
      vertex 73.6816 -14.7988 5
      vertex 65.5515 -13.5837 5
      vertex 65.0644 -17.0497 0
    endloop
  endfacet
  facet normal -0.121089 -0.810245 0.573446
    outer loop
      vertex 73.1341 -18.2557 0
      vertex 73.6816 -14.7988 5
      vertex 65.0644 -17.0497 0
    endloop
  endfacet
  facet normal 0.121091 0.810243 0.573448
    outer loop
      vertex 77.045 6.43651 0
      vertex 68.5438 7.70702 0
      vertex 68.0566 4.24109 5
    endloop
  endfacet
  facet normal 0.121091 0.810244 0.573447
    outer loop
      vertex 76.4975 2.9796 5
      vertex 77.045 6.43651 0
      vertex 68.0566 4.24109 5
    endloop
  endfacet
  facet normal -0.135208 -0.808009 0.573446
    outer loop
      vertex 81.7893 -16.1555 5
      vertex 73.6816 -14.7988 5
      vertex 73.1341 -18.2557 0
    endloop
  endfacet
  facet normal -0.135216 -0.808 0.573456
    outer loop
      vertex 81.1815 -19.6024 0
      vertex 81.7893 -16.1555 5
      vertex 73.1341 -18.2557 0
    endloop
  endfacet
  facet normal 0.135215 0.808007 0.573447
    outer loop
      vertex 85.5227 5.01782 0
      vertex 77.045 6.43651 0
      vertex 76.4975 2.9796 5
    endloop
  endfacet
  facet normal 0.135214 0.808007 0.573447
    outer loop
      vertex 84.915 1.57099 5
      vertex 85.5227 5.01782 0
      vertex 76.4975 2.9796 5
    endloop
  endfacet
  facet normal -0.1493 -0.805517 0.573456
    outer loop
      vertex 89.872 -17.6536 5
      vertex 81.7893 -16.1555 5
      vertex 81.1815 -19.6024 0
    endloop
  endfacet
  facet normal -0.149293 -0.805524 0.573448
    outer loop
      vertex 89.2042 -21.0893 0
      vertex 89.872 -17.6536 5
      vertex 81.1815 -19.6024 0
    endloop
  endfacet
  facet normal 0.149295 0.805525 0.573447
    outer loop
      vertex 93.9744 3.45139 0
      vertex 85.5227 5.01782 0
      vertex 84.915 1.57099 5
    endloop
  endfacet
  facet normal 0.149296 0.805524 0.573447
    outer loop
      vertex 93.3066 0.0156918 5
      vertex 93.9744 3.45139 0
      vertex 84.915 1.57099 5
    endloop
  endfacet
  facet normal -0.163332 -0.802796 0.573448
    outer loop
      vertex 97.9274 -19.2925 5
      vertex 89.872 -17.6536 5
      vertex 89.2042 -21.0893 0
    endloop
  endfacet
  facet normal -0.163331 -0.802797 0.573446
    outer loop
      vertex 97.1997 -22.716 0
      vertex 97.9274 -19.2925 5
      vertex 89.2042 -21.0893 0
    endloop
  endfacet
  facet normal 0.163321 0.802798 0.573447
    outer loop
      vertex 102.398 1.73769 0
      vertex 93.9744 3.45139 0
      vertex 93.3066 0.0156918 5
    endloop
  endfacet
  facet normal 0.163326 0.802792 0.573454
    outer loop
      vertex 101.67 -1.68582 5
      vertex 102.398 1.73769 0
      vertex 93.3066 0.0156918 5
    endloop
  endfacet
  facet normal -0.177314 -0.799825 0.573446
    outer loop
      vertex 105.953 -21.0717 5
      vertex 97.9274 -19.2925 5
      vertex 97.1997 -22.716 0
    endloop
  endfacet
  facet normal -0.177309 -0.79983 0.57344
    outer loop
      vertex 105.166 -24.482 0
      vertex 105.953 -21.0717 5
      vertex 97.1997 -22.716 0
    endloop
  endfacet
  facet normal 0.177333 0.799814 0.573454
    outer loop
      vertex 110.789 -0.122743 0
      vertex 102.398 1.73769 0
      vertex 101.67 -1.68582 5
    endloop
  endfacet
  facet normal 0.177323 0.799827 0.57344
    outer loop
      vertex 110.002 -3.53304 5
      vertex 110.789 -0.122743 0
      vertex 101.67 -1.68582 5
    endloop
  endfacet
  facet normal -0.191254 -0.796611 0.57344
    outer loop
      vertex 113.946 -22.9907 5
      vertex 105.953 -21.0717 5
      vertex 105.166 -24.482 0
    endloop
  endfacet
  facet normal -0.191262 -0.796601 0.573451
    outer loop
      vertex 113.099 -26.3867 0
      vertex 113.946 -22.9907 5
      vertex 105.166 -24.482 0
    endloop
  endfacet
  facet normal 0.191231 0.796617 0.57344
    outer loop
      vertex 119.148 -2.12935 0
      vertex 110.789 -0.122743 0
      vertex 110.002 -3.53304 5
    endloop
  endfacet
  facet normal 0.191241 0.796603 0.573455
    outer loop
      vertex 118.301 -5.52539 5
      vertex 119.148 -2.12935 0
      vertex 110.002 -3.53304 5
    endloop
  endfacet
  facet normal -0.205108 -0.793148 0.573452
    outer loop
      vertex 121.905 -25.0489 5
      vertex 113.946 -22.9907 5
      vertex 113.099 -26.3867 0
    endloop
  endfacet
  facet normal -0.205113 -0.793143 0.573458
    outer loop
      vertex 120.999 -28.4297 0
      vertex 121.905 -25.0489 5
      vertex 113.099 -26.3867 0
    endloop
  endfacet
  facet normal 0.20514 0.793137 0.573456
    outer loop
      vertex 127.469 -4.28153 0
      vertex 119.148 -2.12935 0
      vertex 118.301 -5.52539 5
    endloop
  endfacet
  facet normal 0.205119 0.793165 0.573424
    outer loop
      vertex 126.564 -7.66227 5
      vertex 127.469 -4.28153 0
      vertex 118.301 -5.52539 5
    endloop
  endfacet
  facet normal 0 -1 0
    outer loop
      vertex 0.000999451 8.4 0
      vertex 7 8.4 2.5
      vertex 0.000999451 8.4 2.5
    endloop
  endfacet
  facet normal 0 -1 -0
    outer loop
      vertex 7 8.4 2.5
      vertex 0.000999451 8.4 0
      vertex 7 8.4 0
    endloop
  endfacet
  facet normal 0 1 -0
    outer loop
      vertex 7 1.2 0
      vertex 0.000999451 1.2 2.5
      vertex 7 1.2 2.5
    endloop
  endfacet
  facet normal 0 1 0
    outer loop
      vertex 0.000999451 1.2 2.5
      vertex 7 1.2 0
      vertex 0.000999451 1.2 0
    endloop
  endfacet
  facet normal 0 -0.447214 -0.894427
    outer loop
      vertex 0.000999451 6.4 3.5
      vertex 7 8.4 2.5
      vertex 7 6.4 3.5
    endloop
  endfacet
  facet normal -0 -0.447214 -0.894427
    outer loop
      vertex 7 8.4 2.5
      vertex 0.000999451 6.4 3.5
      vertex 0.000999451 8.4 2.5
    endloop
  endfacet
  facet normal 0 0.413803 -0.910366
    outer loop
      vertex 0.000999451 1.2 2.5
      vertex 7 3.4 3.5
      vertex 7 1.2 2.5
    endloop
  endfacet
  facet normal 0 0.413803 -0.910366
    outer loop
      vertex 7 3.4 3.5
      vertex 0.000999451 1.2 2.5
      vertex 0.000999451 3.4 3.5
    endloop
  endfacet
  facet normal -1 0 0
    outer loop
      vertex 7 8.4 0
      vertex 7 6.4 3.5
      vertex 7 8.4 2.5
    endloop
  endfacet
  facet normal -1 0 0
    outer loop
      vertex 7 8.4 0
      vertex 7 3.4 3.5
      vertex 7 6.4 3.5
    endloop
  endfacet
  facet normal -1 0 0
    outer loop
      vertex 7 1.2 0
      vertex 7 3.4 3.5
      vertex 7 8.4 0
    endloop
  endfacet
  facet normal -1 0 0
    outer loop
      vertex 7 3.4 3.5
      vertex 7 1.2 0
      vertex 7 1.2 2.5
    endloop
  endfacet
  facet normal 0 0 1
    outer loop
      vertex 125.761 -10.6562 3.5
      vertex 125.037 -13.3608 3.5
      vertex 125.117 -13.3823 3.5
    endloop
  endfacet
  facet normal 0 0 1
    outer loop
      vertex 118.135 -6.51492 3.5
      vertex 125.761 -10.6562 3.5
      vertex 126.304 -8.62915 3.5
    endloop
  endfacet
  facet normal 0 0 1
    outer loop
      vertex 125.761 -10.6562 3.5
      vertex 118.135 -6.51492 3.5
      vertex 125.037 -13.3608 3.5
    endloop
  endfacet
  facet normal 0 0 1
    outer loop
      vertex 125.037 -13.3608 3.5
      vertex 118.135 -6.51492 3.5
      vertex 124.894 -13.8925 3.5
    endloop
  endfacet
  facet normal 0 0 1
    outer loop
      vertex 116.688 -17.8539 3.5
      vertex 124.894 -13.8925 3.5
      vertex 118.135 -6.51492 3.5
    endloop
  endfacet
  facet normal 0 0 1
    outer loop
      vertex 124.894 -13.8925 3.5
      vertex 116.688 -17.8539 3.5
      vertex 123.354 -19.64 3.5
    endloop
  endfacet
  facet normal 0 0 1
    outer loop
      vertex 109.848 -4.52402 3.5
      vertex 116.688 -17.8539 3.5
      vertex 118.135 -6.51492 3.5
    endloop
  endfacet
  facet normal 0 0 1
    outer loop
      vertex 106.246 -20.1134 3.5
      vertex 116.688 -17.8539 3.5
      vertex 109.848 -4.52402 3.5
    endloop
  endfacet
  facet normal 0 -0 1
    outer loop
      vertex 114.262 -22.039 3.5
      vertex 116.688 -17.8539 3.5
      vertex 106.246 -20.1134 3.5
    endloop
  endfacet
  facet normal 0 0 1
    outer loop
      vertex 116.688 -17.8539 3.5
      vertex 114.262 -22.039 3.5
      vertex 115.912 -20.7517 3.5
    endloop
  endfacet
  facet normal 0 0 1
    outer loop
      vertex 101.528 -2.67814 3.5
      vertex 106.246 -20.1134 3.5
      vertex 109.848 -4.52402 3.5
    endloop
  endfacet
  facet normal 0 0 1
    outer loop
      vertex 101.528 -2.67814 3.5
      vertex 98.1988 -18.328 3.5
      vertex 106.246 -20.1134 3.5
    endloop
  endfacet
  facet normal 0 0 1
    outer loop
      vertex 93.1761 -0.977856 3.5
      vertex 98.1988 -18.328 3.5
      vertex 101.528 -2.67814 3.5
    endloop
  endfacet
  facet normal 0 0 1
    outer loop
      vertex 93.1761 -0.977856 3.5
      vertex 90.1211 -16.6835 3.5
      vertex 98.1988 -18.328 3.5
    endloop
  endfacet
  facet normal 0 0 1
    outer loop
      vertex 84.7962 0.57632 3.5
      vertex 90.1211 -16.6835 3.5
      vertex 93.1761 -0.977856 3.5
    endloop
  endfacet
  facet normal 0 0 1
    outer loop
      vertex 84.7962 0.57632 3.5
      vertex 82.016 -15.1803 3.5
      vertex 90.1211 -16.6835 3.5
    endloop
  endfacet
  facet normal 0 0 1
    outer loop
      vertex 76.3905 1.98391 3.5
      vertex 82.016 -15.1803 3.5
      vertex 84.7962 0.57632 3.5
    endloop
  endfacet
  facet normal 0 0 1
    outer loop
      vertex 76.3905 1.98391 3.5
      vertex 73.8859 -13.8188 3.5
      vertex 82.016 -15.1803 3.5
    endloop
  endfacet
  facet normal 0 0 1
    outer loop
      vertex 67.9615 3.24449 3.5
      vertex 73.8859 -13.8188 3.5
      vertex 76.3905 1.98391 3.5
    endloop
  endfacet
  facet normal 0 0 1
    outer loop
      vertex 67.9615 3.24449 3.5
      vertex 65.7332 -12.5996 3.5
      vertex 73.8859 -13.8188 3.5
    endloop
  endfacet
  facet normal 0 0 1
    outer loop
      vertex 59.5117 4.35768 3.5
      vertex 65.7332 -12.5996 3.5
      vertex 67.9615 3.24449 3.5
    endloop
  endfacet
  facet normal 0 0 1
    outer loop
      vertex 59.5117 4.35768 3.5
      vertex 57.5605 -11.5229 3.5
      vertex 65.7332 -12.5996 3.5
    endloop
  endfacet
  facet normal 0 0 1
    outer loop
      vertex 51.0438 5.32312 3.5
      vertex 57.5605 -11.5229 3.5
      vertex 59.5117 4.35768 3.5
    endloop
  endfacet
  facet normal 0 0 1
    outer loop
      vertex 51.0438 5.32312 3.5
      vertex 49.3702 -10.5891 3.5
      vertex 57.5605 -11.5229 3.5
    endloop
  endfacet
  facet normal 0 0 1
    outer loop
      vertex 42.5603 6.14054 3.5
      vertex 49.3702 -10.5891 3.5
      vertex 51.0438 5.32312 3.5
    endloop
  endfacet
  facet normal 0 0 1
    outer loop
      vertex 42.5603 6.14054 3.5
      vertex 41.1649 -9.7985 3.5
      vertex 49.3702 -10.5891 3.5
    endloop
  endfacet
  facet normal 0 0 1
    outer loop
      vertex 34.0638 6.80967 3.5
      vertex 41.1649 -9.7985 3.5
      vertex 42.5603 6.14054 3.5
    endloop
  endfacet
  facet normal 0 0 1
    outer loop
      vertex 34.0638 6.80967 3.5
      vertex 32.947 -9.1513 3.5
      vertex 41.1649 -9.7985 3.5
    endloop
  endfacet
  facet normal 0 0 1
    outer loop
      vertex 25.557 7.33032 3.5
      vertex 32.947 -9.1513 3.5
      vertex 34.0638 6.80967 3.5
    endloop
  endfacet
  facet normal 0 0 1
    outer loop
      vertex 25.557 7.33032 3.5
      vertex 24.719 -8.64772 3.5
      vertex 32.947 -9.1513 3.5
    endloop
  endfacet
  facet normal 0 0 1
    outer loop
      vertex 17.0423 7.70233 3.5
      vertex 24.719 -8.64772 3.5
      vertex 25.557 7.33032 3.5
    endloop
  endfacet
  facet normal 0 0 1
    outer loop
      vertex 17.0423 7.70233 3.5
      vertex 16.4835 -8.28791 3.5
      vertex 24.719 -8.64772 3.5
    endloop
  endfacet
  facet normal 0 0 1
    outer loop
      vertex 7 3.4 3.5
      vertex 17.0423 7.70233 3.5
      vertex 8.52245 7.92558 3.5
    endloop
  endfacet
  facet normal 0 0 1
    outer loop
      vertex 17.0423 7.70233 3.5
      vertex 7 3.4 3.5
      vertex 16.4835 -8.28791 3.5
    endloop
  endfacet
  facet normal 0 0 1
    outer loop
      vertex 7 3.4 3.5
      vertex 8.52245 7.92558 3.5
      vertex 7 6.4 3.5
    endloop
  endfacet
  facet normal 0 0 1
    outer loop
      vertex 0.000999451 7.99999 3.5
      vertex 7 6.4 3.5
      vertex 8.52245 7.92558 3.5
    endloop
  endfacet
  facet normal 0 0 1
    outer loop
      vertex 7 6.4 3.5
      vertex 0.000999451 7.99999 3.5
      vertex 0.000999451 6.4 3.5
    endloop
  endfacet
  facet normal 0 0 1
    outer loop
      vertex 125.842 -10.6779 3.5
      vertex 125.761 -10.6562 3.5
      vertex 125.117 -13.3823 3.5
    endloop
  endfacet
  facet normal 0 0 1
    outer loop
      vertex 115.912 -20.7517 3.5
      vertex 122.163 -24.0839 3.5
      vertex 122.578 -22.5378 3.5
    endloop
  endfacet
  facet normal 0 0 1
    outer loop
      vertex 122.163 -24.0839 3.5
      vertex 115.912 -20.7517 3.5
      vertex 114.262 -22.039 3.5
    endloop
  endfacet
  facet normal 0 0 1
    outer loop
      vertex 16.4835 -8.28791 3.5
      vertex 7 3.4 3.5
      vertex 8.24303 -8.07198 3.5
    endloop
  endfacet
  facet normal 0 0 1
    outer loop
      vertex 0.000999451 -8.00001 3.5
      vertex 7 3.4 3.5
      vertex 0.000999451 3.4 3.5
    endloop
  endfacet
  facet normal 0 0 1
    outer loop
      vertex 7 3.4 3.5
      vertex 0.000999451 -8.00001 3.5
      vertex 8.24303 -8.07198 3.5
    endloop
  endfacet
  facet normal -0 0 1
    outer loop
      vertex 0 -3.101 3.5
      vertex 5.49316e-07 -5.901 3.5
      vertex 5.49316e-07 -3.101 3.5
    endloop
  endfacet
  facet normal 0 0 1
    outer loop
      vertex 5.49316e-07 -5.901 3.5
      vertex 0 -3.101 3.5
      vertex 0 -5.901 3.5
    endloop
  endfacet
  facet normal 1 -0 0
    outer loop
      vertex 0 -5.901 4.6
      vertex 0 -3.101 3.5
      vertex 0 -3.101 4.6
    endloop
  endfacet
  facet normal 1 0 0
    outer loop
      vertex 0 -3.101 3.5
      vertex 0 -5.901 4.6
      vertex 0 -5.901 3.5
    endloop
  endfacet
  facet normal -0.965894 0.258938 0
    outer loop
      vertex 125.842 -10.6779 3.5
      vertex 125.117 -13.3823 3.5
      vertex 125.842 -10.6779 4.6
    endloop
  endfacet
  facet normal -0.965859 0.259068 0
    outer loop
      vertex 125.842 -10.6779 4.6
      vertex 125.92 -10.3871 5.2
      vertex 125.92 -10.3871 4.6
    endloop
  endfacet
  facet normal -0.965894 0.258938 0
    outer loop
      vertex 125.117 -13.3823 4.6
      vertex 125.842 -10.6779 4.6
      vertex 125.117 -13.3823 3.5
    endloop
  endfacet
  facet normal -0.965894 0.258938 6.73835e-05
    outer loop
      vertex 125.842 -10.6779 4.6
      vertex 125.117 -13.3823 4.6
      vertex 125.92 -10.3871 5.2
    endloop
  endfacet
  facet normal -0.966246 0.257621 0
    outer loop
      vertex 125.04 -13.6711 5.2
      vertex 125.117 -13.3823 4.6
      vertex 125.04 -13.6711 4.6
    endloop
  endfacet
  facet normal -0.965922 0.258834 0.000625516
    outer loop
      vertex 125.117 -13.3823 4.6
      vertex 125.04 -13.6711 5.2
      vertex 125.92 -10.3871 5.2
    endloop
  endfacet
  facet normal 0.00873174 0.999962 -0
    outer loop
      vertex 8.24303 -8.07198 3.5
      vertex 0.000999451 -8.00001 5
      vertex 8.24303 -8.07198 5
    endloop
  endfacet
  facet normal 0.00873174 0.999962 0
    outer loop
      vertex 0.000999451 -8.00001 5
      vertex 8.24303 -8.07198 3.5
      vertex 0.000999451 -8.00001 3.5
    endloop
  endfacet
  facet normal -0.00873175 -0.999962 0
    outer loop
      vertex 0.000999451 7.99999 3.5
      vertex 8.52245 7.92558 5
      vertex 0.000999451 7.99999 5
    endloop
  endfacet
  facet normal -0.00873175 -0.999962 -0
    outer loop
      vertex 8.52245 7.92558 5
      vertex 0.000999451 7.99999 3.5
      vertex 8.52245 7.92558 3.5
    endloop
  endfacet
  facet normal 0.0261946 0.999657 -0
    outer loop
      vertex 16.4835 -8.28791 3.5
      vertex 8.24303 -8.07198 5
      vertex 16.4835 -8.28791 5
    endloop
  endfacet
  facet normal 0.0261946 0.999657 0
    outer loop
      vertex 8.24303 -8.07198 5
      vertex 16.4835 -8.28791 3.5
      vertex 8.24303 -8.07198 3.5
    endloop
  endfacet
  facet normal -0.0261945 -0.999657 0
    outer loop
      vertex 8.52245 7.92558 3.5
      vertex 17.0423 7.70233 5
      vertex 8.52245 7.92558 5
    endloop
  endfacet
  facet normal -0.0261945 -0.999657 -0
    outer loop
      vertex 17.0423 7.70233 5
      vertex 8.52245 7.92558 3.5
      vertex 17.0423 7.70233 3.5
    endloop
  endfacet
  facet normal 0.0436485 0.999047 -0
    outer loop
      vertex 24.719 -8.64772 3.5
      vertex 16.4835 -8.28791 5
      vertex 24.719 -8.64772 5
    endloop
  endfacet
  facet normal 0.0436485 0.999047 0
    outer loop
      vertex 16.4835 -8.28791 5
      vertex 24.719 -8.64772 3.5
      vertex 16.4835 -8.28791 3.5
    endloop
  endfacet
  facet normal -0.0436487 -0.999047 0
    outer loop
      vertex 17.0423 7.70233 3.5
      vertex 25.557 7.33032 5
      vertex 17.0423 7.70233 5
    endloop
  endfacet
  facet normal -0.0436487 -0.999047 -0
    outer loop
      vertex 25.557 7.33032 5
      vertex 17.0423 7.70233 3.5
      vertex 25.557 7.33032 3.5
    endloop
  endfacet
  facet normal 0.0610889 0.998132 -0
    outer loop
      vertex 32.947 -9.1513 3.5
      vertex 24.719 -8.64772 5
      vertex 32.947 -9.1513 5
    endloop
  endfacet
  facet normal 0.0610889 0.998132 0
    outer loop
      vertex 24.719 -8.64772 5
      vertex 32.947 -9.1513 3.5
      vertex 24.719 -8.64772 3.5
    endloop
  endfacet
  facet normal -0.0610897 -0.998132 0
    outer loop
      vertex 25.557 7.33032 3.5
      vertex 34.0638 6.80967 5
      vertex 25.557 7.33032 5
    endloop
  endfacet
  facet normal -0.0610897 -0.998132 -0
    outer loop
      vertex 34.0638 6.80967 5
      vertex 25.557 7.33032 3.5
      vertex 34.0638 6.80967 3.5
    endloop
  endfacet
  facet normal 0.0785118 0.996913 -0
    outer loop
      vertex 41.1649 -9.7985 3.5
      vertex 32.947 -9.1513 5
      vertex 41.1649 -9.7985 5
    endloop
  endfacet
  facet normal 0.0785118 0.996913 0
    outer loop
      vertex 32.947 -9.1513 5
      vertex 41.1649 -9.7985 3.5
      vertex 32.947 -9.1513 3.5
    endloop
  endfacet
  facet normal -0.0785105 -0.996913 0
    outer loop
      vertex 34.0638 6.80967 3.5
      vertex 42.5603 6.14054 5
      vertex 34.0638 6.80967 5
    endloop
  endfacet
  facet normal -0.0785105 -0.996913 -0
    outer loop
      vertex 42.5603 6.14054 5
      vertex 34.0638 6.80967 3.5
      vertex 42.5603 6.14054 3.5
    endloop
  endfacet
  facet normal 0.0959082 0.99539 -0
    outer loop
      vertex 49.3702 -10.5891 3.5
      vertex 41.1649 -9.7985 5
      vertex 49.3702 -10.5891 5
    endloop
  endfacet
  facet normal 0.0959082 0.99539 0
    outer loop
      vertex 41.1649 -9.7985 5
      vertex 49.3702 -10.5891 3.5
      vertex 41.1649 -9.7985 3.5
    endloop
  endfacet
  facet normal -0.0959099 -0.99539 0
    outer loop
      vertex 42.5603 6.14054 3.5
      vertex 51.0438 5.32312 5
      vertex 42.5603 6.14054 5
    endloop
  endfacet
  facet normal -0.0959099 -0.99539 -0
    outer loop
      vertex 51.0438 5.32312 5
      vertex 42.5603 6.14054 3.5
      vertex 51.0438 5.32312 3.5
    endloop
  endfacet
  facet normal 0.113279 0.993563 -0
    outer loop
      vertex 57.5605 -11.5229 3.5
      vertex 49.3702 -10.5891 5
      vertex 57.5605 -11.5229 5
    endloop
  endfacet
  facet normal 0.113279 0.993563 0
    outer loop
      vertex 49.3702 -10.5891 5
      vertex 57.5605 -11.5229 3.5
      vertex 49.3702 -10.5891 3.5
    endloop
  endfacet
  facet normal -0.113278 -0.993563 0
    outer loop
      vertex 51.0438 5.32312 3.5
      vertex 59.5117 4.35768 5
      vertex 51.0438 5.32312 5
    endloop
  endfacet
  facet normal -0.113278 -0.993563 -0
    outer loop
      vertex 59.5117 4.35768 5
      vertex 51.0438 5.32312 3.5
      vertex 59.5117 4.35768 3.5
    endloop
  endfacet
  facet normal 0.130615 0.991433 -0
    outer loop
      vertex 65.7332 -12.5996 3.5
      vertex 57.5605 -11.5229 5
      vertex 65.7332 -12.5996 5
    endloop
  endfacet
  facet normal 0.130615 0.991433 0
    outer loop
      vertex 57.5605 -11.5229 5
      vertex 65.7332 -12.5996 3.5
      vertex 57.5605 -11.5229 3.5
    endloop
  endfacet
  facet normal -0.130613 -0.991433 0
    outer loop
      vertex 59.5117 4.35768 3.5
      vertex 67.9615 3.24449 5
      vertex 59.5117 4.35768 5
    endloop
  endfacet
  facet normal -0.130613 -0.991433 -0
    outer loop
      vertex 67.9615 3.24449 5
      vertex 59.5117 4.35768 3.5
      vertex 67.9615 3.24449 3.5
    endloop
  endfacet
  facet normal 0.147901 0.989002 -0
    outer loop
      vertex 73.8859 -13.8188 3.5
      vertex 65.7332 -12.5996 5
      vertex 73.8859 -13.8188 5
    endloop
  endfacet
  facet normal 0.147901 0.989002 0
    outer loop
      vertex 65.7332 -12.5996 5
      vertex 73.8859 -13.8188 3.5
      vertex 65.7332 -12.5996 3.5
    endloop
  endfacet
  facet normal -0.147908 -0.989001 0
    outer loop
      vertex 67.9615 3.24449 3.5
      vertex 76.3905 1.98391 5
      vertex 67.9615 3.24449 5
    endloop
  endfacet
  facet normal -0.147908 -0.989001 -0
    outer loop
      vertex 76.3905 1.98391 5
      vertex 67.9615 3.24449 3.5
      vertex 76.3905 1.98391 3.5
    endloop
  endfacet
  facet normal 0.165164 0.986266 -0
    outer loop
      vertex 82.016 -15.1803 3.5
      vertex 73.8859 -13.8188 5
      vertex 82.016 -15.1803 5
    endloop
  endfacet
  facet normal 0.165164 0.986266 0
    outer loop
      vertex 73.8859 -13.8188 5
      vertex 82.016 -15.1803 3.5
      vertex 73.8859 -13.8188 3.5
    endloop
  endfacet
  facet normal -0.165157 -0.986267 0
    outer loop
      vertex 76.3905 1.98391 3.5
      vertex 84.7962 0.57632 5
      vertex 76.3905 1.98391 5
    endloop
  endfacet
  facet normal -0.165157 -0.986267 -0
    outer loop
      vertex 84.7962 0.57632 5
      vertex 76.3905 1.98391 3.5
      vertex 84.7962 0.57632 3.5
    endloop
  endfacet
  facet normal 0.182354 0.983233 -0
    outer loop
      vertex 90.1211 -16.6835 3.5
      vertex 82.016 -15.1803 5
      vertex 90.1211 -16.6835 5
    endloop
  endfacet
  facet normal 0.182354 0.983233 0
    outer loop
      vertex 82.016 -15.1803 5
      vertex 90.1211 -16.6835 3.5
      vertex 82.016 -15.1803 3.5
    endloop
  endfacet
  facet normal -0.182355 -0.983233 0
    outer loop
      vertex 84.7962 0.57632 3.5
      vertex 93.1761 -0.977856 5
      vertex 84.7962 0.57632 5
    endloop
  endfacet
  facet normal -0.182355 -0.983233 -0
    outer loop
      vertex 93.1761 -0.977856 5
      vertex 84.7962 0.57632 3.5
      vertex 93.1761 -0.977856 3.5
    endloop
  endfacet
  facet normal 0.199493 0.979899 -0
    outer loop
      vertex 98.1988 -18.328 3.5
      vertex 90.1211 -16.6835 5
      vertex 98.1988 -18.328 5
    endloop
  endfacet
  facet normal 0.199493 0.979899 0
    outer loop
      vertex 90.1211 -16.6835 5
      vertex 98.1988 -18.328 3.5
      vertex 90.1211 -16.6835 3.5
    endloop
  endfacet
  facet normal -0.199489 -0.9799 0
    outer loop
      vertex 93.1761 -0.977856 3.5
      vertex 101.528 -2.67814 5
      vertex 93.1761 -0.977856 5
    endloop
  endfacet
  facet normal -0.199489 -0.9799 -0
    outer loop
      vertex 101.528 -2.67814 5
      vertex 93.1761 -0.977856 3.5
      vertex 101.528 -2.67814 3.5
    endloop
  endfacet
  facet normal 0.216599 0.976261 -0
    outer loop
      vertex 106.246 -20.1134 3.5
      vertex 98.1988 -18.328 5
      vertex 106.246 -20.1134 5
    endloop
  endfacet
  facet normal 0.216599 0.976261 0
    outer loop
      vertex 98.1988 -18.328 5
      vertex 106.246 -20.1134 3.5
      vertex 98.1988 -18.328 3.5
    endloop
  endfacet
  facet normal -0.216594 -0.976262 0
    outer loop
      vertex 101.528 -2.67814 3.5
      vertex 109.848 -4.52402 5
      vertex 101.528 -2.67814 5
    endloop
  endfacet
  facet normal -0.216594 -0.976262 -0
    outer loop
      vertex 109.848 -4.52402 5
      vertex 101.528 -2.67814 3.5
      vertex 109.848 -4.52402 3.5
    endloop
  endfacet
  facet normal 0.233575 0.972339 -0
    outer loop
      vertex 114.262 -22.039 3.5
      vertex 106.246 -20.1134 5
      vertex 114.262 -22.039 5
    endloop
  endfacet
  facet normal 0.233575 0.972339 0
    outer loop
      vertex 106.246 -20.1134 5
      vertex 114.262 -22.039 3.5
      vertex 106.246 -20.1134 3.5
    endloop
  endfacet
  facet normal -0.233597 -0.972333 0
    outer loop
      vertex 109.848 -4.52402 3.5
      vertex 118.135 -6.51492 5
      vertex 109.848 -4.52402 5
    endloop
  endfacet
  facet normal -0.233597 -0.972333 -0
    outer loop
      vertex 118.135 -6.51492 5
      vertex 109.848 -4.52402 3.5
      vertex 118.135 -6.51492 3.5
    endloop
  endfacet
  facet normal 0.250559 0.968101 -0
    outer loop
      vertex 122.163 -24.0839 3.5
      vertex 114.262 -22.039 5
      vertex 122.163 -24.0839 5
    endloop
  endfacet
  facet normal 0.250559 0.968101 0
    outer loop
      vertex 114.262 -22.039 5
      vertex 122.163 -24.0839 3.5
      vertex 114.262 -22.039 3.5
    endloop
  endfacet
  facet normal -0.250556 -0.968102 0
    outer loop
      vertex 118.135 -6.51492 5
      vertex 126.304 -8.62915 4.76721
      vertex 126.304 -8.62915 5
    endloop
  endfacet
  facet normal -0.250556 -0.968102 0
    outer loop
      vertex 118.135 -6.51492 3.5
      vertex 126.304 -8.62915 4.76721
      vertex 118.135 -6.51492 5
    endloop
  endfacet
  facet normal -0.250556 -0.968102 -0
    outer loop
      vertex 126.304 -8.62915 4.76721
      vertex 118.135 -6.51492 3.5
      vertex 126.304 -8.62915 3.5
    endloop
  endfacet
  facet normal -0.258849 -0.965918 0
    outer loop
      vertex 117.258 -15.7289 0
      vertex 123.923 -17.515 2.5
      vertex 117.258 -15.7289 2.5
    endloop
  endfacet
  facet normal -0.258849 -0.965918 -0
    outer loop
      vertex 123.923 -17.515 2.5
      vertex 117.258 -15.7289 0
      vertex 123.923 -17.515 0
    endloop
  endfacet
  facet normal 0.965919 -0.258845 0
    outer loop
      vertex 117.258 -15.7289 0
      vertex 117.258 -15.7289 2.5
      vertex 115.912 -20.7517 3.5
    endloop
  endfacet
  facet normal 0.258812 0.965928 -0
    outer loop
      vertex 122.06 -24.4696 0.953428
      vertex 115.394 -22.6835 2.5
      vertex 122.06 -24.4696 2.5
    endloop
  endfacet
  facet normal 0.258812 0.965928 0
    outer loop
      vertex 115.394 -22.6835 0
      vertex 122.06 -24.4696 0.953428
      vertex 122.06 -24.4696 0
    endloop
  endfacet
  facet normal 0.258812 0.965928 0
    outer loop
      vertex 122.06 -24.4696 0.953428
      vertex 115.394 -22.6835 0
      vertex 115.394 -22.6835 2.5
    endloop
  endfacet
  facet normal 0.965964 -0.258675 0.000915362
    outer loop
      vertex 117.258 -15.7289 2.5
      vertex 116.688 -17.8539 3.5
      vertex 115.912 -20.7517 3.5
    endloop
  endfacet
  facet normal 0.965879 -0.258994 0
    outer loop
      vertex 115.912 -20.7517 3.5
      vertex 115.394 -22.6835 2.5
      vertex 115.394 -22.6835 0
    endloop
  endfacet
  facet normal 0.115742 0.431968 -0.894431
    outer loop
      vertex 122.06 -24.4696 2.5
      vertex 115.912 -20.7517 3.5
      vertex 122.578 -22.5378 3.5
    endloop
  endfacet
  facet normal 0.115742 0.431968 -0.894431
    outer loop
      vertex 115.912 -20.7517 3.5
      vertex 122.06 -24.4696 2.5
      vertex 115.394 -22.6835 2.5
    endloop
  endfacet
  facet normal -0.1071 -0.399714 -0.910362
    outer loop
      vertex 116.688 -17.8539 3.5
      vertex 123.875 -17.6947 2.58458
      vertex 123.354 -19.64 3.5
    endloop
  endfacet
  facet normal -0.107148 -0.399835 -0.910303
    outer loop
      vertex 123.875 -17.6947 2.58458
      vertex 117.258 -15.7289 2.5
      vertex 123.923 -17.515 2.5
    endloop
  endfacet
  facet normal -0.107103 -0.399683 -0.910375
    outer loop
      vertex 123.875 -17.6947 2.58458
      vertex 116.688 -17.8539 3.5
      vertex 117.258 -15.7289 2.5
    endloop
  endfacet
  facet normal 0.965908 -0.258886 -6.37931e-05
    outer loop
      vertex 117.258 -15.7289 0
      vertex 115.912 -20.7517 3.5
      vertex 115.394 -22.6835 0
    endloop
  endfacet
endsolid OpenSCAD_Model
