solid OpenSCAD_Model
  facet normal -1 0 0
    outer loop
      vertex -5.999 -8 0
      vertex -5.999 -5.901 2.6
      vertex -5.999 -5.901 0
    endloop
  endfacet
  facet normal -1 -0 0
    outer loop
      vertex -5.999 -5.901 2.6
      vertex -5.999 -8 0
      vertex -5.999 -8 2.6
    endloop
  endfacet
  facet normal -1 0 0
    outer loop
      vertex -5.999 -3.101 0
      vertex -5.999 -1 2.6
      vertex -5.999 -1 0
    endloop
  endfacet
  facet normal -1 -0 0
    outer loop
      vertex -5.999 -1 2.6
      vertex -5.999 -3.101 0
      vertex -5.999 -3.101 2.6
    endloop
  endfacet
  facet normal 0 0 1
    outer loop
      vertex 0.000999451 -1 2.6
      vertex 5.49316e-07 -3.101 2.6
      vertex 0.000999451 -8 2.6
    endloop
  endfacet
  facet normal -0 0 1
    outer loop
      vertex -5.999 -1 2.6
      vertex 5.49316e-07 -3.101 2.6
      vertex 0.000999451 -1 2.6
    endloop
  endfacet
  facet normal 0 0 1
    outer loop
      vertex 5.49316e-07 -3.101 2.6
      vertex -5.999 -1 2.6
      vertex -5.999 -3.101 2.6
    endloop
  endfacet
  facet normal -0 0 1
    outer loop
      vertex 5.49316e-07 -5.901 2.6
      vertex 0.000999451 -8 2.6
      vertex 5.49316e-07 -3.101 2.6
    endloop
  endfacet
  facet normal -0 0 1
    outer loop
      vertex -5.999 -5.901 2.6
      vertex 0.000999451 -8 2.6
      vertex 5.49316e-07 -5.901 2.6
    endloop
  endfacet
  facet normal 0 0 1
    outer loop
      vertex 0.000999451 -8 2.6
      vertex -5.999 -5.901 2.6
      vertex -5.999 -8 2.6
    endloop
  endfacet
  facet normal -0 0 -1
    outer loop
      vertex 26.9252 4.17536 0
      vertex 26.6325 1.3907 0
      vertex 26.9242 4.17546 0
    endloop
  endfacet
  facet normal 0 0 -1
    outer loop
      vertex 26.6315 1.3908 0
      vertex 26.9242 4.17546 0
      vertex 26.6325 1.3907 0
    endloop
  endfacet
  facet normal 0 0 -1
    outer loop
      vertex 20.4467 -0.0717252 0
      vertex 26.6315 1.3908 0
      vertex 26.4119 -0.698688 0
    endloop
  endfacet
  facet normal 0 0 -1
    outer loop
      vertex 26.9242 4.17546 0
      vertex 21.1784 6.88993 0
      vertex 27.1436 6.26297 0
    endloop
  endfacet
  facet normal -0 0 -1
    outer loop
      vertex 26.6315 1.3908 0
      vertex 20.4467 -0.0717252 0
      vertex 26.9242 4.17546 0
    endloop
  endfacet
  facet normal -0 0 -1
    outer loop
      vertex 26.9242 4.17546 0
      vertex 20.4467 -0.0717252 0
      vertex 21.1784 6.88993 0
    endloop
  endfacet
  facet normal 0 0 -1
    outer loop
      vertex 13.3536 -1.53822 0
      vertex 20.4467 -0.0717252 0
      vertex 20.2168 -2.25957 0
    endloop
  endfacet
  facet normal 0 0 -1
    outer loop
      vertex 21.1784 6.88993 0
      vertex 18.051 11.7119 0
      vertex 21.6488 11.3655 0
    endloop
  endfacet
  facet normal -0 0 -1
    outer loop
      vertex 20.4467 -0.0717252 0
      vertex 13.3536 -1.53822 0
      vertex 21.1784 6.88993 0
    endloop
  endfacet
  facet normal 0 -0 -1
    outer loop
      vertex 14.4476 11.9955 0
      vertex 21.1784 6.88993 0
      vertex 13.3536 -1.53822 0
    endloop
  endfacet
  facet normal 0 0 -1
    outer loop
      vertex 21.1784 6.88993 0
      vertex 14.4476 11.9955 0
      vertex 18.051 11.7119 0
    endloop
  endfacet
  facet normal 0 0 -1
    outer loop
      vertex 7 1.2 0
      vertex 13.3536 -1.53822 0
      vertex 12.601 -8.69878 0
    endloop
  endfacet
  facet normal 0 0 -1
    outer loop
      vertex 7 8.4 0
      vertex 13.3536 -1.53822 0
      vertex 7 1.2 0
    endloop
  endfacet
  facet normal 0 0 -1
    outer loop
      vertex -6 -5.901 0
      vertex -5.999 -3.101 0
      vertex -5.999 -5.901 0
    endloop
  endfacet
  facet normal -0 0 -1
    outer loop
      vertex -5.999 -3.101 0
      vertex -6 -5.901 0
      vertex -6 -3.101 0
    endloop
  endfacet
  facet normal 0 0 -1
    outer loop
      vertex -5.999 -5.901 0
      vertex 0.000999451 -8 0
      vertex -5.999 -8 0
    endloop
  endfacet
  facet normal 0 0 -1
    outer loop
      vertex 0.000999451 -8 0
      vertex -5.999 -5.901 0
      vertex 0.000999451 -1 0
    endloop
  endfacet
  facet normal 0 0 -1
    outer loop
      vertex -5.999 -3.101 0
      vertex 0.000999451 -1 0
      vertex -5.999 -5.901 0
    endloop
  endfacet
  facet normal -0 0 -1
    outer loop
      vertex 0.000999451 -1 0
      vertex -5.999 -3.101 0
      vertex -5.999 -1 0
    endloop
  endfacet
  facet normal 0 0 -1
    outer loop
      vertex 15.8721 -13.1929 0
      vertex 19.4642 -9.42013 0
      vertex 19.0356 -13.4976 0
    endloop
  endfacet
  facet normal 0 0 -1
    outer loop
      vertex 12.601 -8.69878 0
      vertex 15.8721 -13.1929 0
      vertex 12.7037 -12.9436 0
    endloop
  endfacet
  facet normal 0 0 -1
    outer loop
      vertex 15.8721 -13.1929 0
      vertex 12.601 -8.69878 0
      vertex 19.4642 -9.42013 0
    endloop
  endfacet
  facet normal 0 0 -1
    outer loop
      vertex 9.53138 -12.7496 0
      vertex 12.601 -8.69878 0
      vertex 12.7037 -12.9436 0
    endloop
  endfacet
  facet normal 0 0 -1
    outer loop
      vertex 6.3562 -12.6109 0
      vertex 12.601 -8.69878 0
      vertex 9.53138 -12.7496 0
    endloop
  endfacet
  facet normal 0 0 -1
    outer loop
      vertex 13.3536 -1.53822 0
      vertex 7 8.4 0
      vertex 14.4476 11.9955 0
    endloop
  endfacet
  facet normal -0 0 -1
    outer loop
      vertex 14.4476 11.9955 0
      vertex 7 8.4 0
      vertex 10.8398 12.2162 0
    endloop
  endfacet
  facet normal 0 0 -1
    outer loop
      vertex 0.000999451 -8 0
      vertex 12.601 -8.69878 0
      vertex 6.3562 -12.6109 0
    endloop
  endfacet
  facet normal 0 0 -1
    outer loop
      vertex 0.000999451 -8 0
      vertex 6.3562 -12.6109 0
      vertex 3.17908 -12.5277 0
    endloop
  endfacet
  facet normal 0 0 -1
    outer loop
      vertex 0.000999451 -8 0
      vertex 3.17908 -12.5277 0
      vertex 0.000999451 -12.5 0
    endloop
  endfacet
  facet normal 0 0 -1
    outer loop
      vertex 12.601 -8.69878 0
      vertex 0.000999451 -8 0
      vertex 7 1.2 0
    endloop
  endfacet
  facet normal 0 0 -1
    outer loop
      vertex 0.000999451 -1 0
      vertex 7 1.2 0
      vertex 0.000999451 -8 0
    endloop
  endfacet
  facet normal -0 0 -1
    outer loop
      vertex 7 1.2 0
      vertex 0.000999451 -1 0
      vertex 0.000999451 1.2 0
    endloop
  endfacet
  facet normal -0 0 -1
    outer loop
      vertex 10.8398 12.2162 0
      vertex 7 8.4 0
      vertex 7.22869 12.3738 0
    endloop
  endfacet
  facet normal 0 0 -1
    outer loop
      vertex 7 8.4 0
      vertex 3.61539 12.4685 0
      vertex 7.22869 12.3738 0
    endloop
  endfacet
  facet normal 0 0 -1
    outer loop
      vertex 0.000999451 8.4 0
      vertex 3.61539 12.4685 0
      vertex 7 8.4 0
    endloop
  endfacet
  facet normal -0 0 -1
    outer loop
      vertex 3.61539 12.4685 0
      vertex 0.000999451 8.4 0
      vertex 0.000999451 12.5 0
    endloop
  endfacet
  facet normal 0 -1 0
    outer loop
      vertex -5.999 -8 0
      vertex 0.000999451 -8 2.6
      vertex -5.999 -8 2.6
    endloop
  endfacet
  facet normal 0 -1 -0
    outer loop
      vertex 0.000999451 -8 2.6
      vertex -5.999 -8 0
      vertex 0.000999451 -8 0
    endloop
  endfacet
  facet normal 0 1 -0
    outer loop
      vertex 0.000999451 -1 0
      vertex -5.999 -1 2.6
      vertex 0.000999451 -1 2.6
    endloop
  endfacet
  facet normal 0 1 0
    outer loop
      vertex -5.999 -1 2.6
      vertex 0.000999451 -1 0
      vertex -5.999 -1 0
    endloop
  endfacet
  facet normal -1 0 0
    outer loop
      vertex -6 -5.901 0
      vertex -6 -3.101 4.6
      vertex -6 -3.101 0
    endloop
  endfacet
  facet normal -1 -0 0
    outer loop
      vertex -6 -3.101 4.6
      vertex -6 -5.901 0
      vertex -6 -5.901 4.6
    endloop
  endfacet
  facet normal 0 0 -1
    outer loop
      vertex -0.000999855 -6.202 4.6
      vertex -6 -5.901 4.6
      vertex -0.000999855 -5.901 4.6
    endloop
  endfacet
  facet normal -0 0 -1
    outer loop
      vertex -6 -5.901 4.6
      vertex -6.001 -6.202 4.6
      vertex -6 -3.101 4.6
    endloop
  endfacet
  facet normal 0 0 -1
    outer loop
      vertex -6.001 -6.202 4.6
      vertex -6 -5.901 4.6
      vertex -0.000999855 -6.202 4.6
    endloop
  endfacet
  facet normal 0 0 -1
    outer loop
      vertex -6 -3.101 4.6
      vertex -0.000999855 -2.802 4.6
      vertex -0.000999855 -3.101 4.6
    endloop
  endfacet
  facet normal 0 0 -1
    outer loop
      vertex -6 -3.101 4.6
      vertex -6.001 -2.802 4.6
      vertex -0.000999855 -2.802 4.6
    endloop
  endfacet
  facet normal 0 0 -1
    outer loop
      vertex -6.001 -2.802 4.6
      vertex -6 -3.101 4.6
      vertex -6.001 -6.202 4.6
    endloop
  endfacet
  facet normal -0 0 1
    outer loop
      vertex -0.000999855 -3.101 4.6
      vertex 0 -5.901 4.6
      vertex 0 -3.101 4.6
    endloop
  endfacet
  facet normal 0 0 1
    outer loop
      vertex 0 -5.901 4.6
      vertex -0.000999855 -3.101 4.6
      vertex -0.000999855 -5.901 4.6
    endloop
  endfacet
  facet normal 1 -0 0
    outer loop
      vertex 5.49316e-07 -5.901 3.5
      vertex 5.49316e-07 -3.101 2.6
      vertex 5.49316e-07 -3.101 3.5
    endloop
  endfacet
  facet normal 1 0 0
    outer loop
      vertex 5.49316e-07 -3.101 2.6
      vertex 5.49316e-07 -5.901 3.5
      vertex 5.49316e-07 -5.901 2.6
    endloop
  endfacet
  facet normal 0 -1 0
    outer loop
      vertex 0 -5.901 3.5
      vertex -0.000999855 -5.901 4.6
      vertex -6 -5.901 4.6
    endloop
  endfacet
  facet normal 0 -1 0
    outer loop
      vertex -0.000999855 -5.901 4.6
      vertex 0 -5.901 3.5
      vertex 0 -5.901 4.6
    endloop
  endfacet
  facet normal 0 -1 0
    outer loop
      vertex 5.49316e-07 -5.901 2.6
      vertex 0 -5.901 3.5
      vertex -5.999 -5.901 2.6
    endloop
  endfacet
  facet normal 0 -1 0
    outer loop
      vertex -6 -5.901 4.6
      vertex -5.999 -5.901 2.6
      vertex 0 -5.901 3.5
    endloop
  endfacet
  facet normal 0 -1 0
    outer loop
      vertex -6 -5.901 0
      vertex -5.999 -5.901 2.6
      vertex -6 -5.901 4.6
    endloop
  endfacet
  facet normal 0 -1 -0
    outer loop
      vertex -5.999 -5.901 2.6
      vertex -6 -5.901 0
      vertex -5.999 -5.901 0
    endloop
  endfacet
  facet normal 0 -1 0
    outer loop
      vertex 0 -5.901 3.5
      vertex 5.49316e-07 -5.901 2.6
      vertex 5.49316e-07 -5.901 3.5
    endloop
  endfacet
  facet normal 0 1 0
    outer loop
      vertex 5.49316e-07 -3.101 3.5
      vertex 5.49316e-07 -3.101 2.6
      vertex 0 -3.101 3.5
    endloop
  endfacet
  facet normal 0 1 -0
    outer loop
      vertex 0 -3.101 3.5
      vertex -0.000999855 -3.101 4.6
      vertex 0 -3.101 4.6
    endloop
  endfacet
  facet normal 0 1 0
    outer loop
      vertex -0.000999855 -3.101 4.6
      vertex 0 -3.101 3.5
      vertex -6 -3.101 4.6
    endloop
  endfacet
  facet normal 0 1 0
    outer loop
      vertex -5.999 -3.101 2.6
      vertex 0 -3.101 3.5
      vertex 5.49316e-07 -3.101 2.6
    endloop
  endfacet
  facet normal 0 1 0
    outer loop
      vertex 0 -3.101 3.5
      vertex -5.999 -3.101 2.6
      vertex -6 -3.101 4.6
    endloop
  endfacet
  facet normal 0 1 0
    outer loop
      vertex -6 -3.101 0
      vertex -5.999 -3.101 2.6
      vertex -5.999 -3.101 0
    endloop
  endfacet
  facet normal 0 1 0
    outer loop
      vertex -5.999 -3.101 2.6
      vertex -6 -3.101 0
      vertex -6 -3.101 4.6
    endloop
  endfacet
  facet normal -1 0 0
    outer loop
      vertex -6.001 -6.202 4.6
      vertex -6.001 -2.802 5.2
      vertex -6.001 -2.802 4.6
    endloop
  endfacet
  facet normal -1 -0 0
    outer loop
      vertex -6.001 -2.802 5.2
      vertex -6.001 -6.202 4.6
      vertex -6.001 -6.202 5.2
    endloop
  endfacet
  facet normal -0 0 1
    outer loop
      vertex -6.001 -2.802 5.2
      vertex -0.000999855 -6.202 5.2
      vertex -0.000999855 -2.802 5.2
    endloop
  endfacet
  facet normal 0 0 1
    outer loop
      vertex -0.000999855 -6.202 5.2
      vertex -6.001 -2.802 5.2
      vertex -6.001 -6.202 5.2
    endloop
  endfacet
  facet normal 1 0 0
    outer loop
      vertex -0.000999855 -2.802 5.2
      vertex -0.000999855 -3.101 4.6
      vertex -0.000999855 -2.802 4.6
    endloop
  endfacet
  facet normal 1 0 0
    outer loop
      vertex -0.000999855 -2.802 5.2
      vertex -0.000999855 -5.901 4.6
      vertex -0.000999855 -3.101 4.6
    endloop
  endfacet
  facet normal 1 -0 0
    outer loop
      vertex -0.000999855 -6.202 5.2
      vertex -0.000999855 -5.901 4.6
      vertex -0.000999855 -2.802 5.2
    endloop
  endfacet
  facet normal 1 0 0
    outer loop
      vertex -0.000999855 -5.901 4.6
      vertex -0.000999855 -6.202 5.2
      vertex -0.000999855 -6.202 4.6
    endloop
  endfacet
  facet normal 0 -1 0
    outer loop
      vertex -6.001 -6.202 4.6
      vertex -0.000999855 -6.202 5.2
      vertex -6.001 -6.202 5.2
    endloop
  endfacet
  facet normal 0 -1 -0
    outer loop
      vertex -0.000999855 -6.202 5.2
      vertex -6.001 -6.202 4.6
      vertex -0.000999855 -6.202 4.6
    endloop
  endfacet
  facet normal 0 1 -0
    outer loop
      vertex -0.000999855 -2.802 4.6
      vertex -6.001 -2.802 5.2
      vertex -0.000999855 -2.802 5.2
    endloop
  endfacet
  facet normal 0 1 0
    outer loop
      vertex -6.001 -2.802 5.2
      vertex -0.000999855 -2.802 4.6
      vertex -6.001 -2.802 4.6
    endloop
  endfacet
  facet normal 0.994522 -0.104526 0
    outer loop
      vertex 26.9242 4.17546 2.6
      vertex 27.1436 6.26297 0
      vertex 27.1436 6.26297 2.6
    endloop
  endfacet
  facet normal 0.994522 -0.104526 0
    outer loop
      vertex 27.1436 6.26297 0
      vertex 26.9242 4.17546 2.6
      vertex 26.9242 4.17546 0
    endloop
  endfacet
  facet normal 0.994523 -0.104522 0
    outer loop
      vertex 26.4119 -0.698688 2.6
      vertex 26.6315 1.3908 0
      vertex 26.6315 1.3908 2.6
    endloop
  endfacet
  facet normal 0.994523 -0.104522 0
    outer loop
      vertex 26.6315 1.3908 0
      vertex 26.4119 -0.698688 2.6
      vertex 26.4119 -0.698688 0
    endloop
  endfacet
  facet normal 0 0 1
    outer loop
      vertex 21.1784 6.88993 2.6
      vertex 26.9242 4.17546 2.6
      vertex 27.1436 6.26297 2.6
    endloop
  endfacet
  facet normal 0 0 1
    outer loop
      vertex 26.9242 4.17546 2.6
      vertex 21.1784 6.88993 2.6
      vertex 20.959 4.80243 2.6
    endloop
  endfacet
  facet normal 0 0 1
    outer loop
      vertex 20.6664 2.01777 2.6
      vertex 26.4119 -0.698688 2.6
      vertex 26.6315 1.3908 2.6
    endloop
  endfacet
  facet normal 0 0 1
    outer loop
      vertex 26.4119 -0.698688 2.6
      vertex 20.6664 2.01777 2.6
      vertex 20.4467 -0.0717251 2.6
    endloop
  endfacet
  facet normal 0.104527 0.994522 -0
    outer loop
      vertex 27.1436 6.26297 0
      vertex 21.1784 6.88993 2.6
      vertex 27.1436 6.26297 2.6
    endloop
  endfacet
  facet normal 0.104527 0.994522 0
    outer loop
      vertex 21.1784 6.88993 2.6
      vertex 27.1436 6.26297 0
      vertex 21.1784 6.88993 0
    endloop
  endfacet
  facet normal -0.104528 -0.994522 3.82508e-08
    outer loop
      vertex 20.4467 -0.0717252 0
      vertex 26.4119 -0.698688 2.6
      vertex 20.4467 -0.0717251 2.6
    endloop
  endfacet
  facet normal -0.104528 -0.994522 -0
    outer loop
      vertex 26.4119 -0.698688 2.6
      vertex 20.4467 -0.0717252 0
      vertex 26.4119 -0.698688 0
    endloop
  endfacet
  facet normal 0.994521 -0.104536 0
    outer loop
      vertex 26.6325 1.3907 4.6
      vertex 26.9252 4.17536 0
      vertex 26.9252 4.17536 4.6
    endloop
  endfacet
  facet normal 0.994521 -0.104536 0
    outer loop
      vertex 26.9252 4.17536 0
      vertex 26.6325 1.3907 4.6
      vertex 26.6325 1.3907 0
    endloop
  endfacet
  facet normal 0 0 -1
    outer loop
      vertex 26.9576 4.47461 4.6
      vertex 26.6325 1.3907 4.6
      vertex 26.9252 4.17536 4.6
    endloop
  endfacet
  facet normal 0 0 -1
    outer loop
      vertex 26.6022 1.09323 4.6
      vertex 26.6325 1.3907 4.6
      vertex 26.9576 4.47461 4.6
    endloop
  endfacet
  facet normal 0 0 -1
    outer loop
      vertex 26.6022 1.09323 4.6
      vertex 20.6997 2.01426 4.6
      vertex 26.6325 1.3907 4.6
    endloop
  endfacet
  facet normal 0 -0 -1
    outer loop
      vertex 20.6997 2.01426 4.6
      vertex 26.6022 1.09323 4.6
      vertex 20.6684 1.71691 4.6
    endloop
  endfacet
  facet normal 0 0 -1
    outer loop
      vertex 26.9252 4.17536 4.6
      vertex 21.0244 5.09822 4.6
      vertex 26.9576 4.47461 4.6
    endloop
  endfacet
  facet normal 0 -0 -1
    outer loop
      vertex 21.0244 5.09822 4.6
      vertex 26.9252 4.17536 4.6
      vertex 20.9929 4.79887 4.6
    endloop
  endfacet
  facet normal 0.104528 0.994522 0
    outer loop
      vertex 26.9252 4.17536 4.6
      vertex 20.9929 4.79887 3.5
      vertex 20.9929 4.79887 4.6
    endloop
  endfacet
  facet normal 0.104529 0.994522 -3.36609e-06
    outer loop
      vertex 20.959 4.80243 2.6
      vertex 20.9929 4.79887 3.5
      vertex 26.9242 4.17546 2.6
    endloop
  endfacet
  facet normal 0.104529 0.994522 -2.53838e-06
    outer loop
      vertex 26.9252 4.17536 4.6
      vertex 26.9242 4.17546 2.6
      vertex 20.9929 4.79887 3.5
    endloop
  endfacet
  facet normal 0.0995037 0.995037 -0
    outer loop
      vertex 26.9252 4.17536 0
      vertex 26.9242 4.17546 2.6
      vertex 26.9252 4.17536 4.6
    endloop
  endfacet
  facet normal 0.0995037 0.995037 0
    outer loop
      vertex 26.9242 4.17546 2.6
      vertex 26.9252 4.17536 0
      vertex 26.9242 4.17546 0
    endloop
  endfacet
  facet normal 0.10444 0.994531 0
    outer loop
      vertex 20.9929 4.79887 3.5
      vertex 20.959 4.80243 2.6
      vertex 20.959 4.80243 3.5
    endloop
  endfacet
  facet normal -0.104528 -0.994522 0
    outer loop
      vertex 20.6997 2.01426 3.5
      vertex 26.6325 1.3907 4.6
      vertex 20.6997 2.01426 4.6
    endloop
  endfacet
  facet normal -0.104531 -0.994522 -1.10037e-05
    outer loop
      vertex 26.6315 1.3908 2.6
      vertex 20.6997 2.01426 3.5
      vertex 20.6664 2.01777 2.6
    endloop
  endfacet
  facet normal -0.104529 -0.994522 2.53817e-06
    outer loop
      vertex 20.6997 2.01426 3.5
      vertex 26.6315 1.3908 2.6
      vertex 26.6325 1.3907 4.6
    endloop
  endfacet
  facet normal -0.0995037 -0.995037 0
    outer loop
      vertex 26.6325 1.3907 0
      vertex 26.6315 1.3908 2.6
      vertex 26.6315 1.3908 0
    endloop
  endfacet
  facet normal -0.0995037 -0.995037 0
    outer loop
      vertex 26.6315 1.3908 2.6
      vertex 26.6325 1.3907 0
      vertex 26.6325 1.3907 4.6
    endloop
  endfacet
  facet normal -0.104825 -0.994491 -0
    outer loop
      vertex 20.6664 2.01777 3.5
      vertex 20.6664 2.01777 2.6
      vertex 20.6997 2.01426 3.5
    endloop
  endfacet
  facet normal 0.994522 -0.104529 0
    outer loop
      vertex 26.6022 1.09323 5.2
      vertex 26.9576 4.47461 4.6
      vertex 26.9576 4.47461 5.2
    endloop
  endfacet
  facet normal 0.994522 -0.104529 0
    outer loop
      vertex 26.9576 4.47461 4.6
      vertex 26.6022 1.09323 5.2
      vertex 26.6022 1.09323 4.6
    endloop
  endfacet
  facet normal 0 0 1
    outer loop
      vertex 21.0244 5.09822 5.2
      vertex 26.6022 1.09323 5.2
      vertex 26.9576 4.47461 5.2
    endloop
  endfacet
  facet normal 0 0 1
    outer loop
      vertex 26.6022 1.09323 5.2
      vertex 21.0244 5.09822 5.2
      vertex 20.6684 1.71691 5.2
    endloop
  endfacet
  facet normal 0.104529 0.994522 -0
    outer loop
      vertex 26.9576 4.47461 4.6
      vertex 21.0244 5.09822 5.2
      vertex 26.9576 4.47461 5.2
    endloop
  endfacet
  facet normal 0.104529 0.994522 0
    outer loop
      vertex 21.0244 5.09822 5.2
      vertex 26.9576 4.47461 4.6
      vertex 21.0244 5.09822 4.6
    endloop
  endfacet
  facet normal -0.104531 -0.994522 0
    outer loop
      vertex 20.6684 1.71691 4.6
      vertex 26.6022 1.09323 5.2
      vertex 20.6684 1.71691 5.2
    endloop
  endfacet
  facet normal -0.104531 -0.994522 -0
    outer loop
      vertex 26.6022 1.09323 5.2
      vertex 20.6684 1.71691 4.6
      vertex 26.6022 1.09323 4.6
    endloop
  endfacet
  facet normal -1 0 0
    outer loop
      vertex 0.000999451 1.2 0
      vertex 0.000999451 -1 0
      vertex 0.000999451 1.2 2.5
    endloop
  endfacet
  facet normal -1 0 0
    outer loop
      vertex 0.000999451 -1 2.6
      vertex 0.000999451 1.2 2.5
      vertex 0.000999451 -1 0
    endloop
  endfacet
  facet normal -1 0 0
    outer loop
      vertex 0.000999451 -1 2.6
      vertex 0.000999451 3.4 3.5
      vertex 0.000999451 1.2 2.5
    endloop
  endfacet
  facet normal -1 0 0
    outer loop
      vertex 0.000999451 -8.00001 3.5
      vertex 0.000999451 -1 2.6
      vertex 0.000999451 -8 2.6
    endloop
  endfacet
  facet normal -1 0 0
    outer loop
      vertex 0.000999451 -1 2.6
      vertex 0.000999451 -8.00001 3.5
      vertex 0.000999451 3.4 3.5
    endloop
  endfacet
  facet normal -1 0 0
    outer loop
      vertex 0.000999451 -12.5 0
      vertex 0.000999451 -8 2.6
      vertex 0.000999451 -8 0
    endloop
  endfacet
  facet normal -1 0 0
    outer loop
      vertex 0.000999451 -8.00001 3.5
      vertex 0.000999451 -9 5
      vertex 0.000999451 -8.00001 5
    endloop
  endfacet
  facet normal -1 0 -0
    outer loop
      vertex 0.000999451 -9 5
      vertex 0.000999451 -8 2.6
      vertex 0.000999451 -12.5 0
    endloop
  endfacet
  facet normal -1 0 0
    outer loop
      vertex 0.000999451 -8 2.6
      vertex 0.000999451 -9 5
      vertex 0.000999451 -8.00001 3.5
    endloop
  endfacet
  facet normal -1 0 0
    outer loop
      vertex 0.000999451 8.4 2.5
      vertex 0.000999451 6.4 3.5
      vertex 0.000999451 7.99999 3.5
    endloop
  endfacet
  facet normal -1 0 0
    outer loop
      vertex 0.000999451 8.4 2.5
      vertex 0.000999451 12.5 0
      vertex 0.000999451 8.4 0
    endloop
  endfacet
  facet normal -1 0 0
    outer loop
      vertex 0.000999451 12.5 0
      vertex 0.000999451 8.4 2.5
      vertex 0.000999451 9 5
    endloop
  endfacet
  facet normal -1 0 0
    outer loop
      vertex 0.000999451 7.99999 3.5
      vertex 0.000999451 9 5
      vertex 0.000999451 8.4 2.5
    endloop
  endfacet
  facet normal -1 -0 0
    outer loop
      vertex 0.000999451 9 5
      vertex 0.000999451 7.99999 3.5
      vertex 0.000999451 7.99999 5
    endloop
  endfacet
  facet normal 0.99452 -0.104543 0
    outer loop
      vertex 19.4015 -10.0167 5
      vertex 19.506 -9.02259 3.5
      vertex 19.506 -9.02259 5
    endloop
  endfacet
  facet normal 0.994519 -0.104553 -6.79596e-06
    outer loop
      vertex 19.506 -9.02259 3.5
      vertex 19.4015 -10.0167 5
      vertex 19.4642 -9.42013 2.5
    endloop
  endfacet
  facet normal 0.994521 -0.104537 -2.76889e-06
    outer loop
      vertex 19.0356 -13.4976 0
      vertex 19.4642 -9.42013 2.5
      vertex 19.4015 -10.0167 5
    endloop
  endfacet
  facet normal 0.994521 -0.104538 0
    outer loop
      vertex 19.4642 -9.42013 2.5
      vertex 19.0356 -13.4976 0
      vertex 19.4642 -9.42013 0.953464
    endloop
  endfacet
  facet normal 0.994519 -0.104482 0.00396098
    outer loop
      vertex 19.506 -9.02259 3.5
      vertex 19.6703 -7.45922 3.48586
      vertex 19.6732 -7.43108 3.5
    endloop
  endfacet
  facet normal 0.994523 -0.104518 -2.09453e-05
    outer loop
      vertex 19.6703 -7.45922 3.48586
      vertex 19.506 -9.02259 3.5
      vertex 19.4642 -9.42013 2.5
    endloop
  endfacet
  facet normal 0.994519 -0.104558 0
    outer loop
      vertex 21.283 7.88466 5
      vertex 21.1784 6.88974 5
      vertex 21.1784 6.88974 4.76735
    endloop
  endfacet
  facet normal 0.994521 -0.104536 -2.51242e-05
    outer loop
      vertex 20.1973 -2.44467 2.5846
      vertex 20.6088 1.46999 3.5
      vertex 19.9868 -4.44752 3.5
    endloop
  endfacet
  facet normal 0.994519 -0.104558 0
    outer loop
      vertex 21.1784 6.88974 3.5
      vertex 21.283 7.88466 5
      vertex 21.1784 6.88974 4.76735
    endloop
  endfacet
  facet normal 0.994522 -0.104525 -2.20664e-05
    outer loop
      vertex 21.283 7.88466 5
      vertex 21.1784 6.88974 3.5
      vertex 21.1784 6.88993 2.6
    endloop
  endfacet
  facet normal 0.994521 -0.104535 -2.20686e-05
    outer loop
      vertex 20.959 4.80243 3.5
      vertex 21.1784 6.88993 2.6
      vertex 21.1784 6.88974 3.5
    endloop
  endfacet
  facet normal 0.994522 -0.104526 0
    outer loop
      vertex 21.1784 6.88993 2.6
      vertex 20.959 4.80243 3.5
      vertex 20.959 4.80243 2.6
    endloop
  endfacet
  facet normal 0.994521 -0.104538 -1.66874e-05
    outer loop
      vertex 21.1784 6.88993 2.6
      vertex 21.6488 11.3655 0
      vertex 21.283 7.88466 5
    endloop
  endfacet
  facet normal 0.994522 -0.104528 0
    outer loop
      vertex 21.6488 11.3655 0
      vertex 21.1784 6.88993 2.6
      vertex 21.1784 6.88993 0
    endloop
  endfacet
  facet normal 0.994521 -0.104538 0
    outer loop
      vertex 19.4642 -9.42013 0
      vertex 19.4642 -9.42013 0.953464
      vertex 19.0356 -13.4976 0
    endloop
  endfacet
  facet normal 0.994517 -0.104575 0
    outer loop
      vertex 20.6088 1.46999 3.5
      vertex 20.6664 2.01777 2.6
      vertex 20.6664 2.01777 3.5
    endloop
  endfacet
  facet normal 0.994518 -0.104569 4.0466e-06
    outer loop
      vertex 20.6088 1.46999 3.5
      vertex 20.4467 -0.0717251 2.6
      vertex 20.6664 2.01777 2.6
    endloop
  endfacet
  facet normal 0.994524 -0.104505 4.01943e-09
    outer loop
      vertex 20.4467 -0.0717251 2.6
      vertex 20.2168 -2.25957 2.5
      vertex 20.4467 -0.0717252 0
    endloop
  endfacet
  facet normal 0.994522 -0.104525 -7.09298e-05
    outer loop
      vertex 20.1973 -2.44467 2.5846
      vertex 20.4467 -0.0717251 2.6
      vertex 20.6088 1.46999 3.5
    endloop
  endfacet
  facet normal 0.994522 -0.104529 0.000529913
    outer loop
      vertex 20.4467 -0.0717251 2.6
      vertex 20.1973 -2.44467 2.5846
      vertex 20.2168 -2.25957 2.5
    endloop
  endfacet
  facet normal 0.994524 -0.104505 0
    outer loop
      vertex 20.4467 -0.0717252 0
      vertex 20.2168 -2.25957 2.5
      vertex 20.2168 -2.25957 0
    endloop
  endfacet
  facet normal -0.0071497 -0.819211 0.573448
    outer loop
      vertex 3.24017 -9.02827 5
      vertex 0.000999451 -9 5
      vertex 0.000999451 -12.5 0
    endloop
  endfacet
  facet normal -0.00714023 -0.819214 0.573444
    outer loop
      vertex 3.17908 -12.5277 0
      vertex 3.24017 -9.02827 5
      vertex 0.000999451 -12.5 0
    endloop
  endfacet
  facet normal 0 0 1
    outer loop
      vertex 17.6871 7.22647 5
      vertex 21.283 7.88466 5
      vertex 17.7459 8.22524 5
    endloop
  endfacet
  facet normal 0 0 1
    outer loop
      vertex 21.283 7.88466 5
      vertex 17.6871 7.22647 5
      vertex 21.1784 6.88974 5
    endloop
  endfacet
  facet normal 0 0 1
    outer loop
      vertex 14.1562 7.50483 5
      vertex 17.7459 8.22524 5
      vertex 14.2034 8.50404 5
    endloop
  endfacet
  facet normal 0 0 1
    outer loop
      vertex 17.7459 8.22524 5
      vertex 14.1562 7.50483 5
      vertex 17.6871 7.22647 5
    endloop
  endfacet
  facet normal 0 0 1
    outer loop
      vertex 10.6209 7.72142 5
      vertex 14.2034 8.50404 5
      vertex 10.6566 8.72097 5
    endloop
  endfacet
  facet normal 0 0 1
    outer loop
      vertex 14.2034 8.50404 5
      vertex 10.6209 7.72142 5
      vertex 14.1562 7.50483 5
    endloop
  endfacet
  facet normal 0 0 1
    outer loop
      vertex 7.08242 7.87617 5
      vertex 10.6566 8.72097 5
      vertex 7.10654 8.87597 5
    endloop
  endfacet
  facet normal 0 0 1
    outer loop
      vertex 10.6566 8.72097 5
      vertex 7.08242 7.87617 5
      vertex 10.6209 7.72142 5
    endloop
  endfacet
  facet normal 0 0 1
    outer loop
      vertex 3.54175 7.96904 5
      vertex 7.10654 8.87597 5
      vertex 3.55431 8.96899 5
    endloop
  endfacet
  facet normal 0 0 1
    outer loop
      vertex 7.10654 8.87597 5
      vertex 3.54175 7.96904 5
      vertex 7.08242 7.87617 5
    endloop
  endfacet
  facet normal 0 0 1
    outer loop
      vertex 0.000999451 9 5
      vertex 3.54175 7.96904 5
      vertex 3.55431 8.96899 5
    endloop
  endfacet
  facet normal 0 0 1
    outer loop
      vertex 3.54175 7.96904 5
      vertex 0.000999451 9 5
      vertex 0.000999451 7.99999 5
    endloop
  endfacet
  facet normal 0 0 1
    outer loop
      vertex 16.2903 -8.71244 5
      vertex 19.4015 -10.0167 5
      vertex 19.506 -9.02259 5
    endloop
  endfacet
  facet normal 0 0 1
    outer loop
      vertex 16.2903 -8.71244 5
      vertex 16.1771 -9.70626 5
      vertex 19.4015 -10.0167 5
    endloop
  endfacet
  facet normal 0 0 1
    outer loop
      vertex 13.0382 -8.45606 5
      vertex 16.1771 -9.70626 5
      vertex 16.2903 -8.71244 5
    endloop
  endfacet
  facet normal 0 0 1
    outer loop
      vertex 13.0382 -8.45606 5
      vertex 12.9478 -9.45211 5
      vertex 16.1771 -9.70626 5
    endloop
  endfacet
  facet normal 0 0 1
    outer loop
      vertex 9.78215 -8.25658 5
      vertex 12.9478 -9.45211 5
      vertex 13.0382 -8.45606 5
    endloop
  endfacet
  facet normal 0 0 1
    outer loop
      vertex 9.78215 -8.25658 5
      vertex 9.71455 -9.25436 5
      vertex 12.9478 -9.45211 5
    endloop
  endfacet
  facet normal 0 0 1
    outer loop
      vertex 6.5231 -8.11405 5
      vertex 9.71455 -9.25436 5
      vertex 9.78215 -8.25658 5
    endloop
  endfacet
  facet normal 0 0 1
    outer loop
      vertex 6.5231 -8.11405 5
      vertex 6.47835 -9.11306 5
      vertex 9.71455 -9.25436 5
    endloop
  endfacet
  facet normal 0 0 1
    outer loop
      vertex 3.26205 -8.02851 5
      vertex 6.47835 -9.11306 5
      vertex 6.5231 -8.11405 5
    endloop
  endfacet
  facet normal 0 0 1
    outer loop
      vertex 3.26205 -8.02851 5
      vertex 3.24017 -9.02827 5
      vertex 6.47835 -9.11306 5
    endloop
  endfacet
  facet normal 0 0 1
    outer loop
      vertex 0.000999451 -8.00001 5
      vertex 3.24017 -9.02827 5
      vertex 3.26205 -8.02851 5
    endloop
  endfacet
  facet normal 0 0 1
    outer loop
      vertex 3.24017 -9.02827 5
      vertex 0.000999451 -8.00001 5
      vertex 0.000999451 -9 5
    endloop
  endfacet
  facet normal 0.00713956 0.819211 0.573448
    outer loop
      vertex 3.61539 12.4685 0
      vertex 0.000999451 12.5 0
      vertex 0.000999451 9 5
    endloop
  endfacet
  facet normal 0.00714929 0.819208 0.573452
    outer loop
      vertex 3.55431 8.96899 5
      vertex 3.61539 12.4685 0
      vertex 0.000999451 9 5
    endloop
  endfacet
  facet normal -0.0214441 -0.818964 0.573444
    outer loop
      vertex 6.47835 -9.11306 5
      vertex 3.24017 -9.02827 5
      vertex 3.17908 -12.5277 0
    endloop
  endfacet
  facet normal -0.0214464 -0.818964 0.573445
    outer loop
      vertex 6.3562 -12.6109 0
      vertex 6.47835 -9.11306 5
      vertex 3.17908 -12.5277 0
    endloop
  endfacet
  facet normal 0.0214638 0.818958 0.573452
    outer loop
      vertex 7.22869 12.3738 0
      vertex 3.61539 12.4685 0
      vertex 3.55431 8.96899 5
    endloop
  endfacet
  facet normal 0.0214457 0.818964 0.573444
    outer loop
      vertex 7.10654 8.87597 5
      vertex 7.22869 12.3738 0
      vertex 3.55431 8.96899 5
    endloop
  endfacet
  facet normal -0.0357361 -0.818465 0.573445
    outer loop
      vertex 9.71455 -9.25436 5
      vertex 6.47835 -9.11306 5
      vertex 6.3562 -12.6109 0
    endloop
  endfacet
  facet normal -0.0357524 -0.818459 0.573452
    outer loop
      vertex 9.53138 -12.7496 0
      vertex 9.71455 -9.25436 5
      vertex 6.3562 -12.6109 0
    endloop
  endfacet
  facet normal 0.0357204 0.818466 0.573444
    outer loop
      vertex 10.8398 12.2162 0
      vertex 7.22869 12.3738 0
      vertex 7.10654 8.87597 5
    endloop
  endfacet
  facet normal 0.035735 0.81846 0.573451
    outer loop
      vertex 10.6566 8.72097 5
      vertex 10.8398 12.2162 0
      vertex 7.10654 8.87597 5
    endloop
  endfacet
  facet normal -0.0500123 -0.817711 0.573452
    outer loop
      vertex 12.9478 -9.45211 5
      vertex 9.71455 -9.25436 5
      vertex 9.53138 -12.7496 0
    endloop
  endfacet
  facet normal -0.0500064 -0.817714 0.573449
    outer loop
      vertex 12.7037 -12.9436 0
      vertex 12.9478 -9.45211 5
      vertex 9.53138 -12.7496 0
    endloop
  endfacet
  facet normal 0.0500219 0.817711 0.573451
    outer loop
      vertex 14.4476 11.9955 0
      vertex 10.8398 12.2162 0
      vertex 10.6566 8.72097 5
    endloop
  endfacet
  facet normal 0.0500132 0.817715 0.573446
    outer loop
      vertex 14.2034 8.50404 5
      vertex 14.4476 11.9955 0
      vertex 10.6566 8.72097 5
    endloop
  endfacet
  facet normal -0.0642766 -0.816716 0.573449
    outer loop
      vertex 16.1771 -9.70626 5
      vertex 12.9478 -9.45211 5
      vertex 12.7037 -12.9436 0
    endloop
  endfacet
  facet normal -0.0642623 -0.816721 0.573443
    outer loop
      vertex 15.8721 -13.1929 0
      vertex 16.1771 -9.70626 5
      vertex 12.7037 -12.9436 0
    endloop
  endfacet
  facet normal 0.0642785 0.816717 0.573447
    outer loop
      vertex 18.051 11.7119 0
      vertex 14.4476 11.9955 0
      vertex 14.2034 8.50404 5
    endloop
  endfacet
  facet normal 0.0642769 0.816718 0.573446
    outer loop
      vertex 17.7459 8.22524 5
      vertex 18.051 11.7119 0
      vertex 14.2034 8.50404 5
    endloop
  endfacet
  facet normal -0.0785126 -0.815475 0.573443
    outer loop
      vertex 19.4015 -10.0167 5
      vertex 16.1771 -9.70626 5
      vertex 15.8721 -13.1929 0
    endloop
  endfacet
  facet normal -0.0785432 -0.815462 0.573456
    outer loop
      vertex 19.0356 -13.4976 0
      vertex 19.4015 -10.0167 5
      vertex 15.8721 -13.1929 0
    endloop
  endfacet
  facet normal 0.0785145 0.815472 0.573446
    outer loop
      vertex 21.6488 11.3655 0
      vertex 18.051 11.7119 0
      vertex 17.7459 8.22524 5
    endloop
  endfacet
  facet normal 0.0785199 0.81547 0.573449
    outer loop
      vertex 21.283 7.88466 5
      vertex 21.6488 11.3655 0
      vertex 17.7459 8.22524 5
    endloop
  endfacet
  facet normal 0 -1 0
    outer loop
      vertex 0.000999451 8.4 0
      vertex 7 8.4 2.5
      vertex 0.000999451 8.4 2.5
    endloop
  endfacet
  facet normal 0 -1 -0
    outer loop
      vertex 7 8.4 2.5
      vertex 0.000999451 8.4 0
      vertex 7 8.4 0
    endloop
  endfacet
  facet normal 0 1 -0
    outer loop
      vertex 7 1.2 0
      vertex 0.000999451 1.2 2.5
      vertex 7 1.2 2.5
    endloop
  endfacet
  facet normal 0 1 0
    outer loop
      vertex 0.000999451 1.2 2.5
      vertex 7 1.2 0
      vertex 0.000999451 1.2 0
    endloop
  endfacet
  facet normal 0 -0.447214 -0.894427
    outer loop
      vertex 0.000999451 6.4 3.5
      vertex 7 8.4 2.5
      vertex 7 6.4 3.5
    endloop
  endfacet
  facet normal -0 -0.447214 -0.894427
    outer loop
      vertex 7 8.4 2.5
      vertex 0.000999451 6.4 3.5
      vertex 0.000999451 8.4 2.5
    endloop
  endfacet
  facet normal 0 0.413803 -0.910366
    outer loop
      vertex 0.000999451 1.2 2.5
      vertex 7 3.4 3.5
      vertex 7 1.2 2.5
    endloop
  endfacet
  facet normal 0 0.413803 -0.910366
    outer loop
      vertex 7 3.4 3.5
      vertex 0.000999451 1.2 2.5
      vertex 0.000999451 3.4 3.5
    endloop
  endfacet
  facet normal -1 0 0
    outer loop
      vertex 7 8.4 0
      vertex 7 6.4 3.5
      vertex 7 8.4 2.5
    endloop
  endfacet
  facet normal -1 0 0
    outer loop
      vertex 7 8.4 0
      vertex 7 3.4 3.5
      vertex 7 6.4 3.5
    endloop
  endfacet
  facet normal -1 0 0
    outer loop
      vertex 7 1.2 0
      vertex 7 3.4 3.5
      vertex 7 8.4 0
    endloop
  endfacet
  facet normal -1 0 0
    outer loop
      vertex 7 3.4 3.5
      vertex 7 1.2 0
      vertex 7 1.2 2.5
    endloop
  endfacet
  facet normal 0 0 1
    outer loop
      vertex 20.959 4.80243 3.5
      vertex 20.6664 2.01777 3.5
      vertex 20.6997 2.01426 3.5
    endloop
  endfacet
  facet normal 0 0 1
    outer loop
      vertex 17.6871 7.22647 3.5
      vertex 20.959 4.80243 3.5
      vertex 21.1784 6.88974 3.5
    endloop
  endfacet
  facet normal 0 0 1
    outer loop
      vertex 20.959 4.80243 3.5
      vertex 17.6871 7.22647 3.5
      vertex 20.6664 2.01777 3.5
    endloop
  endfacet
  facet normal 0 0 1
    outer loop
      vertex 14.1562 7.50483 3.5
      vertex 20.6664 2.01777 3.5
      vertex 17.6871 7.22647 3.5
    endloop
  endfacet
  facet normal 0 0 1
    outer loop
      vertex 20.6664 2.01777 3.5
      vertex 14.1562 7.50483 3.5
      vertex 20.6088 1.46999 3.5
    endloop
  endfacet
  facet normal 0 0 1
    outer loop
      vertex 20.6088 1.46999 3.5
      vertex 14.1562 7.50483 3.5
      vertex 13.1236 -3.72617 3.5
    endloop
  endfacet
  facet normal 0 0 1
    outer loop
      vertex 20.6088 1.46999 3.5
      vertex 13.1236 -3.72617 3.5
      vertex 19.9868 -4.44752 3.5
    endloop
  endfacet
  facet normal -0 0 1
    outer loop
      vertex 7 3.4 3.5
      vertex 13.1236 -3.72617 3.5
      vertex 14.1562 7.50483 3.5
    endloop
  endfacet
  facet normal 0 0 1
    outer loop
      vertex 7 3.4 3.5
      vertex 14.1562 7.50483 3.5
      vertex 10.6209 7.72142 3.5
    endloop
  endfacet
  facet normal 0 0 1
    outer loop
      vertex 20.9929 4.79887 3.5
      vertex 20.959 4.80243 3.5
      vertex 20.6997 2.01426 3.5
    endloop
  endfacet
  facet normal 0 0 1
    outer loop
      vertex 19.6732 -7.43108 3.5
      vertex 16.2903 -8.71244 3.5
      vertex 19.506 -9.02259 3.5
    endloop
  endfacet
  facet normal 0 0 1
    outer loop
      vertex 12.8101 -6.70973 3.5
      vertex 16.2903 -8.71244 3.5
      vertex 19.6732 -7.43108 3.5
    endloop
  endfacet
  facet normal 0 0 1
    outer loop
      vertex 16.2903 -8.71244 3.5
      vertex 12.8101 -6.70973 3.5
      vertex 13.0382 -8.45606 3.5
    endloop
  endfacet
  facet normal 0 0 1
    outer loop
      vertex 6.5231 -8.11405 3.5
      vertex 13.1236 -3.72617 3.5
      vertex 7 3.4 3.5
    endloop
  endfacet
  facet normal 0 0 1
    outer loop
      vertex 13.1236 -3.72617 3.5
      vertex 9.78215 -8.25658 3.5
      vertex 12.8101 -6.70973 3.5
    endloop
  endfacet
  facet normal 0 0 1
    outer loop
      vertex 7 6.4 3.5
      vertex 10.6209 7.72142 3.5
      vertex 7.08242 7.87617 3.5
    endloop
  endfacet
  facet normal 0 0 1
    outer loop
      vertex 7 3.4 3.5
      vertex 10.6209 7.72142 3.5
      vertex 7 6.4 3.5
    endloop
  endfacet
  facet normal 0 0 1
    outer loop
      vertex 12.8101 -6.70973 3.5
      vertex 9.78215 -8.25658 3.5
      vertex 13.0382 -8.45606 3.5
    endloop
  endfacet
  facet normal 0 0 1
    outer loop
      vertex 13.1236 -3.72617 3.5
      vertex 6.5231 -8.11405 3.5
      vertex 9.78215 -8.25658 3.5
    endloop
  endfacet
  facet normal 0 0 1
    outer loop
      vertex 7 3.4 3.5
      vertex 3.26205 -8.02851 3.5
      vertex 6.5231 -8.11405 3.5
    endloop
  endfacet
  facet normal -0 0 1
    outer loop
      vertex 0.000999451 3.4 3.5
      vertex 3.26205 -8.02851 3.5
      vertex 7 3.4 3.5
    endloop
  endfacet
  facet normal 0 0 1
    outer loop
      vertex 3.26205 -8.02851 3.5
      vertex 0.000999451 3.4 3.5
      vertex 0.000999451 -8.00001 3.5
    endloop
  endfacet
  facet normal 0 0 1
    outer loop
      vertex 3.54175 7.96904 3.5
      vertex 7 6.4 3.5
      vertex 7.08242 7.87617 3.5
    endloop
  endfacet
  facet normal 0 0 1
    outer loop
      vertex 0.000999451 6.4 3.5
      vertex 3.54175 7.96904 3.5
      vertex 0.000999451 7.99999 3.5
    endloop
  endfacet
  facet normal 0 0 1
    outer loop
      vertex 3.54175 7.96904 3.5
      vertex 0.000999451 6.4 3.5
      vertex 7 6.4 3.5
    endloop
  endfacet
  facet normal -0 0 1
    outer loop
      vertex 0 -3.101 3.5
      vertex 5.49316e-07 -5.901 3.5
      vertex 5.49316e-07 -3.101 3.5
    endloop
  endfacet
  facet normal 0 0 1
    outer loop
      vertex 5.49316e-07 -5.901 3.5
      vertex 0 -3.101 3.5
      vertex 0 -5.901 3.5
    endloop
  endfacet
  facet normal 1 -0 0
    outer loop
      vertex 0 -5.901 4.6
      vertex 0 -3.101 3.5
      vertex 0 -3.101 4.6
    endloop
  endfacet
  facet normal 1 0 0
    outer loop
      vertex 0 -3.101 3.5
      vertex 0 -5.901 4.6
      vertex 0 -5.901 3.5
    endloop
  endfacet
  facet normal -0.994502 0.104714 0
    outer loop
      vertex 20.9929 4.79887 3.5
      vertex 20.6997 2.01426 3.5
      vertex 20.9929 4.79887 4.6
    endloop
  endfacet
  facet normal -0.994509 0.10465 0
    outer loop
      vertex 20.9929 4.79887 4.6
      vertex 21.0244 5.09822 5.2
      vertex 21.0244 5.09822 4.6
    endloop
  endfacet
  facet normal -0.994502 0.104714 0
    outer loop
      vertex 20.6997 2.01426 4.6
      vertex 20.9929 4.79887 4.6
      vertex 20.6997 2.01426 3.5
    endloop
  endfacet
  facet normal -0.994502 0.104714 -3.22648e-05
    outer loop
      vertex 20.9929 4.79887 4.6
      vertex 20.6997 2.01426 4.6
      vertex 21.0244 5.09822 5.2
    endloop
  endfacet
  facet normal -0.994505 0.104685 0
    outer loop
      vertex 20.6684 1.71691 5.2
      vertex 20.6997 2.01426 4.6
      vertex 20.6684 1.71691 4.6
    endloop
  endfacet
  facet normal -0.994503 0.104706 1.05868e-05
    outer loop
      vertex 20.6997 2.01426 4.6
      vertex 20.6684 1.71691 5.2
      vertex 21.0244 5.09822 5.2
    endloop
  endfacet
  facet normal 0.00873918 0.999962 -0
    outer loop
      vertex 3.26205 -8.02851 3.5
      vertex 0.000999451 -8.00001 5
      vertex 3.26205 -8.02851 5
    endloop
  endfacet
  facet normal 0.00873918 0.999962 0
    outer loop
      vertex 0.000999451 -8.00001 5
      vertex 3.26205 -8.02851 3.5
      vertex 0.000999451 -8.00001 3.5
    endloop
  endfacet
  facet normal -0.00874075 -0.999962 0
    outer loop
      vertex 0.000999451 7.99999 3.5
      vertex 3.54175 7.96904 5
      vertex 0.000999451 7.99999 5
    endloop
  endfacet
  facet normal -0.00874075 -0.999962 -0
    outer loop
      vertex 3.54175 7.96904 5
      vertex 0.000999451 7.99999 3.5
      vertex 3.54175 7.96904 3.5
    endloop
  endfacet
  facet normal 0.0262218 0.999656 -0
    outer loop
      vertex 6.5231 -8.11405 3.5
      vertex 3.26205 -8.02851 5
      vertex 6.5231 -8.11405 5
    endloop
  endfacet
  facet normal 0.0262218 0.999656 0
    outer loop
      vertex 3.26205 -8.02851 5
      vertex 6.5231 -8.11405 3.5
      vertex 3.26205 -8.02851 3.5
    endloop
  endfacet
  facet normal -0.0262205 -0.999656 0
    outer loop
      vertex 3.54175 7.96904 3.5
      vertex 7.08242 7.87617 5
      vertex 3.54175 7.96904 5
    endloop
  endfacet
  facet normal -0.0262205 -0.999656 -0
    outer loop
      vertex 7.08242 7.87617 5
      vertex 3.54175 7.96904 3.5
      vertex 7.08242 7.87617 3.5
    endloop
  endfacet
  facet normal 0.0436918 0.999045 -0
    outer loop
      vertex 9.78215 -8.25658 3.5
      vertex 6.5231 -8.11405 5
      vertex 9.78215 -8.25658 5
    endloop
  endfacet
  facet normal 0.0436918 0.999045 0
    outer loop
      vertex 6.5231 -8.11405 5
      vertex 9.78215 -8.25658 3.5
      vertex 6.5231 -8.11405 3.5
    endloop
  endfacet
  facet normal -0.0436917 -0.999045 0
    outer loop
      vertex 7.08242 7.87617 3.5
      vertex 10.6209 7.72142 5
      vertex 7.08242 7.87617 5
    endloop
  endfacet
  facet normal -0.0436917 -0.999045 -0
    outer loop
      vertex 10.6209 7.72142 5
      vertex 7.08242 7.87617 3.5
      vertex 10.6209 7.72142 3.5
    endloop
  endfacet
  facet normal 0.0611498 0.998129 -0
    outer loop
      vertex 13.0382 -8.45606 3.5
      vertex 9.78215 -8.25658 5
      vertex 13.0382 -8.45606 5
    endloop
  endfacet
  facet normal 0.0611498 0.998129 0
    outer loop
      vertex 9.78215 -8.25658 5
      vertex 13.0382 -8.45606 3.5
      vertex 9.78215 -8.25658 3.5
    endloop
  endfacet
  facet normal -0.0611503 -0.998129 0
    outer loop
      vertex 10.6209 7.72142 3.5
      vertex 14.1562 7.50483 5
      vertex 10.6209 7.72142 5
    endloop
  endfacet
  facet normal -0.0611503 -0.998129 -0
    outer loop
      vertex 14.1562 7.50483 5
      vertex 10.6209 7.72142 3.5
      vertex 14.1562 7.50483 3.5
    endloop
  endfacet
  facet normal 0.0785914 0.996907 -0
    outer loop
      vertex 16.2903 -8.71244 3.5
      vertex 13.0382 -8.45606 5
      vertex 16.2903 -8.71244 5
    endloop
  endfacet
  facet normal 0.0785914 0.996907 0
    outer loop
      vertex 13.0382 -8.45606 5
      vertex 16.2903 -8.71244 3.5
      vertex 13.0382 -8.45606 3.5
    endloop
  endfacet
  facet normal -0.0785916 -0.996907 0
    outer loop
      vertex 14.1562 7.50483 3.5
      vertex 17.6871 7.22647 5
      vertex 14.1562 7.50483 5
    endloop
  endfacet
  facet normal -0.0785916 -0.996907 -0
    outer loop
      vertex 17.6871 7.22647 5
      vertex 14.1562 7.50483 3.5
      vertex 17.6871 7.22647 3.5
    endloop
  endfacet
  facet normal 0.0960032 0.995381 -0
    outer loop
      vertex 19.506 -9.02259 3.5
      vertex 16.2903 -8.71244 5
      vertex 19.506 -9.02259 5
    endloop
  endfacet
  facet normal 0.0960032 0.995381 0
    outer loop
      vertex 16.2903 -8.71244 5
      vertex 19.506 -9.02259 3.5
      vertex 16.2903 -8.71244 3.5
    endloop
  endfacet
  facet normal -0.0960028 -0.995381 0
    outer loop
      vertex 17.6871 7.22647 5
      vertex 21.1784 6.88974 4.76735
      vertex 21.1784 6.88974 5
    endloop
  endfacet
  facet normal -0.0960028 -0.995381 0
    outer loop
      vertex 17.6871 7.22647 3.5
      vertex 21.1784 6.88974 4.76735
      vertex 17.6871 7.22647 5
    endloop
  endfacet
  facet normal -0.0960028 -0.995381 -0
    outer loop
      vertex 21.1784 6.88974 4.76735
      vertex 17.6871 7.22647 3.5
      vertex 21.1784 6.88974 3.5
    endloop
  endfacet
  facet normal 0.104528 0.994522 -0
    outer loop
      vertex 19.4642 -9.42013 0.953464
      vertex 12.601 -8.69878 2.5
      vertex 19.4642 -9.42013 2.5
    endloop
  endfacet
  facet normal 0.104528 0.994522 0
    outer loop
      vertex 12.601 -8.69878 0
      vertex 19.4642 -9.42013 0.953464
      vertex 19.4642 -9.42013 0
    endloop
  endfacet
  facet normal 0.104528 0.994522 0
    outer loop
      vertex 19.4642 -9.42013 0.953464
      vertex 12.601 -8.69878 0
      vertex 12.601 -8.69878 2.5
    endloop
  endfacet
  facet normal -0.104528 -0.994522 0
    outer loop
      vertex 13.3536 -1.53822 0
      vertex 20.2168 -2.25957 2.5
      vertex 13.3536 -1.53822 2.5
    endloop
  endfacet
  facet normal -0.104528 -0.994522 -0
    outer loop
      vertex 20.2168 -2.25957 2.5
      vertex 13.3536 -1.53822 0
      vertex 20.2168 -2.25957 0
    endloop
  endfacet
  facet normal 0.994523 -0.104519 0
    outer loop
      vertex 13.3536 -1.53822 0
      vertex 13.3536 -1.53822 2.5
      vertex 12.8101 -6.70973 3.5
    endloop
  endfacet
  facet normal 0.99452 -0.104549 0
    outer loop
      vertex 12.8101 -6.70973 3.5
      vertex 12.601 -8.69878 2.5
      vertex 12.601 -8.69878 0
    endloop
  endfacet
  facet normal 0.0467466 0.444765 -0.894426
    outer loop
      vertex 19.6703 -7.45922 3.48586
      vertex 19.4642 -9.42013 2.5
      vertex 12.601 -8.69878 2.5
    endloop
  endfacet
  facet normal 0.994522 -0.104528 -1.24629e-05
    outer loop
      vertex 13.3536 -1.53822 0
      vertex 12.8101 -6.70973 3.5
      vertex 12.601 -8.69878 0
    endloop
  endfacet
  facet normal 0.994525 -0.104501 9.88255e-05
    outer loop
      vertex 13.3536 -1.53822 2.5
      vertex 13.1236 -3.72617 3.5
      vertex 12.8101 -6.70973 3.5
    endloop
  endfacet
  facet normal 0.0467353 0.444651 -0.894484
    outer loop
      vertex 19.6703 -7.45922 3.48586
      vertex 12.8101 -6.70973 3.5
      vertex 19.6732 -7.43108 3.5
    endloop
  endfacet
  facet normal 0.0467475 0.444762 -0.894428
    outer loop
      vertex 12.8101 -6.70973 3.5
      vertex 19.6703 -7.45922 3.48586
      vertex 12.601 -8.69878 2.5
    endloop
  endfacet
  facet normal -0.0432533 -0.411528 -0.91037
    outer loop
      vertex 20.1973 -2.44467 2.5846
      vertex 13.3536 -1.53822 2.5
      vertex 20.2168 -2.25957 2.5
    endloop
  endfacet
  facet normal -0.0432541 -0.411536 -0.910367
    outer loop
      vertex 13.1236 -3.72617 3.5
      vertex 20.1973 -2.44467 2.5846
      vertex 19.9868 -4.44752 3.5
    endloop
  endfacet
  facet normal -0.0432542 -0.411535 -0.910367
    outer loop
      vertex 20.1973 -2.44467 2.5846
      vertex 13.1236 -3.72617 3.5
      vertex 13.3536 -1.53822 2.5
    endloop
  endfacet
endsolid OpenSCAD_Model
