solid OpenSCAD_Model
  facet normal -1 0 0
    outer loop
      vertex -5.999 -8 0
      vertex -5.999 -5.901 2.6
      vertex -5.999 -5.901 0
    endloop
  endfacet
  facet normal -1 -0 0
    outer loop
      vertex -5.999 -5.901 2.6
      vertex -5.999 -8 0
      vertex -5.999 -8 2.6
    endloop
  endfacet
  facet normal -1 0 0
    outer loop
      vertex -5.999 -3.101 0
      vertex -5.999 -1 2.6
      vertex -5.999 -1 0
    endloop
  endfacet
  facet normal -1 -0 0
    outer loop
      vertex -5.999 -1 2.6
      vertex -5.999 -3.101 0
      vertex -5.999 -3.101 2.6
    endloop
  endfacet
  facet normal -0 0 1
    outer loop
      vertex -5.999 -5.901 2.6
      vertex 0 -8 2.6
      vertex 0 -5.901 2.6
    endloop
  endfacet
  facet normal 0 0 1
    outer loop
      vertex 0 -8 2.6
      vertex -5.999 -5.901 2.6
      vertex -5.999 -8 2.6
    endloop
  endfacet
  facet normal -0 0 1
    outer loop
      vertex -5.999 -1 2.6
      vertex 0 -3.101 2.6
      vertex 0 -1 2.6
    endloop
  endfacet
  facet normal 0 0 1
    outer loop
      vertex 0 -3.101 2.6
      vertex -5.999 -1 2.6
      vertex -5.999 -3.101 2.6
    endloop
  endfacet
  facet normal 0 0 -1
    outer loop
      vertex -6 -5.901 0
      vertex -5.999 -3.101 0
      vertex -5.999 -5.901 0
    endloop
  endfacet
  facet normal -0 0 -1
    outer loop
      vertex -5.999 -3.101 0
      vertex -6 -5.901 0
      vertex -6 -3.101 0
    endloop
  endfacet
  facet normal 0 0 -1
    outer loop
      vertex -5.999 -5.901 0
      vertex 0 -8 0
      vertex -5.999 -8 0
    endloop
  endfacet
  facet normal 0 0 -1
    outer loop
      vertex 0 -8 0
      vertex -5.999 -5.901 0
      vertex 0 -1 0
    endloop
  endfacet
  facet normal 0 0 -1
    outer loop
      vertex -5.999 -3.101 0
      vertex 0 -1 0
      vertex -5.999 -5.901 0
    endloop
  endfacet
  facet normal -0 0 -1
    outer loop
      vertex 0 -1 0
      vertex -5.999 -3.101 0
      vertex -5.999 -1 0
    endloop
  endfacet
  facet normal 0 0 -1
    outer loop
      vertex 50 -12.5 0
      vertex 43 -8.4 0
      vertex 50 -8.4 0
    endloop
  endfacet
  facet normal 0 0 -1
    outer loop
      vertex 43 -8.4 0
      vertex 7 1.2 0
      vertex 43 -1.2 0
    endloop
  endfacet
  facet normal 0 0 -1
    outer loop
      vertex 0 -12.5 0
      vertex 43 -8.4 0
      vertex 50 -12.5 0
    endloop
  endfacet
  facet normal -0 0 -1
    outer loop
      vertex 43 -8.4 0
      vertex 0 -12.5 0
      vertex 7 1.2 0
    endloop
  endfacet
  facet normal 0 0 -1
    outer loop
      vertex 0 -8 0
      vertex 7 1.2 0
      vertex 0 -12.5 0
    endloop
  endfacet
  facet normal 0 0 -1
    outer loop
      vertex 0 -1 0
      vertex 7 1.2 0
      vertex 0 -8 0
    endloop
  endfacet
  facet normal -0 0 -1
    outer loop
      vertex 7 1.2 0
      vertex 0 -1 0
      vertex 0 1.2 0
    endloop
  endfacet
  facet normal 0 0 -1
    outer loop
      vertex 43 -1.2 0
      vertex 50 1 0
      vertex 50 -1.2 0
    endloop
  endfacet
  facet normal -0 0 -1
    outer loop
      vertex 50 1 0
      vertex 43 -1.2 0
      vertex 50 8 0
    endloop
  endfacet
  facet normal -0 0 -1
    outer loop
      vertex 50 8 0
      vertex 43 -1.2 0
      vertex 50 12.5 0
    endloop
  endfacet
  facet normal 0 0 -1
    outer loop
      vertex 7 8.4 0
      vertex 43 -1.2 0
      vertex 7 1.2 0
    endloop
  endfacet
  facet normal 0 0 -1
    outer loop
      vertex 43 -1.2 0
      vertex 7 8.4 0
      vertex 50 12.5 0
    endloop
  endfacet
  facet normal 0 0 -1
    outer loop
      vertex 0 12.5 0
      vertex 7 8.4 0
      vertex 0 8.4 0
    endloop
  endfacet
  facet normal 0 0 -1
    outer loop
      vertex 7 8.4 0
      vertex 0 12.5 0
      vertex 50 12.5 0
    endloop
  endfacet
  facet normal 0 0 -1
    outer loop
      vertex 50 1 0
      vertex 56 3.101 0
      vertex 56 1 0
    endloop
  endfacet
  facet normal -0 0 -1
    outer loop
      vertex 56 3.101 0
      vertex 50 1 0
      vertex 56 5.901 0
    endloop
  endfacet
  facet normal 0 0 -1
    outer loop
      vertex 50 8 0
      vertex 56 5.901 0
      vertex 50 1 0
    endloop
  endfacet
  facet normal 0 0 -1
    outer loop
      vertex 56 5.901 0
      vertex 50 8 0
      vertex 56 8 0
    endloop
  endfacet
  facet normal 0 0 -1
    outer loop
      vertex 56 3.101 0
      vertex 56.001 5.901 0
      vertex 56.001 3.101 0
    endloop
  endfacet
  facet normal -0 0 -1
    outer loop
      vertex 56.001 5.901 0
      vertex 56 3.101 0
      vertex 56 5.901 0
    endloop
  endfacet
  facet normal 0 -1 0
    outer loop
      vertex -5.999 -8 0
      vertex 0 -8 2.6
      vertex -5.999 -8 2.6
    endloop
  endfacet
  facet normal 0 -1 -0
    outer loop
      vertex 0 -8 2.6
      vertex -5.999 -8 0
      vertex 0 -8 0
    endloop
  endfacet
  facet normal 0 1 -0
    outer loop
      vertex 0 -1 0
      vertex -5.999 -1 2.6
      vertex 0 -1 2.6
    endloop
  endfacet
  facet normal 0 1 0
    outer loop
      vertex -5.999 -1 2.6
      vertex 0 -1 0
      vertex -5.999 -1 0
    endloop
  endfacet
  facet normal -1 0 0
    outer loop
      vertex -6 -5.901 0
      vertex -6 -3.101 4.6
      vertex -6 -3.101 0
    endloop
  endfacet
  facet normal -1 -0 0
    outer loop
      vertex -6 -3.101 4.6
      vertex -6 -5.901 0
      vertex -6 -5.901 4.6
    endloop
  endfacet
  facet normal 0 0 -1
    outer loop
      vertex -0.000999855 -6.202 4.6
      vertex -6 -5.901 4.6
      vertex -0.000999855 -5.901 4.6
    endloop
  endfacet
  facet normal -0 0 -1
    outer loop
      vertex -6 -5.901 4.6
      vertex -6.001 -6.202 4.6
      vertex -6 -3.101 4.6
    endloop
  endfacet
  facet normal 0 0 -1
    outer loop
      vertex -6.001 -6.202 4.6
      vertex -6 -5.901 4.6
      vertex -0.000999855 -6.202 4.6
    endloop
  endfacet
  facet normal 0 0 -1
    outer loop
      vertex -6 -3.101 4.6
      vertex -0.000999855 -2.802 4.6
      vertex -0.000999855 -3.101 4.6
    endloop
  endfacet
  facet normal 0 0 -1
    outer loop
      vertex -6 -3.101 4.6
      vertex -6.001 -2.802 4.6
      vertex -0.000999855 -2.802 4.6
    endloop
  endfacet
  facet normal 0 0 -1
    outer loop
      vertex -6.001 -2.802 4.6
      vertex -6 -3.101 4.6
      vertex -6.001 -6.202 4.6
    endloop
  endfacet
  facet normal -0 0 1
    outer loop
      vertex -0.000999855 -3.101 4.6
      vertex 0 -5.901 4.6
      vertex 0 -3.101 4.6
    endloop
  endfacet
  facet normal 0 0 1
    outer loop
      vertex 0 -5.901 4.6
      vertex -0.000999855 -3.101 4.6
      vertex -0.000999855 -5.901 4.6
    endloop
  endfacet
  facet normal 0 -1 0
    outer loop
      vertex 0 -5.901 3.5
      vertex -0.000999855 -5.901 4.6
      vertex -6 -5.901 4.6
    endloop
  endfacet
  facet normal 0 -1 0
    outer loop
      vertex -0.000999855 -5.901 4.6
      vertex 0 -5.901 3.5
      vertex 0 -5.901 4.6
    endloop
  endfacet
  facet normal 0 -1 0
    outer loop
      vertex -6 -5.901 4.6
      vertex -5.999 -5.901 2.6
      vertex 0 -5.901 3.5
    endloop
  endfacet
  facet normal 0 -1 0
    outer loop
      vertex -6 -5.901 0
      vertex -5.999 -5.901 2.6
      vertex -6 -5.901 4.6
    endloop
  endfacet
  facet normal 0 -1 -0
    outer loop
      vertex -5.999 -5.901 2.6
      vertex -6 -5.901 0
      vertex -5.999 -5.901 0
    endloop
  endfacet
  facet normal 0 -1 -0
    outer loop
      vertex 0 -5.901 3.5
      vertex -5.999 -5.901 2.6
      vertex 0 -5.901 2.6
    endloop
  endfacet
  facet normal 0 1 -0
    outer loop
      vertex 0 -3.101 3.5
      vertex -0.000999855 -3.101 4.6
      vertex 0 -3.101 4.6
    endloop
  endfacet
  facet normal 0 1 0
    outer loop
      vertex -0.000999855 -3.101 4.6
      vertex 0 -3.101 3.5
      vertex -6 -3.101 4.6
    endloop
  endfacet
  facet normal 0 1 0
    outer loop
      vertex -5.999 -3.101 2.6
      vertex 0 -3.101 3.5
      vertex 0 -3.101 2.6
    endloop
  endfacet
  facet normal 0 1 0
    outer loop
      vertex 0 -3.101 3.5
      vertex -5.999 -3.101 2.6
      vertex -6 -3.101 4.6
    endloop
  endfacet
  facet normal 0 1 0
    outer loop
      vertex -6 -3.101 0
      vertex -5.999 -3.101 2.6
      vertex -5.999 -3.101 0
    endloop
  endfacet
  facet normal 0 1 0
    outer loop
      vertex -5.999 -3.101 2.6
      vertex -6 -3.101 0
      vertex -6 -3.101 4.6
    endloop
  endfacet
  facet normal -1 0 0
    outer loop
      vertex -6.001 -6.202 4.6
      vertex -6.001 -2.802 5.2
      vertex -6.001 -2.802 4.6
    endloop
  endfacet
  facet normal -1 -0 0
    outer loop
      vertex -6.001 -2.802 5.2
      vertex -6.001 -6.202 4.6
      vertex -6.001 -6.202 5.2
    endloop
  endfacet
  facet normal -0 0 1
    outer loop
      vertex -6.001 -2.802 5.2
      vertex -0.000999855 -6.202 5.2
      vertex -0.000999855 -2.802 5.2
    endloop
  endfacet
  facet normal 0 0 1
    outer loop
      vertex -0.000999855 -6.202 5.2
      vertex -6.001 -2.802 5.2
      vertex -6.001 -6.202 5.2
    endloop
  endfacet
  facet normal 1 0 0
    outer loop
      vertex -0.000999855 -2.802 5.2
      vertex -0.000999855 -3.101 4.6
      vertex -0.000999855 -2.802 4.6
    endloop
  endfacet
  facet normal 1 0 0
    outer loop
      vertex -0.000999855 -2.802 5.2
      vertex -0.000999855 -5.901 4.6
      vertex -0.000999855 -3.101 4.6
    endloop
  endfacet
  facet normal 1 -0 0
    outer loop
      vertex -0.000999855 -6.202 5.2
      vertex -0.000999855 -5.901 4.6
      vertex -0.000999855 -2.802 5.2
    endloop
  endfacet
  facet normal 1 0 0
    outer loop
      vertex -0.000999855 -5.901 4.6
      vertex -0.000999855 -6.202 5.2
      vertex -0.000999855 -6.202 4.6
    endloop
  endfacet
  facet normal 0 -1 0
    outer loop
      vertex -6.001 -6.202 4.6
      vertex -0.000999855 -6.202 5.2
      vertex -6.001 -6.202 5.2
    endloop
  endfacet
  facet normal 0 -1 -0
    outer loop
      vertex -0.000999855 -6.202 5.2
      vertex -6.001 -6.202 4.6
      vertex -0.000999855 -6.202 4.6
    endloop
  endfacet
  facet normal 0 1 -0
    outer loop
      vertex -0.000999855 -2.802 4.6
      vertex -6.001 -2.802 5.2
      vertex -0.000999855 -2.802 5.2
    endloop
  endfacet
  facet normal 0 1 0
    outer loop
      vertex -6.001 -2.802 5.2
      vertex -0.000999855 -2.802 4.6
      vertex -6.001 -2.802 4.6
    endloop
  endfacet
  facet normal 1 -0 0
    outer loop
      vertex 56 5.901 2.6
      vertex 56 8 0
      vertex 56 8 2.6
    endloop
  endfacet
  facet normal 1 0 0
    outer loop
      vertex 56 8 0
      vertex 56 5.901 2.6
      vertex 56 5.901 0
    endloop
  endfacet
  facet normal 1 -0 0
    outer loop
      vertex 56 1 2.6
      vertex 56 3.101 0
      vertex 56 3.101 2.6
    endloop
  endfacet
  facet normal 1 0 0
    outer loop
      vertex 56 3.101 0
      vertex 56 1 2.6
      vertex 56 1 0
    endloop
  endfacet
  facet normal 0 0 1
    outer loop
      vertex 56 8 2.6
      vertex 50.001 5.901 2.6
      vertex 56 5.901 2.6
    endloop
  endfacet
  facet normal 0 0 1
    outer loop
      vertex 50.001 5.901 2.6
      vertex 50 8 2.6
      vertex 50.001 3.101 2.6
    endloop
  endfacet
  facet normal -0 0 1
    outer loop
      vertex 50 8 2.6
      vertex 50.001 5.901 2.6
      vertex 56 8 2.6
    endloop
  endfacet
  facet normal -0 0 1
    outer loop
      vertex 50.001 3.101 2.6
      vertex 56 1 2.6
      vertex 56 3.101 2.6
    endloop
  endfacet
  facet normal 0 0 1
    outer loop
      vertex 50.001 3.101 2.6
      vertex 50 1 2.6
      vertex 56 1 2.6
    endloop
  endfacet
  facet normal 0 0 1
    outer loop
      vertex 50 1 2.6
      vertex 50.001 3.101 2.6
      vertex 50 8 2.6
    endloop
  endfacet
  facet normal 1 0 0
    outer loop
      vertex 50 8 3.5
      vertex 50 1 2.6
      vertex 50 8 2.6
    endloop
  endfacet
  facet normal 1 0 0
    outer loop
      vertex 50 1 2.6
      vertex 50 -1.2 2.5
      vertex 50 1 0
    endloop
  endfacet
  facet normal 1 -0 0
    outer loop
      vertex 50 -3.4 3.5
      vertex 50 1 2.6
      vertex 50 8 3.5
    endloop
  endfacet
  facet normal 1 0 0
    outer loop
      vertex 50 1 2.6
      vertex 50 -3.4 3.5
      vertex 50 -1.2 2.5
    endloop
  endfacet
  facet normal 1 0 0
    outer loop
      vertex 50 8 3.5
      vertex 50 9 5
      vertex 50 8 5
    endloop
  endfacet
  facet normal 1 0 0
    outer loop
      vertex 50 8 2.6
      vertex 50 9 5
      vertex 50 8 3.5
    endloop
  endfacet
  facet normal 1 0 0
    outer loop
      vertex 50 9 5
      vertex 50 8 2.6
      vertex 50 12.5 0
    endloop
  endfacet
  facet normal 1 0 0
    outer loop
      vertex 50 12.5 0
      vertex 50 8 2.6
      vertex 50 8 0
    endloop
  endfacet
  facet normal 1 0 0
    outer loop
      vertex 50 1 0
      vertex 50 -1.2 2.5
      vertex 50 -1.2 0
    endloop
  endfacet
  facet normal 1 -0 0
    outer loop
      vertex 50 -9 5
      vertex 50 -8 3.5
      vertex 50 -8 5
    endloop
  endfacet
  facet normal 1 0 0
    outer loop
      vertex 50 -8 3.5
      vertex 50 -9 5
      vertex 50 -8.4 2.5
    endloop
  endfacet
  facet normal 1 0 0
    outer loop
      vertex 50 -12.5 0
      vertex 50 -8.4 2.5
      vertex 50 -9 5
    endloop
  endfacet
  facet normal 1 0 0
    outer loop
      vertex 50 -8.4 2.5
      vertex 50 -12.5 0
      vertex 50 -8.4 0
    endloop
  endfacet
  facet normal 1 0 0
    outer loop
      vertex 50 -6.4 3.5
      vertex 50 -8 3.5
      vertex 50 -8.4 2.5
    endloop
  endfacet
  facet normal 0 1 -0
    outer loop
      vertex 56 8 0
      vertex 50 8 2.6
      vertex 56 8 2.6
    endloop
  endfacet
  facet normal 0 1 0
    outer loop
      vertex 50 8 2.6
      vertex 56 8 0
      vertex 50 8 0
    endloop
  endfacet
  facet normal 0 -1 0
    outer loop
      vertex 50 1 0
      vertex 56 1 2.6
      vertex 50 1 2.6
    endloop
  endfacet
  facet normal 0 -1 -0
    outer loop
      vertex 56 1 2.6
      vertex 50 1 0
      vertex 56 1 0
    endloop
  endfacet
  facet normal 1 -0 0
    outer loop
      vertex 56.001 3.101 4.6
      vertex 56.001 5.901 0
      vertex 56.001 5.901 4.6
    endloop
  endfacet
  facet normal 1 0 0
    outer loop
      vertex 56.001 5.901 0
      vertex 56.001 3.101 4.6
      vertex 56.001 3.101 0
    endloop
  endfacet
  facet normal 0 0 -1
    outer loop
      vertex 56.002 2.802 4.6
      vertex 56.001 3.101 4.6
      vertex 56.002 6.202 4.6
    endloop
  endfacet
  facet normal 0 0 -1
    outer loop
      vertex 50.002 2.802 4.6
      vertex 56.001 3.101 4.6
      vertex 56.002 2.802 4.6
    endloop
  endfacet
  facet normal -0 0 -1
    outer loop
      vertex 56.001 3.101 4.6
      vertex 50.002 2.802 4.6
      vertex 50.002 3.101 4.6
    endloop
  endfacet
  facet normal 0 0 -1
    outer loop
      vertex 56.001 5.901 4.6
      vertex 56.002 6.202 4.6
      vertex 56.001 3.101 4.6
    endloop
  endfacet
  facet normal 0 0 -1
    outer loop
      vertex 50.002 5.901 4.6
      vertex 56.002 6.202 4.6
      vertex 56.001 5.901 4.6
    endloop
  endfacet
  facet normal -0 0 -1
    outer loop
      vertex 56.002 6.202 4.6
      vertex 50.002 5.901 4.6
      vertex 50.002 6.202 4.6
    endloop
  endfacet
  facet normal -0 0 1
    outer loop
      vertex 50.001 5.901 4.6
      vertex 50.002 3.101 4.6
      vertex 50.002 5.901 4.6
    endloop
  endfacet
  facet normal 0 0 1
    outer loop
      vertex 50.002 3.101 4.6
      vertex 50.001 5.901 4.6
      vertex 50.001 3.101 4.6
    endloop
  endfacet
  facet normal -1 0 0
    outer loop
      vertex 50.001 3.101 2.6
      vertex 50.001 5.901 4.6
      vertex 50.001 5.901 2.6
    endloop
  endfacet
  facet normal -1 -0 0
    outer loop
      vertex 50.001 5.901 4.6
      vertex 50.001 3.101 2.6
      vertex 50.001 3.101 4.6
    endloop
  endfacet
  facet normal 0 1 -0
    outer loop
      vertex 56 5.901 2.6
      vertex 50.002 5.901 4.6
      vertex 56.001 5.901 4.6
    endloop
  endfacet
  facet normal 0 1 0
    outer loop
      vertex 50.001 5.901 2.6
      vertex 50.002 5.901 4.6
      vertex 56 5.901 2.6
    endloop
  endfacet
  facet normal 0 1 -0
    outer loop
      vertex 56.001 5.901 0
      vertex 56 5.901 2.6
      vertex 56.001 5.901 4.6
    endloop
  endfacet
  facet normal 0 1 0
    outer loop
      vertex 56 5.901 2.6
      vertex 56.001 5.901 0
      vertex 56 5.901 0
    endloop
  endfacet
  facet normal 0 1 0
    outer loop
      vertex 50.002 5.901 4.6
      vertex 50.001 5.901 2.6
      vertex 50.001 5.901 4.6
    endloop
  endfacet
  facet normal 0 -1 0
    outer loop
      vertex 50.001 3.101 2.6
      vertex 50.002 3.101 4.6
      vertex 50.001 3.101 4.6
    endloop
  endfacet
  facet normal 0 -1 -0
    outer loop
      vertex 50.002 3.101 4.6
      vertex 50.001 3.101 2.6
      vertex 56.001 3.101 4.6
    endloop
  endfacet
  facet normal 0 -1 0
    outer loop
      vertex 56 3.101 2.6
      vertex 56.001 3.101 4.6
      vertex 50.001 3.101 2.6
    endloop
  endfacet
  facet normal 0 -1 0
    outer loop
      vertex 56.001 3.101 0
      vertex 56 3.101 2.6
      vertex 56 3.101 0
    endloop
  endfacet
  facet normal 0 -1 0
    outer loop
      vertex 56 3.101 2.6
      vertex 56.001 3.101 0
      vertex 56.001 3.101 4.6
    endloop
  endfacet
  facet normal 1 -0 0
    outer loop
      vertex 56.002 2.802 5.2
      vertex 56.002 6.202 4.6
      vertex 56.002 6.202 5.2
    endloop
  endfacet
  facet normal 1 0 0
    outer loop
      vertex 56.002 6.202 4.6
      vertex 56.002 2.802 5.2
      vertex 56.002 2.802 4.6
    endloop
  endfacet
  facet normal -0 0 1
    outer loop
      vertex 50.002 6.202 5.2
      vertex 56.002 2.802 5.2
      vertex 56.002 6.202 5.2
    endloop
  endfacet
  facet normal 0 0 1
    outer loop
      vertex 56.002 2.802 5.2
      vertex 50.002 6.202 5.2
      vertex 50.002 2.802 5.2
    endloop
  endfacet
  facet normal -1 0 0
    outer loop
      vertex 50.002 5.901 4.6
      vertex 50.002 6.202 5.2
      vertex 50.002 6.202 4.6
    endloop
  endfacet
  facet normal -1 0 0
    outer loop
      vertex 50.002 3.101 4.6
      vertex 50.002 6.202 5.2
      vertex 50.002 5.901 4.6
    endloop
  endfacet
  facet normal -1 0 0
    outer loop
      vertex 50.002 2.802 5.2
      vertex 50.002 3.101 4.6
      vertex 50.002 2.802 4.6
    endloop
  endfacet
  facet normal -1 0 0
    outer loop
      vertex 50.002 3.101 4.6
      vertex 50.002 2.802 5.2
      vertex 50.002 6.202 5.2
    endloop
  endfacet
  facet normal 0 1 -0
    outer loop
      vertex 56.002 6.202 4.6
      vertex 50.002 6.202 5.2
      vertex 56.002 6.202 5.2
    endloop
  endfacet
  facet normal 0 1 0
    outer loop
      vertex 50.002 6.202 5.2
      vertex 56.002 6.202 4.6
      vertex 50.002 6.202 4.6
    endloop
  endfacet
  facet normal 0 -1 0
    outer loop
      vertex 50.002 2.802 4.6
      vertex 56.002 2.802 5.2
      vertex 50.002 2.802 5.2
    endloop
  endfacet
  facet normal 0 -1 -0
    outer loop
      vertex 56.002 2.802 5.2
      vertex 50.002 2.802 4.6
      vertex 56.002 2.802 4.6
    endloop
  endfacet
  facet normal -1 0 0
    outer loop
      vertex 0 8.4 2.5
      vertex 0 6.4 3.5
      vertex 0 8 3.5
    endloop
  endfacet
  facet normal -1 0 0
    outer loop
      vertex 0 8.4 2.5
      vertex 0 12.5 0
      vertex 0 8.4 0
    endloop
  endfacet
  facet normal -1 0 0
    outer loop
      vertex 0 12.5 0
      vertex 0 8.4 2.5
      vertex 0 9 5
    endloop
  endfacet
  facet normal -1 0 0
    outer loop
      vertex 0 8 3.5
      vertex 0 9 5
      vertex 0 8.4 2.5
    endloop
  endfacet
  facet normal -1 -0 0
    outer loop
      vertex 0 9 5
      vertex 0 8 3.5
      vertex 0 8 5
    endloop
  endfacet
  facet normal -1 0 0
    outer loop
      vertex 0 -12.5 0
      vertex 0 -8 2.6
      vertex 0 -8 0
    endloop
  endfacet
  facet normal -1 0 -0
    outer loop
      vertex 0 -9 5
      vertex 0 -8 2.6
      vertex 0 -12.5 0
    endloop
  endfacet
  facet normal -1 0 0
    outer loop
      vertex 0 -8 3.5
      vertex 0 -9 5
      vertex 0 -8 5
    endloop
  endfacet
  facet normal -1 0 0
    outer loop
      vertex 0 -8 2.6
      vertex 0 -9 5
      vertex 0 -8 3.5
    endloop
  endfacet
  facet normal -1 0 0
    outer loop
      vertex 0 -8 2.6
      vertex 0 -5.901 3.5
      vertex 0 -5.901 2.6
    endloop
  endfacet
  facet normal -1 -0 0
    outer loop
      vertex 0 -5.901 3.5
      vertex 0 -8 2.6
      vertex 0 -8 3.5
    endloop
  endfacet
  facet normal -1 0 0
    outer loop
      vertex 0 1.2 0
      vertex 0 -1 0
      vertex 0 1.2 2.5
    endloop
  endfacet
  facet normal -1 0 0
    outer loop
      vertex 0 -1 2.6
      vertex 0 1.2 2.5
      vertex 0 -1 0
    endloop
  endfacet
  facet normal -1 0 0
    outer loop
      vertex 0 -1 2.6
      vertex 0 3.4 3.5
      vertex 0 1.2 2.5
    endloop
  endfacet
  facet normal -1 0 0
    outer loop
      vertex 0 -3.101 3.5
      vertex 0 -1 2.6
      vertex 0 -3.101 2.6
    endloop
  endfacet
  facet normal -1 0 0
    outer loop
      vertex 0 -1 2.6
      vertex 0 -3.101 3.5
      vertex 0 3.4 3.5
    endloop
  endfacet
  facet normal -0 0 1
    outer loop
      vertex 0 9 5
      vertex 50 8 5
      vertex 50 9 5
    endloop
  endfacet
  facet normal 0 0 1
    outer loop
      vertex 50 8 5
      vertex 0 9 5
      vertex 0 8 5
    endloop
  endfacet
  facet normal 0 -1 0
    outer loop
      vertex 0 8 3.5
      vertex 50 8 5
      vertex 0 8 5
    endloop
  endfacet
  facet normal 0 -1 -0
    outer loop
      vertex 50 8 5
      vertex 0 8 3.5
      vertex 50 8 3.5
    endloop
  endfacet
  facet normal 0 0 1
    outer loop
      vertex 50 8 3.5
      vertex 43 -3.4 3.5
      vertex 50 -3.4 3.5
    endloop
  endfacet
  facet normal -0 0 1
    outer loop
      vertex 7 3.4 3.5
      vertex 43 -3.4 3.5
      vertex 7 6.4 3.5
    endloop
  endfacet
  facet normal 0 0 1
    outer loop
      vertex 50 8 3.5
      vertex 7 6.4 3.5
      vertex 43 -3.4 3.5
    endloop
  endfacet
  facet normal -0 0 1
    outer loop
      vertex 0 8 3.5
      vertex 7 6.4 3.5
      vertex 50 8 3.5
    endloop
  endfacet
  facet normal 0 0 1
    outer loop
      vertex 7 6.4 3.5
      vertex 0 8 3.5
      vertex 0 6.4 3.5
    endloop
  endfacet
  facet normal -0 0 1
    outer loop
      vertex 43 -6.4 3.5
      vertex 50 -8 3.5
      vertex 50 -6.4 3.5
    endloop
  endfacet
  facet normal 0 0 1
    outer loop
      vertex 43 -3.4 3.5
      vertex 7 3.4 3.5
      vertex 43 -6.4 3.5
    endloop
  endfacet
  facet normal 0 0 1
    outer loop
      vertex 0 -3.101 3.5
      vertex 7 3.4 3.5
      vertex 0 3.4 3.5
    endloop
  endfacet
  facet normal 0 0 1
    outer loop
      vertex 0 -5.901 3.5
      vertex 7 3.4 3.5
      vertex 0 -3.101 3.5
    endloop
  endfacet
  facet normal 0 0 1
    outer loop
      vertex 0 -8 3.5
      vertex 7 3.4 3.5
      vertex 0 -5.901 3.5
    endloop
  endfacet
  facet normal 0 0 1
    outer loop
      vertex 7 3.4 3.5
      vertex 0 -8 3.5
      vertex 43 -6.4 3.5
    endloop
  endfacet
  facet normal 0 0 1
    outer loop
      vertex 43 -6.4 3.5
      vertex 0 -8 3.5
      vertex 50 -8 3.5
    endloop
  endfacet
  facet normal 0 1 -0
    outer loop
      vertex 50 -8 3.5
      vertex 0 -8 5
      vertex 50 -8 5
    endloop
  endfacet
  facet normal 0 1 0
    outer loop
      vertex 0 -8 5
      vertex 50 -8 3.5
      vertex 0 -8 3.5
    endloop
  endfacet
  facet normal -0 0 1
    outer loop
      vertex 0 -8 5
      vertex 50 -9 5
      vertex 50 -8 5
    endloop
  endfacet
  facet normal 0 0 1
    outer loop
      vertex 50 -9 5
      vertex 0 -8 5
      vertex 0 -9 5
    endloop
  endfacet
  facet normal 0 -0.819232 0.573462
    outer loop
      vertex 0 -12.5 0
      vertex 50 -9 5
      vertex 0 -9 5
    endloop
  endfacet
  facet normal 0 -0.819232 0.573462
    outer loop
      vertex 50 -9 5
      vertex 0 -12.5 0
      vertex 50 -12.5 0
    endloop
  endfacet
  facet normal 0 0.819232 0.573462
    outer loop
      vertex 50 12.5 0
      vertex 0 9 5
      vertex 50 9 5
    endloop
  endfacet
  facet normal 0 0.819232 0.573462
    outer loop
      vertex 0 9 5
      vertex 50 12.5 0
      vertex 0 12.5 0
    endloop
  endfacet
  facet normal 1 -0 0
    outer loop
      vertex 0 -5.901 4.6
      vertex 0 -3.101 3.5
      vertex 0 -3.101 4.6
    endloop
  endfacet
  facet normal 1 0 0
    outer loop
      vertex 0 -3.101 3.5
      vertex 0 -5.901 4.6
      vertex 0 -5.901 3.5
    endloop
  endfacet
  facet normal 0 1 -0
    outer loop
      vertex 50 -8.4 0
      vertex 43 -8.4 2.5
      vertex 50 -8.4 2.5
    endloop
  endfacet
  facet normal 0 1 0
    outer loop
      vertex 43 -8.4 2.5
      vertex 50 -8.4 0
      vertex 43 -8.4 0
    endloop
  endfacet
  facet normal 0 -0.413803 -0.910366
    outer loop
      vertex 43 -3.4 3.5
      vertex 50 -1.2 2.5
      vertex 50 -3.4 3.5
    endloop
  endfacet
  facet normal -0 -0.413803 -0.910366
    outer loop
      vertex 50 -1.2 2.5
      vertex 43 -3.4 3.5
      vertex 43 -1.2 2.5
    endloop
  endfacet
  facet normal 0 -1 0
    outer loop
      vertex 43 -1.2 0
      vertex 50 -1.2 2.5
      vertex 43 -1.2 2.5
    endloop
  endfacet
  facet normal 0 -1 -0
    outer loop
      vertex 50 -1.2 2.5
      vertex 43 -1.2 0
      vertex 50 -1.2 0
    endloop
  endfacet
  facet normal 0 0.447214 -0.894427
    outer loop
      vertex 43 -8.4 2.5
      vertex 50 -6.4 3.5
      vertex 50 -8.4 2.5
    endloop
  endfacet
  facet normal 0 0.447214 -0.894427
    outer loop
      vertex 50 -6.4 3.5
      vertex 43 -8.4 2.5
      vertex 43 -6.4 3.5
    endloop
  endfacet
  facet normal 1 0 0
    outer loop
      vertex 43 -3.4 3.5
      vertex 43 -1.2 0
      vertex 43 -1.2 2.5
    endloop
  endfacet
  facet normal 1 0 0
    outer loop
      vertex 43 -8.4 0
      vertex 43 -3.4 3.5
      vertex 43 -6.4 3.5
    endloop
  endfacet
  facet normal 1 0 0
    outer loop
      vertex 43 -8.4 0
      vertex 43 -6.4 3.5
      vertex 43 -8.4 2.5
    endloop
  endfacet
  facet normal 1 0 0
    outer loop
      vertex 43 -3.4 3.5
      vertex 43 -8.4 0
      vertex 43 -1.2 0
    endloop
  endfacet
  facet normal 0 -1 0
    outer loop
      vertex 0 8.4 0
      vertex 7 8.4 2.5
      vertex 0 8.4 2.5
    endloop
  endfacet
  facet normal 0 -1 -0
    outer loop
      vertex 7 8.4 2.5
      vertex 0 8.4 0
      vertex 7 8.4 0
    endloop
  endfacet
  facet normal 0 1 -0
    outer loop
      vertex 7 1.2 0
      vertex 0 1.2 2.5
      vertex 7 1.2 2.5
    endloop
  endfacet
  facet normal 0 1 0
    outer loop
      vertex 0 1.2 2.5
      vertex 7 1.2 0
      vertex 0 1.2 0
    endloop
  endfacet
  facet normal 0 -0.447214 -0.894427
    outer loop
      vertex 0 6.4 3.5
      vertex 7 8.4 2.5
      vertex 7 6.4 3.5
    endloop
  endfacet
  facet normal -0 -0.447214 -0.894427
    outer loop
      vertex 7 8.4 2.5
      vertex 0 6.4 3.5
      vertex 0 8.4 2.5
    endloop
  endfacet
  facet normal 0 0.413803 -0.910366
    outer loop
      vertex 0 1.2 2.5
      vertex 7 3.4 3.5
      vertex 7 1.2 2.5
    endloop
  endfacet
  facet normal 0 0.413803 -0.910366
    outer loop
      vertex 7 3.4 3.5
      vertex 0 1.2 2.5
      vertex 0 3.4 3.5
    endloop
  endfacet
  facet normal -1 0 0
    outer loop
      vertex 7 8.4 0
      vertex 7 6.4 3.5
      vertex 7 8.4 2.5
    endloop
  endfacet
  facet normal -1 0 0
    outer loop
      vertex 7 8.4 0
      vertex 7 3.4 3.5
      vertex 7 6.4 3.5
    endloop
  endfacet
  facet normal -1 0 0
    outer loop
      vertex 7 1.2 0
      vertex 7 3.4 3.5
      vertex 7 8.4 0
    endloop
  endfacet
  facet normal -1 0 0
    outer loop
      vertex 7 3.4 3.5
      vertex 7 1.2 0
      vertex 7 1.2 2.5
    endloop
  endfacet
endsolid OpenSCAD_Model
