solid OpenSCAD_Model
  facet normal -1 0 0
    outer loop
      vertex -6 -1 0
      vertex -6 -3.1 2.6
      vertex -6 -1 2.6
    endloop
  endfacet
  facet normal -1 0 0
    outer loop
      vertex -6 -3.1 2.6
      vertex -6 -5.9 2.6
      vertex -6 -3.1 4.6
    endloop
  endfacet
  facet normal -1 0 0
    outer loop
      vertex -6 -1 0
      vertex -6 -5.9 2.6
      vertex -6 -3.1 2.6
    endloop
  endfacet
  facet normal -1 0 0
    outer loop
      vertex -6 -8 0
      vertex -6 -5.9 2.6
      vertex -6 -1 0
    endloop
  endfacet
  facet normal -1 -0 0
    outer loop
      vertex -6 -5.9 2.6
      vertex -6 -8 0
      vertex -6 -8 2.6
    endloop
  endfacet
  facet normal -1 0 0
    outer loop
      vertex -6 -3.1 4.6
      vertex -6 -2.8 5.2
      vertex -6 -2.8 4.6
    endloop
  endfacet
  facet normal -1 0 0
    outer loop
      vertex -6 -5.9 4.6
      vertex -6 -3.1 4.6
      vertex -6 -5.9 2.6
    endloop
  endfacet
  facet normal -1 0 0
    outer loop
      vertex -6 -3.1 4.6
      vertex -6 -5.9 4.6
      vertex -6 -2.8 5.2
    endloop
  endfacet
  facet normal -1 0 0
    outer loop
      vertex -6 -6.2 5.2
      vertex -6 -5.9 4.6
      vertex -6 -6.2 4.6
    endloop
  endfacet
  facet normal -1 0 0
    outer loop
      vertex -6 -5.9 4.6
      vertex -6 -6.2 5.2
      vertex -6 -2.8 5.2
    endloop
  endfacet
  facet normal -0 0 1
    outer loop
      vertex -6 -5.9 2.6
      vertex 0 -8 2.6
      vertex 0 -5.9 2.6
    endloop
  endfacet
  facet normal 0 0 1
    outer loop
      vertex 0 -8 2.6
      vertex -6 -5.9 2.6
      vertex -6 -8 2.6
    endloop
  endfacet
  facet normal -0 0 1
    outer loop
      vertex -6 -1 2.6
      vertex 0 -3.1 2.6
      vertex 0 -1 2.6
    endloop
  endfacet
  facet normal 0 0 1
    outer loop
      vertex 0 -3.1 2.6
      vertex -6 -1 2.6
      vertex -6 -3.1 2.6
    endloop
  endfacet
  facet normal 0 0 -1
    outer loop
      vertex -6 -8 0
      vertex 0 -1 0
      vertex 0 -8 0
    endloop
  endfacet
  facet normal -0 0 -1
    outer loop
      vertex 0 -1 0
      vertex -6 -8 0
      vertex -6 -1 0
    endloop
  endfacet
  facet normal 0 0 -1
    outer loop
      vertex 104.2 -12.5 0
      vertex 97.2 -8.4 0
      vertex 104.2 -8.4 0
    endloop
  endfacet
  facet normal 0 0 -1
    outer loop
      vertex 97.2 -8.4 0
      vertex 6 1.2 0
      vertex 97.2 -1.2 0
    endloop
  endfacet
  facet normal 0 0 -1
    outer loop
      vertex 0 -12.5 0
      vertex 97.2 -8.4 0
      vertex 104.2 -12.5 0
    endloop
  endfacet
  facet normal -0 0 -1
    outer loop
      vertex 97.2 -8.4 0
      vertex 0 -12.5 0
      vertex 6 1.2 0
    endloop
  endfacet
  facet normal 0 0 -1
    outer loop
      vertex 0 -8 0
      vertex 6 1.2 0
      vertex 0 -12.5 0
    endloop
  endfacet
  facet normal 0 0 -1
    outer loop
      vertex 0 -1 0
      vertex 6 1.2 0
      vertex 0 -8 0
    endloop
  endfacet
  facet normal -0 0 -1
    outer loop
      vertex 6 1.2 0
      vertex 0 -1 0
      vertex 0 1.2 0
    endloop
  endfacet
  facet normal 0 0 -1
    outer loop
      vertex 97.2 -1.2 0
      vertex 104.2 12.5 0
      vertex 104.2 -1.2 0
    endloop
  endfacet
  facet normal 0 0 -1
    outer loop
      vertex 6 8.4 0
      vertex 97.2 -1.2 0
      vertex 6 1.2 0
    endloop
  endfacet
  facet normal 0 0 -1
    outer loop
      vertex 97.2 -1.2 0
      vertex 6 8.4 0
      vertex 104.2 12.5 0
    endloop
  endfacet
  facet normal 0 0 -1
    outer loop
      vertex 0 12.5 0
      vertex 6 8.4 0
      vertex 0 8.4 0
    endloop
  endfacet
  facet normal 0 0 -1
    outer loop
      vertex 6 8.4 0
      vertex 0 12.5 0
      vertex 104.2 12.5 0
    endloop
  endfacet
  facet normal 1 0 0
    outer loop
      vertex 0 -2.8 5.2
      vertex 0 -3.1 4.6
      vertex 0 -2.8 4.6
    endloop
  endfacet
  facet normal 1 0 0
    outer loop
      vertex 0 -3.1 4.6
      vertex 0 -5.9 4.6
      vertex 0 -3.1 3.5
    endloop
  endfacet
  facet normal 1 0 0
    outer loop
      vertex 0 -2.8 5.2
      vertex 0 -5.9 4.6
      vertex 0 -3.1 4.6
    endloop
  endfacet
  facet normal 1 -0 0
    outer loop
      vertex 0 -6.2 5.2
      vertex 0 -5.9 4.6
      vertex 0 -2.8 5.2
    endloop
  endfacet
  facet normal 1 0 0
    outer loop
      vertex 0 -5.9 4.6
      vertex 0 -6.2 5.2
      vertex 0 -6.2 4.6
    endloop
  endfacet
  facet normal 1 0 0
    outer loop
      vertex 0 -3.1 3.5
      vertex 0 -5.9 4.6
      vertex 0 -5.9 3.5
    endloop
  endfacet
  facet normal -1 0 0
    outer loop
      vertex 0 -12.5 0
      vertex 0 -8 2.6
      vertex 0 -8 0
    endloop
  endfacet
  facet normal -1 0 -0
    outer loop
      vertex 0 -9 5
      vertex 0 -8 2.6
      vertex 0 -12.5 0
    endloop
  endfacet
  facet normal -1 0 0
    outer loop
      vertex 0 -8 3.5
      vertex 0 -9 5
      vertex 0 -8 5
    endloop
  endfacet
  facet normal -1 0 0
    outer loop
      vertex 0 -8 2.6
      vertex 0 -9 5
      vertex 0 -8 3.5
    endloop
  endfacet
  facet normal -1 0 0
    outer loop
      vertex 0 -8 2.6
      vertex 0 -5.9 3.5
      vertex 0 -5.9 2.6
    endloop
  endfacet
  facet normal -1 -0 0
    outer loop
      vertex 0 -5.9 3.5
      vertex 0 -8 2.6
      vertex 0 -8 3.5
    endloop
  endfacet
  facet normal -1 0 0
    outer loop
      vertex 0 1.2 0
      vertex 0 -1 0
      vertex 0 1.2 2.5
    endloop
  endfacet
  facet normal -1 0 0
    outer loop
      vertex 0 -1 2.6
      vertex 0 1.2 2.5
      vertex 0 -1 0
    endloop
  endfacet
  facet normal -1 0 0
    outer loop
      vertex 0 -1 2.6
      vertex 0 3.4 3.5
      vertex 0 1.2 2.5
    endloop
  endfacet
  facet normal -1 0 0
    outer loop
      vertex 0 -3.1 3.5
      vertex 0 -1 2.6
      vertex 0 -3.1 2.6
    endloop
  endfacet
  facet normal -1 0 0
    outer loop
      vertex 0 -1 2.6
      vertex 0 -3.1 3.5
      vertex 0 3.4 3.5
    endloop
  endfacet
  facet normal -1 0 0
    outer loop
      vertex 0 8.4 2.5
      vertex 0 6.4 3.5
      vertex 0 8 3.5
    endloop
  endfacet
  facet normal -1 0 0
    outer loop
      vertex 0 8.4 2.5
      vertex 0 12.5 0
      vertex 0 8.4 0
    endloop
  endfacet
  facet normal -1 0 0
    outer loop
      vertex 0 12.5 0
      vertex 0 8.4 2.5
      vertex 0 9 5
    endloop
  endfacet
  facet normal -1 0 0
    outer loop
      vertex 0 8 3.5
      vertex 0 9 5
      vertex 0 8.4 2.5
    endloop
  endfacet
  facet normal -1 -0 0
    outer loop
      vertex 0 9 5
      vertex 0 8 3.5
      vertex 0 8 5
    endloop
  endfacet
  facet normal 0 -1 0
    outer loop
      vertex -6 -8 0
      vertex 0 -8 2.6
      vertex -6 -8 2.6
    endloop
  endfacet
  facet normal 0 -1 -0
    outer loop
      vertex 0 -8 2.6
      vertex -6 -8 0
      vertex 0 -8 0
    endloop
  endfacet
  facet normal 0 1 -0
    outer loop
      vertex 0 -1 0
      vertex -6 -1 2.6
      vertex 0 -1 2.6
    endloop
  endfacet
  facet normal 0 1 0
    outer loop
      vertex -6 -1 2.6
      vertex 0 -1 0
      vertex -6 -1 0
    endloop
  endfacet
  facet normal 0 0 -1
    outer loop
      vertex -6 -6.2 4.6
      vertex 0 -5.9 4.6
      vertex 0 -6.2 4.6
    endloop
  endfacet
  facet normal -0 0 -1
    outer loop
      vertex 0 -5.9 4.6
      vertex -6 -6.2 4.6
      vertex -6 -5.9 4.6
    endloop
  endfacet
  facet normal 0 0 -1
    outer loop
      vertex -6 -3.1 4.6
      vertex 0 -2.8 4.6
      vertex 0 -3.1 4.6
    endloop
  endfacet
  facet normal -0 0 -1
    outer loop
      vertex 0 -2.8 4.6
      vertex -6 -3.1 4.6
      vertex -6 -2.8 4.6
    endloop
  endfacet
  facet normal 0 -1 0
    outer loop
      vertex -6 -5.9 4.6
      vertex 0 -5.9 3.5
      vertex 0 -5.9 4.6
    endloop
  endfacet
  facet normal 0 -1 0
    outer loop
      vertex -6 -5.9 2.6
      vertex 0 -5.9 3.5
      vertex -6 -5.9 4.6
    endloop
  endfacet
  facet normal 0 -1 -0
    outer loop
      vertex 0 -5.9 3.5
      vertex -6 -5.9 2.6
      vertex 0 -5.9 2.6
    endloop
  endfacet
  facet normal 0 1 -0
    outer loop
      vertex 0 -3.1 3.5
      vertex -6 -3.1 4.6
      vertex 0 -3.1 4.6
    endloop
  endfacet
  facet normal 0 1 0
    outer loop
      vertex -6 -3.1 2.6
      vertex 0 -3.1 3.5
      vertex 0 -3.1 2.6
    endloop
  endfacet
  facet normal 0 1 0
    outer loop
      vertex 0 -3.1 3.5
      vertex -6 -3.1 2.6
      vertex -6 -3.1 4.6
    endloop
  endfacet
  facet normal -0 0 1
    outer loop
      vertex -6 -2.8 5.2
      vertex 0 -6.2 5.2
      vertex 0 -2.8 5.2
    endloop
  endfacet
  facet normal 0 0 1
    outer loop
      vertex 0 -6.2 5.2
      vertex -6 -2.8 5.2
      vertex -6 -6.2 5.2
    endloop
  endfacet
  facet normal 0 -1 0
    outer loop
      vertex -6 -6.2 4.6
      vertex 0 -6.2 5.2
      vertex -6 -6.2 5.2
    endloop
  endfacet
  facet normal 0 -1 -0
    outer loop
      vertex 0 -6.2 5.2
      vertex -6 -6.2 4.6
      vertex 0 -6.2 4.6
    endloop
  endfacet
  facet normal 0 1 -0
    outer loop
      vertex 0 -2.8 4.6
      vertex -6 -2.8 5.2
      vertex 0 -2.8 5.2
    endloop
  endfacet
  facet normal 0 1 0
    outer loop
      vertex -6 -2.8 5.2
      vertex 0 -2.8 4.6
      vertex -6 -2.8 4.6
    endloop
  endfacet
  facet normal 1 0 0
    outer loop
      vertex 110.2 6.2 5.2
      vertex 110.2 5.9 4.6
      vertex 110.2 6.2 4.6
    endloop
  endfacet
  facet normal 1 0 0
    outer loop
      vertex 110.2 5.9 4.6
      vertex 110.2 3.1 4.6
      vertex 110.2 5.9 2.6
    endloop
  endfacet
  facet normal 1 0 0
    outer loop
      vertex 110.2 6.2 5.2
      vertex 110.2 3.1 4.6
      vertex 110.2 5.9 4.6
    endloop
  endfacet
  facet normal 1 -0 0
    outer loop
      vertex 110.2 2.8 5.2
      vertex 110.2 3.1 4.6
      vertex 110.2 6.2 5.2
    endloop
  endfacet
  facet normal 1 0 0
    outer loop
      vertex 110.2 3.1 4.6
      vertex 110.2 2.8 5.2
      vertex 110.2 2.8 4.6
    endloop
  endfacet
  facet normal 1 -0 0
    outer loop
      vertex 110.2 5.9 2.6
      vertex 110.2 8 0
      vertex 110.2 8 2.6
    endloop
  endfacet
  facet normal 1 0 0
    outer loop
      vertex 110.2 3.1 2.6
      vertex 110.2 5.9 2.6
      vertex 110.2 3.1 4.6
    endloop
  endfacet
  facet normal 1 0 0
    outer loop
      vertex 110.2 5.9 2.6
      vertex 110.2 3.1 2.6
      vertex 110.2 8 0
    endloop
  endfacet
  facet normal 1 0 0
    outer loop
      vertex 110.2 1 0
      vertex 110.2 3.1 2.6
      vertex 110.2 1 2.6
    endloop
  endfacet
  facet normal 1 0 0
    outer loop
      vertex 110.2 3.1 2.6
      vertex 110.2 1 0
      vertex 110.2 8 0
    endloop
  endfacet
  facet normal -0 0 1
    outer loop
      vertex 104.2 8 2.6
      vertex 110.2 5.9 2.6
      vertex 110.2 8 2.6
    endloop
  endfacet
  facet normal 0 0 1
    outer loop
      vertex 110.2 5.9 2.6
      vertex 104.2 8 2.6
      vertex 104.2 5.9 2.6
    endloop
  endfacet
  facet normal -0 0 1
    outer loop
      vertex 104.2 3.1 2.6
      vertex 110.2 1 2.6
      vertex 110.2 3.1 2.6
    endloop
  endfacet
  facet normal 0 0 1
    outer loop
      vertex 110.2 1 2.6
      vertex 104.2 3.1 2.6
      vertex 104.2 1 2.6
    endloop
  endfacet
  facet normal 0 0 -1
    outer loop
      vertex 104.2 1 0
      vertex 110.2 8 0
      vertex 110.2 1 0
    endloop
  endfacet
  facet normal -0 0 -1
    outer loop
      vertex 110.2 8 0
      vertex 104.2 1 0
      vertex 104.2 8 0
    endloop
  endfacet
  facet normal -1 0 0
    outer loop
      vertex 104.2 8 0
      vertex 104.2 5.9 2.6
      vertex 104.2 8 2.6
    endloop
  endfacet
  facet normal -1 0 0
    outer loop
      vertex 104.2 5.9 2.6
      vertex 104.2 3.1 2.6
      vertex 104.2 5.9 4.6
    endloop
  endfacet
  facet normal -1 0 0
    outer loop
      vertex 104.2 8 0
      vertex 104.2 3.1 2.6
      vertex 104.2 5.9 2.6
    endloop
  endfacet
  facet normal -1 0 0
    outer loop
      vertex 104.2 1 0
      vertex 104.2 3.1 2.6
      vertex 104.2 8 0
    endloop
  endfacet
  facet normal -1 -0 0
    outer loop
      vertex 104.2 3.1 2.6
      vertex 104.2 1 0
      vertex 104.2 1 2.6
    endloop
  endfacet
  facet normal -1 0 0
    outer loop
      vertex 104.2 5.9 4.6
      vertex 104.2 6.2 5.2
      vertex 104.2 6.2 4.6
    endloop
  endfacet
  facet normal -1 0 0
    outer loop
      vertex 104.2 3.1 4.6
      vertex 104.2 5.9 4.6
      vertex 104.2 3.1 2.6
    endloop
  endfacet
  facet normal -1 0 0
    outer loop
      vertex 104.2 5.9 4.6
      vertex 104.2 3.1 4.6
      vertex 104.2 6.2 5.2
    endloop
  endfacet
  facet normal -1 0 0
    outer loop
      vertex 104.2 2.8 5.2
      vertex 104.2 3.1 4.6
      vertex 104.2 2.8 4.6
    endloop
  endfacet
  facet normal -1 0 0
    outer loop
      vertex 104.2 3.1 4.6
      vertex 104.2 2.8 5.2
      vertex 104.2 6.2 5.2
    endloop
  endfacet
  facet normal 0 1 -0
    outer loop
      vertex 110.2 8 0
      vertex 104.2 8 2.6
      vertex 110.2 8 2.6
    endloop
  endfacet
  facet normal 0 1 0
    outer loop
      vertex 104.2 8 2.6
      vertex 110.2 8 0
      vertex 104.2 8 0
    endloop
  endfacet
  facet normal 0 -1 0
    outer loop
      vertex 104.2 1 0
      vertex 110.2 1 2.6
      vertex 104.2 1 2.6
    endloop
  endfacet
  facet normal 0 -1 -0
    outer loop
      vertex 110.2 1 2.6
      vertex 104.2 1 0
      vertex 110.2 1 0
    endloop
  endfacet
  facet normal 0 0 -1
    outer loop
      vertex 104.2 5.9 4.6
      vertex 110.2 6.2 4.6
      vertex 110.2 5.9 4.6
    endloop
  endfacet
  facet normal -0 0 -1
    outer loop
      vertex 110.2 6.2 4.6
      vertex 104.2 5.9 4.6
      vertex 104.2 6.2 4.6
    endloop
  endfacet
  facet normal 0 0 -1
    outer loop
      vertex 104.2 2.8 4.6
      vertex 110.2 3.1 4.6
      vertex 110.2 2.8 4.6
    endloop
  endfacet
  facet normal -0 0 -1
    outer loop
      vertex 110.2 3.1 4.6
      vertex 104.2 2.8 4.6
      vertex 104.2 3.1 4.6
    endloop
  endfacet
  facet normal 0 1 -0
    outer loop
      vertex 110.2 5.9 2.6
      vertex 104.2 5.9 4.6
      vertex 110.2 5.9 4.6
    endloop
  endfacet
  facet normal 0 1 0
    outer loop
      vertex 104.2 5.9 4.6
      vertex 110.2 5.9 2.6
      vertex 104.2 5.9 2.6
    endloop
  endfacet
  facet normal 0 -1 0
    outer loop
      vertex 104.2 3.1 2.6
      vertex 110.2 3.1 4.6
      vertex 104.2 3.1 4.6
    endloop
  endfacet
  facet normal 0 -1 -0
    outer loop
      vertex 110.2 3.1 4.6
      vertex 104.2 3.1 2.6
      vertex 110.2 3.1 2.6
    endloop
  endfacet
  facet normal -0 0 1
    outer loop
      vertex 104.2 6.2 5.2
      vertex 110.2 2.8 5.2
      vertex 110.2 6.2 5.2
    endloop
  endfacet
  facet normal 0 0 1
    outer loop
      vertex 110.2 2.8 5.2
      vertex 104.2 6.2 5.2
      vertex 104.2 2.8 5.2
    endloop
  endfacet
  facet normal 0 1 -0
    outer loop
      vertex 110.2 6.2 4.6
      vertex 104.2 6.2 5.2
      vertex 110.2 6.2 5.2
    endloop
  endfacet
  facet normal 0 1 0
    outer loop
      vertex 104.2 6.2 5.2
      vertex 110.2 6.2 4.6
      vertex 104.2 6.2 4.6
    endloop
  endfacet
  facet normal 0 -1 0
    outer loop
      vertex 104.2 2.8 4.6
      vertex 110.2 2.8 5.2
      vertex 104.2 2.8 5.2
    endloop
  endfacet
  facet normal 0 -1 -0
    outer loop
      vertex 110.2 2.8 5.2
      vertex 104.2 2.8 4.6
      vertex 110.2 2.8 4.6
    endloop
  endfacet
  facet normal 1 0 0
    outer loop
      vertex 104.2 8 3.5
      vertex 104.2 -3.4 3.5
      vertex 104.2 -1.2 2.5
    endloop
  endfacet
  facet normal 1 0 0
    outer loop
      vertex 104.2 8 3.5
      vertex 104.2 9 5
      vertex 104.2 8 5
    endloop
  endfacet
  facet normal 1 0 0
    outer loop
      vertex 104.2 9 5
      vertex 104.2 8 3.5
      vertex 104.2 12.5 0
    endloop
  endfacet
  facet normal 1 0 0
    outer loop
      vertex 104.2 -1.2 0
      vertex 104.2 8 3.5
      vertex 104.2 -1.2 2.5
    endloop
  endfacet
  facet normal 1 0 0
    outer loop
      vertex 104.2 8 3.5
      vertex 104.2 -1.2 0
      vertex 104.2 12.5 0
    endloop
  endfacet
  facet normal 1 -0 0
    outer loop
      vertex 104.2 -9 5
      vertex 104.2 -8 3.5
      vertex 104.2 -8 5
    endloop
  endfacet
  facet normal 1 0 0
    outer loop
      vertex 104.2 -8 3.5
      vertex 104.2 -9 5
      vertex 104.2 -8.4 2.5
    endloop
  endfacet
  facet normal 1 0 0
    outer loop
      vertex 104.2 -12.5 0
      vertex 104.2 -8.4 2.5
      vertex 104.2 -9 5
    endloop
  endfacet
  facet normal 1 0 0
    outer loop
      vertex 104.2 -8.4 2.5
      vertex 104.2 -12.5 0
      vertex 104.2 -8.4 0
    endloop
  endfacet
  facet normal 1 0 0
    outer loop
      vertex 104.2 -6.4 3.5
      vertex 104.2 -8 3.5
      vertex 104.2 -8.4 2.5
    endloop
  endfacet
  facet normal -0 0 1
    outer loop
      vertex 0 9 5
      vertex 104.2 8 5
      vertex 104.2 9 5
    endloop
  endfacet
  facet normal 0 0 1
    outer loop
      vertex 104.2 8 5
      vertex 0 9 5
      vertex 0 8 5
    endloop
  endfacet
  facet normal 0 -1 0
    outer loop
      vertex 0 8 3.5
      vertex 104.2 8 5
      vertex 0 8 5
    endloop
  endfacet
  facet normal 0 -1 -0
    outer loop
      vertex 104.2 8 5
      vertex 0 8 3.5
      vertex 104.2 8 3.5
    endloop
  endfacet
  facet normal 0 0 1
    outer loop
      vertex 104.2 8 3.5
      vertex 97.2 -3.4 3.5
      vertex 104.2 -3.4 3.5
    endloop
  endfacet
  facet normal -0 0 1
    outer loop
      vertex 6 3.4 3.5
      vertex 97.2 -3.4 3.5
      vertex 6 6.4 3.5
    endloop
  endfacet
  facet normal 0 0 1
    outer loop
      vertex 104.2 8 3.5
      vertex 6 6.4 3.5
      vertex 97.2 -3.4 3.5
    endloop
  endfacet
  facet normal -0 0 1
    outer loop
      vertex 0 8 3.5
      vertex 6 6.4 3.5
      vertex 104.2 8 3.5
    endloop
  endfacet
  facet normal 0 0 1
    outer loop
      vertex 6 6.4 3.5
      vertex 0 8 3.5
      vertex 0 6.4 3.5
    endloop
  endfacet
  facet normal -0 0 1
    outer loop
      vertex 97.2 -6.4 3.5
      vertex 104.2 -8 3.5
      vertex 104.2 -6.4 3.5
    endloop
  endfacet
  facet normal 0 0 1
    outer loop
      vertex 97.2 -3.4 3.5
      vertex 6 3.4 3.5
      vertex 97.2 -6.4 3.5
    endloop
  endfacet
  facet normal 0 0 1
    outer loop
      vertex 0 -8 3.5
      vertex 97.2 -6.4 3.5
      vertex 6 3.4 3.5
    endloop
  endfacet
  facet normal 0 0 1
    outer loop
      vertex 0 -3.1 3.5
      vertex 6 3.4 3.5
      vertex 0 3.4 3.5
    endloop
  endfacet
  facet normal 0 0 1
    outer loop
      vertex 0 -5.9 3.5
      vertex 6 3.4 3.5
      vertex 0 -3.1 3.5
    endloop
  endfacet
  facet normal 0 0 1
    outer loop
      vertex 0 -8 3.5
      vertex 6 3.4 3.5
      vertex 0 -5.9 3.5
    endloop
  endfacet
  facet normal 0 0 1
    outer loop
      vertex 97.2 -6.4 3.5
      vertex 0 -8 3.5
      vertex 104.2 -8 3.5
    endloop
  endfacet
  facet normal 0 1 -0
    outer loop
      vertex 104.2 -8 3.5
      vertex 0 -8 5
      vertex 104.2 -8 5
    endloop
  endfacet
  facet normal 0 1 0
    outer loop
      vertex 0 -8 5
      vertex 104.2 -8 3.5
      vertex 0 -8 3.5
    endloop
  endfacet
  facet normal -0 0 1
    outer loop
      vertex 0 -8 5
      vertex 104.2 -9 5
      vertex 104.2 -8 5
    endloop
  endfacet
  facet normal 0 0 1
    outer loop
      vertex 104.2 -9 5
      vertex 0 -8 5
      vertex 0 -9 5
    endloop
  endfacet
  facet normal 0 -0.819232 0.573462
    outer loop
      vertex 0 -12.5 0
      vertex 104.2 -9 5
      vertex 0 -9 5
    endloop
  endfacet
  facet normal 0 -0.819232 0.573462
    outer loop
      vertex 104.2 -9 5
      vertex 0 -12.5 0
      vertex 104.2 -12.5 0
    endloop
  endfacet
  facet normal 0 0.819232 0.573462
    outer loop
      vertex 104.2 12.5 0
      vertex 0 9 5
      vertex 104.2 9 5
    endloop
  endfacet
  facet normal 0 0.819232 0.573462
    outer loop
      vertex 0 9 5
      vertex 104.2 12.5 0
      vertex 0 12.5 0
    endloop
  endfacet
  facet normal 0 1 -0
    outer loop
      vertex 104.2 -8.4 0
      vertex 97.2 -8.4 2.5
      vertex 104.2 -8.4 2.5
    endloop
  endfacet
  facet normal 0 1 0
    outer loop
      vertex 97.2 -8.4 2.5
      vertex 104.2 -8.4 0
      vertex 97.2 -8.4 0
    endloop
  endfacet
  facet normal 0 -0.413803 -0.910366
    outer loop
      vertex 97.2 -3.4 3.5
      vertex 104.2 -1.2 2.5
      vertex 104.2 -3.4 3.5
    endloop
  endfacet
  facet normal -0 -0.413803 -0.910366
    outer loop
      vertex 104.2 -1.2 2.5
      vertex 97.2 -3.4 3.5
      vertex 97.2 -1.2 2.5
    endloop
  endfacet
  facet normal 0 -1 0
    outer loop
      vertex 97.2 -1.2 0
      vertex 104.2 -1.2 2.5
      vertex 97.2 -1.2 2.5
    endloop
  endfacet
  facet normal 0 -1 -0
    outer loop
      vertex 104.2 -1.2 2.5
      vertex 97.2 -1.2 0
      vertex 104.2 -1.2 0
    endloop
  endfacet
  facet normal 0 0.447214 -0.894427
    outer loop
      vertex 97.2 -8.4 2.5
      vertex 104.2 -6.4 3.5
      vertex 104.2 -8.4 2.5
    endloop
  endfacet
  facet normal 0 0.447214 -0.894427
    outer loop
      vertex 104.2 -6.4 3.5
      vertex 97.2 -8.4 2.5
      vertex 97.2 -6.4 3.5
    endloop
  endfacet
  facet normal 1 0 0
    outer loop
      vertex 97.2 -3.4 3.5
      vertex 97.2 -1.2 0
      vertex 97.2 -1.2 2.5
    endloop
  endfacet
  facet normal 1 0 0
    outer loop
      vertex 97.2 -8.4 0
      vertex 97.2 -3.4 3.5
      vertex 97.2 -6.4 3.5
    endloop
  endfacet
  facet normal 1 0 0
    outer loop
      vertex 97.2 -8.4 0
      vertex 97.2 -6.4 3.5
      vertex 97.2 -8.4 2.5
    endloop
  endfacet
  facet normal 1 0 0
    outer loop
      vertex 97.2 -3.4 3.5
      vertex 97.2 -8.4 0
      vertex 97.2 -1.2 0
    endloop
  endfacet
  facet normal 0 -1 0
    outer loop
      vertex 0 8.4 0
      vertex 6 8.4 2.5
      vertex 0 8.4 2.5
    endloop
  endfacet
  facet normal 0 -1 -0
    outer loop
      vertex 6 8.4 2.5
      vertex 0 8.4 0
      vertex 6 8.4 0
    endloop
  endfacet
  facet normal 0 1 -0
    outer loop
      vertex 6 1.2 0
      vertex 0 1.2 2.5
      vertex 6 1.2 2.5
    endloop
  endfacet
  facet normal 0 1 0
    outer loop
      vertex 0 1.2 2.5
      vertex 6 1.2 0
      vertex 0 1.2 0
    endloop
  endfacet
  facet normal 0 -0.447214 -0.894427
    outer loop
      vertex 0 6.4 3.5
      vertex 6 8.4 2.5
      vertex 6 6.4 3.5
    endloop
  endfacet
  facet normal -0 -0.447214 -0.894427
    outer loop
      vertex 6 8.4 2.5
      vertex 0 6.4 3.5
      vertex 0 8.4 2.5
    endloop
  endfacet
  facet normal 0 0.413803 -0.910366
    outer loop
      vertex 0 1.2 2.5
      vertex 6 3.4 3.5
      vertex 6 1.2 2.5
    endloop
  endfacet
  facet normal 0 0.413803 -0.910366
    outer loop
      vertex 6 3.4 3.5
      vertex 0 1.2 2.5
      vertex 0 3.4 3.5
    endloop
  endfacet
  facet normal -1 0 0
    outer loop
      vertex 6 8.4 0
      vertex 6 6.4 3.5
      vertex 6 8.4 2.5
    endloop
  endfacet
  facet normal -1 0 0
    outer loop
      vertex 6 8.4 0
      vertex 6 3.4 3.5
      vertex 6 6.4 3.5
    endloop
  endfacet
  facet normal -1 0 0
    outer loop
      vertex 6 1.2 0
      vertex 6 3.4 3.5
      vertex 6 8.4 0
    endloop
  endfacet
  facet normal -1 0 0
    outer loop
      vertex 6 3.4 3.5
      vertex 6 1.2 0
      vertex 6 1.2 2.5
    endloop
  endfacet
endsolid OpenSCAD_Model
