solid OpenSCAD_Model
  facet normal -1 0 0
    outer loop
      vertex -6 -1 0
      vertex -6 -3.1 2.6
      vertex -6 -1 2.6
    endloop
  endfacet
  facet normal -1 0 0
    outer loop
      vertex -6 -3.1 2.6
      vertex -6 -5.9 2.6
      vertex -6 -3.1 4.6
    endloop
  endfacet
  facet normal -1 0 0
    outer loop
      vertex -6 -1 0
      vertex -6 -5.9 2.6
      vertex -6 -3.1 2.6
    endloop
  endfacet
  facet normal -1 0 0
    outer loop
      vertex -6 -8 0
      vertex -6 -5.9 2.6
      vertex -6 -1 0
    endloop
  endfacet
  facet normal -1 -0 0
    outer loop
      vertex -6 -5.9 2.6
      vertex -6 -8 0
      vertex -6 -8 2.6
    endloop
  endfacet
  facet normal -1 0 0
    outer loop
      vertex -6 -3.1 4.6
      vertex -6 -2.8 5.2
      vertex -6 -2.8 4.6
    endloop
  endfacet
  facet normal -1 0 0
    outer loop
      vertex -6 -5.9 4.6
      vertex -6 -3.1 4.6
      vertex -6 -5.9 2.6
    endloop
  endfacet
  facet normal -1 0 0
    outer loop
      vertex -6 -3.1 4.6
      vertex -6 -5.9 4.6
      vertex -6 -2.8 5.2
    endloop
  endfacet
  facet normal -1 0 0
    outer loop
      vertex -6 -6.2 5.2
      vertex -6 -5.9 4.6
      vertex -6 -6.2 4.6
    endloop
  endfacet
  facet normal -1 0 0
    outer loop
      vertex -6 -5.9 4.6
      vertex -6 -6.2 5.2
      vertex -6 -2.8 5.2
    endloop
  endfacet
  facet normal -0 0 1
    outer loop
      vertex -6 -5.9 2.6
      vertex 0 -8 2.6
      vertex 0 -5.9 2.6
    endloop
  endfacet
  facet normal 0 0 1
    outer loop
      vertex 0 -8 2.6
      vertex -6 -5.9 2.6
      vertex -6 -8 2.6
    endloop
  endfacet
  facet normal -0 0 1
    outer loop
      vertex -6 -1 2.6
      vertex 0 -3.1 2.6
      vertex 0 -1 2.6
    endloop
  endfacet
  facet normal 0 0 1
    outer loop
      vertex 0 -3.1 2.6
      vertex -6 -1 2.6
      vertex -6 -3.1 2.6
    endloop
  endfacet
  facet normal 0 0 -1
    outer loop
      vertex -6 -8 0
      vertex 0 -1 0
      vertex 0 -8 0
    endloop
  endfacet
  facet normal -0 0 -1
    outer loop
      vertex 0 -1 0
      vertex -6 -8 0
      vertex -6 -1 0
    endloop
  endfacet
  facet normal 0 0 -1
    outer loop
      vertex 80.9204 3.96344 0
      vertex 82.5675 9.15027 0
      vertex 84.2352 5.40474 0
    endloop
  endfacet
  facet normal 0 0 -1
    outer loop
      vertex 76.1727 6.30311 0
      vertex 80.9204 3.96344 0
      vertex 77.581 2.58022 0
    endloop
  endfacet
  facet normal 0 0 -1
    outer loop
      vertex 80.9204 3.96344 0
      vertex 76.1727 6.30311 0
      vertex 82.5675 9.15027 0
    endloop
  endfacet
  facet normal 0 0 -1
    outer loop
      vertex 74.218 1.25549 0
      vertex 76.1727 6.30311 0
      vertex 77.581 2.58022 0
    endloop
  endfacet
  facet normal 0 0 -1
    outer loop
      vertex 70.8324 -0.0103416 0
      vertex 76.1727 6.30311 0
      vertex 74.218 1.25549 0
    endloop
  endfacet
  facet normal -0 0 -1
    outer loop
      vertex 76.1727 6.30311 0
      vertex 70.8324 -0.0103416 0
      vertex 73.2442 12.8806 0
    endloop
  endfacet
  facet normal 0 0 -1
    outer loop
      vertex 67.4252 -1.2169 0
      vertex 73.2442 12.8806 0
      vertex 70.8324 -0.0103416 0
    endloop
  endfacet
  facet normal 0 0 -1
    outer loop
      vertex 73.2442 12.8806 0
      vertex 68.2159 25.7598 0
      vertex 71.1521 26.9761 0
    endloop
  endfacet
  facet normal 0 0 -1
    outer loop
      vertex 63.9974 -2.3638 0
      vertex 73.2442 12.8806 0
      vertex 67.4252 -1.2169 0
    endloop
  endfacet
  facet normal 0 0 -1
    outer loop
      vertex 73.2442 12.8806 0
      vertex 65.2588 24.595 0
      vertex 68.2159 25.7598 0
    endloop
  endfacet
  facet normal 0 0 -1
    outer loop
      vertex 56.272 21.4126 0
      vertex 73.2442 12.8806 0
      vertex 63.9974 -2.3638 0
    endloop
  endfacet
  facet normal 0 0 -1
    outer loop
      vertex 73.2442 12.8806 0
      vertex 62.2819 23.482 0
      vertex 65.2588 24.595 0
    endloop
  endfacet
  facet normal 0 0 -1
    outer loop
      vertex 56.272 21.4126 0
      vertex 63.9974 -2.3638 0
      vertex 60.5502 -3.45071 0
    endloop
  endfacet
  facet normal 0 0 -1
    outer loop
      vertex 73.2442 12.8806 0
      vertex 59.286 22.4211 0
      vertex 62.2819 23.482 0
    endloop
  endfacet
  facet normal 0 0 -1
    outer loop
      vertex 53.2409 20.4569 0
      vertex 60.5502 -3.45071 0
      vertex 57.0845 -4.4773 0
    endloop
  endfacet
  facet normal 0 0 -1
    outer loop
      vertex 73.2442 12.8806 0
      vertex 56.272 21.4126 0
      vertex 59.286 22.4211 0
    endloop
  endfacet
  facet normal 0 0 -1
    outer loop
      vertex 50.1936 19.5542 0
      vertex 57.0845 -4.4773 0
      vertex 53.6014 -5.44324 0
    endloop
  endfacet
  facet normal 0 0 -1
    outer loop
      vertex 60.5502 -3.45071 0
      vertex 53.2409 20.4569 0
      vertex 56.272 21.4126 0
    endloop
  endfacet
  facet normal 0 0 -1
    outer loop
      vertex 57.0845 -4.4773 0
      vertex 50.1936 19.5542 0
      vertex 53.2409 20.4569 0
    endloop
  endfacet
  facet normal 0 0 -1
    outer loop
      vertex 47.1309 18.7049 0
      vertex 53.6014 -5.44324 0
      vertex 50.102 -6.34824 0
    endloop
  endfacet
  facet normal 0 0 -1
    outer loop
      vertex 53.6014 -5.44324 0
      vertex 47.1309 18.7049 0
      vertex 50.1936 19.5542 0
    endloop
  endfacet
  facet normal 0 0 -1
    outer loop
      vertex 44.054 17.9091 0
      vertex 50.102 -6.34824 0
      vertex 46.5874 -7.19204 0
    endloop
  endfacet
  facet normal 0 0 -1
    outer loop
      vertex 50.102 -6.34824 0
      vertex 44.054 17.9091 0
      vertex 47.1309 18.7049 0
    endloop
  endfacet
  facet normal 0 0 -1
    outer loop
      vertex 40.9636 17.1672 0
      vertex 46.5874 -7.19204 0
      vertex 43.0585 -7.97437 0
    endloop
  endfacet
  facet normal 0 0 -1
    outer loop
      vertex 46.5874 -7.19204 0
      vertex 40.9636 17.1672 0
      vertex 44.054 17.9091 0
    endloop
  endfacet
  facet normal 0 0 -1
    outer loop
      vertex 37.8607 16.4793 0
      vertex 43.0585 -7.97437 0
      vertex 39.5165 -8.69499 0
    endloop
  endfacet
  facet normal 0 0 -1
    outer loop
      vertex 43.0585 -7.97437 0
      vertex 37.8607 16.4793 0
      vertex 40.9636 17.1672 0
    endloop
  endfacet
  facet normal 0 0 -1
    outer loop
      vertex 34.7463 15.8457 0
      vertex 39.5165 -8.69499 0
      vertex 35.9625 -9.35369 0
    endloop
  endfacet
  facet normal 0 0 -1
    outer loop
      vertex 39.5165 -8.69499 0
      vertex 34.7463 15.8457 0
      vertex 37.8607 16.4793 0
    endloop
  endfacet
  facet normal 0 0 -1
    outer loop
      vertex 31.6213 15.2665 0
      vertex 35.9625 -9.35369 0
      vertex 32.3976 -9.95025 0
    endloop
  endfacet
  facet normal 0 0 -1
    outer loop
      vertex 35.9625 -9.35369 0
      vertex 31.6213 15.2665 0
      vertex 34.7463 15.8457 0
    endloop
  endfacet
  facet normal 0 0 -1
    outer loop
      vertex 28.4867 14.742 0
      vertex 32.3976 -9.95025 0
      vertex 28.8228 -10.4845 0
    endloop
  endfacet
  facet normal 0 0 -1
    outer loop
      vertex 32.3976 -9.95025 0
      vertex 28.4867 14.742 0
      vertex 31.6213 15.2665 0
    endloop
  endfacet
  facet normal 0 0 -1
    outer loop
      vertex 28.8228 -10.4845 0
      vertex 25.3434 14.2722 0
      vertex 28.4867 14.742 0
    endloop
  endfacet
  facet normal 0 0 -1
    outer loop
      vertex 25.2391 -10.9563 0
      vertex 25.3434 14.2722 0
      vertex 28.8228 -10.4845 0
    endloop
  endfacet
  facet normal 0 0 -1
    outer loop
      vertex 25.2391 -10.9563 0
      vertex 22.1924 13.8573 0
      vertex 25.3434 14.2722 0
    endloop
  endfacet
  facet normal 0 0 -1
    outer loop
      vertex 21.6478 -11.3655 0
      vertex 22.1924 13.8573 0
      vertex 25.2391 -10.9563 0
    endloop
  endfacet
  facet normal 0 0 -1
    outer loop
      vertex 21.6478 -11.3655 0
      vertex 19.0346 13.4976 0
      vertex 22.1924 13.8573 0
    endloop
  endfacet
  facet normal 0 0 -1
    outer loop
      vertex 18.05 -11.7119 0
      vertex 19.0346 13.4976 0
      vertex 21.6478 -11.3655 0
    endloop
  endfacet
  facet normal 0 0 -1
    outer loop
      vertex 18.05 -11.7119 0
      vertex 15.8711 13.1929 0
      vertex 19.0346 13.4976 0
    endloop
  endfacet
  facet normal 0 0 -1
    outer loop
      vertex 6 1.2 0
      vertex 18.05 -11.7119 0
      vertex 14.4466 -11.9955 0
    endloop
  endfacet
  facet normal 0 0 -1
    outer loop
      vertex 18.05 -11.7119 0
      vertex 6 1.2 0
      vertex 15.8711 13.1929 0
    endloop
  endfacet
  facet normal 0 0 -1
    outer loop
      vertex 6 1.2 0
      vertex 14.4466 -11.9955 0
      vertex 10.8388 -12.2162 0
    endloop
  endfacet
  facet normal 0 0 -1
    outer loop
      vertex 15.8711 13.1929 0
      vertex 6 1.2 0
      vertex 12.7027 12.9436 0
    endloop
  endfacet
  facet normal 0 0 -1
    outer loop
      vertex 6 1.2 0
      vertex 10.8388 -12.2162 0
      vertex 7.22768 -12.3738 0
    endloop
  endfacet
  facet normal 0 0 -1
    outer loop
      vertex 6 8.4 0
      vertex 12.7027 12.9436 0
      vertex 6 1.2 0
    endloop
  endfacet
  facet normal 0 0 -1
    outer loop
      vertex 12.7027 12.9436 0
      vertex 6 8.4 0
      vertex 9.53038 12.7496 0
    endloop
  endfacet
  facet normal 0 0 -1
    outer loop
      vertex 0 -8 0
      vertex 7.22768 -12.3738 0
      vertex 3.61439 -12.4685 0
    endloop
  endfacet
  facet normal 0 0 -1
    outer loop
      vertex 0 -8 0
      vertex 3.61439 -12.4685 0
      vertex 0 -12.5 0
    endloop
  endfacet
  facet normal 0 0 -1
    outer loop
      vertex 7.22768 -12.3738 0
      vertex 0 -8 0
      vertex 6 1.2 0
    endloop
  endfacet
  facet normal 0 0 -1
    outer loop
      vertex 0 -1 0
      vertex 6 1.2 0
      vertex 0 -8 0
    endloop
  endfacet
  facet normal -0 0 -1
    outer loop
      vertex 6 1.2 0
      vertex 0 -1 0
      vertex 0 1.2 0
    endloop
  endfacet
  facet normal 0 0 -1
    outer loop
      vertex 71.1521 26.9761 0
      vertex 79.639 15.7278 0
      vertex 73.2442 12.8806 0
    endloop
  endfacet
  facet normal 0 0 -1
    outer loop
      vertex 79.639 15.7278 0
      vertex 71.1521 26.9761 0
      vertex 74.0667 28.2434 0
    endloop
  endfacet
  facet normal 0 0 -1
    outer loop
      vertex 9.53038 12.7496 0
      vertex 6 8.4 0
      vertex 6.3552 12.6109 0
    endloop
  endfacet
  facet normal 0 0 -1
    outer loop
      vertex 6 8.4 0
      vertex 3.17808 12.5277 0
      vertex 6.3552 12.6109 0
    endloop
  endfacet
  facet normal 0 0 -1
    outer loop
      vertex 0 8.4 0
      vertex 3.17808 12.5277 0
      vertex 6 8.4 0
    endloop
  endfacet
  facet normal 0 0 -1
    outer loop
      vertex 3.17808 12.5277 0
      vertex 0 8.4 0
      vertex 0 12.5 0
    endloop
  endfacet
  facet normal 1 0 0
    outer loop
      vertex 0 -2.8 5.2
      vertex 0 -3.1 4.6
      vertex 0 -2.8 4.6
    endloop
  endfacet
  facet normal 1 0 0
    outer loop
      vertex 0 -3.1 4.6
      vertex 0 -5.9 4.6
      vertex 0 -3.1 3.5
    endloop
  endfacet
  facet normal 1 0 0
    outer loop
      vertex 0 -2.8 5.2
      vertex 0 -5.9 4.6
      vertex 0 -3.1 4.6
    endloop
  endfacet
  facet normal 1 -0 0
    outer loop
      vertex 0 -6.2 5.2
      vertex 0 -5.9 4.6
      vertex 0 -2.8 5.2
    endloop
  endfacet
  facet normal 1 0 0
    outer loop
      vertex 0 -5.9 4.6
      vertex 0 -6.2 5.2
      vertex 0 -6.2 4.6
    endloop
  endfacet
  facet normal 1 0 0
    outer loop
      vertex 0 -3.1 3.5
      vertex 0 -5.9 4.6
      vertex 0 -5.9 3.5
    endloop
  endfacet
  facet normal -1 0 0
    outer loop
      vertex 0 -12.5 0
      vertex 0 -8 2.6
      vertex 0 -8 0
    endloop
  endfacet
  facet normal -1 0 -0
    outer loop
      vertex 0 -9 5
      vertex 0 -8 2.6
      vertex 0 -12.5 0
    endloop
  endfacet
  facet normal -1 0 0
    outer loop
      vertex 0 -8 3.5
      vertex 0 -9 5
      vertex 0 -8 5
    endloop
  endfacet
  facet normal -1 0 0
    outer loop
      vertex 0 -8 2.6
      vertex 0 -9 5
      vertex 0 -8 3.5
    endloop
  endfacet
  facet normal -1 0 0
    outer loop
      vertex 0 -8 2.6
      vertex 0 -5.9 3.5
      vertex 0 -5.9 2.6
    endloop
  endfacet
  facet normal -1 -0 0
    outer loop
      vertex 0 -5.9 3.5
      vertex 0 -8 2.6
      vertex 0 -8 3.5
    endloop
  endfacet
  facet normal -1 0 0
    outer loop
      vertex 0 1.2 0
      vertex 0 -1 0
      vertex 0 1.2 2.5
    endloop
  endfacet
  facet normal -1 0 0
    outer loop
      vertex 0 -1 2.6
      vertex 0 1.2 2.5
      vertex 0 -1 0
    endloop
  endfacet
  facet normal -1 0 0
    outer loop
      vertex 0 -1 2.6
      vertex 0 3.4 3.5
      vertex 0 1.2 2.5
    endloop
  endfacet
  facet normal -1 0 0
    outer loop
      vertex 0 -3.1 3.5
      vertex 0 -1 2.6
      vertex 0 -3.1 2.6
    endloop
  endfacet
  facet normal -1 0 0
    outer loop
      vertex 0 -1 2.6
      vertex 0 -3.1 3.5
      vertex 0 3.4 3.5
    endloop
  endfacet
  facet normal -1 0 0
    outer loop
      vertex 0 8.4 2.5
      vertex 0 6.4 3.5
      vertex 0 8 3.5
    endloop
  endfacet
  facet normal -1 0 0
    outer loop
      vertex 0 8.4 2.5
      vertex 0 12.5 0
      vertex 0 8.4 0
    endloop
  endfacet
  facet normal -1 0 0
    outer loop
      vertex 0 12.5 0
      vertex 0 8.4 2.5
      vertex 0 9 5
    endloop
  endfacet
  facet normal -1 0 0
    outer loop
      vertex 0 8 3.5
      vertex 0 9 5
      vertex 0 8.4 2.5
    endloop
  endfacet
  facet normal -1 -0 0
    outer loop
      vertex 0 9 5
      vertex 0 8 3.5
      vertex 0 8 5
    endloop
  endfacet
  facet normal 0 -1 0
    outer loop
      vertex -6 -8 0
      vertex 0 -8 2.6
      vertex -6 -8 2.6
    endloop
  endfacet
  facet normal 0 -1 -0
    outer loop
      vertex 0 -8 2.6
      vertex -6 -8 0
      vertex 0 -8 0
    endloop
  endfacet
  facet normal 0 1 -0
    outer loop
      vertex 0 -1 0
      vertex -6 -1 2.6
      vertex 0 -1 2.6
    endloop
  endfacet
  facet normal 0 1 0
    outer loop
      vertex -6 -1 2.6
      vertex 0 -1 0
      vertex -6 -1 0
    endloop
  endfacet
  facet normal 0 0 -1
    outer loop
      vertex -6 -6.2 4.6
      vertex 0 -5.9 4.6
      vertex 0 -6.2 4.6
    endloop
  endfacet
  facet normal -0 0 -1
    outer loop
      vertex 0 -5.9 4.6
      vertex -6 -6.2 4.6
      vertex -6 -5.9 4.6
    endloop
  endfacet
  facet normal 0 0 -1
    outer loop
      vertex -6 -3.1 4.6
      vertex 0 -2.8 4.6
      vertex 0 -3.1 4.6
    endloop
  endfacet
  facet normal -0 0 -1
    outer loop
      vertex 0 -2.8 4.6
      vertex -6 -3.1 4.6
      vertex -6 -2.8 4.6
    endloop
  endfacet
  facet normal 0 -1 0
    outer loop
      vertex -6 -5.9 4.6
      vertex 0 -5.9 3.5
      vertex 0 -5.9 4.6
    endloop
  endfacet
  facet normal 0 -1 0
    outer loop
      vertex -6 -5.9 2.6
      vertex 0 -5.9 3.5
      vertex -6 -5.9 4.6
    endloop
  endfacet
  facet normal 0 -1 -0
    outer loop
      vertex 0 -5.9 3.5
      vertex -6 -5.9 2.6
      vertex 0 -5.9 2.6
    endloop
  endfacet
  facet normal 0 1 -0
    outer loop
      vertex 0 -3.1 3.5
      vertex -6 -3.1 4.6
      vertex 0 -3.1 4.6
    endloop
  endfacet
  facet normal 0 1 0
    outer loop
      vertex -6 -3.1 2.6
      vertex 0 -3.1 3.5
      vertex 0 -3.1 2.6
    endloop
  endfacet
  facet normal 0 1 0
    outer loop
      vertex 0 -3.1 3.5
      vertex -6 -3.1 2.6
      vertex -6 -3.1 4.6
    endloop
  endfacet
  facet normal -0 0 1
    outer loop
      vertex -6 -2.8 5.2
      vertex 0 -6.2 5.2
      vertex 0 -2.8 5.2
    endloop
  endfacet
  facet normal 0 0 1
    outer loop
      vertex 0 -6.2 5.2
      vertex -6 -2.8 5.2
      vertex -6 -6.2 5.2
    endloop
  endfacet
  facet normal 0 -1 0
    outer loop
      vertex -6 -6.2 4.6
      vertex 0 -6.2 5.2
      vertex -6 -6.2 5.2
    endloop
  endfacet
  facet normal 0 -1 -0
    outer loop
      vertex 0 -6.2 5.2
      vertex -6 -6.2 4.6
      vertex 0 -6.2 4.6
    endloop
  endfacet
  facet normal 0 1 -0
    outer loop
      vertex 0 -2.8 4.6
      vertex -6 -2.8 5.2
      vertex 0 -2.8 5.2
    endloop
  endfacet
  facet normal 0 1 0
    outer loop
      vertex -6 -2.8 5.2
      vertex 0 -2.8 4.6
      vertex -6 -2.8 4.6
    endloop
  endfacet
  facet normal 0.913592 0.406633 0
    outer loop
      vertex 82.1105 24.9285 5.2
      vertex 82.2325 24.6544 4.6
      vertex 82.1105 24.9285 4.6
    endloop
  endfacet
  facet normal 0.913552 0.406722 0
    outer loop
      vertex 82.2325 24.6544 4.6
      vertex 83.3713 22.0965 4.6
      vertex 82.2325 24.6544 2.6
    endloop
  endfacet
  facet normal 0.913552 0.406722 -4.83818e-05
    outer loop
      vertex 82.1105 24.9285 5.2
      vertex 83.3713 22.0965 4.6
      vertex 82.2325 24.6544 4.6
    endloop
  endfacet
  facet normal 0.913548 0.406731 -9.89792e-05
    outer loop
      vertex 83.4934 21.8224 5.2
      vertex 83.3713 22.0965 4.6
      vertex 82.1105 24.9285 5.2
    endloop
  endfacet
  facet normal 0.913468 0.406911 0
    outer loop
      vertex 83.3713 22.0965 4.6
      vertex 83.4934 21.8224 5.2
      vertex 83.4934 21.8224 4.6
    endloop
  endfacet
  facet normal 0.913532 0.406766 0
    outer loop
      vertex 82.2325 24.6544 2.6
      vertex 81.3783 26.5728 0
      vertex 81.3783 26.5728 2.6
    endloop
  endfacet
  facet normal 0.913552 0.406722 -0
    outer loop
      vertex 83.3713 22.0965 2.6
      vertex 82.2325 24.6544 2.6
      vertex 83.3713 22.0965 4.6
    endloop
  endfacet
  facet normal 0.913552 0.406722 -3.90474e-05
    outer loop
      vertex 82.2325 24.6544 2.6
      vertex 83.3713 22.0965 2.6
      vertex 81.3783 26.5728 0
    endloop
  endfacet
  facet normal 0.91354 0.406748 -0
    outer loop
      vertex 84.2255 20.178 0
      vertex 83.3713 22.0965 2.6
      vertex 84.2255 20.178 2.6
    endloop
  endfacet
  facet normal 0.913543 0.406743 4.66813e-06
    outer loop
      vertex 83.3713 22.0965 2.6
      vertex 84.2255 20.178 0
      vertex 81.3783 26.5728 0
    endloop
  endfacet
  facet normal 0 0 1
    outer loop
      vertex 81.3783 26.5728 2.6
      vertex 76.7512 22.214 2.6
      vertex 82.2325 24.6544 2.6
    endloop
  endfacet
  facet normal 0 -0 1
    outer loop
      vertex 76.7512 22.214 2.6
      vertex 81.3783 26.5728 2.6
      vertex 75.8971 24.1324 2.6
    endloop
  endfacet
  facet normal 0 0 1
    outer loop
      vertex 83.3713 22.0965 2.6
      vertex 78.7442 17.7376 2.6
      vertex 84.2255 20.178 2.6
    endloop
  endfacet
  facet normal 0 -0 1
    outer loop
      vertex 78.7442 17.7376 2.6
      vertex 83.3713 22.0965 2.6
      vertex 77.8901 19.656 2.6
    endloop
  endfacet
  facet normal 0 0 -1
    outer loop
      vertex 78.7442 17.7376 0
      vertex 81.3783 26.5728 0
      vertex 84.2255 20.178 0
    endloop
  endfacet
  facet normal 0 0 -1
    outer loop
      vertex 81.3783 26.5728 0
      vertex 78.7442 17.7376 0
      vertex 75.8971 24.1324 0
    endloop
  endfacet
  facet normal -0.91355 -0.406726 0
    outer loop
      vertex 75.8971 24.1324 0
      vertex 76.7512 22.214 2.6
      vertex 75.8971 24.1324 2.6
    endloop
  endfacet
  facet normal -0.913545 -0.406738 0
    outer loop
      vertex 76.7512 22.214 2.6
      vertex 77.8901 19.656 2.6
      vertex 76.7512 22.214 3.5
    endloop
  endfacet
  facet normal -0.913545 -0.406738 -1.07085e-05
    outer loop
      vertex 75.8971 24.1324 0
      vertex 77.8901 19.656 2.6
      vertex 76.7512 22.214 2.6
    endloop
  endfacet
  facet normal -0.913548 -0.406731 4.28354e-06
    outer loop
      vertex 78.7442 17.7376 0
      vertex 77.8901 19.656 2.6
      vertex 75.8971 24.1324 0
    endloop
  endfacet
  facet normal -0.91355 -0.406726 0
    outer loop
      vertex 77.8901 19.656 2.6
      vertex 78.7442 17.7376 0
      vertex 78.7442 17.7376 2.6
    endloop
  endfacet
  facet normal -0.913545 -0.406738 0
    outer loop
      vertex 76.7512 22.214 3.5
      vertex 77.8901 19.656 2.6
      vertex 77.8901 19.656 3.5
    endloop
  endfacet
  facet normal -0.406738 0.913545 0
    outer loop
      vertex 81.3783 26.5728 0
      vertex 75.8971 24.1324 2.6
      vertex 81.3783 26.5728 2.6
    endloop
  endfacet
  facet normal -0.406738 0.913545 0
    outer loop
      vertex 75.8971 24.1324 2.6
      vertex 81.3783 26.5728 0
      vertex 75.8971 24.1324 0
    endloop
  endfacet
  facet normal 0.406732 -0.913547 0
    outer loop
      vertex 78.7442 17.7376 0
      vertex 84.2255 20.178 2.6
      vertex 78.7442 17.7376 2.6
    endloop
  endfacet
  facet normal 0.406732 -0.913547 0
    outer loop
      vertex 84.2255 20.178 2.6
      vertex 78.7442 17.7376 0
      vertex 84.2255 20.178 0
    endloop
  endfacet
  facet normal 0 0 -1
    outer loop
      vertex 76.7813 22.2274 4.6
      vertex 82.1105 24.9285 4.6
      vertex 82.2325 24.6544 4.6
    endloop
  endfacet
  facet normal 0 0 -1
    outer loop
      vertex 82.1105 24.9285 4.6
      vertex 76.7813 22.2274 4.6
      vertex 76.6592 22.5014 4.6
    endloop
  endfacet
  facet normal 0 0 -1
    outer loop
      vertex 78.0427 19.3956 4.6
      vertex 83.3713 22.0965 4.6
      vertex 83.4934 21.8224 4.6
    endloop
  endfacet
  facet normal 0 0 -1
    outer loop
      vertex 83.3713 22.0965 4.6
      vertex 78.0427 19.3956 4.6
      vertex 77.9206 19.6696 4.6
    endloop
  endfacet
  facet normal -0.406732 0.913547 0
    outer loop
      vertex 82.2325 24.6544 4.6
      vertex 76.7813 22.2274 3.5
      vertex 76.7813 22.2274 4.6
    endloop
  endfacet
  facet normal -0.406732 0.913547 0
    outer loop
      vertex 82.2325 24.6544 2.6
      vertex 76.7813 22.2274 3.5
      vertex 82.2325 24.6544 4.6
    endloop
  endfacet
  facet normal -0.406732 0.913547 1.22592e-06
    outer loop
      vertex 76.7512 22.214 2.6
      vertex 76.7813 22.2274 3.5
      vertex 82.2325 24.6544 2.6
    endloop
  endfacet
  facet normal -0.406702 0.913561 0
    outer loop
      vertex 76.7813 22.2274 3.5
      vertex 76.7512 22.214 2.6
      vertex 76.7512 22.214 3.5
    endloop
  endfacet
  facet normal 0.40725 -0.913317 0
    outer loop
      vertex 77.8901 19.656 3.5
      vertex 77.8901 19.656 2.6
      vertex 77.9206 19.6696 3.5
    endloop
  endfacet
  facet normal 0.40675 -0.91354 0
    outer loop
      vertex 77.9206 19.6696 3.5
      vertex 83.3713 22.0965 4.6
      vertex 77.9206 19.6696 4.6
    endloop
  endfacet
  facet normal 0.406752 -0.913538 2.01983e-05
    outer loop
      vertex 83.3713 22.0965 2.6
      vertex 77.9206 19.6696 3.5
      vertex 77.8901 19.656 2.6
    endloop
  endfacet
  facet normal 0.40675 -0.91354 0
    outer loop
      vertex 77.9206 19.6696 3.5
      vertex 83.3713 22.0965 2.6
      vertex 83.3713 22.0965 4.6
    endloop
  endfacet
  facet normal 0 0 1
    outer loop
      vertex 82.1105 24.9285 5.2
      vertex 78.0427 19.3956 5.2
      vertex 83.4934 21.8224 5.2
    endloop
  endfacet
  facet normal 0 -0 1
    outer loop
      vertex 78.0427 19.3956 5.2
      vertex 82.1105 24.9285 5.2
      vertex 76.6592 22.5014 5.2
    endloop
  endfacet
  facet normal -0.40674 0.913544 0
    outer loop
      vertex 82.1105 24.9285 4.6
      vertex 76.6592 22.5014 5.2
      vertex 82.1105 24.9285 5.2
    endloop
  endfacet
  facet normal -0.40674 0.913544 0
    outer loop
      vertex 76.6592 22.5014 5.2
      vertex 82.1105 24.9285 4.6
      vertex 76.6592 22.5014 4.6
    endloop
  endfacet
  facet normal 0.406736 -0.913546 0
    outer loop
      vertex 78.0427 19.3956 4.6
      vertex 83.4934 21.8224 5.2
      vertex 78.0427 19.3956 5.2
    endloop
  endfacet
  facet normal 0.406736 -0.913546 0
    outer loop
      vertex 83.4934 21.8224 5.2
      vertex 78.0427 19.3956 4.6
      vertex 83.4934 21.8224 4.6
    endloop
  endfacet
  facet normal 0.913556 0.406714 -0
    outer loop
      vertex 75.8969 24.1327 3.5
      vertex 75.4903 25.046 5
      vertex 75.8969 24.1327 5
    endloop
  endfacet
  facet normal 0.913549 0.406729 -1.08346e-05
    outer loop
      vertex 75.4903 25.046 5
      vertex 75.8969 24.1327 3.5
      vertex 74.0667 28.2434 0
    endloop
  endfacet
  facet normal 0.913546 0.406736 5.95784e-08
    outer loop
      vertex 74.0667 28.2434 0
      vertex 75.8969 24.1327 3.5
      vertex 80.1881 14.4945 3.5
    endloop
  endfacet
  facet normal 0.913532 0.406767 0
    outer loop
      vertex 82.8116 8.60214 5
      vertex 82.4047 9.51597 4.76737
      vertex 82.4047 9.51597 5
    endloop
  endfacet
  facet normal 0.913546 0.406736 1.57869e-07
    outer loop
      vertex 80.1881 14.4945 3.5
      vertex 79.639 15.7278 2.5
      vertex 74.0667 28.2434 0
    endloop
  endfacet
  facet normal 0.913447 0.406957 0.000325769
    outer loop
      vertex 79.639 15.7278 2.5
      vertex 80.1881 14.4945 3.5
      vertex 79.9429 15.0454 2.83953
    endloop
  endfacet
  facet normal 0.913535 0.40676 0.000128748
    outer loop
      vertex 79.9429 15.0454 2.83953
      vertex 80.1881 14.4945 3.5
      vertex 81.2573 12.0932 3.5
    endloop
  endfacet
  facet normal 0.913546 0.406736 0
    outer loop
      vertex 74.0667 28.2434 0
      vertex 79.639 15.7278 2.5
      vertex 79.639 15.7278 0
    endloop
  endfacet
  facet normal 0.913532 0.406767 0
    outer loop
      vertex 82.8116 8.60214 5
      vertex 82.4047 9.51597 3.5
      vertex 82.4047 9.51597 4.76737
    endloop
  endfacet
  facet normal 0.913544 0.40674 -1.98691e-05
    outer loop
      vertex 82.4047 9.51597 3.5
      vertex 82.8116 8.60214 5
      vertex 82.5675 9.15027 2.5
    endloop
  endfacet
  facet normal 0.913534 0.406761 -1.42528e-05
    outer loop
      vertex 84.2352 5.40474 0
      vertex 82.5675 9.15027 2.5
      vertex 82.8116 8.60214 5
    endloop
  endfacet
  facet normal 0.913538 0.406753 0
    outer loop
      vertex 82.5675 9.15027 2.5
      vertex 84.2352 5.40474 0
      vertex 82.5675 9.15027 0
    endloop
  endfacet
  facet normal 0.913562 0.4067 -2.26042e-06
    outer loop
      vertex 81.7541 10.9774 3.5
      vertex 82.4047 9.51597 3.5
      vertex 82.5675 9.15027 2.5
    endloop
  endfacet
  facet normal -0.0071497 0.819211 0.573448
    outer loop
      vertex 3.23917 9.02827 5
      vertex 0 12.5 0
      vertex 0 9 5
    endloop
  endfacet
  facet normal -0.00714023 0.819214 0.573444
    outer loop
      vertex 3.23917 9.02827 5
      vertex 3.17808 12.5277 0
      vertex 0 12.5 0
    endloop
  endfacet
  facet normal 0 0 1
    outer loop
      vertex 75.4903 25.046 5
      vertex 72.9392 22.846 5
      vertex 75.8969 24.1327 5
    endloop
  endfacet
  facet normal -0 0 1
    outer loop
      vertex 72.5197 23.7543 5
      vertex 72.9392 22.846 5
      vertex 75.4903 25.046 5
    endloop
  endfacet
  facet normal 0 0 1
    outer loop
      vertex 72.5197 23.7543 5
      vertex 69.9293 21.5987 5
      vertex 72.9392 22.846 5
    endloop
  endfacet
  facet normal -0 0 1
    outer loop
      vertex 69.527 22.5147 5
      vertex 69.9293 21.5987 5
      vertex 72.5197 23.7543 5
    endloop
  endfacet
  facet normal 0 0 1
    outer loop
      vertex 69.527 22.5147 5
      vertex 66.8981 20.4041 5
      vertex 69.9293 21.5987 5
    endloop
  endfacet
  facet normal -0 0 1
    outer loop
      vertex 66.5131 21.3275 5
      vertex 66.8981 20.4041 5
      vertex 69.527 22.5147 5
    endloop
  endfacet
  facet normal 0 0 1
    outer loop
      vertex 66.5131 21.3275 5
      vertex 63.8465 19.2626 5
      vertex 66.8981 20.4041 5
    endloop
  endfacet
  facet normal -0 0 1
    outer loop
      vertex 63.4789 20.1931 5
      vertex 63.8465 19.2626 5
      vertex 66.5131 21.3275 5
    endloop
  endfacet
  facet normal 0 0 1
    outer loop
      vertex 63.4789 20.1931 5
      vertex 60.7754 18.1746 5
      vertex 63.8465 19.2626 5
    endloop
  endfacet
  facet normal -0 0 1
    outer loop
      vertex 60.4254 19.1118 5
      vertex 60.7754 18.1746 5
      vertex 63.4789 20.1931 5
    endloop
  endfacet
  facet normal 0 0 1
    outer loop
      vertex 60.4254 19.1118 5
      vertex 57.6858 17.1404 5
      vertex 60.7754 18.1746 5
    endloop
  endfacet
  facet normal -0 0 1
    outer loop
      vertex 57.3536 18.0839 5
      vertex 57.6858 17.1404 5
      vertex 60.4254 19.1118 5
    endloop
  endfacet
  facet normal 0 0 1
    outer loop
      vertex 57.3536 18.0839 5
      vertex 54.5786 16.1603 5
      vertex 57.6858 17.1404 5
    endloop
  endfacet
  facet normal -0 0 1
    outer loop
      vertex 54.2642 17.1098 5
      vertex 54.5786 16.1603 5
      vertex 57.3536 18.0839 5
    endloop
  endfacet
  facet normal 0 0 1
    outer loop
      vertex 54.2642 17.1098 5
      vertex 51.4548 15.2346 5
      vertex 54.5786 16.1603 5
    endloop
  endfacet
  facet normal -0 0 1
    outer loop
      vertex 51.1583 16.1898 5
      vertex 51.4548 15.2346 5
      vertex 54.2642 17.1098 5
    endloop
  endfacet
  facet normal 0 0 1
    outer loop
      vertex 51.1583 16.1898 5
      vertex 48.3153 14.3635 5
      vertex 51.4548 15.2346 5
    endloop
  endfacet
  facet normal -0 0 1
    outer loop
      vertex 48.0368 15.3242 5
      vertex 48.3153 14.3635 5
      vertex 51.1583 16.1898 5
    endloop
  endfacet
  facet normal 0 0 1
    outer loop
      vertex 48.0368 15.3242 5
      vertex 45.1611 13.5474 5
      vertex 48.3153 14.3635 5
    endloop
  endfacet
  facet normal -0 0 1
    outer loop
      vertex 44.9007 14.5131 5
      vertex 45.1611 13.5474 5
      vertex 48.0368 15.3242 5
    endloop
  endfacet
  facet normal 0 0 1
    outer loop
      vertex 44.9007 14.5131 5
      vertex 41.9931 12.7865 5
      vertex 45.1611 13.5474 5
    endloop
  endfacet
  facet normal -0 0 1
    outer loop
      vertex 41.7509 13.7569 5
      vertex 41.9931 12.7865 5
      vertex 44.9007 14.5131 5
    endloop
  endfacet
  facet normal 0 0 1
    outer loop
      vertex 41.7509 13.7569 5
      vertex 38.8122 12.081 5
      vertex 41.9931 12.7865 5
    endloop
  endfacet
  facet normal -0 0 1
    outer loop
      vertex 38.5884 13.0558 5
      vertex 38.8122 12.081 5
      vertex 41.7509 13.7569 5
    endloop
  endfacet
  facet normal 0 0 1
    outer loop
      vertex 38.5884 13.0558 5
      vertex 35.6196 11.4312 5
      vertex 38.8122 12.081 5
    endloop
  endfacet
  facet normal -0 0 1
    outer loop
      vertex 35.4142 12.41 5
      vertex 35.6196 11.4312 5
      vertex 38.5884 13.0558 5
    endloop
  endfacet
  facet normal 0 0 1
    outer loop
      vertex 35.4142 12.41 5
      vertex 32.4161 10.8372 5
      vertex 35.6196 11.4312 5
    endloop
  endfacet
  facet normal -0 0 1
    outer loop
      vertex 32.2291 11.8197 5
      vertex 32.4161 10.8372 5
      vertex 35.4142 12.41 5
    endloop
  endfacet
  facet normal 0 0 1
    outer loop
      vertex 32.2291 11.8197 5
      vertex 29.2027 10.2993 5
      vertex 32.4161 10.8372 5
    endloop
  endfacet
  facet normal -0 0 1
    outer loop
      vertex 29.0342 11.285 5
      vertex 29.2027 10.2993 5
      vertex 32.2291 11.8197 5
    endloop
  endfacet
  facet normal 0 0 1
    outer loop
      vertex 29.0342 11.285 5
      vertex 25.9804 9.81749 5
      vertex 29.2027 10.2993 5
    endloop
  endfacet
  facet normal -0 0 1
    outer loop
      vertex 25.8305 10.8062 5
      vertex 25.9804 9.81749 5
      vertex 29.0342 11.285 5
    endloop
  endfacet
  facet normal 0 0 1
    outer loop
      vertex 25.8305 10.8062 5
      vertex 22.7502 9.39205 5
      vertex 25.9804 9.81749 5
    endloop
  endfacet
  facet normal -0 0 1
    outer loop
      vertex 22.6189 10.3834 5
      vertex 22.7502 9.39205 5
      vertex 25.8305 10.8062 5
    endloop
  endfacet
  facet normal 0 0 1
    outer loop
      vertex 22.6189 10.3834 5
      vertex 19.5131 9.02307 5
      vertex 22.7502 9.39205 5
    endloop
  endfacet
  facet normal -0 0 1
    outer loop
      vertex 19.4005 10.0167 5
      vertex 19.5131 9.02307 5
      vertex 22.6189 10.3834 5
    endloop
  endfacet
  facet normal 0 0 1
    outer loop
      vertex 19.4005 10.0167 5
      vertex 16.27 8.71066 5
      vertex 19.5131 9.02307 5
    endloop
  endfacet
  facet normal -0 0 1
    outer loop
      vertex 16.1761 9.70626 5
      vertex 16.27 8.71066 5
      vertex 19.4005 10.0167 5
    endloop
  endfacet
  facet normal 0 0 1
    outer loop
      vertex 16.1761 9.70626 5
      vertex 13.022 8.45493 5
      vertex 16.27 8.71066 5
    endloop
  endfacet
  facet normal -0 0 1
    outer loop
      vertex 12.9468 9.45211 5
      vertex 13.022 8.45493 5
      vertex 16.1761 9.70626 5
    endloop
  endfacet
  facet normal 0 0 1
    outer loop
      vertex 12.9468 9.45211 5
      vertex 9.76995 8.25594 5
      vertex 13.022 8.45493 5
    endloop
  endfacet
  facet normal -0 0 1
    outer loop
      vertex 9.71355 9.25436 5
      vertex 9.76995 8.25594 5
      vertex 12.9468 9.45211 5
    endloop
  endfacet
  facet normal 0 0 1
    outer loop
      vertex 9.71355 9.25436 5
      vertex 6.51496 8.11377 5
      vertex 9.76995 8.25594 5
    endloop
  endfacet
  facet normal -0 0 1
    outer loop
      vertex 6.47735 9.11306 5
      vertex 6.51496 8.11377 5
      vertex 9.71355 9.25436 5
    endloop
  endfacet
  facet normal 0 0 1
    outer loop
      vertex 6.47735 9.11306 5
      vertex 3.25798 8.02844 5
      vertex 6.51496 8.11377 5
    endloop
  endfacet
  facet normal -0 0 1
    outer loop
      vertex 3.23917 9.02827 5
      vertex 3.25798 8.02844 5
      vertex 6.47735 9.11306 5
    endloop
  endfacet
  facet normal -0 0 1
    outer loop
      vertex 0 9 5
      vertex 3.25798 8.02844 5
      vertex 3.23917 9.02827 5
    endloop
  endfacet
  facet normal 0 0 1
    outer loop
      vertex 3.25798 8.02844 5
      vertex 0 9 5
      vertex 0 8 5
    endloop
  endfacet
  facet normal 0 0 1
    outer loop
      vertex 79.1933 8.11896 5
      vertex 82.8116 8.60214 5
      vertex 82.4047 9.51597 5
    endloop
  endfacet
  facet normal 0 0 1
    outer loop
      vertex 82.8116 8.60214 5
      vertex 79.1933 8.11896 5
      vertex 79.5529 7.18521 5
    endloop
  endfacet
  facet normal 0 0 1
    outer loop
      vertex 75.9253 6.7647 5
      vertex 79.5529 7.18521 5
      vertex 79.1933 8.11896 5
    endloop
  endfacet
  facet normal 0 0 1
    outer loop
      vertex 79.5529 7.18521 5
      vertex 75.9253 6.7647 5
      vertex 76.2699 5.82537 5
    endloop
  endfacet
  facet normal 0 0 1
    outer loop
      vertex 72.6342 5.4677 5
      vertex 76.2699 5.82537 5
      vertex 75.9253 6.7647 5
    endloop
  endfacet
  facet normal 0 0 1
    outer loop
      vertex 76.2699 5.82537 5
      vertex 72.6342 5.4677 5
      vertex 72.9637 4.52302 5
    endloop
  endfacet
  facet normal 0 0 1
    outer loop
      vertex 69.321 4.22835 5
      vertex 72.9637 4.52302 5
      vertex 72.6342 5.4677 5
    endloop
  endfacet
  facet normal 0 0 1
    outer loop
      vertex 72.9637 4.52302 5
      vertex 69.321 4.22835 5
      vertex 69.6353 3.27858 5
    endloop
  endfacet
  facet normal 0 0 1
    outer loop
      vertex 65.9866 3.04705 5
      vertex 69.6353 3.27858 5
      vertex 69.321 4.22835 5
    endloop
  endfacet
  facet normal 0 0 1
    outer loop
      vertex 69.6353 3.27858 5
      vertex 65.9866 3.04705 5
      vertex 66.2857 2.09242 5
    endloop
  endfacet
  facet normal 0 0 1
    outer loop
      vertex 62.6321 1.92415 5
      vertex 66.2857 2.09242 5
      vertex 65.9866 3.04705 5
    endloop
  endfacet
  facet normal 0 0 1
    outer loop
      vertex 66.2857 2.09242 5
      vertex 62.6321 1.92415 5
      vertex 62.9159 0.964892 5
    endloop
  endfacet
  facet normal 0 0 1
    outer loop
      vertex 59.2585 0.859981 5
      vertex 62.9159 0.964892 5
      vertex 62.6321 1.92415 5
    endloop
  endfacet
  facet normal 0 0 1
    outer loop
      vertex 62.9159 0.964892 5
      vertex 59.2585 0.859981 5
      vertex 59.5269 -0.103648 5
    endloop
  endfacet
  facet normal 0 0 1
    outer loop
      vertex 55.8668 -0.14512 5
      vertex 59.5269 -0.103648 5
      vertex 59.2585 0.859981 5
    endloop
  endfacet
  facet normal 0 0 1
    outer loop
      vertex 59.5269 -0.103648 5
      vertex 55.8668 -0.14512 5
      vertex 56.1198 -1.11288 5
    endloop
  endfacet
  facet normal -0 0 1
    outer loop
      vertex 52.4581 -1.09085 5
      vertex 56.1198 -1.11288 5
      vertex 55.8668 -0.14512 5
    endloop
  endfacet
  facet normal 0 0 1
    outer loop
      vertex 56.1198 -1.11288 5
      vertex 52.4581 -1.09085 5
      vertex 52.6956 -2.0625 5
    endloop
  endfacet
  facet normal -0 0 1
    outer loop
      vertex 49.0334 -1.97692 5
      vertex 52.6956 -2.0625 5
      vertex 52.4581 -1.09085 5
    endloop
  endfacet
  facet normal 0 0 1
    outer loop
      vertex 52.6956 -2.0625 5
      vertex 49.0334 -1.97692 5
      vertex 49.2553 -2.95221 5
    endloop
  endfacet
  facet normal -0 0 1
    outer loop
      vertex 45.5937 -2.80307 5
      vertex 49.2553 -2.95221 5
      vertex 49.0334 -1.97692 5
    endloop
  endfacet
  facet normal 0 0 1
    outer loop
      vertex 49.2553 -2.95221 5
      vertex 45.5937 -2.80307 5
      vertex 45.8 -3.78174 5
    endloop
  endfacet
  facet normal -0 0 1
    outer loop
      vertex 42.1402 -3.56903 5
      vertex 45.8 -3.78174 5
      vertex 45.5937 -2.80307 5
    endloop
  endfacet
  facet normal 0 0 1
    outer loop
      vertex 45.8 -3.78174 5
      vertex 42.1402 -3.56903 5
      vertex 42.3308 -4.55085 5
    endloop
  endfacet
  facet normal -0 0 1
    outer loop
      vertex 38.6738 -4.27457 5
      vertex 42.3308 -4.55085 5
      vertex 42.1402 -3.56903 5
    endloop
  endfacet
  facet normal 0 0 1
    outer loop
      vertex 42.3308 -4.55085 5
      vertex 38.6738 -4.27457 5
      vertex 38.8487 -5.25929 5
    endloop
  endfacet
  facet normal -0 0 1
    outer loop
      vertex 35.1956 -4.91949 5
      vertex 38.8487 -5.25929 5
      vertex 38.6738 -4.27457 5
    endloop
  endfacet
  facet normal 0 0 1
    outer loop
      vertex 38.8487 -5.25929 5
      vertex 35.1956 -4.91949 5
      vertex 35.3548 -5.90686 5
    endloop
  endfacet
  facet normal -0 0 1
    outer loop
      vertex 31.7067 -5.50358 5
      vertex 35.3548 -5.90686 5
      vertex 35.1956 -4.91949 5
    endloop
  endfacet
  facet normal 0 0 1
    outer loop
      vertex 35.3548 -5.90686 5
      vertex 31.7067 -5.50358 5
      vertex 31.8501 -6.49335 5
    endloop
  endfacet
  facet normal -0 0 1
    outer loop
      vertex 28.2081 -6.02667 5
      vertex 31.8501 -6.49335 5
      vertex 31.7067 -5.50358 5
    endloop
  endfacet
  facet normal 0 0 1
    outer loop
      vertex 31.8501 -6.49335 5
      vertex 28.2081 -6.02667 5
      vertex 28.3356 -7.01858 5
    endloop
  endfacet
  facet normal -0 0 1
    outer loop
      vertex 24.701 -6.48859 5
      vertex 28.3356 -7.01858 5
      vertex 28.2081 -6.02667 5
    endloop
  endfacet
  facet normal 0 0 1
    outer loop
      vertex 28.3356 -7.01858 5
      vertex 24.701 -6.48859 5
      vertex 24.8126 -7.4824 5
    endloop
  endfacet
  facet normal -0 0 1
    outer loop
      vertex 21.1863 -6.88921 5
      vertex 24.8126 -7.4824 5
      vertex 24.701 -6.48859 5
    endloop
  endfacet
  facet normal 0 0 1
    outer loop
      vertex 24.8126 -7.4824 5
      vertex 21.1863 -6.88921 5
      vertex 21.282 -7.88466 5
    endloop
  endfacet
  facet normal -0 0 1
    outer loop
      vertex 17.6651 -7.2284 5
      vertex 21.282 -7.88466 5
      vertex 21.1863 -6.88921 5
    endloop
  endfacet
  facet normal 0 0 1
    outer loop
      vertex 21.282 -7.88466 5
      vertex 17.6651 -7.2284 5
      vertex 17.7449 -8.22524 5
    endloop
  endfacet
  facet normal -0 0 1
    outer loop
      vertex 14.1385 -7.50607 5
      vertex 17.7449 -8.22524 5
      vertex 17.6651 -7.2284 5
    endloop
  endfacet
  facet normal 0 0 1
    outer loop
      vertex 17.7449 -8.22524 5
      vertex 14.1385 -7.50607 5
      vertex 14.2024 -8.50404 5
    endloop
  endfacet
  facet normal -0 0 1
    outer loop
      vertex 10.6077 -7.72211 5
      vertex 14.2024 -8.50404 5
      vertex 14.1385 -7.50607 5
    endloop
  endfacet
  facet normal 0 0 1
    outer loop
      vertex 14.2024 -8.50404 5
      vertex 10.6077 -7.72211 5
      vertex 10.6556 -8.72097 5
    endloop
  endfacet
  facet normal 0 0 1
    outer loop
      vertex 10.6077 -7.72211 5
      vertex 7.10554 -8.87597 5
      vertex 10.6556 -8.72097 5
    endloop
  endfacet
  facet normal -0 0 1
    outer loop
      vertex 7.07358 -7.87648 5
      vertex 7.10554 -8.87597 5
      vertex 10.6077 -7.72211 5
    endloop
  endfacet
  facet normal 0 0 1
    outer loop
      vertex 7.07358 -7.87648 5
      vertex 3.55331 -8.96899 5
      vertex 7.10554 -8.87597 5
    endloop
  endfacet
  facet normal -0 0 1
    outer loop
      vertex 3.53733 -7.96912 5
      vertex 3.55331 -8.96899 5
      vertex 7.07358 -7.87648 5
    endloop
  endfacet
  facet normal -0 0 1
    outer loop
      vertex 0 -8 5
      vertex 3.55331 -8.96899 5
      vertex 3.53733 -7.96912 5
    endloop
  endfacet
  facet normal 0 0 1
    outer loop
      vertex 3.55331 -8.96899 5
      vertex 0 -8 5
      vertex 0 -9 5
    endloop
  endfacet
  facet normal 0.00713956 -0.819211 0.573448
    outer loop
      vertex 3.61439 -12.4685 0
      vertex 0 -9 5
      vertex 0 -12.5 0
    endloop
  endfacet
  facet normal 0.00714929 -0.819208 0.573452
    outer loop
      vertex 3.61439 -12.4685 0
      vertex 3.55331 -8.96899 5
      vertex 0 -9 5
    endloop
  endfacet
  facet normal -0.0214441 0.818964 0.573444
    outer loop
      vertex 3.23917 9.02827 5
      vertex 6.47735 9.11306 5
      vertex 3.17808 12.5277 0
    endloop
  endfacet
  facet normal -0.0214464 0.818964 0.573445
    outer loop
      vertex 6.47735 9.11306 5
      vertex 6.3552 12.6109 0
      vertex 3.17808 12.5277 0
    endloop
  endfacet
  facet normal 0.0214639 -0.818958 0.573452
    outer loop
      vertex 3.61439 -12.4685 0
      vertex 7.22768 -12.3738 0
      vertex 3.55331 -8.96899 5
    endloop
  endfacet
  facet normal 0.0214457 -0.818964 0.573444
    outer loop
      vertex 7.22768 -12.3738 0
      vertex 7.10554 -8.87597 5
      vertex 3.55331 -8.96899 5
    endloop
  endfacet
  facet normal -0.0357361 0.818465 0.573445
    outer loop
      vertex 6.47735 9.11306 5
      vertex 9.71355 9.25436 5
      vertex 6.3552 12.6109 0
    endloop
  endfacet
  facet normal -0.0357524 0.818459 0.573452
    outer loop
      vertex 9.71355 9.25436 5
      vertex 9.53038 12.7496 0
      vertex 6.3552 12.6109 0
    endloop
  endfacet
  facet normal 0.0357203 -0.818466 0.573444
    outer loop
      vertex 7.22768 -12.3738 0
      vertex 10.8388 -12.2162 0
      vertex 7.10554 -8.87597 5
    endloop
  endfacet
  facet normal 0.035735 -0.81846 0.573451
    outer loop
      vertex 10.8388 -12.2162 0
      vertex 10.6556 -8.72097 5
      vertex 7.10554 -8.87597 5
    endloop
  endfacet
  facet normal -0.0500123 0.817711 0.573452
    outer loop
      vertex 9.71355 9.25436 5
      vertex 12.9468 9.45211 5
      vertex 9.53038 12.7496 0
    endloop
  endfacet
  facet normal -0.0500064 0.817714 0.573449
    outer loop
      vertex 12.9468 9.45211 5
      vertex 12.7027 12.9436 0
      vertex 9.53038 12.7496 0
    endloop
  endfacet
  facet normal 0.0500219 -0.817711 0.573451
    outer loop
      vertex 10.8388 -12.2162 0
      vertex 14.4466 -11.9955 0
      vertex 10.6556 -8.72097 5
    endloop
  endfacet
  facet normal 0.0500132 -0.817715 0.573446
    outer loop
      vertex 14.4466 -11.9955 0
      vertex 14.2024 -8.50404 5
      vertex 10.6556 -8.72097 5
    endloop
  endfacet
  facet normal -0.0642766 0.816716 0.573449
    outer loop
      vertex 12.9468 9.45211 5
      vertex 16.1761 9.70626 5
      vertex 12.7027 12.9436 0
    endloop
  endfacet
  facet normal -0.0642623 0.816721 0.573443
    outer loop
      vertex 16.1761 9.70626 5
      vertex 15.8711 13.1929 0
      vertex 12.7027 12.9436 0
    endloop
  endfacet
  facet normal 0.0642785 -0.816717 0.573447
    outer loop
      vertex 14.4466 -11.9955 0
      vertex 18.05 -11.7119 0
      vertex 14.2024 -8.50404 5
    endloop
  endfacet
  facet normal 0.0642769 -0.816718 0.573446
    outer loop
      vertex 18.05 -11.7119 0
      vertex 17.7449 -8.22524 5
      vertex 14.2024 -8.50404 5
    endloop
  endfacet
  facet normal -0.0785126 0.815475 0.573443
    outer loop
      vertex 16.1761 9.70626 5
      vertex 19.4005 10.0167 5
      vertex 15.8711 13.1929 0
    endloop
  endfacet
  facet normal -0.0785432 0.815462 0.573456
    outer loop
      vertex 19.4005 10.0167 5
      vertex 19.0346 13.4976 0
      vertex 15.8711 13.1929 0
    endloop
  endfacet
  facet normal 0.0785145 -0.815472 0.573446
    outer loop
      vertex 18.05 -11.7119 0
      vertex 21.6478 -11.3655 0
      vertex 17.7449 -8.22524 5
    endloop
  endfacet
  facet normal 0.0785199 -0.81547 0.573449
    outer loop
      vertex 21.6478 -11.3655 0
      vertex 21.282 -7.88466 5
      vertex 17.7449 -8.22524 5
    endloop
  endfacet
  facet normal -0.0927426 0.81397 0.573456
    outer loop
      vertex 19.4005 10.0167 5
      vertex 22.6189 10.3834 5
      vertex 19.0346 13.4976 0
    endloop
  endfacet
  facet normal -0.0927191 0.81398 0.573446
    outer loop
      vertex 22.6189 10.3834 5
      vertex 22.1924 13.8573 0
      vertex 19.0346 13.4976 0
    endloop
  endfacet
  facet normal 0.0927459 -0.813975 0.573449
    outer loop
      vertex 21.6478 -11.3655 0
      vertex 25.2391 -10.9563 0
      vertex 21.282 -7.88466 5
    endloop
  endfacet
  facet normal 0.0927407 -0.813977 0.573446
    outer loop
      vertex 25.2391 -10.9563 0
      vertex 24.8126 -7.4824 5
      vertex 21.282 -7.88466 5
    endloop
  endfacet
  facet normal -0.106929 0.812235 0.573446
    outer loop
      vertex 22.6189 10.3834 5
      vertex 25.8305 10.8062 5
      vertex 22.1924 13.8573 0
    endloop
  endfacet
  facet normal -0.106948 0.812227 0.573454
    outer loop
      vertex 25.8305 10.8062 5
      vertex 25.3434 14.2722 0
      vertex 22.1924 13.8573 0
    endloop
  endfacet
  facet normal 0.106932 -0.812235 0.573446
    outer loop
      vertex 25.2391 -10.9563 0
      vertex 28.8228 -10.4845 0
      vertex 24.8126 -7.4824 5
    endloop
  endfacet
  facet normal 0.106934 -0.812234 0.573447
    outer loop
      vertex 28.8228 -10.4845 0
      vertex 28.3356 -7.01858 5
      vertex 24.8126 -7.4824 5
    endloop
  endfacet
  facet normal -0.121092 0.810239 0.573454
    outer loop
      vertex 25.8305 10.8062 5
      vertex 29.0342 11.285 5
      vertex 25.3434 14.2722 0
    endloop
  endfacet
  facet normal -0.121098 0.810236 0.573457
    outer loop
      vertex 29.0342 11.285 5
      vertex 28.4867 14.742 0
      vertex 25.3434 14.2722 0
    endloop
  endfacet
  facet normal 0.12109 -0.810244 0.573447
    outer loop
      vertex 28.8228 -10.4845 0
      vertex 32.3976 -9.95025 0
      vertex 28.3356 -7.01858 5
    endloop
  endfacet
  facet normal 0.121088 -0.810245 0.573446
    outer loop
      vertex 32.3976 -9.95025 0
      vertex 31.8501 -6.49335 5
      vertex 28.3356 -7.01858 5
    endloop
  endfacet
  facet normal -0.135227 0.807998 0.573457
    outer loop
      vertex 29.0342 11.285 5
      vertex 32.2291 11.8197 5
      vertex 28.4867 14.742 0
    endloop
  endfacet
  facet normal -0.135201 0.808011 0.573445
    outer loop
      vertex 32.2291 11.8197 5
      vertex 31.6213 15.2665 0
      vertex 28.4867 14.742 0
    endloop
  endfacet
  facet normal 0.135214 -0.808008 0.573446
    outer loop
      vertex 32.3976 -9.95025 0
      vertex 35.9625 -9.35369 0
      vertex 31.8501 -6.49335 5
    endloop
  endfacet
  facet normal 0.135215 -0.808007 0.573447
    outer loop
      vertex 35.9625 -9.35369 0
      vertex 35.3548 -5.90686 5
      vertex 31.8501 -6.49335 5
    endloop
  endfacet
  facet normal -0.14929 0.805527 0.573445
    outer loop
      vertex 32.2291 11.8197 5
      vertex 35.4142 12.41 5
      vertex 31.6213 15.2665 0
    endloop
  endfacet
  facet normal -0.149299 0.805522 0.57345
    outer loop
      vertex 35.4142 12.41 5
      vertex 34.7463 15.8457 0
      vertex 31.6213 15.2665 0
    endloop
  endfacet
  facet normal 0.149296 -0.805524 0.573447
    outer loop
      vertex 35.9625 -9.35369 0
      vertex 39.5165 -8.69499 0
      vertex 35.3548 -5.90686 5
    endloop
  endfacet
  facet normal 0.149298 -0.805523 0.573448
    outer loop
      vertex 39.5165 -8.69499 0
      vertex 38.8487 -5.25929 5
      vertex 35.3548 -5.90686 5
    endloop
  endfacet
  facet normal -0.163331 0.802794 0.57345
    outer loop
      vertex 35.4142 12.41 5
      vertex 38.5884 13.0558 5
      vertex 34.7463 15.8457 0
    endloop
  endfacet
  facet normal -0.163323 0.802798 0.573446
    outer loop
      vertex 38.5884 13.0558 5
      vertex 37.8607 16.4793 0
      vertex 34.7463 15.8457 0
    endloop
  endfacet
  facet normal 0.163329 -0.802796 0.573448
    outer loop
      vertex 39.5165 -8.69499 0
      vertex 43.0585 -7.97437 0
      vertex 38.8487 -5.25929 5
    endloop
  endfacet
  facet normal 0.16333 -0.802795 0.573448
    outer loop
      vertex 43.0585 -7.97437 0
      vertex 42.3308 -4.55085 5
      vertex 38.8487 -5.25929 5
    endloop
  endfacet
  facet normal -0.177314 0.799824 0.573446
    outer loop
      vertex 38.5884 13.0558 5
      vertex 41.7509 13.7569 5
      vertex 37.8607 16.4793 0
    endloop
  endfacet
  facet normal -0.177317 0.799823 0.573448
    outer loop
      vertex 41.7509 13.7569 5
      vertex 40.9636 17.1672 0
      vertex 37.8607 16.4793 0
    endloop
  endfacet
  facet normal 0.177315 -0.799823 0.573448
    outer loop
      vertex 43.0585 -7.97437 0
      vertex 46.5874 -7.19204 0
      vertex 42.3308 -4.55085 5
    endloop
  endfacet
  facet normal 0.177318 -0.799821 0.57345
    outer loop
      vertex 46.5874 -7.19204 0
      vertex 45.8 -3.78174 5
      vertex 42.3308 -4.55085 5
    endloop
  endfacet
  facet normal -0.191248 0.796607 0.573447
    outer loop
      vertex 41.7509 13.7569 5
      vertex 44.9007 14.5131 5
      vertex 40.9636 17.1672 0
    endloop
  endfacet
  facet normal -0.191239 0.796612 0.573443
    outer loop
      vertex 44.9007 14.5131 5
      vertex 44.054 17.9091 0
      vertex 40.9636 17.1672 0
    endloop
  endfacet
  facet normal 0.191252 -0.796604 0.57345
    outer loop
      vertex 46.5874 -7.19204 0
      vertex 50.102 -6.34824 0
      vertex 45.8 -3.78174 5
    endloop
  endfacet
  facet normal 0.191245 -0.796608 0.573446
    outer loop
      vertex 50.102 -6.34824 0
      vertex 49.2553 -2.95221 5
      vertex 45.8 -3.78174 5
    endloop
  endfacet
  facet normal -0.205134 0.793147 0.573443
    outer loop
      vertex 44.9007 14.5131 5
      vertex 48.0368 15.3242 5
      vertex 44.054 17.9091 0
    endloop
  endfacet
  facet normal -0.205137 0.793146 0.573444
    outer loop
      vertex 48.0368 15.3242 5
      vertex 47.1309 18.7049 0
      vertex 44.054 17.9091 0
    endloop
  endfacet
  facet normal 0.205121 -0.793149 0.573446
    outer loop
      vertex 50.102 -6.34824 0
      vertex 53.6014 -5.44324 0
      vertex 49.2553 -2.95221 5
    endloop
  endfacet
  facet normal 0.20512 -0.793149 0.573446
    outer loop
      vertex 53.6014 -5.44324 0
      vertex 52.6956 -2.0625 5
      vertex 49.2553 -2.95221 5
    endloop
  endfacet
  facet normal -0.218917 0.789453 0.573444
    outer loop
      vertex 48.0368 15.3242 5
      vertex 51.1583 16.1898 5
      vertex 47.1309 18.7049 0
    endloop
  endfacet
  facet normal -0.218919 0.789453 0.573445
    outer loop
      vertex 51.1583 16.1898 5
      vertex 50.1936 19.5542 0
      vertex 47.1309 18.7049 0
    endloop
  endfacet
  facet normal 0.218931 -0.789449 0.573446
    outer loop
      vertex 53.6014 -5.44324 0
      vertex 57.0845 -4.4773 0
      vertex 52.6956 -2.0625 5
    endloop
  endfacet
  facet normal 0.218934 -0.789447 0.573447
    outer loop
      vertex 57.0845 -4.4773 0
      vertex 56.1198 -1.11288 5
      vertex 52.6956 -2.0625 5
    endloop
  endfacet
  facet normal -0.232676 0.785508 0.573445
    outer loop
      vertex 51.1583 16.1898 5
      vertex 54.2642 17.1098 5
      vertex 50.1936 19.5542 0
    endloop
  endfacet
  facet normal -0.232688 0.7855 0.573451
    outer loop
      vertex 54.2642 17.1098 5
      vertex 53.2409 20.4569 0
      vertex 50.1936 19.5542 0
    endloop
  endfacet
  facet normal 0.232678 -0.785506 0.573447
    outer loop
      vertex 57.0845 -4.4773 0
      vertex 60.5502 -3.45071 0
      vertex 56.1198 -1.11288 5
    endloop
  endfacet
  facet normal 0.232678 -0.785506 0.573447
    outer loop
      vertex 60.5502 -3.45071 0
      vertex 59.5269 -0.103648 5
      vertex 56.1198 -1.11288 5
    endloop
  endfacet
  facet normal -0.246354 0.781322 0.573451
    outer loop
      vertex 54.2642 17.1098 5
      vertex 57.3536 18.0839 5
      vertex 53.2409 20.4569 0
    endloop
  endfacet
  facet normal -0.24635 0.781324 0.573449
    outer loop
      vertex 57.3536 18.0839 5
      vertex 56.272 21.4126 0
      vertex 53.2409 20.4569 0
    endloop
  endfacet
  facet normal 0.246353 -0.781325 0.573447
    outer loop
      vertex 60.5502 -3.45071 0
      vertex 63.9974 -2.3638 0
      vertex 59.5269 -0.103648 5
    endloop
  endfacet
  facet normal 0.24635 -0.781327 0.573445
    outer loop
      vertex 63.9974 -2.3638 0
      vertex 62.9159 0.964892 5
      vertex 59.5269 -0.103648 5
    endloop
  endfacet
  facet normal -0.25997 0.776899 0.573449
    outer loop
      vertex 57.3536 18.0839 5
      vertex 60.4254 19.1118 5
      vertex 56.272 21.4126 0
    endloop
  endfacet
  facet normal -0.259957 0.776908 0.573443
    outer loop
      vertex 60.4254 19.1118 5
      vertex 59.286 22.4211 0
      vertex 56.272 21.4126 0
    endloop
  endfacet
  facet normal 0.259945 -0.77691 0.573445
    outer loop
      vertex 63.9974 -2.3638 0
      vertex 67.4252 -1.2169 0
      vertex 62.9159 0.964892 5
    endloop
  endfacet
  facet normal 0.259951 -0.776906 0.573449
    outer loop
      vertex 67.4252 -1.2169 0
      vertex 66.2857 2.09242 5
      vertex 62.9159 0.964892 5
    endloop
  endfacet
  facet normal -0.27347 0.772255 0.573443
    outer loop
      vertex 60.4254 19.1118 5
      vertex 63.4789 20.1931 5
      vertex 59.286 22.4211 0
    endloop
  endfacet
  facet normal -0.273469 0.772255 0.573443
    outer loop
      vertex 63.4789 20.1931 5
      vertex 62.2819 23.482 0
      vertex 59.286 22.4211 0
    endloop
  endfacet
  facet normal 0.27347 -0.772251 0.573449
    outer loop
      vertex 67.4252 -1.2169 0
      vertex 70.8324 -0.0103416 0
      vertex 66.2857 2.09242 5
    endloop
  endfacet
  facet normal 0.273469 -0.772251 0.573449
    outer loop
      vertex 70.8324 -0.0103416 0
      vertex 69.6353 3.27858 5
      vertex 66.2857 2.09242 5
    endloop
  endfacet
  facet normal -0.286897 0.767368 0.573443
    outer loop
      vertex 63.4789 20.1931 5
      vertex 66.5131 21.3275 5
      vertex 62.2819 23.482 0
    endloop
  endfacet
  facet normal -0.286901 0.767365 0.573445
    outer loop
      vertex 66.5131 21.3275 5
      vertex 65.2588 24.595 0
      vertex 62.2819 23.482 0
    endloop
  endfacet
  facet normal 0.286906 -0.76736 0.573449
    outer loop
      vertex 70.8324 -0.0103416 0
      vertex 74.218 1.25549 0
      vertex 69.6353 3.27858 5
    endloop
  endfacet
  facet normal 0.286905 -0.767361 0.573448
    outer loop
      vertex 74.218 1.25549 0
      vertex 72.9637 4.52302 5
      vertex 69.6353 3.27858 5
    endloop
  endfacet
  facet normal -0.300252 0.76224 0.573445
    outer loop
      vertex 66.5131 21.3275 5
      vertex 69.527 22.5147 5
      vertex 65.2588 24.595 0
    endloop
  endfacet
  facet normal -0.300247 0.762244 0.573442
    outer loop
      vertex 69.527 22.5147 5
      vertex 68.2159 25.7598 0
      vertex 65.2588 24.595 0
    endloop
  endfacet
  facet normal 0.300255 -0.762236 0.573448
    outer loop
      vertex 74.218 1.25549 0
      vertex 77.581 2.58022 0
      vertex 72.9637 4.52302 5
    endloop
  endfacet
  facet normal 0.300254 -0.762237 0.573447
    outer loop
      vertex 77.581 2.58022 0
      vertex 76.2699 5.82537 5
      vertex 72.9637 4.52302 5
    endloop
  endfacet
  facet normal -0.313508 0.756886 0.573442
    outer loop
      vertex 69.527 22.5147 5
      vertex 72.5197 23.7543 5
      vertex 68.2159 25.7598 0
    endloop
  endfacet
  facet normal -0.313528 0.75687 0.573453
    outer loop
      vertex 72.5197 23.7543 5
      vertex 71.1521 26.9761 0
      vertex 68.2159 25.7598 0
    endloop
  endfacet
  facet normal 0.31351 -0.756882 0.573447
    outer loop
      vertex 77.581 2.58022 0
      vertex 80.9204 3.96344 0
      vertex 76.2699 5.82537 5
    endloop
  endfacet
  facet normal 0.313506 -0.756884 0.573445
    outer loop
      vertex 80.9204 3.96344 0
      vertex 79.5529 7.18521 5
      vertex 76.2699 5.82537 5
    endloop
  endfacet
  facet normal -0.32668 0.751287 0.573453
    outer loop
      vertex 72.5197 23.7543 5
      vertex 75.4903 25.046 5
      vertex 71.1521 26.9761 0
    endloop
  endfacet
  facet normal -0.326671 0.751295 0.573448
    outer loop
      vertex 75.4903 25.046 5
      vertex 74.0667 28.2434 0
      vertex 71.1521 26.9761 0
    endloop
  endfacet
  facet normal 0.32667 -0.751297 0.573445
    outer loop
      vertex 80.9204 3.96344 0
      vertex 84.2352 5.40474 0
      vertex 79.5529 7.18521 5
    endloop
  endfacet
  facet normal 0.326673 -0.751294 0.573448
    outer loop
      vertex 84.2352 5.40474 0
      vertex 82.8116 8.60214 5
      vertex 79.5529 7.18521 5
    endloop
  endfacet
  facet normal 0 -1 0
    outer loop
      vertex 0 8.4 0
      vertex 6 8.4 2.5
      vertex 0 8.4 2.5
    endloop
  endfacet
  facet normal 0 -1 -0
    outer loop
      vertex 6 8.4 2.5
      vertex 0 8.4 0
      vertex 6 8.4 0
    endloop
  endfacet
  facet normal 0 1 -0
    outer loop
      vertex 6 1.2 0
      vertex 0 1.2 2.5
      vertex 6 1.2 2.5
    endloop
  endfacet
  facet normal 0 1 0
    outer loop
      vertex 0 1.2 2.5
      vertex 6 1.2 0
      vertex 0 1.2 0
    endloop
  endfacet
  facet normal 0 -0.447214 -0.894427
    outer loop
      vertex 0 6.4 3.5
      vertex 6 8.4 2.5
      vertex 6 6.4 3.5
    endloop
  endfacet
  facet normal -0 -0.447214 -0.894427
    outer loop
      vertex 6 8.4 2.5
      vertex 0 6.4 3.5
      vertex 0 8.4 2.5
    endloop
  endfacet
  facet normal 0 0.413803 -0.910366
    outer loop
      vertex 0 1.2 2.5
      vertex 6 3.4 3.5
      vertex 6 1.2 2.5
    endloop
  endfacet
  facet normal 0 0.413803 -0.910366
    outer loop
      vertex 6 3.4 3.5
      vertex 0 1.2 2.5
      vertex 0 3.4 3.5
    endloop
  endfacet
  facet normal -1 0 0
    outer loop
      vertex 6 8.4 0
      vertex 6 6.4 3.5
      vertex 6 8.4 2.5
    endloop
  endfacet
  facet normal -1 0 0
    outer loop
      vertex 6 8.4 0
      vertex 6 3.4 3.5
      vertex 6 6.4 3.5
    endloop
  endfacet
  facet normal -1 0 0
    outer loop
      vertex 6 1.2 0
      vertex 6 3.4 3.5
      vertex 6 8.4 0
    endloop
  endfacet
  facet normal -1 0 0
    outer loop
      vertex 6 3.4 3.5
      vertex 6 1.2 0
      vertex 6 1.2 2.5
    endloop
  endfacet
  facet normal 0 0 -1
    outer loop
      vertex 80.1881 14.4945 3.5
      vertex 80.5339 13.718 3.5
      vertex 81.2573 12.0932 3.5
    endloop
  endfacet
  facet normal -0 0 1
    outer loop
      vertex 72.9392 22.846 3.5
      vertex 80.1881 14.4945 3.5
      vertex 75.8969 24.1327 3.5
    endloop
  endfacet
  facet normal 0 -0 1
    outer loop
      vertex 74.139 10.8708 3.5
      vertex 80.1881 14.4945 3.5
      vertex 72.9392 22.846 3.5
    endloop
  endfacet
  facet normal 0 0 1
    outer loop
      vertex 80.1881 14.4945 3.5
      vertex 74.139 10.8708 3.5
      vertex 80.5339 13.718 3.5
    endloop
  endfacet
  facet normal 0 0 1
    outer loop
      vertex 81.7541 10.9774 3.5
      vertex 79.1933 8.11896 3.5
      vertex 82.4047 9.51597 3.5
    endloop
  endfacet
  facet normal -0 0 1
    outer loop
      vertex 75.3592 8.13021 3.5
      vertex 79.1933 8.11896 3.5
      vertex 81.7541 10.9774 3.5
    endloop
  endfacet
  facet normal 0 0 1
    outer loop
      vertex 79.1933 8.11896 3.5
      vertex 75.3592 8.13021 3.5
      vertex 75.9253 6.7647 3.5
    endloop
  endfacet
  facet normal 0 0 1
    outer loop
      vertex 72.6342 5.4677 3.5
      vertex 75.3592 8.13021 3.5
      vertex 74.139 10.8708 3.5
    endloop
  endfacet
  facet normal 0 0 1
    outer loop
      vertex 75.3592 8.13021 3.5
      vertex 72.6342 5.4677 3.5
      vertex 75.9253 6.7647 3.5
    endloop
  endfacet
  facet normal -0 0 1
    outer loop
      vertex 69.9293 21.5987 3.5
      vertex 74.139 10.8708 3.5
      vertex 72.9392 22.846 3.5
    endloop
  endfacet
  facet normal -0 0 1
    outer loop
      vertex 66.8981 20.4041 3.5
      vertex 74.139 10.8708 3.5
      vertex 69.9293 21.5987 3.5
    endloop
  endfacet
  facet normal -0 0 1
    outer loop
      vertex 63.8465 19.2626 3.5
      vertex 74.139 10.8708 3.5
      vertex 66.8981 20.4041 3.5
    endloop
  endfacet
  facet normal 0 0 1
    outer loop
      vertex 74.139 10.8708 3.5
      vertex 69.321 4.22835 3.5
      vertex 72.6342 5.4677 3.5
    endloop
  endfacet
  facet normal 0 0 1
    outer loop
      vertex 74.139 10.8708 3.5
      vertex 63.8465 19.2626 3.5
      vertex 69.321 4.22835 3.5
    endloop
  endfacet
  facet normal 0 0 1
    outer loop
      vertex 69.321 4.22835 3.5
      vertex 63.8465 19.2626 3.5
      vertex 65.9866 3.04705 3.5
    endloop
  endfacet
  facet normal -0 0 1
    outer loop
      vertex 60.7754 18.1746 3.5
      vertex 65.9866 3.04705 3.5
      vertex 63.8465 19.2626 3.5
    endloop
  endfacet
  facet normal 0 0 1
    outer loop
      vertex 65.9866 3.04705 3.5
      vertex 60.7754 18.1746 3.5
      vertex 62.6321 1.92415 3.5
    endloop
  endfacet
  facet normal -0 0 1
    outer loop
      vertex 57.6858 17.1404 3.5
      vertex 62.6321 1.92415 3.5
      vertex 60.7754 18.1746 3.5
    endloop
  endfacet
  facet normal 0 0 1
    outer loop
      vertex 62.6321 1.92415 3.5
      vertex 57.6858 17.1404 3.5
      vertex 59.2585 0.859981 3.5
    endloop
  endfacet
  facet normal -0 0 1
    outer loop
      vertex 54.5786 16.1603 3.5
      vertex 59.2585 0.859981 3.5
      vertex 57.6858 17.1404 3.5
    endloop
  endfacet
  facet normal 0 0 1
    outer loop
      vertex 59.2585 0.859981 3.5
      vertex 54.5786 16.1603 3.5
      vertex 55.8668 -0.14512 3.5
    endloop
  endfacet
  facet normal -0 0 1
    outer loop
      vertex 51.4548 15.2346 3.5
      vertex 55.8668 -0.14512 3.5
      vertex 54.5786 16.1603 3.5
    endloop
  endfacet
  facet normal 0 0 1
    outer loop
      vertex 55.8668 -0.14512 3.5
      vertex 51.4548 15.2346 3.5
      vertex 52.4581 -1.09085 3.5
    endloop
  endfacet
  facet normal -0 0 1
    outer loop
      vertex 48.3153 14.3635 3.5
      vertex 52.4581 -1.09085 3.5
      vertex 51.4548 15.2346 3.5
    endloop
  endfacet
  facet normal 0 0 1
    outer loop
      vertex 52.4581 -1.09085 3.5
      vertex 48.3153 14.3635 3.5
      vertex 49.0334 -1.97692 3.5
    endloop
  endfacet
  facet normal -0 0 1
    outer loop
      vertex 45.1611 13.5474 3.5
      vertex 49.0334 -1.97692 3.5
      vertex 48.3153 14.3635 3.5
    endloop
  endfacet
  facet normal 0 0 1
    outer loop
      vertex 49.0334 -1.97692 3.5
      vertex 45.1611 13.5474 3.5
      vertex 45.5937 -2.80307 3.5
    endloop
  endfacet
  facet normal -0 0 1
    outer loop
      vertex 41.9931 12.7865 3.5
      vertex 45.5937 -2.80307 3.5
      vertex 45.1611 13.5474 3.5
    endloop
  endfacet
  facet normal 0 0 1
    outer loop
      vertex 45.5937 -2.80307 3.5
      vertex 41.9931 12.7865 3.5
      vertex 42.1402 -3.56903 3.5
    endloop
  endfacet
  facet normal -0 0 1
    outer loop
      vertex 38.8122 12.081 3.5
      vertex 42.1402 -3.56903 3.5
      vertex 41.9931 12.7865 3.5
    endloop
  endfacet
  facet normal 0 0 1
    outer loop
      vertex 38.8122 12.081 3.5
      vertex 38.6738 -4.27457 3.5
      vertex 42.1402 -3.56903 3.5
    endloop
  endfacet
  facet normal -0 0 1
    outer loop
      vertex 35.6196 11.4312 3.5
      vertex 38.6738 -4.27457 3.5
      vertex 38.8122 12.081 3.5
    endloop
  endfacet
  facet normal 0 0 1
    outer loop
      vertex 35.6196 11.4312 3.5
      vertex 35.1956 -4.91949 3.5
      vertex 38.6738 -4.27457 3.5
    endloop
  endfacet
  facet normal -0 0 1
    outer loop
      vertex 32.4161 10.8372 3.5
      vertex 35.1956 -4.91949 3.5
      vertex 35.6196 11.4312 3.5
    endloop
  endfacet
  facet normal 0 0 1
    outer loop
      vertex 32.4161 10.8372 3.5
      vertex 31.7067 -5.50358 3.5
      vertex 35.1956 -4.91949 3.5
    endloop
  endfacet
  facet normal -0 0 1
    outer loop
      vertex 29.2027 10.2993 3.5
      vertex 31.7067 -5.50358 3.5
      vertex 32.4161 10.8372 3.5
    endloop
  endfacet
  facet normal 0 0 1
    outer loop
      vertex 29.2027 10.2993 3.5
      vertex 28.2081 -6.02667 3.5
      vertex 31.7067 -5.50358 3.5
    endloop
  endfacet
  facet normal -0 0 1
    outer loop
      vertex 25.9804 9.81749 3.5
      vertex 28.2081 -6.02667 3.5
      vertex 29.2027 10.2993 3.5
    endloop
  endfacet
  facet normal 0 0 1
    outer loop
      vertex 25.9804 9.81749 3.5
      vertex 24.701 -6.48859 3.5
      vertex 28.2081 -6.02667 3.5
    endloop
  endfacet
  facet normal -0 0 1
    outer loop
      vertex 22.7502 9.39205 3.5
      vertex 24.701 -6.48859 3.5
      vertex 25.9804 9.81749 3.5
    endloop
  endfacet
  facet normal 0 0 1
    outer loop
      vertex 22.7502 9.39205 3.5
      vertex 21.1863 -6.88921 3.5
      vertex 24.701 -6.48859 3.5
    endloop
  endfacet
  facet normal -0 0 1
    outer loop
      vertex 19.5131 9.02307 3.5
      vertex 21.1863 -6.88921 3.5
      vertex 22.7502 9.39205 3.5
    endloop
  endfacet
  facet normal 0 0 1
    outer loop
      vertex 19.5131 9.02307 3.5
      vertex 17.6651 -7.2284 3.5
      vertex 21.1863 -6.88921 3.5
    endloop
  endfacet
  facet normal -0 0 1
    outer loop
      vertex 16.27 8.71066 3.5
      vertex 17.6651 -7.2284 3.5
      vertex 19.5131 9.02307 3.5
    endloop
  endfacet
  facet normal 0 0 1
    outer loop
      vertex 16.27 8.71066 3.5
      vertex 14.1385 -7.50607 3.5
      vertex 17.6651 -7.2284 3.5
    endloop
  endfacet
  facet normal -0 0 1
    outer loop
      vertex 13.022 8.45493 3.5
      vertex 14.1385 -7.50607 3.5
      vertex 16.27 8.71066 3.5
    endloop
  endfacet
  facet normal -0 0 1
    outer loop
      vertex 6 3.4 3.5
      vertex 14.1385 -7.50607 3.5
      vertex 13.022 8.45493 3.5
    endloop
  endfacet
  facet normal 0 0 1
    outer loop
      vertex 6 3.4 3.5
      vertex 13.022 8.45493 3.5
      vertex 9.76995 8.25594 3.5
    endloop
  endfacet
  facet normal 0 0 1
    outer loop
      vertex 14.1385 -7.50607 3.5
      vertex 6 3.4 3.5
      vertex 10.6077 -7.72211 3.5
    endloop
  endfacet
  facet normal 0 0 1
    outer loop
      vertex 6 6.4 3.5
      vertex 9.76995 8.25594 3.5
      vertex 6.51496 8.11377 3.5
    endloop
  endfacet
  facet normal 0 0 1
    outer loop
      vertex 9.76995 8.25594 3.5
      vertex 6 6.4 3.5
      vertex 6 3.4 3.5
    endloop
  endfacet
  facet normal 0 0 1
    outer loop
      vertex 10.6077 -7.72211 3.5
      vertex 6 3.4 3.5
      vertex 7.07358 -7.87648 3.5
    endloop
  endfacet
  facet normal -0 0 1
    outer loop
      vertex 0 -3.1 3.5
      vertex 7.07358 -7.87648 3.5
      vertex 6 3.4 3.5
    endloop
  endfacet
  facet normal 0 0 1
    outer loop
      vertex 0 -3.1 3.5
      vertex 6 3.4 3.5
      vertex 0 3.4 3.5
    endloop
  endfacet
  facet normal 0 0 1
    outer loop
      vertex 7.07358 -7.87648 3.5
      vertex 0 -3.1 3.5
      vertex 3.53733 -7.96912 3.5
    endloop
  endfacet
  facet normal -0 0 1
    outer loop
      vertex 0 -5.9 3.5
      vertex 3.53733 -7.96912 3.5
      vertex 0 -3.1 3.5
    endloop
  endfacet
  facet normal 0 0 1
    outer loop
      vertex 3.53733 -7.96912 3.5
      vertex 0 -5.9 3.5
      vertex 0 -8 3.5
    endloop
  endfacet
  facet normal -0 0 1
    outer loop
      vertex 3.25798 8.02844 3.5
      vertex 6 6.4 3.5
      vertex 6.51496 8.11377 3.5
    endloop
  endfacet
  facet normal 0 0 1
    outer loop
      vertex 0 6.4 3.5
      vertex 3.25798 8.02844 3.5
      vertex 0 8 3.5
    endloop
  endfacet
  facet normal 0 0 1
    outer loop
      vertex 3.25798 8.02844 3.5
      vertex 0 6.4 3.5
      vertex 6 6.4 3.5
    endloop
  endfacet
  facet normal 0 0 1
    outer loop
      vertex 76.7813 22.2274 3.5
      vertex 77.8901 19.656 3.5
      vertex 77.9206 19.6696 3.5
    endloop
  endfacet
  facet normal 0 0 1
    outer loop
      vertex 77.8901 19.656 3.5
      vertex 76.7813 22.2274 3.5
      vertex 76.7512 22.214 3.5
    endloop
  endfacet
  facet normal -0.91348 -0.406884 0
    outer loop
      vertex 76.7813 22.2274 3.5
      vertex 77.9206 19.6696 3.5
      vertex 76.7813 22.2274 4.6
    endloop
  endfacet
  facet normal -0.913412 -0.407035 0
    outer loop
      vertex 76.7813 22.2274 4.6
      vertex 76.6592 22.5014 5.2
      vertex 76.6592 22.5014 4.6
    endloop
  endfacet
  facet normal -0.91348 -0.406884 -0
    outer loop
      vertex 77.9206 19.6696 4.6
      vertex 76.7813 22.2274 4.6
      vertex 77.9206 19.6696 3.5
    endloop
  endfacet
  facet normal -0.91348 -0.406884 -8.28434e-05
    outer loop
      vertex 76.7813 22.2274 4.6
      vertex 77.9206 19.6696 4.6
      vertex 76.6592 22.5014 5.2
    endloop
  endfacet
  facet normal -0.913412 -0.407035 -0
    outer loop
      vertex 78.0427 19.3956 5.2
      vertex 77.9206 19.6696 4.6
      vertex 78.0427 19.3956 4.6
    endloop
  endfacet
  facet normal -0.913468 -0.406911 6.82253e-05
    outer loop
      vertex 77.9206 19.6696 4.6
      vertex 78.0427 19.3956 5.2
      vertex 76.6592 22.5014 5.2
    endloop
  endfacet
  facet normal 0.008729 -0.999962 0
    outer loop
      vertex 0 8 3.5
      vertex 3.25798 8.02844 5
      vertex 0 8 5
    endloop
  endfacet
  facet normal 0.008729 -0.999962 0
    outer loop
      vertex 3.25798 8.02844 5
      vertex 0 8 3.5
      vertex 3.25798 8.02844 3.5
    endloop
  endfacet
  facet normal -0.00872942 0.999962 0
    outer loop
      vertex 3.53733 -7.96912 3.5
      vertex 0 -8 5
      vertex 3.53733 -7.96912 5
    endloop
  endfacet
  facet normal -0.00872942 0.999962 0
    outer loop
      vertex 0 -8 5
      vertex 3.53733 -7.96912 3.5
      vertex 0 -8 3.5
    endloop
  endfacet
  facet normal 0.0261901 -0.999657 0
    outer loop
      vertex 3.25798 8.02844 3.5
      vertex 6.51496 8.11377 5
      vertex 3.25798 8.02844 5
    endloop
  endfacet
  facet normal 0.0261901 -0.999657 0
    outer loop
      vertex 6.51496 8.11377 5
      vertex 3.25798 8.02844 3.5
      vertex 6.51496 8.11377 3.5
    endloop
  endfacet
  facet normal -0.0261883 0.999657 0
    outer loop
      vertex 7.07358 -7.87648 3.5
      vertex 3.53733 -7.96912 5
      vertex 7.07358 -7.87648 5
    endloop
  endfacet
  facet normal -0.0261883 0.999657 0
    outer loop
      vertex 3.53733 -7.96912 5
      vertex 7.07358 -7.87648 3.5
      vertex 3.53733 -7.96912 3.5
    endloop
  endfacet
  facet normal 0.043636 -0.999047 0
    outer loop
      vertex 6.51496 8.11377 3.5
      vertex 9.76995 8.25594 5
      vertex 6.51496 8.11377 5
    endloop
  endfacet
  facet normal 0.043636 -0.999047 0
    outer loop
      vertex 9.76995 8.25594 5
      vertex 6.51496 8.11377 3.5
      vertex 9.76995 8.25594 3.5
    endloop
  endfacet
  facet normal -0.0436383 0.999047 0
    outer loop
      vertex 10.6077 -7.72211 3.5
      vertex 7.07358 -7.87648 5
      vertex 10.6077 -7.72211 5
    endloop
  endfacet
  facet normal -0.0436383 0.999047 0
    outer loop
      vertex 7.07358 -7.87648 5
      vertex 10.6077 -7.72211 3.5
      vertex 7.07358 -7.87648 3.5
    endloop
  endfacet
  facet normal 0.0610749 -0.998133 0
    outer loop
      vertex 9.76995 8.25594 3.5
      vertex 13.022 8.45493 5
      vertex 9.76995 8.25594 5
    endloop
  endfacet
  facet normal 0.0610749 -0.998133 0
    outer loop
      vertex 13.022 8.45493 5
      vertex 9.76995 8.25594 3.5
      vertex 13.022 8.45493 3.5
    endloop
  endfacet
  facet normal -0.061073 0.998133 0
    outer loop
      vertex 14.1385 -7.50607 3.5
      vertex 10.6077 -7.72211 5
      vertex 14.1385 -7.50607 5
    endloop
  endfacet
  facet normal -0.061073 0.998133 0
    outer loop
      vertex 10.6077 -7.72211 5
      vertex 14.1385 -7.50607 3.5
      vertex 10.6077 -7.72211 3.5
    endloop
  endfacet
  facet normal 0.0784917 -0.996915 0
    outer loop
      vertex 13.022 8.45493 3.5
      vertex 16.27 8.71066 5
      vertex 13.022 8.45493 5
    endloop
  endfacet
  facet normal 0.0784917 -0.996915 0
    outer loop
      vertex 16.27 8.71066 5
      vertex 13.022 8.45493 3.5
      vertex 16.27 8.71066 3.5
    endloop
  endfacet
  facet normal -0.078493 0.996915 0
    outer loop
      vertex 17.6651 -7.2284 3.5
      vertex 14.1385 -7.50607 5
      vertex 17.6651 -7.2284 5
    endloop
  endfacet
  facet normal -0.078493 0.996915 0
    outer loop
      vertex 14.1385 -7.50607 5
      vertex 17.6651 -7.2284 3.5
      vertex 14.1385 -7.50607 3.5
    endloop
  endfacet
  facet normal 0.0958868 -0.995392 0
    outer loop
      vertex 16.27 8.71066 3.5
      vertex 19.5131 9.02307 5
      vertex 16.27 8.71066 5
    endloop
  endfacet
  facet normal 0.0958868 -0.995392 0
    outer loop
      vertex 19.5131 9.02307 5
      vertex 16.27 8.71066 3.5
      vertex 19.5131 9.02307 3.5
    endloop
  endfacet
  facet normal -0.0958841 0.995393 0
    outer loop
      vertex 21.1863 -6.88921 3.5
      vertex 17.6651 -7.2284 5
      vertex 21.1863 -6.88921 5
    endloop
  endfacet
  facet normal -0.0958841 0.995393 0
    outer loop
      vertex 17.6651 -7.2284 5
      vertex 21.1863 -6.88921 3.5
      vertex 17.6651 -7.2284 3.5
    endloop
  endfacet
  facet normal 0.113251 -0.993566 0
    outer loop
      vertex 19.5131 9.02307 3.5
      vertex 22.7502 9.39205 5
      vertex 19.5131 9.02307 5
    endloop
  endfacet
  facet normal 0.113251 -0.993566 0
    outer loop
      vertex 22.7502 9.39205 5
      vertex 19.5131 9.02307 3.5
      vertex 22.7502 9.39205 3.5
    endloop
  endfacet
  facet normal -0.113251 0.993566 0
    outer loop
      vertex 24.701 -6.48859 3.5
      vertex 21.1863 -6.88921 5
      vertex 24.701 -6.48859 5
    endloop
  endfacet
  facet normal -0.113251 0.993566 0
    outer loop
      vertex 21.1863 -6.88921 5
      vertex 24.701 -6.48859 3.5
      vertex 21.1863 -6.88921 3.5
    endloop
  endfacet
  facet normal 0.130579 -0.991438 0
    outer loop
      vertex 22.7502 9.39205 3.5
      vertex 25.9804 9.81749 5
      vertex 22.7502 9.39205 5
    endloop
  endfacet
  facet normal 0.130579 -0.991438 0
    outer loop
      vertex 25.9804 9.81749 5
      vertex 22.7502 9.39205 3.5
      vertex 25.9804 9.81749 3.5
    endloop
  endfacet
  facet normal -0.130582 0.991437 0
    outer loop
      vertex 28.2081 -6.02667 3.5
      vertex 24.701 -6.48859 5
      vertex 28.2081 -6.02667 5
    endloop
  endfacet
  facet normal -0.130582 0.991437 0
    outer loop
      vertex 24.701 -6.48859 5
      vertex 28.2081 -6.02667 3.5
      vertex 24.701 -6.48859 3.5
    endloop
  endfacet
  facet normal 0.14788 -0.989005 0
    outer loop
      vertex 25.9804 9.81749 3.5
      vertex 29.2027 10.2993 5
      vertex 25.9804 9.81749 5
    endloop
  endfacet
  facet normal 0.14788 -0.989005 0
    outer loop
      vertex 29.2027 10.2993 5
      vertex 25.9804 9.81749 3.5
      vertex 29.2027 10.2993 3.5
    endloop
  endfacet
  facet normal -0.14787 0.989007 0
    outer loop
      vertex 31.7067 -5.50358 3.5
      vertex 28.2081 -6.02667 5
      vertex 31.7067 -5.50358 5
    endloop
  endfacet
  facet normal -0.14787 0.989007 0
    outer loop
      vertex 28.2081 -6.02667 5
      vertex 31.7067 -5.50358 3.5
      vertex 28.2081 -6.02667 3.5
    endloop
  endfacet
  facet normal 0.165096 -0.986278 0
    outer loop
      vertex 29.2027 10.2993 3.5
      vertex 32.4161 10.8372 5
      vertex 29.2027 10.2993 5
    endloop
  endfacet
  facet normal 0.165096 -0.986278 0
    outer loop
      vertex 32.4161 10.8372 5
      vertex 29.2027 10.2993 3.5
      vertex 32.4161 10.8372 3.5
    endloop
  endfacet
  facet normal -0.165116 0.986274 0
    outer loop
      vertex 35.1956 -4.91949 3.5
      vertex 31.7067 -5.50358 5
      vertex 35.1956 -4.91949 5
    endloop
  endfacet
  facet normal -0.165116 0.986274 0
    outer loop
      vertex 31.7067 -5.50358 5
      vertex 35.1956 -4.91949 3.5
      vertex 31.7067 -5.50358 3.5
    endloop
  endfacet
  facet normal 0.182315 -0.98324 0
    outer loop
      vertex 32.4161 10.8372 3.5
      vertex 35.6196 11.4312 5
      vertex 32.4161 10.8372 5
    endloop
  endfacet
  facet normal 0.182315 -0.98324 0
    outer loop
      vertex 35.6196 11.4312 5
      vertex 32.4161 10.8372 3.5
      vertex 35.6196 11.4312 3.5
    endloop
  endfacet
  facet normal -0.18231 0.983241 0
    outer loop
      vertex 38.6738 -4.27457 3.5
      vertex 35.1956 -4.91949 5
      vertex 38.6738 -4.27457 5
    endloop
  endfacet
  facet normal -0.18231 0.983241 0
    outer loop
      vertex 35.1956 -4.91949 5
      vertex 38.6738 -4.27457 3.5
      vertex 35.1956 -4.91949 3.5
    endloop
  endfacet
  facet normal 0.199444 -0.979909 0
    outer loop
      vertex 35.6196 11.4312 3.5
      vertex 38.8122 12.081 5
      vertex 35.6196 11.4312 5
    endloop
  endfacet
  facet normal 0.199444 -0.979909 0
    outer loop
      vertex 38.8122 12.081 5
      vertex 35.6196 11.4312 3.5
      vertex 38.8122 12.081 3.5
    endloop
  endfacet
  facet normal -0.199447 0.979909 0
    outer loop
      vertex 42.1402 -3.56903 3.5
      vertex 38.6738 -4.27457 5
      vertex 42.1402 -3.56903 5
    endloop
  endfacet
  facet normal -0.199447 0.979909 0
    outer loop
      vertex 38.6738 -4.27457 5
      vertex 42.1402 -3.56903 3.5
      vertex 38.6738 -4.27457 3.5
    endloop
  endfacet
  facet normal 0.216531 -0.976276 0
    outer loop
      vertex 38.8122 12.081 3.5
      vertex 41.9931 12.7865 5
      vertex 38.8122 12.081 5
    endloop
  endfacet
  facet normal 0.216531 -0.976276 0
    outer loop
      vertex 41.9931 12.7865 5
      vertex 38.8122 12.081 3.5
      vertex 41.9931 12.7865 3.5
    endloop
  endfacet
  facet normal -0.216531 0.976276 0
    outer loop
      vertex 45.5937 -2.80307 3.5
      vertex 42.1402 -3.56903 5
      vertex 45.5937 -2.80307 5
    endloop
  endfacet
  facet normal -0.216531 0.976276 0
    outer loop
      vertex 42.1402 -3.56903 5
      vertex 45.5937 -2.80307 3.5
      vertex 42.1402 -3.56903 3.5
    endloop
  endfacet
  facet normal 0.233541 -0.972347 0
    outer loop
      vertex 41.9931 12.7865 3.5
      vertex 45.1611 13.5474 5
      vertex 41.9931 12.7865 5
    endloop
  endfacet
  facet normal 0.233541 -0.972347 0
    outer loop
      vertex 45.1611 13.5474 5
      vertex 41.9931 12.7865 3.5
      vertex 45.1611 13.5474 3.5
    endloop
  endfacet
  facet normal -0.233539 0.972347 0
    outer loop
      vertex 49.0334 -1.97692 3.5
      vertex 45.5937 -2.80307 5
      vertex 49.0334 -1.97692 5
    endloop
  endfacet
  facet normal -0.233539 0.972347 0
    outer loop
      vertex 45.5937 -2.80307 5
      vertex 49.0334 -1.97692 3.5
      vertex 45.5937 -2.80307 3.5
    endloop
  endfacet
  facet normal 0.250486 -0.96812 0
    outer loop
      vertex 45.1611 13.5474 3.5
      vertex 48.3153 14.3635 5
      vertex 45.1611 13.5474 5
    endloop
  endfacet
  facet normal 0.250486 -0.96812 0
    outer loop
      vertex 48.3153 14.3635 5
      vertex 45.1611 13.5474 3.5
      vertex 48.3153 14.3635 3.5
    endloop
  endfacet
  facet normal -0.250481 0.968121 0
    outer loop
      vertex 52.4581 -1.09085 3.5
      vertex 49.0334 -1.97692 5
      vertex 52.4581 -1.09085 5
    endloop
  endfacet
  facet normal -0.250481 0.968121 0
    outer loop
      vertex 49.0334 -1.97692 5
      vertex 52.4581 -1.09085 3.5
      vertex 49.0334 -1.97692 3.5
    endloop
  endfacet
  facet normal 0.267364 -0.963596 0
    outer loop
      vertex 48.3153 14.3635 3.5
      vertex 51.4548 15.2346 5
      vertex 48.3153 14.3635 5
    endloop
  endfacet
  facet normal 0.267364 -0.963596 0
    outer loop
      vertex 51.4548 15.2346 5
      vertex 48.3153 14.3635 3.5
      vertex 51.4548 15.2346 3.5
    endloop
  endfacet
  facet normal -0.267347 0.9636 0
    outer loop
      vertex 55.8668 -0.14512 3.5
      vertex 52.4581 -1.09085 5
      vertex 55.8668 -0.14512 5
    endloop
  endfacet
  facet normal -0.267347 0.9636 0
    outer loop
      vertex 52.4581 -1.09085 5
      vertex 55.8668 -0.14512 3.5
      vertex 52.4581 -1.09085 3.5
    endloop
  endfacet
  facet normal 0.284125 -0.958787 0
    outer loop
      vertex 51.4548 15.2346 3.5
      vertex 54.5786 16.1603 5
      vertex 51.4548 15.2346 5
    endloop
  endfacet
  facet normal 0.284125 -0.958787 0
    outer loop
      vertex 54.5786 16.1603 5
      vertex 51.4548 15.2346 3.5
      vertex 54.5786 16.1603 3.5
    endloop
  endfacet
  facet normal -0.284128 0.958786 0
    outer loop
      vertex 59.2585 0.859981 3.5
      vertex 55.8668 -0.14512 5
      vertex 59.2585 0.859981 5
    endloop
  endfacet
  facet normal -0.284128 0.958786 0
    outer loop
      vertex 55.8668 -0.14512 5
      vertex 59.2585 0.859981 3.5
      vertex 55.8668 -0.14512 3.5
    endloop
  endfacet
  facet normal 0.300818 -0.953681 0
    outer loop
      vertex 54.5786 16.1603 3.5
      vertex 57.6858 17.1404 5
      vertex 54.5786 16.1603 5
    endloop
  endfacet
  facet normal 0.300818 -0.953681 0
    outer loop
      vertex 57.6858 17.1404 5
      vertex 54.5786 16.1603 3.5
      vertex 57.6858 17.1404 3.5
    endloop
  endfacet
  facet normal -0.300828 0.953678 0
    outer loop
      vertex 62.6321 1.92415 3.5
      vertex 59.2585 0.859981 5
      vertex 62.6321 1.92415 5
    endloop
  endfacet
  facet normal -0.300828 0.953678 0
    outer loop
      vertex 59.2585 0.859981 5
      vertex 62.6321 1.92415 3.5
      vertex 59.2585 0.859981 3.5
    endloop
  endfacet
  facet normal 0.317425 -0.948284 0
    outer loop
      vertex 57.6858 17.1404 3.5
      vertex 60.7754 18.1746 5
      vertex 57.6858 17.1404 5
    endloop
  endfacet
  facet normal 0.317425 -0.948284 0
    outer loop
      vertex 60.7754 18.1746 5
      vertex 57.6858 17.1404 3.5
      vertex 60.7754 18.1746 3.5
    endloop
  endfacet
  facet normal -0.317432 0.948281 0
    outer loop
      vertex 65.9866 3.04705 3.5
      vertex 62.6321 1.92415 5
      vertex 65.9866 3.04705 5
    endloop
  endfacet
  facet normal -0.317432 0.948281 0
    outer loop
      vertex 62.6321 1.92415 5
      vertex 65.9866 3.04705 3.5
      vertex 62.6321 1.92415 3.5
    endloop
  endfacet
  facet normal 0.333934 -0.942596 0
    outer loop
      vertex 60.7754 18.1746 3.5
      vertex 63.8465 19.2626 5
      vertex 60.7754 18.1746 5
    endloop
  endfacet
  facet normal 0.333934 -0.942596 0
    outer loop
      vertex 63.8465 19.2626 5
      vertex 60.7754 18.1746 3.5
      vertex 63.8465 19.2626 3.5
    endloop
  endfacet
  facet normal -0.333939 0.942595 0
    outer loop
      vertex 69.321 4.22835 3.5
      vertex 65.9866 3.04705 5
      vertex 69.321 4.22835 5
    endloop
  endfacet
  facet normal -0.333939 0.942595 0
    outer loop
      vertex 65.9866 3.04705 5
      vertex 69.321 4.22835 3.5
      vertex 65.9866 3.04705 3.5
    endloop
  endfacet
  facet normal 0.350356 -0.936616 0
    outer loop
      vertex 63.8465 19.2626 3.5
      vertex 66.8981 20.4041 5
      vertex 63.8465 19.2626 5
    endloop
  endfacet
  facet normal 0.350356 -0.936616 0
    outer loop
      vertex 66.8981 20.4041 5
      vertex 63.8465 19.2626 3.5
      vertex 66.8981 20.4041 3.5
    endloop
  endfacet
  facet normal -0.350355 0.936617 0
    outer loop
      vertex 72.6342 5.4677 3.5
      vertex 69.321 4.22835 5
      vertex 72.6342 5.4677 5
    endloop
  endfacet
  facet normal -0.350355 0.936617 0
    outer loop
      vertex 69.321 4.22835 5
      vertex 72.6342 5.4677 3.5
      vertex 69.321 4.22835 3.5
    endloop
  endfacet
  facet normal 0.366655 -0.930357 0
    outer loop
      vertex 66.8981 20.4041 3.5
      vertex 69.9293 21.5987 5
      vertex 66.8981 20.4041 5
    endloop
  endfacet
  facet normal 0.366655 -0.930357 0
    outer loop
      vertex 69.9293 21.5987 5
      vertex 66.8981 20.4041 3.5
      vertex 69.9293 21.5987 3.5
    endloop
  endfacet
  facet normal -0.366648 0.93036 0
    outer loop
      vertex 75.9253 6.7647 3.5
      vertex 72.6342 5.4677 5
      vertex 75.9253 6.7647 5
    endloop
  endfacet
  facet normal -0.366648 0.93036 0
    outer loop
      vertex 72.6342 5.4677 5
      vertex 75.9253 6.7647 3.5
      vertex 72.6342 5.4677 3.5
    endloop
  endfacet
  facet normal 0.38283 -0.923819 0
    outer loop
      vertex 69.9293 21.5987 3.5
      vertex 72.9392 22.846 5
      vertex 69.9293 21.5987 5
    endloop
  endfacet
  facet normal 0.38283 -0.923819 0
    outer loop
      vertex 72.9392 22.846 5
      vertex 69.9293 21.5987 3.5
      vertex 72.9392 22.846 3.5
    endloop
  endfacet
  facet normal -0.382831 0.923819 0
    outer loop
      vertex 79.1933 8.11896 3.5
      vertex 75.9253 6.7647 5
      vertex 79.1933 8.11896 5
    endloop
  endfacet
  facet normal -0.382831 0.923819 0
    outer loop
      vertex 75.9253 6.7647 5
      vertex 79.1933 8.11896 3.5
      vertex 75.9253 6.7647 3.5
    endloop
  endfacet
  facet normal 0.39892 -0.916986 0
    outer loop
      vertex 72.9392 22.846 3.5
      vertex 75.8969 24.1327 5
      vertex 72.9392 22.846 5
    endloop
  endfacet
  facet normal 0.39892 -0.916986 0
    outer loop
      vertex 75.8969 24.1327 5
      vertex 72.9392 22.846 3.5
      vertex 75.8969 24.1327 3.5
    endloop
  endfacet
  facet normal -0.398906 0.916992 0
    outer loop
      vertex 82.4047 9.51597 4.76737
      vertex 79.1933 8.11896 5
      vertex 82.4047 9.51597 5
    endloop
  endfacet
  facet normal -0.398906 0.916992 0
    outer loop
      vertex 79.1933 8.11896 3.5
      vertex 82.4047 9.51597 4.76737
      vertex 82.4047 9.51597 3.5
    endloop
  endfacet
  facet normal -0.398906 0.916992 0
    outer loop
      vertex 82.4047 9.51597 4.76737
      vertex 79.1933 8.11896 3.5
      vertex 79.1933 8.11896 5
    endloop
  endfacet
  facet normal 0.16831 -0.378031 -0.910365
    outer loop
      vertex 73.2442 12.8806 2.5
      vertex 79.9429 15.0454 2.83953
      vertex 80.5339 13.718 3.5
    endloop
  endfacet
  facet normal 0.168303 -0.378008 -0.910376
    outer loop
      vertex 79.9429 15.0454 2.83953
      vertex 73.2442 12.8806 2.5
      vertex 79.639 15.7278 2.5
    endloop
  endfacet
  facet normal 0.406743 -0.913543 0
    outer loop
      vertex 73.2442 12.8806 0
      vertex 79.639 15.7278 2.5
      vertex 73.2442 12.8806 2.5
    endloop
  endfacet
  facet normal 0.406743 -0.913543 0
    outer loop
      vertex 79.639 15.7278 2.5
      vertex 73.2442 12.8806 0
      vertex 79.639 15.7278 0
    endloop
  endfacet
  facet normal 0.913549 0.406729 0
    outer loop
      vertex 73.2442 12.8806 2.5
      vertex 74.139 10.8708 3.5
      vertex 73.2442 12.8806 0
    endloop
  endfacet
  facet normal -0.406738 0.913545 0
    outer loop
      vertex 82.5675 9.15027 0
      vertex 76.1727 6.30311 2.5
      vertex 82.5675 9.15027 2.5
    endloop
  endfacet
  facet normal -0.406738 0.913545 0
    outer loop
      vertex 76.1727 6.30311 2.5
      vertex 82.5675 9.15027 0
      vertex 76.1727 6.30311 0
    endloop
  endfacet
  facet normal -0.181898 0.408549 -0.894428
    outer loop
      vertex 76.1727 6.30311 2.5
      vertex 81.7541 10.9774 3.5
      vertex 82.5675 9.15027 2.5
    endloop
  endfacet
  facet normal -0.181897 0.408547 -0.894429
    outer loop
      vertex 81.7541 10.9774 3.5
      vertex 76.1727 6.30311 2.5
      vertex 75.3592 8.13021 3.5
    endloop
  endfacet
  facet normal -0.913547 -0.406733 1.33142e-05
    outer loop
      vertex 81.2573 12.0932 3.5
      vertex 80.5339 13.718 3.5
      vertex 79.9429 15.0454 2.83953
    endloop
  endfacet
  facet normal 0.16831 -0.378029 -0.910366
    outer loop
      vertex 80.5339 13.718 3.5
      vertex 74.139 10.8708 3.5
      vertex 73.2442 12.8806 2.5
    endloop
  endfacet
  facet normal 0.913545 0.406738 6.39876e-06
    outer loop
      vertex 74.139 10.8708 3.5
      vertex 76.1727 6.30311 0
      vertex 73.2442 12.8806 0
    endloop
  endfacet
  facet normal 0.913544 0.40674 4.05197e-06
    outer loop
      vertex 75.3592 8.13021 3.5
      vertex 76.1727 6.30311 0
      vertex 74.139 10.8708 3.5
    endloop
  endfacet
  facet normal 0.913541 0.406746 0
    outer loop
      vertex 76.1727 6.30311 2.5
      vertex 76.1727 6.30311 0
      vertex 75.3592 8.13021 3.5
    endloop
  endfacet
endsolid OpenSCAD_Model
