solid OpenSCAD_Model
  facet normal -1 0 0
    outer loop
      vertex -5.999 -8 0
      vertex -5.999 -5.901 2.6
      vertex -5.999 -5.901 0
    endloop
  endfacet
  facet normal -1 -0 0
    outer loop
      vertex -5.999 -5.901 2.6
      vertex -5.999 -8 0
      vertex -5.999 -8 2.6
    endloop
  endfacet
  facet normal -1 0 0
    outer loop
      vertex -5.999 -3.101 0
      vertex -5.999 -1 2.6
      vertex -5.999 -1 0
    endloop
  endfacet
  facet normal -1 -0 0
    outer loop
      vertex -5.999 -1 2.6
      vertex -5.999 -3.101 0
      vertex -5.999 -3.101 2.6
    endloop
  endfacet
  facet normal 0 0 1
    outer loop
      vertex 0.000999451 -1 2.6
      vertex 5.49316e-07 -3.101 2.6
      vertex 0.000999451 -8 2.6
    endloop
  endfacet
  facet normal -0 0 1
    outer loop
      vertex -5.999 -1 2.6
      vertex 5.49316e-07 -3.101 2.6
      vertex 0.000999451 -1 2.6
    endloop
  endfacet
  facet normal 0 0 1
    outer loop
      vertex 5.49316e-07 -3.101 2.6
      vertex -5.999 -1 2.6
      vertex -5.999 -3.101 2.6
    endloop
  endfacet
  facet normal -0 0 1
    outer loop
      vertex 5.49316e-07 -5.901 2.6
      vertex 0.000999451 -8 2.6
      vertex 5.49316e-07 -3.101 2.6
    endloop
  endfacet
  facet normal -0 0 1
    outer loop
      vertex -5.999 -5.901 2.6
      vertex 0.000999451 -8 2.6
      vertex 5.49316e-07 -5.901 2.6
    endloop
  endfacet
  facet normal 0 0 1
    outer loop
      vertex 0.000999451 -8 2.6
      vertex -5.999 -5.901 2.6
      vertex -5.999 -8 2.6
    endloop
  endfacet
  facet normal -0 0 -1
    outer loop
      vertex 83.778 -5.91876 0
      vertex 83.0533 -8.62335 0
      vertex 83.777 -5.9185 0
    endloop
  endfacet
  facet normal 0 0 -1
    outer loop
      vertex 83.0523 -8.62309 0
      vertex 83.777 -5.9185 0
      vertex 83.0533 -8.62335 0
    endloop
  endfacet
  facet normal 0 0 -1
    outer loop
      vertex 78.5266 -2.3386 0
      vertex 83.777 -5.9185 0
      vertex 83.0523 -8.62309 0
    endloop
  endfacet
  facet normal 0 0 -1
    outer loop
      vertex 76.7148 -9.10009 0
      vertex 83.0523 -8.62309 0
      vertex 82.5085 -10.6525 0
    endloop
  endfacet
  facet normal 0 0 -1
    outer loop
      vertex 83.777 -5.9185 0
      vertex 78.5266 -2.3386 0
      vertex 84.3203 -3.89102 0
    endloop
  endfacet
  facet normal -0 0 -1
    outer loop
      vertex 83.0523 -8.62309 0
      vertex 76.7148 -9.10009 0
      vertex 78.5266 -2.3386 0
    endloop
  endfacet
  facet normal 0 0 -1
    outer loop
      vertex 69.4797 -9.43877 0
      vertex 78.5266 -2.3386 0
      vertex 76.7148 -9.10009 0
    endloop
  endfacet
  facet normal 0 0 -1
    outer loop
      vertex 69.4797 -9.43877 0
      vertex 76.7148 -9.10009 0
      vertex 76.1455 -11.2249 0
    endloop
  endfacet
  facet normal 0 0 -1
    outer loop
      vertex 78.5266 -2.3386 0
      vertex 74.4888 3.35405 0
      vertex 79.6914 2.00856 0
    endloop
  endfacet
  facet normal -0 0 -1
    outer loop
      vertex 78.5266 -2.3386 0
      vertex 69.4797 -9.43877 0
      vertex 74.4888 3.35405 0
    endloop
  endfacet
  facet normal 0 0 -1
    outer loop
      vertex 69.4797 -9.43877 0
      vertex 69.2634 4.60854 0
      vertex 74.4888 3.35405 0
    endloop
  endfacet
  facet normal 0 0 -1
    outer loop
      vertex 58.8192 -18.682 0
      vertex 69.4797 -9.43877 0
      vertex 67.6162 -16.3934 0
    endloop
  endfacet
  facet normal 0 0 -1
    outer loop
      vertex 69.4797 -9.43877 0
      vertex 64.017 5.77165 0
      vertex 69.2634 4.60854 0
    endloop
  endfacet
  facet normal 0 0 -1
    outer loop
      vertex -6 -5.901 0
      vertex -5.999 -3.101 0
      vertex -5.999 -5.901 0
    endloop
  endfacet
  facet normal -0 0 -1
    outer loop
      vertex -5.999 -3.101 0
      vertex -6 -5.901 0
      vertex -6 -3.101 0
    endloop
  endfacet
  facet normal 0 0 -1
    outer loop
      vertex -5.999 -5.901 0
      vertex 0.000999451 -8 0
      vertex -5.999 -8 0
    endloop
  endfacet
  facet normal 0 0 -1
    outer loop
      vertex 0.000999451 -8 0
      vertex -5.999 -5.901 0
      vertex 0.000999451 -1 0
    endloop
  endfacet
  facet normal 0 0 -1
    outer loop
      vertex -5.999 -3.101 0
      vertex 0.000999451 -1 0
      vertex -5.999 -5.901 0
    endloop
  endfacet
  facet normal -0 0 -1
    outer loop
      vertex 0.000999451 -1 0
      vertex -5.999 -3.101 0
      vertex -5.999 -1 0
    endloop
  endfacet
  facet normal 0 0 -1
    outer loop
      vertex 4.93828 -12.5431 0
      vertex 7 1.2 0
      vertex 9.87407 -12.6723 0
    endloop
  endfacet
  facet normal 0 0 -1
    outer loop
      vertex 0.000999451 -8 0
      vertex 4.93828 -12.5431 0
      vertex 0.000999451 -12.5 0
    endloop
  endfacet
  facet normal 0 0 -1
    outer loop
      vertex 4.93828 -12.5431 0
      vertex 0.000999451 -8 0
      vertex 7 1.2 0
    endloop
  endfacet
  facet normal 0 0 -1
    outer loop
      vertex 0.000999451 -1 0
      vertex 7 1.2 0
      vertex 0.000999451 -8 0
    endloop
  endfacet
  facet normal -0 0 -1
    outer loop
      vertex 7 1.2 0
      vertex 0.000999451 -1 0
      vertex 0.000999451 1.2 0
    endloop
  endfacet
  facet normal 0 0 -1
    outer loop
      vertex 68.4407 -20.9033 0
      vertex 74.282 -18.1795 0
      vertex 73.2209 -22.1396 0
    endloop
  endfacet
  facet normal 0 0 -1
    outer loop
      vertex 68.4407 -20.9033 0
      vertex 67.6162 -16.3934 0
      vertex 74.282 -18.1795 0
    endloop
  endfacet
  facet normal 0 0 -1
    outer loop
      vertex 63.6397 -19.7507 0
      vertex 67.6162 -16.3934 0
      vertex 68.4407 -20.9033 0
    endloop
  endfacet
  facet normal 0 0 -1
    outer loop
      vertex 58.8192 -18.682 0
      vertex 67.6162 -16.3934 0
      vertex 63.6397 -19.7507 0
    endloop
  endfacet
  facet normal 0 0 -1
    outer loop
      vertex 53.9809 -17.6977 0
      vertex 69.4797 -9.43877 0
      vertex 58.8192 -18.682 0
    endloop
  endfacet
  facet normal 0 0 -1
    outer loop
      vertex 69.4797 -9.43877 0
      vertex 58.7511 6.84301 0
      vertex 64.017 5.77165 0
    endloop
  endfacet
  facet normal -0 0 -1
    outer loop
      vertex 69.4797 -9.43877 0
      vertex 53.9809 -17.6977 0
      vertex 58.7511 6.84301 0
    endloop
  endfacet
  facet normal 0 0 -1
    outer loop
      vertex 53.9809 -17.6977 0
      vertex 53.4673 7.82231 0
      vertex 58.7511 6.84301 0
    endloop
  endfacet
  facet normal 0 0 -1
    outer loop
      vertex 49.1261 -16.7979 0
      vertex 53.4673 7.82231 0
      vertex 53.9809 -17.6977 0
    endloop
  endfacet
  facet normal 0 0 -1
    outer loop
      vertex 49.1261 -16.7979 0
      vertex 48.1672 8.70924 0
      vertex 53.4673 7.82231 0
    endloop
  endfacet
  facet normal 0 0 -1
    outer loop
      vertex 44.2563 -15.983 0
      vertex 48.1672 8.70924 0
      vertex 49.1261 -16.7979 0
    endloop
  endfacet
  facet normal 0 0 -1
    outer loop
      vertex 44.2563 -15.983 0
      vertex 42.8524 9.50354 0
      vertex 48.1672 8.70924 0
    endloop
  endfacet
  facet normal 0 0 -1
    outer loop
      vertex 39.3731 -15.2532 0
      vertex 42.8524 9.50354 0
      vertex 44.2563 -15.983 0
    endloop
  endfacet
  facet normal 0 0 -1
    outer loop
      vertex 39.3731 -15.2532 0
      vertex 37.5246 10.205 0
      vertex 42.8524 9.50354 0
    endloop
  endfacet
  facet normal 0 0 -1
    outer loop
      vertex 34.4778 -14.6087 0
      vertex 37.5246 10.205 0
      vertex 39.3731 -15.2532 0
    endloop
  endfacet
  facet normal 0 0 -1
    outer loop
      vertex 34.4778 -14.6087 0
      vertex 32.1853 10.8133 0
      vertex 37.5246 10.205 0
    endloop
  endfacet
  facet normal 0 0 -1
    outer loop
      vertex 29.5721 -14.0498 0
      vertex 32.1853 10.8133 0
      vertex 34.4778 -14.6087 0
    endloop
  endfacet
  facet normal 0 0 -1
    outer loop
      vertex 29.5721 -14.0498 0
      vertex 26.8363 11.3283 0
      vertex 32.1853 10.8133 0
    endloop
  endfacet
  facet normal 0 0 -1
    outer loop
      vertex 24.6574 -13.5765 0
      vertex 26.8363 11.3283 0
      vertex 29.5721 -14.0498 0
    endloop
  endfacet
  facet normal 0 0 -1
    outer loop
      vertex 24.6574 -13.5765 0
      vertex 21.479 11.75 0
      vertex 26.8363 11.3283 0
    endloop
  endfacet
  facet normal 0 0 -1
    outer loop
      vertex 19.7351 -13.1891 0
      vertex 21.479 11.75 0
      vertex 24.6574 -13.5765 0
    endloop
  endfacet
  facet normal 0 0 -1
    outer loop
      vertex 7 1.2 0
      vertex 21.479 11.75 0
      vertex 19.7351 -13.1891 0
    endloop
  endfacet
  facet normal 0 0 -1
    outer loop
      vertex 7 1.2 0
      vertex 19.7351 -13.1891 0
      vertex 14.8068 -12.8877 0
    endloop
  endfacet
  facet normal -0 0 -1
    outer loop
      vertex 21.479 11.75 0
      vertex 7 1.2 0
      vertex 16.1152 12.078 0
    endloop
  endfacet
  facet normal 0 0 -1
    outer loop
      vertex 7 1.2 0
      vertex 14.8068 -12.8877 0
      vertex 9.87407 -12.6723 0
    endloop
  endfacet
  facet normal 0 0 -1
    outer loop
      vertex 7 8.4 0
      vertex 16.1152 12.078 0
      vertex 7 1.2 0
    endloop
  endfacet
  facet normal -0 0 -1
    outer loop
      vertex 16.1152 12.078 0
      vertex 7 8.4 0
      vertex 10.7466 12.3124 0
    endloop
  endfacet
  facet normal 0 0 -1
    outer loop
      vertex 7 8.4 0
      vertex 5.3746 12.4531 0
      vertex 10.7466 12.3124 0
    endloop
  endfacet
  facet normal 0 0 -1
    outer loop
      vertex 0.000999451 8.4 0
      vertex 5.3746 12.4531 0
      vertex 7 8.4 0
    endloop
  endfacet
  facet normal -0 0 -1
    outer loop
      vertex 5.3746 12.4531 0
      vertex 0.000999451 8.4 0
      vertex 0.000999451 12.5 0
    endloop
  endfacet
  facet normal 0 -1 0
    outer loop
      vertex -5.999 -8 0
      vertex 0.000999451 -8 2.6
      vertex -5.999 -8 2.6
    endloop
  endfacet
  facet normal 0 -1 -0
    outer loop
      vertex 0.000999451 -8 2.6
      vertex -5.999 -8 0
      vertex 0.000999451 -8 0
    endloop
  endfacet
  facet normal 0 1 -0
    outer loop
      vertex 0.000999451 -1 0
      vertex -5.999 -1 2.6
      vertex 0.000999451 -1 2.6
    endloop
  endfacet
  facet normal 0 1 0
    outer loop
      vertex -5.999 -1 2.6
      vertex 0.000999451 -1 0
      vertex -5.999 -1 0
    endloop
  endfacet
  facet normal -1 0 0
    outer loop
      vertex -6 -5.901 0
      vertex -6 -3.101 4.6
      vertex -6 -3.101 0
    endloop
  endfacet
  facet normal -1 -0 0
    outer loop
      vertex -6 -3.101 4.6
      vertex -6 -5.901 0
      vertex -6 -5.901 4.6
    endloop
  endfacet
  facet normal 0 0 -1
    outer loop
      vertex -0.000999855 -6.202 4.6
      vertex -6 -5.901 4.6
      vertex -0.000999855 -5.901 4.6
    endloop
  endfacet
  facet normal -0 0 -1
    outer loop
      vertex -6 -5.901 4.6
      vertex -6.001 -6.202 4.6
      vertex -6 -3.101 4.6
    endloop
  endfacet
  facet normal 0 0 -1
    outer loop
      vertex -6.001 -6.202 4.6
      vertex -6 -5.901 4.6
      vertex -0.000999855 -6.202 4.6
    endloop
  endfacet
  facet normal 0 0 -1
    outer loop
      vertex -6 -3.101 4.6
      vertex -0.000999855 -2.802 4.6
      vertex -0.000999855 -3.101 4.6
    endloop
  endfacet
  facet normal 0 0 -1
    outer loop
      vertex -6 -3.101 4.6
      vertex -6.001 -2.802 4.6
      vertex -0.000999855 -2.802 4.6
    endloop
  endfacet
  facet normal 0 0 -1
    outer loop
      vertex -6.001 -2.802 4.6
      vertex -6 -3.101 4.6
      vertex -6.001 -6.202 4.6
    endloop
  endfacet
  facet normal -0 0 1
    outer loop
      vertex -0.000999855 -3.101 4.6
      vertex 0 -5.901 4.6
      vertex 0 -3.101 4.6
    endloop
  endfacet
  facet normal 0 0 1
    outer loop
      vertex 0 -5.901 4.6
      vertex -0.000999855 -3.101 4.6
      vertex -0.000999855 -5.901 4.6
    endloop
  endfacet
  facet normal 1 -0 0
    outer loop
      vertex 5.49316e-07 -5.901 3.5
      vertex 5.49316e-07 -3.101 2.6
      vertex 5.49316e-07 -3.101 3.5
    endloop
  endfacet
  facet normal 1 0 0
    outer loop
      vertex 5.49316e-07 -3.101 2.6
      vertex 5.49316e-07 -5.901 3.5
      vertex 5.49316e-07 -5.901 2.6
    endloop
  endfacet
  facet normal 0 -1 0
    outer loop
      vertex 0 -5.901 3.5
      vertex -0.000999855 -5.901 4.6
      vertex -6 -5.901 4.6
    endloop
  endfacet
  facet normal 0 -1 0
    outer loop
      vertex -0.000999855 -5.901 4.6
      vertex 0 -5.901 3.5
      vertex 0 -5.901 4.6
    endloop
  endfacet
  facet normal 0 -1 0
    outer loop
      vertex 5.49316e-07 -5.901 2.6
      vertex 0 -5.901 3.5
      vertex -5.999 -5.901 2.6
    endloop
  endfacet
  facet normal 0 -1 0
    outer loop
      vertex -6 -5.901 4.6
      vertex -5.999 -5.901 2.6
      vertex 0 -5.901 3.5
    endloop
  endfacet
  facet normal 0 -1 0
    outer loop
      vertex -6 -5.901 0
      vertex -5.999 -5.901 2.6
      vertex -6 -5.901 4.6
    endloop
  endfacet
  facet normal 0 -1 -0
    outer loop
      vertex -5.999 -5.901 2.6
      vertex -6 -5.901 0
      vertex -5.999 -5.901 0
    endloop
  endfacet
  facet normal 0 -1 0
    outer loop
      vertex 0 -5.901 3.5
      vertex 5.49316e-07 -5.901 2.6
      vertex 5.49316e-07 -5.901 3.5
    endloop
  endfacet
  facet normal 0 1 0
    outer loop
      vertex 5.49316e-07 -3.101 3.5
      vertex 5.49316e-07 -3.101 2.6
      vertex 0 -3.101 3.5
    endloop
  endfacet
  facet normal 0 1 -0
    outer loop
      vertex 0 -3.101 3.5
      vertex -0.000999855 -3.101 4.6
      vertex 0 -3.101 4.6
    endloop
  endfacet
  facet normal 0 1 0
    outer loop
      vertex -0.000999855 -3.101 4.6
      vertex 0 -3.101 3.5
      vertex -6 -3.101 4.6
    endloop
  endfacet
  facet normal 0 1 0
    outer loop
      vertex -5.999 -3.101 2.6
      vertex 0 -3.101 3.5
      vertex 5.49316e-07 -3.101 2.6
    endloop
  endfacet
  facet normal 0 1 0
    outer loop
      vertex 0 -3.101 3.5
      vertex -5.999 -3.101 2.6
      vertex -6 -3.101 4.6
    endloop
  endfacet
  facet normal 0 1 0
    outer loop
      vertex -6 -3.101 0
      vertex -5.999 -3.101 2.6
      vertex -5.999 -3.101 0
    endloop
  endfacet
  facet normal 0 1 0
    outer loop
      vertex -5.999 -3.101 2.6
      vertex -6 -3.101 0
      vertex -6 -3.101 4.6
    endloop
  endfacet
  facet normal -1 0 0
    outer loop
      vertex -6.001 -6.202 4.6
      vertex -6.001 -2.802 5.2
      vertex -6.001 -2.802 4.6
    endloop
  endfacet
  facet normal -1 -0 0
    outer loop
      vertex -6.001 -2.802 5.2
      vertex -6.001 -6.202 4.6
      vertex -6.001 -6.202 5.2
    endloop
  endfacet
  facet normal -0 0 1
    outer loop
      vertex -6.001 -2.802 5.2
      vertex -0.000999855 -6.202 5.2
      vertex -0.000999855 -2.802 5.2
    endloop
  endfacet
  facet normal 0 0 1
    outer loop
      vertex -0.000999855 -6.202 5.2
      vertex -6.001 -2.802 5.2
      vertex -6.001 -6.202 5.2
    endloop
  endfacet
  facet normal 1 0 0
    outer loop
      vertex -0.000999855 -2.802 5.2
      vertex -0.000999855 -3.101 4.6
      vertex -0.000999855 -2.802 4.6
    endloop
  endfacet
  facet normal 1 0 0
    outer loop
      vertex -0.000999855 -2.802 5.2
      vertex -0.000999855 -5.901 4.6
      vertex -0.000999855 -3.101 4.6
    endloop
  endfacet
  facet normal 1 -0 0
    outer loop
      vertex -0.000999855 -6.202 5.2
      vertex -0.000999855 -5.901 4.6
      vertex -0.000999855 -2.802 5.2
    endloop
  endfacet
  facet normal 1 0 0
    outer loop
      vertex -0.000999855 -5.901 4.6
      vertex -0.000999855 -6.202 5.2
      vertex -0.000999855 -6.202 4.6
    endloop
  endfacet
  facet normal 0 -1 0
    outer loop
      vertex -6.001 -6.202 4.6
      vertex -0.000999855 -6.202 5.2
      vertex -6.001 -6.202 5.2
    endloop
  endfacet
  facet normal 0 -1 -0
    outer loop
      vertex -0.000999855 -6.202 5.2
      vertex -6.001 -6.202 4.6
      vertex -0.000999855 -6.202 4.6
    endloop
  endfacet
  facet normal 0 1 -0
    outer loop
      vertex -0.000999855 -2.802 4.6
      vertex -6.001 -2.802 5.2
      vertex -0.000999855 -2.802 5.2
    endloop
  endfacet
  facet normal 0 1 0
    outer loop
      vertex -6.001 -2.802 5.2
      vertex -0.000999855 -2.802 4.6
      vertex -6.001 -2.802 4.6
    endloop
  endfacet
  facet normal 0.965921 -0.258836 0
    outer loop
      vertex 83.777 -5.9185 2.6
      vertex 84.3203 -3.89102 0
      vertex 84.3203 -3.89102 2.6
    endloop
  endfacet
  facet normal 0.965921 -0.258836 0
    outer loop
      vertex 84.3203 -3.89102 0
      vertex 83.777 -5.9185 2.6
      vertex 83.777 -5.9185 0
    endloop
  endfacet
  facet normal 0.965923 -0.258828 0
    outer loop
      vertex 82.5085 -10.6525 2.6
      vertex 83.0523 -8.62309 0
      vertex 83.0523 -8.62309 2.6
    endloop
  endfacet
  facet normal 0.965923 -0.258828 0
    outer loop
      vertex 83.0523 -8.62309 0
      vertex 82.5085 -10.6525 2.6
      vertex 82.5085 -10.6525 0
    endloop
  endfacet
  facet normal 0 0 1
    outer loop
      vertex 78.5266 -2.3386 2.6
      vertex 83.777 -5.9185 2.6
      vertex 84.3203 -3.89102 2.6
    endloop
  endfacet
  facet normal 0 0 1
    outer loop
      vertex 83.777 -5.9185 2.6
      vertex 78.5266 -2.3386 2.6
      vertex 77.9833 -4.36608 2.6
    endloop
  endfacet
  facet normal 0 0 1
    outer loop
      vertex 77.2586 -7.07067 2.6
      vertex 82.5085 -10.6525 2.6
      vertex 83.0523 -8.62309 2.6
    endloop
  endfacet
  facet normal 0 0 1
    outer loop
      vertex 82.5085 -10.6525 2.6
      vertex 77.2586 -7.07067 2.6
      vertex 76.7148 -9.10009 2.6
    endloop
  endfacet
  facet normal 0.258819 0.965926 -0
    outer loop
      vertex 84.3203 -3.89102 0
      vertex 78.5266 -2.3386 2.6
      vertex 84.3203 -3.89102 2.6
    endloop
  endfacet
  facet normal 0.258819 0.965926 0
    outer loop
      vertex 78.5266 -2.3386 2.6
      vertex 84.3203 -3.89102 0
      vertex 78.5266 -2.3386 0
    endloop
  endfacet
  facet normal -0.258818 -0.965926 0
    outer loop
      vertex 76.7148 -9.10009 0
      vertex 82.5085 -10.6525 2.6
      vertex 76.7148 -9.10009 2.6
    endloop
  endfacet
  facet normal -0.258818 -0.965926 -0
    outer loop
      vertex 82.5085 -10.6525 2.6
      vertex 76.7148 -9.10009 0
      vertex 82.5085 -10.6525 0
    endloop
  endfacet
  facet normal 0.965925 -0.258821 0
    outer loop
      vertex 83.0533 -8.62335 4.6
      vertex 83.778 -5.91876 0
      vertex 83.778 -5.91876 4.6
    endloop
  endfacet
  facet normal 0.965925 -0.258821 0
    outer loop
      vertex 83.778 -5.91876 0
      vertex 83.0533 -8.62335 4.6
      vertex 83.0533 -8.62335 0
    endloop
  endfacet
  facet normal 0 0 -1
    outer loop
      vertex 83.8568 -5.62827 4.6
      vertex 83.0533 -8.62335 4.6
      vertex 83.778 -5.91876 4.6
    endloop
  endfacet
  facet normal 0 0 -1
    outer loop
      vertex 82.9768 -8.91242 4.6
      vertex 83.0533 -8.62335 4.6
      vertex 83.8568 -5.62827 4.6
    endloop
  endfacet
  facet normal 0 0 -1
    outer loop
      vertex 82.9768 -8.91242 4.6
      vertex 77.308 -7.08391 4.6
      vertex 83.0533 -8.62335 4.6
    endloop
  endfacet
  facet normal 0 -0 -1
    outer loop
      vertex 77.308 -7.08391 4.6
      vertex 82.9768 -8.91242 4.6
      vertex 77.2306 -7.37271 4.6
    endloop
  endfacet
  facet normal 0 0 -1
    outer loop
      vertex 83.778 -5.91876 4.6
      vertex 78.1111 -4.08871 4.6
      vertex 83.8568 -5.62827 4.6
    endloop
  endfacet
  facet normal 0 -0 -1
    outer loop
      vertex 78.1111 -4.08871 4.6
      vertex 83.778 -5.91876 4.6
      vertex 78.0332 -4.37944 4.6
    endloop
  endfacet
  facet normal 0.25882 0.965926 0
    outer loop
      vertex 83.778 -5.91876 4.6
      vertex 78.0332 -4.37944 3.5
      vertex 78.0332 -4.37944 4.6
    endloop
  endfacet
  facet normal 0.258819 0.965926 -1.14714e-05
    outer loop
      vertex 77.9833 -4.36608 2.6
      vertex 78.0332 -4.37944 3.5
      vertex 83.777 -5.9185 2.6
    endloop
  endfacet
  facet normal 0.258821 0.965925 -3.83999e-06
    outer loop
      vertex 83.778 -5.91876 4.6
      vertex 83.777 -5.9185 2.6
      vertex 78.0332 -4.37944 3.5
    endloop
  endfacet
  facet normal 0.251634 0.967823 -0
    outer loop
      vertex 83.778 -5.91876 0
      vertex 83.777 -5.9185 2.6
      vertex 83.778 -5.91876 4.6
    endloop
  endfacet
  facet normal 0.251634 0.967823 0
    outer loop
      vertex 83.777 -5.9185 2.6
      vertex 83.778 -5.91876 0
      vertex 83.777 -5.9185 0
    endloop
  endfacet
  facet normal 0.258626 0.965977 0
    outer loop
      vertex 78.0332 -4.37944 3.5
      vertex 77.9833 -4.36608 2.6
      vertex 77.9833 -4.36608 3.5
    endloop
  endfacet
  facet normal -0.258818 -0.965926 0
    outer loop
      vertex 77.308 -7.08391 3.5
      vertex 83.0533 -8.62335 4.6
      vertex 77.308 -7.08391 4.6
    endloop
  endfacet
  facet normal -0.258819 -0.965926 -3.52705e-06
    outer loop
      vertex 83.0523 -8.62309 2.6
      vertex 77.308 -7.08391 3.5
      vertex 77.2586 -7.07067 2.6
    endloop
  endfacet
  facet normal -0.258818 -0.965926 3.83882e-06
    outer loop
      vertex 77.308 -7.08391 3.5
      vertex 83.0523 -8.62309 2.6
      vertex 83.0533 -8.62335 4.6
    endloop
  endfacet
  facet normal -0.251634 -0.967823 0
    outer loop
      vertex 83.0533 -8.62335 0
      vertex 83.0523 -8.62309 2.6
      vertex 83.0523 -8.62309 0
    endloop
  endfacet
  facet normal -0.251634 -0.967823 0
    outer loop
      vertex 83.0523 -8.62309 2.6
      vertex 83.0533 -8.62335 0
      vertex 83.0533 -8.62335 4.6
    endloop
  endfacet
  facet normal -0.258879 -0.96591 -0
    outer loop
      vertex 77.2586 -7.07067 3.5
      vertex 77.2586 -7.07067 2.6
      vertex 77.308 -7.08391 3.5
    endloop
  endfacet
  facet normal 0.965925 -0.258823 0
    outer loop
      vertex 82.9768 -8.91242 5.2
      vertex 83.8568 -5.62827 4.6
      vertex 83.8568 -5.62827 5.2
    endloop
  endfacet
  facet normal 0.965925 -0.258823 0
    outer loop
      vertex 83.8568 -5.62827 4.6
      vertex 82.9768 -8.91242 5.2
      vertex 82.9768 -8.91242 4.6
    endloop
  endfacet
  facet normal 0 0 1
    outer loop
      vertex 78.1111 -4.08871 5.2
      vertex 82.9768 -8.91242 5.2
      vertex 83.8568 -5.62827 5.2
    endloop
  endfacet
  facet normal 0 0 1
    outer loop
      vertex 82.9768 -8.91242 5.2
      vertex 78.1111 -4.08871 5.2
      vertex 77.2306 -7.37271 5.2
    endloop
  endfacet
  facet normal 0.25882 0.965926 -0
    outer loop
      vertex 83.8568 -5.62827 4.6
      vertex 78.1111 -4.08871 5.2
      vertex 83.8568 -5.62827 5.2
    endloop
  endfacet
  facet normal 0.25882 0.965926 0
    outer loop
      vertex 78.1111 -4.08871 5.2
      vertex 83.8568 -5.62827 4.6
      vertex 78.1111 -4.08871 4.6
    endloop
  endfacet
  facet normal -0.258822 -0.965925 0
    outer loop
      vertex 77.2306 -7.37271 4.6
      vertex 82.9768 -8.91242 5.2
      vertex 77.2306 -7.37271 5.2
    endloop
  endfacet
  facet normal -0.258822 -0.965925 -0
    outer loop
      vertex 82.9768 -8.91242 5.2
      vertex 77.2306 -7.37271 4.6
      vertex 82.9768 -8.91242 4.6
    endloop
  endfacet
  facet normal -1 0 0
    outer loop
      vertex 0.000999451 1.2 0
      vertex 0.000999451 -1 0
      vertex 0.000999451 1.2 2.5
    endloop
  endfacet
  facet normal -1 0 0
    outer loop
      vertex 0.000999451 -1 2.6
      vertex 0.000999451 1.2 2.5
      vertex 0.000999451 -1 0
    endloop
  endfacet
  facet normal -1 0 0
    outer loop
      vertex 0.000999451 -1 2.6
      vertex 0.000999451 3.4 3.5
      vertex 0.000999451 1.2 2.5
    endloop
  endfacet
  facet normal -1 0 0
    outer loop
      vertex 0.000999451 -8.00001 3.5
      vertex 0.000999451 -1 2.6
      vertex 0.000999451 -8 2.6
    endloop
  endfacet
  facet normal -1 0 0
    outer loop
      vertex 0.000999451 -1 2.6
      vertex 0.000999451 -8.00001 3.5
      vertex 0.000999451 3.4 3.5
    endloop
  endfacet
  facet normal -1 0 0
    outer loop
      vertex 0.000999451 -12.5 0
      vertex 0.000999451 -8 2.6
      vertex 0.000999451 -8 0
    endloop
  endfacet
  facet normal -1 0 0
    outer loop
      vertex 0.000999451 -8.00001 3.5
      vertex 0.000999451 -9 5
      vertex 0.000999451 -8.00001 5
    endloop
  endfacet
  facet normal -1 0 -0
    outer loop
      vertex 0.000999451 -9 5
      vertex 0.000999451 -8 2.6
      vertex 0.000999451 -12.5 0
    endloop
  endfacet
  facet normal -1 0 0
    outer loop
      vertex 0.000999451 -8 2.6
      vertex 0.000999451 -9 5
      vertex 0.000999451 -8.00001 3.5
    endloop
  endfacet
  facet normal -1 0 0
    outer loop
      vertex 0.000999451 8.4 2.5
      vertex 0.000999451 6.4 3.5
      vertex 0.000999451 7.99999 3.5
    endloop
  endfacet
  facet normal -1 0 0
    outer loop
      vertex 0.000999451 8.4 2.5
      vertex 0.000999451 12.5 0
      vertex 0.000999451 8.4 0
    endloop
  endfacet
  facet normal -1 0 0
    outer loop
      vertex 0.000999451 12.5 0
      vertex 0.000999451 8.4 2.5
      vertex 0.000999451 9 5
    endloop
  endfacet
  facet normal -1 0 0
    outer loop
      vertex 0.000999451 7.99999 3.5
      vertex 0.000999451 9 5
      vertex 0.000999451 8.4 2.5
    endloop
  endfacet
  facet normal -1 -0 0
    outer loop
      vertex 0.000999451 9 5
      vertex 0.000999451 7.99999 3.5
      vertex 0.000999451 7.99999 5
    endloop
  endfacet
  facet normal 0.965932 -0.258796 0
    outer loop
      vertex 74.1268 -18.7588 5
      vertex 74.3854 -17.7936 3.5
      vertex 74.3854 -17.7936 5
    endloop
  endfacet
  facet normal 0.96593 -0.258803 -4.96712e-06
    outer loop
      vertex 74.3854 -17.7936 3.5
      vertex 74.1268 -18.7588 5
      vertex 74.282 -18.1795 2.5
    endloop
  endfacet
  facet normal 0.965927 -0.258813 -7.46543e-06
    outer loop
      vertex 73.2209 -22.1396 0
      vertex 74.282 -18.1795 2.5
      vertex 74.1268 -18.7588 5
    endloop
  endfacet
  facet normal 0.965926 -0.258818 0
    outer loop
      vertex 74.282 -18.1795 2.5
      vertex 73.2209 -22.1396 0
      vertex 74.282 -18.1795 0.953428
    endloop
  endfacet
  facet normal 0.965929 -0.258806 -3.92395e-06
    outer loop
      vertex 74.7996 -16.2477 3.5
      vertex 74.3854 -17.7936 3.5
      vertex 74.282 -18.1795 2.5
    endloop
  endfacet
  facet normal 0.965926 -0.258817 0
    outer loop
      vertex 78.5265 -2.33879 4.76728
      vertex 78.7855 -1.37218 5
      vertex 78.5265 -2.33879 5
    endloop
  endfacet
  facet normal 0.965927 -0.258813 -3.02921e-05
    outer loop
      vertex 76.0973 -11.4046 2.58458
      vertex 77.1161 -7.6024 3.5
      vertex 75.5761 -13.3499 3.5
    endloop
  endfacet
  facet normal 0.965926 -0.258817 0
    outer loop
      vertex 78.5265 -2.33879 3.5
      vertex 78.7855 -1.37218 5
      vertex 78.5265 -2.33879 4.76728
    endloop
  endfacet
  facet normal 0.965906 -0.258893 5.26677e-05
    outer loop
      vertex 78.7855 -1.37218 5
      vertex 78.5265 -2.33879 3.5
      vertex 78.5266 -2.3386 2.6
    endloop
  endfacet
  facet normal 0.965927 -0.258814 5.26867e-05
    outer loop
      vertex 77.9833 -4.36608 3.5
      vertex 78.5266 -2.3386 2.6
      vertex 78.5265 -2.33879 3.5
    endloop
  endfacet
  facet normal 0.965921 -0.258836 0
    outer loop
      vertex 78.5266 -2.3386 2.6
      vertex 77.9833 -4.36608 3.5
      vertex 77.9833 -4.36608 2.6
    endloop
  endfacet
  facet normal 0.965929 -0.258807 1.5392e-05
    outer loop
      vertex 78.5266 -2.3386 2.6
      vertex 79.6914 2.00856 0
      vertex 78.7855 -1.37218 5
    endloop
  endfacet
  facet normal 0.965927 -0.258815 0
    outer loop
      vertex 79.6914 2.00856 0
      vertex 78.5266 -2.3386 2.6
      vertex 78.5266 -2.3386 0
    endloop
  endfacet
  facet normal 0.965926 -0.258818 0
    outer loop
      vertex 74.282 -18.1795 0
      vertex 74.282 -18.1795 0.953428
      vertex 73.2209 -22.1396 0
    endloop
  endfacet
  facet normal 0.965915 -0.258859 0
    outer loop
      vertex 77.1161 -7.6024 3.5
      vertex 77.2586 -7.07067 2.6
      vertex 77.2586 -7.07067 3.5
    endloop
  endfacet
  facet normal 0.965924 -0.258827 1.98719e-05
    outer loop
      vertex 77.1161 -7.6024 3.5
      vertex 76.7148 -9.10009 2.6
      vertex 77.2586 -7.07067 2.6
    endloop
  endfacet
  facet normal 0.96593 -0.258802 0
    outer loop
      vertex 76.7148 -9.10009 2.6
      vertex 76.1455 -11.2249 2.5
      vertex 76.7148 -9.10009 0
    endloop
  endfacet
  facet normal 0.965925 -0.258822 1.11674e-05
    outer loop
      vertex 76.0973 -11.4046 2.58458
      vertex 76.7148 -9.10009 2.6
      vertex 77.1161 -7.6024 3.5
    endloop
  endfacet
  facet normal 0.965878 -0.258969 0.00385465
    outer loop
      vertex 76.7148 -9.10009 2.6
      vertex 76.1374 -11.2549 2.51415
      vertex 76.1455 -11.2249 2.5
    endloop
  endfacet
  facet normal 0.965925 -0.258821 -0.000169573
    outer loop
      vertex 76.7148 -9.10009 2.6
      vertex 76.0973 -11.4046 2.58458
      vertex 76.1374 -11.2549 2.51415
    endloop
  endfacet
  facet normal 0.96593 -0.258802 0
    outer loop
      vertex 76.7148 -9.10009 0
      vertex 76.1455 -11.2249 2.5
      vertex 76.1455 -11.2249 0
    endloop
  endfacet
  facet normal -0.00714913 -0.819211 0.573448
    outer loop
      vertex 4.99937 -9.04362 5
      vertex 0.000999451 -9 5
      vertex 0.000999451 -12.5 0
    endloop
  endfacet
  facet normal -0.00715129 -0.81921 0.573449
    outer loop
      vertex 4.93828 -12.5431 0
      vertex 4.99937 -9.04362 5
      vertex 0.000999451 -12.5 0
    endloop
  endfacet
  facet normal -0 0 1
    outer loop
      vertex 73.4471 -1.02424 5
      vertex 78.7855 -1.37218 5
      vertex 73.642 -0.0419807 5
    endloop
  endfacet
  facet normal 0 0 1
    outer loop
      vertex 78.7855 -1.37218 5
      vertex 73.4471 -1.02424 5
      vertex 78.5265 -2.33879 5
    endloop
  endfacet
  facet normal -0 0 1
    outer loop
      vertex 68.2949 0.213551 5
      vertex 73.642 -0.0419807 5
      vertex 68.4761 1.19825 5
    endloop
  endfacet
  facet normal 0 0 1
    outer loop
      vertex 73.642 -0.0419807 5
      vertex 68.2949 0.213551 5
      vertex 73.4471 -1.02424 5
    endloop
  endfacet
  facet normal -0 0 1
    outer loop
      vertex 63.1218 1.36117 5
      vertex 68.4761 1.19825 5
      vertex 63.2893 2.34813 5
    endloop
  endfacet
  facet normal 0 0 1
    outer loop
      vertex 68.4761 1.19825 5
      vertex 63.1218 1.36117 5
      vertex 68.2949 0.213551 5
    endloop
  endfacet
  facet normal -0 0 1
    outer loop
      vertex 57.9296 2.41827 5
      vertex 63.2893 2.34813 5
      vertex 58.0833 3.40731 5
    endloop
  endfacet
  facet normal 0 0 1
    outer loop
      vertex 63.2893 2.34813 5
      vertex 57.9296 2.41827 5
      vertex 63.1218 1.36117 5
    endloop
  endfacet
  facet normal 0 0 1
    outer loop
      vertex 52.7196 3.38454 5
      vertex 58.0833 3.40731 5
      vertex 52.8595 4.37548 5
    endloop
  endfacet
  facet normal 0 0 1
    outer loop
      vertex 58.0833 3.40731 5
      vertex 52.7196 3.38454 5
      vertex 57.9296 2.41827 5
    endloop
  endfacet
  facet normal 0 0 1
    outer loop
      vertex 47.4936 4.25967 5
      vertex 52.8595 4.37548 5
      vertex 47.6197 5.25233 5
    endloop
  endfacet
  facet normal 0 0 1
    outer loop
      vertex 52.8595 4.37548 5
      vertex 47.4936 4.25967 5
      vertex 52.7196 3.38454 5
    endloop
  endfacet
  facet normal 0 0 1
    outer loop
      vertex 42.2531 5.0434 5
      vertex 47.6197 5.25233 5
      vertex 42.3653 6.0376 5
    endloop
  endfacet
  facet normal 0 0 1
    outer loop
      vertex 47.6197 5.25233 5
      vertex 42.2531 5.0434 5
      vertex 47.4936 4.25967 5
    endloop
  endfacet
  facet normal 0 0 1
    outer loop
      vertex 36.9997 5.73549 5
      vertex 42.3653 6.0376 5
      vertex 37.098 6.73105 5
    endloop
  endfacet
  facet normal 0 0 1
    outer loop
      vertex 42.3653 6.0376 5
      vertex 36.9997 5.73549 5
      vertex 42.2531 5.0434 5
    endloop
  endfacet
  facet normal 0 0 1
    outer loop
      vertex 31.735 6.33573 5
      vertex 37.098 6.73105 5
      vertex 31.8195 7.33246 5
    endloop
  endfacet
  facet normal 0 0 1
    outer loop
      vertex 37.098 6.73105 5
      vertex 31.735 6.33573 5
      vertex 36.9997 5.73549 5
    endloop
  endfacet
  facet normal 0 0 1
    outer loop
      vertex 26.4606 6.84393 5
      vertex 31.8195 7.33246 5
      vertex 26.5312 7.84167 5
    endloop
  endfacet
  facet normal 0 0 1
    outer loop
      vertex 31.8195 7.33246 5
      vertex 26.4606 6.84393 5
      vertex 31.735 6.33573 5
    endloop
  endfacet
  facet normal 0 0 1
    outer loop
      vertex 21.1782 7.25995 5
      vertex 26.5312 7.84167 5
      vertex 21.2349 8.2585 5
    endloop
  endfacet
  facet normal 0 0 1
    outer loop
      vertex 26.5312 7.84167 5
      vertex 21.1782 7.25995 5
      vertex 26.4606 6.84393 5
    endloop
  endfacet
  facet normal 0 0 1
    outer loop
      vertex 15.8893 7.58365 5
      vertex 21.2349 8.2585 5
      vertex 15.9321 8.58283 5
    endloop
  endfacet
  facet normal 0 0 1
    outer loop
      vertex 21.2349 8.2585 5
      vertex 15.8893 7.58365 5
      vertex 21.1782 7.25995 5
    endloop
  endfacet
  facet normal 0 0 1
    outer loop
      vertex 10.5956 7.81493 5
      vertex 15.9321 8.58283 5
      vertex 10.6244 8.81457 5
    endloop
  endfacet
  facet normal 0 0 1
    outer loop
      vertex 15.9321 8.58283 5
      vertex 10.5956 7.81493 5
      vertex 15.8893 7.58365 5
    endloop
  endfacet
  facet normal 0 0 1
    outer loop
      vertex 5.31351 8.95364 5
      vertex 10.5956 7.81493 5
      vertex 10.6244 8.81457 5
    endloop
  endfacet
  facet normal 0 0 1
    outer loop
      vertex 5.31351 8.95364 5
      vertex 5.29859 7.95373 5
      vertex 10.5956 7.81493 5
    endloop
  endfacet
  facet normal 0 0 1
    outer loop
      vertex 0.000999451 9 5
      vertex 5.29859 7.95373 5
      vertex 5.31351 8.95364 5
    endloop
  endfacet
  facet normal 0 0 1
    outer loop
      vertex 5.29859 7.95373 5
      vertex 0.000999451 9 5
      vertex 0.000999451 7.99999 5
    endloop
  endfacet
  facet normal 0 0 1
    outer loop
      vertex 69.5738 -16.5483 5
      vertex 74.1268 -18.7588 5
      vertex 74.3854 -17.7936 5
    endloop
  endfacet
  facet normal 0 0 1
    outer loop
      vertex 69.5738 -16.5483 5
      vertex 69.2874 -17.5073 5
      vertex 74.1268 -18.7588 5
    endloop
  endfacet
  facet normal 0 0 1
    outer loop
      vertex 64.6933 -15.3758 5
      vertex 69.2874 -17.5073 5
      vertex 69.5738 -16.5483 5
    endloop
  endfacet
  facet normal 0 0 1
    outer loop
      vertex 64.6933 -15.3758 5
      vertex 64.427 -16.3404 5
      vertex 69.2874 -17.5073 5
    endloop
  endfacet
  facet normal 0 0 1
    outer loop
      vertex 59.7931 -14.2887 5
      vertex 64.427 -16.3404 5
      vertex 64.6933 -15.3758 5
    endloop
  endfacet
  facet normal 0 0 1
    outer loop
      vertex 59.7931 -14.2887 5
      vertex 59.5469 -15.2585 5
      vertex 64.427 -16.3404 5
    endloop
  endfacet
  facet normal 0 0 1
    outer loop
      vertex 54.8746 -13.2874 5
      vertex 59.5469 -15.2585 5
      vertex 59.7931 -14.2887 5
    endloop
  endfacet
  facet normal 0 0 1
    outer loop
      vertex 54.8746 -13.2874 5
      vertex 54.6487 -14.262 5
      vertex 59.5469 -15.2585 5
    endloop
  endfacet
  facet normal 0 0 1
    outer loop
      vertex 49.9394 -12.3721 5
      vertex 54.6487 -14.262 5
      vertex 54.8746 -13.2874 5
    endloop
  endfacet
  facet normal 0 0 1
    outer loop
      vertex 49.9394 -12.3721 5
      vertex 49.7338 -13.3511 5
      vertex 54.6487 -14.262 5
    endloop
  endfacet
  facet normal 0 0 1
    outer loop
      vertex 44.989 -11.5431 5
      vertex 49.7338 -13.3511 5
      vertex 49.9394 -12.3721 5
    endloop
  endfacet
  facet normal 0 0 1
    outer loop
      vertex 44.989 -11.5431 5
      vertex 44.8038 -12.5261 5
      vertex 49.7338 -13.3511 5
    endloop
  endfacet
  facet normal 0 0 1
    outer loop
      vertex 40.0248 -10.8007 5
      vertex 44.8038 -12.5261 5
      vertex 44.989 -11.5431 5
    endloop
  endfacet
  facet normal 0 0 1
    outer loop
      vertex 40.0248 -10.8007 5
      vertex 39.8602 -11.7872 5
      vertex 44.8038 -12.5261 5
    endloop
  endfacet
  facet normal 0 0 1
    outer loop
      vertex 35.0485 -10.1451 5
      vertex 39.8602 -11.7872 5
      vertex 40.0248 -10.8007 5
    endloop
  endfacet
  facet normal 0 0 1
    outer loop
      vertex 35.0485 -10.1451 5
      vertex 34.9044 -11.1348 5
      vertex 39.8602 -11.7872 5
    endloop
  endfacet
  facet normal 0 0 1
    outer loop
      vertex 30.0614 -9.5765 5
      vertex 34.9044 -11.1348 5
      vertex 35.0485 -10.1451 5
    endloop
  endfacet
  facet normal 0 0 1
    outer loop
      vertex 30.0614 -9.5765 5
      vertex 29.938 -10.5689 5
      vertex 34.9044 -11.1348 5
    endloop
  endfacet
  facet normal 0 0 1
    outer loop
      vertex 25.0652 -9.0951 5
      vertex 29.938 -10.5689 5
      vertex 30.0614 -9.5765 5
    endloop
  endfacet
  facet normal 0 0 1
    outer loop
      vertex 25.0652 -9.0951 5
      vertex 24.9624 -10.0898 5
      vertex 29.938 -10.5689 5
    endloop
  endfacet
  facet normal 0 0 1
    outer loop
      vertex 20.0614 -8.70103 5
      vertex 24.9624 -10.0898 5
      vertex 25.0652 -9.0951 5
    endloop
  endfacet
  facet normal 0 0 1
    outer loop
      vertex 20.0614 -8.70103 5
      vertex 19.9793 -9.69766 5
      vertex 24.9624 -10.0898 5
    endloop
  endfacet
  facet normal 0 0 1
    outer loop
      vertex 15.0514 -8.3944 5
      vertex 19.9793 -9.69766 5
      vertex 20.0614 -8.70103 5
    endloop
  endfacet
  facet normal 0 0 1
    outer loop
      vertex 15.0514 -8.3944 5
      vertex 14.99 -9.3925 5
      vertex 19.9793 -9.69766 5
    endloop
  endfacet
  facet normal 0 0 1
    outer loop
      vertex 10.0368 -8.17531 5
      vertex 14.99 -9.3925 5
      vertex 15.0514 -8.3944 5
    endloop
  endfacet
  facet normal 0 0 1
    outer loop
      vertex 10.0368 -8.17531 5
      vertex 9.99622 -9.17447 5
      vertex 14.99 -9.3925 5
    endloop
  endfacet
  facet normal 0 0 1
    outer loop
      vertex 5.01917 -8.04383 5
      vertex 9.99622 -9.17447 5
      vertex 10.0368 -8.17531 5
    endloop
  endfacet
  facet normal 0 0 1
    outer loop
      vertex 5.01917 -8.04383 5
      vertex 4.99937 -9.04362 5
      vertex 9.99622 -9.17447 5
    endloop
  endfacet
  facet normal 0 0 1
    outer loop
      vertex 0.000999451 -8.00001 5
      vertex 4.99937 -9.04362 5
      vertex 5.01917 -8.04383 5
    endloop
  endfacet
  facet normal 0 0 1
    outer loop
      vertex 4.99937 -9.04362 5
      vertex 0.000999451 -8.00001 5
      vertex 0.000999451 -9 5
    endloop
  endfacet
  facet normal 0.00714995 0.819211 0.573448
    outer loop
      vertex 5.3746 12.4531 0
      vertex 0.000999451 12.5 0
      vertex 0.000999451 9 5
    endloop
  endfacet
  facet normal 0.00714891 0.819212 0.573447
    outer loop
      vertex 5.31351 8.95364 5
      vertex 5.3746 12.4531 0
      vertex 0.000999451 9 5
    endloop
  endfacet
  facet normal -0.0214457 -0.81896 0.573449
    outer loop
      vertex 9.99622 -9.17447 5
      vertex 4.99937 -9.04362 5
      vertex 4.93828 -12.5431 0
    endloop
  endfacet
  facet normal -0.0214373 -0.818965 0.573443
    outer loop
      vertex 9.87407 -12.6723 0
      vertex 9.99622 -9.17447 5
      vertex 4.93828 -12.5431 0
    endloop
  endfacet
  facet normal 0.0214497 0.818962 0.573447
    outer loop
      vertex 10.7466 12.3124 0
      vertex 5.3746 12.4531 0
      vertex 5.31351 8.95364 5
    endloop
  endfacet
  facet normal 0.0214452 0.818964 0.573444
    outer loop
      vertex 10.6244 8.81457 5
      vertex 10.7466 12.3124 0
      vertex 5.31351 8.95364 5
    endloop
  endfacet
  facet normal -0.0357345 -0.818465 0.573444
    outer loop
      vertex 14.99 -9.3925 5
      vertex 9.99622 -9.17447 5
      vertex 9.87407 -12.6723 0
    endloop
  endfacet
  facet normal -0.0357402 -0.818462 0.573447
    outer loop
      vertex 14.8068 -12.8877 0
      vertex 14.99 -9.3925 5
      vertex 9.87407 -12.6723 0
    endloop
  endfacet
  facet normal 0.0357352 0.818465 0.573444
    outer loop
      vertex 16.1152 12.078 0
      vertex 10.7466 12.3124 0
      vertex 10.6244 8.81457 5
    endloop
  endfacet
  facet normal 0.0357351 0.818465 0.573444
    outer loop
      vertex 15.9321 8.58283 5
      vertex 16.1152 12.078 0
      vertex 10.6244 8.81457 5
    endloop
  endfacet
  facet normal -0.0500138 -0.817714 0.573447
    outer loop
      vertex 19.9793 -9.69766 5
      vertex 14.99 -9.3925 5
      vertex 14.8068 -12.8877 0
    endloop
  endfacet
  facet normal -0.0500091 -0.817717 0.573444
    outer loop
      vertex 19.7351 -13.1891 0
      vertex 19.9793 -9.69766 5
      vertex 14.8068 -12.8877 0
    endloop
  endfacet
  facet normal 0.050004 0.817718 0.573444
    outer loop
      vertex 21.479 11.75 0
      vertex 16.1152 12.078 0
      vertex 15.9321 8.58283 5
    endloop
  endfacet
  facet normal 0.0500129 0.817712 0.57345
    outer loop
      vertex 21.2349 8.2585 5
      vertex 21.479 11.75 0
      vertex 15.9321 8.58283 5
    endloop
  endfacet
  facet normal -0.0642709 -0.81672 0.573444
    outer loop
      vertex 24.9624 -10.0898 5
      vertex 19.9793 -9.69766 5
      vertex 19.7351 -13.1891 0
    endloop
  endfacet
  facet normal -0.064278 -0.816715 0.573449
    outer loop
      vertex 24.6574 -13.5765 0
      vertex 24.9624 -10.0898 5
      vertex 19.7351 -13.1891 0
    endloop
  endfacet
  facet normal 0.0642877 0.816714 0.57345
    outer loop
      vertex 26.8363 11.3283 0
      vertex 21.479 11.75 0
      vertex 21.2349 8.2585 5
    endloop
  endfacet
  facet normal 0.0642776 0.81672 0.573443
    outer loop
      vertex 26.5312 7.84167 5
      vertex 26.8363 11.3283 0
      vertex 21.2349 8.2585 5
    endloop
  endfacet
  facet normal -0.0785215 -0.815469 0.573449
    outer loop
      vertex 29.938 -10.5689 5
      vertex 24.9624 -10.0898 5
      vertex 24.6574 -13.5765 0
    endloop
  endfacet
  facet normal -0.0785315 -0.815463 0.573456
    outer loop
      vertex 29.5721 -14.0498 0
      vertex 29.938 -10.5689 5
      vertex 24.6574 -13.5765 0
    endloop
  endfacet
  facet normal 0.0785136 0.815475 0.573443
    outer loop
      vertex 32.1853 10.8133 0
      vertex 26.8363 11.3283 0
      vertex 26.5312 7.84167 5
    endloop
  endfacet
  facet normal 0.0785215 0.81547 0.573449
    outer loop
      vertex 31.8195 7.33246 5
      vertex 32.1853 10.8133 0
      vertex 26.5312 7.84167 5
    endloop
  endfacet
  facet normal -0.0927483 -0.813969 0.573456
    outer loop
      vertex 34.9044 -11.1348 5
      vertex 29.938 -10.5689 5
      vertex 29.5721 -14.0498 0
    endloop
  endfacet
  facet normal -0.0927353 -0.813977 0.573447
    outer loop
      vertex 34.4778 -14.6087 0
      vertex 34.9044 -11.1348 5
      vertex 29.5721 -14.0498 0
    endloop
  endfacet
  facet normal 0.0927353 0.813976 0.573449
    outer loop
      vertex 37.5246 10.205 0
      vertex 32.1853 10.8133 0
      vertex 31.8195 7.33246 5
    endloop
  endfacet
  facet normal 0.0927406 0.813973 0.573453
    outer loop
      vertex 37.098 6.73105 5
      vertex 37.5246 10.205 0
      vertex 31.8195 7.33246 5
    endloop
  endfacet
  facet normal -0.106926 -0.812235 0.573447
    outer loop
      vertex 39.8602 -11.7872 5
      vertex 34.9044 -11.1348 5
      vertex 34.4778 -14.6087 0
    endloop
  endfacet
  facet normal -0.106935 -0.812228 0.573454
    outer loop
      vertex 39.3731 -15.2532 0
      vertex 39.8602 -11.7872 5
      vertex 34.4778 -14.6087 0
    endloop
  endfacet
  facet normal 0.106938 0.812229 0.573453
    outer loop
      vertex 42.8524 9.50354 0
      vertex 37.5246 10.205 0
      vertex 37.098 6.73105 5
    endloop
  endfacet
  facet normal 0.106932 0.812233 0.573448
    outer loop
      vertex 42.3653 6.0376 5
      vertex 42.8524 9.50354 0
      vertex 37.098 6.73105 5
    endloop
  endfacet
  facet normal -0.121103 -0.810237 0.573454
    outer loop
      vertex 44.8038 -12.5261 5
      vertex 39.8602 -11.7872 5
      vertex 39.3731 -15.2532 0
    endloop
  endfacet
  facet normal -0.121092 -0.810244 0.573446
    outer loop
      vertex 44.2563 -15.983 0
      vertex 44.8038 -12.5261 5
      vertex 39.3731 -15.2532 0
    endloop
  endfacet
  facet normal 0.121091 0.810243 0.573448
    outer loop
      vertex 48.1672 8.70924 0
      vertex 42.8524 9.50354 0
      vertex 42.3653 6.0376 5
    endloop
  endfacet
  facet normal 0.121091 0.810244 0.573447
    outer loop
      vertex 47.6197 5.25233 5
      vertex 48.1672 8.70924 0
      vertex 42.3653 6.0376 5
    endloop
  endfacet
  facet normal -0.135214 -0.808008 0.573446
    outer loop
      vertex 49.7338 -13.3511 5
      vertex 44.8038 -12.5261 5
      vertex 44.2563 -15.983 0
    endloop
  endfacet
  facet normal -0.13521 -0.80801 0.573443
    outer loop
      vertex 49.1261 -16.7979 0
      vertex 49.7338 -13.3511 5
      vertex 44.2563 -15.983 0
    endloop
  endfacet
  facet normal 0.135214 0.808007 0.573447
    outer loop
      vertex 53.4673 7.82231 0
      vertex 48.1672 8.70924 0
      vertex 47.6197 5.25233 5
    endloop
  endfacet
  facet normal 0.135215 0.808006 0.573449
    outer loop
      vertex 52.8595 4.37548 5
      vertex 53.4673 7.82231 0
      vertex 47.6197 5.25233 5
    endloop
  endfacet
  facet normal -0.149292 -0.805528 0.573443
    outer loop
      vertex 54.6487 -14.262 5
      vertex 49.7338 -13.3511 5
      vertex 49.1261 -16.7979 0
    endloop
  endfacet
  facet normal -0.149298 -0.805523 0.573448
    outer loop
      vertex 53.9809 -17.6977 0
      vertex 54.6487 -14.262 5
      vertex 49.1261 -16.7979 0
    endloop
  endfacet
  facet normal 0.149296 0.805523 0.573449
    outer loop
      vertex 58.7511 6.84301 0
      vertex 53.4673 7.82231 0
      vertex 52.8595 4.37548 5
    endloop
  endfacet
  facet normal 0.149294 0.805524 0.573448
    outer loop
      vertex 58.0833 3.40731 5
      vertex 58.7511 6.84301 0
      vertex 52.8595 4.37548 5
    endloop
  endfacet
  facet normal -0.163323 -0.802797 0.573448
    outer loop
      vertex 59.5469 -15.2585 5
      vertex 54.6487 -14.262 5
      vertex 53.9809 -17.6977 0
    endloop
  endfacet
  facet normal -0.163321 -0.802799 0.573446
    outer loop
      vertex 58.8192 -18.682 0
      vertex 59.5469 -15.2585 5
      vertex 53.9809 -17.6977 0
    endloop
  endfacet
  facet normal 0.163331 0.802796 0.573448
    outer loop
      vertex 64.017 5.77165 0
      vertex 58.7511 6.84301 0
      vertex 58.0833 3.40731 5
    endloop
  endfacet
  facet normal 0.163332 0.802795 0.573448
    outer loop
      vertex 63.2893 2.34813 5
      vertex 64.017 5.77165 0
      vertex 58.0833 3.40731 5
    endloop
  endfacet
  facet normal -0.177318 -0.799824 0.573446
    outer loop
      vertex 64.427 -16.3404 5
      vertex 59.5469 -15.2585 5
      vertex 58.8192 -18.682 0
    endloop
  endfacet
  facet normal -0.17732 -0.799822 0.573448
    outer loop
      vertex 63.6397 -19.7507 0
      vertex 64.427 -16.3404 5
      vertex 58.8192 -18.682 0
    endloop
  endfacet
  facet normal 0.177318 0.799822 0.573448
    outer loop
      vertex 69.2634 4.60854 0
      vertex 64.017 5.77165 0
      vertex 63.2893 2.34813 5
    endloop
  endfacet
  facet normal 0.177316 0.799824 0.573446
    outer loop
      vertex 68.4761 1.19825 5
      vertex 69.2634 4.60854 0
      vertex 63.2893 2.34813 5
    endloop
  endfacet
  facet normal -0.191252 -0.796606 0.573447
    outer loop
      vertex 69.2874 -17.5073 5
      vertex 64.427 -16.3404 5
      vertex 63.6397 -19.7507 0
    endloop
  endfacet
  facet normal -0.191246 -0.79661 0.573443
    outer loop
      vertex 68.4407 -20.9033 0
      vertex 69.2874 -17.5073 5
      vertex 63.6397 -19.7507 0
    endloop
  endfacet
  facet normal 0.191246 0.796608 0.573446
    outer loop
      vertex 74.4888 3.35405 0
      vertex 69.2634 4.60854 0
      vertex 68.4761 1.19825 5
    endloop
  endfacet
  facet normal 0.191249 0.796605 0.573449
    outer loop
      vertex 73.642 -0.0419807 5
      vertex 74.4888 3.35405 0
      vertex 68.4761 1.19825 5
    endloop
  endfacet
  facet normal -0.205114 -0.793153 0.573443
    outer loop
      vertex 74.1268 -18.7588 5
      vertex 69.2874 -17.5073 5
      vertex 68.4407 -20.9033 0
    endloop
  endfacet
  facet normal -0.205129 -0.79314 0.573455
    outer loop
      vertex 73.2209 -22.1396 0
      vertex 74.1268 -18.7588 5
      vertex 68.4407 -20.9033 0
    endloop
  endfacet
  facet normal 0.205122 0.793146 0.573449
    outer loop
      vertex 79.6914 2.00856 0
      vertex 74.4888 3.35405 0
      vertex 73.642 -0.0419807 5
    endloop
  endfacet
  facet normal 0.205122 0.793147 0.573449
    outer loop
      vertex 78.7855 -1.37218 5
      vertex 79.6914 2.00856 0
      vertex 73.642 -0.0419807 5
    endloop
  endfacet
  facet normal 0 -1 0
    outer loop
      vertex 0.000999451 8.4 0
      vertex 7 8.4 2.5
      vertex 0.000999451 8.4 2.5
    endloop
  endfacet
  facet normal 0 -1 -0
    outer loop
      vertex 7 8.4 2.5
      vertex 0.000999451 8.4 0
      vertex 7 8.4 0
    endloop
  endfacet
  facet normal 0 1 -0
    outer loop
      vertex 7 1.2 0
      vertex 0.000999451 1.2 2.5
      vertex 7 1.2 2.5
    endloop
  endfacet
  facet normal 0 1 0
    outer loop
      vertex 0.000999451 1.2 2.5
      vertex 7 1.2 0
      vertex 0.000999451 1.2 0
    endloop
  endfacet
  facet normal 0 -0.447214 -0.894427
    outer loop
      vertex 0.000999451 6.4 3.5
      vertex 7 8.4 2.5
      vertex 7 6.4 3.5
    endloop
  endfacet
  facet normal -0 -0.447214 -0.894427
    outer loop
      vertex 7 8.4 2.5
      vertex 0.000999451 6.4 3.5
      vertex 0.000999451 8.4 2.5
    endloop
  endfacet
  facet normal 0 0.413803 -0.910366
    outer loop
      vertex 0.000999451 1.2 2.5
      vertex 7 3.4 3.5
      vertex 7 1.2 2.5
    endloop
  endfacet
  facet normal 0 0.413803 -0.910366
    outer loop
      vertex 7 3.4 3.5
      vertex 0.000999451 1.2 2.5
      vertex 0.000999451 3.4 3.5
    endloop
  endfacet
  facet normal -1 0 0
    outer loop
      vertex 7 8.4 0
      vertex 7 6.4 3.5
      vertex 7 8.4 2.5
    endloop
  endfacet
  facet normal -1 0 0
    outer loop
      vertex 7 8.4 0
      vertex 7 3.4 3.5
      vertex 7 6.4 3.5
    endloop
  endfacet
  facet normal -1 0 0
    outer loop
      vertex 7 1.2 0
      vertex 7 3.4 3.5
      vertex 7 8.4 0
    endloop
  endfacet
  facet normal -1 0 0
    outer loop
      vertex 7 3.4 3.5
      vertex 7 1.2 0
      vertex 7 1.2 2.5
    endloop
  endfacet
  facet normal 0 0 1
    outer loop
      vertex 77.9833 -4.36608 3.5
      vertex 77.2586 -7.07067 3.5
      vertex 77.308 -7.08391 3.5
    endloop
  endfacet
  facet normal 0 0 1
    outer loop
      vertex 73.4471 -1.02424 3.5
      vertex 77.1161 -7.6024 3.5
      vertex 77.2586 -7.07067 3.5
    endloop
  endfacet
  facet normal 0 0 1
    outer loop
      vertex 73.4471 -1.02424 3.5
      vertex 77.9833 -4.36608 3.5
      vertex 78.5265 -2.33879 3.5
    endloop
  endfacet
  facet normal 0 0 1
    outer loop
      vertex 73.4471 -1.02424 3.5
      vertex 77.2586 -7.07067 3.5
      vertex 77.9833 -4.36608 3.5
    endloop
  endfacet
  facet normal 0 0 1
    outer loop
      vertex 77.1161 -7.6024 3.5
      vertex 73.4471 -1.02424 3.5
      vertex 68.9103 -11.5638 3.5
    endloop
  endfacet
  facet normal 0 0 1
    outer loop
      vertex 77.1161 -7.6024 3.5
      vertex 68.9103 -11.5638 3.5
      vertex 75.5761 -13.3499 3.5
    endloop
  endfacet
  facet normal 0 0 1
    outer loop
      vertex 68.2949 0.213551 3.5
      vertex 68.9103 -11.5638 3.5
      vertex 73.4471 -1.02424 3.5
    endloop
  endfacet
  facet normal 0 0 1
    outer loop
      vertex 63.1218 1.36117 3.5
      vertex 68.9103 -11.5638 3.5
      vertex 68.2949 0.213551 3.5
    endloop
  endfacet
  facet normal 0 0 1
    outer loop
      vertex 68.9103 -11.5638 3.5
      vertex 64.6933 -15.3758 3.5
      vertex 68.1338 -14.4616 3.5
    endloop
  endfacet
  facet normal 0 0 1
    outer loop
      vertex 59.7931 -14.2887 3.5
      vertex 68.9103 -11.5638 3.5
      vertex 63.1218 1.36117 3.5
    endloop
  endfacet
  facet normal 0 0 1
    outer loop
      vertex 68.9103 -11.5638 3.5
      vertex 59.7931 -14.2887 3.5
      vertex 64.6933 -15.3758 3.5
    endloop
  endfacet
  facet normal 0 0 1
    outer loop
      vertex 57.9296 2.41827 3.5
      vertex 59.7931 -14.2887 3.5
      vertex 63.1218 1.36117 3.5
    endloop
  endfacet
  facet normal 0 0 1
    outer loop
      vertex 57.9296 2.41827 3.5
      vertex 54.8746 -13.2874 3.5
      vertex 59.7931 -14.2887 3.5
    endloop
  endfacet
  facet normal 0 0 1
    outer loop
      vertex 52.7196 3.38454 3.5
      vertex 54.8746 -13.2874 3.5
      vertex 57.9296 2.41827 3.5
    endloop
  endfacet
  facet normal 0 0 1
    outer loop
      vertex 52.7196 3.38454 3.5
      vertex 49.9394 -12.3721 3.5
      vertex 54.8746 -13.2874 3.5
    endloop
  endfacet
  facet normal 0 0 1
    outer loop
      vertex 47.4936 4.25967 3.5
      vertex 49.9394 -12.3721 3.5
      vertex 52.7196 3.38454 3.5
    endloop
  endfacet
  facet normal 0 0 1
    outer loop
      vertex 47.4936 4.25967 3.5
      vertex 44.989 -11.5431 3.5
      vertex 49.9394 -12.3721 3.5
    endloop
  endfacet
  facet normal 0 0 1
    outer loop
      vertex 42.2531 5.0434 3.5
      vertex 44.989 -11.5431 3.5
      vertex 47.4936 4.25967 3.5
    endloop
  endfacet
  facet normal 0 0 1
    outer loop
      vertex 42.2531 5.0434 3.5
      vertex 40.0248 -10.8007 3.5
      vertex 44.989 -11.5431 3.5
    endloop
  endfacet
  facet normal 0 0 1
    outer loop
      vertex 36.9997 5.73549 3.5
      vertex 40.0248 -10.8007 3.5
      vertex 42.2531 5.0434 3.5
    endloop
  endfacet
  facet normal 0 0 1
    outer loop
      vertex 36.9997 5.73549 3.5
      vertex 35.0485 -10.1451 3.5
      vertex 40.0248 -10.8007 3.5
    endloop
  endfacet
  facet normal 0 0 1
    outer loop
      vertex 31.735 6.33573 3.5
      vertex 35.0485 -10.1451 3.5
      vertex 36.9997 5.73549 3.5
    endloop
  endfacet
  facet normal 0 0 1
    outer loop
      vertex 31.735 6.33573 3.5
      vertex 30.0614 -9.5765 3.5
      vertex 35.0485 -10.1451 3.5
    endloop
  endfacet
  facet normal 0 0 1
    outer loop
      vertex 26.4606 6.84393 3.5
      vertex 30.0614 -9.5765 3.5
      vertex 31.735 6.33573 3.5
    endloop
  endfacet
  facet normal 0 0 1
    outer loop
      vertex 26.4606 6.84393 3.5
      vertex 25.0652 -9.0951 3.5
      vertex 30.0614 -9.5765 3.5
    endloop
  endfacet
  facet normal 0 0 1
    outer loop
      vertex 21.1782 7.25995 3.5
      vertex 25.0652 -9.0951 3.5
      vertex 26.4606 6.84393 3.5
    endloop
  endfacet
  facet normal 0 0 1
    outer loop
      vertex 21.1782 7.25995 3.5
      vertex 20.0614 -8.70103 3.5
      vertex 25.0652 -9.0951 3.5
    endloop
  endfacet
  facet normal 0 0 1
    outer loop
      vertex 15.8893 7.58365 3.5
      vertex 20.0614 -8.70103 3.5
      vertex 21.1782 7.25995 3.5
    endloop
  endfacet
  facet normal 0 0 1
    outer loop
      vertex 15.8893 7.58365 3.5
      vertex 15.0514 -8.3944 3.5
      vertex 20.0614 -8.70103 3.5
    endloop
  endfacet
  facet normal 0 0 1
    outer loop
      vertex 7 3.4 3.5
      vertex 15.8893 7.58365 3.5
      vertex 10.5956 7.81493 3.5
    endloop
  endfacet
  facet normal 0 0 1
    outer loop
      vertex 15.8893 7.58365 3.5
      vertex 7 3.4 3.5
      vertex 15.0514 -8.3944 3.5
    endloop
  endfacet
  facet normal 0 0 1
    outer loop
      vertex 7 3.4 3.5
      vertex 10.5956 7.81493 3.5
      vertex 7 6.4 3.5
    endloop
  endfacet
  facet normal 0 0 1
    outer loop
      vertex 5.29859 7.95373 3.5
      vertex 7 6.4 3.5
      vertex 10.5956 7.81493 3.5
    endloop
  endfacet
  facet normal 0 0 1
    outer loop
      vertex 0.000999451 6.4 3.5
      vertex 5.29859 7.95373 3.5
      vertex 0.000999451 7.99999 3.5
    endloop
  endfacet
  facet normal 0 0 1
    outer loop
      vertex 5.29859 7.95373 3.5
      vertex 0.000999451 6.4 3.5
      vertex 7 6.4 3.5
    endloop
  endfacet
  facet normal 0 0 1
    outer loop
      vertex 78.0332 -4.37944 3.5
      vertex 77.9833 -4.36608 3.5
      vertex 77.308 -7.08391 3.5
    endloop
  endfacet
  facet normal 0 0 1
    outer loop
      vertex 74.7996 -16.2477 3.5
      vertex 69.5738 -16.5483 3.5
      vertex 74.3854 -17.7936 3.5
    endloop
  endfacet
  facet normal 0 0 1
    outer loop
      vertex 68.1338 -14.4616 3.5
      vertex 69.5738 -16.5483 3.5
      vertex 74.7996 -16.2477 3.5
    endloop
  endfacet
  facet normal 0 0 1
    outer loop
      vertex 69.5738 -16.5483 3.5
      vertex 68.1338 -14.4616 3.5
      vertex 64.6933 -15.3758 3.5
    endloop
  endfacet
  facet normal 0 0 1
    outer loop
      vertex 15.0514 -8.3944 3.5
      vertex 7 3.4 3.5
      vertex 10.0368 -8.17531 3.5
    endloop
  endfacet
  facet normal 0 0 1
    outer loop
      vertex 7 3.4 3.5
      vertex 5.01917 -8.04383 3.5
      vertex 10.0368 -8.17531 3.5
    endloop
  endfacet
  facet normal -0 0 1
    outer loop
      vertex 0.000999451 3.4 3.5
      vertex 5.01917 -8.04383 3.5
      vertex 7 3.4 3.5
    endloop
  endfacet
  facet normal 0 0 1
    outer loop
      vertex 5.01917 -8.04383 3.5
      vertex 0.000999451 3.4 3.5
      vertex 0.000999451 -8.00001 3.5
    endloop
  endfacet
  facet normal -0 0 1
    outer loop
      vertex 0 -3.101 3.5
      vertex 5.49316e-07 -5.901 3.5
      vertex 5.49316e-07 -3.101 3.5
    endloop
  endfacet
  facet normal 0 0 1
    outer loop
      vertex 5.49316e-07 -5.901 3.5
      vertex 0 -3.101 3.5
      vertex 0 -5.901 3.5
    endloop
  endfacet
  facet normal 1 -0 0
    outer loop
      vertex 0 -5.901 4.6
      vertex 0 -3.101 3.5
      vertex 0 -3.101 4.6
    endloop
  endfacet
  facet normal 1 0 0
    outer loop
      vertex 0 -3.101 3.5
      vertex 0 -5.901 4.6
      vertex 0 -5.901 3.5
    endloop
  endfacet
  facet normal -0.965878 0.258999 0
    outer loop
      vertex 78.0332 -4.37944 3.5
      vertex 77.308 -7.08391 3.5
      vertex 78.0332 -4.37944 4.6
    endloop
  endfacet
  facet normal -0.965927 0.258816 0
    outer loop
      vertex 78.0332 -4.37944 4.6
      vertex 78.1111 -4.08871 5.2
      vertex 78.1111 -4.08871 4.6
    endloop
  endfacet
  facet normal -0.965878 0.258999 0
    outer loop
      vertex 77.308 -7.08391 4.6
      vertex 78.0332 -4.37944 4.6
      vertex 77.308 -7.08391 3.5
    endloop
  endfacet
  facet normal -0.965878 0.258999 -9.47513e-05
    outer loop
      vertex 78.0332 -4.37944 4.6
      vertex 77.308 -7.08391 4.6
      vertex 78.1111 -4.08871 5.2
    endloop
  endfacet
  facet normal -0.965912 0.25887 0
    outer loop
      vertex 77.2306 -7.37271 5.2
      vertex 77.308 -7.08391 4.6
      vertex 77.2306 -7.37271 4.6
    endloop
  endfacet
  facet normal -0.965885 0.258971 5.23531e-05
    outer loop
      vertex 77.308 -7.08391 4.6
      vertex 77.2306 -7.37271 5.2
      vertex 78.1111 -4.08871 5.2
    endloop
  endfacet
  facet normal 0.00873193 0.999962 -0
    outer loop
      vertex 5.01917 -8.04383 3.5
      vertex 0.000999451 -8.00001 5
      vertex 5.01917 -8.04383 5
    endloop
  endfacet
  facet normal 0.00873193 0.999962 0
    outer loop
      vertex 0.000999451 -8.00001 5
      vertex 5.01917 -8.04383 3.5
      vertex 0.000999451 -8.00001 3.5
    endloop
  endfacet
  facet normal -0.00873194 -0.999962 0
    outer loop
      vertex 0.000999451 7.99999 3.5
      vertex 5.29859 7.95373 5
      vertex 0.000999451 7.99999 5
    endloop
  endfacet
  facet normal -0.00873194 -0.999962 -0
    outer loop
      vertex 5.29859 7.95373 5
      vertex 0.000999451 7.99999 3.5
      vertex 5.29859 7.95373 3.5
    endloop
  endfacet
  facet normal 0.0261946 0.999657 -0
    outer loop
      vertex 10.0368 -8.17531 3.5
      vertex 5.01917 -8.04383 5
      vertex 10.0368 -8.17531 5
    endloop
  endfacet
  facet normal 0.0261946 0.999657 0
    outer loop
      vertex 5.01917 -8.04383 5
      vertex 10.0368 -8.17531 3.5
      vertex 5.01917 -8.04383 3.5
    endloop
  endfacet
  facet normal -0.0261945 -0.999657 0
    outer loop
      vertex 5.29859 7.95373 3.5
      vertex 10.5956 7.81493 5
      vertex 5.29859 7.95373 5
    endloop
  endfacet
  facet normal -0.0261945 -0.999657 -0
    outer loop
      vertex 10.5956 7.81493 5
      vertex 5.29859 7.95373 3.5
      vertex 10.5956 7.81493 3.5
    endloop
  endfacet
  facet normal 0.0436488 0.999047 -0
    outer loop
      vertex 15.0514 -8.3944 3.5
      vertex 10.0368 -8.17531 5
      vertex 15.0514 -8.3944 5
    endloop
  endfacet
  facet normal 0.0436488 0.999047 0
    outer loop
      vertex 10.0368 -8.17531 5
      vertex 15.0514 -8.3944 3.5
      vertex 10.0368 -8.17531 3.5
    endloop
  endfacet
  facet normal -0.043648 -0.999047 0
    outer loop
      vertex 10.5956 7.81493 3.5
      vertex 15.8893 7.58365 5
      vertex 10.5956 7.81493 5
    endloop
  endfacet
  facet normal -0.043648 -0.999047 -0
    outer loop
      vertex 15.8893 7.58365 5
      vertex 10.5956 7.81493 3.5
      vertex 15.8893 7.58365 3.5
    endloop
  endfacet
  facet normal 0.0610893 0.998132 -0
    outer loop
      vertex 20.0614 -8.70103 3.5
      vertex 15.0514 -8.3944 5
      vertex 20.0614 -8.70103 5
    endloop
  endfacet
  facet normal 0.0610893 0.998132 0
    outer loop
      vertex 15.0514 -8.3944 5
      vertex 20.0614 -8.70103 3.5
      vertex 15.0514 -8.3944 3.5
    endloop
  endfacet
  facet normal -0.0610893 -0.998132 0
    outer loop
      vertex 15.8893 7.58365 3.5
      vertex 21.1782 7.25995 5
      vertex 15.8893 7.58365 5
    endloop
  endfacet
  facet normal -0.0610893 -0.998132 -0
    outer loop
      vertex 21.1782 7.25995 5
      vertex 15.8893 7.58365 3.5
      vertex 21.1782 7.25995 3.5
    endloop
  endfacet
  facet normal 0.0785111 0.996913 -0
    outer loop
      vertex 25.0652 -9.0951 3.5
      vertex 20.0614 -8.70103 5
      vertex 25.0652 -9.0951 5
    endloop
  endfacet
  facet normal 0.0785111 0.996913 0
    outer loop
      vertex 20.0614 -8.70103 5
      vertex 25.0652 -9.0951 3.5
      vertex 20.0614 -8.70103 3.5
    endloop
  endfacet
  facet normal -0.0785128 -0.996913 0
    outer loop
      vertex 21.1782 7.25995 3.5
      vertex 26.4606 6.84393 5
      vertex 21.1782 7.25995 5
    endloop
  endfacet
  facet normal -0.0785128 -0.996913 -0
    outer loop
      vertex 26.4606 6.84393 5
      vertex 21.1782 7.25995 3.5
      vertex 26.4606 6.84393 3.5
    endloop
  endfacet
  facet normal 0.095909 0.99539 -0
    outer loop
      vertex 30.0614 -9.5765 3.5
      vertex 25.0652 -9.0951 5
      vertex 30.0614 -9.5765 5
    endloop
  endfacet
  facet normal 0.095909 0.99539 0
    outer loop
      vertex 25.0652 -9.0951 5
      vertex 30.0614 -9.5765 3.5
      vertex 25.0652 -9.0951 3.5
    endloop
  endfacet
  facet normal -0.095908 -0.99539 0
    outer loop
      vertex 26.4606 6.84393 3.5
      vertex 31.735 6.33573 5
      vertex 26.4606 6.84393 5
    endloop
  endfacet
  facet normal -0.095908 -0.99539 -0
    outer loop
      vertex 31.735 6.33573 5
      vertex 26.4606 6.84393 3.5
      vertex 31.735 6.33573 3.5
    endloop
  endfacet
  facet normal 0.11328 0.993563 -0
    outer loop
      vertex 35.0485 -10.1451 3.5
      vertex 30.0614 -9.5765 5
      vertex 35.0485 -10.1451 5
    endloop
  endfacet
  facet normal 0.11328 0.993563 0
    outer loop
      vertex 30.0614 -9.5765 5
      vertex 35.0485 -10.1451 3.5
      vertex 30.0614 -9.5765 3.5
    endloop
  endfacet
  facet normal -0.113278 -0.993563 0
    outer loop
      vertex 31.735 6.33573 3.5
      vertex 36.9997 5.73549 5
      vertex 31.735 6.33573 5
    endloop
  endfacet
  facet normal -0.113278 -0.993563 -0
    outer loop
      vertex 36.9997 5.73549 5
      vertex 31.735 6.33573 3.5
      vertex 36.9997 5.73549 3.5
    endloop
  endfacet
  facet normal 0.130616 0.991433 -0
    outer loop
      vertex 40.0248 -10.8007 3.5
      vertex 35.0485 -10.1451 5
      vertex 40.0248 -10.8007 5
    endloop
  endfacet
  facet normal 0.130616 0.991433 0
    outer loop
      vertex 35.0485 -10.1451 5
      vertex 40.0248 -10.8007 3.5
      vertex 35.0485 -10.1451 3.5
    endloop
  endfacet
  facet normal -0.130613 -0.991433 0
    outer loop
      vertex 36.9997 5.73549 3.5
      vertex 42.2531 5.0434 5
      vertex 36.9997 5.73549 5
    endloop
  endfacet
  facet normal -0.130613 -0.991433 -0
    outer loop
      vertex 42.2531 5.0434 5
      vertex 36.9997 5.73549 3.5
      vertex 42.2531 5.0434 3.5
    endloop
  endfacet
  facet normal 0.147906 0.989001 -0
    outer loop
      vertex 44.989 -11.5431 3.5
      vertex 40.0248 -10.8007 5
      vertex 44.989 -11.5431 5
    endloop
  endfacet
  facet normal 0.147906 0.989001 0
    outer loop
      vertex 40.0248 -10.8007 5
      vertex 44.989 -11.5431 3.5
      vertex 40.0248 -10.8007 3.5
    endloop
  endfacet
  facet normal -0.147908 -0.989001 0
    outer loop
      vertex 42.2531 5.0434 3.5
      vertex 47.4936 4.25967 5
      vertex 42.2531 5.0434 5
    endloop
  endfacet
  facet normal -0.147908 -0.989001 -0
    outer loop
      vertex 47.4936 4.25967 5
      vertex 42.2531 5.0434 3.5
      vertex 47.4936 4.25967 3.5
    endloop
  endfacet
  facet normal 0.165161 0.986267 -0
    outer loop
      vertex 49.9394 -12.3721 3.5
      vertex 44.989 -11.5431 5
      vertex 49.9394 -12.3721 5
    endloop
  endfacet
  facet normal 0.165161 0.986267 0
    outer loop
      vertex 44.989 -11.5431 5
      vertex 49.9394 -12.3721 3.5
      vertex 44.989 -11.5431 3.5
    endloop
  endfacet
  facet normal -0.165157 -0.986267 0
    outer loop
      vertex 47.4936 4.25967 3.5
      vertex 52.7196 3.38454 5
      vertex 47.4936 4.25967 5
    endloop
  endfacet
  facet normal -0.165157 -0.986267 -0
    outer loop
      vertex 52.7196 3.38454 5
      vertex 47.4936 4.25967 3.5
      vertex 52.7196 3.38454 3.5
    endloop
  endfacet
  facet normal 0.182354 0.983233 -0
    outer loop
      vertex 54.8746 -13.2874 3.5
      vertex 49.9394 -12.3721 5
      vertex 54.8746 -13.2874 5
    endloop
  endfacet
  facet normal 0.182354 0.983233 0
    outer loop
      vertex 49.9394 -12.3721 5
      vertex 54.8746 -13.2874 3.5
      vertex 49.9394 -12.3721 3.5
    endloop
  endfacet
  facet normal -0.182355 -0.983233 0
    outer loop
      vertex 52.7196 3.38454 3.5
      vertex 57.9296 2.41827 5
      vertex 52.7196 3.38454 5
    endloop
  endfacet
  facet normal -0.182355 -0.983233 -0
    outer loop
      vertex 57.9296 2.41827 5
      vertex 52.7196 3.38454 3.5
      vertex 57.9296 2.41827 3.5
    endloop
  endfacet
  facet normal 0.199487 0.979901 -0
    outer loop
      vertex 59.7931 -14.2887 3.5
      vertex 54.8746 -13.2874 5
      vertex 59.7931 -14.2887 5
    endloop
  endfacet
  facet normal 0.199487 0.979901 0
    outer loop
      vertex 54.8746 -13.2874 5
      vertex 59.7931 -14.2887 3.5
      vertex 54.8746 -13.2874 3.5
    endloop
  endfacet
  facet normal -0.199501 -0.979898 0
    outer loop
      vertex 57.9296 2.41827 3.5
      vertex 63.1218 1.36117 5
      vertex 57.9296 2.41827 5
    endloop
  endfacet
  facet normal -0.199501 -0.979898 -0
    outer loop
      vertex 63.1218 1.36117 5
      vertex 57.9296 2.41827 3.5
      vertex 63.1218 1.36117 3.5
    endloop
  endfacet
  facet normal 0.216582 0.976264 -0
    outer loop
      vertex 64.6933 -15.3758 3.5
      vertex 59.7931 -14.2887 5
      vertex 64.6933 -15.3758 5
    endloop
  endfacet
  facet normal 0.216582 0.976264 0
    outer loop
      vertex 59.7931 -14.2887 5
      vertex 64.6933 -15.3758 3.5
      vertex 59.7931 -14.2887 3.5
    endloop
  endfacet
  facet normal -0.216578 -0.976265 0
    outer loop
      vertex 63.1218 1.36117 3.5
      vertex 68.2949 0.213551 5
      vertex 63.1218 1.36117 5
    endloop
  endfacet
  facet normal -0.216578 -0.976265 -0
    outer loop
      vertex 68.2949 0.213551 5
      vertex 63.1218 1.36117 3.5
      vertex 68.2949 0.213551 3.5
    endloop
  endfacet
  facet normal 0.233595 0.972334 -0
    outer loop
      vertex 69.5738 -16.5483 3.5
      vertex 64.6933 -15.3758 5
      vertex 69.5738 -16.5483 5
    endloop
  endfacet
  facet normal 0.233595 0.972334 0
    outer loop
      vertex 64.6933 -15.3758 5
      vertex 69.5738 -16.5483 3.5
      vertex 64.6933 -15.3758 3.5
    endloop
  endfacet
  facet normal -0.233598 -0.972333 0
    outer loop
      vertex 68.2949 0.213551 3.5
      vertex 73.4471 -1.02424 5
      vertex 68.2949 0.213551 5
    endloop
  endfacet
  facet normal -0.233598 -0.972333 -0
    outer loop
      vertex 73.4471 -1.02424 5
      vertex 68.2949 0.213551 3.5
      vertex 73.4471 -1.02424 3.5
    endloop
  endfacet
  facet normal 0.250556 0.968102 -0
    outer loop
      vertex 74.3854 -17.7936 3.5
      vertex 69.5738 -16.5483 5
      vertex 74.3854 -17.7936 5
    endloop
  endfacet
  facet normal 0.250556 0.968102 0
    outer loop
      vertex 69.5738 -16.5483 5
      vertex 74.3854 -17.7936 3.5
      vertex 69.5738 -16.5483 3.5
    endloop
  endfacet
  facet normal -0.250546 -0.968105 0
    outer loop
      vertex 73.4471 -1.02424 5
      vertex 78.5265 -2.33879 4.76728
      vertex 78.5265 -2.33879 5
    endloop
  endfacet
  facet normal -0.250546 -0.968105 0
    outer loop
      vertex 73.4471 -1.02424 3.5
      vertex 78.5265 -2.33879 4.76728
      vertex 73.4471 -1.02424 5
    endloop
  endfacet
  facet normal -0.250546 -0.968105 -0
    outer loop
      vertex 78.5265 -2.33879 4.76728
      vertex 73.4471 -1.02424 3.5
      vertex 78.5265 -2.33879 3.5
    endloop
  endfacet
  facet normal 0.965925 -0.258821 -1.07473e-06
    outer loop
      vertex 69.4797 -9.43877 0
      vertex 68.9103 -11.5638 3.5
      vertex 67.6162 -16.3934 0
    endloop
  endfacet
  facet normal 0.965925 -0.258821 0
    outer loop
      vertex 68.9103 -11.5638 3.5
      vertex 67.6162 -16.3934 2.5
      vertex 67.6162 -16.3934 0
    endloop
  endfacet
  facet normal -0.107261 -0.400297 -0.910086
    outer loop
      vertex 76.1374 -11.2549 2.51415
      vertex 69.4797 -9.43877 2.5
      vertex 76.1455 -11.2249 2.5
    endloop
  endfacet
  facet normal -0.107099 -0.399704 -0.910366
    outer loop
      vertex 69.4797 -9.43877 2.5
      vertex 76.1374 -11.2549 2.51415
      vertex 68.9103 -11.5638 3.5
    endloop
  endfacet
  facet normal -0.107101 -0.399705 -0.910366
    outer loop
      vertex 68.9103 -11.5638 3.5
      vertex 76.0973 -11.4046 2.58458
      vertex 75.5761 -13.3499 3.5
    endloop
  endfacet
  facet normal -0.107107 -0.399628 -0.910398
    outer loop
      vertex 76.0973 -11.4046 2.58458
      vertex 68.9103 -11.5638 3.5
      vertex 76.1374 -11.2549 2.51415
    endloop
  endfacet
  facet normal 0.965926 -0.258819 0
    outer loop
      vertex 69.4797 -9.43877 0
      vertex 69.4797 -9.43877 2.5
      vertex 68.9103 -11.5638 3.5
    endloop
  endfacet
  facet normal -0.258824 -0.965925 0
    outer loop
      vertex 69.4797 -9.43877 0
      vertex 76.1455 -11.2249 2.5
      vertex 69.4797 -9.43877 2.5
    endloop
  endfacet
  facet normal -0.258824 -0.965925 -0
    outer loop
      vertex 76.1455 -11.2249 2.5
      vertex 69.4797 -9.43877 0
      vertex 76.1455 -11.2249 0
    endloop
  endfacet
  facet normal 0.25882 0.965926 -0
    outer loop
      vertex 74.282 -18.1795 0.953428
      vertex 67.6162 -16.3934 2.5
      vertex 74.282 -18.1795 2.5
    endloop
  endfacet
  facet normal 0.25882 0.965926 0
    outer loop
      vertex 67.6162 -16.3934 0
      vertex 74.282 -18.1795 0.953428
      vertex 74.282 -18.1795 0
    endloop
  endfacet
  facet normal 0.25882 0.965926 0
    outer loop
      vertex 74.282 -18.1795 0.953428
      vertex 67.6162 -16.3934 0
      vertex 67.6162 -16.3934 2.5
    endloop
  endfacet
  facet normal 0.965923 -0.25883 4.71395e-05
    outer loop
      vertex 68.9103 -11.5638 3.5
      vertex 68.1338 -14.4616 3.5
      vertex 67.6162 -16.3934 2.5
    endloop
  endfacet
  facet normal 0.11575 0.431985 -0.894422
    outer loop
      vertex 74.282 -18.1795 2.5
      vertex 68.1338 -14.4616 3.5
      vertex 74.7996 -16.2477 3.5
    endloop
  endfacet
  facet normal 0.11575 0.431985 -0.894422
    outer loop
      vertex 68.1338 -14.4616 3.5
      vertex 74.282 -18.1795 2.5
      vertex 67.6162 -16.3934 2.5
    endloop
  endfacet
endsolid OpenSCAD_Model
