solid OpenSCAD_Model
  facet normal -1 0 0
    outer loop
      vertex -5.999 -8 0
      vertex -5.999 -5.901 2.6
      vertex -5.999 -5.901 0
    endloop
  endfacet
  facet normal -1 -0 0
    outer loop
      vertex -5.999 -5.901 2.6
      vertex -5.999 -8 0
      vertex -5.999 -8 2.6
    endloop
  endfacet
  facet normal -1 0 0
    outer loop
      vertex -5.999 -3.101 0
      vertex -5.999 -1 2.6
      vertex -5.999 -1 0
    endloop
  endfacet
  facet normal -1 -0 0
    outer loop
      vertex -5.999 -1 2.6
      vertex -5.999 -3.101 0
      vertex -5.999 -3.101 2.6
    endloop
  endfacet
  facet normal 0 0 1
    outer loop
      vertex 0.000999451 -1 2.6
      vertex 5.49316e-07 -3.101 2.6
      vertex 0.000999451 -8 2.6
    endloop
  endfacet
  facet normal -0 0 1
    outer loop
      vertex -5.999 -1 2.6
      vertex 5.49316e-07 -3.101 2.6
      vertex 0.000999451 -1 2.6
    endloop
  endfacet
  facet normal 0 0 1
    outer loop
      vertex 5.49316e-07 -3.101 2.6
      vertex -5.999 -1 2.6
      vertex -5.999 -3.101 2.6
    endloop
  endfacet
  facet normal -0 0 1
    outer loop
      vertex 5.49316e-07 -5.901 2.6
      vertex 0.000999451 -8 2.6
      vertex 5.49316e-07 -3.101 2.6
    endloop
  endfacet
  facet normal -0 0 1
    outer loop
      vertex -5.999 -5.901 2.6
      vertex 0.000999451 -8 2.6
      vertex 5.49316e-07 -5.901 2.6
    endloop
  endfacet
  facet normal 0 0 1
    outer loop
      vertex 0.000999451 -8 2.6
      vertex -5.999 -5.901 2.6
      vertex -5.999 -8 2.6
    endloop
  endfacet
  facet normal 0 0 -1
    outer loop
      vertex 76.5693 -21.9014 0
      vertex 82.9783 -19.3244 0
      vertex 81.9172 -23.2845 0
    endloop
  endfacet
  facet normal 0 0 -1
    outer loop
      vertex 76.5693 -21.9014 0
      vertex 76.3125 -17.5383 0
      vertex 82.9783 -19.3244 0
    endloop
  endfacet
  facet normal 0 -0 -1
    outer loop
      vertex 76.3125 -17.5383 0
      vertex 76.5693 -21.9014 0
      vertex 71.198 -20.6119 0
    endloop
  endfacet
  facet normal -0 0 -1
    outer loop
      vertex 92.4743 -7.06365 0
      vertex 91.7496 -9.76824 0
      vertex 92.4733 -7.06339 0
    endloop
  endfacet
  facet normal 0 0 -1
    outer loop
      vertex 91.7486 -9.76798 0
      vertex 92.4733 -7.06339 0
      vertex 91.7496 -9.76824 0
    endloop
  endfacet
  facet normal 0 0 -1
    outer loop
      vertex 87.2229 -3.4835 0
      vertex 92.4733 -7.06339 0
      vertex 91.7486 -9.76798 0
    endloop
  endfacet
  facet normal 0 0 -1
    outer loop
      vertex 92.4733 -7.06339 0
      vertex 87.2229 -3.4835 0
      vertex 93.0166 -5.03591 0
    endloop
  endfacet
  facet normal 0 0 -1
    outer loop
      vertex 85.4111 -10.245 0
      vertex 91.7486 -9.76798 0
      vertex 91.2048 -11.7974 0
    endloop
  endfacet
  facet normal -0 0 -1
    outer loop
      vertex 91.7486 -9.76798 0
      vertex 85.4111 -10.245 0
      vertex 87.2229 -3.4835 0
    endloop
  endfacet
  facet normal 0 0 -1
    outer loop
      vertex 78.176 -10.5837 0
      vertex 87.2229 -3.4835 0
      vertex 85.4111 -10.245 0
    endloop
  endfacet
  facet normal 0 0 -1
    outer loop
      vertex 87.2229 -3.4835 0
      vertex 82.6173 2.35599 0
      vertex 88.3877 0.863669 0
    endloop
  endfacet
  facet normal 0 0 -1
    outer loop
      vertex 78.176 -10.5837 0
      vertex 85.4111 -10.245 0
      vertex 84.8418 -12.3698 0
    endloop
  endfacet
  facet normal -0 0 -1
    outer loop
      vertex 87.2229 -3.4835 0
      vertex 78.176 -10.5837 0
      vertex 82.6173 2.35599 0
    endloop
  endfacet
  facet normal 0 0 -1
    outer loop
      vertex 78.176 -10.5837 0
      vertex 76.8218 3.74738 0
      vertex 82.6173 2.35599 0
    endloop
  endfacet
  facet normal 0 0 -1
    outer loop
      vertex 65.8051 -19.4163 0
      vertex 78.176 -10.5837 0
      vertex 76.3125 -17.5383 0
    endloop
  endfacet
  facet normal 0 0 -1
    outer loop
      vertex 65.8051 -19.4163 0
      vertex 76.3125 -17.5383 0
      vertex 71.198 -20.6119 0
    endloop
  endfacet
  facet normal 0 0 -1
    outer loop
      vertex 78.176 -10.5837 0
      vertex 71.0028 5.03741 0
      vertex 76.8218 3.74738 0
    endloop
  endfacet
  facet normal -0 0 -1
    outer loop
      vertex 78.176 -10.5837 0
      vertex 65.8051 -19.4163 0
      vertex 71.0028 5.03741 0
    endloop
  endfacet
  facet normal 0 0 -1
    outer loop
      vertex 65.8051 -19.4163 0
      vertex 65.1623 6.22568 0
      vertex 71.0028 5.03741 0
    endloop
  endfacet
  facet normal 0 0 -1
    outer loop
      vertex 60.392 -18.315 0
      vertex 65.1623 6.22568 0
      vertex 65.8051 -19.4163 0
    endloop
  endfacet
  facet normal 0 0 -1
    outer loop
      vertex 60.392 -18.315 0
      vertex 59.3019 7.31185 0
      vertex 65.1623 6.22568 0
    endloop
  endfacet
  facet normal 0 0 -1
    outer loop
      vertex 54.9606 -17.3083 0
      vertex 59.3019 7.31185 0
      vertex 60.392 -18.315 0
    endloop
  endfacet
  facet normal 0 0 -1
    outer loop
      vertex 54.9606 -17.3083 0
      vertex 53.4234 8.29557 0
      vertex 59.3019 7.31185 0
    endloop
  endfacet
  facet normal 0 0 -1
    outer loop
      vertex 49.5125 -16.3966 0
      vertex 53.4234 8.29557 0
      vertex 54.9606 -17.3083 0
    endloop
  endfacet
  facet normal 0 0 -1
    outer loop
      vertex 49.5125 -16.3966 0
      vertex 47.5286 9.17655 0
      vertex 53.4234 8.29557 0
    endloop
  endfacet
  facet normal 0 0 -1
    outer loop
      vertex 44.0493 -15.5802 0
      vertex 47.5286 9.17655 0
      vertex 49.5125 -16.3966 0
    endloop
  endfacet
  facet normal 0 0 -1
    outer loop
      vertex 44.0493 -15.5802 0
      vertex 41.6194 9.95451 0
      vertex 47.5286 9.17655 0
    endloop
  endfacet
  facet normal 0 0 -1
    outer loop
      vertex 38.5726 -14.8591 0
      vertex 41.6194 9.95451 0
      vertex 44.0493 -15.5802 0
    endloop
  endfacet
  facet normal 0 0 -1
    outer loop
      vertex 38.5726 -14.8591 0
      vertex 35.6975 10.6292 0
      vertex 41.6194 9.95451 0
    endloop
  endfacet
  facet normal 0 0 -1
    outer loop
      vertex 33.0843 -14.2338 0
      vertex 35.6975 10.6292 0
      vertex 38.5726 -14.8591 0
    endloop
  endfacet
  facet normal 0 0 -1
    outer loop
      vertex 33.0843 -14.2338 0
      vertex 29.7647 11.2005 0
      vertex 35.6975 10.6292 0
    endloop
  endfacet
  facet normal 0 0 -1
    outer loop
      vertex 27.5858 -13.7044 0
      vertex 29.7647 11.2005 0
      vertex 33.0843 -14.2338 0
    endloop
  endfacet
  facet normal 0 0 -1
    outer loop
      vertex 27.5858 -13.7044 0
      vertex 23.8228 11.6681 0
      vertex 29.7647 11.2005 0
    endloop
  endfacet
  facet normal 0 0 -1
    outer loop
      vertex 22.0789 -13.271 0
      vertex 23.8228 11.6681 0
      vertex 27.5858 -13.7044 0
    endloop
  endfacet
  facet normal 0 0 -1
    outer loop
      vertex 22.0789 -13.271 0
      vertex 17.8737 12.032 0
      vertex 23.8228 11.6681 0
    endloop
  endfacet
  facet normal 0 0 -1
    outer loop
      vertex 16.5653 -12.9338 0
      vertex 17.8737 12.032 0
      vertex 22.0789 -13.271 0
    endloop
  endfacet
  facet normal 0 0 -1
    outer loop
      vertex 7 1.2 0
      vertex 17.8737 12.032 0
      vertex 16.5653 -12.9338 0
    endloop
  endfacet
  facet normal 0 0 -1
    outer loop
      vertex 7 1.2 0
      vertex 16.5653 -12.9338 0
      vertex 11.0467 -12.6928 0
    endloop
  endfacet
  facet normal -0 0 -1
    outer loop
      vertex 17.8737 12.032 0
      vertex 7 1.2 0
      vertex 11.9192 12.292 0
    endloop
  endfacet
  facet normal 0 0 -1
    outer loop
      vertex 7 8.4 0
      vertex 11.9192 12.292 0
      vertex 7 1.2 0
    endloop
  endfacet
  facet normal 0 0 -1
    outer loop
      vertex 7 8.4 0
      vertex 5.961 12.448 0
      vertex 11.9192 12.292 0
    endloop
  endfacet
  facet normal 0 0 -1
    outer loop
      vertex 0.000999451 8.4 0
      vertex 5.961 12.448 0
      vertex 7 8.4 0
    endloop
  endfacet
  facet normal -0 0 -1
    outer loop
      vertex 5.961 12.448 0
      vertex 0.000999451 8.4 0
      vertex 0.000999451 12.5 0
    endloop
  endfacet
  facet normal 0 0 -1
    outer loop
      vertex -6 -5.901 0
      vertex -5.999 -3.101 0
      vertex -5.999 -5.901 0
    endloop
  endfacet
  facet normal -0 0 -1
    outer loop
      vertex -5.999 -3.101 0
      vertex -6 -5.901 0
      vertex -6 -3.101 0
    endloop
  endfacet
  facet normal 0 0 -1
    outer loop
      vertex -5.999 -5.901 0
      vertex 0.000999451 -8 0
      vertex -5.999 -8 0
    endloop
  endfacet
  facet normal 0 0 -1
    outer loop
      vertex 0.000999451 -8 0
      vertex -5.999 -5.901 0
      vertex 0.000999451 -1 0
    endloop
  endfacet
  facet normal 0 0 -1
    outer loop
      vertex -5.999 -3.101 0
      vertex 0.000999451 -1 0
      vertex -5.999 -5.901 0
    endloop
  endfacet
  facet normal -0 0 -1
    outer loop
      vertex 0.000999451 -1 0
      vertex -5.999 -3.101 0
      vertex -5.999 -1 0
    endloop
  endfacet
  facet normal 0 0 -1
    outer loop
      vertex 5.52469 -12.5482 0
      vertex 7 1.2 0
      vertex 11.0467 -12.6928 0
    endloop
  endfacet
  facet normal 0 0 -1
    outer loop
      vertex 0.000999451 -8 0
      vertex 5.52469 -12.5482 0
      vertex 0.000999451 -12.5 0
    endloop
  endfacet
  facet normal 0 0 -1
    outer loop
      vertex 5.52469 -12.5482 0
      vertex 0.000999451 -8 0
      vertex 7 1.2 0
    endloop
  endfacet
  facet normal 0 0 -1
    outer loop
      vertex 0.000999451 -1 0
      vertex 7 1.2 0
      vertex 0.000999451 -8 0
    endloop
  endfacet
  facet normal -0 0 -1
    outer loop
      vertex 7 1.2 0
      vertex 0.000999451 -1 0
      vertex 0.000999451 1.2 0
    endloop
  endfacet
  facet normal 0 -1 0
    outer loop
      vertex -5.999 -8 0
      vertex 0.000999451 -8 2.6
      vertex -5.999 -8 2.6
    endloop
  endfacet
  facet normal 0 -1 -0
    outer loop
      vertex 0.000999451 -8 2.6
      vertex -5.999 -8 0
      vertex 0.000999451 -8 0
    endloop
  endfacet
  facet normal 0 1 -0
    outer loop
      vertex 0.000999451 -1 0
      vertex -5.999 -1 2.6
      vertex 0.000999451 -1 2.6
    endloop
  endfacet
  facet normal 0 1 0
    outer loop
      vertex -5.999 -1 2.6
      vertex 0.000999451 -1 0
      vertex -5.999 -1 0
    endloop
  endfacet
  facet normal -1 0 0
    outer loop
      vertex -6 -5.901 0
      vertex -6 -3.101 4.6
      vertex -6 -3.101 0
    endloop
  endfacet
  facet normal -1 -0 0
    outer loop
      vertex -6 -3.101 4.6
      vertex -6 -5.901 0
      vertex -6 -5.901 4.6
    endloop
  endfacet
  facet normal 0 0 -1
    outer loop
      vertex -0.000999855 -6.202 4.6
      vertex -6 -5.901 4.6
      vertex -0.000999855 -5.901 4.6
    endloop
  endfacet
  facet normal -0 0 -1
    outer loop
      vertex -6 -5.901 4.6
      vertex -6.001 -6.202 4.6
      vertex -6 -3.101 4.6
    endloop
  endfacet
  facet normal 0 0 -1
    outer loop
      vertex -6.001 -6.202 4.6
      vertex -6 -5.901 4.6
      vertex -0.000999855 -6.202 4.6
    endloop
  endfacet
  facet normal 0 0 -1
    outer loop
      vertex -6 -3.101 4.6
      vertex -0.000999855 -2.802 4.6
      vertex -0.000999855 -3.101 4.6
    endloop
  endfacet
  facet normal 0 0 -1
    outer loop
      vertex -6 -3.101 4.6
      vertex -6.001 -2.802 4.6
      vertex -0.000999855 -2.802 4.6
    endloop
  endfacet
  facet normal 0 0 -1
    outer loop
      vertex -6.001 -2.802 4.6
      vertex -6 -3.101 4.6
      vertex -6.001 -6.202 4.6
    endloop
  endfacet
  facet normal -0 0 1
    outer loop
      vertex -0.000999855 -3.101 4.6
      vertex 0 -5.901 4.6
      vertex 0 -3.101 4.6
    endloop
  endfacet
  facet normal 0 0 1
    outer loop
      vertex 0 -5.901 4.6
      vertex -0.000999855 -3.101 4.6
      vertex -0.000999855 -5.901 4.6
    endloop
  endfacet
  facet normal 1 -0 0
    outer loop
      vertex 5.49316e-07 -5.901 3.5
      vertex 5.49316e-07 -3.101 2.6
      vertex 5.49316e-07 -3.101 3.5
    endloop
  endfacet
  facet normal 1 0 0
    outer loop
      vertex 5.49316e-07 -3.101 2.6
      vertex 5.49316e-07 -5.901 3.5
      vertex 5.49316e-07 -5.901 2.6
    endloop
  endfacet
  facet normal 0 -1 0
    outer loop
      vertex 0 -5.901 3.5
      vertex -0.000999855 -5.901 4.6
      vertex -6 -5.901 4.6
    endloop
  endfacet
  facet normal 0 -1 0
    outer loop
      vertex -0.000999855 -5.901 4.6
      vertex 0 -5.901 3.5
      vertex 0 -5.901 4.6
    endloop
  endfacet
  facet normal 0 -1 0
    outer loop
      vertex 5.49316e-07 -5.901 2.6
      vertex 0 -5.901 3.5
      vertex -5.999 -5.901 2.6
    endloop
  endfacet
  facet normal 0 -1 0
    outer loop
      vertex -6 -5.901 4.6
      vertex -5.999 -5.901 2.6
      vertex 0 -5.901 3.5
    endloop
  endfacet
  facet normal 0 -1 0
    outer loop
      vertex -6 -5.901 0
      vertex -5.999 -5.901 2.6
      vertex -6 -5.901 4.6
    endloop
  endfacet
  facet normal 0 -1 -0
    outer loop
      vertex -5.999 -5.901 2.6
      vertex -6 -5.901 0
      vertex -5.999 -5.901 0
    endloop
  endfacet
  facet normal 0 -1 0
    outer loop
      vertex 0 -5.901 3.5
      vertex 5.49316e-07 -5.901 2.6
      vertex 5.49316e-07 -5.901 3.5
    endloop
  endfacet
  facet normal 0 1 0
    outer loop
      vertex 5.49316e-07 -3.101 3.5
      vertex 5.49316e-07 -3.101 2.6
      vertex 0 -3.101 3.5
    endloop
  endfacet
  facet normal 0 1 -0
    outer loop
      vertex 0 -3.101 3.5
      vertex -0.000999855 -3.101 4.6
      vertex 0 -3.101 4.6
    endloop
  endfacet
  facet normal 0 1 0
    outer loop
      vertex -0.000999855 -3.101 4.6
      vertex 0 -3.101 3.5
      vertex -6 -3.101 4.6
    endloop
  endfacet
  facet normal 0 1 0
    outer loop
      vertex -5.999 -3.101 2.6
      vertex 0 -3.101 3.5
      vertex 5.49316e-07 -3.101 2.6
    endloop
  endfacet
  facet normal 0 1 0
    outer loop
      vertex 0 -3.101 3.5
      vertex -5.999 -3.101 2.6
      vertex -6 -3.101 4.6
    endloop
  endfacet
  facet normal 0 1 0
    outer loop
      vertex -6 -3.101 0
      vertex -5.999 -3.101 2.6
      vertex -5.999 -3.101 0
    endloop
  endfacet
  facet normal 0 1 0
    outer loop
      vertex -5.999 -3.101 2.6
      vertex -6 -3.101 0
      vertex -6 -3.101 4.6
    endloop
  endfacet
  facet normal -1 0 0
    outer loop
      vertex -6.001 -6.202 4.6
      vertex -6.001 -2.802 5.2
      vertex -6.001 -2.802 4.6
    endloop
  endfacet
  facet normal -1 -0 0
    outer loop
      vertex -6.001 -2.802 5.2
      vertex -6.001 -6.202 4.6
      vertex -6.001 -6.202 5.2
    endloop
  endfacet
  facet normal -0 0 1
    outer loop
      vertex -6.001 -2.802 5.2
      vertex -0.000999855 -6.202 5.2
      vertex -0.000999855 -2.802 5.2
    endloop
  endfacet
  facet normal 0 0 1
    outer loop
      vertex -0.000999855 -6.202 5.2
      vertex -6.001 -2.802 5.2
      vertex -6.001 -6.202 5.2
    endloop
  endfacet
  facet normal 1 0 0
    outer loop
      vertex -0.000999855 -2.802 5.2
      vertex -0.000999855 -3.101 4.6
      vertex -0.000999855 -2.802 4.6
    endloop
  endfacet
  facet normal 1 0 0
    outer loop
      vertex -0.000999855 -2.802 5.2
      vertex -0.000999855 -5.901 4.6
      vertex -0.000999855 -3.101 4.6
    endloop
  endfacet
  facet normal 1 -0 0
    outer loop
      vertex -0.000999855 -6.202 5.2
      vertex -0.000999855 -5.901 4.6
      vertex -0.000999855 -2.802 5.2
    endloop
  endfacet
  facet normal 1 0 0
    outer loop
      vertex -0.000999855 -5.901 4.6
      vertex -0.000999855 -6.202 5.2
      vertex -0.000999855 -6.202 4.6
    endloop
  endfacet
  facet normal 0 -1 0
    outer loop
      vertex -6.001 -6.202 4.6
      vertex -0.000999855 -6.202 5.2
      vertex -6.001 -6.202 5.2
    endloop
  endfacet
  facet normal 0 -1 -0
    outer loop
      vertex -0.000999855 -6.202 5.2
      vertex -6.001 -6.202 4.6
      vertex -0.000999855 -6.202 4.6
    endloop
  endfacet
  facet normal 0 1 -0
    outer loop
      vertex -0.000999855 -2.802 4.6
      vertex -6.001 -2.802 5.2
      vertex -0.000999855 -2.802 5.2
    endloop
  endfacet
  facet normal 0 1 0
    outer loop
      vertex -6.001 -2.802 5.2
      vertex -0.000999855 -2.802 4.6
      vertex -6.001 -2.802 4.6
    endloop
  endfacet
  facet normal 0.965921 -0.258836 0
    outer loop
      vertex 92.4733 -7.06339 2.6
      vertex 93.0166 -5.03591 0
      vertex 93.0166 -5.03591 2.6
    endloop
  endfacet
  facet normal 0.965921 -0.258836 0
    outer loop
      vertex 93.0166 -5.03591 0
      vertex 92.4733 -7.06339 2.6
      vertex 92.4733 -7.06339 0
    endloop
  endfacet
  facet normal 0.965924 -0.258827 0
    outer loop
      vertex 91.2048 -11.7974 2.6
      vertex 91.7486 -9.76798 0
      vertex 91.7486 -9.76798 2.6
    endloop
  endfacet
  facet normal 0.965924 -0.258827 0
    outer loop
      vertex 91.7486 -9.76798 0
      vertex 91.2048 -11.7974 2.6
      vertex 91.2048 -11.7974 0
    endloop
  endfacet
  facet normal 0 0 1
    outer loop
      vertex 87.2229 -3.4835 2.6
      vertex 92.4733 -7.06339 2.6
      vertex 93.0166 -5.03591 2.6
    endloop
  endfacet
  facet normal 0 0 1
    outer loop
      vertex 92.4733 -7.06339 2.6
      vertex 87.2229 -3.4835 2.6
      vertex 86.6796 -5.51098 2.6
    endloop
  endfacet
  facet normal 0 0 1
    outer loop
      vertex 85.9549 -8.21557 2.6
      vertex 91.2048 -11.7974 2.6
      vertex 91.7486 -9.76798 2.6
    endloop
  endfacet
  facet normal 0 0 1
    outer loop
      vertex 91.2048 -11.7974 2.6
      vertex 85.9549 -8.21557 2.6
      vertex 85.4111 -10.245 2.6
    endloop
  endfacet
  facet normal 0.258818 0.965926 -0
    outer loop
      vertex 93.0166 -5.03591 0
      vertex 87.2229 -3.4835 2.6
      vertex 93.0166 -5.03591 2.6
    endloop
  endfacet
  facet normal 0.258818 0.965926 0
    outer loop
      vertex 87.2229 -3.4835 2.6
      vertex 93.0166 -5.03591 0
      vertex 87.2229 -3.4835 0
    endloop
  endfacet
  facet normal -0.258816 -0.965927 0
    outer loop
      vertex 85.4111 -10.245 0
      vertex 91.2048 -11.7974 2.6
      vertex 85.4111 -10.245 2.6
    endloop
  endfacet
  facet normal -0.258816 -0.965927 -0
    outer loop
      vertex 91.2048 -11.7974 2.6
      vertex 85.4111 -10.245 0
      vertex 91.2048 -11.7974 0
    endloop
  endfacet
  facet normal 0.965925 -0.258821 0
    outer loop
      vertex 91.7496 -9.76824 4.6
      vertex 92.4743 -7.06365 0
      vertex 92.4743 -7.06365 4.6
    endloop
  endfacet
  facet normal 0.965925 -0.258821 0
    outer loop
      vertex 92.4743 -7.06365 0
      vertex 91.7496 -9.76824 4.6
      vertex 91.7496 -9.76824 0
    endloop
  endfacet
  facet normal 0 0 -1
    outer loop
      vertex 92.5531 -6.77316 4.6
      vertex 91.7496 -9.76824 4.6
      vertex 92.4743 -7.06365 4.6
    endloop
  endfacet
  facet normal 0 0 -1
    outer loop
      vertex 91.6732 -10.0573 4.6
      vertex 91.7496 -9.76824 4.6
      vertex 92.5531 -6.77316 4.6
    endloop
  endfacet
  facet normal 0 0 -1
    outer loop
      vertex 91.6732 -10.0573 4.6
      vertex 86.01 -8.23032 4.6
      vertex 91.7496 -9.76824 4.6
    endloop
  endfacet
  facet normal 0 -0 -1
    outer loop
      vertex 86.01 -8.23032 4.6
      vertex 91.6732 -10.0573 4.6
      vertex 85.9325 -8.51912 4.6
    endloop
  endfacet
  facet normal 0 0 -1
    outer loop
      vertex 92.4743 -7.06365 4.6
      vertex 86.8131 -5.23512 4.6
      vertex 92.5531 -6.77316 4.6
    endloop
  endfacet
  facet normal 0 -0 -1
    outer loop
      vertex 86.8131 -5.23512 4.6
      vertex 92.4743 -7.06365 4.6
      vertex 86.7351 -5.52585 4.6
    endloop
  endfacet
  facet normal 0.258817 0.965926 0
    outer loop
      vertex 92.4743 -7.06365 4.6
      vertex 86.7351 -5.52585 3.5
      vertex 86.7351 -5.52585 4.6
    endloop
  endfacet
  facet normal 0.258818 0.965926 -1.19223e-06
    outer loop
      vertex 86.6796 -5.51098 2.6
      vertex 86.7351 -5.52585 3.5
      vertex 92.4733 -7.06339 2.6
    endloop
  endfacet
  facet normal 0.258818 0.965926 -3.83836e-06
    outer loop
      vertex 92.4743 -7.06365 4.6
      vertex 92.4733 -7.06339 2.6
      vertex 86.7351 -5.52585 3.5
    endloop
  endfacet
  facet normal 0.251634 0.967823 -0
    outer loop
      vertex 92.4743 -7.06365 0
      vertex 92.4733 -7.06339 2.6
      vertex 92.4743 -7.06365 4.6
    endloop
  endfacet
  facet normal 0.251634 0.967823 0
    outer loop
      vertex 92.4733 -7.06339 2.6
      vertex 92.4743 -7.06365 0
      vertex 92.4733 -7.06339 0
    endloop
  endfacet
  facet normal 0.2588 0.965931 0
    outer loop
      vertex 86.7351 -5.52585 3.5
      vertex 86.6796 -5.51098 2.6
      vertex 86.6796 -5.51098 3.5
    endloop
  endfacet
  facet normal -0.258819 -0.965926 0
    outer loop
      vertex 86.01 -8.23032 3.5
      vertex 91.7496 -9.76824 4.6
      vertex 86.01 -8.23032 4.6
    endloop
  endfacet
  facet normal -0.258818 -0.965926 1.49522e-05
    outer loop
      vertex 91.7486 -9.76798 2.6
      vertex 86.01 -8.23032 3.5
      vertex 85.9549 -8.21557 2.6
    endloop
  endfacet
  facet normal -0.25882 -0.965926 3.83943e-06
    outer loop
      vertex 86.01 -8.23032 3.5
      vertex 91.7486 -9.76798 2.6
      vertex 91.7496 -9.76824 4.6
    endloop
  endfacet
  facet normal -0.251634 -0.967823 0
    outer loop
      vertex 91.7496 -9.76824 0
      vertex 91.7486 -9.76798 2.6
      vertex 91.7486 -9.76798 0
    endloop
  endfacet
  facet normal -0.251634 -0.967823 0
    outer loop
      vertex 91.7486 -9.76798 2.6
      vertex 91.7496 -9.76824 0
      vertex 91.7496 -9.76824 4.6
    endloop
  endfacet
  facet normal -0.25859 -0.965987 -0
    outer loop
      vertex 85.9549 -8.21557 3.5
      vertex 85.9549 -8.21557 2.6
      vertex 86.01 -8.23032 3.5
    endloop
  endfacet
  facet normal 0.965932 -0.258796 0
    outer loop
      vertex 91.6732 -10.0573 5.2
      vertex 92.5531 -6.77316 4.6
      vertex 92.5531 -6.77316 5.2
    endloop
  endfacet
  facet normal 0.965932 -0.258796 0
    outer loop
      vertex 92.5531 -6.77316 4.6
      vertex 91.6732 -10.0573 5.2
      vertex 91.6732 -10.0573 4.6
    endloop
  endfacet
  facet normal 0 0 1
    outer loop
      vertex 86.8131 -5.23512 5.2
      vertex 91.6732 -10.0573 5.2
      vertex 92.5531 -6.77316 5.2
    endloop
  endfacet
  facet normal 0 0 1
    outer loop
      vertex 91.6732 -10.0573 5.2
      vertex 86.8131 -5.23512 5.2
      vertex 85.9325 -8.51912 5.2
    endloop
  endfacet
  facet normal 0.258821 0.965925 -0
    outer loop
      vertex 92.5531 -6.77316 4.6
      vertex 86.8131 -5.23512 5.2
      vertex 92.5531 -6.77316 5.2
    endloop
  endfacet
  facet normal 0.258821 0.965925 0
    outer loop
      vertex 86.8131 -5.23512 5.2
      vertex 92.5531 -6.77316 4.6
      vertex 86.8131 -5.23512 4.6
    endloop
  endfacet
  facet normal -0.258813 -0.965927 0
    outer loop
      vertex 85.9325 -8.51912 4.6
      vertex 91.6732 -10.0573 5.2
      vertex 85.9325 -8.51912 5.2
    endloop
  endfacet
  facet normal -0.258813 -0.965927 -0
    outer loop
      vertex 91.6732 -10.0573 5.2
      vertex 85.9325 -8.51912 4.6
      vertex 91.6732 -10.0573 4.6
    endloop
  endfacet
  facet normal -1 0 0
    outer loop
      vertex 0.000999451 1.2 0
      vertex 0.000999451 -1 0
      vertex 0.000999451 1.2 2.5
    endloop
  endfacet
  facet normal -1 0 0
    outer loop
      vertex 0.000999451 -1 2.6
      vertex 0.000999451 1.2 2.5
      vertex 0.000999451 -1 0
    endloop
  endfacet
  facet normal -1 0 0
    outer loop
      vertex 0.000999451 -1 2.6
      vertex 0.000999451 3.4 3.5
      vertex 0.000999451 1.2 2.5
    endloop
  endfacet
  facet normal -1 0 0
    outer loop
      vertex 0.000999451 -8.00001 3.5
      vertex 0.000999451 -1 2.6
      vertex 0.000999451 -8 2.6
    endloop
  endfacet
  facet normal -1 0 0
    outer loop
      vertex 0.000999451 -1 2.6
      vertex 0.000999451 -8.00001 3.5
      vertex 0.000999451 3.4 3.5
    endloop
  endfacet
  facet normal -1 0 0
    outer loop
      vertex 0.000999451 -12.5 0
      vertex 0.000999451 -8 2.6
      vertex 0.000999451 -8 0
    endloop
  endfacet
  facet normal -1 0 0
    outer loop
      vertex 0.000999451 -8.00001 3.5
      vertex 0.000999451 -9 5
      vertex 0.000999451 -8.00001 5
    endloop
  endfacet
  facet normal -1 0 -0
    outer loop
      vertex 0.000999451 -9 5
      vertex 0.000999451 -8 2.6
      vertex 0.000999451 -12.5 0
    endloop
  endfacet
  facet normal -1 0 0
    outer loop
      vertex 0.000999451 -8 2.6
      vertex 0.000999451 -9 5
      vertex 0.000999451 -8.00001 3.5
    endloop
  endfacet
  facet normal -1 0 0
    outer loop
      vertex 0.000999451 8.4 2.5
      vertex 0.000999451 6.4 3.5
      vertex 0.000999451 7.99999 3.5
    endloop
  endfacet
  facet normal -1 0 0
    outer loop
      vertex 0.000999451 8.4 2.5
      vertex 0.000999451 12.5 0
      vertex 0.000999451 8.4 0
    endloop
  endfacet
  facet normal -1 0 0
    outer loop
      vertex 0.000999451 12.5 0
      vertex 0.000999451 8.4 2.5
      vertex 0.000999451 9 5
    endloop
  endfacet
  facet normal -1 0 0
    outer loop
      vertex 0.000999451 7.99999 3.5
      vertex 0.000999451 9 5
      vertex 0.000999451 8.4 2.5
    endloop
  endfacet
  facet normal -1 -0 0
    outer loop
      vertex 0.000999451 9 5
      vertex 0.000999451 7.99999 3.5
      vertex 0.000999451 7.99999 5
    endloop
  endfacet
  facet normal 0.965932 -0.258796 0
    outer loop
      vertex 82.8231 -19.9037 5
      vertex 83.0817 -18.9385 3.5
      vertex 83.0817 -18.9385 5
    endloop
  endfacet
  facet normal 0.96593 -0.258803 -4.96712e-06
    outer loop
      vertex 83.0817 -18.9385 3.5
      vertex 82.8231 -19.9037 5
      vertex 82.9783 -19.3244 2.5
    endloop
  endfacet
  facet normal 0.965927 -0.258813 -7.46543e-06
    outer loop
      vertex 81.9172 -23.2845 0
      vertex 82.9783 -19.3244 2.5
      vertex 82.8231 -19.9037 5
    endloop
  endfacet
  facet normal 0.965926 -0.258818 0
    outer loop
      vertex 82.9783 -19.3244 2.5
      vertex 81.9172 -23.2845 0
      vertex 82.9783 -19.3244 0.953428
    endloop
  endfacet
  facet normal 0.965898 -0.25886 -0.00570809
    outer loop
      vertex 83.0817 -18.9385 3.5
      vertex 83.4886 -17.4199 3.48585
      vertex 83.496 -17.3926 3.5
    endloop
  endfacet
  facet normal 0.965927 -0.258815 -3.35906e-07
    outer loop
      vertex 83.4886 -17.4199 3.48585
      vertex 83.0817 -18.9385 3.5
      vertex 82.9783 -19.3244 2.5
    endloop
  endfacet
  facet normal 0.96593 -0.258804 0
    outer loop
      vertex 87.4818 -2.51707 5
      vertex 87.2228 -3.48373 5
      vertex 87.2228 -3.48373 4.76727
    endloop
  endfacet
  facet normal 0.965923 -0.258828 4.04687e-05
    outer loop
      vertex 84.7937 -12.5495 2.58458
      vertex 85.8125 -8.74729 3.5
      vertex 84.2724 -14.4948 3.5
    endloop
  endfacet
  facet normal 0.96593 -0.258804 0
    outer loop
      vertex 87.2228 -3.48373 3.5
      vertex 87.4818 -2.51707 5
      vertex 87.2228 -3.48373 4.76727
    endloop
  endfacet
  facet normal 0.965914 -0.258864 4.11696e-05
    outer loop
      vertex 87.4818 -2.51707 5
      vertex 87.2228 -3.48373 3.5
      vertex 87.2229 -3.4835 2.6
    endloop
  endfacet
  facet normal 0.965926 -0.258819 4.11824e-05
    outer loop
      vertex 86.6796 -5.51098 3.5
      vertex 87.2229 -3.4835 2.6
      vertex 87.2228 -3.48373 3.5
    endloop
  endfacet
  facet normal 0.965921 -0.258836 0
    outer loop
      vertex 87.2229 -3.4835 2.6
      vertex 86.6796 -5.51098 3.5
      vertex 86.6796 -5.51098 2.6
    endloop
  endfacet
  facet normal 0.965929 -0.258806 1.60872e-05
    outer loop
      vertex 87.2229 -3.4835 2.6
      vertex 88.3877 0.863669 0
      vertex 87.4818 -2.51707 5
    endloop
  endfacet
  facet normal 0.965927 -0.258815 0
    outer loop
      vertex 88.3877 0.863669 0
      vertex 87.2229 -3.4835 2.6
      vertex 87.2229 -3.4835 0
    endloop
  endfacet
  facet normal 0.965926 -0.258818 0
    outer loop
      vertex 82.9783 -19.3244 0
      vertex 82.9783 -19.3244 0.953428
      vertex 81.9172 -23.2845 0
    endloop
  endfacet
  facet normal 0.965959 -0.258694 0
    outer loop
      vertex 85.8125 -8.74729 3.5
      vertex 85.9549 -8.21557 2.6
      vertex 85.9549 -8.21557 3.5
    endloop
  endfacet
  facet normal 0.965924 -0.258826 -8.38237e-05
    outer loop
      vertex 85.8125 -8.74729 3.5
      vertex 85.4111 -10.245 2.6
      vertex 85.9549 -8.21557 2.6
    endloop
  endfacet
  facet normal 0.96593 -0.258803 0
    outer loop
      vertex 85.4111 -10.245 2.6
      vertex 84.8418 -12.3698 2.5
      vertex 85.4111 -10.245 0
    endloop
  endfacet
  facet normal 0.965935 -0.258783 -0.000160198
    outer loop
      vertex 84.7937 -12.5495 2.58458
      vertex 85.4111 -10.245 2.6
      vertex 85.8125 -8.74729 3.5
    endloop
  endfacet
  facet normal 0.965936 -0.258781 -0.000490235
    outer loop
      vertex 85.4111 -10.245 2.6
      vertex 84.7937 -12.5495 2.58458
      vertex 84.8418 -12.3698 2.5
    endloop
  endfacet
  facet normal 0.96593 -0.258803 0
    outer loop
      vertex 85.4111 -10.245 0
      vertex 84.8418 -12.3698 2.5
      vertex 84.8418 -12.3698 0
    endloop
  endfacet
  facet normal -0.0071495 -0.819211 0.573448
    outer loop
      vertex 5.58577 -9.04874 5
      vertex 0.000999451 -9 5
      vertex 0.000999451 -12.5 0
    endloop
  endfacet
  facet normal -0.00714848 -0.819212 0.573447
    outer loop
      vertex 5.52469 -12.5482 0
      vertex 5.58577 -9.04874 5
      vertex 0.000999451 -12.5 0
    endloop
  endfacet
  facet normal -0 0 1
    outer loop
      vertex 81.5809 -2.02362 5
      vertex 87.4818 -2.51707 5
      vertex 81.7706 -1.04004 5
    endloop
  endfacet
  facet normal 0 0 1
    outer loop
      vertex 87.4818 -2.51707 5
      vertex 81.5809 -2.02362 5
      vertex 87.2228 -3.48373 5
    endloop
  endfacet
  facet normal -0 0 1
    outer loop
      vertex 75.8582 -0.648758 5
      vertex 81.7706 -1.04004 5
      vertex 76.0345 0.337081 5
    endloop
  endfacet
  facet normal 0 0 1
    outer loop
      vertex 81.7706 -1.04004 5
      vertex 75.8582 -0.648758 5
      vertex 81.5809 -2.02362 5
    endloop
  endfacet
  facet normal -0 0 1
    outer loop
      vertex 70.1123 0.625955 5
      vertex 76.0345 0.337081 5
      vertex 70.2752 1.61389 5
    endloop
  endfacet
  facet normal 0 0 1
    outer loop
      vertex 76.0345 0.337081 5
      vertex 70.1123 0.625955 5
      vertex 75.8582 -0.648758 5
    endloop
  endfacet
  facet normal -0 0 1
    outer loop
      vertex 64.345 1.80013 5
      vertex 70.2752 1.61389 5
      vertex 64.4944 2.78999 5
    endloop
  endfacet
  facet normal 0 0 1
    outer loop
      vertex 70.2752 1.61389 5
      vertex 64.345 1.80013 5
      vertex 70.1123 0.625955 5
    endloop
  endfacet
  facet normal -0 0 1
    outer loop
      vertex 58.5581 2.8734 5
      vertex 64.4944 2.78999 5
      vertex 58.6941 3.86502 5
    endloop
  endfacet
  facet normal 0 0 1
    outer loop
      vertex 64.4944 2.78999 5
      vertex 58.5581 2.8734 5
      vertex 64.345 1.80013 5
    endloop
  endfacet
  facet normal 0 0 1
    outer loop
      vertex 52.7533 3.84545 5
      vertex 58.6941 3.86502 5
      vertex 52.8758 4.83866 5
    endloop
  endfacet
  facet normal 0 0 1
    outer loop
      vertex 58.6941 3.86502 5
      vertex 52.7533 3.84545 5
      vertex 58.5581 2.8734 5
    endloop
  endfacet
  facet normal 0 0 1
    outer loop
      vertex 46.9324 4.71597 5
      vertex 52.8758 4.83866 5
      vertex 47.0415 5.71061 5
    endloop
  endfacet
  facet normal 0 0 1
    outer loop
      vertex 52.8758 4.83866 5
      vertex 46.9324 4.71597 5
      vertex 52.7533 3.84545 5
    endloop
  endfacet
  facet normal 0 0 1
    outer loop
      vertex 41.0972 5.48471 5
      vertex 47.0415 5.71061 5
      vertex 41.1928 6.4806 5
    endloop
  endfacet
  facet normal 0 0 1
    outer loop
      vertex 47.0415 5.71061 5
      vertex 41.0972 5.48471 5
      vertex 46.9324 4.71597 5
    endloop
  endfacet
  facet normal 0 0 1
    outer loop
      vertex 35.2495 6.15142 5
      vertex 41.1928 6.4806 5
      vertex 35.3316 7.1484 5
    endloop
  endfacet
  facet normal 0 0 1
    outer loop
      vertex 41.1928 6.4806 5
      vertex 35.2495 6.15142 5
      vertex 41.0972 5.48471 5
    endloop
  endfacet
  facet normal 0 0 1
    outer loop
      vertex 29.391 6.7159 5
      vertex 35.3316 7.1484 5
      vertex 29.4596 7.71381 5
    endloop
  endfacet
  facet normal 0 0 1
    outer loop
      vertex 35.3316 7.1484 5
      vertex 29.391 6.7159 5
      vertex 35.2495 6.15142 5
    endloop
  endfacet
  facet normal 0 0 1
    outer loop
      vertex 23.5236 7.17799 5
      vertex 29.4596 7.71381 5
      vertex 23.5787 8.17665 5
    endloop
  endfacet
  facet normal 0 0 1
    outer loop
      vertex 29.4596 7.71381 5
      vertex 23.5236 7.17799 5
      vertex 29.391 6.7159 5
    endloop
  endfacet
  facet normal 0 0 1
    outer loop
      vertex 17.649 7.53754 5
      vertex 23.5787 8.17665 5
      vertex 17.6906 8.53678 5
    endloop
  endfacet
  facet normal 0 0 1
    outer loop
      vertex 23.5787 8.17665 5
      vertex 17.649 7.53754 5
      vertex 23.5236 7.17799 5
    endloop
  endfacet
  facet normal 0 0 1
    outer loop
      vertex 11.769 7.79443 5
      vertex 17.6906 8.53678 5
      vertex 11.797 8.7941 5
    endloop
  endfacet
  facet normal 0 0 1
    outer loop
      vertex 17.6906 8.53678 5
      vertex 11.769 7.79443 5
      vertex 17.649 7.53754 5
    endloop
  endfacet
  facet normal 0 0 1
    outer loop
      vertex 5.89991 8.94852 5
      vertex 11.769 7.79443 5
      vertex 11.797 8.7941 5
    endloop
  endfacet
  facet normal 0 0 1
    outer loop
      vertex 5.89991 8.94852 5
      vertex 5.88538 7.9486 5
      vertex 11.769 7.79443 5
    endloop
  endfacet
  facet normal 0 0 1
    outer loop
      vertex 0.000999451 9 5
      vertex 5.88538 7.9486 5
      vertex 5.89991 8.94852 5
    endloop
  endfacet
  facet normal 0 0 1
    outer loop
      vertex 5.88538 7.9486 5
      vertex 0.000999451 9 5
      vertex 0.000999451 7.99999 5
    endloop
  endfacet
  facet normal 0 0 1
    outer loop
      vertex 77.7077 -17.5477 5
      vertex 82.8231 -19.9037 5
      vertex 83.0817 -18.9385 5
    endloop
  endfacet
  facet normal 0 0 1
    outer loop
      vertex 77.7077 -17.5477 5
      vertex 77.416 -18.5054 5
      vertex 82.8231 -19.9037 5
    endloop
  endfacet
  facet normal 0 0 1
    outer loop
      vertex 72.2566 -16.2381 5
      vertex 77.416 -18.5054 5
      vertex 77.7077 -17.5477 5
    endloop
  endfacet
  facet normal 0 0 1
    outer loop
      vertex 72.2566 -16.2381 5
      vertex 71.9853 -17.2016 5
      vertex 77.416 -18.5054 5
    endloop
  endfacet
  facet normal 0 0 1
    outer loop
      vertex 66.7835 -15.0239 5
      vertex 71.9853 -17.2016 5
      vertex 72.2566 -16.2381 5
    endloop
  endfacet
  facet normal 0 0 1
    outer loop
      vertex 66.7835 -15.0239 5
      vertex 66.5327 -15.9928 5
      vertex 71.9853 -17.2016 5
    endloop
  endfacet
  facet normal 0 0 1
    outer loop
      vertex 61.29 -13.9055 5
      vertex 66.5327 -15.9928 5
      vertex 66.7835 -15.0239 5
    endloop
  endfacet
  facet normal 0 0 1
    outer loop
      vertex 61.29 -13.9055 5
      vertex 61.0599 -14.8793 5
      vertex 66.5327 -15.9928 5
    endloop
  endfacet
  facet normal 0 0 1
    outer loop
      vertex 55.7778 -12.8832 5
      vertex 61.0599 -14.8793 5
      vertex 61.29 -13.9055 5
    endloop
  endfacet
  facet normal 0 0 1
    outer loop
      vertex 55.7778 -12.8832 5
      vertex 55.5684 -13.8615 5
      vertex 61.0599 -14.8793 5
    endloop
  endfacet
  facet normal 0 0 1
    outer loop
      vertex 50.2487 -11.9573 5
      vertex 55.5684 -13.8615 5
      vertex 55.7778 -12.8832 5
    endloop
  endfacet
  facet normal 0 0 1
    outer loop
      vertex 50.2487 -11.9573 5
      vertex 50.06 -12.9397 5
      vertex 55.5684 -13.8615 5
    endloop
  endfacet
  facet normal 0 0 1
    outer loop
      vertex 44.7042 -11.1281 5
      vertex 50.06 -12.9397 5
      vertex 50.2487 -11.9573 5
    endloop
  endfacet
  facet normal 0 0 1
    outer loop
      vertex 44.7042 -11.1281 5
      vertex 44.5364 -12.1142 5
      vertex 50.06 -12.9397 5
    endloop
  endfacet
  facet normal 0 0 1
    outer loop
      vertex 39.146 -10.3959 5
      vertex 44.5364 -12.1142 5
      vertex 44.7042 -11.1281 5
    endloop
  endfacet
  facet normal 0 0 1
    outer loop
      vertex 39.146 -10.3959 5
      vertex 38.9992 -11.3852 5
      vertex 44.5364 -12.1142 5
    endloop
  endfacet
  facet normal 0 0 1
    outer loop
      vertex 33.5759 -9.76081 5
      vertex 38.9992 -11.3852 5
      vertex 39.146 -10.3959 5
    endloop
  endfacet
  facet normal 0 0 1
    outer loop
      vertex 33.5759 -9.76081 5
      vertex 33.4501 -10.753 5
      vertex 38.9992 -11.3852 5
    endloop
  endfacet
  facet normal 0 0 1
    outer loop
      vertex 27.9956 -9.22313 5
      vertex 33.4501 -10.753 5
      vertex 33.5759 -9.76081 5
    endloop
  endfacet
  facet normal 0 0 1
    outer loop
      vertex 27.9956 -9.22313 5
      vertex 27.8908 -10.2177 5
      vertex 33.4501 -10.753 5
    endloop
  endfacet
  facet normal 0 0 1
    outer loop
      vertex 22.4067 -8.78298 5
      vertex 27.8908 -10.2177 5
      vertex 27.9956 -9.22313 5
    endloop
  endfacet
  facet normal 0 0 1
    outer loop
      vertex 22.4067 -8.78298 5
      vertex 22.3231 -9.7795 5
      vertex 27.8908 -10.2177 5
    endloop
  endfacet
  facet normal 0 0 1
    outer loop
      vertex 16.811 -8.44051 5
      vertex 22.3231 -9.7795 5
      vertex 22.4067 -8.78298 5
    endloop
  endfacet
  facet normal 0 0 1
    outer loop
      vertex 16.811 -8.44051 5
      vertex 16.7485 -9.43855 5
      vertex 22.3231 -9.7795 5
    endloop
  endfacet
  facet normal 0 0 1
    outer loop
      vertex 11.2102 -8.1958 5
      vertex 16.7485 -9.43855 5
      vertex 16.811 -8.44051 5
    endloop
  endfacet
  facet normal 0 0 1
    outer loop
      vertex 11.2102 -8.1958 5
      vertex 11.1688 -9.19493 5
      vertex 16.7485 -9.43855 5
    endloop
  endfacet
  facet normal 0 0 1
    outer loop
      vertex 5.60596 -8.04895 5
      vertex 11.1688 -9.19493 5
      vertex 11.2102 -8.1958 5
    endloop
  endfacet
  facet normal 0 0 1
    outer loop
      vertex 5.60596 -8.04895 5
      vertex 5.58577 -9.04874 5
      vertex 11.1688 -9.19493 5
    endloop
  endfacet
  facet normal 0 0 1
    outer loop
      vertex 0.000999451 -8.00001 5
      vertex 5.58577 -9.04874 5
      vertex 5.60596 -8.04895 5
    endloop
  endfacet
  facet normal 0 0 1
    outer loop
      vertex 5.58577 -9.04874 5
      vertex 0.000999451 -8.00001 5
      vertex 0.000999451 -9 5
    endloop
  endfacet
  facet normal 0.00714748 0.819211 0.573448
    outer loop
      vertex 5.961 12.448 0
      vertex 0.000999451 12.5 0
      vertex 0.000999451 9 5
    endloop
  endfacet
  facet normal 0.00714927 0.81921 0.573449
    outer loop
      vertex 5.89991 8.94852 5
      vertex 5.961 12.448 0
      vertex 0.000999451 9 5
    endloop
  endfacet
  facet normal -0.0214443 -0.818962 0.573447
    outer loop
      vertex 11.1688 -9.19493 5
      vertex 5.58577 -9.04874 5
      vertex 5.52469 -12.5482 0
    endloop
  endfacet
  facet normal -0.0214454 -0.818961 0.573448
    outer loop
      vertex 11.0467 -12.6928 0
      vertex 11.1688 -9.19493 5
      vertex 5.52469 -12.5482 0
    endloop
  endfacet
  facet normal 0.0214424 0.81896 0.573449
    outer loop
      vertex 11.9192 12.292 0
      vertex 5.961 12.448 0
      vertex 5.89991 8.94852 5
    endloop
  endfacet
  facet normal 0.0214451 0.818959 0.573451
    outer loop
      vertex 11.797 8.7941 5
      vertex 11.9192 12.292 0
      vertex 5.89991 8.94852 5
    endloop
  endfacet
  facet normal -0.0357356 -0.818462 0.573448
    outer loop
      vertex 16.7485 -9.43855 5
      vertex 11.1688 -9.19493 5
      vertex 11.0467 -12.6928 0
    endloop
  endfacet
  facet normal -0.0357425 -0.818458 0.573453
    outer loop
      vertex 16.5653 -12.9338 0
      vertex 16.7485 -9.43855 5
      vertex 11.0467 -12.6928 0
    endloop
  endfacet
  facet normal 0.0357376 0.81846 0.573451
    outer loop
      vertex 17.8737 12.032 0
      vertex 11.9192 12.292 0
      vertex 11.797 8.7941 5
    endloop
  endfacet
  facet normal 0.0357348 0.818461 0.573449
    outer loop
      vertex 17.6906 8.53678 5
      vertex 17.8737 12.032 0
      vertex 11.797 8.7941 5
    endloop
  endfacet
  facet normal -0.0500123 -0.81771 0.573453
    outer loop
      vertex 22.3231 -9.7795 5
      vertex 16.7485 -9.43855 5
      vertex 16.5653 -12.9338 0
    endloop
  endfacet
  facet normal -0.0500095 -0.817712 0.573451
    outer loop
      vertex 22.0789 -13.271 0
      vertex 22.3231 -9.7795 5
      vertex 16.5653 -12.9338 0
    endloop
  endfacet
  facet normal 0.0500186 0.817713 0.573449
    outer loop
      vertex 23.8228 11.6681 0
      vertex 17.8737 12.032 0
      vertex 17.6906 8.53678 5
    endloop
  endfacet
  facet normal 0.0500134 0.817716 0.573445
    outer loop
      vertex 23.5787 8.17665 5
      vertex 23.8228 11.6681 0
      vertex 17.6906 8.53678 5
    endloop
  endfacet
  facet normal -0.0642786 -0.816714 0.573451
    outer loop
      vertex 27.8908 -10.2177 5
      vertex 22.3231 -9.7795 5
      vertex 22.0789 -13.271 0
    endloop
  endfacet
  facet normal -0.0642766 -0.816716 0.573449
    outer loop
      vertex 27.5858 -13.7044 0
      vertex 27.8908 -10.2177 5
      vertex 22.0789 -13.271 0
    endloop
  endfacet
  facet normal 0.064272 0.816719 0.573445
    outer loop
      vertex 29.7647 11.2005 0
      vertex 23.8228 11.6681 0
      vertex 23.5787 8.17665 5
    endloop
  endfacet
  facet normal 0.0642774 0.816716 0.573449
    outer loop
      vertex 29.4596 7.71381 5
      vertex 29.7647 11.2005 0
      vertex 23.5787 8.17665 5
    endloop
  endfacet
  facet normal -0.0785208 -0.815469 0.573449
    outer loop
      vertex 33.4501 -10.753 5
      vertex 27.8908 -10.2177 5
      vertex 27.5858 -13.7044 0
    endloop
  endfacet
  facet normal -0.0785145 -0.815474 0.573444
    outer loop
      vertex 33.0843 -14.2338 0
      vertex 33.4501 -10.753 5
      vertex 27.5858 -13.7044 0
    endloop
  endfacet
  facet normal 0.0785257 0.815469 0.573449
    outer loop
      vertex 35.6975 10.6292 0
      vertex 29.7647 11.2005 0
      vertex 29.4596 7.71381 5
    endloop
  endfacet
  facet normal 0.0785211 0.815472 0.573445
    outer loop
      vertex 35.3316 7.1484 5
      vertex 35.6975 10.6292 0
      vertex 29.4596 7.71381 5
    endloop
  endfacet
  facet normal -0.0927353 -0.813979 0.573444
    outer loop
      vertex 38.9992 -11.3852 5
      vertex 33.4501 -10.753 5
      vertex 33.0843 -14.2338 0
    endloop
  endfacet
  facet normal -0.092739 -0.813977 0.573447
    outer loop
      vertex 38.5726 -14.8591 0
      vertex 38.9992 -11.3852 5
      vertex 33.0843 -14.2338 0
    endloop
  endfacet
  facet normal 0.0927376 0.813978 0.573445
    outer loop
      vertex 41.6194 9.95451 0
      vertex 35.6975 10.6292 0
      vertex 35.3316 7.1484 5
    endloop
  endfacet
  facet normal 0.0927409 0.813976 0.573448
    outer loop
      vertex 41.1928 6.4806 5
      vertex 41.6194 9.95451 0
      vertex 35.3316 7.1484 5
    endloop
  endfacet
  facet normal -0.106935 -0.812233 0.573447
    outer loop
      vertex 44.5364 -12.1142 5
      vertex 38.9992 -11.3852 5
      vertex 38.5726 -14.8591 0
    endloop
  endfacet
  facet normal -0.106943 -0.812227 0.573454
    outer loop
      vertex 44.0493 -15.5802 0
      vertex 44.5364 -12.1142 5
      vertex 38.5726 -14.8591 0
    endloop
  endfacet
  facet normal 0.106932 0.812233 0.573448
    outer loop
      vertex 47.5286 9.17655 0
      vertex 41.6194 9.95451 0
      vertex 41.1928 6.4806 5
    endloop
  endfacet
  facet normal 0.106932 0.812233 0.573448
    outer loop
      vertex 47.0415 5.71061 5
      vertex 47.5286 9.17655 0
      vertex 41.1928 6.4806 5
    endloop
  endfacet
  facet normal -0.12109 -0.810239 0.573454
    outer loop
      vertex 50.06 -12.9397 5
      vertex 44.5364 -12.1142 5
      vertex 44.0493 -15.5802 0
    endloop
  endfacet
  facet normal -0.12108 -0.810246 0.573446
    outer loop
      vertex 49.5125 -16.3966 0
      vertex 50.06 -12.9397 5
      vertex 44.0493 -15.5802 0
    endloop
  endfacet
  facet normal 0.121091 0.810244 0.573448
    outer loop
      vertex 53.4234 8.29557 0
      vertex 47.5286 9.17655 0
      vertex 47.0415 5.71061 5
    endloop
  endfacet
  facet normal 0.121093 0.810242 0.573449
    outer loop
      vertex 52.8758 4.83866 5
      vertex 53.4234 8.29557 0
      vertex 47.0415 5.71061 5
    endloop
  endfacet
  facet normal -0.135216 -0.808007 0.573446
    outer loop
      vertex 55.5684 -13.8615 5
      vertex 50.06 -12.9397 5
      vertex 49.5125 -16.3966 0
    endloop
  endfacet
  facet normal -0.135214 -0.808008 0.573445
    outer loop
      vertex 54.9606 -17.3083 0
      vertex 55.5684 -13.8615 5
      vertex 49.5125 -16.3966 0
    endloop
  endfacet
  facet normal 0.135213 0.808006 0.573449
    outer loop
      vertex 59.3019 7.31185 0
      vertex 53.4234 8.29557 0
      vertex 52.8758 4.83866 5
    endloop
  endfacet
  facet normal 0.135213 0.808006 0.573449
    outer loop
      vertex 58.6941 3.86502 5
      vertex 59.3019 7.31185 0
      vertex 52.8758 4.83866 5
    endloop
  endfacet
  facet normal -0.149297 -0.805525 0.573445
    outer loop
      vertex 61.0599 -14.8793 5
      vertex 55.5684 -13.8615 5
      vertex 54.9606 -17.3083 0
    endloop
  endfacet
  facet normal -0.149302 -0.805521 0.57345
    outer loop
      vertex 60.392 -18.315 0
      vertex 61.0599 -14.8793 5
      vertex 54.9606 -17.3083 0
    endloop
  endfacet
  facet normal 0.149296 0.805523 0.573449
    outer loop
      vertex 65.1623 6.22568 0
      vertex 59.3019 7.31185 0
      vertex 58.6941 3.86502 5
    endloop
  endfacet
  facet normal 0.149296 0.805523 0.573449
    outer loop
      vertex 64.4944 2.78999 5
      vertex 65.1623 6.22568 0
      vertex 58.6941 3.86502 5
    endloop
  endfacet
  facet normal -0.163337 -0.802793 0.57345
    outer loop
      vertex 66.5327 -15.9928 5
      vertex 61.0599 -14.8793 5
      vertex 60.392 -18.315 0
    endloop
  endfacet
  facet normal -0.16333 -0.802798 0.573444
    outer loop
      vertex 65.8051 -19.4163 0
      vertex 66.5327 -15.9928 5
      vertex 60.392 -18.315 0
    endloop
  endfacet
  facet normal 0.163331 0.802795 0.573449
    outer loop
      vertex 71.0028 5.03741 0
      vertex 65.1623 6.22568 0
      vertex 64.4944 2.78999 5
    endloop
  endfacet
  facet normal 0.163329 0.802797 0.573446
    outer loop
      vertex 70.2752 1.61389 5
      vertex 71.0028 5.03741 0
      vertex 64.4944 2.78999 5
    endloop
  endfacet
  facet normal -0.177315 -0.799826 0.573444
    outer loop
      vertex 71.9853 -17.2016 5
      vertex 66.5327 -15.9928 5
      vertex 65.8051 -19.4163 0
    endloop
  endfacet
  facet normal -0.17732 -0.799822 0.573448
    outer loop
      vertex 71.198 -20.6119 0
      vertex 71.9853 -17.2016 5
      vertex 65.8051 -19.4163 0
    endloop
  endfacet
  facet normal 0.177315 0.799824 0.573446
    outer loop
      vertex 76.8218 3.74738 0
      vertex 71.0028 5.03741 0
      vertex 70.2752 1.61389 5
    endloop
  endfacet
  facet normal 0.177317 0.799823 0.573447
    outer loop
      vertex 76.0345 0.337081 5
      vertex 76.8218 3.74738 0
      vertex 70.2752 1.61389 5
    endloop
  endfacet
  facet normal -0.191249 -0.796606 0.573447
    outer loop
      vertex 77.416 -18.5054 5
      vertex 71.9853 -17.2016 5
      vertex 71.198 -20.6119 0
    endloop
  endfacet
  facet normal -0.191244 -0.796611 0.573443
    outer loop
      vertex 76.5693 -21.9014 0
      vertex 77.416 -18.5054 5
      vertex 71.198 -20.6119 0
    endloop
  endfacet
  facet normal 0.19125 0.796606 0.573447
    outer loop
      vertex 82.6173 2.35599 0
      vertex 76.8218 3.74738 0
      vertex 76.0345 0.337081 5
    endloop
  endfacet
  facet normal 0.191249 0.796607 0.573446
    outer loop
      vertex 81.7706 -1.04004 5
      vertex 82.6173 2.35599 0
      vertex 76.0345 0.337081 5
    endloop
  endfacet
  facet normal -0.205113 -0.793153 0.573443
    outer loop
      vertex 82.8231 -19.9037 5
      vertex 77.416 -18.5054 5
      vertex 76.5693 -21.9014 0
    endloop
  endfacet
  facet normal -0.205126 -0.793141 0.573455
    outer loop
      vertex 81.9172 -23.2845 0
      vertex 82.8231 -19.9037 5
      vertex 76.5693 -21.9014 0
    endloop
  endfacet
  facet normal 0.205121 0.793148 0.573446
    outer loop
      vertex 88.3877 0.863669 0
      vertex 82.6173 2.35599 0
      vertex 81.7706 -1.04004 5
    endloop
  endfacet
  facet normal 0.205123 0.793146 0.573448
    outer loop
      vertex 87.4818 -2.51707 5
      vertex 88.3877 0.863669 0
      vertex 81.7706 -1.04004 5
    endloop
  endfacet
  facet normal 0 -1 0
    outer loop
      vertex 0.000999451 8.4 0
      vertex 7 8.4 2.5
      vertex 0.000999451 8.4 2.5
    endloop
  endfacet
  facet normal 0 -1 -0
    outer loop
      vertex 7 8.4 2.5
      vertex 0.000999451 8.4 0
      vertex 7 8.4 0
    endloop
  endfacet
  facet normal 0 1 -0
    outer loop
      vertex 7 1.2 0
      vertex 0.000999451 1.2 2.5
      vertex 7 1.2 2.5
    endloop
  endfacet
  facet normal 0 1 0
    outer loop
      vertex 0.000999451 1.2 2.5
      vertex 7 1.2 0
      vertex 0.000999451 1.2 0
    endloop
  endfacet
  facet normal 0 -0.447214 -0.894427
    outer loop
      vertex 0.000999451 6.4 3.5
      vertex 7 8.4 2.5
      vertex 7 6.4 3.5
    endloop
  endfacet
  facet normal -0 -0.447214 -0.894427
    outer loop
      vertex 7 8.4 2.5
      vertex 0.000999451 6.4 3.5
      vertex 0.000999451 8.4 2.5
    endloop
  endfacet
  facet normal 0 0.413803 -0.910366
    outer loop
      vertex 0.000999451 1.2 2.5
      vertex 7 3.4 3.5
      vertex 7 1.2 2.5
    endloop
  endfacet
  facet normal 0 0.413803 -0.910366
    outer loop
      vertex 7 3.4 3.5
      vertex 0.000999451 1.2 2.5
      vertex 0.000999451 3.4 3.5
    endloop
  endfacet
  facet normal -1 0 0
    outer loop
      vertex 7 8.4 0
      vertex 7 6.4 3.5
      vertex 7 8.4 2.5
    endloop
  endfacet
  facet normal -1 0 0
    outer loop
      vertex 7 8.4 0
      vertex 7 3.4 3.5
      vertex 7 6.4 3.5
    endloop
  endfacet
  facet normal -1 0 0
    outer loop
      vertex 7 1.2 0
      vertex 7 3.4 3.5
      vertex 7 8.4 0
    endloop
  endfacet
  facet normal -1 0 0
    outer loop
      vertex 7 3.4 3.5
      vertex 7 1.2 0
      vertex 7 1.2 2.5
    endloop
  endfacet
  facet normal 0 0 1
    outer loop
      vertex 86.6796 -5.51098 3.5
      vertex 85.9549 -8.21557 3.5
      vertex 86.01 -8.23032 3.5
    endloop
  endfacet
  facet normal 0 0 1
    outer loop
      vertex 81.5809 -2.02362 3.5
      vertex 85.8125 -8.74729 3.5
      vertex 85.9549 -8.21557 3.5
    endloop
  endfacet
  facet normal 0 0 1
    outer loop
      vertex 81.5809 -2.02362 3.5
      vertex 86.6796 -5.51098 3.5
      vertex 87.2228 -3.48373 3.5
    endloop
  endfacet
  facet normal 0 0 1
    outer loop
      vertex 81.5809 -2.02362 3.5
      vertex 85.9549 -8.21557 3.5
      vertex 86.6796 -5.51098 3.5
    endloop
  endfacet
  facet normal 0 0 1
    outer loop
      vertex 85.8125 -8.74729 3.5
      vertex 81.5809 -2.02362 3.5
      vertex 77.6066 -12.7087 3.5
    endloop
  endfacet
  facet normal 0 0 1
    outer loop
      vertex 85.8125 -8.74729 3.5
      vertex 77.6066 -12.7087 3.5
      vertex 84.2724 -14.4948 3.5
    endloop
  endfacet
  facet normal 0 0 1
    outer loop
      vertex 70.1123 0.625955 3.5
      vertex 77.6066 -12.7087 3.5
      vertex 75.8582 -0.648758 3.5
    endloop
  endfacet
  facet normal 0 0 1
    outer loop
      vertex 75.8582 -0.648758 3.5
      vertex 77.6066 -12.7087 3.5
      vertex 81.5809 -2.02362 3.5
    endloop
  endfacet
  facet normal 0 0 1
    outer loop
      vertex 86.7351 -5.52585 3.5
      vertex 86.6796 -5.51098 3.5
      vertex 86.01 -8.23032 3.5
    endloop
  endfacet
  facet normal 0 0 1
    outer loop
      vertex 83.496 -17.3926 3.5
      vertex 77.7077 -17.5477 3.5
      vertex 83.0817 -18.9385 3.5
    endloop
  endfacet
  facet normal 0 0 1
    outer loop
      vertex 76.8301 -15.6065 3.5
      vertex 77.7077 -17.5477 3.5
      vertex 83.496 -17.3926 3.5
    endloop
  endfacet
  facet normal 0 0 1
    outer loop
      vertex 76.8301 -15.6065 3.5
      vertex 72.2566 -16.2381 3.5
      vertex 77.7077 -17.5477 3.5
    endloop
  endfacet
  facet normal 0 0 1
    outer loop
      vertex 77.6066 -12.7087 3.5
      vertex 72.2566 -16.2381 3.5
      vertex 76.8301 -15.6065 3.5
    endloop
  endfacet
  facet normal 0 0 1
    outer loop
      vertex 66.7835 -15.0239 3.5
      vertex 77.6066 -12.7087 3.5
      vertex 70.1123 0.625955 3.5
    endloop
  endfacet
  facet normal 0 0 1
    outer loop
      vertex 77.6066 -12.7087 3.5
      vertex 66.7835 -15.0239 3.5
      vertex 72.2566 -16.2381 3.5
    endloop
  endfacet
  facet normal 0 0 1
    outer loop
      vertex 64.345 1.80013 3.5
      vertex 66.7835 -15.0239 3.5
      vertex 70.1123 0.625955 3.5
    endloop
  endfacet
  facet normal 0 0 1
    outer loop
      vertex 64.345 1.80013 3.5
      vertex 61.29 -13.9055 3.5
      vertex 66.7835 -15.0239 3.5
    endloop
  endfacet
  facet normal 0 0 1
    outer loop
      vertex 58.5581 2.8734 3.5
      vertex 61.29 -13.9055 3.5
      vertex 64.345 1.80013 3.5
    endloop
  endfacet
  facet normal 0 0 1
    outer loop
      vertex 58.5581 2.8734 3.5
      vertex 55.7778 -12.8832 3.5
      vertex 61.29 -13.9055 3.5
    endloop
  endfacet
  facet normal 0 0 1
    outer loop
      vertex 52.7533 3.84545 3.5
      vertex 55.7778 -12.8832 3.5
      vertex 58.5581 2.8734 3.5
    endloop
  endfacet
  facet normal 0 0 1
    outer loop
      vertex 52.7533 3.84545 3.5
      vertex 50.2487 -11.9573 3.5
      vertex 55.7778 -12.8832 3.5
    endloop
  endfacet
  facet normal 0 0 1
    outer loop
      vertex 46.9324 4.71597 3.5
      vertex 50.2487 -11.9573 3.5
      vertex 52.7533 3.84545 3.5
    endloop
  endfacet
  facet normal 0 0 1
    outer loop
      vertex 46.9324 4.71597 3.5
      vertex 44.7042 -11.1281 3.5
      vertex 50.2487 -11.9573 3.5
    endloop
  endfacet
  facet normal 0 0 1
    outer loop
      vertex 41.0972 5.48471 3.5
      vertex 44.7042 -11.1281 3.5
      vertex 46.9324 4.71597 3.5
    endloop
  endfacet
  facet normal 0 0 1
    outer loop
      vertex 41.0972 5.48471 3.5
      vertex 39.146 -10.3959 3.5
      vertex 44.7042 -11.1281 3.5
    endloop
  endfacet
  facet normal 0 0 1
    outer loop
      vertex 35.2495 6.15142 3.5
      vertex 39.146 -10.3959 3.5
      vertex 41.0972 5.48471 3.5
    endloop
  endfacet
  facet normal 0 0 1
    outer loop
      vertex 35.2495 6.15142 3.5
      vertex 33.5759 -9.76081 3.5
      vertex 39.146 -10.3959 3.5
    endloop
  endfacet
  facet normal 0 0 1
    outer loop
      vertex 29.391 6.7159 3.5
      vertex 33.5759 -9.76081 3.5
      vertex 35.2495 6.15142 3.5
    endloop
  endfacet
  facet normal 0 0 1
    outer loop
      vertex 29.391 6.7159 3.5
      vertex 27.9956 -9.22313 3.5
      vertex 33.5759 -9.76081 3.5
    endloop
  endfacet
  facet normal 0 0 1
    outer loop
      vertex 23.5236 7.17799 3.5
      vertex 27.9956 -9.22313 3.5
      vertex 29.391 6.7159 3.5
    endloop
  endfacet
  facet normal 0 0 1
    outer loop
      vertex 23.5236 7.17799 3.5
      vertex 22.4067 -8.78298 3.5
      vertex 27.9956 -9.22313 3.5
    endloop
  endfacet
  facet normal 0 0 1
    outer loop
      vertex 17.649 7.53754 3.5
      vertex 22.4067 -8.78298 3.5
      vertex 23.5236 7.17799 3.5
    endloop
  endfacet
  facet normal 0 0 1
    outer loop
      vertex 17.649 7.53754 3.5
      vertex 16.811 -8.44051 3.5
      vertex 22.4067 -8.78298 3.5
    endloop
  endfacet
  facet normal 0 0 1
    outer loop
      vertex 7 3.4 3.5
      vertex 17.649 7.53754 3.5
      vertex 11.769 7.79443 3.5
    endloop
  endfacet
  facet normal 0 0 1
    outer loop
      vertex 17.649 7.53754 3.5
      vertex 7 3.4 3.5
      vertex 16.811 -8.44051 3.5
    endloop
  endfacet
  facet normal 0 0 1
    outer loop
      vertex 7 3.4 3.5
      vertex 11.769 7.79443 3.5
      vertex 7 6.4 3.5
    endloop
  endfacet
  facet normal 0 0 1
    outer loop
      vertex 5.88538 7.9486 3.5
      vertex 7 6.4 3.5
      vertex 11.769 7.79443 3.5
    endloop
  endfacet
  facet normal 0 0 1
    outer loop
      vertex 0.000999451 6.4 3.5
      vertex 5.88538 7.9486 3.5
      vertex 0.000999451 7.99999 3.5
    endloop
  endfacet
  facet normal 0 0 1
    outer loop
      vertex 5.88538 7.9486 3.5
      vertex 0.000999451 6.4 3.5
      vertex 7 6.4 3.5
    endloop
  endfacet
  facet normal 0 0 1
    outer loop
      vertex 16.811 -8.44051 3.5
      vertex 7 3.4 3.5
      vertex 11.2102 -8.1958 3.5
    endloop
  endfacet
  facet normal 0 0 1
    outer loop
      vertex 7 3.4 3.5
      vertex 5.60596 -8.04895 3.5
      vertex 11.2102 -8.1958 3.5
    endloop
  endfacet
  facet normal -0 0 1
    outer loop
      vertex 0.000999451 3.4 3.5
      vertex 5.60596 -8.04895 3.5
      vertex 7 3.4 3.5
    endloop
  endfacet
  facet normal 0 0 1
    outer loop
      vertex 5.60596 -8.04895 3.5
      vertex 0.000999451 3.4 3.5
      vertex 0.000999451 -8.00001 3.5
    endloop
  endfacet
  facet normal -0 0 1
    outer loop
      vertex 0 -3.101 3.5
      vertex 5.49316e-07 -5.901 3.5
      vertex 5.49316e-07 -3.101 3.5
    endloop
  endfacet
  facet normal 0 0 1
    outer loop
      vertex 5.49316e-07 -5.901 3.5
      vertex 0 -3.101 3.5
      vertex 0 -5.901 3.5
    endloop
  endfacet
  facet normal 1 -0 0
    outer loop
      vertex 0 -5.901 4.6
      vertex 0 -3.101 3.5
      vertex 0 -3.101 4.6
    endloop
  endfacet
  facet normal 1 0 0
    outer loop
      vertex 0 -3.101 3.5
      vertex 0 -5.901 4.6
      vertex 0 -5.901 3.5
    endloop
  endfacet
  facet normal -0.965887 0.258965 0
    outer loop
      vertex 86.7351 -5.52585 3.5
      vertex 86.01 -8.23032 3.5
      vertex 86.7351 -5.52585 4.6
    endloop
  endfacet
  facet normal -0.965843 0.259126 0
    outer loop
      vertex 86.7351 -5.52585 4.6
      vertex 86.8131 -5.23512 5.2
      vertex 86.8131 -5.23512 4.6
    endloop
  endfacet
  facet normal -0.965887 0.258965 0
    outer loop
      vertex 86.01 -8.23032 4.6
      vertex 86.7351 -5.52585 4.6
      vertex 86.01 -8.23032 3.5
    endloop
  endfacet
  facet normal -0.965887 0.258965 8.35343e-05
    outer loop
      vertex 86.7351 -5.52585 4.6
      vertex 86.01 -8.23032 4.6
      vertex 86.8131 -5.23512 5.2
    endloop
  endfacet
  facet normal -0.965829 0.259182 0
    outer loop
      vertex 85.9325 -8.51912 5.2
      vertex 86.01 -8.23032 4.6
      vertex 85.9325 -8.51912 4.6
    endloop
  endfacet
  facet normal -0.965878 0.258999 -9.44701e-05
    outer loop
      vertex 86.01 -8.23032 4.6
      vertex 85.9325 -8.51912 5.2
      vertex 86.8131 -5.23512 5.2
    endloop
  endfacet
  facet normal 0.00873122 0.999962 -0
    outer loop
      vertex 5.60596 -8.04895 3.5
      vertex 0.000999451 -8.00001 5
      vertex 5.60596 -8.04895 5
    endloop
  endfacet
  facet normal 0.00873122 0.999962 0
    outer loop
      vertex 0.000999451 -8.00001 5
      vertex 5.60596 -8.04895 3.5
      vertex 0.000999451 -8.00001 3.5
    endloop
  endfacet
  facet normal -0.00873296 -0.999962 0
    outer loop
      vertex 0.000999451 7.99999 3.5
      vertex 5.88538 7.9486 5
      vertex 0.000999451 7.99999 5
    endloop
  endfacet
  facet normal -0.00873296 -0.999962 -0
    outer loop
      vertex 5.88538 7.9486 5
      vertex 0.000999451 7.99999 3.5
      vertex 5.88538 7.9486 3.5
    endloop
  endfacet
  facet normal 0.0261944 0.999657 -0
    outer loop
      vertex 11.2102 -8.1958 3.5
      vertex 5.60596 -8.04895 5
      vertex 11.2102 -8.1958 5
    endloop
  endfacet
  facet normal 0.0261944 0.999657 0
    outer loop
      vertex 5.60596 -8.04895 5
      vertex 11.2102 -8.1958 3.5
      vertex 5.60596 -8.04895 3.5
    endloop
  endfacet
  facet normal -0.0261943 -0.999657 0
    outer loop
      vertex 5.88538 7.9486 3.5
      vertex 11.769 7.79443 5
      vertex 5.88538 7.9486 5
    endloop
  endfacet
  facet normal -0.0261943 -0.999657 -0
    outer loop
      vertex 11.769 7.79443 5
      vertex 5.88538 7.9486 3.5
      vertex 11.769 7.79443 3.5
    endloop
  endfacet
  facet normal 0.0436503 0.999047 -0
    outer loop
      vertex 16.811 -8.44051 3.5
      vertex 11.2102 -8.1958 5
      vertex 16.811 -8.44051 5
    endloop
  endfacet
  facet normal 0.0436503 0.999047 0
    outer loop
      vertex 11.2102 -8.1958 5
      vertex 16.811 -8.44051 3.5
      vertex 11.2102 -8.1958 3.5
    endloop
  endfacet
  facet normal -0.0436471 -0.999047 0
    outer loop
      vertex 11.769 7.79443 3.5
      vertex 17.649 7.53754 5
      vertex 11.769 7.79443 5
    endloop
  endfacet
  facet normal -0.0436471 -0.999047 -0
    outer loop
      vertex 17.649 7.53754 5
      vertex 11.769 7.79443 3.5
      vertex 17.649 7.53754 3.5
    endloop
  endfacet
  facet normal 0.061088 0.998132 -0
    outer loop
      vertex 22.4067 -8.78298 3.5
      vertex 16.811 -8.44051 5
      vertex 22.4067 -8.78298 5
    endloop
  endfacet
  facet normal 0.061088 0.998132 0
    outer loop
      vertex 16.811 -8.44051 5
      vertex 22.4067 -8.78298 3.5
      vertex 16.811 -8.44051 3.5
    endloop
  endfacet
  facet normal -0.0610899 -0.998132 0
    outer loop
      vertex 17.649 7.53754 3.5
      vertex 23.5236 7.17799 5
      vertex 17.649 7.53754 5
    endloop
  endfacet
  facet normal -0.0610899 -0.998132 -0
    outer loop
      vertex 23.5236 7.17799 5
      vertex 17.649 7.53754 3.5
      vertex 23.5236 7.17799 3.5
    endloop
  endfacet
  facet normal 0.0785112 0.996913 -0
    outer loop
      vertex 27.9956 -9.22313 3.5
      vertex 22.4067 -8.78298 5
      vertex 27.9956 -9.22313 5
    endloop
  endfacet
  facet normal 0.0785112 0.996913 0
    outer loop
      vertex 22.4067 -8.78298 5
      vertex 27.9956 -9.22313 3.5
      vertex 22.4067 -8.78298 3.5
    endloop
  endfacet
  facet normal -0.0785124 -0.996913 0
    outer loop
      vertex 23.5236 7.17799 3.5
      vertex 29.391 6.7159 5
      vertex 23.5236 7.17799 5
    endloop
  endfacet
  facet normal -0.0785124 -0.996913 -0
    outer loop
      vertex 29.391 6.7159 5
      vertex 23.5236 7.17799 3.5
      vertex 29.391 6.7159 3.5
    endloop
  endfacet
  facet normal 0.0959091 0.99539 -0
    outer loop
      vertex 33.5759 -9.76081 3.5
      vertex 27.9956 -9.22313 5
      vertex 33.5759 -9.76081 5
    endloop
  endfacet
  facet normal 0.0959091 0.99539 0
    outer loop
      vertex 27.9956 -9.22313 5
      vertex 33.5759 -9.76081 3.5
      vertex 27.9956 -9.22313 3.5
    endloop
  endfacet
  facet normal -0.0959081 -0.99539 0
    outer loop
      vertex 29.391 6.7159 3.5
      vertex 35.2495 6.15142 5
      vertex 29.391 6.7159 5
    endloop
  endfacet
  facet normal -0.0959081 -0.99539 -0
    outer loop
      vertex 35.2495 6.15142 5
      vertex 29.391 6.7159 3.5
      vertex 35.2495 6.15142 3.5
    endloop
  endfacet
  facet normal 0.113284 0.993563 -0
    outer loop
      vertex 39.146 -10.3959 3.5
      vertex 33.5759 -9.76081 5
      vertex 39.146 -10.3959 5
    endloop
  endfacet
  facet normal 0.113284 0.993563 0
    outer loop
      vertex 33.5759 -9.76081 5
      vertex 39.146 -10.3959 3.5
      vertex 33.5759 -9.76081 3.5
    endloop
  endfacet
  facet normal -0.113278 -0.993563 0
    outer loop
      vertex 35.2495 6.15142 3.5
      vertex 41.0972 5.48471 5
      vertex 35.2495 6.15142 5
    endloop
  endfacet
  facet normal -0.113278 -0.993563 -0
    outer loop
      vertex 41.0972 5.48471 5
      vertex 35.2495 6.15142 3.5
      vertex 41.0972 5.48471 3.5
    endloop
  endfacet
  facet normal 0.130605 0.991434 -0
    outer loop
      vertex 44.7042 -11.1281 3.5
      vertex 39.146 -10.3959 5
      vertex 44.7042 -11.1281 5
    endloop
  endfacet
  facet normal 0.130605 0.991434 0
    outer loop
      vertex 39.146 -10.3959 5
      vertex 44.7042 -11.1281 3.5
      vertex 39.146 -10.3959 3.5
    endloop
  endfacet
  facet normal -0.130613 -0.991433 0
    outer loop
      vertex 41.0972 5.48471 3.5
      vertex 46.9324 4.71597 5
      vertex 41.0972 5.48471 5
    endloop
  endfacet
  facet normal -0.130613 -0.991433 -0
    outer loop
      vertex 46.9324 4.71597 5
      vertex 41.0972 5.48471 3.5
      vertex 46.9324 4.71597 3.5
    endloop
  endfacet
  facet normal 0.147909 0.989001 -0
    outer loop
      vertex 50.2487 -11.9573 3.5
      vertex 44.7042 -11.1281 5
      vertex 50.2487 -11.9573 5
    endloop
  endfacet
  facet normal 0.147909 0.989001 0
    outer loop
      vertex 44.7042 -11.1281 5
      vertex 50.2487 -11.9573 3.5
      vertex 44.7042 -11.1281 3.5
    endloop
  endfacet
  facet normal -0.147906 -0.989001 0
    outer loop
      vertex 46.9324 4.71597 3.5
      vertex 52.7533 3.84545 5
      vertex 46.9324 4.71597 5
    endloop
  endfacet
  facet normal -0.147906 -0.989001 -0
    outer loop
      vertex 52.7533 3.84545 5
      vertex 46.9324 4.71597 3.5
      vertex 52.7533 3.84545 3.5
    endloop
  endfacet
  facet normal 0.16516 0.986267 -0
    outer loop
      vertex 55.7778 -12.8832 3.5
      vertex 50.2487 -11.9573 5
      vertex 55.7778 -12.8832 5
    endloop
  endfacet
  facet normal 0.16516 0.986267 0
    outer loop
      vertex 50.2487 -11.9573 5
      vertex 55.7778 -12.8832 3.5
      vertex 50.2487 -11.9573 3.5
    endloop
  endfacet
  facet normal -0.165157 -0.986267 0
    outer loop
      vertex 52.7533 3.84545 3.5
      vertex 58.5581 2.8734 5
      vertex 52.7533 3.84545 5
    endloop
  endfacet
  facet normal -0.165157 -0.986267 -0
    outer loop
      vertex 58.5581 2.8734 5
      vertex 52.7533 3.84545 3.5
      vertex 58.5581 2.8734 3.5
    endloop
  endfacet
  facet normal 0.182352 0.983233 -0
    outer loop
      vertex 61.29 -13.9055 3.5
      vertex 55.7778 -12.8832 5
      vertex 61.29 -13.9055 5
    endloop
  endfacet
  facet normal 0.182352 0.983233 0
    outer loop
      vertex 55.7778 -12.8832 5
      vertex 61.29 -13.9055 3.5
      vertex 55.7778 -12.8832 3.5
    endloop
  endfacet
  facet normal -0.182356 -0.983233 0
    outer loop
      vertex 58.5581 2.8734 3.5
      vertex 64.345 1.80013 5
      vertex 58.5581 2.8734 5
    endloop
  endfacet
  facet normal -0.182356 -0.983233 -0
    outer loop
      vertex 64.345 1.80013 5
      vertex 58.5581 2.8734 3.5
      vertex 64.345 1.80013 3.5
    endloop
  endfacet
  facet normal 0.199494 0.979899 -0
    outer loop
      vertex 66.7835 -15.0239 3.5
      vertex 61.29 -13.9055 5
      vertex 66.7835 -15.0239 5
    endloop
  endfacet
  facet normal 0.199494 0.979899 0
    outer loop
      vertex 61.29 -13.9055 5
      vertex 66.7835 -15.0239 3.5
      vertex 61.29 -13.9055 3.5
    endloop
  endfacet
  facet normal -0.199499 -0.979898 0
    outer loop
      vertex 64.345 1.80013 3.5
      vertex 70.1123 0.625955 5
      vertex 64.345 1.80013 5
    endloop
  endfacet
  facet normal -0.199499 -0.979898 -0
    outer loop
      vertex 70.1123 0.625955 5
      vertex 64.345 1.80013 3.5
      vertex 70.1123 0.625955 3.5
    endloop
  endfacet
  facet normal 0.216583 0.976264 -0
    outer loop
      vertex 72.2566 -16.2381 3.5
      vertex 66.7835 -15.0239 5
      vertex 72.2566 -16.2381 5
    endloop
  endfacet
  facet normal 0.216583 0.976264 0
    outer loop
      vertex 66.7835 -15.0239 5
      vertex 72.2566 -16.2381 3.5
      vertex 66.7835 -15.0239 3.5
    endloop
  endfacet
  facet normal -0.216582 -0.976264 0
    outer loop
      vertex 70.1123 0.625955 3.5
      vertex 75.8582 -0.648758 5
      vertex 70.1123 0.625955 5
    endloop
  endfacet
  facet normal -0.216582 -0.976264 -0
    outer loop
      vertex 75.8582 -0.648758 5
      vertex 70.1123 0.625955 3.5
      vertex 75.8582 -0.648758 3.5
    endloop
  endfacet
  facet normal 0.233598 0.972333 -0
    outer loop
      vertex 77.7077 -17.5477 3.5
      vertex 72.2566 -16.2381 5
      vertex 77.7077 -17.5477 5
    endloop
  endfacet
  facet normal 0.233598 0.972333 0
    outer loop
      vertex 72.2566 -16.2381 5
      vertex 77.7077 -17.5477 3.5
      vertex 72.2566 -16.2381 3.5
    endloop
  endfacet
  facet normal -0.2336 -0.972333 0
    outer loop
      vertex 75.8582 -0.648758 3.5
      vertex 81.5809 -2.02362 5
      vertex 75.8582 -0.648758 5
    endloop
  endfacet
  facet normal -0.2336 -0.972333 -0
    outer loop
      vertex 81.5809 -2.02362 5
      vertex 75.8582 -0.648758 3.5
      vertex 81.5809 -2.02362 3.5
    endloop
  endfacet
  facet normal 0.250547 0.968104 -0
    outer loop
      vertex 83.0817 -18.9385 3.5
      vertex 77.7077 -17.5477 5
      vertex 83.0817 -18.9385 5
    endloop
  endfacet
  facet normal 0.250547 0.968104 0
    outer loop
      vertex 77.7077 -17.5477 5
      vertex 83.0817 -18.9385 3.5
      vertex 77.7077 -17.5477 3.5
    endloop
  endfacet
  facet normal -0.250543 -0.968105 0
    outer loop
      vertex 81.5809 -2.02362 5
      vertex 87.2228 -3.48373 4.76727
      vertex 87.2228 -3.48373 5
    endloop
  endfacet
  facet normal -0.250543 -0.968105 0
    outer loop
      vertex 81.5809 -2.02362 3.5
      vertex 87.2228 -3.48373 4.76727
      vertex 81.5809 -2.02362 5
    endloop
  endfacet
  facet normal -0.250543 -0.968105 -0
    outer loop
      vertex 87.2228 -3.48373 4.76727
      vertex 81.5809 -2.02362 3.5
      vertex 87.2228 -3.48373 3.5
    endloop
  endfacet
  facet normal -0.1071 -0.399701 -0.910368
    outer loop
      vertex 77.6066 -12.7087 3.5
      vertex 84.7937 -12.5495 2.58458
      vertex 84.2724 -14.4948 3.5
    endloop
  endfacet
  facet normal -0.107124 -0.399792 -0.910325
    outer loop
      vertex 84.7937 -12.5495 2.58458
      vertex 78.176 -10.5837 2.5
      vertex 84.8418 -12.3698 2.5
    endloop
  endfacet
  facet normal -0.107099 -0.399709 -0.910364
    outer loop
      vertex 84.7937 -12.5495 2.58458
      vertex 77.6066 -12.7087 3.5
      vertex 78.176 -10.5837 2.5
    endloop
  endfacet
  facet normal 0.965925 -0.258822 0
    outer loop
      vertex 76.3125 -17.5383 2.5
      vertex 78.176 -10.5837 0
      vertex 78.176 -10.5837 2.5
    endloop
  endfacet
  facet normal 0.965925 -0.258822 0
    outer loop
      vertex 78.176 -10.5837 0
      vertex 76.3125 -17.5383 2.5
      vertex 76.3125 -17.5383 0
    endloop
  endfacet
  facet normal 0.25882 0.965926 -0
    outer loop
      vertex 82.9783 -19.3244 0.953428
      vertex 76.3125 -17.5383 2.5
      vertex 82.9783 -19.3244 2.5
    endloop
  endfacet
  facet normal 0.25882 0.965926 0
    outer loop
      vertex 76.3125 -17.5383 0
      vertex 82.9783 -19.3244 0.953428
      vertex 82.9783 -19.3244 0
    endloop
  endfacet
  facet normal 0.25882 0.965926 0
    outer loop
      vertex 82.9783 -19.3244 0.953428
      vertex 76.3125 -17.5383 0
      vertex 76.3125 -17.5383 2.5
    endloop
  endfacet
  facet normal -0.25882 -0.965926 0
    outer loop
      vertex 78.176 -10.5837 0
      vertex 84.8418 -12.3698 2.5
      vertex 78.176 -10.5837 2.5
    endloop
  endfacet
  facet normal -0.25882 -0.965926 -0
    outer loop
      vertex 84.8418 -12.3698 2.5
      vertex 78.176 -10.5837 0
      vertex 84.8418 -12.3698 0
    endloop
  endfacet
  facet normal 0.965923 -0.25883 4.71395e-05
    outer loop
      vertex 77.6066 -12.7087 3.5
      vertex 76.8301 -15.6065 3.5
      vertex 76.3125 -17.5383 2.5
    endloop
  endfacet
  facet normal 0.965925 -0.258822 1.63057e-06
    outer loop
      vertex 78.176 -10.5837 2.5
      vertex 77.6066 -12.7087 3.5
      vertex 76.3125 -17.5383 2.5
    endloop
  endfacet
  facet normal 0.115749 0.431978 -0.894425
    outer loop
      vertex 83.4886 -17.4199 3.48585
      vertex 82.9783 -19.3244 2.5
      vertex 76.3125 -17.5383 2.5
    endloop
  endfacet
  facet normal 0.115795 0.432158 -0.894333
    outer loop
      vertex 83.4886 -17.4199 3.48585
      vertex 76.8301 -15.6065 3.5
      vertex 83.496 -17.3926 3.5
    endloop
  endfacet
  facet normal 0.115748 0.431986 -0.894422
    outer loop
      vertex 76.8301 -15.6065 3.5
      vertex 83.4886 -17.4199 3.48585
      vertex 76.3125 -17.5383 2.5
    endloop
  endfacet
endsolid OpenSCAD_Model
