solid OpenSCAD_Model
  facet normal -1 0 0
    outer loop
      vertex -5.999 -8 0
      vertex -5.999 -5.901 2.6
      vertex -5.999 -5.901 0
    endloop
  endfacet
  facet normal -1 -0 0
    outer loop
      vertex -5.999 -5.901 2.6
      vertex -5.999 -8 0
      vertex -5.999 -8 2.6
    endloop
  endfacet
  facet normal -1 0 0
    outer loop
      vertex -5.999 -3.101 0
      vertex -5.999 -1 2.6
      vertex -5.999 -1 0
    endloop
  endfacet
  facet normal -1 -0 0
    outer loop
      vertex -5.999 -1 2.6
      vertex -5.999 -3.101 0
      vertex -5.999 -3.101 2.6
    endloop
  endfacet
  facet normal 0 0 1
    outer loop
      vertex 0.000999451 -1 2.6
      vertex 5.49316e-07 -3.101 2.6
      vertex 0.000999451 -8 2.6
    endloop
  endfacet
  facet normal -0 0 1
    outer loop
      vertex -5.999 -1 2.6
      vertex 5.49316e-07 -3.101 2.6
      vertex 0.000999451 -1 2.6
    endloop
  endfacet
  facet normal 0 0 1
    outer loop
      vertex 5.49316e-07 -3.101 2.6
      vertex -5.999 -1 2.6
      vertex -5.999 -3.101 2.6
    endloop
  endfacet
  facet normal -0 0 1
    outer loop
      vertex 5.49316e-07 -5.901 2.6
      vertex 0.000999451 -8 2.6
      vertex 5.49316e-07 -3.101 2.6
    endloop
  endfacet
  facet normal -0 0 1
    outer loop
      vertex -5.999 -5.901 2.6
      vertex 0.000999451 -8 2.6
      vertex 5.49316e-07 -5.901 2.6
    endloop
  endfacet
  facet normal 0 0 1
    outer loop
      vertex 0.000999451 -8 2.6
      vertex -5.999 -5.901 2.6
      vertex -5.999 -8 2.6
    endloop
  endfacet
  facet normal 0 0 -1
    outer loop
      vertex 18.8005 -13.3208 0
      vertex 22.9763 -9.60419 0
      vertex 22.5478 -13.6816 0
    endloop
  endfacet
  facet normal 0 0 -1
    outer loop
      vertex 18.8005 -13.3208 0
      vertex 16.1132 -8.88284 0
      vertex 22.9763 -9.60419 0
    endloop
  endfacet
  facet normal 0 -0 -1
    outer loop
      vertex 16.1132 -8.88284 0
      vertex 18.8005 -13.3208 0
      vertex 15.0475 -13.0254 0
    endloop
  endfacet
  facet normal -0 0 -1
    outer loop
      vertex 30.4373 3.99129 0
      vertex 30.1447 1.20663 0
      vertex 30.4363 3.9914 0
    endloop
  endfacet
  facet normal 0 0 -1
    outer loop
      vertex 30.1437 1.20674 0
      vertex 30.4363 3.9914 0
      vertex 30.1447 1.20663 0
    endloop
  endfacet
  facet normal 0 0 -1
    outer loop
      vertex 24.6906 6.70586 0
      vertex 30.4363 3.9914 0
      vertex 30.1437 1.20674 0
    endloop
  endfacet
  facet normal 0 0 -1
    outer loop
      vertex 30.4363 3.9914 0
      vertex 24.6906 6.70586 0
      vertex 30.6558 6.0789 0
    endloop
  endfacet
  facet normal 0 0 -1
    outer loop
      vertex 23.9589 -0.255789 0
      vertex 30.1437 1.20674 0
      vertex 29.9241 -0.882752 0
    endloop
  endfacet
  facet normal -0 0 -1
    outer loop
      vertex 30.1437 1.20674 0
      vertex 23.9589 -0.255789 0
      vertex 24.6906 6.70586 0
    endloop
  endfacet
  facet normal 0 0 -1
    outer loop
      vertex 16.8658 -1.72228 0
      vertex 23.9589 -0.255789 0
      vertex 23.7289 -2.44363 0
    endloop
  endfacet
  facet normal 0 0 -1
    outer loop
      vertex 24.6906 6.70586 0
      vertex 20.9794 11.5841 0
      vertex 25.161 11.1814 0
    endloop
  endfacet
  facet normal -0 0 -1
    outer loop
      vertex 23.9589 -0.255789 0
      vertex 16.8658 -1.72228 0
      vertex 24.6906 6.70586 0
    endloop
  endfacet
  facet normal 0 0 -1
    outer loop
      vertex 16.7914 11.9137 0
      vertex 24.6906 6.70586 0
      vertex 16.8658 -1.72228 0
    endloop
  endfacet
  facet normal 0 0 -1
    outer loop
      vertex 24.6906 6.70586 0
      vertex 16.7914 11.9137 0
      vertex 20.9794 11.5841 0
    endloop
  endfacet
  facet normal 0 0 -1
    outer loop
      vertex 7 1.2 0
      vertex 16.8658 -1.72228 0
      vertex 16.1132 -8.88284 0
    endloop
  endfacet
  facet normal 0 0 -1
    outer loop
      vertex 11.2899 -12.7956 0
      vertex 16.1132 -8.88284 0
      vertex 15.0475 -13.0254 0
    endloop
  endfacet
  facet normal 0 -0 -1
    outer loop
      vertex 12.5983 12.1701 0
      vertex 16.8658 -1.72228 0
      vertex 7 1.2 0
    endloop
  endfacet
  facet normal 0 0 -1
    outer loop
      vertex 7.52882 -12.6314 0
      vertex 16.1132 -8.88284 0
      vertex 11.2899 -12.7956 0
    endloop
  endfacet
  facet normal 0 0 -1
    outer loop
      vertex 16.8658 -1.72228 0
      vertex 12.5983 12.1701 0
      vertex 16.7914 11.9137 0
    endloop
  endfacet
  facet normal -0 0 -1
    outer loop
      vertex 16.1132 -8.88284 0
      vertex 7.52882 -12.6314 0
      vertex 7 1.2 0
    endloop
  endfacet
  facet normal 0 0 -1
    outer loop
      vertex 7 8.4 0
      vertex 12.5983 12.1701 0
      vertex 7 1.2 0
    endloop
  endfacet
  facet normal -0 0 -1
    outer loop
      vertex 12.5983 12.1701 0
      vertex 7 8.4 0
      vertex 8.40131 12.3534 0
    endloop
  endfacet
  facet normal 0 0 -1
    outer loop
      vertex 7 8.4 0
      vertex 4.20179 12.4633 0
      vertex 8.40131 12.3534 0
    endloop
  endfacet
  facet normal 0 0 -1
    outer loop
      vertex 0.000999451 8.4 0
      vertex 4.20179 12.4633 0
      vertex 7 8.4 0
    endloop
  endfacet
  facet normal -0 0 -1
    outer loop
      vertex 4.20179 12.4633 0
      vertex 0.000999451 8.4 0
      vertex 0.000999451 12.5 0
    endloop
  endfacet
  facet normal 0 0 -1
    outer loop
      vertex -6 -5.901 0
      vertex -5.999 -3.101 0
      vertex -5.999 -5.901 0
    endloop
  endfacet
  facet normal -0 0 -1
    outer loop
      vertex -5.999 -3.101 0
      vertex -6 -5.901 0
      vertex -6 -3.101 0
    endloop
  endfacet
  facet normal 0 0 -1
    outer loop
      vertex -5.999 -5.901 0
      vertex 0.000999451 -8 0
      vertex -5.999 -8 0
    endloop
  endfacet
  facet normal 0 0 -1
    outer loop
      vertex 0.000999451 -8 0
      vertex -5.999 -5.901 0
      vertex 0.000999451 -1 0
    endloop
  endfacet
  facet normal 0 0 -1
    outer loop
      vertex -5.999 -3.101 0
      vertex 0.000999451 -1 0
      vertex -5.999 -5.901 0
    endloop
  endfacet
  facet normal -0 0 -1
    outer loop
      vertex 0.000999451 -1 0
      vertex -5.999 -3.101 0
      vertex -5.999 -1 0
    endloop
  endfacet
  facet normal 0 0 -1
    outer loop
      vertex 0.000999451 -8 0
      vertex 7.52882 -12.6314 0
      vertex 3.76548 -12.5329 0
    endloop
  endfacet
  facet normal 0 0 -1
    outer loop
      vertex 0.000999451 -8 0
      vertex 3.76548 -12.5329 0
      vertex 0.000999451 -12.5 0
    endloop
  endfacet
  facet normal 0 0 -1
    outer loop
      vertex 7.52882 -12.6314 0
      vertex 0.000999451 -8 0
      vertex 7 1.2 0
    endloop
  endfacet
  facet normal 0 0 -1
    outer loop
      vertex 0.000999451 -1 0
      vertex 7 1.2 0
      vertex 0.000999451 -8 0
    endloop
  endfacet
  facet normal -0 0 -1
    outer loop
      vertex 7 1.2 0
      vertex 0.000999451 -1 0
      vertex 0.000999451 1.2 0
    endloop
  endfacet
  facet normal 0 -1 0
    outer loop
      vertex -5.999 -8 0
      vertex 0.000999451 -8 2.6
      vertex -5.999 -8 2.6
    endloop
  endfacet
  facet normal 0 -1 -0
    outer loop
      vertex 0.000999451 -8 2.6
      vertex -5.999 -8 0
      vertex 0.000999451 -8 0
    endloop
  endfacet
  facet normal 0 1 -0
    outer loop
      vertex 0.000999451 -1 0
      vertex -5.999 -1 2.6
      vertex 0.000999451 -1 2.6
    endloop
  endfacet
  facet normal 0 1 0
    outer loop
      vertex -5.999 -1 2.6
      vertex 0.000999451 -1 0
      vertex -5.999 -1 0
    endloop
  endfacet
  facet normal -1 0 0
    outer loop
      vertex -6 -5.901 0
      vertex -6 -3.101 4.6
      vertex -6 -3.101 0
    endloop
  endfacet
  facet normal -1 -0 0
    outer loop
      vertex -6 -3.101 4.6
      vertex -6 -5.901 0
      vertex -6 -5.901 4.6
    endloop
  endfacet
  facet normal 0 0 -1
    outer loop
      vertex -0.000999855 -6.202 4.6
      vertex -6 -5.901 4.6
      vertex -0.000999855 -5.901 4.6
    endloop
  endfacet
  facet normal -0 0 -1
    outer loop
      vertex -6 -5.901 4.6
      vertex -6.001 -6.202 4.6
      vertex -6 -3.101 4.6
    endloop
  endfacet
  facet normal 0 0 -1
    outer loop
      vertex -6.001 -6.202 4.6
      vertex -6 -5.901 4.6
      vertex -0.000999855 -6.202 4.6
    endloop
  endfacet
  facet normal 0 0 -1
    outer loop
      vertex -6 -3.101 4.6
      vertex -0.000999855 -2.802 4.6
      vertex -0.000999855 -3.101 4.6
    endloop
  endfacet
  facet normal 0 0 -1
    outer loop
      vertex -6 -3.101 4.6
      vertex -6.001 -2.802 4.6
      vertex -0.000999855 -2.802 4.6
    endloop
  endfacet
  facet normal 0 0 -1
    outer loop
      vertex -6.001 -2.802 4.6
      vertex -6 -3.101 4.6
      vertex -6.001 -6.202 4.6
    endloop
  endfacet
  facet normal -0 0 1
    outer loop
      vertex -0.000999855 -3.101 4.6
      vertex 0 -5.901 4.6
      vertex 0 -3.101 4.6
    endloop
  endfacet
  facet normal 0 0 1
    outer loop
      vertex 0 -5.901 4.6
      vertex -0.000999855 -3.101 4.6
      vertex -0.000999855 -5.901 4.6
    endloop
  endfacet
  facet normal 1 -0 0
    outer loop
      vertex 5.49316e-07 -5.901 3.5
      vertex 5.49316e-07 -3.101 2.6
      vertex 5.49316e-07 -3.101 3.5
    endloop
  endfacet
  facet normal 1 0 0
    outer loop
      vertex 5.49316e-07 -3.101 2.6
      vertex 5.49316e-07 -5.901 3.5
      vertex 5.49316e-07 -5.901 2.6
    endloop
  endfacet
  facet normal 0 -1 0
    outer loop
      vertex 0 -5.901 3.5
      vertex -0.000999855 -5.901 4.6
      vertex -6 -5.901 4.6
    endloop
  endfacet
  facet normal 0 -1 0
    outer loop
      vertex -0.000999855 -5.901 4.6
      vertex 0 -5.901 3.5
      vertex 0 -5.901 4.6
    endloop
  endfacet
  facet normal 0 -1 0
    outer loop
      vertex 5.49316e-07 -5.901 2.6
      vertex 0 -5.901 3.5
      vertex -5.999 -5.901 2.6
    endloop
  endfacet
  facet normal 0 -1 0
    outer loop
      vertex -6 -5.901 4.6
      vertex -5.999 -5.901 2.6
      vertex 0 -5.901 3.5
    endloop
  endfacet
  facet normal 0 -1 0
    outer loop
      vertex -6 -5.901 0
      vertex -5.999 -5.901 2.6
      vertex -6 -5.901 4.6
    endloop
  endfacet
  facet normal 0 -1 -0
    outer loop
      vertex -5.999 -5.901 2.6
      vertex -6 -5.901 0
      vertex -5.999 -5.901 0
    endloop
  endfacet
  facet normal 0 -1 0
    outer loop
      vertex 0 -5.901 3.5
      vertex 5.49316e-07 -5.901 2.6
      vertex 5.49316e-07 -5.901 3.5
    endloop
  endfacet
  facet normal 0 1 0
    outer loop
      vertex 5.49316e-07 -3.101 3.5
      vertex 5.49316e-07 -3.101 2.6
      vertex 0 -3.101 3.5
    endloop
  endfacet
  facet normal 0 1 -0
    outer loop
      vertex 0 -3.101 3.5
      vertex -0.000999855 -3.101 4.6
      vertex 0 -3.101 4.6
    endloop
  endfacet
  facet normal 0 1 0
    outer loop
      vertex -0.000999855 -3.101 4.6
      vertex 0 -3.101 3.5
      vertex -6 -3.101 4.6
    endloop
  endfacet
  facet normal 0 1 0
    outer loop
      vertex -5.999 -3.101 2.6
      vertex 0 -3.101 3.5
      vertex 5.49316e-07 -3.101 2.6
    endloop
  endfacet
  facet normal 0 1 0
    outer loop
      vertex 0 -3.101 3.5
      vertex -5.999 -3.101 2.6
      vertex -6 -3.101 4.6
    endloop
  endfacet
  facet normal 0 1 0
    outer loop
      vertex -6 -3.101 0
      vertex -5.999 -3.101 2.6
      vertex -5.999 -3.101 0
    endloop
  endfacet
  facet normal 0 1 0
    outer loop
      vertex -5.999 -3.101 2.6
      vertex -6 -3.101 0
      vertex -6 -3.101 4.6
    endloop
  endfacet
  facet normal -1 0 0
    outer loop
      vertex -6.001 -6.202 4.6
      vertex -6.001 -2.802 5.2
      vertex -6.001 -2.802 4.6
    endloop
  endfacet
  facet normal -1 -0 0
    outer loop
      vertex -6.001 -2.802 5.2
      vertex -6.001 -6.202 4.6
      vertex -6.001 -6.202 5.2
    endloop
  endfacet
  facet normal -0 0 1
    outer loop
      vertex -6.001 -2.802 5.2
      vertex -0.000999855 -6.202 5.2
      vertex -0.000999855 -2.802 5.2
    endloop
  endfacet
  facet normal 0 0 1
    outer loop
      vertex -0.000999855 -6.202 5.2
      vertex -6.001 -2.802 5.2
      vertex -6.001 -6.202 5.2
    endloop
  endfacet
  facet normal 1 0 0
    outer loop
      vertex -0.000999855 -2.802 5.2
      vertex -0.000999855 -3.101 4.6
      vertex -0.000999855 -2.802 4.6
    endloop
  endfacet
  facet normal 1 0 0
    outer loop
      vertex -0.000999855 -2.802 5.2
      vertex -0.000999855 -5.901 4.6
      vertex -0.000999855 -3.101 4.6
    endloop
  endfacet
  facet normal 1 -0 0
    outer loop
      vertex -0.000999855 -6.202 5.2
      vertex -0.000999855 -5.901 4.6
      vertex -0.000999855 -2.802 5.2
    endloop
  endfacet
  facet normal 1 0 0
    outer loop
      vertex -0.000999855 -5.901 4.6
      vertex -0.000999855 -6.202 5.2
      vertex -0.000999855 -6.202 4.6
    endloop
  endfacet
  facet normal 0 -1 0
    outer loop
      vertex -6.001 -6.202 4.6
      vertex -0.000999855 -6.202 5.2
      vertex -6.001 -6.202 5.2
    endloop
  endfacet
  facet normal 0 -1 -0
    outer loop
      vertex -0.000999855 -6.202 5.2
      vertex -6.001 -6.202 4.6
      vertex -0.000999855 -6.202 4.6
    endloop
  endfacet
  facet normal 0 1 -0
    outer loop
      vertex -0.000999855 -2.802 4.6
      vertex -6.001 -2.802 5.2
      vertex -0.000999855 -2.802 5.2
    endloop
  endfacet
  facet normal 0 1 0
    outer loop
      vertex -6.001 -2.802 5.2
      vertex -0.000999855 -2.802 4.6
      vertex -6.001 -2.802 4.6
    endloop
  endfacet
  facet normal 0.994517 -0.104573 0
    outer loop
      vertex 30.4363 3.9914 2.6
      vertex 30.6558 6.0789 0
      vertex 30.6558 6.0789 2.6
    endloop
  endfacet
  facet normal 0.994517 -0.104573 0
    outer loop
      vertex 30.6558 6.0789 0
      vertex 30.4363 3.9914 2.6
      vertex 30.4363 3.9914 0
    endloop
  endfacet
  facet normal 0.994523 -0.104522 0
    outer loop
      vertex 29.9241 -0.882752 2.6
      vertex 30.1437 1.20674 0
      vertex 30.1437 1.20674 2.6
    endloop
  endfacet
  facet normal 0.994523 -0.104522 0
    outer loop
      vertex 30.1437 1.20674 0
      vertex 29.9241 -0.882752 2.6
      vertex 29.9241 -0.882752 0
    endloop
  endfacet
  facet normal 0 0 1
    outer loop
      vertex 24.6906 6.70586 2.6
      vertex 30.4363 3.9914 2.6
      vertex 30.6558 6.0789 2.6
    endloop
  endfacet
  facet normal 0 0 1
    outer loop
      vertex 30.4363 3.9914 2.6
      vertex 24.6906 6.70586 2.6
      vertex 24.4712 4.61836 2.6
    endloop
  endfacet
  facet normal 0 0 1
    outer loop
      vertex 24.1785 1.8337 2.6
      vertex 29.9241 -0.882752 2.6
      vertex 30.1437 1.20674 2.6
    endloop
  endfacet
  facet normal 0 0 1
    outer loop
      vertex 29.9241 -0.882752 2.6
      vertex 24.1785 1.8337 2.6
      vertex 23.9589 -0.255789 2.6
    endloop
  endfacet
  facet normal 0.104527 0.994522 -0
    outer loop
      vertex 30.6558 6.0789 0
      vertex 24.6906 6.70586 2.6
      vertex 30.6558 6.0789 2.6
    endloop
  endfacet
  facet normal 0.104527 0.994522 0
    outer loop
      vertex 24.6906 6.70586 2.6
      vertex 30.6558 6.0789 0
      vertex 24.6906 6.70586 0
    endloop
  endfacet
  facet normal -0.104528 -0.994522 0
    outer loop
      vertex 23.9589 -0.255789 0
      vertex 29.9241 -0.882752 2.6
      vertex 23.9589 -0.255789 2.6
    endloop
  endfacet
  facet normal -0.104528 -0.994522 -0
    outer loop
      vertex 29.9241 -0.882752 2.6
      vertex 23.9589 -0.255789 0
      vertex 29.9241 -0.882752 0
    endloop
  endfacet
  facet normal 0.994525 -0.1045 0
    outer loop
      vertex 30.1447 1.20663 4.6
      vertex 30.4373 3.99129 0
      vertex 30.4373 3.99129 4.6
    endloop
  endfacet
  facet normal 0.994525 -0.1045 0
    outer loop
      vertex 30.4373 3.99129 0
      vertex 30.1447 1.20663 4.6
      vertex 30.1447 1.20663 0
    endloop
  endfacet
  facet normal 0 0 -1
    outer loop
      vertex 30.4698 4.29054 4.6
      vertex 30.1447 1.20663 4.6
      vertex 30.4373 3.99129 4.6
    endloop
  endfacet
  facet normal 0 0 -1
    outer loop
      vertex 30.1144 0.909166 4.6
      vertex 30.1447 1.20663 4.6
      vertex 30.4698 4.29054 4.6
    endloop
  endfacet
  facet normal 0 0 -1
    outer loop
      vertex 30.1144 0.909166 4.6
      vertex 24.2177 1.82959 4.6
      vertex 30.1447 1.20663 4.6
    endloop
  endfacet
  facet normal 0 -0 -1
    outer loop
      vertex 24.2177 1.82959 4.6
      vertex 30.1144 0.909166 4.6
      vertex 24.1864 1.53223 4.6
    endloop
  endfacet
  facet normal 0 0 -1
    outer loop
      vertex 30.4373 3.99129 4.6
      vertex 24.5424 4.91354 4.6
      vertex 30.4698 4.29054 4.6
    endloop
  endfacet
  facet normal 0 -0 -1
    outer loop
      vertex 24.5424 4.91354 4.6
      vertex 30.4373 3.99129 4.6
      vertex 24.5108 4.61419 4.6
    endloop
  endfacet
  facet normal 0.104528 0.994522 0
    outer loop
      vertex 30.4373 3.99129 4.6
      vertex 24.5108 4.61419 3.5
      vertex 24.5108 4.61419 4.6
    endloop
  endfacet
  facet normal 0.104529 0.994522 8.67907e-06
    outer loop
      vertex 24.4712 4.61836 2.6
      vertex 24.5108 4.61419 3.5
      vertex 30.4363 3.9914 2.6
    endloop
  endfacet
  facet normal 0.104528 0.994522 2.43472e-06
    outer loop
      vertex 30.4373 3.99129 4.6
      vertex 30.4363 3.9914 2.6
      vertex 24.5108 4.61419 3.5
    endloop
  endfacet
  facet normal 0.10934 0.994004 -0
    outer loop
      vertex 30.4373 3.99129 0
      vertex 30.4363 3.9914 2.6
      vertex 30.4373 3.99129 4.6
    endloop
  endfacet
  facet normal 0.10934 0.994004 0
    outer loop
      vertex 30.4363 3.9914 2.6
      vertex 30.4373 3.99129 0
      vertex 30.4363 3.9914 0
    endloop
  endfacet
  facet normal 0.104724 0.994501 0
    outer loop
      vertex 24.5108 4.61419 3.5
      vertex 24.4712 4.61836 2.6
      vertex 24.4712 4.61836 3.5
    endloop
  endfacet
  facet normal -0.104275 -0.994548 -0
    outer loop
      vertex 24.1785 1.8337 3.5
      vertex 24.1785 1.8337 2.6
      vertex 24.2177 1.82959 3.5
    endloop
  endfacet
  facet normal -0.10453 -0.994522 0
    outer loop
      vertex 24.2177 1.82959 3.5
      vertex 30.1447 1.20663 4.6
      vertex 24.2177 1.82959 4.6
    endloop
  endfacet
  facet normal -0.104527 -0.994522 1.10888e-05
    outer loop
      vertex 30.1437 1.20674 2.6
      vertex 24.2177 1.82959 3.5
      vertex 24.1785 1.8337 2.6
    endloop
  endfacet
  facet normal -0.104529 -0.994522 -2.43409e-06
    outer loop
      vertex 24.2177 1.82959 3.5
      vertex 30.1437 1.20674 2.6
      vertex 30.1447 1.20663 4.6
    endloop
  endfacet
  facet normal -0.10934 -0.994004 0
    outer loop
      vertex 30.1447 1.20663 0
      vertex 30.1437 1.20674 2.6
      vertex 30.1437 1.20674 0
    endloop
  endfacet
  facet normal -0.10934 -0.994004 0
    outer loop
      vertex 30.1437 1.20674 2.6
      vertex 30.1447 1.20663 0
      vertex 30.1447 1.20663 4.6
    endloop
  endfacet
  facet normal 0.994522 -0.104529 0
    outer loop
      vertex 30.1144 0.909166 5.2
      vertex 30.4698 4.29054 4.6
      vertex 30.4698 4.29054 5.2
    endloop
  endfacet
  facet normal 0.994522 -0.104529 0
    outer loop
      vertex 30.4698 4.29054 4.6
      vertex 30.1144 0.909166 5.2
      vertex 30.1144 0.909166 4.6
    endloop
  endfacet
  facet normal 0 0 1
    outer loop
      vertex 24.5424 4.91354 5.2
      vertex 30.1144 0.909166 5.2
      vertex 30.4698 4.29054 5.2
    endloop
  endfacet
  facet normal 0 0 1
    outer loop
      vertex 30.1144 0.909166 5.2
      vertex 24.5424 4.91354 5.2
      vertex 24.1864 1.53223 5.2
    endloop
  endfacet
  facet normal 0.104529 0.994522 -0
    outer loop
      vertex 30.4698 4.29054 4.6
      vertex 24.5424 4.91354 5.2
      vertex 30.4698 4.29054 5.2
    endloop
  endfacet
  facet normal 0.104529 0.994522 0
    outer loop
      vertex 24.5424 4.91354 5.2
      vertex 30.4698 4.29054 4.6
      vertex 24.5424 4.91354 4.6
    endloop
  endfacet
  facet normal -0.104529 -0.994522 0
    outer loop
      vertex 24.1864 1.53223 4.6
      vertex 30.1144 0.909166 5.2
      vertex 24.1864 1.53223 5.2
    endloop
  endfacet
  facet normal -0.104529 -0.994522 -0
    outer loop
      vertex 30.1144 0.909166 5.2
      vertex 24.1864 1.53223 4.6
      vertex 30.1144 0.909166 4.6
    endloop
  endfacet
  facet normal -1 0 0
    outer loop
      vertex 0.000999451 1.2 0
      vertex 0.000999451 -1 0
      vertex 0.000999451 1.2 2.5
    endloop
  endfacet
  facet normal -1 0 0
    outer loop
      vertex 0.000999451 -1 2.6
      vertex 0.000999451 1.2 2.5
      vertex 0.000999451 -1 0
    endloop
  endfacet
  facet normal -1 0 0
    outer loop
      vertex 0.000999451 -1 2.6
      vertex 0.000999451 3.4 3.5
      vertex 0.000999451 1.2 2.5
    endloop
  endfacet
  facet normal -1 0 0
    outer loop
      vertex 0.000999451 -8.00001 3.5
      vertex 0.000999451 -1 2.6
      vertex 0.000999451 -8 2.6
    endloop
  endfacet
  facet normal -1 0 0
    outer loop
      vertex 0.000999451 -1 2.6
      vertex 0.000999451 -8.00001 3.5
      vertex 0.000999451 3.4 3.5
    endloop
  endfacet
  facet normal -1 0 0
    outer loop
      vertex 0.000999451 -12.5 0
      vertex 0.000999451 -8 2.6
      vertex 0.000999451 -8 0
    endloop
  endfacet
  facet normal -1 0 0
    outer loop
      vertex 0.000999451 -8.00001 3.5
      vertex 0.000999451 -9 5
      vertex 0.000999451 -8.00001 5
    endloop
  endfacet
  facet normal -1 0 -0
    outer loop
      vertex 0.000999451 -9 5
      vertex 0.000999451 -8 2.6
      vertex 0.000999451 -12.5 0
    endloop
  endfacet
  facet normal -1 0 0
    outer loop
      vertex 0.000999451 -8 2.6
      vertex 0.000999451 -9 5
      vertex 0.000999451 -8.00001 3.5
    endloop
  endfacet
  facet normal -1 0 0
    outer loop
      vertex 0.000999451 8.4 2.5
      vertex 0.000999451 6.4 3.5
      vertex 0.000999451 7.99999 3.5
    endloop
  endfacet
  facet normal -1 0 0
    outer loop
      vertex 0.000999451 8.4 2.5
      vertex 0.000999451 12.5 0
      vertex 0.000999451 8.4 0
    endloop
  endfacet
  facet normal -1 0 0
    outer loop
      vertex 0.000999451 12.5 0
      vertex 0.000999451 8.4 2.5
      vertex 0.000999451 9 5
    endloop
  endfacet
  facet normal -1 0 0
    outer loop
      vertex 0.000999451 7.99999 3.5
      vertex 0.000999451 9 5
      vertex 0.000999451 8.4 2.5
    endloop
  endfacet
  facet normal -1 -0 0
    outer loop
      vertex 0.000999451 9 5
      vertex 0.000999451 7.99999 3.5
      vertex 0.000999451 7.99999 5
    endloop
  endfacet
  facet normal 0.99452 -0.104544 0
    outer loop
      vertex 22.9136 -10.2008 5
      vertex 23.0181 -9.2067 3.5
      vertex 23.0181 -9.2067 5
    endloop
  endfacet
  facet normal 0.994519 -0.104559 -9.80239e-06
    outer loop
      vertex 22.9763 -9.60419 2.5
      vertex 23.0181 -9.2067 3.5
      vertex 22.9136 -10.2008 5
    endloop
  endfacet
  facet normal 0.994322 -0.106412 0.00073487
    outer loop
      vertex 23.0181 -9.2067 3.5
      vertex 22.9763 -9.60419 2.5
      vertex 22.9793 -9.57606 2.51414
    endloop
  endfacet
  facet normal 0.994523 -0.104516 5.29559e-07
    outer loop
      vertex 22.5478 -13.6816 0
      vertex 22.9763 -9.60419 2.5
      vertex 22.9136 -10.2008 5
    endloop
  endfacet
  facet normal 0.994523 -0.104516 0
    outer loop
      vertex 22.9763 -9.60419 2.5
      vertex 22.5478 -13.6816 0
      vertex 22.9763 -9.60419 0.953464
    endloop
  endfacet
  facet normal 0.994521 -0.104542 2.64868e-05
    outer loop
      vertex 23.1854 -7.61515 3.5
      vertex 23.0181 -9.2067 3.5
      vertex 22.9793 -9.57606 2.51414
    endloop
  endfacet
  facet normal 0.994519 -0.104553 0
    outer loop
      vertex 24.7952 7.70059 5
      vertex 24.6906 6.70562 5
      vertex 24.6906 6.70562 4.76734
    endloop
  endfacet
  facet normal 0.994522 -0.104528 4.94619e-05
    outer loop
      vertex 24.1209 1.28593 3.5
      vertex 23.5022 -4.60064 3.48586
      vertex 23.7095 -2.62873 2.5846
    endloop
  endfacet
  facet normal 0.994516 -0.104519 -0.00363171
    outer loop
      vertex 23.5022 -4.60064 3.48586
      vertex 24.1209 1.28593 3.5
      vertex 23.499 -4.63158 3.5
    endloop
  endfacet
  facet normal 0.994519 -0.104553 0
    outer loop
      vertex 24.6906 6.70562 3.5
      vertex 24.7952 7.70059 5
      vertex 24.6906 6.70562 4.76734
    endloop
  endfacet
  facet normal 0.994524 -0.104511 -2.78696e-05
    outer loop
      vertex 24.7952 7.70059 5
      vertex 24.6906 6.70562 3.5
      vertex 24.6906 6.70586 2.6
    endloop
  endfacet
  facet normal 0.994521 -0.104538 -2.78768e-05
    outer loop
      vertex 24.4712 4.61836 3.5
      vertex 24.6906 6.70586 2.6
      vertex 24.6906 6.70562 3.5
    endloop
  endfacet
  facet normal 0.994522 -0.104526 0
    outer loop
      vertex 24.6906 6.70586 2.6
      vertex 24.4712 4.61836 3.5
      vertex 24.4712 4.61836 2.6
    endloop
  endfacet
  facet normal 0.994521 -0.104538 -1.64534e-05
    outer loop
      vertex 24.6906 6.70586 2.6
      vertex 25.161 11.1814 0
      vertex 24.7952 7.70059 5
    endloop
  endfacet
  facet normal 0.994522 -0.104529 0
    outer loop
      vertex 25.161 11.1814 0
      vertex 24.6906 6.70586 2.6
      vertex 24.6906 6.70586 0
    endloop
  endfacet
  facet normal 0.994523 -0.104516 0
    outer loop
      vertex 22.9763 -9.60419 0
      vertex 22.9763 -9.60419 0.953464
      vertex 22.5478 -13.6816 0
    endloop
  endfacet
  facet normal 0.994517 -0.104577 0
    outer loop
      vertex 24.1209 1.28593 3.5
      vertex 24.1785 1.8337 2.6
      vertex 24.1785 1.8337 3.5
    endloop
  endfacet
  facet normal 0.994523 -0.104522 3.39915e-05
    outer loop
      vertex 24.1209 1.28593 3.5
      vertex 23.9589 -0.255789 2.6
      vertex 24.1785 1.8337 2.6
    endloop
  endfacet
  facet normal 0.99452 -0.10455 0
    outer loop
      vertex 23.9589 -0.255789 2.6
      vertex 23.7289 -2.44363 2.5
      vertex 23.9589 -0.255789 0
    endloop
  endfacet
  facet normal 0.994522 -0.104526 4.15706e-05
    outer loop
      vertex 23.7095 -2.62873 2.5846
      vertex 23.9589 -0.255789 2.6
      vertex 24.1209 1.28593 3.5
    endloop
  endfacet
  facet normal 0.994522 -0.104522 -0.000629557
    outer loop
      vertex 23.9589 -0.255789 2.6
      vertex 23.7095 -2.62873 2.5846
      vertex 23.7289 -2.44363 2.5
    endloop
  endfacet
  facet normal 0.99452 -0.10455 0
    outer loop
      vertex 23.9589 -0.255789 0
      vertex 23.7289 -2.44363 2.5
      vertex 23.7289 -2.44363 0
    endloop
  endfacet
  facet normal -0.00714802 -0.819211 0.573448
    outer loop
      vertex 3.82657 -9.03338 5
      vertex 0.000999451 -9 5
      vertex 0.000999451 -12.5 0
    endloop
  endfacet
  facet normal -0.00715953 -0.819207 0.573454
    outer loop
      vertex 3.76548 -12.5329 0
      vertex 3.82657 -9.03338 5
      vertex 0.000999451 -12.5 0
    endloop
  endfacet
  facet normal 0 0 1
    outer loop
      vertex 20.6204 7.09819 5
      vertex 24.7952 7.70059 5
      vertex 20.6743 8.09738 5
    endloop
  endfacet
  facet normal 0 0 1
    outer loop
      vertex 24.7952 7.70059 5
      vertex 20.6204 7.09819 5
      vertex 24.6906 6.70562 5
    endloop
  endfacet
  facet normal 0 0 1
    outer loop
      vertex 16.5039 7.42271 5
      vertex 20.6743 8.09738 5
      vertex 16.5472 8.42219 5
    endloop
  endfacet
  facet normal 0 0 1
    outer loop
      vertex 20.6743 8.09738 5
      vertex 16.5039 7.42271 5
      vertex 20.6204 7.09819 5
    endloop
  endfacet
  facet normal 0 0 1
    outer loop
      vertex 12.3823 7.67522 5
      vertex 16.5472 8.42219 5
      vertex 12.4151 8.67492 5
    endloop
  endfacet
  facet normal 0 0 1
    outer loop
      vertex 16.5472 8.42219 5
      vertex 12.3823 7.67522 5
      vertex 16.5039 7.42271 5
    endloop
  endfacet
  facet normal 0 0 1
    outer loop
      vertex 8.25699 7.85563 5
      vertex 12.4151 8.67492 5
      vertex 8.27916 8.8555 5
    endloop
  endfacet
  facet normal 0 0 1
    outer loop
      vertex 12.4151 8.67492 5
      vertex 8.25699 7.85563 5
      vertex 12.3823 7.67522 5
    endloop
  endfacet
  facet normal 0 0 1
    outer loop
      vertex 4.12913 7.96391 5
      vertex 8.27916 8.8555 5
      vertex 4.14071 8.96387 5
    endloop
  endfacet
  facet normal 0 0 1
    outer loop
      vertex 8.27916 8.8555 5
      vertex 4.12913 7.96391 5
      vertex 8.25699 7.85563 5
    endloop
  endfacet
  facet normal 0 0 1
    outer loop
      vertex 0.000999451 9 5
      vertex 4.12913 7.96391 5
      vertex 4.14071 8.96387 5
    endloop
  endfacet
  facet normal 0 0 1
    outer loop
      vertex 4.12913 7.96391 5
      vertex 0.000999451 9 5
      vertex 0.000999451 7.99999 5
    endloop
  endfacet
  facet normal 0 0 1
    outer loop
      vertex 19.2236 -8.84072 5
      vertex 22.9136 -10.2008 5
      vertex 23.0181 -9.2067 5
    endloop
  endfacet
  facet normal 0 0 1
    outer loop
      vertex 19.2236 -8.84072 5
      vertex 19.1055 -9.83412 5
      vertex 22.9136 -10.2008 5
    endloop
  endfacet
  facet normal 0 0 1
    outer loop
      vertex 15.3859 -8.53818 5
      vertex 19.1055 -9.83412 5
      vertex 19.2236 -8.84072 5
    endloop
  endfacet
  facet normal 0 0 1
    outer loop
      vertex 15.3859 -8.53818 5
      vertex 15.2916 -9.53396 5
      vertex 19.1055 -9.83412 5
    endloop
  endfacet
  facet normal 0 0 1
    outer loop
      vertex 11.5436 -8.30278 5
      vertex 15.2916 -9.53396 5
      vertex 15.3859 -8.53818 5
    endloop
  endfacet
  facet normal 0 0 1
    outer loop
      vertex 11.5436 -8.30278 5
      vertex 11.473 -9.30041 5
      vertex 15.2916 -9.53396 5
    endloop
  endfacet
  facet normal 0 0 1
    outer loop
      vertex 7.69767 -8.13459 5
      vertex 11.473 -9.30041 5
      vertex 11.5436 -8.30278 5
    endloop
  endfacet
  facet normal 0 0 1
    outer loop
      vertex 7.69767 -8.13459 5
      vertex 7.65097 -9.13353 5
      vertex 11.473 -9.30041 5
    endloop
  endfacet
  facet normal 0 0 1
    outer loop
      vertex 3.84942 -8.03365 5
      vertex 7.65097 -9.13353 5
      vertex 7.69767 -8.13459 5
    endloop
  endfacet
  facet normal 0 0 1
    outer loop
      vertex 3.84942 -8.03365 5
      vertex 3.82657 -9.03338 5
      vertex 7.65097 -9.13353 5
    endloop
  endfacet
  facet normal 0 0 1
    outer loop
      vertex 0.000999451 -8.00001 5
      vertex 3.82657 -9.03338 5
      vertex 3.84942 -8.03365 5
    endloop
  endfacet
  facet normal 0 0 1
    outer loop
      vertex 3.82657 -9.03338 5
      vertex 0.000999451 -8.00001 5
      vertex 0.000999451 -9 5
    endloop
  endfacet
  facet normal 0.007157 0.819211 0.573448
    outer loop
      vertex 4.20179 12.4633 0
      vertex 0.000999451 12.5 0
      vertex 0.000999451 9 5
    endloop
  endfacet
  facet normal 0.00714982 0.819214 0.573444
    outer loop
      vertex 4.14071 8.96387 5
      vertex 4.20179 12.4633 0
      vertex 0.000999451 9 5
    endloop
  endfacet
  facet normal -0.0214461 -0.818957 0.573454
    outer loop
      vertex 7.65097 -9.13353 5
      vertex 3.82657 -9.03338 5
      vertex 3.76548 -12.5329 0
    endloop
  endfacet
  facet normal -0.0214351 -0.818962 0.573448
    outer loop
      vertex 7.52882 -12.6314 0
      vertex 7.65097 -9.13353 5
      vertex 3.76548 -12.5329 0
    endloop
  endfacet
  facet normal 0.021432 0.818965 0.573444
    outer loop
      vertex 8.40131 12.3534 0
      vertex 4.20179 12.4633 0
      vertex 4.14071 8.96387 5
    endloop
  endfacet
  facet normal 0.0214454 0.818959 0.573451
    outer loop
      vertex 8.27916 8.8555 5
      vertex 8.40131 12.3534 0
      vertex 4.14071 8.96387 5
    endloop
  endfacet
  facet normal -0.0357362 -0.818462 0.573448
    outer loop
      vertex 11.473 -9.30041 5
      vertex 7.65097 -9.13353 5
      vertex 7.52882 -12.6314 0
    endloop
  endfacet
  facet normal -0.0357322 -0.818464 0.573446
    outer loop
      vertex 11.2899 -12.7956 0
      vertex 11.473 -9.30041 5
      vertex 7.52882 -12.6314 0
    endloop
  endfacet
  facet normal 0.0357455 0.81846 0.573451
    outer loop
      vertex 12.5983 12.1701 0
      vertex 8.40131 12.3534 0
      vertex 8.27916 8.8555 5
    endloop
  endfacet
  facet normal 0.0357351 0.818464 0.573445
    outer loop
      vertex 12.4151 8.67492 5
      vertex 12.5983 12.1701 0
      vertex 8.27916 8.8555 5
    endloop
  endfacet
  facet normal -0.0500124 -0.817716 0.573446
    outer loop
      vertex 15.2916 -9.53396 5
      vertex 11.473 -9.30041 5
      vertex 11.2899 -12.7956 0
    endloop
  endfacet
  facet normal -0.0500084 -0.817717 0.573444
    outer loop
      vertex 15.0475 -13.0254 0
      vertex 15.2916 -9.53396 5
      vertex 11.2899 -12.7956 0
    endloop
  endfacet
  facet normal 0.0500018 0.817716 0.573445
    outer loop
      vertex 16.7914 11.9137 0
      vertex 12.5983 12.1701 0
      vertex 12.4151 8.67492 5
    endloop
  endfacet
  facet normal 0.0500133 0.817711 0.573452
    outer loop
      vertex 16.5472 8.42219 5
      vertex 16.7914 11.9137 0
      vertex 12.4151 8.67492 5
    endloop
  endfacet
  facet normal -0.0642771 -0.81672 0.573444
    outer loop
      vertex 19.1055 -9.83412 5
      vertex 15.2916 -9.53396 5
      vertex 15.0475 -13.0254 0
    endloop
  endfacet
  facet normal -0.0642841 -0.816717 0.573447
    outer loop
      vertex 18.8005 -13.3208 0
      vertex 19.1055 -9.83412 5
      vertex 15.0475 -13.0254 0
    endloop
  endfacet
  facet normal 0.0642762 0.816714 0.573452
    outer loop
      vertex 20.9794 11.5841 0
      vertex 16.7914 11.9137 0
      vertex 16.5472 8.42219 5
    endloop
  endfacet
  facet normal 0.0642768 0.816713 0.573452
    outer loop
      vertex 20.6743 8.09738 5
      vertex 20.9794 11.5841 0
      vertex 16.5472 8.42219 5
    endloop
  endfacet
  facet normal -0.0785213 -0.815471 0.573447
    outer loop
      vertex 22.9136 -10.2008 5
      vertex 19.1055 -9.83412 5
      vertex 18.8005 -13.3208 0
    endloop
  endfacet
  facet normal -0.078516 -0.815473 0.573444
    outer loop
      vertex 22.5478 -13.6816 0
      vertex 22.9136 -10.2008 5
      vertex 18.8005 -13.3208 0
    endloop
  endfacet
  facet normal 0.0785317 0.815466 0.573452
    outer loop
      vertex 25.161 11.1814 0
      vertex 20.9794 11.5841 0
      vertex 20.6743 8.09738 5
    endloop
  endfacet
  facet normal 0.0785196 0.815472 0.573445
    outer loop
      vertex 24.7952 7.70059 5
      vertex 25.161 11.1814 0
      vertex 20.6743 8.09738 5
    endloop
  endfacet
  facet normal 0 -1 0
    outer loop
      vertex 0.000999451 8.4 0
      vertex 7 8.4 2.5
      vertex 0.000999451 8.4 2.5
    endloop
  endfacet
  facet normal 0 -1 -0
    outer loop
      vertex 7 8.4 2.5
      vertex 0.000999451 8.4 0
      vertex 7 8.4 0
    endloop
  endfacet
  facet normal 0 1 -0
    outer loop
      vertex 7 1.2 0
      vertex 0.000999451 1.2 2.5
      vertex 7 1.2 2.5
    endloop
  endfacet
  facet normal 0 1 0
    outer loop
      vertex 0.000999451 1.2 2.5
      vertex 7 1.2 0
      vertex 0.000999451 1.2 0
    endloop
  endfacet
  facet normal 0 -0.447214 -0.894427
    outer loop
      vertex 0.000999451 6.4 3.5
      vertex 7 8.4 2.5
      vertex 7 6.4 3.5
    endloop
  endfacet
  facet normal -0 -0.447214 -0.894427
    outer loop
      vertex 7 8.4 2.5
      vertex 0.000999451 6.4 3.5
      vertex 0.000999451 8.4 2.5
    endloop
  endfacet
  facet normal 0 0.413803 -0.910366
    outer loop
      vertex 0.000999451 1.2 2.5
      vertex 7 3.4 3.5
      vertex 7 1.2 2.5
    endloop
  endfacet
  facet normal 0 0.413803 -0.910366
    outer loop
      vertex 7 3.4 3.5
      vertex 0.000999451 1.2 2.5
      vertex 0.000999451 3.4 3.5
    endloop
  endfacet
  facet normal -1 0 0
    outer loop
      vertex 7 8.4 0
      vertex 7 6.4 3.5
      vertex 7 8.4 2.5
    endloop
  endfacet
  facet normal -1 0 0
    outer loop
      vertex 7 8.4 0
      vertex 7 3.4 3.5
      vertex 7 6.4 3.5
    endloop
  endfacet
  facet normal -1 0 0
    outer loop
      vertex 7 1.2 0
      vertex 7 3.4 3.5
      vertex 7 8.4 0
    endloop
  endfacet
  facet normal -1 0 0
    outer loop
      vertex 7 3.4 3.5
      vertex 7 1.2 0
      vertex 7 1.2 2.5
    endloop
  endfacet
  facet normal 0 0 1
    outer loop
      vertex 24.4712 4.61836 3.5
      vertex 24.1785 1.8337 3.5
      vertex 24.2177 1.82959 3.5
    endloop
  endfacet
  facet normal 0 0 1
    outer loop
      vertex 20.6204 7.09819 3.5
      vertex 24.1785 1.8337 3.5
      vertex 24.4712 4.61836 3.5
    endloop
  endfacet
  facet normal 0 0 1
    outer loop
      vertex 20.6204 7.09819 3.5
      vertex 24.4712 4.61836 3.5
      vertex 24.6906 6.70562 3.5
    endloop
  endfacet
  facet normal 0 0 1
    outer loop
      vertex 24.1785 1.8337 3.5
      vertex 20.6204 7.09819 3.5
      vertex 24.1209 1.28593 3.5
    endloop
  endfacet
  facet normal 0 0 1
    outer loop
      vertex 16.6358 -3.91023 3.5
      vertex 24.1209 1.28593 3.5
      vertex 20.6204 7.09819 3.5
    endloop
  endfacet
  facet normal 0 0 1
    outer loop
      vertex 24.1209 1.28593 3.5
      vertex 16.6358 -3.91023 3.5
      vertex 23.499 -4.63158 3.5
    endloop
  endfacet
  facet normal 0 0 1
    outer loop
      vertex 16.5039 7.42271 3.5
      vertex 16.6358 -3.91023 3.5
      vertex 20.6204 7.09819 3.5
    endloop
  endfacet
  facet normal 0 0 1
    outer loop
      vertex 12.3823 7.67522 3.5
      vertex 16.6358 -3.91023 3.5
      vertex 16.5039 7.42271 3.5
    endloop
  endfacet
  facet normal -0 0 1
    outer loop
      vertex 7 3.4 3.5
      vertex 16.6358 -3.91023 3.5
      vertex 12.3823 7.67522 3.5
    endloop
  endfacet
  facet normal 0 -0 1
    outer loop
      vertex 11.5436 -8.30278 3.5
      vertex 16.6358 -3.91023 3.5
      vertex 7 3.4 3.5
    endloop
  endfacet
  facet normal 0 0 1
    outer loop
      vertex 16.6358 -3.91023 3.5
      vertex 11.5436 -8.30278 3.5
      vertex 16.3222 -6.8938 3.5
    endloop
  endfacet
  facet normal 0 0 1
    outer loop
      vertex 7 3.4 3.5
      vertex 12.3823 7.67522 3.5
      vertex 8.25699 7.85563 3.5
    endloop
  endfacet
  facet normal 0 0 1
    outer loop
      vertex 16.3222 -6.8938 3.5
      vertex 11.5436 -8.30278 3.5
      vertex 15.3859 -8.53818 3.5
    endloop
  endfacet
  facet normal 0 0 1
    outer loop
      vertex 7 3.4 3.5
      vertex 8.25699 7.85563 3.5
      vertex 7 6.4 3.5
    endloop
  endfacet
  facet normal 0 0 1
    outer loop
      vertex 4.12913 7.96391 3.5
      vertex 7 6.4 3.5
      vertex 8.25699 7.85563 3.5
    endloop
  endfacet
  facet normal 0 0 1
    outer loop
      vertex 0.000999451 6.4 3.5
      vertex 4.12913 7.96391 3.5
      vertex 0.000999451 7.99999 3.5
    endloop
  endfacet
  facet normal 0 0 1
    outer loop
      vertex 4.12913 7.96391 3.5
      vertex 0.000999451 6.4 3.5
      vertex 7 6.4 3.5
    endloop
  endfacet
  facet normal 0 0 1
    outer loop
      vertex 24.5108 4.61419 3.5
      vertex 24.4712 4.61836 3.5
      vertex 24.2177 1.82959 3.5
    endloop
  endfacet
  facet normal 0 0 1
    outer loop
      vertex 23.1854 -7.61515 3.5
      vertex 19.2236 -8.84072 3.5
      vertex 23.0181 -9.2067 3.5
    endloop
  endfacet
  facet normal 0 0 1
    outer loop
      vertex 16.3222 -6.8938 3.5
      vertex 19.2236 -8.84072 3.5
      vertex 23.1854 -7.61515 3.5
    endloop
  endfacet
  facet normal 0 0 1
    outer loop
      vertex 19.2236 -8.84072 3.5
      vertex 16.3222 -6.8938 3.5
      vertex 15.3859 -8.53818 3.5
    endloop
  endfacet
  facet normal 0 0 1
    outer loop
      vertex 11.5436 -8.30278 3.5
      vertex 7 3.4 3.5
      vertex 7.69767 -8.13459 3.5
    endloop
  endfacet
  facet normal 0 0 1
    outer loop
      vertex 7 3.4 3.5
      vertex 3.84942 -8.03365 3.5
      vertex 7.69767 -8.13459 3.5
    endloop
  endfacet
  facet normal -0 0 1
    outer loop
      vertex 0.000999451 3.4 3.5
      vertex 3.84942 -8.03365 3.5
      vertex 7 3.4 3.5
    endloop
  endfacet
  facet normal 0 0 1
    outer loop
      vertex 3.84942 -8.03365 3.5
      vertex 0.000999451 3.4 3.5
      vertex 0.000999451 -8.00001 3.5
    endloop
  endfacet
  facet normal -0 0 1
    outer loop
      vertex 0 -3.101 3.5
      vertex 5.49316e-07 -5.901 3.5
      vertex 5.49316e-07 -3.101 3.5
    endloop
  endfacet
  facet normal 0 0 1
    outer loop
      vertex 5.49316e-07 -5.901 3.5
      vertex 0 -3.101 3.5
      vertex 0 -5.901 3.5
    endloop
  endfacet
  facet normal 1 -0 0
    outer loop
      vertex 0 -5.901 4.6
      vertex 0 -3.101 3.5
      vertex 0 -3.101 4.6
    endloop
  endfacet
  facet normal 1 0 0
    outer loop
      vertex 0 -3.101 3.5
      vertex 0 -5.901 4.6
      vertex 0 -5.901 3.5
    endloop
  endfacet
  facet normal -0.994506 0.104679 0
    outer loop
      vertex 24.5108 4.61419 3.5
      vertex 24.2177 1.82959 3.5
      vertex 24.5108 4.61419 4.6
    endloop
  endfacet
  facet normal -0.994474 0.104979 0
    outer loop
      vertex 24.5108 4.61419 4.6
      vertex 24.5424 4.91354 5.2
      vertex 24.5424 4.91354 4.6
    endloop
  endfacet
  facet normal -0.994506 0.104679 0
    outer loop
      vertex 24.2177 1.82959 4.6
      vertex 24.5108 4.61419 4.6
      vertex 24.2177 1.82959 3.5
    endloop
  endfacet
  facet normal -0.994506 0.104679 0.000151117
    outer loop
      vertex 24.5108 4.61419 4.6
      vertex 24.2177 1.82959 4.6
      vertex 24.5424 4.91354 5.2
    endloop
  endfacet
  facet normal -0.994506 0.104681 0
    outer loop
      vertex 24.1864 1.53223 5.2
      vertex 24.2177 1.82959 4.6
      vertex 24.1864 1.53223 4.6
    endloop
  endfacet
  facet normal -0.994503 0.104706 1.23319e-05
    outer loop
      vertex 24.2177 1.82959 4.6
      vertex 24.1864 1.53223 5.2
      vertex 24.5424 4.91354 5.2
    endloop
  endfacet
  facet normal 0.00874091 0.999962 -0
    outer loop
      vertex 3.84942 -8.03365 3.5
      vertex 0.000999451 -8.00001 5
      vertex 3.84942 -8.03365 5
    endloop
  endfacet
  facet normal 0.00874091 0.999962 0
    outer loop
      vertex 0.000999451 -8.00001 5
      vertex 3.84942 -8.03365 3.5
      vertex 0.000999451 -8.00001 3.5
    endloop
  endfacet
  facet normal -0.0087397 -0.999962 0
    outer loop
      vertex 0.000999451 7.99999 3.5
      vertex 4.12913 7.96391 5
      vertex 0.000999451 7.99999 5
    endloop
  endfacet
  facet normal -0.0087397 -0.999962 -0
    outer loop
      vertex 4.12913 7.96391 5
      vertex 0.000999451 7.99999 3.5
      vertex 4.12913 7.96391 3.5
    endloop
  endfacet
  facet normal 0.0262211 0.999656 -0
    outer loop
      vertex 7.69767 -8.13459 3.5
      vertex 3.84942 -8.03365 5
      vertex 7.69767 -8.13459 5
    endloop
  endfacet
  facet normal 0.0262211 0.999656 0
    outer loop
      vertex 3.84942 -8.03365 5
      vertex 7.69767 -8.13459 3.5
      vertex 3.84942 -8.03365 3.5
    endloop
  endfacet
  facet normal -0.0262225 -0.999656 0
    outer loop
      vertex 4.12913 7.96391 3.5
      vertex 8.25699 7.85563 5
      vertex 4.12913 7.96391 5
    endloop
  endfacet
  facet normal -0.0262225 -0.999656 -0
    outer loop
      vertex 8.25699 7.85563 5
      vertex 4.12913 7.96391 3.5
      vertex 8.25699 7.85563 3.5
    endloop
  endfacet
  facet normal 0.0436902 0.999045 -0
    outer loop
      vertex 11.5436 -8.30278 3.5
      vertex 7.69767 -8.13459 5
      vertex 11.5436 -8.30278 5
    endloop
  endfacet
  facet normal 0.0436902 0.999045 0
    outer loop
      vertex 7.69767 -8.13459 5
      vertex 11.5436 -8.30278 3.5
      vertex 7.69767 -8.13459 3.5
    endloop
  endfacet
  facet normal -0.0436907 -0.999045 0
    outer loop
      vertex 8.25699 7.85563 3.5
      vertex 12.3823 7.67522 5
      vertex 8.25699 7.85563 5
    endloop
  endfacet
  facet normal -0.0436907 -0.999045 -0
    outer loop
      vertex 12.3823 7.67522 5
      vertex 8.25699 7.85563 3.5
      vertex 12.3823 7.67522 3.5
    endloop
  endfacet
  facet normal 0.0611507 0.998129 -0
    outer loop
      vertex 15.3859 -8.53818 3.5
      vertex 11.5436 -8.30278 5
      vertex 15.3859 -8.53818 5
    endloop
  endfacet
  facet normal 0.0611507 0.998129 0
    outer loop
      vertex 11.5436 -8.30278 5
      vertex 15.3859 -8.53818 3.5
      vertex 11.5436 -8.30278 3.5
    endloop
  endfacet
  facet normal -0.0611504 -0.998129 0
    outer loop
      vertex 12.3823 7.67522 3.5
      vertex 16.5039 7.42271 5
      vertex 12.3823 7.67522 5
    endloop
  endfacet
  facet normal -0.0611504 -0.998129 -0
    outer loop
      vertex 16.5039 7.42271 5
      vertex 12.3823 7.67522 3.5
      vertex 16.5039 7.42271 3.5
    endloop
  endfacet
  facet normal 0.0785898 0.996907 -0
    outer loop
      vertex 19.2236 -8.84072 3.5
      vertex 15.3859 -8.53818 5
      vertex 19.2236 -8.84072 5
    endloop
  endfacet
  facet normal 0.0785898 0.996907 0
    outer loop
      vertex 15.3859 -8.53818 5
      vertex 19.2236 -8.84072 3.5
      vertex 15.3859 -8.53818 3.5
    endloop
  endfacet
  facet normal -0.0785901 -0.996907 0
    outer loop
      vertex 16.5039 7.42271 3.5
      vertex 20.6204 7.09819 5
      vertex 16.5039 7.42271 5
    endloop
  endfacet
  facet normal -0.0785901 -0.996907 -0
    outer loop
      vertex 20.6204 7.09819 5
      vertex 16.5039 7.42271 3.5
      vertex 20.6204 7.09819 3.5
    endloop
  endfacet
  facet normal 0.0960046 0.995381 -0
    outer loop
      vertex 23.0181 -9.2067 3.5
      vertex 19.2236 -8.84072 5
      vertex 23.0181 -9.2067 5
    endloop
  endfacet
  facet normal 0.0960046 0.995381 0
    outer loop
      vertex 19.2236 -8.84072 5
      vertex 23.0181 -9.2067 3.5
      vertex 19.2236 -8.84072 3.5
    endloop
  endfacet
  facet normal -0.0960043 -0.995381 0
    outer loop
      vertex 20.6204 7.09819 5
      vertex 24.6906 6.70562 4.76734
      vertex 24.6906 6.70562 5
    endloop
  endfacet
  facet normal -0.0960043 -0.995381 0
    outer loop
      vertex 20.6204 7.09819 3.5
      vertex 24.6906 6.70562 4.76734
      vertex 20.6204 7.09819 5
    endloop
  endfacet
  facet normal -0.0960043 -0.995381 -0
    outer loop
      vertex 24.6906 6.70562 4.76734
      vertex 20.6204 7.09819 3.5
      vertex 24.6906 6.70562 3.5
    endloop
  endfacet
  facet normal 0.10453 0.994522 -0
    outer loop
      vertex 22.9763 -9.60419 0.953464
      vertex 16.1132 -8.88284 2.5
      vertex 22.9763 -9.60419 2.5
    endloop
  endfacet
  facet normal 0.10453 0.994522 0
    outer loop
      vertex 16.1132 -8.88284 0
      vertex 22.9763 -9.60419 0.953464
      vertex 22.9763 -9.60419 0
    endloop
  endfacet
  facet normal 0.10453 0.994522 0
    outer loop
      vertex 22.9763 -9.60419 0.953464
      vertex 16.1132 -8.88284 0
      vertex 16.1132 -8.88284 2.5
    endloop
  endfacet
  facet normal -0.0432543 -0.411535 -0.910367
    outer loop
      vertex 16.8658 -1.72228 2.5
      vertex 23.7095 -2.62873 2.5846
      vertex 23.5022 -4.60064 3.48586
    endloop
  endfacet
  facet normal -0.0432559 -0.411547 -0.910361
    outer loop
      vertex 23.7095 -2.62873 2.5846
      vertex 16.8658 -1.72228 2.5
      vertex 23.7289 -2.44363 2.5
    endloop
  endfacet
  facet normal -0.10453 -0.994522 0
    outer loop
      vertex 16.8658 -1.72228 0
      vertex 23.7289 -2.44363 2.5
      vertex 16.8658 -1.72228 2.5
    endloop
  endfacet
  facet normal -0.10453 -0.994522 -0
    outer loop
      vertex 23.7289 -2.44363 2.5
      vertex 16.8658 -1.72228 0
      vertex 23.7289 -2.44363 0
    endloop
  endfacet
  facet normal 0.99452 -0.104545 0
    outer loop
      vertex 16.8658 -1.72228 0
      vertex 16.8658 -1.72228 2.5
      vertex 16.6358 -3.91023 3.5
    endloop
  endfacet
  facet normal 0.994523 -0.10452 0
    outer loop
      vertex 16.6358 -3.91023 3.5
      vertex 16.1132 -8.88284 2.5
      vertex 16.1132 -8.88284 0
    endloop
  endfacet
  facet normal 0.0467346 0.444644 -0.894487
    outer loop
      vertex 16.1132 -8.88284 2.5
      vertex 22.9793 -9.57606 2.51414
      vertex 22.9763 -9.60419 2.5
    endloop
  endfacet
  facet normal 0.0467467 0.444765 -0.894426
    outer loop
      vertex 22.9793 -9.57606 2.51414
      vertex 16.1132 -8.88284 2.5
      vertex 16.3222 -6.8938 3.5
    endloop
  endfacet
  facet normal -0.0432576 -0.411569 -0.910351
    outer loop
      vertex 16.6358 -3.91023 3.5
      vertex 23.5022 -4.60064 3.48586
      vertex 23.499 -4.63158 3.5
    endloop
  endfacet
  facet normal -0.0432542 -0.411535 -0.910367
    outer loop
      vertex 23.5022 -4.60064 3.48586
      vertex 16.6358 -3.91023 3.5
      vertex 16.8658 -1.72228 2.5
    endloop
  endfacet
  facet normal 0.994522 -0.104528 1.10171e-05
    outer loop
      vertex 16.8658 -1.72228 0
      vertex 16.6358 -3.91023 3.5
      vertex 16.1132 -8.88284 0
    endloop
  endfacet
  facet normal 0.994521 -0.104533 6.56045e-05
    outer loop
      vertex 16.6358 -3.91023 3.5
      vertex 16.3222 -6.8938 3.5
      vertex 16.1132 -8.88284 2.5
    endloop
  endfacet
  facet normal 0.0467466 0.444765 -0.894426
    outer loop
      vertex 23.1854 -7.61515 3.5
      vertex 22.9793 -9.57606 2.51414
      vertex 16.3222 -6.8938 3.5
    endloop
  endfacet
endsolid OpenSCAD_Model
