solid OpenSCAD_Model
  facet normal -1 0 0
    outer loop
      vertex -5.999 -8 0
      vertex -5.999 -5.901 2.6
      vertex -5.999 -5.901 0
    endloop
  endfacet
  facet normal -1 -0 0
    outer loop
      vertex -5.999 -5.901 2.6
      vertex -5.999 -8 0
      vertex -5.999 -8 2.6
    endloop
  endfacet
  facet normal -1 0 0
    outer loop
      vertex -5.999 -3.101 0
      vertex -5.999 -1 2.6
      vertex -5.999 -1 0
    endloop
  endfacet
  facet normal -1 -0 0
    outer loop
      vertex -5.999 -1 2.6
      vertex -5.999 -3.101 0
      vertex -5.999 -3.101 2.6
    endloop
  endfacet
  facet normal 0 0 1
    outer loop
      vertex 0.000999451 -1 2.6
      vertex 5.49316e-07 -3.101 2.6
      vertex 0.000999451 -8 2.6
    endloop
  endfacet
  facet normal -0 0 1
    outer loop
      vertex -5.999 -1 2.6
      vertex 5.49316e-07 -3.101 2.6
      vertex 0.000999451 -1 2.6
    endloop
  endfacet
  facet normal 0 0 1
    outer loop
      vertex 5.49316e-07 -3.101 2.6
      vertex -5.999 -1 2.6
      vertex -5.999 -3.101 2.6
    endloop
  endfacet
  facet normal -0 0 1
    outer loop
      vertex 5.49316e-07 -5.901 2.6
      vertex 0.000999451 -8 2.6
      vertex 5.49316e-07 -3.101 2.6
    endloop
  endfacet
  facet normal -0 0 1
    outer loop
      vertex -5.999 -5.901 2.6
      vertex 0.000999451 -8 2.6
      vertex 5.49316e-07 -5.901 2.6
    endloop
  endfacet
  facet normal 0 0 1
    outer loop
      vertex 0.000999451 -8 2.6
      vertex -5.999 -5.901 2.6
      vertex -5.999 -8 2.6
    endloop
  endfacet
  facet normal 0 0 -1
    outer loop
      vertex 70.8198 -26.3885 0
      vertex 75.4801 -23.894 0
      vertex 73.8651 -27.6621 0
    endloop
  endfacet
  facet normal 0 0 -1
    outer loop
      vertex 70.8198 -26.3885 0
      vertex 69.1372 -21.1755 0
      vertex 75.4801 -23.894 0
    endloop
  endfacet
  facet normal 0 -0 -1
    outer loop
      vertex 69.1372 -21.1755 0
      vertex 70.8198 -26.3885 0
      vertex 67.7525 -25.1687 0
    endloop
  endfacet
  facet normal -0 0 -1
    outer loop
      vertex 86.6278 -13.1132 0
      vertex 85.5247 -15.6867 0
      vertex 86.6268 -13.1128 0
    endloop
  endfacet
  facet normal 0 0 -1
    outer loop
      vertex 85.5238 -15.6863 0
      vertex 86.6268 -13.1128 0
      vertex 85.5247 -15.6867 0
    endloop
  endfacet
  facet normal 0 0 -1
    outer loop
      vertex 81.9406 -8.82057 0
      vertex 86.6268 -13.1128 0
      vertex 85.5238 -15.6863 0
    endloop
  endfacet
  facet normal 0 0 -1
    outer loop
      vertex 79.183 -15.2545 0
      vertex 85.5238 -15.6863 0
      vertex 84.6961 -17.6174 0
    endloop
  endfacet
  facet normal 0 0 -1
    outer loop
      vertex 86.6268 -13.1128 0
      vertex 81.9406 -8.82057 0
      vertex 87.4537 -11.1835 0
    endloop
  endfacet
  facet normal 0 0 -1
    outer loop
      vertex 85.5238 -15.6863 0
      vertex 79.183 -15.2545 0
      vertex 81.9406 -8.82057 0
    endloop
  endfacet
  facet normal 0 0 -1
    outer loop
      vertex 71.9736 -14.5577 0
      vertex 81.9406 -8.82057 0
      vertex 79.183 -15.2545 0
    endloop
  endfacet
  facet normal 0 0 -1
    outer loop
      vertex 71.9736 -14.5577 0
      vertex 79.183 -15.2545 0
      vertex 78.3165 -17.2763 0
    endloop
  endfacet
  facet normal 0 -0 -1
    outer loop
      vertex 76.7861 -1.85788 0
      vertex 81.9406 -8.82057 0
      vertex 71.9736 -14.5577 0
    endloop
  endfacet
  facet normal 0 0 -1
    outer loop
      vertex 81.9406 -8.82057 0
      vertex 76.7861 -1.85788 0
      vertex 80.2623 -3.24032 0
    endloop
  endfacet
  facet normal -0 0 -1
    outer loop
      vertex 76.7861 -1.85788 0
      vertex 71.9736 -14.5577 0
      vertex 73.2861 -0.536844 0
    endloop
  endfacet
  facet normal 0 0 -1
    outer loop
      vertex 71.9736 -14.5577 0
      vertex 69.7633 0.722366 0
      vertex 73.2861 -0.536844 0
    endloop
  endfacet
  facet normal 0 0 -1
    outer loop
      vertex 61.556 -22.892 0
      vertex 71.9736 -14.5577 0
      vertex 69.1372 -21.1755 0
    endloop
  endfacet
  facet normal 0 0 -1
    outer loop
      vertex 64.6643 -24.0031 0
      vertex 69.1372 -21.1755 0
      vertex 67.7525 -25.1687 0
    endloop
  endfacet
  facet normal 0 0 -1
    outer loop
      vertex 61.556 -22.892 0
      vertex 69.1372 -21.1755 0
      vertex 64.6643 -24.0031 0
    endloop
  endfacet
  facet normal 0 0 -1
    outer loop
      vertex 71.9736 -14.5577 0
      vertex 61.556 -22.892 0
      vertex 58.4286 -21.8359 0
    endloop
  endfacet
  facet normal 0 0 -1
    outer loop
      vertex 71.9736 -14.5577 0
      vertex 66.219 1.91937 0
      vertex 69.7633 0.722366 0
    endloop
  endfacet
  facet normal 0 0 -1
    outer loop
      vertex 55.2831 -20.8349 0
      vertex 71.9736 -14.5577 0
      vertex 58.4286 -21.8359 0
    endloop
  endfacet
  facet normal 0 0 -1
    outer loop
      vertex 71.9736 -14.5577 0
      vertex 62.6541 3.05379 0
      vertex 66.219 1.91937 0
    endloop
  endfacet
  facet normal -0 0 -1
    outer loop
      vertex 71.9736 -14.5577 0
      vertex 55.2831 -20.8349 0
      vertex 62.6541 3.05379 0
    endloop
  endfacet
  facet normal -0 0 -1
    outer loop
      vertex 62.6541 3.05379 0
      vertex 55.2831 -20.8349 0
      vertex 59.0698 4.12528 0
    endloop
  endfacet
  facet normal 0 0 -1
    outer loop
      vertex 52.1205 -19.8895 0
      vertex 59.0698 4.12528 0
      vertex 55.2831 -20.8349 0
    endloop
  endfacet
  facet normal -0 0 -1
    outer loop
      vertex 59.0698 4.12528 0
      vertex 52.1205 -19.8895 0
      vertex 55.4672 5.1335 0
    endloop
  endfacet
  facet normal 0 0 -1
    outer loop
      vertex 48.9417 -18.9999 0
      vertex 55.4672 5.1335 0
      vertex 52.1205 -19.8895 0
    endloop
  endfacet
  facet normal -0 0 -1
    outer loop
      vertex 55.4672 5.1335 0
      vertex 48.9417 -18.9999 0
      vertex 51.8474 6.07815 0
    endloop
  endfacet
  facet normal 0 0 -1
    outer loop
      vertex 45.7478 -18.1663 0
      vertex 51.8474 6.07815 0
      vertex 48.9417 -18.9999 0
    endloop
  endfacet
  facet normal -0 0 -1
    outer loop
      vertex 51.8474 6.07815 0
      vertex 45.7478 -18.1663 0
      vertex 48.2115 6.95892 0
    endloop
  endfacet
  facet normal 0 0 -1
    outer loop
      vertex 42.5397 -17.3892 0
      vertex 48.2115 6.95892 0
      vertex 45.7478 -18.1663 0
    endloop
  endfacet
  facet normal -0 0 -1
    outer loop
      vertex 48.2115 6.95892 0
      vertex 42.5397 -17.3892 0
      vertex 44.5607 7.77556 0
    endloop
  endfacet
  facet normal 0 0 -1
    outer loop
      vertex 39.3184 -16.6686 0
      vertex 44.5607 7.77556 0
      vertex 42.5397 -17.3892 0
    endloop
  endfacet
  facet normal -0 0 -1
    outer loop
      vertex 44.5607 7.77556 0
      vertex 39.3184 -16.6686 0
      vertex 40.8961 8.52779 0
    endloop
  endfacet
  facet normal 0 0 -1
    outer loop
      vertex 36.0849 -16.0049 0
      vertex 40.8961 8.52779 0
      vertex 39.3184 -16.6686 0
    endloop
  endfacet
  facet normal -0 0 -1
    outer loop
      vertex 40.8961 8.52779 0
      vertex 36.0849 -16.0049 0
      vertex 37.2188 9.2154 0
    endloop
  endfacet
  facet normal 0 0 -1
    outer loop
      vertex 32.8402 -15.3982 0
      vertex 37.2188 9.2154 0
      vertex 36.0849 -16.0049 0
    endloop
  endfacet
  facet normal -0 0 -1
    outer loop
      vertex 37.2188 9.2154 0
      vertex 32.8402 -15.3982 0
      vertex 33.53 9.83817 0
    endloop
  endfacet
  facet normal 0 0 -1
    outer loop
      vertex 29.5854 -14.8487 0
      vertex 33.53 9.83817 0
      vertex 32.8402 -15.3982 0
    endloop
  endfacet
  facet normal -0 0 -1
    outer loop
      vertex 33.53 9.83817 0
      vertex 29.5854 -14.8487 0
      vertex 29.8308 10.3959 0
    endloop
  endfacet
  facet normal 0 0 -1
    outer loop
      vertex 26.3214 -14.3566 0
      vertex 29.8308 10.3959 0
      vertex 29.5854 -14.8487 0
    endloop
  endfacet
  facet normal 0 0 -1
    outer loop
      vertex 26.3214 -14.3566 0
      vertex 26.1223 10.8884 0
      vertex 29.8308 10.3959 0
    endloop
  endfacet
  facet normal 0 0 -1
    outer loop
      vertex 23.0492 -13.922 0
      vertex 26.1223 10.8884 0
      vertex 26.3214 -14.3566 0
    endloop
  endfacet
  facet normal 0 0 -1
    outer loop
      vertex 23.0492 -13.922 0
      vertex 22.4057 11.3156 0
      vertex 26.1223 10.8884 0
    endloop
  endfacet
  facet normal 0 0 -1
    outer loop
      vertex 19.7699 -13.5451 0
      vertex 22.4057 11.3156 0
      vertex 23.0492 -13.922 0
    endloop
  endfacet
  facet normal 0 0 -1
    outer loop
      vertex 19.7699 -13.5451 0
      vertex 18.6822 11.6773 0
      vertex 22.4057 11.3156 0
    endloop
  endfacet
  facet normal 0 0 -1
    outer loop
      vertex 16.4844 -13.2259 0
      vertex 18.6822 11.6773 0
      vertex 19.7699 -13.5451 0
    endloop
  endfacet
  facet normal 0 0 -1
    outer loop
      vertex 7 1.2 0
      vertex 18.6822 11.6773 0
      vertex 16.4844 -13.2259 0
    endloop
  endfacet
  facet normal 0 0 -1
    outer loop
      vertex 7 1.2 0
      vertex 16.4844 -13.2259 0
      vertex 13.1939 -12.9647 0
    endloop
  endfacet
  facet normal -0 0 -1
    outer loop
      vertex 18.6822 11.6773 0
      vertex 7 1.2 0
      vertex 14.9529 11.9733 0
    endloop
  endfacet
  facet normal 0 0 -1
    outer loop
      vertex 7 1.2 0
      vertex 13.1939 -12.9647 0
      vertex 9.89924 -12.7614 0
    endloop
  endfacet
  facet normal 0 0 -1
    outer loop
      vertex 7 8.4 0
      vertex 14.9529 11.9733 0
      vertex 7 1.2 0
    endloop
  endfacet
  facet normal -0 0 -1
    outer loop
      vertex 14.9529 11.9733 0
      vertex 7 8.4 0
      vertex 11.219 12.2037 0
    endloop
  endfacet
  facet normal 0 0 -1
    outer loop
      vertex 6.60153 -12.6162 0
      vertex 7 1.2 0
      vertex 9.89924 -12.7614 0
    endloop
  endfacet
  facet normal 0 0 -1
    outer loop
      vertex 0.000999451 -8 0
      vertex 6.60153 -12.6162 0
      vertex 3.30178 -12.5291 0
    endloop
  endfacet
  facet normal 0 0 -1
    outer loop
      vertex 0.000999451 -8 0
      vertex 3.30178 -12.5291 0
      vertex 0.000999451 -12.5 0
    endloop
  endfacet
  facet normal 0 0 -1
    outer loop
      vertex 6.60153 -12.6162 0
      vertex 0.000999451 -8 0
      vertex 7 1.2 0
    endloop
  endfacet
  facet normal 0 0 -1
    outer loop
      vertex 0.000999451 -1 0
      vertex 7 1.2 0
      vertex 0.000999451 -8 0
    endloop
  endfacet
  facet normal -0 0 -1
    outer loop
      vertex 7 1.2 0
      vertex 0.000999451 -1 0
      vertex 0.000999451 1.2 0
    endloop
  endfacet
  facet normal -0 0 -1
    outer loop
      vertex 83.7137 -4.68374 0
      vertex 81.9406 -8.82057 0
      vertex 80.2623 -3.24032 0
    endloop
  endfacet
  facet normal 0 0 -1
    outer loop
      vertex -6 -5.901 0
      vertex -5.999 -3.101 0
      vertex -5.999 -5.901 0
    endloop
  endfacet
  facet normal -0 0 -1
    outer loop
      vertex -5.999 -3.101 0
      vertex -6 -5.901 0
      vertex -6 -3.101 0
    endloop
  endfacet
  facet normal 0 0 -1
    outer loop
      vertex -5.999 -5.901 0
      vertex 0.000999451 -8 0
      vertex -5.999 -8 0
    endloop
  endfacet
  facet normal 0 0 -1
    outer loop
      vertex 0.000999451 -8 0
      vertex -5.999 -5.901 0
      vertex 0.000999451 -1 0
    endloop
  endfacet
  facet normal 0 0 -1
    outer loop
      vertex -5.999 -3.101 0
      vertex 0.000999451 -1 0
      vertex -5.999 -5.901 0
    endloop
  endfacet
  facet normal -0 0 -1
    outer loop
      vertex 0.000999451 -1 0
      vertex -5.999 -3.101 0
      vertex -5.999 -1 0
    endloop
  endfacet
  facet normal -0 0 -1
    outer loop
      vertex 11.219 12.2037 0
      vertex 7 8.4 0
      vertex 7.4816 12.3683 0
    endloop
  endfacet
  facet normal 0 0 -1
    outer loop
      vertex 7 8.4 0
      vertex 3.74188 12.4671 0
      vertex 7.4816 12.3683 0
    endloop
  endfacet
  facet normal 0 0 -1
    outer loop
      vertex 0.000999451 8.4 0
      vertex 3.74188 12.4671 0
      vertex 7 8.4 0
    endloop
  endfacet
  facet normal -0 0 -1
    outer loop
      vertex 3.74188 12.4671 0
      vertex 0.000999451 8.4 0
      vertex 0.000999451 12.5 0
    endloop
  endfacet
  facet normal 0 -1 0
    outer loop
      vertex -5.999 -8 0
      vertex 0.000999451 -8 2.6
      vertex -5.999 -8 2.6
    endloop
  endfacet
  facet normal 0 -1 -0
    outer loop
      vertex 0.000999451 -8 2.6
      vertex -5.999 -8 0
      vertex 0.000999451 -8 0
    endloop
  endfacet
  facet normal 0 1 -0
    outer loop
      vertex 0.000999451 -1 0
      vertex -5.999 -1 2.6
      vertex 0.000999451 -1 2.6
    endloop
  endfacet
  facet normal 0 1 0
    outer loop
      vertex -5.999 -1 2.6
      vertex 0.000999451 -1 0
      vertex -5.999 -1 0
    endloop
  endfacet
  facet normal -1 0 0
    outer loop
      vertex -6 -5.901 0
      vertex -6 -3.101 4.6
      vertex -6 -3.101 0
    endloop
  endfacet
  facet normal -1 -0 0
    outer loop
      vertex -6 -3.101 4.6
      vertex -6 -5.901 0
      vertex -6 -5.901 4.6
    endloop
  endfacet
  facet normal 0 0 -1
    outer loop
      vertex -0.000999855 -6.202 4.6
      vertex -6 -5.901 4.6
      vertex -0.000999855 -5.901 4.6
    endloop
  endfacet
  facet normal -0 0 -1
    outer loop
      vertex -6 -5.901 4.6
      vertex -6.001 -6.202 4.6
      vertex -6 -3.101 4.6
    endloop
  endfacet
  facet normal 0 0 -1
    outer loop
      vertex -6.001 -6.202 4.6
      vertex -6 -5.901 4.6
      vertex -0.000999855 -6.202 4.6
    endloop
  endfacet
  facet normal 0 0 -1
    outer loop
      vertex -6 -3.101 4.6
      vertex -0.000999855 -2.802 4.6
      vertex -0.000999855 -3.101 4.6
    endloop
  endfacet
  facet normal 0 0 -1
    outer loop
      vertex -6 -3.101 4.6
      vertex -6.001 -2.802 4.6
      vertex -0.000999855 -2.802 4.6
    endloop
  endfacet
  facet normal 0 0 -1
    outer loop
      vertex -6.001 -2.802 4.6
      vertex -6 -3.101 4.6
      vertex -6.001 -6.202 4.6
    endloop
  endfacet
  facet normal -0 0 1
    outer loop
      vertex -0.000999855 -3.101 4.6
      vertex 0 -5.901 4.6
      vertex 0 -3.101 4.6
    endloop
  endfacet
  facet normal 0 0 1
    outer loop
      vertex 0 -5.901 4.6
      vertex -0.000999855 -3.101 4.6
      vertex -0.000999855 -5.901 4.6
    endloop
  endfacet
  facet normal 1 -0 0
    outer loop
      vertex 5.49316e-07 -5.901 3.5
      vertex 5.49316e-07 -3.101 2.6
      vertex 5.49316e-07 -3.101 3.5
    endloop
  endfacet
  facet normal 1 0 0
    outer loop
      vertex 5.49316e-07 -3.101 2.6
      vertex 5.49316e-07 -5.901 3.5
      vertex 5.49316e-07 -5.901 2.6
    endloop
  endfacet
  facet normal 0 -1 0
    outer loop
      vertex 0 -5.901 3.5
      vertex -0.000999855 -5.901 4.6
      vertex -6 -5.901 4.6
    endloop
  endfacet
  facet normal 0 -1 0
    outer loop
      vertex -0.000999855 -5.901 4.6
      vertex 0 -5.901 3.5
      vertex 0 -5.901 4.6
    endloop
  endfacet
  facet normal 0 -1 0
    outer loop
      vertex 5.49316e-07 -5.901 2.6
      vertex 0 -5.901 3.5
      vertex -5.999 -5.901 2.6
    endloop
  endfacet
  facet normal 0 -1 0
    outer loop
      vertex -6 -5.901 4.6
      vertex -5.999 -5.901 2.6
      vertex 0 -5.901 3.5
    endloop
  endfacet
  facet normal 0 -1 0
    outer loop
      vertex -6 -5.901 0
      vertex -5.999 -5.901 2.6
      vertex -6 -5.901 4.6
    endloop
  endfacet
  facet normal 0 -1 -0
    outer loop
      vertex -5.999 -5.901 2.6
      vertex -6 -5.901 0
      vertex -5.999 -5.901 0
    endloop
  endfacet
  facet normal 0 -1 0
    outer loop
      vertex 0 -5.901 3.5
      vertex 5.49316e-07 -5.901 2.6
      vertex 5.49316e-07 -5.901 3.5
    endloop
  endfacet
  facet normal 0 1 0
    outer loop
      vertex 5.49316e-07 -3.101 3.5
      vertex 5.49316e-07 -3.101 2.6
      vertex 0 -3.101 3.5
    endloop
  endfacet
  facet normal 0 1 -0
    outer loop
      vertex 0 -3.101 3.5
      vertex -0.000999855 -3.101 4.6
      vertex 0 -3.101 4.6
    endloop
  endfacet
  facet normal 0 1 0
    outer loop
      vertex -0.000999855 -3.101 4.6
      vertex 0 -3.101 3.5
      vertex -6 -3.101 4.6
    endloop
  endfacet
  facet normal 0 1 0
    outer loop
      vertex -5.999 -3.101 2.6
      vertex 0 -3.101 3.5
      vertex 5.49316e-07 -3.101 2.6
    endloop
  endfacet
  facet normal 0 1 0
    outer loop
      vertex 0 -3.101 3.5
      vertex -5.999 -3.101 2.6
      vertex -6 -3.101 4.6
    endloop
  endfacet
  facet normal 0 1 0
    outer loop
      vertex -6 -3.101 0
      vertex -5.999 -3.101 2.6
      vertex -5.999 -3.101 0
    endloop
  endfacet
  facet normal 0 1 0
    outer loop
      vertex -5.999 -3.101 2.6
      vertex -6 -3.101 0
      vertex -6 -3.101 4.6
    endloop
  endfacet
  facet normal -1 0 0
    outer loop
      vertex -6.001 -6.202 4.6
      vertex -6.001 -2.802 5.2
      vertex -6.001 -2.802 4.6
    endloop
  endfacet
  facet normal -1 -0 0
    outer loop
      vertex -6.001 -2.802 5.2
      vertex -6.001 -6.202 4.6
      vertex -6.001 -6.202 5.2
    endloop
  endfacet
  facet normal -0 0 1
    outer loop
      vertex -6.001 -2.802 5.2
      vertex -0.000999855 -6.202 5.2
      vertex -0.000999855 -2.802 5.2
    endloop
  endfacet
  facet normal 0 0 1
    outer loop
      vertex -0.000999855 -6.202 5.2
      vertex -6.001 -2.802 5.2
      vertex -6.001 -6.202 5.2
    endloop
  endfacet
  facet normal 1 0 0
    outer loop
      vertex -0.000999855 -2.802 5.2
      vertex -0.000999855 -3.101 4.6
      vertex -0.000999855 -2.802 4.6
    endloop
  endfacet
  facet normal 1 0 0
    outer loop
      vertex -0.000999855 -2.802 5.2
      vertex -0.000999855 -5.901 4.6
      vertex -0.000999855 -3.101 4.6
    endloop
  endfacet
  facet normal 1 -0 0
    outer loop
      vertex -0.000999855 -6.202 5.2
      vertex -0.000999855 -5.901 4.6
      vertex -0.000999855 -2.802 5.2
    endloop
  endfacet
  facet normal 1 0 0
    outer loop
      vertex -0.000999855 -5.901 4.6
      vertex -0.000999855 -6.202 5.2
      vertex -0.000999855 -6.202 4.6
    endloop
  endfacet
  facet normal 0 -1 0
    outer loop
      vertex -6.001 -6.202 4.6
      vertex -0.000999855 -6.202 5.2
      vertex -6.001 -6.202 5.2
    endloop
  endfacet
  facet normal 0 -1 -0
    outer loop
      vertex -0.000999855 -6.202 5.2
      vertex -6.001 -6.202 4.6
      vertex -0.000999855 -6.202 4.6
    endloop
  endfacet
  facet normal 0 1 -0
    outer loop
      vertex -0.000999855 -2.802 4.6
      vertex -6.001 -2.802 5.2
      vertex -0.000999855 -2.802 5.2
    endloop
  endfacet
  facet normal 0 1 0
    outer loop
      vertex -6.001 -2.802 5.2
      vertex -0.000999855 -2.802 4.6
      vertex -6.001 -2.802 4.6
    endloop
  endfacet
  facet normal 0.919135 -0.393942 0
    outer loop
      vertex 86.6268 -13.1128 2.6
      vertex 87.4537 -11.1835 0
      vertex 87.4537 -11.1835 2.6
    endloop
  endfacet
  facet normal 0.919135 -0.393942 0
    outer loop
      vertex 87.4537 -11.1835 0
      vertex 86.6268 -13.1128 2.6
      vertex 86.6268 -13.1128 0
    endloop
  endfacet
  facet normal 0.91913 -0.393954 0
    outer loop
      vertex 84.6961 -17.6174 2.6
      vertex 85.5238 -15.6863 0
      vertex 85.5238 -15.6863 2.6
    endloop
  endfacet
  facet normal 0.91913 -0.393954 0
    outer loop
      vertex 85.5238 -15.6863 0
      vertex 84.6961 -17.6174 2.6
      vertex 84.6961 -17.6174 0
    endloop
  endfacet
  facet normal 0 0 1
    outer loop
      vertex 81.9406 -8.82057 2.6
      vertex 86.6268 -13.1128 2.6
      vertex 87.4537 -11.1835 2.6
    endloop
  endfacet
  facet normal 0 0 1
    outer loop
      vertex 86.6268 -13.1128 2.6
      vertex 81.9406 -8.82057 2.6
      vertex 81.1137 -10.7498 2.6
    endloop
  endfacet
  facet normal 0 0 1
    outer loop
      vertex 80.0107 -13.3234 2.6
      vertex 84.6961 -17.6174 2.6
      vertex 85.5238 -15.6863 2.6
    endloop
  endfacet
  facet normal 0 0 1
    outer loop
      vertex 84.6961 -17.6174 2.6
      vertex 80.0107 -13.3234 2.6
      vertex 79.183 -15.2545 2.6
    endloop
  endfacet
  facet normal 0.393944 0.919135 -0
    outer loop
      vertex 87.4537 -11.1835 0
      vertex 81.9406 -8.82057 2.6
      vertex 87.4537 -11.1835 2.6
    endloop
  endfacet
  facet normal 0.393944 0.919135 0
    outer loop
      vertex 81.9406 -8.82057 2.6
      vertex 87.4537 -11.1835 0
      vertex 81.9406 -8.82057 0
    endloop
  endfacet
  facet normal -0.393939 -0.919136 0
    outer loop
      vertex 79.183 -15.2545 0
      vertex 84.6961 -17.6174 2.6
      vertex 79.183 -15.2545 2.6
    endloop
  endfacet
  facet normal -0.393939 -0.919136 -0
    outer loop
      vertex 84.6961 -17.6174 2.6
      vertex 79.183 -15.2545 0
      vertex 84.6961 -17.6174 0
    endloop
  endfacet
  facet normal 0.919123 -0.393971 0
    outer loop
      vertex 85.5247 -15.6867 4.6
      vertex 86.6278 -13.1132 0
      vertex 86.6278 -13.1132 4.6
    endloop
  endfacet
  facet normal 0.919123 -0.393971 0
    outer loop
      vertex 86.6278 -13.1132 0
      vertex 85.5247 -15.6867 4.6
      vertex 85.5247 -15.6867 0
    endloop
  endfacet
  facet normal 0 0 -1
    outer loop
      vertex 86.7473 -12.8369 4.6
      vertex 85.5247 -15.6867 4.6
      vertex 86.6278 -13.1132 4.6
    endloop
  endfacet
  facet normal 0 0 -1
    outer loop
      vertex 85.4079 -15.962 4.6
      vertex 85.5247 -15.6867 4.6
      vertex 86.7473 -12.8369 4.6
    endloop
  endfacet
  facet normal 0 0 -1
    outer loop
      vertex 85.4079 -15.962 4.6
      vertex 80.0424 -13.337 4.6
      vertex 85.5247 -15.6867 4.6
    endloop
  endfacet
  facet normal 0 -0 -1
    outer loop
      vertex 80.0424 -13.337 4.6
      vertex 85.4079 -15.962 4.6
      vertex 79.9246 -13.6118 4.6
    endloop
  endfacet
  facet normal 0 0 -1
    outer loop
      vertex 86.6278 -13.1132 4.6
      vertex 81.2645 -10.487 4.6
      vertex 86.7473 -12.8369 4.6
    endloop
  endfacet
  facet normal 0 -0 -1
    outer loop
      vertex 81.2645 -10.487 4.6
      vertex 86.6278 -13.1132 4.6
      vertex 81.1459 -10.7636 4.6
    endloop
  endfacet
  facet normal 0.39395 0.919132 0
    outer loop
      vertex 86.6278 -13.1132 4.6
      vertex 81.1459 -10.7636 3.5
      vertex 81.1459 -10.7636 4.6
    endloop
  endfacet
  facet normal 0.393954 0.91913 -1.44859e-06
    outer loop
      vertex 81.1137 -10.7498 2.6
      vertex 81.1459 -10.7636 3.5
      vertex 86.6268 -13.1128 2.6
    endloop
  endfacet
  facet normal 0.393952 0.919131 -1.31497e-05
    outer loop
      vertex 86.6278 -13.1132 4.6
      vertex 86.6268 -13.1128 2.6
      vertex 81.1459 -10.7636 3.5
    endloop
  endfacet
  facet normal 0.371391 0.928477 -0
    outer loop
      vertex 86.6278 -13.1132 0
      vertex 86.6268 -13.1128 2.6
      vertex 86.6278 -13.1132 4.6
    endloop
  endfacet
  facet normal 0.371391 0.928477 0
    outer loop
      vertex 86.6268 -13.1128 2.6
      vertex 86.6278 -13.1132 0
      vertex 86.6268 -13.1128 0
    endloop
  endfacet
  facet normal 0.393919 0.919145 0
    outer loop
      vertex 81.1459 -10.7636 3.5
      vertex 81.1137 -10.7498 2.6
      vertex 81.1137 -10.7498 3.5
    endloop
  endfacet
  facet normal -0.394269 -0.918995 -0
    outer loop
      vertex 80.0107 -13.3234 3.5
      vertex 80.0107 -13.3234 2.6
      vertex 80.0424 -13.337 3.5
    endloop
  endfacet
  facet normal -0.39394 -0.919136 0
    outer loop
      vertex 80.0424 -13.337 3.5
      vertex 85.5247 -15.6867 4.6
      vertex 80.0424 -13.337 4.6
    endloop
  endfacet
  facet normal -0.393939 -0.919136 -1.37506e-05
    outer loop
      vertex 85.5238 -15.6863 2.6
      vertex 80.0424 -13.337 3.5
      vertex 80.0107 -13.3234 2.6
    endloop
  endfacet
  facet normal -0.393938 -0.919137 -6.55508e-06
    outer loop
      vertex 80.0424 -13.337 3.5
      vertex 85.5238 -15.6863 2.6
      vertex 85.5247 -15.6867 4.6
    endloop
  endfacet
  facet normal -0.406138 -0.913812 0
    outer loop
      vertex 85.5247 -15.6867 0
      vertex 85.5238 -15.6863 2.6
      vertex 85.5238 -15.6863 0
    endloop
  endfacet
  facet normal -0.406138 -0.913812 0
    outer loop
      vertex 85.5238 -15.6863 2.6
      vertex 85.5247 -15.6867 0
      vertex 85.5247 -15.6867 4.6
    endloop
  endfacet
  facet normal 0.919137 -0.393937 0
    outer loop
      vertex 85.4079 -15.962 5.2
      vertex 86.7473 -12.8369 4.6
      vertex 86.7473 -12.8369 5.2
    endloop
  endfacet
  facet normal 0.919137 -0.393937 0
    outer loop
      vertex 86.7473 -12.8369 4.6
      vertex 85.4079 -15.962 5.2
      vertex 85.4079 -15.962 4.6
    endloop
  endfacet
  facet normal 0 0 1
    outer loop
      vertex 81.2645 -10.487 5.2
      vertex 85.4079 -15.962 5.2
      vertex 86.7473 -12.8369 5.2
    endloop
  endfacet
  facet normal 0 0 1
    outer loop
      vertex 85.4079 -15.962 5.2
      vertex 81.2645 -10.487 5.2
      vertex 79.9246 -13.6118 5.2
    endloop
  endfacet
  facet normal 0.393938 0.919137 -0
    outer loop
      vertex 86.7473 -12.8369 4.6
      vertex 81.2645 -10.487 5.2
      vertex 86.7473 -12.8369 5.2
    endloop
  endfacet
  facet normal 0.393938 0.919137 0
    outer loop
      vertex 81.2645 -10.487 5.2
      vertex 86.7473 -12.8369 4.6
      vertex 81.2645 -10.487 4.6
    endloop
  endfacet
  facet normal -0.39395 -0.919132 0
    outer loop
      vertex 79.9246 -13.6118 4.6
      vertex 85.4079 -15.962 5.2
      vertex 79.9246 -13.6118 5.2
    endloop
  endfacet
  facet normal -0.39395 -0.919132 -0
    outer loop
      vertex 85.4079 -15.962 5.2
      vertex 79.9246 -13.6118 4.6
      vertex 85.4079 -15.962 4.6
    endloop
  endfacet
  facet normal -1 0 0
    outer loop
      vertex 0.000999451 1.2 0
      vertex 0.000999451 -1 0
      vertex 0.000999451 1.2 2.5
    endloop
  endfacet
  facet normal -1 0 0
    outer loop
      vertex 0.000999451 -1 2.6
      vertex 0.000999451 1.2 2.5
      vertex 0.000999451 -1 0
    endloop
  endfacet
  facet normal -1 0 0
    outer loop
      vertex 0.000999451 -1 2.6
      vertex 0.000999451 3.4 3.5
      vertex 0.000999451 1.2 2.5
    endloop
  endfacet
  facet normal -1 0 0
    outer loop
      vertex 0.000999451 -8.00001 3.5
      vertex 0.000999451 -1 2.6
      vertex 0.000999451 -8 2.6
    endloop
  endfacet
  facet normal -1 0 0
    outer loop
      vertex 0.000999451 -1 2.6
      vertex 0.000999451 -8.00001 3.5
      vertex 0.000999451 3.4 3.5
    endloop
  endfacet
  facet normal -1 0 0
    outer loop
      vertex 0.000999451 -12.5 0
      vertex 0.000999451 -8 2.6
      vertex 0.000999451 -8 0
    endloop
  endfacet
  facet normal -1 0 0
    outer loop
      vertex 0.000999451 -8.00001 3.5
      vertex 0.000999451 -9 5
      vertex 0.000999451 -8.00001 5
    endloop
  endfacet
  facet normal -1 0 -0
    outer loop
      vertex 0.000999451 -9 5
      vertex 0.000999451 -8 2.6
      vertex 0.000999451 -12.5 0
    endloop
  endfacet
  facet normal -1 0 0
    outer loop
      vertex 0.000999451 -8 2.6
      vertex 0.000999451 -9 5
      vertex 0.000999451 -8.00001 3.5
    endloop
  endfacet
  facet normal -1 0 0
    outer loop
      vertex 0.000999451 8.4 2.5
      vertex 0.000999451 6.4 3.5
      vertex 0.000999451 7.99999 3.5
    endloop
  endfacet
  facet normal -1 0 0
    outer loop
      vertex 0.000999451 8.4 2.5
      vertex 0.000999451 12.5 0
      vertex 0.000999451 8.4 0
    endloop
  endfacet
  facet normal -1 0 0
    outer loop
      vertex 0.000999451 12.5 0
      vertex 0.000999451 8.4 2.5
      vertex 0.000999451 9 5
    endloop
  endfacet
  facet normal -1 0 0
    outer loop
      vertex 0.000999451 7.99999 3.5
      vertex 0.000999451 9 5
      vertex 0.000999451 8.4 2.5
    endloop
  endfacet
  facet normal -1 -0 0
    outer loop
      vertex 0.000999451 9 5
      vertex 0.000999451 7.99999 3.5
      vertex 0.000999451 7.99999 5
    endloop
  endfacet
  facet normal 0.919124 -0.393968 0
    outer loop
      vertex 75.2439 -24.4451 5
      vertex 75.6376 -23.5266 3.5
      vertex 75.6376 -23.5266 5
    endloop
  endfacet
  facet normal 0.919118 -0.393983 -1.1489e-05
    outer loop
      vertex 75.6376 -23.5266 3.5
      vertex 75.2439 -24.4451 5
      vertex 75.4801 -23.894 2.5
    endloop
  endfacet
  facet normal 0.919136 -0.39394 -1.08955e-07
    outer loop
      vertex 73.8651 -27.6621 0
      vertex 75.4801 -23.894 2.5
      vertex 75.2439 -24.4451 5
    endloop
  endfacet
  facet normal 0.919136 -0.39394 0
    outer loop
      vertex 75.4801 -23.894 2.5
      vertex 73.8651 -27.6621 0
      vertex 75.4801 -23.894 0.953397
    endloop
  endfacet
  facet normal 0.919126 -0.393947 -0.00364615
    outer loop
      vertex 75.6376 -23.5266 3.5
      vertex 76.2568 -22.0818 3.48585
      vertex 76.268 -22.0558 3.5
    endloop
  endfacet
  facet normal 0.919145 -0.39392 -3.92507e-05
    outer loop
      vertex 76.2568 -22.0818 3.48585
      vertex 75.6376 -23.5266 3.5
      vertex 75.4801 -23.894 2.5
    endloop
  endfacet
  facet normal 0.919106 -0.394011 0
    outer loop
      vertex 81.9406 -8.82049 4.76728
      vertex 82.3349 -7.90071 5
      vertex 81.9406 -8.82049 5
    endloop
  endfacet
  facet normal 0.919138 -0.393936 -9.85257e-06
    outer loop
      vertex 79.7939 -13.8291 3.5
      vertex 77.4621 -19.2697 3.48585
      vertex 78.2432 -17.4472 2.58455
    endloop
  endfacet
  facet normal 0.919138 -0.393936 -3.89553e-05
    outer loop
      vertex 77.4621 -19.2697 3.48585
      vertex 79.7939 -13.8291 3.5
      vertex 77.4498 -19.2984 3.5
    endloop
  endfacet
  facet normal 0.919136 -0.393941 3.50169e-05
    outer loop
      vertex 81.1137 -10.7498 3.5
      vertex 81.9406 -8.82057 2.6
      vertex 81.9406 -8.82049 3.5
    endloop
  endfacet
  facet normal 0.91913 -0.393954 0
    outer loop
      vertex 81.9406 -8.82057 2.6
      vertex 81.1137 -10.7498 3.5
      vertex 81.1137 -10.7498 2.6
    endloop
  endfacet
  facet normal 0.919106 -0.394011 0
    outer loop
      vertex 81.9406 -8.82049 3.5
      vertex 82.3349 -7.90071 5
      vertex 81.9406 -8.82049 4.76728
    endloop
  endfacet
  facet normal 0.919085 -0.394059 3.50275e-05
    outer loop
      vertex 81.9406 -8.82057 2.6
      vertex 82.3349 -7.90071 5
      vertex 81.9406 -8.82049 3.5
    endloop
  endfacet
  facet normal 0.919129 -0.393958 -1.10641e-05
    outer loop
      vertex 82.3349 -7.90071 5
      vertex 81.9406 -8.82057 2.6
      vertex 83.7137 -4.68374 0
    endloop
  endfacet
  facet normal 0.919131 -0.393952 0
    outer loop
      vertex 83.7137 -4.68374 0
      vertex 81.9406 -8.82057 2.6
      vertex 81.9406 -8.82057 0
    endloop
  endfacet
  facet normal 0.919136 -0.39394 0
    outer loop
      vertex 75.4801 -23.894 0
      vertex 75.4801 -23.894 0.953397
      vertex 73.8651 -27.6621 0
    endloop
  endfacet
  facet normal 0.919098 -0.394029 0
    outer loop
      vertex 79.7939 -13.8291 3.5
      vertex 80.0107 -13.3234 2.6
      vertex 80.0107 -13.3234 3.5
    endloop
  endfacet
  facet normal 0.91913 -0.393954 5.00236e-05
    outer loop
      vertex 79.7939 -13.8291 3.5
      vertex 79.183 -15.2545 2.6
      vertex 80.0107 -13.3234 2.6
    endloop
  endfacet
  facet normal 0.919143 -0.393925 0
    outer loop
      vertex 79.183 -15.2545 2.6
      vertex 78.3165 -17.2763 2.5
      vertex 79.183 -15.2545 0
    endloop
  endfacet
  facet normal 0.919134 -0.393945 3.32016e-05
    outer loop
      vertex 78.2432 -17.4472 2.58455
      vertex 79.183 -15.2545 2.6
      vertex 79.7939 -13.8291 3.5
    endloop
  endfacet
  facet normal 0.919133 -0.393948 0.0005528
    outer loop
      vertex 79.183 -15.2545 2.6
      vertex 78.2432 -17.4472 2.58455
      vertex 78.3165 -17.2763 2.5
    endloop
  endfacet
  facet normal 0.919143 -0.393925 0
    outer loop
      vertex 79.183 -15.2545 0
      vertex 78.3165 -17.2763 2.5
      vertex 78.3165 -17.2763 0
    endloop
  endfacet
  facet normal -0.00721172 -0.819211 0.573447
    outer loop
      vertex 3.36339 -9.0296 5
      vertex 0.000999451 -9 5
      vertex 0.000999451 -12.5 0
    endloop
  endfacet
  facet normal -0.00722221 -0.819207 0.573452
    outer loop
      vertex 3.30178 -12.5291 0
      vertex 3.36339 -9.0296 5
      vertex 0.000999451 -12.5 0
    endloop
  endfacet
  facet normal -0 0 1
    outer loop
      vertex 78.5938 -7.42011 5
      vertex 82.3349 -7.90071 5
      vertex 78.9404 -6.48106 5
    endloop
  endfacet
  facet normal 0 0 1
    outer loop
      vertex 82.3349 -7.90071 5
      vertex 78.5938 -7.42011 5
      vertex 81.9406 -8.82049 5
    endloop
  endfacet
  facet normal -0 0 1
    outer loop
      vertex 75.1899 -6.06581 5
      vertex 78.9404 -6.48106 5
      vertex 75.5214 -5.12139 5
    endloop
  endfacet
  facet normal 0 0 1
    outer loop
      vertex 78.9404 -6.48106 5
      vertex 75.1899 -6.06581 5
      vertex 78.5938 -7.42011 5
    endloop
  endfacet
  facet normal -0 0 1
    outer loop
      vertex 71.7628 -4.77166 5
      vertex 75.5214 -5.12139 5
      vertex 72.079 -3.82212 5
    endloop
  endfacet
  facet normal 0 0 1
    outer loop
      vertex 75.5214 -5.12139 5
      vertex 71.7628 -4.77166 5
      vertex 75.1899 -6.06581 5
    endloop
  endfacet
  facet normal -0 0 1
    outer loop
      vertex 68.3133 -3.53807 5
      vertex 72.079 -3.82212 5
      vertex 68.6143 -2.58365 5
    endloop
  endfacet
  facet normal 0 0 1
    outer loop
      vertex 72.079 -3.82212 5
      vertex 68.3133 -3.53807 5
      vertex 71.7628 -4.77166 5
    endloop
  endfacet
  facet normal -0 0 1
    outer loop
      vertex 64.8427 -2.36543 5
      vertex 68.6143 -2.58365 5
      vertex 65.1283 -1.40636 5
    endloop
  endfacet
  facet normal 0 0 1
    outer loop
      vertex 68.6143 -2.58365 5
      vertex 64.8427 -2.36543 5
      vertex 68.3133 -3.53807 5
    endloop
  endfacet
  facet normal -0 0 1
    outer loop
      vertex 61.352 -1.25409 5
      vertex 65.1283 -1.40636 5
      vertex 61.6222 -0.290627 5
    endloop
  endfacet
  facet normal 0 0 1
    outer loop
      vertex 65.1283 -1.40636 5
      vertex 61.352 -1.25409 5
      vertex 64.8427 -2.36543 5
    endloop
  endfacet
  facet normal -0 0 1
    outer loop
      vertex 57.8422 -0.204397 5
      vertex 61.6222 -0.290627 5
      vertex 58.0969 0.763213 5
    endloop
  endfacet
  facet normal 0 0 1
    outer loop
      vertex 61.6222 -0.290627 5
      vertex 57.8422 -0.204397 5
      vertex 61.352 -1.25409 5
    endloop
  endfacet
  facet normal -0 0 1
    outer loop
      vertex 54.3145 0.783315 5
      vertex 58.0969 0.763213 5
      vertex 54.5536 1.75483 5
    endloop
  endfacet
  facet normal 0 0 1
    outer loop
      vertex 58.0969 0.763213 5
      vertex 54.3145 0.783315 5
      vertex 57.8422 -0.204397 5
    endloop
  endfacet
  facet normal 0 0 1
    outer loop
      vertex 50.7699 1.70875 5
      vertex 54.5536 1.75483 5
      vertex 50.9934 2.68392 5
    endloop
  endfacet
  facet normal 0 0 1
    outer loop
      vertex 54.5536 1.75483 5
      vertex 50.7699 1.70875 5
      vertex 54.3145 0.783315 5
    endloop
  endfacet
  facet normal 0 0 1
    outer loop
      vertex 47.2096 2.57161 5
      vertex 50.9934 2.68392 5
      vertex 47.4175 3.55019 5
    endloop
  endfacet
  facet normal 0 0 1
    outer loop
      vertex 50.9934 2.68392 5
      vertex 47.2096 2.57161 5
      vertex 50.7699 1.70875 5
    endloop
  endfacet
  facet normal 0 0 1
    outer loop
      vertex 43.6346 3.37163 5
      vertex 47.4175 3.55019 5
      vertex 43.8268 4.35337 5
    endloop
  endfacet
  facet normal 0 0 1
    outer loop
      vertex 47.4175 3.55019 5
      vertex 43.6346 3.37163 5
      vertex 47.2096 2.57161 5
    endloop
  endfacet
  facet normal 0 0 1
    outer loop
      vertex 40.0461 4.10857 5
      vertex 43.8268 4.35337 5
      vertex 40.2225 5.09322 5
    endloop
  endfacet
  facet normal 0 0 1
    outer loop
      vertex 43.8268 4.35337 5
      vertex 40.0461 4.10857 5
      vertex 43.6346 3.37163 5
    endloop
  endfacet
  facet normal 0 0 1
    outer loop
      vertex 36.4452 4.78219 5
      vertex 40.2225 5.09322 5
      vertex 36.6058 5.7695 5
    endloop
  endfacet
  facet normal 0 0 1
    outer loop
      vertex 40.2225 5.09322 5
      vertex 36.4452 4.78219 5
      vertex 40.0461 4.10857 5
    endloop
  endfacet
  facet normal 0 0 1
    outer loop
      vertex 32.833 5.3923 5
      vertex 36.6058 5.7695 5
      vertex 32.9777 6.38201 5
    endloop
  endfacet
  facet normal 0 0 1
    outer loop
      vertex 36.6058 5.7695 5
      vertex 32.833 5.3923 5
      vertex 36.4452 4.78219 5
    endloop
  endfacet
  facet normal 0 0 1
    outer loop
      vertex 29.2106 5.93869 5
      vertex 32.9777 6.38201 5
      vertex 29.3394 6.93056 5
    endloop
  endfacet
  facet normal 0 0 1
    outer loop
      vertex 32.9777 6.38201 5
      vertex 29.2106 5.93869 5
      vertex 32.833 5.3923 5
    endloop
  endfacet
  facet normal 0 0 1
    outer loop
      vertex 25.5791 6.42119 5
      vertex 29.3394 6.93056 5
      vertex 25.6921 7.41497 5
    endloop
  endfacet
  facet normal 0 0 1
    outer loop
      vertex 29.3394 6.93056 5
      vertex 25.5791 6.42119 5
      vertex 29.2106 5.93869 5
    endloop
  endfacet
  facet normal 0 0 1
    outer loop
      vertex 21.9397 6.83967 5
      vertex 25.6921 7.41497 5
      vertex 22.0367 7.8351 5
    endloop
  endfacet
  facet normal 0 0 1
    outer loop
      vertex 25.6921 7.41497 5
      vertex 21.9397 6.83967 5
      vertex 25.5791 6.42119 5
    endloop
  endfacet
  facet normal 0 0 1
    outer loop
      vertex 18.2935 7.19399 5
      vertex 22.0367 7.8351 5
      vertex 18.3745 8.19081 5
    endloop
  endfacet
  facet normal 0 0 1
    outer loop
      vertex 22.0367 7.8351 5
      vertex 18.2935 7.19399 5
      vertex 21.9397 6.83967 5
    endloop
  endfacet
  facet normal 0 0 1
    outer loop
      vertex 14.6416 7.48403 5
      vertex 18.3745 8.19081 5
      vertex 14.7067 8.482 5
    endloop
  endfacet
  facet normal 0 0 1
    outer loop
      vertex 18.3745 8.19081 5
      vertex 14.6416 7.48403 5
      vertex 18.2935 7.19399 5
    endloop
  endfacet
  facet normal 0 0 1
    outer loop
      vertex 11.0342 8.70857 5
      vertex 14.6416 7.48403 5
      vertex 14.7067 8.482 5
    endloop
  endfacet
  facet normal 0 0 1
    outer loop
      vertex 11.0342 8.70857 5
      vertex 10.9852 7.70971 5
      vertex 14.6416 7.48403 5
    endloop
  endfacet
  facet normal 0 0 1
    outer loop
      vertex 7.35839 8.87046 5
      vertex 10.9852 7.70971 5
      vertex 11.0342 8.70857 5
    endloop
  endfacet
  facet normal 0 0 1
    outer loop
      vertex 7.35839 8.87046 5
      vertex 7.32535 7.87097 5
      vertex 10.9852 7.70971 5
    endloop
  endfacet
  facet normal 0 0 1
    outer loop
      vertex 3.68027 8.96761 5
      vertex 7.32535 7.87097 5
      vertex 7.35839 8.87046 5
    endloop
  endfacet
  facet normal 0 0 1
    outer loop
      vertex 3.68027 8.96761 5
      vertex 3.66324 7.96774 5
      vertex 7.32535 7.87097 5
    endloop
  endfacet
  facet normal 0 0 1
    outer loop
      vertex 0.000999451 9 5
      vertex 3.66324 7.96774 5
      vertex 3.68027 8.96761 5
    endloop
  endfacet
  facet normal 0 0 1
    outer loop
      vertex 3.66324 7.96774 5
      vertex 0.000999451 9 5
      vertex 0.000999451 7.99999 5
    endloop
  endfacet
  facet normal 0 0 1
    outer loop
      vertex 72.5481 -22.2339 5
      vertex 75.2439 -24.4451 5
      vertex 75.6376 -23.5266 5
    endloop
  endfacet
  facet normal 0 0 1
    outer loop
      vertex 72.5481 -22.2339 5
      vertex 72.1418 -23.1478 5
      vertex 75.2439 -24.4451 5
    endloop
  endfacet
  facet normal 0 0 1
    outer loop
      vertex 69.4061 -20.9838 5
      vertex 72.1418 -23.1478 5
      vertex 72.5481 -22.2339 5
    endloop
  endfacet
  facet normal 0 0 1
    outer loop
      vertex 69.4061 -20.9838 5
      vertex 69.0172 -21.9052 5
      vertex 72.1418 -23.1478 5
    endloop
  endfacet
  facet normal 0 0 1
    outer loop
      vertex 66.2426 -19.7892 5
      vertex 69.0172 -21.9052 5
      vertex 69.4061 -20.9838 5
    endloop
  endfacet
  facet normal 0 0 1
    outer loop
      vertex 66.2426 -19.7892 5
      vertex 65.8713 -20.7178 5
      vertex 69.0172 -21.9052 5
    endloop
  endfacet
  facet normal 0 0 1
    outer loop
      vertex 63.0585 -18.6505 5
      vertex 65.8713 -20.7178 5
      vertex 66.2426 -19.7892 5
    endloop
  endfacet
  facet normal 0 0 1
    outer loop
      vertex 63.0585 -18.6505 5
      vertex 62.705 -19.586 5
      vertex 65.8713 -20.7178 5
    endloop
  endfacet
  facet normal 0 0 1
    outer loop
      vertex 59.8548 -17.5681 5
      vertex 62.705 -19.586 5
      vertex 63.0585 -18.6505 5
    endloop
  endfacet
  facet normal 0 0 1
    outer loop
      vertex 59.8548 -17.5681 5
      vertex 59.5193 -18.5101 5
      vertex 62.705 -19.586 5
    endloop
  endfacet
  facet normal 0 0 1
    outer loop
      vertex 56.6326 -16.5422 5
      vertex 59.5193 -18.5101 5
      vertex 59.8548 -17.5681 5
    endloop
  endfacet
  facet normal 0 0 1
    outer loop
      vertex 56.6326 -16.5422 5
      vertex 56.3151 -17.4905 5
      vertex 59.5193 -18.5101 5
    endloop
  endfacet
  facet normal 0 0 1
    outer loop
      vertex 53.3928 -15.5733 5
      vertex 56.3151 -17.4905 5
      vertex 56.6326 -16.5422 5
    endloop
  endfacet
  facet normal 0 0 1
    outer loop
      vertex 53.3928 -15.5733 5
      vertex 53.0934 -16.5274 5
      vertex 56.3151 -17.4905 5
    endloop
  endfacet
  facet normal 0 0 1
    outer loop
      vertex 50.1364 -14.6616 5
      vertex 53.0934 -16.5274 5
      vertex 53.3928 -15.5733 5
    endloop
  endfacet
  facet normal 0 0 1
    outer loop
      vertex 50.1364 -14.6616 5
      vertex 49.8553 -15.6212 5
      vertex 53.0934 -16.5274 5
    endloop
  endfacet
  facet normal 0 0 1
    outer loop
      vertex 46.8645 -13.8073 5
      vertex 49.8553 -15.6212 5
      vertex 50.1364 -14.6616 5
    endloop
  endfacet
  facet normal 0 0 1
    outer loop
      vertex 46.8645 -13.8073 5
      vertex 46.6017 -14.7721 5
      vertex 49.8553 -15.6212 5
    endloop
  endfacet
  facet normal 0 0 1
    outer loop
      vertex 43.5781 -13.0108 5
      vertex 46.6017 -14.7721 5
      vertex 46.8645 -13.8073 5
    endloop
  endfacet
  facet normal 0 0 1
    outer loop
      vertex 43.5781 -13.0108 5
      vertex 43.3337 -13.9804 5
      vertex 46.6017 -14.7721 5
    endloop
  endfacet
  facet normal 0 0 1
    outer loop
      vertex 40.2781 -12.2723 5
      vertex 43.3337 -13.9804 5
      vertex 43.5781 -13.0108 5
    endloop
  endfacet
  facet normal 0 0 1
    outer loop
      vertex 40.2781 -12.2723 5
      vertex 40.0523 -13.2464 5
      vertex 43.3337 -13.9804 5
    endloop
  endfacet
  facet normal 0 0 1
    outer loop
      vertex 36.9656 -11.5921 5
      vertex 40.0523 -13.2464 5
      vertex 40.2781 -12.2723 5
    endloop
  endfacet
  facet normal 0 0 1
    outer loop
      vertex 36.9656 -11.5921 5
      vertex 36.7585 -12.5703 5
      vertex 40.0523 -13.2464 5
    endloop
  endfacet
  facet normal 0 0 1
    outer loop
      vertex 33.6417 -10.9703 5
      vertex 36.7585 -12.5703 5
      vertex 36.9656 -11.5921 5
    endloop
  endfacet
  facet normal 0 0 1
    outer loop
      vertex 33.6417 -10.9703 5
      vertex 33.4532 -11.9523 5
      vertex 36.7585 -12.5703 5
    endloop
  endfacet
  facet normal 0 0 1
    outer loop
      vertex 30.3074 -10.4071 5
      vertex 33.4532 -11.9523 5
      vertex 33.6417 -10.9703 5
    endloop
  endfacet
  facet normal 0 0 1
    outer loop
      vertex 30.3074 -10.4071 5
      vertex 30.1376 -11.3925 5
      vertex 33.4532 -11.9523 5
    endloop
  endfacet
  facet normal 0 0 1
    outer loop
      vertex 26.9636 -9.90275 5
      vertex 30.1376 -11.3925 5
      vertex 30.3074 -10.4071 5
    endloop
  endfacet
  facet normal 0 0 1
    outer loop
      vertex 26.9636 -9.90275 5
      vertex 26.8127 -10.8912 5
      vertex 30.1376 -11.3925 5
    endloop
  endfacet
  facet normal 0 0 1
    outer loop
      vertex 23.6115 -9.45736 5
      vertex 26.8127 -10.8912 5
      vertex 26.9636 -9.90275 5
    endloop
  endfacet
  facet normal 0 0 1
    outer loop
      vertex 23.6115 -9.45736 5
      vertex 23.4794 -10.4485 5
      vertex 26.8127 -10.8912 5
    endloop
  endfacet
  facet normal 0 0 1
    outer loop
      vertex 20.252 -9.07107 5
      vertex 23.4794 -10.4485 5
      vertex 23.6115 -9.45736 5
    endloop
  endfacet
  facet normal 0 0 1
    outer loop
      vertex 20.252 -9.07107 5
      vertex 20.1389 -10.0646 5
      vertex 23.4794 -10.4485 5
    endloop
  endfacet
  facet normal 0 0 1
    outer loop
      vertex 16.8863 -8.74401 5
      vertex 20.1389 -10.0646 5
      vertex 20.252 -9.07107 5
    endloop
  endfacet
  facet normal 0 0 1
    outer loop
      vertex 16.8863 -8.74401 5
      vertex 16.7921 -9.7395 5
      vertex 20.1389 -10.0646 5
    endloop
  endfacet
  facet normal 0 0 1
    outer loop
      vertex 13.5153 -8.47628 5
      vertex 16.7921 -9.7395 5
      vertex 16.8863 -8.74401 5
    endloop
  endfacet
  facet normal 0 0 1
    outer loop
      vertex 13.5153 -8.47628 5
      vertex 13.4402 -9.47339 5
      vertex 16.7921 -9.7395 5
    endloop
  endfacet
  facet normal 0 0 1
    outer loop
      vertex 10.1402 -8.26795 5
      vertex 13.4402 -9.47339 5
      vertex 13.5153 -8.47628 5
    endloop
  endfacet
  facet normal 0 0 1
    outer loop
      vertex 10.1402 -8.26795 5
      vertex 10.084 -9.26633 5
      vertex 13.4402 -9.47339 5
    endloop
  endfacet
  facet normal 0 0 1
    outer loop
      vertex 6.76186 -8.11911 5
      vertex 10.084 -9.26633 5
      vertex 10.1402 -8.26795 5
    endloop
  endfacet
  facet normal 0 0 1
    outer loop
      vertex 6.76186 -8.11911 5
      vertex 6.72474 -9.11838 5
      vertex 10.084 -9.26633 5
    endloop
  endfacet
  facet normal 0 0 1
    outer loop
      vertex 3.38145 -8.02978 5
      vertex 6.72474 -9.11838 5
      vertex 6.76186 -8.11911 5
    endloop
  endfacet
  facet normal 0 0 1
    outer loop
      vertex 3.38145 -8.02978 5
      vertex 3.36339 -9.0296 5
      vertex 6.72474 -9.11838 5
    endloop
  endfacet
  facet normal 0 0 1
    outer loop
      vertex 0.000999451 -8.00001 5
      vertex 3.36339 -9.0296 5
      vertex 3.38145 -8.02978 5
    endloop
  endfacet
  facet normal 0 0 1
    outer loop
      vertex 3.36339 -9.0296 5
      vertex 0.000999451 -8.00001 5
      vertex 0.000999451 -9 5
    endloop
  endfacet
  facet normal 0.00720473 0.819211 0.573447
    outer loop
      vertex 3.74188 12.4671 0
      vertex 0.000999451 12.5 0
      vertex 0.000999451 9 5
    endloop
  endfacet
  facet normal 0.0072118 0.819208 0.573451
    outer loop
      vertex 3.68027 8.96761 5
      vertex 3.74188 12.4671 0
      vertex 0.000999451 9 5
    endloop
  endfacet
  facet normal -0.0216302 -0.818954 0.573452
    outer loop
      vertex 6.72474 -9.11838 5
      vertex 3.36339 -9.0296 5
      vertex 3.30178 -12.5291 0
    endloop
  endfacet
  facet normal -0.0216172 -0.818958 0.573446
    outer loop
      vertex 6.60153 -12.6162 0
      vertex 6.72474 -9.11838 5
      vertex 3.30178 -12.5291 0
    endloop
  endfacet
  facet normal 0.021636 0.818954 0.573451
    outer loop
      vertex 7.4816 12.3683 0
      vertex 3.74188 12.4671 0
      vertex 3.68027 8.96761 5
    endloop
  endfacet
  facet normal 0.021631 0.818956 0.573448
    outer loop
      vertex 7.35839 8.87046 5
      vertex 7.4816 12.3683 0
      vertex 3.68027 8.96761 5
    endloop
  endfacet
  facet normal -0.0360465 -0.81845 0.573446
    outer loop
      vertex 10.084 -9.26633 5
      vertex 6.72474 -9.11838 5
      vertex 6.60153 -12.6162 0
    endloop
  endfacet
  facet normal -0.036037 -0.818453 0.573442
    outer loop
      vertex 9.89924 -12.7614 0
      vertex 10.084 -9.26633 5
      vertex 6.60153 -12.6162 0
    endloop
  endfacet
  facet normal 0.0360455 0.818448 0.573448
    outer loop
      vertex 11.219 12.2037 0
      vertex 7.4816 12.3683 0
      vertex 7.35839 8.87046 5
    endloop
  endfacet
  facet normal 0.0360461 0.818448 0.573449
    outer loop
      vertex 11.0342 8.70857 5
      vertex 11.219 12.2037 0
      vertex 7.35839 8.87046 5
    endloop
  endfacet
  facet normal -0.0504473 -0.817692 0.573442
    outer loop
      vertex 13.4402 -9.47339 5
      vertex 10.084 -9.26633 5
      vertex 9.89924 -12.7614 0
    endloop
  endfacet
  facet normal -0.0504562 -0.817688 0.573446
    outer loop
      vertex 13.1939 -12.9647 0
      vertex 13.4402 -9.47339 5
      vertex 9.89924 -12.7614 0
    endloop
  endfacet
  facet normal 0.0504553 0.817686 0.573449
    outer loop
      vertex 14.9529 11.9733 0
      vertex 11.219 12.2037 0
      vertex 11.0342 8.70857 5
    endloop
  endfacet
  facet normal 0.0504463 0.81769 0.573444
    outer loop
      vertex 14.7067 8.482 5
      vertex 14.9529 11.9733 0
      vertex 11.0342 8.70857 5
    endloop
  endfacet
  facet normal -0.0648364 -0.816674 0.573446
    outer loop
      vertex 16.7921 -9.7395 5
      vertex 13.4402 -9.47339 5
      vertex 13.1939 -12.9647 0
    endloop
  endfacet
  facet normal -0.0648279 -0.816677 0.573442
    outer loop
      vertex 16.4844 -13.2259 0
      vertex 16.7921 -9.7395 5
      vertex 13.1939 -12.9647 0
    endloop
  endfacet
  facet normal 0.0648208 0.816676 0.573444
    outer loop
      vertex 18.6822 11.6773 0
      vertex 14.9529 11.9733 0
      vertex 14.7067 8.482 5
    endloop
  endfacet
  facet normal 0.0648361 0.816669 0.573452
    outer loop
      vertex 18.3745 8.19081 5
      vertex 18.6822 11.6773 0
      vertex 14.7067 8.482 5
    endloop
  endfacet
  facet normal -0.0792068 -0.815408 0.573442
    outer loop
      vertex 20.1389 -10.0646 5
      vertex 16.7921 -9.7395 5
      vertex 16.4844 -13.2259 0
    endloop
  endfacet
  facet normal -0.0792198 -0.815403 0.573448
    outer loop
      vertex 19.7699 -13.5451 0
      vertex 20.1389 -10.0646 5
      vertex 16.4844 -13.2259 0
    endloop
  endfacet
  facet normal 0.0792079 0.815401 0.573452
    outer loop
      vertex 22.4057 11.3156 0
      vertex 18.6822 11.6773 0
      vertex 18.3745 8.19081 5
    endloop
  endfacet
  facet normal 0.0792004 0.815405 0.573448
    outer loop
      vertex 22.0367 7.8351 5
      vertex 22.4057 11.3156 0
      vertex 18.3745 8.19081 5
    endloop
  endfacet
  facet normal -0.093534 -0.813885 0.573448
    outer loop
      vertex 23.4794 -10.4485 5
      vertex 20.1389 -10.0646 5
      vertex 19.7699 -13.5451 0
    endloop
  endfacet
  facet normal -0.0935419 -0.813881 0.573452
    outer loop
      vertex 23.0492 -13.922 0
      vertex 23.4794 -10.4485 5
      vertex 19.7699 -13.5451 0
    endloop
  endfacet
  facet normal 0.0935508 0.813883 0.573448
    outer loop
      vertex 26.1223 10.8884 0
      vertex 22.4057 11.3156 0
      vertex 22.0367 7.8351 5
    endloop
  endfacet
  facet normal 0.0935433 0.813887 0.573444
    outer loop
      vertex 25.6921 7.41497 5
      vertex 26.1223 10.8884 0
      vertex 22.0367 7.8351 5
    endloop
  endfacet
  facet normal -0.107857 -0.812108 0.573452
    outer loop
      vertex 26.8127 -10.8912 5
      vertex 23.4794 -10.4485 5
      vertex 23.0492 -13.922 0
    endloop
  endfacet
  facet normal -0.107861 -0.812107 0.573453
    outer loop
      vertex 26.3214 -14.3566 0
      vertex 26.8127 -10.8912 5
      vertex 23.0492 -13.922 0
    endloop
  endfacet
  facet normal 0.107851 0.812115 0.573444
    outer loop
      vertex 29.8308 10.3959 0
      vertex 26.1223 10.8884 0
      vertex 25.6921 7.41497 5
    endloop
  endfacet
  facet normal 0.107859 0.812111 0.573448
    outer loop
      vertex 29.3394 6.93056 5
      vertex 29.8308 10.3959 0
      vertex 25.6921 7.41497 5
    endloop
  endfacet
  facet normal -0.122137 -0.810083 0.573453
    outer loop
      vertex 30.1376 -11.3925 5
      vertex 26.8127 -10.8912 5
      vertex 26.3214 -14.3566 0
    endloop
  endfacet
  facet normal -0.122133 -0.810085 0.573451
    outer loop
      vertex 29.5854 -14.8487 0
      vertex 30.1376 -11.3925 5
      vertex 26.3214 -14.3566 0
    endloop
  endfacet
  facet normal 0.122137 0.810086 0.573448
    outer loop
      vertex 33.53 9.83817 0
      vertex 29.8308 10.3959 0
      vertex 29.3394 6.93056 5
    endloop
  endfacet
  facet normal 0.122137 0.810086 0.573449
    outer loop
      vertex 32.9777 6.38201 5
      vertex 33.53 9.83817 0
      vertex 29.3394 6.93056 5
    endloop
  endfacet
  facet normal -0.136389 -0.807807 0.573451
    outer loop
      vertex 33.4532 -11.9523 5
      vertex 30.1376 -11.3925 5
      vertex 29.5854 -14.8487 0
    endloop
  endfacet
  facet normal -0.136381 -0.807811 0.573447
    outer loop
      vertex 32.8402 -15.3982 0
      vertex 33.4532 -11.9523 5
      vertex 29.5854 -14.8487 0
    endloop
  endfacet
  facet normal 0.13638 0.80781 0.573449
    outer loop
      vertex 37.2188 9.2154 0
      vertex 33.53 9.83817 0
      vertex 32.9777 6.38201 5
    endloop
  endfacet
  facet normal 0.136378 0.807811 0.573447
    outer loop
      vertex 36.6058 5.7695 5
      vertex 37.2188 9.2154 0
      vertex 32.9777 6.38201 5
    endloop
  endfacet
  facet normal -0.150567 -0.805287 0.573447
    outer loop
      vertex 36.7585 -12.5703 5
      vertex 33.4532 -11.9523 5
      vertex 32.8402 -15.3982 0
    endloop
  endfacet
  facet normal -0.150573 -0.805284 0.573451
    outer loop
      vertex 36.0849 -16.0049 0
      vertex 36.7585 -12.5703 5
      vertex 32.8402 -15.3982 0
    endloop
  endfacet
  facet normal 0.150578 0.805285 0.573447
    outer loop
      vertex 40.8961 8.52779 0
      vertex 37.2188 9.2154 0
      vertex 36.6058 5.7695 5
    endloop
  endfacet
  facet normal 0.150579 0.805285 0.573448
    outer loop
      vertex 40.2225 5.09322 5
      vertex 40.8961 8.52779 0
      vertex 36.6058 5.7695 5
    endloop
  endfacet
  facet normal -0.164726 -0.802508 0.573451
    outer loop
      vertex 40.0523 -13.2464 5
      vertex 36.7585 -12.5703 5
      vertex 36.0849 -16.0049 0
    endloop
  endfacet
  facet normal -0.164721 -0.802511 0.573448
    outer loop
      vertex 39.3184 -16.6686 0
      vertex 40.0523 -13.2464 5
      vertex 36.0849 -16.0049 0
    endloop
  endfacet
  facet normal 0.164731 0.80251 0.573448
    outer loop
      vertex 44.5607 7.77556 0
      vertex 40.8961 8.52779 0
      vertex 40.2225 5.09322 5
    endloop
  endfacet
  facet normal 0.16473 0.80251 0.573447
    outer loop
      vertex 43.8268 4.35337 5
      vertex 44.5607 7.77556 0
      vertex 40.2225 5.09322 5
    endloop
  endfacet
  facet normal -0.178833 -0.799485 0.573448
    outer loop
      vertex 43.3337 -13.9804 5
      vertex 40.0523 -13.2464 5
      vertex 39.3184 -16.6686 0
    endloop
  endfacet
  facet normal -0.178842 -0.799479 0.573453
    outer loop
      vertex 42.5397 -17.3892 0
      vertex 43.3337 -13.9804 5
      vertex 39.3184 -16.6686 0
    endloop
  endfacet
  facet normal 0.178835 0.799485 0.573447
    outer loop
      vertex 48.2115 6.95892 0
      vertex 44.5607 7.77556 0
      vertex 43.8268 4.35337 5
    endloop
  endfacet
  facet normal 0.178832 0.799487 0.573446
    outer loop
      vertex 47.4175 3.55019 5
      vertex 48.2115 6.95892 0
      vertex 43.8268 4.35337 5
    endloop
  endfacet
  facet normal -0.192888 -0.796207 0.573453
    outer loop
      vertex 46.6017 -14.7721 5
      vertex 43.3337 -13.9804 5
      vertex 42.5397 -17.3892 0
    endloop
  endfacet
  facet normal -0.192869 -0.796219 0.573443
    outer loop
      vertex 45.7478 -18.1663 0
      vertex 46.6017 -14.7721 5
      vertex 42.5397 -17.3892 0
    endloop
  endfacet
  facet normal 0.192877 0.796215 0.573445
    outer loop
      vertex 51.8474 6.07815 0
      vertex 48.2115 6.95892 0
      vertex 47.4175 3.55019 5
    endloop
  endfacet
  facet normal 0.192884 0.796211 0.573449
    outer loop
      vertex 50.9934 2.68392 5
      vertex 51.8474 6.07815 0
      vertex 47.4175 3.55019 5
    endloop
  endfacet
  facet normal -0.206872 -0.792696 0.573443
    outer loop
      vertex 49.8553 -15.6212 5
      vertex 46.6017 -14.7721 5
      vertex 45.7478 -18.1663 0
    endloop
  endfacet
  facet normal -0.206889 -0.792685 0.573452
    outer loop
      vertex 48.9417 -18.9999 0
      vertex 49.8553 -15.6212 5
      vertex 45.7478 -18.1663 0
    endloop
  endfacet
  facet normal 0.206867 0.792693 0.573449
    outer loop
      vertex 55.4672 5.1335 0
      vertex 51.8474 6.07815 0
      vertex 50.9934 2.68392 5
    endloop
  endfacet
  facet normal 0.206866 0.792694 0.573449
    outer loop
      vertex 54.5536 1.75483 5
      vertex 55.4672 5.1335 0
      vertex 50.9934 2.68392 5
    endloop
  endfacet
  facet normal -0.220786 -0.788928 0.573452
    outer loop
      vertex 53.0934 -16.5274 5
      vertex 49.8553 -15.6212 5
      vertex 48.9417 -18.9999 0
    endloop
  endfacet
  facet normal -0.220785 -0.788928 0.573451
    outer loop
      vertex 52.1205 -19.8895 0
      vertex 53.0934 -16.5274 5
      vertex 48.9417 -18.9999 0
    endloop
  endfacet
  facet normal 0.220789 0.788929 0.573449
    outer loop
      vertex 59.0698 4.12528 0
      vertex 55.4672 5.1335 0
      vertex 54.5536 1.75483 5
    endloop
  endfacet
  facet normal 0.220787 0.78893 0.573448
    outer loop
      vertex 58.0969 0.763213 5
      vertex 59.0698 4.12528 0
      vertex 54.5536 1.75483 5
    endloop
  endfacet
  facet normal -0.234644 -0.784918 0.573451
    outer loop
      vertex 56.3151 -17.4905 5
      vertex 53.0934 -16.5274 5
      vertex 52.1205 -19.8895 0
    endloop
  endfacet
  facet normal -0.234638 -0.784922 0.573448
    outer loop
      vertex 55.2831 -20.8349 0
      vertex 56.3151 -17.4905 5
      vertex 52.1205 -19.8895 0
    endloop
  endfacet
  facet normal 0.234644 0.78492 0.573448
    outer loop
      vertex 62.6541 3.05379 0
      vertex 59.0698 4.12528 0
      vertex 58.0969 0.763213 5
    endloop
  endfacet
  facet normal 0.234642 0.784922 0.573447
    outer loop
      vertex 61.6222 -0.290627 5
      vertex 62.6541 3.05379 0
      vertex 58.0969 0.763213 5
    endloop
  endfacet
  facet normal -0.248415 -0.780671 0.573448
    outer loop
      vertex 59.5193 -18.5101 5
      vertex 56.3151 -17.4905 5
      vertex 55.2831 -20.8349 0
    endloop
  endfacet
  facet normal -0.248431 -0.78066 0.573456
    outer loop
      vertex 58.4286 -21.8359 0
      vertex 59.5193 -18.5101 5
      vertex 55.2831 -20.8349 0
    endloop
  endfacet
  facet normal 0.248424 0.780669 0.573447
    outer loop
      vertex 66.219 1.91937 0
      vertex 62.6541 3.05379 0
      vertex 61.6222 -0.290627 5
    endloop
  endfacet
  facet normal 0.248428 0.780666 0.573449
    outer loop
      vertex 65.1283 -1.40636 5
      vertex 66.219 1.91937 0
      vertex 61.6222 -0.290627 5
    endloop
  endfacet
  facet normal -0.262133 -0.776166 0.573456
    outer loop
      vertex 62.705 -19.586 5
      vertex 59.5193 -18.5101 5
      vertex 58.4286 -21.8359 0
    endloop
  endfacet
  facet normal -0.262111 -0.776182 0.573445
    outer loop
      vertex 61.556 -22.892 0
      vertex 62.705 -19.586 5
      vertex 58.4286 -21.8359 0
    endloop
  endfacet
  facet normal 0.262134 0.776171 0.573449
    outer loop
      vertex 69.7633 0.722366 0
      vertex 66.219 1.91937 0
      vertex 65.1283 -1.40636 5
    endloop
  endfacet
  facet normal 0.262129 0.776175 0.573447
    outer loop
      vertex 68.6143 -2.58365 5
      vertex 69.7633 0.722366 0
      vertex 65.1283 -1.40636 5
    endloop
  endfacet
  facet normal -0.275753 -0.771441 0.573445
    outer loop
      vertex 65.8713 -20.7178 5
      vertex 62.705 -19.586 5
      vertex 61.556 -22.892 0
    endloop
  endfacet
  facet normal -0.275759 -0.771436 0.573448
    outer loop
      vertex 64.6643 -24.0031 0
      vertex 65.8713 -20.7178 5
      vertex 61.556 -22.892 0
    endloop
  endfacet
  facet normal 0.275748 0.771441 0.573447
    outer loop
      vertex 73.2861 -0.536844 0
      vertex 69.7633 0.722366 0
      vertex 68.6143 -2.58365 5
    endloop
  endfacet
  facet normal 0.275753 0.771438 0.573449
    outer loop
      vertex 72.079 -3.82212 5
      vertex 73.2861 -0.536844 0
      vertex 68.6143 -2.58365 5
    endloop
  endfacet
  facet normal -0.289296 -0.766463 0.573448
    outer loop
      vertex 69.0172 -21.9052 5
      vertex 65.8713 -20.7178 5
      vertex 64.6643 -24.0031 0
    endloop
  endfacet
  facet normal -0.289292 -0.766466 0.573446
    outer loop
      vertex 67.7525 -25.1687 0
      vertex 69.0172 -21.9052 5
      vertex 64.6643 -24.0031 0
    endloop
  endfacet
  facet normal 0.289293 0.766463 0.573449
    outer loop
      vertex 76.7861 -1.85788 0
      vertex 73.2861 -0.536844 0
      vertex 72.079 -3.82212 5
    endloop
  endfacet
  facet normal 0.289289 0.766466 0.573447
    outer loop
      vertex 75.5214 -5.12139 5
      vertex 76.7861 -1.85788 0
      vertex 72.079 -3.82212 5
    endloop
  endfacet
  facet normal -0.302738 -0.761255 0.573446
    outer loop
      vertex 72.1418 -23.1478 5
      vertex 69.0172 -21.9052 5
      vertex 67.7525 -25.1687 0
    endloop
  endfacet
  facet normal -0.302736 -0.761257 0.573445
    outer loop
      vertex 70.8198 -26.3885 0
      vertex 72.1418 -23.1478 5
      vertex 67.7525 -25.1687 0
    endloop
  endfacet
  facet normal 0.302741 0.761253 0.573447
    outer loop
      vertex 80.2623 -3.24032 0
      vertex 76.7861 -1.85788 0
      vertex 75.5214 -5.12139 5
    endloop
  endfacet
  facet normal 0.302737 0.761257 0.573445
    outer loop
      vertex 78.9404 -6.48106 5
      vertex 80.2623 -3.24032 0
      vertex 75.5214 -5.12139 5
    endloop
  endfacet
  facet normal -0.316082 -0.755813 0.573445
    outer loop
      vertex 75.2439 -24.4451 5
      vertex 72.1418 -23.1478 5
      vertex 70.8198 -26.3885 0
    endloop
  endfacet
  facet normal -0.316091 -0.755805 0.57345
    outer loop
      vertex 73.8651 -27.6621 0
      vertex 75.2439 -24.4451 5
      vertex 70.8198 -26.3885 0
    endloop
  endfacet
  facet normal 0.31609 0.75581 0.573445
    outer loop
      vertex 83.7137 -4.68374 0
      vertex 80.2623 -3.24032 0
      vertex 78.9404 -6.48106 5
    endloop
  endfacet
  facet normal 0.316094 0.755806 0.573447
    outer loop
      vertex 82.3349 -7.90071 5
      vertex 83.7137 -4.68374 0
      vertex 78.9404 -6.48106 5
    endloop
  endfacet
  facet normal 0 -1 0
    outer loop
      vertex 0.000999451 8.4 0
      vertex 7 8.4 2.5
      vertex 0.000999451 8.4 2.5
    endloop
  endfacet
  facet normal 0 -1 -0
    outer loop
      vertex 7 8.4 2.5
      vertex 0.000999451 8.4 0
      vertex 7 8.4 0
    endloop
  endfacet
  facet normal 0 1 -0
    outer loop
      vertex 7 1.2 0
      vertex 0.000999451 1.2 2.5
      vertex 7 1.2 2.5
    endloop
  endfacet
  facet normal 0 1 0
    outer loop
      vertex 0.000999451 1.2 2.5
      vertex 7 1.2 0
      vertex 0.000999451 1.2 0
    endloop
  endfacet
  facet normal 0 -0.447214 -0.894427
    outer loop
      vertex 0.000999451 6.4 3.5
      vertex 7 8.4 2.5
      vertex 7 6.4 3.5
    endloop
  endfacet
  facet normal -0 -0.447214 -0.894427
    outer loop
      vertex 7 8.4 2.5
      vertex 0.000999451 6.4 3.5
      vertex 0.000999451 8.4 2.5
    endloop
  endfacet
  facet normal 0 0.413803 -0.910366
    outer loop
      vertex 0.000999451 1.2 2.5
      vertex 7 3.4 3.5
      vertex 7 1.2 2.5
    endloop
  endfacet
  facet normal 0 0.413803 -0.910366
    outer loop
      vertex 7 3.4 3.5
      vertex 0.000999451 1.2 2.5
      vertex 0.000999451 3.4 3.5
    endloop
  endfacet
  facet normal -1 0 0
    outer loop
      vertex 7 8.4 0
      vertex 7 6.4 3.5
      vertex 7 8.4 2.5
    endloop
  endfacet
  facet normal -1 0 0
    outer loop
      vertex 7 8.4 0
      vertex 7 3.4 3.5
      vertex 7 6.4 3.5
    endloop
  endfacet
  facet normal -1 0 0
    outer loop
      vertex 7 1.2 0
      vertex 7 3.4 3.5
      vertex 7 8.4 0
    endloop
  endfacet
  facet normal -1 0 0
    outer loop
      vertex 7 3.4 3.5
      vertex 7 1.2 0
      vertex 7 1.2 2.5
    endloop
  endfacet
  facet normal 0 0 1
    outer loop
      vertex 3.66324 7.96774 3.5
      vertex 7 6.4 3.5
      vertex 7.32535 7.87097 3.5
    endloop
  endfacet
  facet normal 0 0 1
    outer loop
      vertex 0.000999451 6.4 3.5
      vertex 3.66324 7.96774 3.5
      vertex 0.000999451 7.99999 3.5
    endloop
  endfacet
  facet normal 0 0 1
    outer loop
      vertex 3.66324 7.96774 3.5
      vertex 0.000999451 6.4 3.5
      vertex 7 6.4 3.5
    endloop
  endfacet
  facet normal 0 0 1
    outer loop
      vertex 81.1137 -10.7498 3.5
      vertex 80.0107 -13.3234 3.5
      vertex 80.0424 -13.337 3.5
    endloop
  endfacet
  facet normal 0 0 1
    outer loop
      vertex 78.5938 -7.42011 3.5
      vertex 80.0107 -13.3234 3.5
      vertex 81.1137 -10.7498 3.5
    endloop
  endfacet
  facet normal 0 0 1
    outer loop
      vertex 78.5938 -7.42011 3.5
      vertex 81.1137 -10.7498 3.5
      vertex 81.9406 -8.82049 3.5
    endloop
  endfacet
  facet normal 0 0 1
    outer loop
      vertex 75.1899 -6.06581 3.5
      vertex 80.0107 -13.3234 3.5
      vertex 78.5938 -7.42011 3.5
    endloop
  endfacet
  facet normal 0 0 1
    outer loop
      vertex 80.0107 -13.3234 3.5
      vertex 75.1899 -6.06581 3.5
      vertex 79.7939 -13.8291 3.5
    endloop
  endfacet
  facet normal 0 0 1
    outer loop
      vertex 79.7939 -13.8291 3.5
      vertex 75.1899 -6.06581 3.5
      vertex 71.1069 -16.5798 3.5
    endloop
  endfacet
  facet normal 0 0 1
    outer loop
      vertex 71.1069 -16.5798 3.5
      vertex 75.1899 -6.06581 3.5
      vertex 71.7628 -4.77166 3.5
    endloop
  endfacet
  facet normal 0 0 1
    outer loop
      vertex 79.7939 -13.8291 3.5
      vertex 71.1069 -16.5798 3.5
      vertex 77.4498 -19.2984 3.5
    endloop
  endfacet
  facet normal 0 0 1
    outer loop
      vertex 68.3133 -3.53807 3.5
      vertex 71.1069 -16.5798 3.5
      vertex 71.7628 -4.77166 3.5
    endloop
  endfacet
  facet normal 0 0 1
    outer loop
      vertex 63.0585 -18.6505 3.5
      vertex 71.1069 -16.5798 3.5
      vertex 68.3133 -3.53807 3.5
    endloop
  endfacet
  facet normal 0 -0 1
    outer loop
      vertex 66.2426 -19.7892 3.5
      vertex 71.1069 -16.5798 3.5
      vertex 63.0585 -18.6505 3.5
    endloop
  endfacet
  facet normal 0 0 1
    outer loop
      vertex 69.9251 -19.3372 3.5
      vertex 66.2426 -19.7892 3.5
      vertex 69.4061 -20.9838 3.5
    endloop
  endfacet
  facet normal 0 0 1
    outer loop
      vertex 63.0585 -18.6505 3.5
      vertex 68.3133 -3.53807 3.5
      vertex 64.8427 -2.36543 3.5
    endloop
  endfacet
  facet normal 0 0 1
    outer loop
      vertex 71.1069 -16.5798 3.5
      vertex 66.2426 -19.7892 3.5
      vertex 69.9251 -19.3372 3.5
    endloop
  endfacet
  facet normal 0 0 1
    outer loop
      vertex 59.8548 -17.5681 3.5
      vertex 64.8427 -2.36543 3.5
      vertex 61.352 -1.25409 3.5
    endloop
  endfacet
  facet normal 0 0 1
    outer loop
      vertex 64.8427 -2.36543 3.5
      vertex 59.8548 -17.5681 3.5
      vertex 63.0585 -18.6505 3.5
    endloop
  endfacet
  facet normal 0 0 1
    outer loop
      vertex 56.6326 -16.5422 3.5
      vertex 61.352 -1.25409 3.5
      vertex 57.8422 -0.204397 3.5
    endloop
  endfacet
  facet normal 0 0 1
    outer loop
      vertex 61.352 -1.25409 3.5
      vertex 56.6326 -16.5422 3.5
      vertex 59.8548 -17.5681 3.5
    endloop
  endfacet
  facet normal 0 0 1
    outer loop
      vertex 53.3928 -15.5733 3.5
      vertex 57.8422 -0.204397 3.5
      vertex 54.3145 0.783315 3.5
    endloop
  endfacet
  facet normal 0 0 1
    outer loop
      vertex 57.8422 -0.204397 3.5
      vertex 53.3928 -15.5733 3.5
      vertex 56.6326 -16.5422 3.5
    endloop
  endfacet
  facet normal 0 0 1
    outer loop
      vertex 50.1364 -14.6616 3.5
      vertex 54.3145 0.783315 3.5
      vertex 50.7699 1.70875 3.5
    endloop
  endfacet
  facet normal 0 0 1
    outer loop
      vertex 54.3145 0.783315 3.5
      vertex 50.1364 -14.6616 3.5
      vertex 53.3928 -15.5733 3.5
    endloop
  endfacet
  facet normal 0 0 1
    outer loop
      vertex 46.8645 -13.8073 3.5
      vertex 50.7699 1.70875 3.5
      vertex 47.2096 2.57161 3.5
    endloop
  endfacet
  facet normal 0 0 1
    outer loop
      vertex 50.7699 1.70875 3.5
      vertex 46.8645 -13.8073 3.5
      vertex 50.1364 -14.6616 3.5
    endloop
  endfacet
  facet normal 0 0 1
    outer loop
      vertex 43.5781 -13.0108 3.5
      vertex 47.2096 2.57161 3.5
      vertex 43.6346 3.37163 3.5
    endloop
  endfacet
  facet normal 0 0 1
    outer loop
      vertex 47.2096 2.57161 3.5
      vertex 43.5781 -13.0108 3.5
      vertex 46.8645 -13.8073 3.5
    endloop
  endfacet
  facet normal 0 0 1
    outer loop
      vertex 43.6346 3.37163 3.5
      vertex 40.2781 -12.2723 3.5
      vertex 43.5781 -13.0108 3.5
    endloop
  endfacet
  facet normal 0 0 1
    outer loop
      vertex 40.0461 4.10857 3.5
      vertex 40.2781 -12.2723 3.5
      vertex 43.6346 3.37163 3.5
    endloop
  endfacet
  facet normal 0 0 1
    outer loop
      vertex 40.0461 4.10857 3.5
      vertex 36.9656 -11.5921 3.5
      vertex 40.2781 -12.2723 3.5
    endloop
  endfacet
  facet normal 0 0 1
    outer loop
      vertex 36.4452 4.78219 3.5
      vertex 36.9656 -11.5921 3.5
      vertex 40.0461 4.10857 3.5
    endloop
  endfacet
  facet normal 0 0 1
    outer loop
      vertex 36.4452 4.78219 3.5
      vertex 33.6417 -10.9703 3.5
      vertex 36.9656 -11.5921 3.5
    endloop
  endfacet
  facet normal 0 0 1
    outer loop
      vertex 32.833 5.3923 3.5
      vertex 33.6417 -10.9703 3.5
      vertex 36.4452 4.78219 3.5
    endloop
  endfacet
  facet normal 0 0 1
    outer loop
      vertex 32.833 5.3923 3.5
      vertex 30.3074 -10.4071 3.5
      vertex 33.6417 -10.9703 3.5
    endloop
  endfacet
  facet normal 0 0 1
    outer loop
      vertex 29.2106 5.93869 3.5
      vertex 30.3074 -10.4071 3.5
      vertex 32.833 5.3923 3.5
    endloop
  endfacet
  facet normal 0 0 1
    outer loop
      vertex 29.2106 5.93869 3.5
      vertex 26.9636 -9.90275 3.5
      vertex 30.3074 -10.4071 3.5
    endloop
  endfacet
  facet normal 0 0 1
    outer loop
      vertex 25.5791 6.42119 3.5
      vertex 26.9636 -9.90275 3.5
      vertex 29.2106 5.93869 3.5
    endloop
  endfacet
  facet normal 0 0 1
    outer loop
      vertex 25.5791 6.42119 3.5
      vertex 23.6115 -9.45736 3.5
      vertex 26.9636 -9.90275 3.5
    endloop
  endfacet
  facet normal 0 0 1
    outer loop
      vertex 21.9397 6.83967 3.5
      vertex 23.6115 -9.45736 3.5
      vertex 25.5791 6.42119 3.5
    endloop
  endfacet
  facet normal 0 0 1
    outer loop
      vertex 21.9397 6.83967 3.5
      vertex 20.252 -9.07107 3.5
      vertex 23.6115 -9.45736 3.5
    endloop
  endfacet
  facet normal 0 0 1
    outer loop
      vertex 18.2935 7.19399 3.5
      vertex 20.252 -9.07107 3.5
      vertex 21.9397 6.83967 3.5
    endloop
  endfacet
  facet normal 0 0 1
    outer loop
      vertex 18.2935 7.19399 3.5
      vertex 16.8863 -8.74401 3.5
      vertex 20.252 -9.07107 3.5
    endloop
  endfacet
  facet normal 0 0 1
    outer loop
      vertex 14.6416 7.48403 3.5
      vertex 16.8863 -8.74401 3.5
      vertex 18.2935 7.19399 3.5
    endloop
  endfacet
  facet normal 0 0 1
    outer loop
      vertex 14.6416 7.48403 3.5
      vertex 13.5153 -8.47628 3.5
      vertex 16.8863 -8.74401 3.5
    endloop
  endfacet
  facet normal 0 0 1
    outer loop
      vertex 7 3.4 3.5
      vertex 14.6416 7.48403 3.5
      vertex 10.9852 7.70971 3.5
    endloop
  endfacet
  facet normal 0 0 1
    outer loop
      vertex 14.6416 7.48403 3.5
      vertex 7 3.4 3.5
      vertex 13.5153 -8.47628 3.5
    endloop
  endfacet
  facet normal 0 0 1
    outer loop
      vertex 7 6.4 3.5
      vertex 10.9852 7.70971 3.5
      vertex 7.32535 7.87097 3.5
    endloop
  endfacet
  facet normal 0 0 1
    outer loop
      vertex 10.9852 7.70971 3.5
      vertex 7 6.4 3.5
      vertex 7 3.4 3.5
    endloop
  endfacet
  facet normal 0 0 1
    outer loop
      vertex 13.5153 -8.47628 3.5
      vertex 7 3.4 3.5
      vertex 10.1402 -8.26795 3.5
    endloop
  endfacet
  facet normal 0 0 1
    outer loop
      vertex 7 3.4 3.5
      vertex 6.76186 -8.11911 3.5
      vertex 10.1402 -8.26795 3.5
    endloop
  endfacet
  facet normal 0 0 1
    outer loop
      vertex 7 3.4 3.5
      vertex 3.38145 -8.02978 3.5
      vertex 6.76186 -8.11911 3.5
    endloop
  endfacet
  facet normal -0 0 1
    outer loop
      vertex 0.000999451 3.4 3.5
      vertex 3.38145 -8.02978 3.5
      vertex 7 3.4 3.5
    endloop
  endfacet
  facet normal 0 0 1
    outer loop
      vertex 3.38145 -8.02978 3.5
      vertex 0.000999451 3.4 3.5
      vertex 0.000999451 -8.00001 3.5
    endloop
  endfacet
  facet normal 0 0 1
    outer loop
      vertex 81.1459 -10.7636 3.5
      vertex 81.1137 -10.7498 3.5
      vertex 80.0424 -13.337 3.5
    endloop
  endfacet
  facet normal 0 0 1
    outer loop
      vertex 76.268 -22.0558 3.5
      vertex 72.5481 -22.2339 3.5
      vertex 75.6376 -23.5266 3.5
    endloop
  endfacet
  facet normal 0 0 1
    outer loop
      vertex 69.9251 -19.3372 3.5
      vertex 72.5481 -22.2339 3.5
      vertex 76.268 -22.0558 3.5
    endloop
  endfacet
  facet normal 0 0 1
    outer loop
      vertex 72.5481 -22.2339 3.5
      vertex 69.9251 -19.3372 3.5
      vertex 69.4061 -20.9838 3.5
    endloop
  endfacet
  facet normal -0 0 1
    outer loop
      vertex 0 -3.101 3.5
      vertex 5.49316e-07 -5.901 3.5
      vertex 5.49316e-07 -3.101 3.5
    endloop
  endfacet
  facet normal 0 0 1
    outer loop
      vertex 5.49316e-07 -5.901 3.5
      vertex 0 -3.101 3.5
      vertex 0 -5.901 3.5
    endloop
  endfacet
  facet normal 1 -0 0
    outer loop
      vertex 0 -5.901 4.6
      vertex 0 -3.101 3.5
      vertex 0 -3.101 4.6
    endloop
  endfacet
  facet normal 1 0 0
    outer loop
      vertex 0 -3.101 3.5
      vertex 0 -5.901 4.6
      vertex 0 -5.901 3.5
    endloop
  endfacet
  facet normal -0.919066 0.394105 0
    outer loop
      vertex 81.1459 -10.7636 3.5
      vertex 80.0424 -13.337 3.5
      vertex 81.1459 -10.7636 4.6
    endloop
  endfacet
  facet normal -0.919076 0.39408 0
    outer loop
      vertex 81.1459 -10.7636 4.6
      vertex 81.2645 -10.487 5.2
      vertex 81.2645 -10.487 4.6
    endloop
  endfacet
  facet normal -0.919066 0.394105 0
    outer loop
      vertex 80.0424 -13.337 4.6
      vertex 81.1459 -10.7636 4.6
      vertex 80.0424 -13.337 3.5
    endloop
  endfacet
  facet normal -0.919066 0.394105 -1.36071e-05
    outer loop
      vertex 81.1459 -10.7636 4.6
      vertex 80.0424 -13.337 4.6
      vertex 81.2645 -10.487 5.2
    endloop
  endfacet
  facet normal -0.91911 0.394 0
    outer loop
      vertex 79.9246 -13.6118 5.2
      vertex 80.0424 -13.337 4.6
      vertex 79.9246 -13.6118 4.6
    endloop
  endfacet
  facet normal -0.91907 0.394093 5.05301e-05
    outer loop
      vertex 80.0424 -13.337 4.6
      vertex 79.9246 -13.6118 5.2
      vertex 81.2645 -10.487 5.2
    endloop
  endfacet
  facet normal 0.00880618 0.999961 -0
    outer loop
      vertex 3.38145 -8.02978 3.5
      vertex 0.000999451 -8.00001 5
      vertex 3.38145 -8.02978 5
    endloop
  endfacet
  facet normal 0.00880618 0.999961 0
    outer loop
      vertex 0.000999451 -8.00001 5
      vertex 3.38145 -8.02978 3.5
      vertex 0.000999451 -8.00001 3.5
    endloop
  endfacet
  facet normal -0.00880574 -0.999961 0
    outer loop
      vertex 0.000999451 7.99999 3.5
      vertex 3.66324 7.96774 5
      vertex 0.000999451 7.99999 5
    endloop
  endfacet
  facet normal -0.00880574 -0.999961 -0
    outer loop
      vertex 3.66324 7.96774 5
      vertex 0.000999451 7.99999 3.5
      vertex 3.66324 7.96774 3.5
    endloop
  endfacet
  facet normal 0.0264166 0.999651 -0
    outer loop
      vertex 6.76186 -8.11911 3.5
      vertex 3.38145 -8.02978 5
      vertex 6.76186 -8.11911 5
    endloop
  endfacet
  facet normal 0.0264166 0.999651 0
    outer loop
      vertex 3.38145 -8.02978 5
      vertex 6.76186 -8.11911 3.5
      vertex 3.38145 -8.02978 3.5
    endloop
  endfacet
  facet normal -0.0264154 -0.999651 0
    outer loop
      vertex 3.66324 7.96774 3.5
      vertex 7.32535 7.87097 5
      vertex 3.66324 7.96774 5
    endloop
  endfacet
  facet normal -0.0264154 -0.999651 -0
    outer loop
      vertex 7.32535 7.87097 5
      vertex 3.66324 7.96774 3.5
      vertex 7.32535 7.87097 3.5
    endloop
  endfacet
  facet normal 0.0440144 0.999031 -0
    outer loop
      vertex 10.1402 -8.26795 3.5
      vertex 6.76186 -8.11911 5
      vertex 10.1402 -8.26795 5
    endloop
  endfacet
  facet normal 0.0440144 0.999031 0
    outer loop
      vertex 6.76186 -8.11911 5
      vertex 10.1402 -8.26795 3.5
      vertex 6.76186 -8.11911 3.5
    endloop
  endfacet
  facet normal -0.0440192 -0.999031 0
    outer loop
      vertex 7.32535 7.87097 3.5
      vertex 10.9852 7.70971 5
      vertex 7.32535 7.87097 5
    endloop
  endfacet
  facet normal -0.0440192 -0.999031 -0
    outer loop
      vertex 10.9852 7.70971 5
      vertex 7.32535 7.87097 3.5
      vertex 10.9852 7.70971 3.5
    endloop
  endfacet
  facet normal 0.0616083 0.9981 -0
    outer loop
      vertex 13.5153 -8.47628 3.5
      vertex 10.1402 -8.26795 5
      vertex 13.5153 -8.47628 5
    endloop
  endfacet
  facet normal 0.0616083 0.9981 0
    outer loop
      vertex 10.1402 -8.26795 5
      vertex 13.5153 -8.47628 3.5
      vertex 10.1402 -8.26795 3.5
    endloop
  endfacet
  facet normal -0.0616047 -0.998101 0
    outer loop
      vertex 10.9852 7.70971 3.5
      vertex 14.6416 7.48403 5
      vertex 10.9852 7.70971 5
    endloop
  endfacet
  facet normal -0.0616047 -0.998101 -0
    outer loop
      vertex 14.6416 7.48403 5
      vertex 10.9852 7.70971 3.5
      vertex 14.6416 7.48403 3.5
    endloop
  endfacet
  facet normal 0.0791722 0.996861 -0
    outer loop
      vertex 16.8863 -8.74401 3.5
      vertex 13.5153 -8.47628 5
      vertex 16.8863 -8.74401 5
    endloop
  endfacet
  facet normal 0.0791722 0.996861 0
    outer loop
      vertex 13.5153 -8.47628 5
      vertex 16.8863 -8.74401 3.5
      vertex 13.5153 -8.47628 3.5
    endloop
  endfacet
  facet normal -0.0791724 -0.996861 0
    outer loop
      vertex 14.6416 7.48403 3.5
      vertex 18.2935 7.19399 5
      vertex 14.6416 7.48403 5
    endloop
  endfacet
  facet normal -0.0791724 -0.996861 -0
    outer loop
      vertex 18.2935 7.19399 5
      vertex 14.6416 7.48403 3.5
      vertex 18.2935 7.19399 3.5
    endloop
  endfacet
  facet normal 0.0967189 0.995312 -0
    outer loop
      vertex 20.252 -9.07107 3.5
      vertex 16.8863 -8.74401 5
      vertex 20.252 -9.07107 5
    endloop
  endfacet
  facet normal 0.0967189 0.995312 0
    outer loop
      vertex 16.8863 -8.74401 5
      vertex 20.252 -9.07107 3.5
      vertex 16.8863 -8.74401 3.5
    endloop
  endfacet
  facet normal -0.0967196 -0.995312 0
    outer loop
      vertex 18.2935 7.19399 3.5
      vertex 21.9397 6.83967 5
      vertex 18.2935 7.19399 5
    endloop
  endfacet
  facet normal -0.0967196 -0.995312 -0
    outer loop
      vertex 21.9397 6.83967 5
      vertex 18.2935 7.19399 3.5
      vertex 21.9397 6.83967 3.5
    endloop
  endfacet
  facet normal 0.114232 0.993454 -0
    outer loop
      vertex 23.6115 -9.45736 3.5
      vertex 20.252 -9.07107 5
      vertex 23.6115 -9.45736 5
    endloop
  endfacet
  facet normal 0.114232 0.993454 0
    outer loop
      vertex 20.252 -9.07107 5
      vertex 23.6115 -9.45736 3.5
      vertex 20.252 -9.07107 3.5
    endloop
  endfacet
  facet normal -0.114233 -0.993454 0
    outer loop
      vertex 21.9397 6.83967 3.5
      vertex 25.5791 6.42119 5
      vertex 21.9397 6.83967 5
    endloop
  endfacet
  facet normal -0.114233 -0.993454 -0
    outer loop
      vertex 25.5791 6.42119 5
      vertex 21.9397 6.83967 3.5
      vertex 25.5791 6.42119 3.5
    endloop
  endfacet
  facet normal 0.131711 0.991288 -0
    outer loop
      vertex 26.9636 -9.90275 3.5
      vertex 23.6115 -9.45736 5
      vertex 26.9636 -9.90275 5
    endloop
  endfacet
  facet normal 0.131711 0.991288 0
    outer loop
      vertex 23.6115 -9.45736 5
      vertex 26.9636 -9.90275 3.5
      vertex 23.6115 -9.45736 3.5
    endloop
  endfacet
  facet normal -0.131708 -0.991289 0
    outer loop
      vertex 25.5791 6.42119 3.5
      vertex 29.2106 5.93869 5
      vertex 25.5791 6.42119 5
    endloop
  endfacet
  facet normal -0.131708 -0.991289 -0
    outer loop
      vertex 29.2106 5.93869 5
      vertex 25.5791 6.42119 3.5
      vertex 29.2106 5.93869 3.5
    endloop
  endfacet
  facet normal 0.149144 0.988815 -0
    outer loop
      vertex 30.3074 -10.4071 3.5
      vertex 26.9636 -9.90275 5
      vertex 30.3074 -10.4071 5
    endloop
  endfacet
  facet normal 0.149144 0.988815 0
    outer loop
      vertex 26.9636 -9.90275 5
      vertex 30.3074 -10.4071 3.5
      vertex 26.9636 -9.90275 3.5
    endloop
  endfacet
  facet normal -0.149149 -0.988815 0
    outer loop
      vertex 29.2106 5.93869 3.5
      vertex 32.833 5.3923 5
      vertex 29.2106 5.93869 5
    endloop
  endfacet
  facet normal -0.149149 -0.988815 -0
    outer loop
      vertex 32.833 5.3923 5
      vertex 29.2106 5.93869 3.5
      vertex 32.833 5.3923 3.5
    endloop
  endfacet
  facet normal 0.166552 0.986033 -0
    outer loop
      vertex 33.6417 -10.9703 3.5
      vertex 30.3074 -10.4071 5
      vertex 33.6417 -10.9703 5
    endloop
  endfacet
  facet normal 0.166552 0.986033 0
    outer loop
      vertex 30.3074 -10.4071 5
      vertex 33.6417 -10.9703 3.5
      vertex 30.3074 -10.4071 3.5
    endloop
  endfacet
  facet normal -0.166544 -0.986034 0
    outer loop
      vertex 32.833 5.3923 3.5
      vertex 36.4452 4.78219 5
      vertex 32.833 5.3923 5
    endloop
  endfacet
  facet normal -0.166544 -0.986034 -0
    outer loop
      vertex 36.4452 4.78219 5
      vertex 32.833 5.3923 3.5
      vertex 36.4452 4.78219 3.5
    endloop
  endfacet
  facet normal 0.18388 0.982949 -0
    outer loop
      vertex 36.9656 -11.5921 3.5
      vertex 33.6417 -10.9703 5
      vertex 36.9656 -11.5921 5
    endloop
  endfacet
  facet normal 0.18388 0.982949 0
    outer loop
      vertex 33.6417 -10.9703 5
      vertex 36.9656 -11.5921 3.5
      vertex 33.6417 -10.9703 3.5
    endloop
  endfacet
  facet normal -0.18388 -0.982949 0
    outer loop
      vertex 36.4452 4.78219 3.5
      vertex 40.0461 4.10857 5
      vertex 36.4452 4.78219 5
    endloop
  endfacet
  facet normal -0.18388 -0.982949 -0
    outer loop
      vertex 40.0461 4.10857 5
      vertex 36.4452 4.78219 3.5
      vertex 40.0461 4.10857 3.5
    endloop
  endfacet
  facet normal 0.201146 0.979561 -0
    outer loop
      vertex 40.2781 -12.2723 3.5
      vertex 36.9656 -11.5921 5
      vertex 40.2781 -12.2723 5
    endloop
  endfacet
  facet normal 0.201146 0.979561 0
    outer loop
      vertex 36.9656 -11.5921 5
      vertex 40.2781 -12.2723 3.5
      vertex 36.9656 -11.5921 3.5
    endloop
  endfacet
  facet normal -0.201164 -0.979558 0
    outer loop
      vertex 40.0461 4.10857 3.5
      vertex 43.6346 3.37163 5
      vertex 40.0461 4.10857 5
    endloop
  endfacet
  facet normal -0.201164 -0.979558 -0
    outer loop
      vertex 43.6346 3.37163 5
      vertex 40.0461 4.10857 3.5
      vertex 43.6346 3.37163 3.5
    endloop
  endfacet
  facet normal 0.218386 0.975862 -0
    outer loop
      vertex 43.5781 -13.0108 3.5
      vertex 40.2781 -12.2723 5
      vertex 43.5781 -13.0108 5
    endloop
  endfacet
  facet normal 0.218386 0.975862 0
    outer loop
      vertex 40.2781 -12.2723 5
      vertex 43.5781 -13.0108 3.5
      vertex 40.2781 -12.2723 3.5
    endloop
  endfacet
  facet normal -0.218381 -0.975864 0
    outer loop
      vertex 43.6346 3.37163 3.5
      vertex 47.2096 2.57161 5
      vertex 43.6346 3.37163 5
    endloop
  endfacet
  facet normal -0.218381 -0.975864 -0
    outer loop
      vertex 47.2096 2.57161 5
      vertex 43.6346 3.37163 3.5
      vertex 47.2096 2.57161 3.5
    endloop
  endfacet
  facet normal 0.235543 0.971864 -0
    outer loop
      vertex 46.8645 -13.8073 3.5
      vertex 43.5781 -13.0108 5
      vertex 46.8645 -13.8073 5
    endloop
  endfacet
  facet normal 0.235543 0.971864 0
    outer loop
      vertex 43.5781 -13.0108 5
      vertex 46.8645 -13.8073 3.5
      vertex 43.5781 -13.0108 3.5
    endloop
  endfacet
  facet normal -0.235537 -0.971865 0
    outer loop
      vertex 47.2096 2.57161 3.5
      vertex 50.7699 1.70875 5
      vertex 47.2096 2.57161 5
    endloop
  endfacet
  facet normal -0.235537 -0.971865 -0
    outer loop
      vertex 50.7699 1.70875 5
      vertex 47.2096 2.57161 3.5
      vertex 50.7699 1.70875 3.5
    endloop
  endfacet
  facet normal 0.252633 0.967562 -0
    outer loop
      vertex 50.1364 -14.6616 3.5
      vertex 46.8645 -13.8073 5
      vertex 50.1364 -14.6616 5
    endloop
  endfacet
  facet normal 0.252633 0.967562 0
    outer loop
      vertex 46.8645 -13.8073 5
      vertex 50.1364 -14.6616 3.5
      vertex 46.8645 -13.8073 3.5
    endloop
  endfacet
  facet normal -0.252615 -0.967567 0
    outer loop
      vertex 50.7699 1.70875 3.5
      vertex 54.3145 0.783315 5
      vertex 50.7699 1.70875 5
    endloop
  endfacet
  facet normal -0.252615 -0.967567 -0
    outer loop
      vertex 54.3145 0.783315 5
      vertex 50.7699 1.70875 3.5
      vertex 54.3145 0.783315 3.5
    endloop
  endfacet
  facet normal 0.269605 0.962971 -0
    outer loop
      vertex 53.3928 -15.5733 3.5
      vertex 50.1364 -14.6616 5
      vertex 53.3928 -15.5733 5
    endloop
  endfacet
  facet normal 0.269605 0.962971 0
    outer loop
      vertex 50.1364 -14.6616 5
      vertex 53.3928 -15.5733 3.5
      vertex 50.1364 -14.6616 3.5
    endloop
  endfacet
  facet normal -0.269619 -0.962967 0
    outer loop
      vertex 54.3145 0.783315 3.5
      vertex 57.8422 -0.204397 5
      vertex 54.3145 0.783315 5
    endloop
  endfacet
  facet normal -0.269619 -0.962967 -0
    outer loop
      vertex 57.8422 -0.204397 5
      vertex 54.3145 0.783315 3.5
      vertex 57.8422 -0.204397 3.5
    endloop
  endfacet
  facet normal 0.286523 0.958073 -0
    outer loop
      vertex 56.6326 -16.5422 3.5
      vertex 53.3928 -15.5733 5
      vertex 56.6326 -16.5422 5
    endloop
  endfacet
  facet normal 0.286523 0.958073 0
    outer loop
      vertex 53.3928 -15.5733 5
      vertex 56.6326 -16.5422 3.5
      vertex 53.3928 -15.5733 3.5
    endloop
  endfacet
  facet normal -0.286535 -0.95807 0
    outer loop
      vertex 57.8422 -0.204397 3.5
      vertex 61.352 -1.25409 5
      vertex 57.8422 -0.204397 5
    endloop
  endfacet
  facet normal -0.286535 -0.95807 -0
    outer loop
      vertex 61.352 -1.25409 5
      vertex 57.8422 -0.204397 3.5
      vertex 61.352 -1.25409 3.5
    endloop
  endfacet
  facet normal 0.303379 0.95287 -0
    outer loop
      vertex 59.8548 -17.5681 3.5
      vertex 56.6326 -16.5422 5
      vertex 59.8548 -17.5681 5
    endloop
  endfacet
  facet normal 0.303379 0.95287 0
    outer loop
      vertex 56.6326 -16.5422 5
      vertex 59.8548 -17.5681 3.5
      vertex 56.6326 -16.5422 3.5
    endloop
  endfacet
  facet normal -0.303368 -0.952873 0
    outer loop
      vertex 61.352 -1.25409 3.5
      vertex 64.8427 -2.36543 5
      vertex 61.352 -1.25409 5
    endloop
  endfacet
  facet normal -0.303368 -0.952873 -0
    outer loop
      vertex 64.8427 -2.36543 5
      vertex 61.352 -1.25409 3.5
      vertex 64.8427 -2.36543 3.5
    endloop
  endfacet
  facet normal 0.320084 0.947389 -0
    outer loop
      vertex 63.0585 -18.6505 3.5
      vertex 59.8548 -17.5681 5
      vertex 63.0585 -18.6505 5
    endloop
  endfacet
  facet normal 0.320084 0.947389 0
    outer loop
      vertex 59.8548 -17.5681 5
      vertex 63.0585 -18.6505 3.5
      vertex 59.8548 -17.5681 3.5
    endloop
  endfacet
  facet normal -0.3201 -0.947384 0
    outer loop
      vertex 64.8427 -2.36543 3.5
      vertex 68.3133 -3.53807 5
      vertex 64.8427 -2.36543 5
    endloop
  endfacet
  facet normal -0.3201 -0.947384 -0
    outer loop
      vertex 68.3133 -3.53807 5
      vertex 64.8427 -2.36543 3.5
      vertex 68.3133 -3.53807 3.5
    endloop
  endfacet
  facet normal 0.336735 0.941599 -0
    outer loop
      vertex 66.2426 -19.7892 3.5
      vertex 63.0585 -18.6505 5
      vertex 66.2426 -19.7892 5
    endloop
  endfacet
  facet normal 0.336735 0.941599 0
    outer loop
      vertex 63.0585 -18.6505 5
      vertex 66.2426 -19.7892 3.5
      vertex 63.0585 -18.6505 3.5
    endloop
  endfacet
  facet normal -0.33673 -0.941601 0
    outer loop
      vertex 68.3133 -3.53807 3.5
      vertex 71.7628 -4.77166 5
      vertex 68.3133 -3.53807 5
    endloop
  endfacet
  facet normal -0.33673 -0.941601 -0
    outer loop
      vertex 71.7628 -4.77166 5
      vertex 68.3133 -3.53807 3.5
      vertex 71.7628 -4.77166 3.5
    endloop
  endfacet
  facet normal 0.353271 0.935521 -0
    outer loop
      vertex 69.4061 -20.9838 3.5
      vertex 66.2426 -19.7892 5
      vertex 69.4061 -20.9838 5
    endloop
  endfacet
  facet normal 0.353271 0.935521 0
    outer loop
      vertex 66.2426 -19.7892 5
      vertex 69.4061 -20.9838 3.5
      vertex 66.2426 -19.7892 3.5
    endloop
  endfacet
  facet normal -0.353273 -0.93552 0
    outer loop
      vertex 71.7628 -4.77166 3.5
      vertex 75.1899 -6.06581 5
      vertex 71.7628 -4.77166 5
    endloop
  endfacet
  facet normal -0.353273 -0.93552 -0
    outer loop
      vertex 75.1899 -6.06581 5
      vertex 71.7628 -4.77166 3.5
      vertex 75.1899 -6.06581 3.5
    endloop
  endfacet
  facet normal 0.369682 0.929158 -0
    outer loop
      vertex 72.5481 -22.2339 3.5
      vertex 69.4061 -20.9838 5
      vertex 72.5481 -22.2339 5
    endloop
  endfacet
  facet normal 0.369682 0.929158 0
    outer loop
      vertex 69.4061 -20.9838 5
      vertex 72.5481 -22.2339 3.5
      vertex 69.4061 -20.9838 3.5
    endloop
  endfacet
  facet normal -0.369682 -0.929158 0
    outer loop
      vertex 75.1899 -6.06581 3.5
      vertex 78.5938 -7.42011 5
      vertex 75.1899 -6.06581 5
    endloop
  endfacet
  facet normal -0.369682 -0.929158 -0
    outer loop
      vertex 78.5938 -7.42011 5
      vertex 75.1899 -6.06581 3.5
      vertex 78.5938 -7.42011 3.5
    endloop
  endfacet
  facet normal 0.385991 0.922503 -0
    outer loop
      vertex 75.6376 -23.5266 3.5
      vertex 72.5481 -22.2339 5
      vertex 75.6376 -23.5266 5
    endloop
  endfacet
  facet normal 0.385991 0.922503 0
    outer loop
      vertex 72.5481 -22.2339 5
      vertex 75.6376 -23.5266 3.5
      vertex 72.5481 -22.2339 3.5
    endloop
  endfacet
  facet normal -0.385996 -0.9225 0
    outer loop
      vertex 78.5938 -7.42011 5
      vertex 81.9406 -8.82049 4.76728
      vertex 81.9406 -8.82049 5
    endloop
  endfacet
  facet normal -0.385996 -0.9225 0
    outer loop
      vertex 78.5938 -7.42011 3.5
      vertex 81.9406 -8.82049 4.76728
      vertex 78.5938 -7.42011 5
    endloop
  endfacet
  facet normal -0.385996 -0.9225 -0
    outer loop
      vertex 81.9406 -8.82049 4.76728
      vertex 78.5938 -7.42011 3.5
      vertex 81.9406 -8.82049 3.5
    endloop
  endfacet
  facet normal -0.163015 -0.380346 -0.910364
    outer loop
      vertex 71.9736 -14.5577 2.5
      vertex 78.2432 -17.4472 2.58455
      vertex 77.4621 -19.2697 3.48585
    endloop
  endfacet
  facet normal -0.163055 -0.380432 -0.910321
    outer loop
      vertex 78.2432 -17.4472 2.58455
      vertex 71.9736 -14.5577 2.5
      vertex 78.3165 -17.2763 2.5
    endloop
  endfacet
  facet normal -0.393946 -0.919134 0
    outer loop
      vertex 71.9736 -14.5577 0
      vertex 78.3165 -17.2763 2.5
      vertex 71.9736 -14.5577 2.5
    endloop
  endfacet
  facet normal -0.393946 -0.919134 -0
    outer loop
      vertex 78.3165 -17.2763 2.5
      vertex 71.9736 -14.5577 0
      vertex 78.3165 -17.2763 0
    endloop
  endfacet
  facet normal 0.919135 -0.393943 0
    outer loop
      vertex 71.9736 -14.5577 0
      vertex 71.9736 -14.5577 2.5
      vertex 69.9251 -19.3372 3.5
    endloop
  endfacet
  facet normal 0.176177 0.411063 -0.894421
    outer loop
      vertex 76.2568 -22.0818 3.48585
      vertex 75.4801 -23.894 2.5
      vertex 69.1372 -21.1755 2.5
    endloop
  endfacet
  facet normal 0.393933 0.919139 -0
    outer loop
      vertex 75.4801 -23.894 0.953397
      vertex 69.1372 -21.1755 2.5
      vertex 75.4801 -23.894 2.5
    endloop
  endfacet
  facet normal 0.393933 0.919139 0
    outer loop
      vertex 69.1372 -21.1755 0
      vertex 75.4801 -23.894 0.953397
      vertex 75.4801 -23.894 0
    endloop
  endfacet
  facet normal 0.393933 0.919139 0
    outer loop
      vertex 75.4801 -23.894 0.953397
      vertex 69.1372 -21.1755 0
      vertex 69.1372 -21.1755 2.5
    endloop
  endfacet
  facet normal 0.919135 -0.393943 0
    outer loop
      vertex 69.9251 -19.3372 3.5
      vertex 69.1372 -21.1755 2.5
      vertex 69.1372 -21.1755 0
    endloop
  endfacet
  facet normal 0.17613 0.410937 -0.894488
    outer loop
      vertex 76.2568 -22.0818 3.48585
      vertex 69.9251 -19.3372 3.5
      vertex 76.268 -22.0558 3.5
    endloop
  endfacet
  facet normal 0.176176 0.411043 -0.89443
    outer loop
      vertex 69.9251 -19.3372 3.5
      vertex 76.2568 -22.0818 3.48585
      vertex 69.1372 -21.1755 2.5
    endloop
  endfacet
  facet normal 0.919138 -0.393935 4.02669e-05
    outer loop
      vertex 71.9736 -14.5577 2.5
      vertex 71.1069 -16.5798 3.5
      vertex 69.9251 -19.3372 3.5
    endloop
  endfacet
  facet normal 0.919135 -0.393943 -4.16665e-07
    outer loop
      vertex 71.9736 -14.5577 0
      vertex 69.9251 -19.3372 3.5
      vertex 69.1372 -21.1755 0
    endloop
  endfacet
  facet normal -0.162606 -0.379384 -0.910839
    outer loop
      vertex 71.1069 -16.5798 3.5
      vertex 77.4621 -19.2697 3.48585
      vertex 77.4498 -19.2984 3.5
    endloop
  endfacet
  facet normal -0.16301 -0.380341 -0.910367
    outer loop
      vertex 77.4621 -19.2697 3.48585
      vertex 71.1069 -16.5798 3.5
      vertex 71.9736 -14.5577 2.5
    endloop
  endfacet
endsolid OpenSCAD_Model
