solid OpenSCAD_Model
  facet normal -1 0 0
    outer loop
      vertex -5.999 -8 0
      vertex -5.999 -5.901 2.6
      vertex -5.999 -5.901 0
    endloop
  endfacet
  facet normal -1 -0 0
    outer loop
      vertex -5.999 -5.901 2.6
      vertex -5.999 -8 0
      vertex -5.999 -8 2.6
    endloop
  endfacet
  facet normal -1 0 0
    outer loop
      vertex -5.999 -3.101 0
      vertex -5.999 -1 2.6
      vertex -5.999 -1 0
    endloop
  endfacet
  facet normal -1 -0 0
    outer loop
      vertex -5.999 -1 2.6
      vertex -5.999 -3.101 0
      vertex -5.999 -3.101 2.6
    endloop
  endfacet
  facet normal -0 0 1
    outer loop
      vertex -5.999 -5.901 2.6
      vertex 0 -8 2.6
      vertex 0 -5.901 2.6
    endloop
  endfacet
  facet normal 0 0 1
    outer loop
      vertex 0 -8 2.6
      vertex -5.999 -5.901 2.6
      vertex -5.999 -8 2.6
    endloop
  endfacet
  facet normal -0 0 1
    outer loop
      vertex -5.999 -1 2.6
      vertex 0 -3.101 2.6
      vertex 0 -1 2.6
    endloop
  endfacet
  facet normal 0 0 1
    outer loop
      vertex 0 -3.101 2.6
      vertex -5.999 -1 2.6
      vertex -5.999 -3.101 2.6
    endloop
  endfacet
  facet normal 0 0 -1
    outer loop
      vertex -6 -5.901 0
      vertex -5.999 -3.101 0
      vertex -5.999 -5.901 0
    endloop
  endfacet
  facet normal -0 0 -1
    outer loop
      vertex -5.999 -3.101 0
      vertex -6 -5.901 0
      vertex -6 -3.101 0
    endloop
  endfacet
  facet normal 0 0 -1
    outer loop
      vertex -5.999 -5.901 0
      vertex 0 -8 0
      vertex -5.999 -8 0
    endloop
  endfacet
  facet normal 0 0 -1
    outer loop
      vertex 0 -8 0
      vertex -5.999 -5.901 0
      vertex 0 -1 0
    endloop
  endfacet
  facet normal 0 0 -1
    outer loop
      vertex -5.999 -3.101 0
      vertex 0 -1 0
      vertex -5.999 -5.901 0
    endloop
  endfacet
  facet normal -0 0 -1
    outer loop
      vertex 0 -1 0
      vertex -5.999 -3.101 0
      vertex -5.999 -1 0
    endloop
  endfacet
  facet normal 0 0 -1
    outer loop
      vertex 0 8.4 0
      vertex 3 12.5 0
      vertex 7 8.4 0
    endloop
  endfacet
  facet normal -0 0 -1
    outer loop
      vertex 3 12.5 0
      vertex 0 8.4 0
      vertex 0 12.5 0
    endloop
  endfacet
  facet normal 0 0 -1
    outer loop
      vertex 76.2 -12.5 0
      vertex 69.2 -8.4 0
      vertex 76.2 -8.4 0
    endloop
  endfacet
  facet normal 0 0 -1
    outer loop
      vertex 69.2 -8.4 0
      vertex 57 12.5 0
      vertex 69.2 -1.2 0
    endloop
  endfacet
  facet normal 0 0 -1
    outer loop
      vertex 7 8.4 0
      vertex 57 12.5 0
      vertex 7 1.2 0
    endloop
  endfacet
  facet normal 0 0 -1
    outer loop
      vertex 69.2 -8.4 0
      vertex 7 1.2 0
      vertex 57 12.5 0
    endloop
  endfacet
  facet normal 0 0 -1
    outer loop
      vertex 0 -12.5 0
      vertex 69.2 -8.4 0
      vertex 76.2 -12.5 0
    endloop
  endfacet
  facet normal -0 0 -1
    outer loop
      vertex 69.2 -8.4 0
      vertex 0 -12.5 0
      vertex 7 1.2 0
    endloop
  endfacet
  facet normal 0 0 -1
    outer loop
      vertex 0 -8 0
      vertex 7 1.2 0
      vertex 0 -12.5 0
    endloop
  endfacet
  facet normal 0 0 -1
    outer loop
      vertex 0 -1 0
      vertex 7 1.2 0
      vertex 0 -8 0
    endloop
  endfacet
  facet normal -0 0 -1
    outer loop
      vertex 7 1.2 0
      vertex 0 -1 0
      vertex 0 1.2 0
    endloop
  endfacet
  facet normal 0 0 -1
    outer loop
      vertex 69.2 -1.2 0
      vertex 76.2 12.5 0
      vertex 76.2 -1.2 0
    endloop
  endfacet
  facet normal -0 0 -1
    outer loop
      vertex 76.2 12.5 0
      vertex 69.2 -1.2 0
      vertex 57 12.5 0
    endloop
  endfacet
  facet normal -0 0 -1
    outer loop
      vertex 57 12.5 0
      vertex 7 8.4 0
      vertex 57 27 0
    endloop
  endfacet
  facet normal 0 0 -1
    outer loop
      vertex 3 27 0
      vertex 7 8.4 0
      vertex 3 12.5 0
    endloop
  endfacet
  facet normal 0 0 -1
    outer loop
      vertex 7 8.4 0
      vertex 3 27 0
      vertex 57 27 0
    endloop
  endfacet
  facet normal 0 -1 0
    outer loop
      vertex -5.999 -8 0
      vertex 0 -8 2.6
      vertex -5.999 -8 2.6
    endloop
  endfacet
  facet normal 0 -1 -0
    outer loop
      vertex 0 -8 2.6
      vertex -5.999 -8 0
      vertex 0 -8 0
    endloop
  endfacet
  facet normal 0 1 -0
    outer loop
      vertex 0 -1 0
      vertex -5.999 -1 2.6
      vertex 0 -1 2.6
    endloop
  endfacet
  facet normal 0 1 0
    outer loop
      vertex -5.999 -1 2.6
      vertex 0 -1 0
      vertex -5.999 -1 0
    endloop
  endfacet
  facet normal -1 0 0
    outer loop
      vertex -6 -5.901 0
      vertex -6 -3.101 4.6
      vertex -6 -3.101 0
    endloop
  endfacet
  facet normal -1 -0 0
    outer loop
      vertex -6 -3.101 4.6
      vertex -6 -5.901 0
      vertex -6 -5.901 4.6
    endloop
  endfacet
  facet normal 0 0 -1
    outer loop
      vertex -0.000999855 -6.202 4.6
      vertex -6 -5.901 4.6
      vertex -0.000999855 -5.901 4.6
    endloop
  endfacet
  facet normal -0 0 -1
    outer loop
      vertex -6 -5.901 4.6
      vertex -6.001 -6.202 4.6
      vertex -6 -3.101 4.6
    endloop
  endfacet
  facet normal 0 0 -1
    outer loop
      vertex -6.001 -6.202 4.6
      vertex -6 -5.901 4.6
      vertex -0.000999855 -6.202 4.6
    endloop
  endfacet
  facet normal 0 0 -1
    outer loop
      vertex -6 -3.101 4.6
      vertex -0.000999855 -2.802 4.6
      vertex -0.000999855 -3.101 4.6
    endloop
  endfacet
  facet normal 0 0 -1
    outer loop
      vertex -6 -3.101 4.6
      vertex -6.001 -2.802 4.6
      vertex -0.000999855 -2.802 4.6
    endloop
  endfacet
  facet normal 0 0 -1
    outer loop
      vertex -6.001 -2.802 4.6
      vertex -6 -3.101 4.6
      vertex -6.001 -6.202 4.6
    endloop
  endfacet
  facet normal -0 0 1
    outer loop
      vertex -0.000999855 -3.101 4.6
      vertex 0 -5.901 4.6
      vertex 0 -3.101 4.6
    endloop
  endfacet
  facet normal 0 0 1
    outer loop
      vertex 0 -5.901 4.6
      vertex -0.000999855 -3.101 4.6
      vertex -0.000999855 -5.901 4.6
    endloop
  endfacet
  facet normal 0 -1 0
    outer loop
      vertex 0 -5.901 3.5
      vertex -0.000999855 -5.901 4.6
      vertex -6 -5.901 4.6
    endloop
  endfacet
  facet normal 0 -1 0
    outer loop
      vertex -0.000999855 -5.901 4.6
      vertex 0 -5.901 3.5
      vertex 0 -5.901 4.6
    endloop
  endfacet
  facet normal 0 -1 0
    outer loop
      vertex -6 -5.901 4.6
      vertex -5.999 -5.901 2.6
      vertex 0 -5.901 3.5
    endloop
  endfacet
  facet normal 0 -1 0
    outer loop
      vertex -6 -5.901 0
      vertex -5.999 -5.901 2.6
      vertex -6 -5.901 4.6
    endloop
  endfacet
  facet normal 0 -1 -0
    outer loop
      vertex -5.999 -5.901 2.6
      vertex -6 -5.901 0
      vertex -5.999 -5.901 0
    endloop
  endfacet
  facet normal 0 -1 -0
    outer loop
      vertex 0 -5.901 3.5
      vertex -5.999 -5.901 2.6
      vertex 0 -5.901 2.6
    endloop
  endfacet
  facet normal 0 1 -0
    outer loop
      vertex 0 -3.101 3.5
      vertex -0.000999855 -3.101 4.6
      vertex 0 -3.101 4.6
    endloop
  endfacet
  facet normal 0 1 0
    outer loop
      vertex -0.000999855 -3.101 4.6
      vertex 0 -3.101 3.5
      vertex -6 -3.101 4.6
    endloop
  endfacet
  facet normal 0 1 0
    outer loop
      vertex -5.999 -3.101 2.6
      vertex 0 -3.101 3.5
      vertex 0 -3.101 2.6
    endloop
  endfacet
  facet normal 0 1 0
    outer loop
      vertex 0 -3.101 3.5
      vertex -5.999 -3.101 2.6
      vertex -6 -3.101 4.6
    endloop
  endfacet
  facet normal 0 1 0
    outer loop
      vertex -6 -3.101 0
      vertex -5.999 -3.101 2.6
      vertex -5.999 -3.101 0
    endloop
  endfacet
  facet normal 0 1 0
    outer loop
      vertex -5.999 -3.101 2.6
      vertex -6 -3.101 0
      vertex -6 -3.101 4.6
    endloop
  endfacet
  facet normal -1 0 0
    outer loop
      vertex -6.001 -6.202 4.6
      vertex -6.001 -2.802 5.2
      vertex -6.001 -2.802 4.6
    endloop
  endfacet
  facet normal -1 -0 0
    outer loop
      vertex -6.001 -2.802 5.2
      vertex -6.001 -6.202 4.6
      vertex -6.001 -6.202 5.2
    endloop
  endfacet
  facet normal -0 0 1
    outer loop
      vertex -6.001 -2.802 5.2
      vertex -0.000999855 -6.202 5.2
      vertex -0.000999855 -2.802 5.2
    endloop
  endfacet
  facet normal 0 0 1
    outer loop
      vertex -0.000999855 -6.202 5.2
      vertex -6.001 -2.802 5.2
      vertex -6.001 -6.202 5.2
    endloop
  endfacet
  facet normal 1 0 0
    outer loop
      vertex -0.000999855 -2.802 5.2
      vertex -0.000999855 -3.101 4.6
      vertex -0.000999855 -2.802 4.6
    endloop
  endfacet
  facet normal 1 0 0
    outer loop
      vertex -0.000999855 -2.802 5.2
      vertex -0.000999855 -5.901 4.6
      vertex -0.000999855 -3.101 4.6
    endloop
  endfacet
  facet normal 1 -0 0
    outer loop
      vertex -0.000999855 -6.202 5.2
      vertex -0.000999855 -5.901 4.6
      vertex -0.000999855 -2.802 5.2
    endloop
  endfacet
  facet normal 1 0 0
    outer loop
      vertex -0.000999855 -5.901 4.6
      vertex -0.000999855 -6.202 5.2
      vertex -0.000999855 -6.202 4.6
    endloop
  endfacet
  facet normal 0 -1 0
    outer loop
      vertex -6.001 -6.202 4.6
      vertex -0.000999855 -6.202 5.2
      vertex -6.001 -6.202 5.2
    endloop
  endfacet
  facet normal 0 -1 -0
    outer loop
      vertex -0.000999855 -6.202 5.2
      vertex -6.001 -6.202 4.6
      vertex -0.000999855 -6.202 4.6
    endloop
  endfacet
  facet normal 0 1 -0
    outer loop
      vertex -0.000999855 -2.802 4.6
      vertex -6.001 -2.802 5.2
      vertex -0.000999855 -2.802 5.2
    endloop
  endfacet
  facet normal 0 1 0
    outer loop
      vertex -6.001 -2.802 5.2
      vertex -0.000999855 -2.802 4.6
      vertex -6.001 -2.802 4.6
    endloop
  endfacet
  facet normal 1 -0 0
    outer loop
      vertex 82.2 5.901 2.6
      vertex 82.2 8 0
      vertex 82.2 8 2.6
    endloop
  endfacet
  facet normal 1 0 0
    outer loop
      vertex 82.2 8 0
      vertex 82.2 5.901 2.6
      vertex 82.2 5.901 0
    endloop
  endfacet
  facet normal 1 -0 0
    outer loop
      vertex 82.2 1 2.6
      vertex 82.2 3.101 0
      vertex 82.2 3.101 2.6
    endloop
  endfacet
  facet normal 1 0 0
    outer loop
      vertex 82.2 3.101 0
      vertex 82.2 1 2.6
      vertex 82.2 1 0
    endloop
  endfacet
  facet normal 0 0 1
    outer loop
      vertex 82.2 8 2.6
      vertex 76.201 5.901 2.6
      vertex 82.2 5.901 2.6
    endloop
  endfacet
  facet normal 0 0 1
    outer loop
      vertex 76.201 5.901 2.6
      vertex 76.2 8 2.6
      vertex 76.201 3.101 2.6
    endloop
  endfacet
  facet normal -0 0 1
    outer loop
      vertex 76.2 8 2.6
      vertex 76.201 5.901 2.6
      vertex 82.2 8 2.6
    endloop
  endfacet
  facet normal -0 0 1
    outer loop
      vertex 76.201 3.101 2.6
      vertex 82.2 1 2.6
      vertex 82.2 3.101 2.6
    endloop
  endfacet
  facet normal 0 0 1
    outer loop
      vertex 76.201 3.101 2.6
      vertex 76.2 1 2.6
      vertex 82.2 1 2.6
    endloop
  endfacet
  facet normal 0 0 1
    outer loop
      vertex 76.2 1 2.6
      vertex 76.201 3.101 2.6
      vertex 76.2 8 2.6
    endloop
  endfacet
  facet normal 0 0 -1
    outer loop
      vertex 76.2 1 0
      vertex 82.2 3.101 0
      vertex 82.2 1 0
    endloop
  endfacet
  facet normal -0 0 -1
    outer loop
      vertex 82.2 3.101 0
      vertex 76.2 1 0
      vertex 82.2 5.901 0
    endloop
  endfacet
  facet normal 0 0 -1
    outer loop
      vertex 76.2 8 0
      vertex 82.2 5.901 0
      vertex 76.2 1 0
    endloop
  endfacet
  facet normal 0 0 -1
    outer loop
      vertex 82.2 5.901 0
      vertex 76.2 8 0
      vertex 82.2 8 0
    endloop
  endfacet
  facet normal 0 0 -1
    outer loop
      vertex 82.2 3.101 0
      vertex 82.201 5.901 0
      vertex 82.201 3.101 0
    endloop
  endfacet
  facet normal -0 0 -1
    outer loop
      vertex 82.201 5.901 0
      vertex 82.2 3.101 0
      vertex 82.2 5.901 0
    endloop
  endfacet
  facet normal -1 0 0
    outer loop
      vertex 76.2 1 0
      vertex 76.2 8 2.6
      vertex 76.2 8 0
    endloop
  endfacet
  facet normal -1 -0 0
    outer loop
      vertex 76.2 8 2.6
      vertex 76.2 1 0
      vertex 76.2 1 2.6
    endloop
  endfacet
  facet normal 0 1 -0
    outer loop
      vertex 82.2 8 0
      vertex 76.2 8 2.6
      vertex 82.2 8 2.6
    endloop
  endfacet
  facet normal 0 1 0
    outer loop
      vertex 76.2 8 2.6
      vertex 82.2 8 0
      vertex 76.2 8 0
    endloop
  endfacet
  facet normal 0 -1 0
    outer loop
      vertex 76.2 1 0
      vertex 82.2 1 2.6
      vertex 76.2 1 2.6
    endloop
  endfacet
  facet normal 0 -1 -0
    outer loop
      vertex 82.2 1 2.6
      vertex 76.2 1 0
      vertex 82.2 1 0
    endloop
  endfacet
  facet normal 1 -0 0
    outer loop
      vertex 82.201 3.101 4.6
      vertex 82.201 5.901 0
      vertex 82.201 5.901 4.6
    endloop
  endfacet
  facet normal 1 0 0
    outer loop
      vertex 82.201 5.901 0
      vertex 82.201 3.101 4.6
      vertex 82.201 3.101 0
    endloop
  endfacet
  facet normal 0 0 -1
    outer loop
      vertex 82.202 2.802 4.6
      vertex 82.201 3.101 4.6
      vertex 82.202 6.202 4.6
    endloop
  endfacet
  facet normal 0 0 -1
    outer loop
      vertex 76.202 2.802 4.6
      vertex 82.201 3.101 4.6
      vertex 82.202 2.802 4.6
    endloop
  endfacet
  facet normal -0 0 -1
    outer loop
      vertex 82.201 3.101 4.6
      vertex 76.202 2.802 4.6
      vertex 76.202 3.101 4.6
    endloop
  endfacet
  facet normal 0 0 -1
    outer loop
      vertex 82.201 5.901 4.6
      vertex 82.202 6.202 4.6
      vertex 82.201 3.101 4.6
    endloop
  endfacet
  facet normal 0 0 -1
    outer loop
      vertex 76.202 5.901 4.6
      vertex 82.202 6.202 4.6
      vertex 82.201 5.901 4.6
    endloop
  endfacet
  facet normal -0 0 -1
    outer loop
      vertex 82.202 6.202 4.6
      vertex 76.202 5.901 4.6
      vertex 76.202 6.202 4.6
    endloop
  endfacet
  facet normal -0 0 1
    outer loop
      vertex 76.201 5.901 4.6
      vertex 76.202 3.101 4.6
      vertex 76.202 5.901 4.6
    endloop
  endfacet
  facet normal 0 0 1
    outer loop
      vertex 76.202 3.101 4.6
      vertex 76.201 5.901 4.6
      vertex 76.201 3.101 4.6
    endloop
  endfacet
  facet normal -1 0 0
    outer loop
      vertex 76.201 3.101 2.6
      vertex 76.201 5.901 4.6
      vertex 76.201 5.901 2.6
    endloop
  endfacet
  facet normal -1 -0 0
    outer loop
      vertex 76.201 5.901 4.6
      vertex 76.201 3.101 2.6
      vertex 76.201 3.101 4.6
    endloop
  endfacet
  facet normal 0 1 -0
    outer loop
      vertex 82.2 5.901 2.6
      vertex 76.202 5.901 4.6
      vertex 82.201 5.901 4.6
    endloop
  endfacet
  facet normal 0 1 0
    outer loop
      vertex 76.201 5.901 2.6
      vertex 76.202 5.901 4.6
      vertex 82.2 5.901 2.6
    endloop
  endfacet
  facet normal 0 1 -0
    outer loop
      vertex 82.201 5.901 0
      vertex 82.2 5.901 2.6
      vertex 82.201 5.901 4.6
    endloop
  endfacet
  facet normal 0 1 0
    outer loop
      vertex 82.2 5.901 2.6
      vertex 82.201 5.901 0
      vertex 82.2 5.901 0
    endloop
  endfacet
  facet normal 0 1 0
    outer loop
      vertex 76.202 5.901 4.6
      vertex 76.201 5.901 2.6
      vertex 76.201 5.901 4.6
    endloop
  endfacet
  facet normal 0 -1 0
    outer loop
      vertex 76.201 3.101 2.6
      vertex 76.202 3.101 4.6
      vertex 76.201 3.101 4.6
    endloop
  endfacet
  facet normal 0 -1 -0
    outer loop
      vertex 76.202 3.101 4.6
      vertex 76.201 3.101 2.6
      vertex 82.201 3.101 4.6
    endloop
  endfacet
  facet normal 0 -1 0
    outer loop
      vertex 82.2 3.101 2.6
      vertex 82.201 3.101 4.6
      vertex 76.201 3.101 2.6
    endloop
  endfacet
  facet normal 0 -1 0
    outer loop
      vertex 82.201 3.101 0
      vertex 82.2 3.101 2.6
      vertex 82.2 3.101 0
    endloop
  endfacet
  facet normal 0 -1 0
    outer loop
      vertex 82.2 3.101 2.6
      vertex 82.201 3.101 0
      vertex 82.201 3.101 4.6
    endloop
  endfacet
  facet normal 1 -0 0
    outer loop
      vertex 82.202 2.802 5.2
      vertex 82.202 6.202 4.6
      vertex 82.202 6.202 5.2
    endloop
  endfacet
  facet normal 1 0 0
    outer loop
      vertex 82.202 6.202 4.6
      vertex 82.202 2.802 5.2
      vertex 82.202 2.802 4.6
    endloop
  endfacet
  facet normal -0 0 1
    outer loop
      vertex 76.202 6.202 5.2
      vertex 82.202 2.802 5.2
      vertex 82.202 6.202 5.2
    endloop
  endfacet
  facet normal 0 0 1
    outer loop
      vertex 82.202 2.802 5.2
      vertex 76.202 6.202 5.2
      vertex 76.202 2.802 5.2
    endloop
  endfacet
  facet normal -1 0 0
    outer loop
      vertex 76.202 5.901 4.6
      vertex 76.202 6.202 5.2
      vertex 76.202 6.202 4.6
    endloop
  endfacet
  facet normal -1 0 0
    outer loop
      vertex 76.202 3.101 4.6
      vertex 76.202 6.202 5.2
      vertex 76.202 5.901 4.6
    endloop
  endfacet
  facet normal -1 0 0
    outer loop
      vertex 76.202 2.802 5.2
      vertex 76.202 3.101 4.6
      vertex 76.202 2.802 4.6
    endloop
  endfacet
  facet normal -1 0 0
    outer loop
      vertex 76.202 3.101 4.6
      vertex 76.202 2.802 5.2
      vertex 76.202 6.202 5.2
    endloop
  endfacet
  facet normal 0 1 -0
    outer loop
      vertex 82.202 6.202 4.6
      vertex 76.202 6.202 5.2
      vertex 82.202 6.202 5.2
    endloop
  endfacet
  facet normal 0 1 0
    outer loop
      vertex 76.202 6.202 5.2
      vertex 82.202 6.202 4.6
      vertex 76.202 6.202 4.6
    endloop
  endfacet
  facet normal 0 -1 0
    outer loop
      vertex 76.202 2.802 4.6
      vertex 82.202 2.802 5.2
      vertex 76.202 2.802 5.2
    endloop
  endfacet
  facet normal 0 -1 -0
    outer loop
      vertex 82.202 2.802 5.2
      vertex 76.202 2.802 4.6
      vertex 82.202 2.802 4.6
    endloop
  endfacet
  facet normal -1 0 0
    outer loop
      vertex 0 8.4 2.5
      vertex 0 6.4 3.5
      vertex 0 8 3.5
    endloop
  endfacet
  facet normal -1 0 0
    outer loop
      vertex 0 8.4 2.5
      vertex 0 12.5 0
      vertex 0 8.4 0
    endloop
  endfacet
  facet normal -1 0 0
    outer loop
      vertex 0 12.5 0
      vertex 0 8.4 2.5
      vertex 0 9 5
    endloop
  endfacet
  facet normal -1 0 0
    outer loop
      vertex 0 8 3.5
      vertex 0 9 5
      vertex 0 8.4 2.5
    endloop
  endfacet
  facet normal -1 -0 0
    outer loop
      vertex 0 9 5
      vertex 0 8 3.5
      vertex 0 8 5
    endloop
  endfacet
  facet normal -1 0 0
    outer loop
      vertex 0 -12.5 0
      vertex 0 -8 2.6
      vertex 0 -8 0
    endloop
  endfacet
  facet normal -1 0 -0
    outer loop
      vertex 0 -9 5
      vertex 0 -8 2.6
      vertex 0 -12.5 0
    endloop
  endfacet
  facet normal -1 0 0
    outer loop
      vertex 0 -8 3.5
      vertex 0 -9 5
      vertex 0 -8 5
    endloop
  endfacet
  facet normal -1 0 0
    outer loop
      vertex 0 -8 2.6
      vertex 0 -9 5
      vertex 0 -8 3.5
    endloop
  endfacet
  facet normal -1 0 0
    outer loop
      vertex 0 -8 2.6
      vertex 0 -5.901 3.5
      vertex 0 -5.901 2.6
    endloop
  endfacet
  facet normal -1 -0 0
    outer loop
      vertex 0 -5.901 3.5
      vertex 0 -8 2.6
      vertex 0 -8 3.5
    endloop
  endfacet
  facet normal -1 0 0
    outer loop
      vertex 0 1.2 0
      vertex 0 -1 0
      vertex 0 1.2 2.5
    endloop
  endfacet
  facet normal -1 0 0
    outer loop
      vertex 0 -1 2.6
      vertex 0 1.2 2.5
      vertex 0 -1 0
    endloop
  endfacet
  facet normal -1 0 0
    outer loop
      vertex 0 -1 2.6
      vertex 0 3.4 3.5
      vertex 0 1.2 2.5
    endloop
  endfacet
  facet normal -1 0 0
    outer loop
      vertex 0 -3.101 3.5
      vertex 0 -1 2.6
      vertex 0 -3.101 2.6
    endloop
  endfacet
  facet normal -1 0 0
    outer loop
      vertex 0 -1 2.6
      vertex 0 -3.101 3.5
      vertex 0 3.4 3.5
    endloop
  endfacet
  facet normal 1 0 0
    outer loop
      vertex 76.2 8 3.5
      vertex 76.2 -3.4 3.5
      vertex 76.2 -1.2 2.5
    endloop
  endfacet
  facet normal 1 0 0
    outer loop
      vertex 76.2 8 3.5
      vertex 76.2 9 5
      vertex 76.2 8 5
    endloop
  endfacet
  facet normal 1 0 0
    outer loop
      vertex 76.2 9 5
      vertex 76.2 8 3.5
      vertex 76.2 12.5 0
    endloop
  endfacet
  facet normal 1 0 0
    outer loop
      vertex 76.2 -1.2 0
      vertex 76.2 8 3.5
      vertex 76.2 -1.2 2.5
    endloop
  endfacet
  facet normal 1 0 0
    outer loop
      vertex 76.2 8 3.5
      vertex 76.2 -1.2 0
      vertex 76.2 12.5 0
    endloop
  endfacet
  facet normal 1 -0 0
    outer loop
      vertex 76.2 -9 5
      vertex 76.2 -8 3.5
      vertex 76.2 -8 5
    endloop
  endfacet
  facet normal 1 0 0
    outer loop
      vertex 76.2 -8 3.5
      vertex 76.2 -9 5
      vertex 76.2 -8.4 2.5
    endloop
  endfacet
  facet normal 1 0 0
    outer loop
      vertex 76.2 -12.5 0
      vertex 76.2 -8.4 2.5
      vertex 76.2 -9 5
    endloop
  endfacet
  facet normal 1 0 0
    outer loop
      vertex 76.2 -8.4 2.5
      vertex 76.2 -12.5 0
      vertex 76.2 -8.4 0
    endloop
  endfacet
  facet normal 1 0 0
    outer loop
      vertex 76.2 -6.4 3.5
      vertex 76.2 -8 3.5
      vertex 76.2 -8.4 2.5
    endloop
  endfacet
  facet normal -0 0 1
    outer loop
      vertex 0 9 5
      vertex 3 8 5
      vertex 3 9 5
    endloop
  endfacet
  facet normal 0 0 1
    outer loop
      vertex 3 8 5
      vertex 0 9 5
      vertex 0 8 5
    endloop
  endfacet
  facet normal -0 0 1
    outer loop
      vertex 57 9 5
      vertex 76.2 8 5
      vertex 76.2 9 5
    endloop
  endfacet
  facet normal 0 0 1
    outer loop
      vertex 76.2 8 5
      vertex 57 9 5
      vertex 57 8 5
    endloop
  endfacet
  facet normal 0 -1 0
    outer loop
      vertex 0 8 3.5
      vertex 3 8 5
      vertex 0 8 5
    endloop
  endfacet
  facet normal 0 -1 -0
    outer loop
      vertex 3 8 5
      vertex 0 8 3.5
      vertex 3 8 3.5
    endloop
  endfacet
  facet normal 0 -1 0
    outer loop
      vertex 57 8 3.5
      vertex 76.2 8 5
      vertex 57 8 5
    endloop
  endfacet
  facet normal 0 -1 -0
    outer loop
      vertex 76.2 8 5
      vertex 57 8 3.5
      vertex 76.2 8 3.5
    endloop
  endfacet
  facet normal 0 0 1
    outer loop
      vertex 7 6.4 3.5
      vertex 57 10.05 3.5
      vertex 57 23 3.5
    endloop
  endfacet
  facet normal 0 0 1
    outer loop
      vertex 57 10.05 3.5
      vertex 7 6.4 3.5
      vertex 57 8 3.5
    endloop
  endfacet
  facet normal -0 0 1
    outer loop
      vertex 3 23 3.5
      vertex 7 6.4 3.5
      vertex 57 23 3.5
    endloop
  endfacet
  facet normal -0 0 1
    outer loop
      vertex 3 10.05 3.5
      vertex 7 6.4 3.5
      vertex 3 23 3.5
    endloop
  endfacet
  facet normal -0 0 1
    outer loop
      vertex 3 8 3.5
      vertex 7 6.4 3.5
      vertex 3 10.05 3.5
    endloop
  endfacet
  facet normal 0 0 1
    outer loop
      vertex 0 6.4 3.5
      vertex 3 8 3.5
      vertex 0 8 3.5
    endloop
  endfacet
  facet normal 0 0 1
    outer loop
      vertex 3 8 3.5
      vertex 0 6.4 3.5
      vertex 7 6.4 3.5
    endloop
  endfacet
  facet normal 0 0 1
    outer loop
      vertex 76.2 8 3.5
      vertex 69.2 -3.4 3.5
      vertex 76.2 -3.4 3.5
    endloop
  endfacet
  facet normal 0 0 1
    outer loop
      vertex 69.2 -3.4 3.5
      vertex 57 8 3.5
      vertex 69.2 -6.4 3.5
    endloop
  endfacet
  facet normal -0 0 1
    outer loop
      vertex 57 8 3.5
      vertex 69.2 -3.4 3.5
      vertex 76.2 8 3.5
    endloop
  endfacet
  facet normal -0 0 1
    outer loop
      vertex 69.2 -6.4 3.5
      vertex 76.2 -8 3.5
      vertex 76.2 -6.4 3.5
    endloop
  endfacet
  facet normal 0 0 1
    outer loop
      vertex 7 3.4 3.5
      vertex 57 8 3.5
      vertex 7 6.4 3.5
    endloop
  endfacet
  facet normal 0 0 1
    outer loop
      vertex 0 -8 3.5
      vertex 57 8 3.5
      vertex 7 3.4 3.5
    endloop
  endfacet
  facet normal 0 0 1
    outer loop
      vertex 57 8 3.5
      vertex 0 -8 3.5
      vertex 69.2 -6.4 3.5
    endloop
  endfacet
  facet normal 0 0 1
    outer loop
      vertex 0 -3.101 3.5
      vertex 7 3.4 3.5
      vertex 0 3.4 3.5
    endloop
  endfacet
  facet normal 0 0 1
    outer loop
      vertex 0 -5.901 3.5
      vertex 7 3.4 3.5
      vertex 0 -3.101 3.5
    endloop
  endfacet
  facet normal 0 0 1
    outer loop
      vertex 0 -8 3.5
      vertex 7 3.4 3.5
      vertex 0 -5.901 3.5
    endloop
  endfacet
  facet normal 0 0 1
    outer loop
      vertex 69.2 -6.4 3.5
      vertex 0 -8 3.5
      vertex 76.2 -8 3.5
    endloop
  endfacet
  facet normal 0 1 -0
    outer loop
      vertex 76.2 -8 3.5
      vertex 0 -8 5
      vertex 76.2 -8 5
    endloop
  endfacet
  facet normal 0 1 0
    outer loop
      vertex 0 -8 5
      vertex 76.2 -8 3.5
      vertex 0 -8 3.5
    endloop
  endfacet
  facet normal -0 0 1
    outer loop
      vertex 0 -8 5
      vertex 76.2 -9 5
      vertex 76.2 -8 5
    endloop
  endfacet
  facet normal 0 0 1
    outer loop
      vertex 76.2 -9 5
      vertex 0 -8 5
      vertex 0 -9 5
    endloop
  endfacet
  facet normal 0 -0.819232 0.573462
    outer loop
      vertex 0 -12.5 0
      vertex 76.2 -9 5
      vertex 0 -9 5
    endloop
  endfacet
  facet normal 0 -0.819232 0.573462
    outer loop
      vertex 76.2 -9 5
      vertex 0 -12.5 0
      vertex 76.2 -12.5 0
    endloop
  endfacet
  facet normal 0 0.819232 0.573462
    outer loop
      vertex 3 10.05 3.5
      vertex 0 9 5
      vertex 3 9 5
    endloop
  endfacet
  facet normal -0 0.819232 0.573462
    outer loop
      vertex 0 12.5 0
      vertex 3 10.05 3.5
      vertex 3 12.5 0
    endloop
  endfacet
  facet normal -1.94033e-16 0.819232 0.573462
    outer loop
      vertex 3 10.05 3.5
      vertex 0 12.5 0
      vertex 0 9 5
    endloop
  endfacet
  facet normal 0 0.819232 0.573462
    outer loop
      vertex 76.2 9 5
      vertex 57 10.05 3.5
      vertex 57 9 5
    endloop
  endfacet
  facet normal 3.03177e-17 0.819232 0.573462
    outer loop
      vertex 76.2 12.5 0
      vertex 57 10.05 3.5
      vertex 76.2 9 5
    endloop
  endfacet
  facet normal 0 0.819232 0.573462
    outer loop
      vertex 57 10.05 3.5
      vertex 76.2 12.5 0
      vertex 57 12.5 0
    endloop
  endfacet
  facet normal 1 0 0
    outer loop
      vertex 57 23 3.5
      vertex 57 12.5 0
      vertex 57 23 2.5
    endloop
  endfacet
  facet normal 1 0 -0
    outer loop
      vertex 57 12.5 0
      vertex 57 23 3.5
      vertex 57 10.05 3.5
    endloop
  endfacet
  facet normal 1 -0 0
    outer loop
      vertex 57 23 2.5
      vertex 57 27 0
      vertex 57 27 2.5
    endloop
  endfacet
  facet normal 1 0 0
    outer loop
      vertex 57 27 0
      vertex 57 23 2.5
      vertex 57 12.5 0
    endloop
  endfacet
  facet normal -1 0 0
    outer loop
      vertex 57 8 3.5
      vertex 57 9 5
      vertex 57 10.05 3.5
    endloop
  endfacet
  facet normal -1 -0 0
    outer loop
      vertex 57 9 5
      vertex 57 8 3.5
      vertex 57 8 5
    endloop
  endfacet
  facet normal 1 0 0
    outer loop
      vertex 3 8 3.5
      vertex 3 9 5
      vertex 3 8 5
    endloop
  endfacet
  facet normal 1 0 0
    outer loop
      vertex 3 9 5
      vertex 3 8 3.5
      vertex 3 10.05 3.5
    endloop
  endfacet
  facet normal -1 0 0
    outer loop
      vertex 3 27 0
      vertex 3 23 2.5
      vertex 3 27 2.5
    endloop
  endfacet
  facet normal -1 0 0
    outer loop
      vertex 3 12.5 0
      vertex 3 23 2.5
      vertex 3 27 0
    endloop
  endfacet
  facet normal -1 0 0
    outer loop
      vertex 3 12.5 0
      vertex 3 23 3.5
      vertex 3 23 2.5
    endloop
  endfacet
  facet normal -1 -0 0
    outer loop
      vertex 3 23 3.5
      vertex 3 12.5 0
      vertex 3 10.05 3.5
    endloop
  endfacet
  facet normal 0 1 -0
    outer loop
      vertex 57 27 0
      vertex 3 27 2.5
      vertex 57 27 2.5
    endloop
  endfacet
  facet normal 0 1 0
    outer loop
      vertex 3 27 2.5
      vertex 57 27 0
      vertex 3 27 0
    endloop
  endfacet
  facet normal -0 0 1
    outer loop
      vertex 3 27 2.5
      vertex 57 23 2.5
      vertex 57 27 2.5
    endloop
  endfacet
  facet normal 0 0 1
    outer loop
      vertex 57 23 2.5
      vertex 3 27 2.5
      vertex 3 23 2.5
    endloop
  endfacet
  facet normal 0 1 -0
    outer loop
      vertex 57 23 2.5
      vertex 3 23 3.5
      vertex 57 23 3.5
    endloop
  endfacet
  facet normal 0 1 0
    outer loop
      vertex 3 23 3.5
      vertex 57 23 2.5
      vertex 3 23 2.5
    endloop
  endfacet
  facet normal 1 -0 0
    outer loop
      vertex 0 -5.901 4.6
      vertex 0 -3.101 3.5
      vertex 0 -3.101 4.6
    endloop
  endfacet
  facet normal 1 0 0
    outer loop
      vertex 0 -3.101 3.5
      vertex 0 -5.901 4.6
      vertex 0 -5.901 3.5
    endloop
  endfacet
  facet normal 0 1 -0
    outer loop
      vertex 76.2 -8.4 0
      vertex 69.2 -8.4 2.5
      vertex 76.2 -8.4 2.5
    endloop
  endfacet
  facet normal 0 1 0
    outer loop
      vertex 69.2 -8.4 2.5
      vertex 76.2 -8.4 0
      vertex 69.2 -8.4 0
    endloop
  endfacet
  facet normal 0 -0.413803 -0.910366
    outer loop
      vertex 69.2 -3.4 3.5
      vertex 76.2 -1.2 2.5
      vertex 76.2 -3.4 3.5
    endloop
  endfacet
  facet normal -0 -0.413803 -0.910366
    outer loop
      vertex 76.2 -1.2 2.5
      vertex 69.2 -3.4 3.5
      vertex 69.2 -1.2 2.5
    endloop
  endfacet
  facet normal 0 -1 0
    outer loop
      vertex 69.2 -1.2 0
      vertex 76.2 -1.2 2.5
      vertex 69.2 -1.2 2.5
    endloop
  endfacet
  facet normal 0 -1 -0
    outer loop
      vertex 76.2 -1.2 2.5
      vertex 69.2 -1.2 0
      vertex 76.2 -1.2 0
    endloop
  endfacet
  facet normal 0 0.447214 -0.894427
    outer loop
      vertex 69.2 -8.4 2.5
      vertex 76.2 -6.4 3.5
      vertex 76.2 -8.4 2.5
    endloop
  endfacet
  facet normal 0 0.447214 -0.894427
    outer loop
      vertex 76.2 -6.4 3.5
      vertex 69.2 -8.4 2.5
      vertex 69.2 -6.4 3.5
    endloop
  endfacet
  facet normal 1 0 0
    outer loop
      vertex 69.2 -3.4 3.5
      vertex 69.2 -1.2 0
      vertex 69.2 -1.2 2.5
    endloop
  endfacet
  facet normal 1 0 0
    outer loop
      vertex 69.2 -8.4 0
      vertex 69.2 -3.4 3.5
      vertex 69.2 -6.4 3.5
    endloop
  endfacet
  facet normal 1 0 0
    outer loop
      vertex 69.2 -8.4 0
      vertex 69.2 -6.4 3.5
      vertex 69.2 -8.4 2.5
    endloop
  endfacet
  facet normal 1 0 0
    outer loop
      vertex 69.2 -3.4 3.5
      vertex 69.2 -8.4 0
      vertex 69.2 -1.2 0
    endloop
  endfacet
  facet normal 0 -1 0
    outer loop
      vertex 0 8.4 0
      vertex 7 8.4 2.5
      vertex 0 8.4 2.5
    endloop
  endfacet
  facet normal 0 -1 -0
    outer loop
      vertex 7 8.4 2.5
      vertex 0 8.4 0
      vertex 7 8.4 0
    endloop
  endfacet
  facet normal 0 1 -0
    outer loop
      vertex 7 1.2 0
      vertex 0 1.2 2.5
      vertex 7 1.2 2.5
    endloop
  endfacet
  facet normal 0 1 0
    outer loop
      vertex 0 1.2 2.5
      vertex 7 1.2 0
      vertex 0 1.2 0
    endloop
  endfacet
  facet normal 0 -0.447214 -0.894427
    outer loop
      vertex 0 6.4 3.5
      vertex 7 8.4 2.5
      vertex 7 6.4 3.5
    endloop
  endfacet
  facet normal -0 -0.447214 -0.894427
    outer loop
      vertex 7 8.4 2.5
      vertex 0 6.4 3.5
      vertex 0 8.4 2.5
    endloop
  endfacet
  facet normal 0 0.413803 -0.910366
    outer loop
      vertex 0 1.2 2.5
      vertex 7 3.4 3.5
      vertex 7 1.2 2.5
    endloop
  endfacet
  facet normal 0 0.413803 -0.910366
    outer loop
      vertex 7 3.4 3.5
      vertex 0 1.2 2.5
      vertex 0 3.4 3.5
    endloop
  endfacet
  facet normal -1 0 0
    outer loop
      vertex 7 8.4 0
      vertex 7 6.4 3.5
      vertex 7 8.4 2.5
    endloop
  endfacet
  facet normal -1 0 0
    outer loop
      vertex 7 8.4 0
      vertex 7 3.4 3.5
      vertex 7 6.4 3.5
    endloop
  endfacet
  facet normal -1 0 0
    outer loop
      vertex 7 1.2 0
      vertex 7 3.4 3.5
      vertex 7 8.4 0
    endloop
  endfacet
  facet normal -1 0 0
    outer loop
      vertex 7 3.4 3.5
      vertex 7 1.2 0
      vertex 7 1.2 2.5
    endloop
  endfacet
endsolid OpenSCAD_Model
